<svg width="40" height="40" viewBox="0 0 40 40" fill="none" xmlns="http://www.w3.org/2000/svg">
<path d="M8.5412 16.3765V26.4353H30.4588C30.4588 25.9813 30.4588 16.8724 30.4588 16.3765H25.4824V24.6353H21.9883V16.3765H17.0118V24.6353H13.5177V16.3765H8.5412Z" fill="var(--nav-menu-icon-secondary-accent)"/>
<path d="M32.2062 14.7882H6.79442C5.98045 14.7882 5.69647 13.7035 6.40292 13.3032L19.1088 6.10324C19.3516 5.96559 19.649 5.96559 19.8918 6.10324L32.5977 13.3032C33.3058 13.7045 33.0182 14.7882 32.2062 14.7882Z" fill="var(--nav-menu-icon-primary-accent)"/>
<path d="M33 31.4117V29.6117C33 28.736 32.2874 28.0234 31.4118 28.0234H7.58824C6.71259 28.0234 6 28.736 6 29.6117V31.4117C6 32.2873 6.71259 32.9999 7.58824 32.9999H31.4118C32.2874 32.9999 33 32.2873 33 31.4117Z" fill="var(--nav-menu-icon-primary-accent)"/>
</svg>
