<svg width="40" height="40" viewBox="0 0 40 40" fill="none" xmlns="http://www.w3.org/2000/svg">
<g clip-path="url(#clip0_5907_5009)">
<path d="M18.8333 4H34.1667C36.2801 4 38 5.61522 38 7.6V36.4C38 38.3848 36.2801 40 34.1667 40H18.8333C16.7199 40 15 38.3848 15 36.4V7.6C15 5.61522 16.7199 4 18.8333 4Z" fill="#d8dee4"/>
<path d="M25.9479 37.2708C27.0736 37.2708 27.9861 36.3753 27.9861 35.2708C27.9861 34.1662 27.0736 33.2708 25.9479 33.2708C24.8222 33.2708 23.9097 34.1662 23.9097 35.2708C23.9097 36.3753 24.8222 37.2708 25.9479 37.2708Z" fill="#798da1"/>
<path d="M24.7095 4.4392C24.9458 2.86117 26.2575 1.65 27.8359 1.65C28.4297 1.65 29.0003 1.82134 29.4952 2.14093C30.2481 0.821224 31.6036 0 33.1094 0C35.4356 0 37.3281 1.97388 37.3281 4.4C37.3281 4.41503 37.3281 4.43062 37.3276 4.44565C38.8226 4.70829 40 6.06771 40 7.7C40 9.51973 38.5456 11 36.8008 11H25.1992C23.4544 11 22 9.51973 22 7.7C22 6.05378 23.1964 4.68574 24.7095 4.4392Z" fill="#798da1"/>
<path d="M17 16L32.5576 16C33.3545 16 34 16.63 34 17.4077L34 26.5923C34 27.37 33.3545 28 32.5575 28L17 28L17 16Z" fill="#9faebc"/>
<path d="M20 9.40272L20 34.5973C20 35.7518 18.6506 36.4106 17.7065 35.7161L0.571572 23.1195C-0.190524 22.5594 -0.190524 21.4413 0.571572 20.8812L17.7066 8.28393C18.6506 7.58941 20 8.24822 20 9.40272Z" fill="#9faebc"/>
</g>
<defs>
<clipPath id="clip0_5907_5009">
<rect width="40" height="40" fill="#fff"/>
</clipPath>
</defs>
</svg>
