<svg width="80" height="80" viewBox="0 0 80 80" fill="none" xmlns="http://www.w3.org/2000/svg">
<rect x="21" y="32" width="38" height="25" fill="#fff"/>
<path d="M75.0984 69.9999H54.9016C52.7498 69.9947 51.0052 68.2779 51 66.1603V24.2395C51.0052 22.1218 52.7498 20.4051 54.9016 20.3999H75.0984C77.2502 20.4051 78.9948 22.1218 79 24.2395V66.1616C78.9935 68.2792 77.2502 69.9947 75.0984 69.9999Z" fill="#d8dee4"/>
<path fill-rule="evenodd" clip-rule="evenodd" d="M54.8454 67.6277H74.7096L74.711 67.6277C75.5211 67.625 76.1787 66.969 76.1828 66.1574V24.2427C76.1795 23.4326 75.522 22.7752 74.7118 22.7721H54.8432C54.0329 22.7752 53.3753 23.4328 53.3722 24.2431V66.1567C53.3753 66.9673 54.0333 67.625 54.8439 67.6277L54.8454 67.6277ZM54.8396 69.9999C52.7219 69.9947 51.0052 68.2779 51 66.1603V24.2395C51.0052 22.1218 52.7219 20.4051 54.8396 20.3999H74.7154C76.833 20.4051 78.5498 22.1218 78.555 24.2395V66.1616C78.5485 68.2792 76.833 69.9947 74.7154 69.9999H54.8396Z" fill="#d8dee4"/>
<path d="M75.0984 70.0001H54.9016C52.7498 69.9949 51.0052 68.2781 51 66.1605V61.2974C63.865 61.2974 67.5516 61.2974 79 61.2974V66.1618C78.9935 68.2794 77.2502 69.9949 75.0984 70.0001Z" fill="#9faebc"/>
<rect x="55" y="25" width="9" height="9" rx="1" fill="#798da1"/>
<rect x="66" y="25" width="9" height="9" rx="1" fill="#798da1"/>
<rect x="55" y="36" width="9" height="9" rx="1" fill="#798da1"/>
<rect x="66" y="36" width="9" height="9" rx="1" fill="#fff"/>
<rect x="55" y="47" width="9" height="9" rx="1" fill="#9faebc"/>
<rect x="66" y="47" width="9" height="9" rx="1" fill="#798da1"/>
<path d="M37.2268 12.0017C34.5345 5.37522 27.1149 2.24203 20.6546 5.00363C16.2373 6.89184 13.2339 11.1714 12.8897 16.0673C9.15667 16.5969 6.54891 20.1303 7.06516 23.9595C7.53234 27.4244 10.4214 30.0035 13.8314 30H37.2267C42.072 30 46 25.9709 46 21.0009C46 16.0309 42.0722 12.0017 37.2268 12.0017Z" fill="#d8dee4"/>
<path d="M57.2692 72.5815H56.1678V42.7349C54.3301 45.1939 49.5575 45.1939 47.8791 42.7349V51.4522H35.2235V46.041C34.6317 46.2249 34.0161 46.3551 33.3664 46.3551C32.7185 46.3551 32.1037 46.225 31.5111 46.041V51.4522H19.461V43.8369C17.0922 46.2959 13.5411 46.2959 11.1724 43.8369V72.5816H9.99685C8.55506 72.5816 7.38708 73.7943 7.38708 75.291C7.38708 76.7877 8.55506 78.0002 9.99685 78.0002H57.2692C60.3318 77.9999 60.2843 72.5815 57.2692 72.5815ZM47.8791 55.305V61.4484C47.8791 62.6357 46.6636 63.6123 45.511 63.6123H35.2236V55.3049L47.8791 55.305ZM31.5113 55.305V63.6124L21.4353 63.6123C20.2834 63.6123 19.461 62.644 19.461 61.4484V55.305L31.5113 55.305Z" fill="#798da1"/>
<path d="M57.2692 72.4897H56.1678C39.5904 72.4897 11.1724 72.4899 11.1724 72.4899H9.99685C8.55506 72.4899 7.38708 73.723 7.38708 75.245C7.38708 76.767 8.55506 78 9.99685 78H57.2692C60.3318 77.9997 60.2843 72.4897 57.2692 72.4897Z" fill="#9faebc"/>
<path d="M4.36712 48.0474C4.81643 48.1812 5.27025 48.2449 5.71738 48.2449C7.74681 48.2449 9.62132 46.9273 10.2321 44.887L10.48 44.0607C10.6478 45.561 11.5272 46.883 12.8428 47.6229C13.2673 47.8583 13.7199 48.0527 14.2224 48.1521C14.5332 48.215 14.8429 48.2449 15.1473 48.2449C17.3508 48.2449 19.3208 46.6972 19.7658 44.4592L19.8808 43.8858C19.9987 45.481 20.9149 46.8863 22.2771 47.6455C22.824 47.9513 23.4393 48.1531 24.1041 48.2203C24.2631 48.2374 24.4213 48.2441 24.5771 48.2441C26.9695 48.2441 29.0194 46.4338 29.2629 44.0077L29.2977 43.6588C29.3408 45.3718 30.3025 46.8419 31.7104 47.6281C32.3903 48.0084 33.1645 48.2439 33.9984 48.2439C34.8354 48.2439 35.6087 48.0084 36.2887 47.6281C37.6954 46.8419 38.6581 45.3718 38.7026 43.6588L38.736 44.0077C38.9798 46.4336 41.0286 48.2441 43.4218 48.2441C43.5787 48.2441 43.7358 48.2374 43.8951 48.2203C44.5588 48.1531 45.1741 47.9513 45.7229 47.6455C47.0842 46.8863 48.0016 45.481 48.1172 43.8858L48.2321 44.4592C48.6792 46.6981 50.6479 48.2449 52.8507 48.2449C53.156 48.2449 53.4646 48.2148 53.7766 48.1521C54.2767 48.0527 54.7316 47.8583 55.154 47.6229C56.4718 46.8829 57.3512 45.561 57.5191 44.0607L57.7669 44.887C58.3778 46.9273 60.2522 48.2449 62.2826 48.2449C62.7289 48.2449 63.1826 48.1812 63.6319 48.0474C66.1281 47.3041 67.5466 44.6839 66.8017 42.1965L62.77 28.7395C61.9277 25.927 59.3341 24 56.392 24H11.6084C8.66495 24 6.07143 25.927 5.22903 28.7395L1.1983 42.1965C0.453354 44.684 1.87214 47.3042 4.36712 48.0474Z" fill="#9faebc"/>
<path d="M31.5112 55.3047V63.612L21.4352 63.6119C20.2834 63.6119 19.4609 62.6437 19.4609 61.448V55.3047L31.5112 55.3047Z" fill="#9faebc"/>
<path d="M19.4609 45.4304V51.4519H31.5111V47.5103C30.2124 46.7004 29.3387 45.2896 29.2976 43.6587L29.2628 44.0076C29.0193 46.4336 26.9694 48.2439 24.5771 48.2439C24.4212 48.2439 24.263 48.2373 24.104 48.2201C23.4392 48.153 22.8239 47.9511 22.277 47.6454C20.9149 46.8862 19.9986 45.4808 19.8807 43.8856L19.7658 44.459C19.698 44.7998 19.5949 45.1246 19.4609 45.4304Z" fill="#fff"/>
<path d="M35.2234 48.0726C35.5986 47.9664 35.9549 47.8146 36.2886 47.6279C37.6954 46.8418 38.658 45.3717 38.7025 43.6587L38.736 44.0076C38.9797 46.4335 41.0285 48.2439 43.4217 48.2439C43.5786 48.2439 43.7357 48.2373 43.895 48.2201C44.5588 48.153 45.174 47.9511 45.7229 47.6454C46.7378 47.0793 47.506 46.1541 47.8791 45.0588V51.4519H35.2234V48.0726Z" fill="#fff"/>
<path d="M47.8791 61.4481V55.3048L35.2235 55.3047V63.612H45.5109C46.6635 63.612 47.8791 62.6355 47.8791 61.4481Z" fill="#d8dee4"/>
<path d="M50 15.4615C50 14.5791 50.3885 13.7414 51.0622 13.1714L61.0622 4.70984C62.1807 3.76339 63.8193 3.76339 64.9378 4.70984L74.9378 13.1714C75.6115 13.7414 76 14.5791 76 15.4615V29.0701C76 30.1747 75.1046 31.0701 74 31.0701H52C50.8954 31.0701 50 30.1747 50 29.0701V15.4615Z" fill="#7e9bfa"/>
<path d="M67.4857 19.1864C68.1714 19.5792 68.1714 20.5614 67.4857 20.9543L60.5429 24.932C59.8571 25.3249 59 24.8338 59 24.0481L59 16.0925C59 15.3068 59.8571 14.8157 60.5429 15.2086L67.4857 19.1864Z" fill="#fff"/>
</svg>
