<svg width="16" height="12" viewBox="0 0 16 12" fill="none" xmlns="http://www.w3.org/2000/svg">
<path d="M13.3357 6.69991L9.19039 10.6864C8.87796 10.987 8.87796 11.4741 9.19039 11.7747C9.50292 12.0751 10.0095 12.0751 10.3219 11.7747L15.7657 6.53944C16.0781 6.23894 16.0781 5.75174 15.7657 5.45124L10.322 0.216026C10.004 -0.079248 9.49743 -0.0707699 9.1904 0.234966C8.89091 0.533216 8.89091 1.00603 9.19039 1.30423L13.2413 5.19991L0.75 5.19991C0.335786 5.19991 3.62118e-08 5.5357 0 5.94991C-3.62117e-08 6.36413 0.335787 6.69991 0.75 6.69991L13.3357 6.69991Z" fill="currentColor"/>
</svg>
