<svg width="20" height="16" viewBox="0 0 20 16" fill="none" xmlns="http://www.w3.org/2000/svg">
<path d="M6.00715 8.7143C5.61673 8.7143 5.30026 8.39442 5.30026 7.9998C5.30026 7.60518 5.61673 7.2853 6.00715 7.2853H19.2931C19.6835 7.2853 20 7.60518 20 7.9998C20 8.39442 19.6835 8.7143 19.2931 8.7143H6.00715ZM6.00715 15.2857C5.61673 15.2857 5.30026 14.9658 5.30026 14.5712C5.30026 14.1766 5.61673 13.8572 6.00715 13.8572H19.2931C19.6835 13.8572 20 14.1766 20 14.5712C20 14.9658 19.6835 15.2857 19.2931 15.2857H6.00715ZM6.00715 2.14263C5.61673 2.14263 5.30026 1.82325 5.30026 1.42863C5.30026 1.03401 5.61673 0.71413 6.00715 0.71413H19.2931C19.6835 0.71413 20 1.03401 20 1.42863C20 1.82325 19.6835 2.14263 19.2931 2.14263H6.00715ZM0 8.00013C0 7.20541 0.632946 6.57167 1.41377 6.57167C2.19954 6.57167 2.82703 7.21092 2.82703 8.00013C2.82703 8.79485 2.19408 9.42859 1.41377 9.42859C0.627507 9.42859 0 8.78934 0 8.00013ZM0 14.5715C0 13.7773 0.632946 13.1431 1.41377 13.1431C2.19954 13.1431 2.82703 13.7828 2.82703 14.5715C2.82703 15.3663 2.19408 16 1.41377 16C0.627507 16 0 15.3607 0 14.5715ZM0 1.42846C0 0.633746 0.632946 0 1.41377 0C2.19954 0 2.82703 0.639256 2.82703 1.42846C2.82703 2.22268 2.19408 2.85692 1.41377 2.85692C0.627507 2.85692 0 2.21717 0 1.42846Z" fill="currentColor"/>
</svg>
