<svg width="20" height="20" viewBox="0 0 20 20" fill="none" xmlns="http://www.w3.org/2000/svg">
<path d="M6 12C6 12.5523 5.55228 13 5 13C4.44772 13 4 12.5523 4 12C4 11.4477 4.44772 11 5 11C5.55228 11 6 11.4477 6 12Z" fill="currentColor"/>
<path d="M10 13C10.5523 13 11 12.5523 11 12C11 11.4477 10.5523 11 10 11C9.44771 11 9 11.4477 9 12C9 12.5523 9.44771 13 10 13Z" fill="currentColor"/>
<path d="M16 12C16 12.5523 15.5523 13 15 13C14.4477 13 14 12.5523 14 12C14 11.4477 14.4477 11 15 11C15.5523 11 16 11.4477 16 12Z" fill="currentColor"/>
<path d="M5 16C5.55228 16 6 15.5523 6 15C6 14.4477 5.55228 14 5 14C4.44772 14 4 14.4477 4 15C4 15.5523 4.44772 16 5 16Z" fill="currentColor"/>
<path d="M11 15C11 15.5523 10.5523 16 10 16C9.44771 16 9 15.5523 9 15C9 14.4477 9.44771 14 10 14C10.5523 14 11 14.4477 11 15Z" fill="currentColor"/>
<path d="M15 16C15.5523 16 16 15.5523 16 15C16 14.4477 15.5523 14 15 14C14.4477 14 14 14.4477 14 15C14 15.5523 14.4477 16 15 16Z" fill="currentColor"/>
<path fill-rule="evenodd" clip-rule="evenodd" d="M14.5833 1.66675H5.41669V0.625C5.41669 0.279999 5.13669 0 4.79169 0C4.44669 0 4.16669 0.279999 4.16669 0.625V1.66675H2.29172C1.02753 1.66675 0 2.69412 0 3.95831V17.7083C0 18.9725 1.02753 20 2.29172 20H17.7083C18.9725 20 20 18.9725 20 17.7083V3.95831C20 2.69412 18.9725 1.66675 17.7083 1.66675H15.8333V0.625C15.8333 0.279999 15.5533 0 15.2083 0C14.8633 0 14.5833 0.279999 14.5833 0.625V1.66675ZM4.79169 5C4.44669 5 4.16669 4.72 4.16669 4.375V2.91675H2.29172C1.71753 2.91675 1.25 3.38412 1.25 3.95831V6.66675H18.75V3.95831C18.75 3.38412 18.2825 2.91675 17.7083 2.91675H15.8333V4.375C15.8333 4.72 15.5533 5 15.2083 5C14.8633 5 14.5833 4.72 14.5833 4.375V2.91675H5.41669V4.375C5.41669 4.72 5.13669 5 4.79169 5ZM1.25 7.91675H18.75V17.7083C18.75 18.2825 18.2825 18.75 17.7083 18.75H2.29172C1.71753 18.75 1.25 18.2825 1.25 17.7083V7.91675Z" fill="currentColor"/>
</svg>
