<svg width="16" height="16" viewBox="0 0 16 16" fill="none" xmlns="http://www.w3.org/2000/svg">
<path d="M2.67505 0.458967C2.0631 -0.152989 1.07092 -0.152989 0.458966 0.458967C-0.152989 1.07092 -0.152989 2.0631 0.458967 2.67506L5.78391 8L0.458968 13.3249C-0.152988 13.9369 -0.15299 14.9291 0.458966 15.541C1.07092 16.153 2.0631 16.153 2.67505 15.541L8 10.2161L13.3249 15.541C13.9369 16.153 14.9291 16.153 15.541 15.541C16.153 14.9291 16.153 13.9369 15.541 13.3249L10.2161 8L15.541 2.67506C16.153 2.0631 16.153 1.07092 15.541 0.458967C14.9291 -0.152989 13.9369 -0.152989 13.3249 0.458967L8 5.78391L2.67505 0.458967Z" fill="currentColor"/>
</svg>
