<svg width="20" height="20" viewBox="0 0 20 20" fill="none" xmlns="http://www.w3.org/2000/svg">
<path fill-rule="evenodd" clip-rule="evenodd" d="M18.6439 6.85533H15.6841V3.05541C15.6841 2.72422 15.3597 2.49087 15.0101 2.49087H14.1703V1.26022C14.1703 0.92903 13.846 0.695679 13.4963 0.695679H5.89676C5.54709 0.695679 5.22276 0.92903 5.22276 1.26022V2.49087H4.38307C4.0334 2.49087 3.70907 2.72423 3.70907 3.05541V9.52994H1.24651C0.896837 9.52994 0.572502 9.76329 0.572502 10.0945C0.572502 13.4543 0.569221 16.6402 0.572719 20H19.3179V7.41987C19.3179 7.08868 18.9935 6.85533 18.6439 6.85533ZM6.57077 1.82475H12.8223V2.49087H6.57077V1.82475ZM1.92051 10.659H3.70907V19.0449H1.92051V10.659ZM5.05708 3.61995H14.336V19.0449H12.31V16.6415C12.31 16.3103 11.9857 16.077 11.636 16.077H7.7571C7.40743 16.077 7.08309 16.3103 7.08309 16.6415V19.0449H5.05708V3.61995ZM8.43115 19.0449V17.206H10.962V19.0449H8.43115ZM15.6841 19.0449V7.98441H17.9699V19.0449H15.6841Z" fill="currentColor"/>
</svg>
