<svg width="40" height="40" viewBox="0 0 40 40" fill="none" xmlns="http://www.w3.org/2000/svg">
<path d="M2.59546 3H33.5295C34.957 3 36.125 4.20522 36.125 5.67827V23.6021H0V5.67827C0 4.20522 1.16796 3 2.59546 3Z" fill="#d8dee4"/>
<path d="M2.56014 30.8127C1.15213 30.8127 0.00012207 29.5289 0.00012207 27.9598V23.6021H36.1249V27.9598C36.1249 29.5289 34.9729 30.8127 33.5649 30.8127H2.56014Z" fill="#9faebc"/>
<path d="M16.0556 30.8127L15.303 33.9031H10.5366C9.70527 33.9031 9.03137 34.5948 9.03137 35.4482C9.03137 36.3016 9.70527 36.9934 10.5366 36.9934H17.1118V36.9999H19.0131V36.9934H25.6942C26.5255 36.9934 27.1994 36.3016 27.1994 35.4482C27.1994 34.5948 26.5255 33.9031 25.6942 33.9031H20.9277L20.1751 30.8127H16.0556Z" fill="#9faebc"/>
<path d="M36.0668 32.9999C36.9907 32.9977 37.7392 32.2611 37.742 31.3519V9.64855C37.7397 8.73933 36.9907 8.00221 36.0668 8H23.6648C22.7556 8.00221 22.0184 8.73933 22.0162 9.64855V31.3513C22.0184 32.2605 22.7556 32.9977 23.6648 32.9999H36.0668Z" fill="#798da1"/>
<path d="M36.0668 32.9998H23.6914C22.7675 32.9976 22.0185 32.2604 22.0162 31.3512V29.2632C27.5399 29.2632 32.8265 29.2632 37.742 29.2632V31.3518C37.7392 32.261 36.9907 32.9976 36.0668 32.9998Z" fill="#9faebc"/>
<path d="M38.6066 35H31.3934C30.6249 34.9981 30.0019 34.3751 30 33.6066V18.3934C30.0019 17.6249 30.6249 17.0019 31.3934 17H38.6066C39.3751 17.0019 39.9981 17.6249 40 18.3934V33.6071C39.9977 34.3756 39.3751 34.9981 38.6066 35Z" fill="#d8dee4"/>
<path fill-rule="evenodd" clip-rule="evenodd" d="M31.3733 34.1391H38.4677L38.4682 34.1391C38.7575 34.1381 38.9924 33.9001 38.9939 33.6056V18.3946C38.9927 18.1006 38.7579 17.862 38.4685 17.8609H31.3726C31.0832 17.862 30.8483 18.1006 30.8472 18.3947V33.6053C30.8483 33.8995 31.0833 34.1381 31.3728 34.1391L31.3733 34.1391ZM31.3713 35C30.615 34.9981 30.0018 34.3751 30 33.6066V18.3934C30.0018 17.6249 30.615 17.0019 31.3713 17H38.4698C39.2261 17.0019 39.8392 17.6249 39.8411 18.3934V33.6071C39.8388 34.3756 39.2261 34.9981 38.4698 35H31.3713Z" fill="#d8dee4"/>
<path d="M38.6066 35H31.3934C30.6249 34.9982 30.0019 34.3751 30 33.6066V31.8418C34.5947 31.8418 35.9113 31.8418 40 31.8418V33.6071C39.9977 34.3756 39.3751 34.9982 38.6066 35Z" fill="#798da1"/>
</svg>
