<svg width="20" height="18" viewBox="0 0 20 18" fill="none" xmlns="http://www.w3.org/2000/svg">
<path d="M16.9 0.105667V1.48846C13.0258 1.32479 9.58234 4.44181 9.04688 8.73254C8.96945 9.35303 8.95654 9.9676 9.00246 10.568L9.01628 10.7487L13.5269 7.40018C13.828 7.17664 14.239 7.26013 14.4473 7.60015C14.6588 7.94532 14.5732 8.412 14.2658 8.64021L8.69554 12.7753C8.39441 12.9989 7.98348 12.9154 7.77517 12.5754C7.76806 12.5638 7.76129 12.552 7.75484 12.5401L7.74949 12.5303L7.74385 12.5223C7.73888 12.5153 7.73387 12.5082 7.72924 12.5008L4.22119 6.92498C4.00598 6.5829 4.08608 6.11499 4.39113 5.88243C4.68993 5.65465 5.10164 5.73278 5.31359 6.06965L7.73356 9.91608L7.74259 9.5865C7.75207 9.24079 7.77829 8.8923 7.822 8.54208C8.44715 3.53266 12.4248 -0.0610532 16.9 0.105667Z" fill="currentColor"/>
<path d="M0 15V14H1.2V15C1.2 15.9941 2.00589 16.8 3 16.8H17C17.9941 16.8 18.8 15.9941 18.8 15V14H20V15C20 16.6569 18.6569 18 17 18H3C1.34315 18 0 16.6569 0 15Z" fill="currentColor"/>
</svg>
