<svg width="20" height="20" viewBox="0 0 20 20" fill="none" xmlns="http://www.w3.org/2000/svg">
<path fill-rule="evenodd" clip-rule="evenodd" d="M0 10C0 4.4775 4.4775 0 10 0C15.5225 0 20 4.4775 20 10C20 15.5225 15.5225 20 10 20C4.4775 20 0 15.5225 0 10ZM10.007 12.0146C9.55008 12.0178 9.23133 11.6516 9.09967 11.2168C8.97729 10.8119 8.70019 9.84644 8.45334 8.73272C8.20795 7.62559 7.98584 6.34343 7.98584 5.31585C7.98584 4.5822 8.21701 3.9928 8.60038 3.58301C8.98182 3.17528 9.49353 2.9684 10.0063 2.96741C10.5192 2.96642 11.0316 3.17145 11.4136 3.57932C11.7975 3.98913 12.0283 4.57978 12.0283 5.31602C12.0279 6.35083 11.7936 7.65667 11.541 8.77259C11.2867 9.89598 11.0066 10.8579 10.9021 11.2135C10.7759 11.6438 10.4615 12.0114 10.007 12.0146ZM10 16.7833C8.97153 16.7833 8.28334 15.9749 8.28334 15C8.28334 13.9935 9.00261 13.2167 10 13.2167C10.5025 13.2167 10.941 13.4009 11.2518 13.7343C11.5599 14.0647 11.7167 14.5131 11.7167 15C11.7167 15.4782 11.5587 15.9249 11.2533 16.256C10.9448 16.5905 10.507 16.7833 10 16.7833Z" fill="currentColor"/>
</svg>
