<svg width="40" height="40" viewBox="0 0 40 40" fill="none" xmlns="http://www.w3.org/2000/svg">
<path d="M34 13V34.6351C34 36.3866 32.5806 37.8116 30.8359 37.8116H9.16406C7.4194 37.8116 6 36.3866 6 34.6351V5.17646C6 3.42496 7.4194 2 9.16406 2H23C28 7 31 10 34 13Z" fill="#d8dee4"/>
<path d="M23 9.82354L23 2C25.5 4.5 31.5 10.5 34 13L26.1641 13C24.4194 13 23 11.575 23 9.82354Z" fill="#9faebc"/>
<circle cx="15.5" cy="29" r="3" fill="#fff"/>
<path d="M17.9865 16.2485C15.9933 15.8557 13.9362 15.9294 11.9762 16.4634C11.8383 16.5033 11.7172 16.5871 11.6312 16.7021C11.5453 16.8172 11.4993 16.9572 11.5003 17.1006V18.4855C11.5029 18.6908 11.6039 18.8824 11.7718 19.0006C11.9396 19.119 12.1541 19.1495 12.3484 19.0828C14.7825 18.329 17.4082 18.491 19.7313 19.5383C22.0544 20.5855 23.9146 22.4457 24.9618 24.7688C26.009 27.092 26.171 29.7177 25.4172 32.1518C25.3505 32.346 25.381 32.5606 25.4994 32.7284C25.6176 32.8963 25.8092 32.9972 26.0146 32.9999H27.3992C27.5429 33.0009 27.6828 32.9549 27.7978 32.869C27.9128 32.783 27.9967 32.6619 28.0364 32.5239C28.5706 30.5639 28.6443 28.5069 28.2515 26.5137C27.7463 23.9797 26.5016 21.6522 24.6745 19.8252C22.8475 17.9983 20.5203 16.7537 17.9865 16.2485Z" fill="#9faebc"/>
<path fill-rule="evenodd" clip-rule="evenodd" d="M15.4231 33C14.3827 33 13.3849 32.5867 12.6493 31.851C11.9136 31.1153 11.5003 30.1175 11.5003 29.0771C11.5003 28.0366 11.9135 27.0388 12.6493 26.3032C13.385 25.5675 14.3827 25.1541 15.4231 25.1541C16.4636 25.1541 17.4614 25.5674 18.197 26.3032C18.9327 27.0389 19.346 28.0366 19.346 29.0771C19.3449 30.1172 18.9312 31.1143 18.1957 31.8497C17.4603 32.5853 16.4633 32.9988 15.4231 33ZM15.4231 27.7694C15.0764 27.7694 14.7438 27.9072 14.4985 28.1524C14.2533 28.3977 14.1155 28.7303 14.1155 29.0771C14.1155 29.4238 14.2533 29.7564 14.4985 30.0018C14.7438 30.2469 15.0764 30.3847 15.4231 30.3847C15.7699 30.3847 16.1025 30.2469 16.3478 30.0018C16.593 29.7564 16.7308 29.4238 16.7308 29.0771C16.7303 28.7305 16.5924 28.398 16.3472 28.153C16.1022 27.9078 15.7697 27.7699 15.4231 27.7694Z" fill="#9faebc"/>
<path d="M11.8735 21.3603C13.4794 20.6166 15.278 20.3945 17.0166 20.7253C18.7126 21.0469 20.27 21.8778 21.4817 23.1075C22.6931 24.3373 23.5009 25.9072 23.797 27.608C24.0933 29.3088 23.8639 31.0594 23.1394 32.6264C23.085 32.7392 22.9996 32.8342 22.8932 32.9003C22.7868 32.9664 22.6638 33.001 22.5386 32.9998H21.059C20.9027 32.9984 20.7522 32.9412 20.6346 32.8384C20.5168 32.7357 20.4398 32.5943 20.4173 32.4397C20.395 32.2851 20.4285 32.1275 20.512 31.9956C21.3843 30.4953 21.5463 28.6853 20.9544 27.0538C20.3624 25.4223 19.0774 24.1373 17.446 23.5454C15.8146 22.9534 14.0047 23.1154 12.5043 23.9877C12.3723 24.0712 12.2148 24.1049 12.0602 24.0825C11.9056 24.06 11.7642 23.9829 11.6614 23.8653C11.5587 23.7475 11.5015 23.5971 11.5 23.4408V21.9612C11.4989 21.836 11.5335 21.7129 11.5996 21.6065C11.6657 21.5002 11.7607 21.4148 11.8735 21.3603Z" fill="#9faebc"/>
</svg>
