<svg width="24" height="24" viewBox="0 0 24 24" fill="none" xmlns="http://www.w3.org/2000/svg">
<path d="M7.71 9.7158L11 6.4158V14.0058C11 14.5581 11.4477 15.0058 12 15.0058C12.5523 15.0058 13 14.5581 13 14.0058V6.4158L16.29 9.7158C16.4778 9.90511 16.7334 10.0116 17 10.0116C17.2666 10.0116 17.5222 9.90511 17.71 9.7158C17.8993 9.52803 18.0058 9.27244 18.0058 9.0058C18.0058 8.73916 17.8993 8.48356 17.71 8.2958L12.71 3.2958C12.5222 3.10649 12.2666 3 12 3C11.7334 3 11.4778 3.10649 11.29 3.2958L6.29 8.2958C6.03634 8.54946 5.93728 8.91917 6.03012 9.26568C6.12297 9.61218 6.39362 9.88283 6.74012 9.97568C7.08663 10.0685 7.45634 9.96946 7.71 9.7158ZM21 15.0058C20.4477 15.0058 20 15.4535 20 16.0058V18.0058H4V16.0058C4 15.4535 3.55228 15.0058 3 15.0058C2.44772 15.0058 2 15.4535 2 16.0058V18.0058C2 19.1104 2.89543 20.0058 4 20.0058H20C21.1046 20.0058 22 19.1104 22 18.0058V16.0058C22 15.4535 21.5523 15.0058 21 15.0058Z" fill="currentColor"/>
</svg>
