<svg width="24" height="24" viewBox="0 0 24 24" fill="none" xmlns="http://www.w3.org/2000/svg">
<path d="M3.08933 19.5997C3.40023 19.5997 3.65951 19.4958 3.86717 19.2882C4.07483 19.0805 4.17866 18.8212 4.17866 18.5103V14.55C4.17866 13.6221 4.50111 12.8383 5.14602 12.1986C5.79092 11.5589 6.57214 11.239 7.48966 11.239H18.2932L15.0587 14.4735C14.8602 14.672 14.7635 14.9175 14.7687 15.2101C14.7739 15.5027 14.8797 15.7574 15.0862 15.9742C15.303 16.191 15.5603 16.2994 15.8581 16.2994C16.1558 16.2994 16.4131 16.191 16.6299 15.9742L21.6903 10.9138C21.8027 10.8014 21.8824 10.6812 21.9295 10.5533C21.9765 10.4253 22 10.2908 22 10.1497C22 10.0086 21.9765 9.87408 21.9295 9.74614C21.8824 9.61821 21.8027 9.49803 21.6903 9.38562L16.6024 4.29774C16.4039 4.09925 16.1558 4 15.8581 4C15.5603 4 15.303 4.10841 15.0862 4.32524C14.8694 4.54207 14.761 4.79676 14.761 5.08933C14.761 5.3819 14.8694 5.63659 15.0862 5.85342L18.2932 9.06038H7.48966C5.97664 9.06038 4.68344 9.59248 3.61005 10.6567C2.53668 11.7209 2 13.0187 2 14.55V18.5103C2 18.8212 2.10383 19.0805 2.31149 19.2882C2.51915 19.4958 2.77843 19.5997 3.08933 19.5997Z" fill="currentColor"/>
</svg>
