<svg width="24" height="24" viewBox="0 0 24 24" fill="none" xmlns="http://www.w3.org/2000/svg">
<path d="M5.86215 8.99881C6.21865 8.63543 6.79709 8.63543 7.15363 8.99881C7.51017 9.36215 7.51017 9.95169 7.15368 10.3151C6.99725 10.4931 6.77897 10.6034 6.54432 10.621C6.42516 10.6191 6.30783 10.5941 6.19869 10.5468C5.97039 10.4625 5.79031 10.279 5.70756 10.0463C5.66118 9.93505 5.63662 9.81547 5.63479 9.69403C5.61385 9.44005 5.69571 9.18882 5.86215 8.99881Z" fill="currentColor"/>
<path d="M6.11671 13.3255C6.46682 13.1796 6.8715 13.2567 7.14255 13.5207C7.5115 13.8823 7.51432 14.4706 7.14824 14.835L7.1426 14.8406C6.98073 15.0191 6.75486 15.1297 6.51204 15.1473C6.38874 15.1455 6.26733 15.1204 6.15439 15.073C6.0377 15.0302 5.93226 14.9633 5.84381 14.8778C5.45417 14.5376 5.41839 13.9501 5.76285 13.5653C5.77697 13.5495 5.79109 13.5346 5.80613 13.5207C5.89459 13.4343 6.00002 13.3682 6.11671 13.3255Z" fill="currentColor"/>
<path d="M9.44229 8.99554C9.80064 8.63421 10.3793 8.63699 10.735 9.00111C11.0906 9.36518 11.0878 9.95313 10.7296 10.3145C10.5595 10.4854 10.3301 10.582 10.0914 10.5839L10.128 10.621C10.0082 10.6191 9.89029 10.5941 9.78058 10.5467C9.66997 10.4993 9.56755 10.4334 9.47889 10.3516C9.39571 10.2634 9.33078 10.1594 9.2869 10.0451C9.24028 9.93366 9.21559 9.81385 9.21375 9.69215C9.19271 9.43767 9.27499 9.18593 9.44229 8.99554Z" fill="currentColor"/>
<path d="M13.4265 8.79919C13.7655 8.65327 14.1574 8.73039 14.4198 8.99438C14.5902 9.17005 14.6859 9.40707 14.6842 9.65433C14.6823 9.77611 14.6577 9.89601 14.6113 10.0075C14.5675 10.1219 14.5028 10.226 14.4199 10.3143C14.2604 10.489 14.0426 10.5987 13.8093 10.621C13.6899 10.6191 13.5723 10.594 13.463 10.5466C13.3527 10.4992 13.2506 10.4332 13.1622 10.3514C13.0793 10.2631 13.0146 10.159 12.9709 10.0447C12.9244 9.93318 12.8998 9.81327 12.8979 9.69149C12.877 9.43683 12.959 9.18491 13.1258 8.99438C13.2142 8.9126 13.3162 8.84659 13.4265 8.79919Z" fill="currentColor"/>
<path d="M16.8495 9.01281C17.2175 8.63817 17.823 8.6298 18.2013 8.99421C18.3769 9.1699 18.4755 9.40694 18.4736 9.65422C18.4718 9.776 18.4464 9.89592 18.3985 10.0075C18.3131 10.2408 18.1272 10.4249 17.8916 10.5094C17.7818 10.5699 17.6597 10.608 17.5349 10.621C17.2851 10.6228 17.0457 10.5252 16.8683 10.3514C16.49 9.98699 16.4815 9.38741 16.8495 9.01281Z" fill="currentColor"/>
<path d="M17.0964 13.3255C17.4378 13.1796 17.8325 13.2567 18.0968 13.5207C18.4566 13.8823 18.4594 14.4706 18.1024 14.835C17.9289 15.0126 17.6921 15.1111 17.4452 15.1102L17.4819 15.1473C17.3617 15.1455 17.2433 15.1204 17.1331 15.073C17.0202 15.0283 16.9174 14.9623 16.8302 14.8778L16.7201 14.7383C16.6852 14.6863 16.6577 14.6305 16.6375 14.571C16.6109 14.518 16.5925 14.4623 16.5824 14.4037C16.5778 14.3414 16.5778 14.2801 16.5824 14.2178C16.5613 13.9668 16.6366 13.7168 16.7935 13.5207C16.8807 13.4361 16.9835 13.3701 17.0964 13.3255Z" fill="currentColor"/>
<path d="M10.2281 13.3579H13.8772C14.3808 13.3579 14.7895 13.7587 14.7895 14.2526C14.7895 14.7465 14.3808 15.1473 13.8772 15.1473H10.2281C9.72447 15.1473 9.31578 14.7465 9.31578 14.2526C9.31578 13.7587 9.72447 13.3579 10.2281 13.3579Z" fill="currentColor"/>
<path fill-rule="evenodd" clip-rule="evenodd" d="M3.75 4.19995H20.25C21.7689 4.19995 23 5.43066 23 6.94917V17.0297C23 18.5481 21.7689 19.7789 20.25 19.7789H3.75C2.2311 19.7789 1 18.5481 1 17.0297V6.94917C1 5.4307 2.2311 4.19995 3.75 4.19995ZM20.25 17.946C20.756 17.946 21.1667 17.5355 21.1667 17.0296V6.94917C21.1667 6.44332 20.756 6.03278 20.25 6.03278H3.75C3.244 6.03278 2.83335 6.44332 2.83335 6.94917V17.0296C2.83335 17.5355 3.244 17.946 3.75 17.946H20.25Z" fill="currentColor"/>
</svg>
