<svg width="20" height="20" viewBox="0 0 20 20" fill="none" xmlns="http://www.w3.org/2000/svg">
<path d="M12.033 1.36666C13.8552 -0.455553 16.8096 -0.455553 18.6318 1.36666C20.454 3.18887 20.454 6.14326 18.6317 7.96547L14.3892 12.208C13.7924 12.805 13.0449 13.2289 12.2262 13.4345H12.1896L11.9963 13.4745L11.8896 13.4945L11.6596 13.5278H11.5464C11.4961 13.5278 11.4492 13.5334 11.4044 13.5388C11.3719 13.5426 11.3405 13.5464 11.3097 13.5478L11.1097 13.5711H10.8565C10.6902 13.5645 10.5245 13.5489 10.3599 13.5244C10.2233 13.5011 10.0899 13.4744 9.95664 13.4411L9.75999 13.3878C9.69 13.3678 9.6167 13.3445 9.54671 13.3178C9.52108 13.3081 9.49501 13.2987 9.46881 13.2894C9.42348 13.2732 9.37779 13.2569 9.33343 13.2378C9.3101 13.2279 9.28678 13.2182 9.26345 13.2086C9.21679 13.1893 9.17013 13.1701 9.12347 13.1479C8.62746 12.918 8.17614 12.6021 7.79038 12.2147C7.5202 11.9439 7.3794 11.57 7.40377 11.1882C7.42522 10.8664 7.56257 10.5633 7.79038 10.335C8.3165 9.83986 9.13721 9.83986 9.66337 10.335C10.4441 11.1148 11.7088 11.1148 12.4895 10.335L13.5827 9.24856L13.6093 9.21857L16.7355 6.09581C17.5168 5.31447 17.5168 4.04766 16.7355 3.26632C15.9541 2.48497 14.6873 2.48497 13.906 3.26632L11.3964 5.77255C11.3014 5.86823 11.1579 5.89721 11.0332 5.84585C10.3572 5.56942 9.6338 5.42792 8.90354 5.42925H8.78025C8.6441 5.43187 8.52006 5.35137 8.46698 5.22597C8.41328 5.10091 8.44097 4.95582 8.53697 4.85935L12.033 1.36666Z" fill="currentColor"/>
<path d="M11.4198 7.16563C11.7033 7.34595 11.966 7.55721 12.2029 7.79552C12.4731 8.06633 12.6139 8.44021 12.5896 8.82198C12.5666 9.14146 12.4294 9.44195 12.203 9.66851C11.6769 10.1637 10.8562 10.1637 10.33 9.66851C9.54928 8.88877 8.28455 8.88877 7.50383 9.66851L3.24791 13.9211C2.46657 14.7024 2.46657 15.9692 3.24791 16.7506C4.02926 17.5319 5.29606 17.5319 6.07741 16.7506L8.59363 14.231C8.6887 14.1353 8.83211 14.1064 8.95689 14.1577C9.63411 14.4331 10.3587 14.5735 11.0898 14.571H11.2231C11.4072 14.5699 11.5573 14.7182 11.5583 14.9023C11.5588 14.9918 11.5233 15.0778 11.4598 15.1409L7.96039 18.6402C7.08687 19.5148 5.90033 20.0043 4.6643 20C2.08742 19.9984 -0.000173556 17.9081 0.00146581 15.3312C0.00224788 14.0963 0.49255 12.9121 1.36489 12.0381L5.60413 7.79552C6.47796 6.91865 7.6656 6.42678 8.90354 6.42909C9.79545 6.42909 10.6687 6.68467 11.4198 7.16563Z" fill="currentColor"/>
</svg>
