<svg width="40" height="40" viewBox="0 0 40 40" fill="none" xmlns="http://www.w3.org/2000/svg">
<path d="M8.93787 21.9462H23.5727C24.3715 21.9462 25.019 21.2986 25.019 20.4999C25.019 19.7012 24.3715 19.0536 23.5727 19.0536H8.93787L10.8078 17.1838C11.3726 16.6191 11.3726 15.7033 10.8078 15.1385C10.2432 14.5736 9.3274 14.5736 8.76249 15.1385L4.42395 19.477C4.3904 19.5105 4.35877 19.5455 4.32869 19.5821C4.32136 19.5911 4.3151 19.6007 4.30796 19.6099C4.28588 19.6379 4.26419 19.6661 4.24432 19.6958C4.23854 19.7044 4.23381 19.7136 4.22813 19.7224C4.20826 19.7534 4.18879 19.7848 4.17124 19.8174C4.16786 19.8239 4.16507 19.8308 4.16169 19.8372C4.14347 19.8726 4.12592 19.9085 4.11059 19.9455C4.10866 19.95 4.10731 19.9548 4.10548 19.9595C4.08977 19.9984 4.07521 20.0379 4.06286 20.0785C4.06123 20.0836 4.06036 20.0889 4.05891 20.0941C4.04724 20.1339 4.03654 20.1741 4.02835 20.2153C4.02594 20.2275 4.02488 20.2401 4.02266 20.2525C4.01668 20.2866 4.0107 20.3208 4.00733 20.3556C4.00241 20.4033 4 20.4515 4 20.4999C4 20.5483 4.00241 20.5965 4.00733 20.6443C4.0107 20.6796 4.01687 20.714 4.02275 20.7485C4.02488 20.7604 4.02594 20.7727 4.02835 20.7845C4.03664 20.8261 4.04724 20.8667 4.05901 20.9069C4.06045 20.9116 4.06132 20.9166 4.06277 20.9213C4.07521 20.9621 4.08977 21.0019 4.10567 21.0413C4.10741 21.0455 4.10866 21.0501 4.1105 21.0543C4.12592 21.0916 4.14357 21.1277 4.16198 21.1633C4.16516 21.1695 4.16786 21.1761 4.17114 21.1823C4.18888 21.2152 4.20846 21.2468 4.22861 21.2782C4.23401 21.2867 4.23864 21.2956 4.24423 21.3039C4.26419 21.3337 4.28607 21.3621 4.30806 21.3902C4.3151 21.3993 4.32136 21.4088 4.32859 21.4177C4.35877 21.4542 4.3904 21.4893 4.42385 21.5228L8.76239 25.8613C9.0448 26.1438 9.41495 26.285 9.7851 26.285C10.1552 26.285 10.5254 26.1438 10.8077 25.8613C11.3725 25.2965 11.3725 24.3808 10.8077 23.816L8.93787 21.9462Z" fill="var(--nav-menu-icon-secondary-accent)"/>
<path d="M23.0147 8C18.7424 8 15.3636 10.2727 13.5179 13.5351C13.0358 14.2355 12.9049 15.2591 13.4244 16.0177C14.2888 17.28 15.8979 17.1383 16.2939 17.1383C19.9152 17.1383 18.246 17.1383 21.8669 17.1383C25.4878 17.1383 26.6356 18.8192 26.6356 20.5001C26.6356 22.181 25.4878 23.8619 21.8669 23.8619C18.6484 23.8619 19.3282 23.8619 16.2939 23.8619C15.3109 23.8619 14.5722 24.4222 13.9983 24.9825C13.4244 25.5428 13.1859 26.7499 13.5352 27.4899C14.7954 30.159 18.7549 32.9999 23.0147 32.9999C30.0745 32.9999 35.8181 27.3925 35.8181 20.4999C35.8181 13.6074 30.0745 8 23.0147 8Z" fill="var(--nav-menu-icon-secondary-accent)"/>
</svg>
