<svg width="40" height="40" viewBox="0 0 40 40" fill="none" xmlns="http://www.w3.org/2000/svg">
<path d="M6.52405 15.7L21.8365 1L37.149 15.7V36H6.52405V15.7Z" fill="#d8dee4"/>
<path d="M6.52405 15.7L21.8365 1L37.149 15.7V27.25L6.52405 15.7Z" fill="#d8dee4"/>
<path d="M37.1486 36H28.1852L15.4871 7.09512L21.8361 1L37.1486 15.7V36Z" fill="#9faebc"/>
<path d="M37.1486 15.7V27.25L21.8361 21.5476L15.4871 7.09512L21.8361 1L37.1486 15.7Z" fill="#798da1"/>
<ellipse cx="8.83655" cy="15" rx="2.5" ry="3" fill="#fff"/>
<path d="M16.624 34.8209L15.7337 37.3594L20.9058 39.1699L22.6864 34.0928L17.1753 22.9004C18.6676 20.7151 18.9559 17.8233 17.6841 15.2404C15.8188 11.4523 11.1639 9.82285 7.33991 11.6195C3.51593 13.4162 1.91338 17.9856 3.77869 21.7738C5.05049 24.3566 7.54326 25.9418 10.2226 26.1671L10.6465 27.0281L13.2325 27.9333L12.3422 30.4718L14.9283 31.3771L14.038 33.9156L16.624 34.8209ZM7.29747 15.88C6.87354 15.019 7.31869 13.7498 8.18778 13.3414C9.05686 12.9331 10.3499 13.3857 10.7738 14.2466C11.2825 15.2798 10.7526 16.3769 9.88351 16.7852C8.84061 17.2752 7.80619 16.9131 7.29747 15.88Z" fill="#9faebc"/>
</svg>
