<svg width="24" height="24" viewBox="0 0 24 24" fill="none" xmlns="http://www.w3.org/2000/svg">
<path d="M6.5 11C8.98528 11 11 8.98528 11 6.5C11 4.01472 8.98528 2 6.5 2C4.01472 2 2 4.01472 2 6.5C2 8.98528 4.01472 11 6.5 11Z" fill="currentColor"/>
<path d="M21.99 9.63999C22.27 10.11 22.05 10.5 21.5 10.5H13.5C13 10.5 12.73 10.11 13 9.63999L17 2.85999C17.0896 2.66448 17.2849 2.53912 17.5 2.53912C17.7151 2.53912 17.9104 2.66448 18 2.85999L21.99 9.63999Z" fill="currentColor"/>
<path d="M9.5 13.5C10.0523 13.5 10.5 13.9477 10.5 14.5V20.5C10.5 21.0523 10.0523 21.5 9.5 21.5H3.5C2.94772 21.5 2.5 21.0523 2.5 20.5V14.5C2.5 13.9477 2.94772 13.5 3.5 13.5H9.5Z" fill="currentColor"/>
<path d="M18.5 16.5H21C21.5523 16.5 22 16.9477 22 17.5C22 18.0523 21.5523 18.5 21 18.5H18.5V21C18.5 21.5523 18.0523 22 17.5 22C16.9477 22 16.5 21.5523 16.5 21V18.5H14C13.4477 18.5 13 18.0523 13 17.5C13 16.9477 13.4477 16.5 14 16.5H16.5V14C16.5 13.4477 16.9477 13 17.5 13C18.0523 13 18.5 13.4477 18.5 14V16.5Z" fill="currentColor"/>
</svg>
