<svg width="24" height="24" viewBox="0 0 24 24" fill="none" xmlns="http://www.w3.org/2000/svg">
<path d="M6.5 13H9.5C9.77614 13 10 13.2239 10 13.5V14.5C10 14.7761 9.77614 15 9.5 15H6.5C6.22386 15 6 14.7761 6 14.5V13.5C6 13.2239 6.22386 13 6.5 13Z" fill="currentColor"/>
<path fill-rule="evenodd" clip-rule="evenodd" d="M3.87 5H20.13C21.1628 5 22 5.83723 22 6.87V17.13C22 18.1628 21.1628 19 20.13 19H3.87C2.83723 19 2 18.1628 2 17.13V6.87C2 5.83723 2.83723 5 3.87 5ZM4 17H20V11H4V17ZM4 9H20V7H4V9Z" fill="currentColor"/>
</svg>
