<svg width="24" height="24" viewBox="0 0 24 24" fill="none" xmlns="http://www.w3.org/2000/svg">
<path d="M10 9C10 10.1046 9.10457 11 8 11C6.89543 11 6 10.1046 6 9C6 7.89543 6.89543 7 8 7C9.10457 7 10 7.89543 10 9Z" fill="currentColor"/>
<path fill-rule="evenodd" clip-rule="evenodd" d="M4 3H20C21.1046 3 22 3.89543 22 5V19C22 20.1046 21.1046 21 20 21H4C2.89543 21 2 20.1046 2 19V5C2 3.89543 2.89543 3 4 3ZM20 13.59V5H4V14.59L5.23 13.35C6.21134 12.3817 7.78866 12.3817 8.77 13.35L9.5 14.09L12.88 10.71C14.0513 9.54019 15.9487 9.54019 17.12 10.71L20 13.59ZM4 17.41V19H20V16.42L15.71 12.12C15.5222 11.9307 15.2666 11.8242 15 11.8242C14.7334 11.8242 14.4778 11.9307 14.29 12.12L10.21 16.21C10.0222 16.3993 9.76664 16.5058 9.5 16.5058C9.23336 16.5058 8.97777 16.3993 8.79 16.21L7.35 14.77C7.25927 14.6733 7.13259 14.6185 7 14.6185C6.86741 14.6185 6.74073 14.6733 6.65 14.77L4 17.41Z" fill="currentColor"/>
</svg>
