<svg width="20" height="20" viewBox="0 0 20 20" fill="none" xmlns="http://www.w3.org/2000/svg">
<path d="M9.22997 13.135H13.0948C13.2638 13.135 13.4024 13.2734 13.3976 13.4451V14.5627H13.3953C13.3953 14.7319 13.259 14.868 13.09 14.868H6.73864C6.56946 14.868 6.43335 14.7317 6.43335 14.5627V13.7972C6.43335 13.6822 6.49674 13.5764 6.60008 13.5248C7.57459 13.0295 8.17799 12.1091 8.17799 11.1182C8.17799 10.8574 8.17095 10.625 8.14048 10.3526H6.83268C6.6635 10.3526 6.52739 10.2164 6.52739 10.0474V9.08233C6.52739 8.91314 6.66366 8.77704 6.83268 8.77704H7.90103C7.83765 8.34265 7.78605 7.88718 7.78605 7.42924C7.78605 5.48987 9.1196 4.13733 11.031 4.13733C12.0196 4.13733 12.6018 4.40724 12.8601 4.56693C12.9775 4.64211 13.0316 4.78526 12.9916 4.91678L12.6863 5.92633C12.6582 6.0156 12.5923 6.08602 12.5078 6.12124C12.4233 6.15645 12.3245 6.14941 12.2448 6.10486C12.024 5.98284 11.6366 5.83724 11.0308 5.83724C9.89202 5.83724 9.65257 6.71069 9.65257 7.44332C9.65257 7.96466 9.71136 8.37083 9.78409 8.77472H11.7329C11.9021 8.77472 12.0382 8.91099 12.0382 9.08001V10.045C12.0382 10.2142 11.902 10.3503 11.7329 10.3503H9.97897C10.0094 10.8387 10.0094 11.3458 9.88741 11.8319C9.76293 12.3108 9.5446 12.7476 9.22997 13.135Z" fill="currentColor"/>
<path fill-rule="evenodd" clip-rule="evenodd" d="M0 10C0 4.48421 4.48421 0 10 0C15.5158 0 20 4.48421 20 10C20 15.5158 15.5158 20 10 20C4.48421 20 0 15.5158 0 10ZM1.38947 10C1.38947 14.7368 5.26316 18.6105 10 18.6105C14.7368 18.6105 18.6105 14.7368 18.6105 10C18.6105 5.26316 14.7368 1.38947 10 1.38947C5.26316 1.38947 1.38947 5.26316 1.38947 10Z" fill="currentColor"/>
</svg>
