<svg width="5em" height="1em" viewBox="0 0 382 80" fill="none" xmlns="http://www.w3.org/2000/svg">
<path d="M140.403 12.9339H158.607C166.391 12.9339 169.864 18.3232 169.864 23.5926C169.864 28.8621 166.391 34.2513 158.607 34.2513H140.403V12.9339ZM152.978 42.6345L170.343 62.5148H181.72L163.157 41.5567L164.834 41.1974C177.289 38.6824 179.205 28.8621 179.205 23.3531C179.205 10.419 168.547 4.5507 158.607 4.43094H131.181V62.5148H140.523V42.395H152.858L152.978 42.6345Z" fill="#222B33"/>
<path d="M193.696 38.4429L194.056 37.1255C195.613 31.4968 200.403 28.1435 206.87 28.1435C213.816 28.1435 218.127 31.4968 218.846 37.2453L218.966 38.4429H193.696ZM222.199 26.8261C218.726 22.9938 213.337 20.9579 206.63 20.9579C193.816 20.9579 185.193 29.4609 185.193 42.0357C185.193 55.3291 193.696 63.5926 207.469 63.5926C213.936 63.5926 220.283 61.3172 224.235 57.7243L218.966 52.5746C215.972 54.9699 211.062 56.1675 207.708 56.1675C200.163 56.1675 194.894 52.3351 194.056 46.2273L193.936 45.0297H227.229C227.589 37.2453 225.912 30.898 222.199 26.8261Z" fill="#222B33"/>
<path d="M343.756 22.0357H335.373V62.5148H343.756V22.0357Z" fill="#222B33"/>
<path d="M363.756 59.6405C366.152 61.916 369.744 63.1136 373.936 62.9938C376.69 62.8741 378.846 62.5148 381.361 61.5567L379.086 54.6106C377.649 55.2094 375.972 55.5687 374.655 55.5687C370.583 55.5687 368.187 52.9339 368.187 48.5028V29.2214H379.924V22.2753H368.307V10.419L359.924 11.2573V22.2753H352.02V29.2214H359.924V48.5028C359.924 53.413 361.241 57.1256 363.756 59.6405Z" fill="#222B33"/>
<path d="M254.295 55.6884C246.99 55.6884 241.122 49.7004 241.122 42.5148C241.122 35.3291 247.11 29.3411 254.295 29.3411C261.481 29.3411 267.469 35.3291 267.469 42.5148C267.469 49.7004 261.601 55.6884 254.295 55.6884ZM275.972 62.395V22.1555H267.828V25.7483L266.87 25.0297C263.158 22.395 258.846 20.9579 254.295 20.9579C242.439 20.9579 232.858 30.5387 232.858 42.395C232.858 54.2513 242.439 63.8321 254.295 63.8321C258.846 63.8321 263.158 62.395 266.87 59.7603L267.828 59.0417V62.395H275.972Z" fill="#222B33"/>
<path d="M306.511 28.9818C313.816 28.9818 319.684 34.9698 319.684 42.1555C319.684 49.3411 313.696 55.3291 306.511 55.3291C299.325 55.3291 293.337 49.3411 293.337 42.1555C293.337 34.9698 299.205 28.9818 306.511 28.9818ZM306.511 63.5926C318.367 63.5926 327.948 54.0118 327.948 42.1555C327.948 30.2992 318.367 20.7183 306.511 20.7183C301.96 20.7183 297.649 22.1555 293.936 24.7902L292.978 25.5088V22.1555H284.834V79.5207H292.978V58.8022L293.936 59.5207C297.649 62.1555 301.96 63.5926 306.511 63.5926Z" fill="#222B33"/>
<path d="M339.565 4.19141C337.05 4.19141 334.415 5.74829 334.415 9.34111C334.415 12.9339 337.05 14.4908 339.565 14.4908C342.08 14.4908 344.714 12.9339 344.714 9.34111C344.714 5.74829 342.08 4.19141 339.565 4.19141Z" fill="#222B33"/>
<path d="M96.4469 0L58.1235 0.11976L77.1655 12.5749V40L96.4469 27.0659V0Z" fill="#98C1C2"/>
<path d="M77.1662 40L38.9626 40.1198L57.8848 52.5749V80L77.1662 67.0659V40Z" fill="#D1263D"/>
<path d="M38.9625 13.0542L0.63916 13.174L19.6811 25.7488V53.0542L38.9625 40.1201V13.0542Z" fill="#FD9E1D"/>
</svg>
