<svg width="80" height="80" viewBox="0 0 80 80" fill="none" xmlns="http://www.w3.org/2000/svg">
<g clip-path="url(#clip0_5935_3706)">
<path d="M76.4441 79.9999H58.0108C56.0469 79.9952 54.4547 78.403 54.45 76.439V37.5609C54.4547 35.597 56.0469 34.0048 58.0108 34H76.4441C78.408 34.0048 80.0002 35.597 80.0049 37.5609V76.4402C79.999 78.4042 78.408 79.9952 76.4441 79.9999Z" fill="#d8dee4"/>
<path fill-rule="evenodd" clip-rule="evenodd" d="M58.0162 77.7999H76.4387L76.44 77.7999C77.1913 77.7974 77.8011 77.189 77.8049 76.4364V37.5639C77.8019 36.8126 77.1921 36.2029 76.4407 36.2H58.0142C57.2627 36.2029 56.6529 36.8127 56.65 37.5642V76.4357C56.6529 77.1874 57.2631 77.7974 58.0149 77.7999L58.0162 77.7999ZM58.0108 79.9999C56.0469 79.9952 54.4547 78.403 54.45 76.439V37.5609C54.4547 35.597 56.0469 34.0048 58.0108 34H76.4441C78.408 34.0048 80.0002 35.597 80.0049 37.5609V76.4402C79.999 78.4042 78.408 79.9952 76.4441 79.9999H58.0108Z" fill="#d8dee4"/>
<path d="M76.4441 79.9998H58.0108C56.0469 79.995 54.4547 78.4028 54.45 76.4389V71.9287C66.1916 71.9287 69.5562 71.9287 80.0049 71.9287V76.4401C79.999 78.404 78.408 79.995 76.4441 79.9998Z" fill="#9faebc"/>
<rect x="59.45" y="38" width="12" height="13" rx="1" fill="#fff"/>
<path d="M59.45 60C59.45 59.4477 59.8977 59 60.45 59H74.45C75.0022 59 75.45 59.4477 75.45 60V67C75.45 67.5523 75.0022 68 74.45 68H60.45C59.8977 68 59.45 67.5523 59.45 67V60Z" fill="#798da1"/>
<rect x="59.45" y="53" width="11" height="3" rx="1" fill="#9faebc"/>
<path d="M0 63.0322V23.9032C0 21.7564 1.68416 20 3.74258 20H58.2574C60.3158 20 62 21.7564 62 23.9032V63.0322H0Z" fill="#798da1"/>
<path d="M0 62V66.9667C0 69.185 1.68416 71 3.74258 71L58.2574 71C60.3158 71 62 69.185 62 66.9667V62L0 62Z" fill="#9faebc"/>
<path d="M24.4599 71H37.5477L38.5213 74.454C39.0864 76.4614 41.2334 78.1031 43.2918 78.1031H39.5492C37.4908 78.1031 35.3438 76.4614 34.7787 74.454L34.3807 73.0437H23.884L24.4599 71Z" fill="#9faebc"/>
<path d="M43.2457 78.1026H50.3426C50.8593 78.1026 51.2783 78.5272 51.2783 79.0513C51.2783 79.5753 50.8593 79.9999 50.3426 79.9999H11.6693C11.1526 79.9999 10.7336 79.5753 10.7336 79.0513C10.7336 78.5272 11.1526 78.1026 11.6693 78.1026H18.7472C20.7968 78.0874 22.9263 76.4515 23.4888 74.4536L23.8867 73.0435H34.3807L34.7787 74.4538C35.3438 76.4611 37.4908 78.1029 39.5493 78.1029H43.2918C43.2765 78.1029 43.2611 78.1028 43.2457 78.1026Z" fill="#9faebc"/>
<path d="M58 27.4053V30H4V27.4053C4 25.524 5.60631 24 7.58684 24H54.4142C56.3947 24 58 25.524 58 27.4053Z" fill="#9faebc"/>
<path d="M58 30V54.376C58 56.3778 56.3947 58 54.4142 58H7.58684C5.60631 58 4 56.3778 4 54.376V30H58Z" fill="#fff"/>
<path d="M11 46C11 43.7909 12.7909 42 15 42H47C49.2091 42 51 43.7909 51 46V46C51 48.2091 49.2091 50 47 50H15C12.7909 50 11 48.2091 11 46V46Z" fill="#9faebc"/>
<path d="M22.3618 44L22.7401 44.634L23.0125 45.4792L23.3302 44.6189L23.6934 44.0151L24.4197 44.4075L24.0263 45.0566L23.3302 45.7811L24.3592 45.6H25.0855V46.4453H24.3894L23.421 46.2642L24.1171 46.9887L24.4651 47.5774L23.7539 48L23.3605 47.366L23.0125 46.4453L22.725 47.3208L22.3467 47.9547L21.5901 47.5321L21.9987 46.8981L22.6342 46.2642L21.7566 46.4453H21V45.6H21.7566L22.6947 45.7811L22.0138 45.117L21.6204 44.4226L22.3618 44Z" fill="#fff"/>
<path d="M27.6667 44L28.045 44.634L28.3173 45.4792L28.6351 44.6189L28.9982 44.0151L29.7245 44.4075L29.3311 45.0566L28.6351 45.7811L29.664 45.6H30.3903V46.4453H29.6943L28.7259 46.2642L29.4219 46.9887L29.7699 47.5774L29.0588 48L28.6653 47.366L28.3173 46.4453L28.0298 47.3208L27.6515 47.9547L26.895 47.5321L27.3035 46.8981L27.939 46.2642L27.0614 46.4453H26.3048V45.6H27.0614L27.9996 45.7811L27.3186 45.117L26.9252 44.4226L27.6667 44Z" fill="#fff"/>
<path d="M32.9715 44L33.3498 44.634L33.6222 45.4792L33.9399 44.6189L34.3031 44.0151L35.0294 44.4075L34.636 45.0566L33.9399 45.7811L34.9689 45.6H35.6952V46.4453H34.9991L34.0307 46.2642L34.7267 46.9887L35.0748 47.5774L34.3636 48L33.9702 47.366L33.6222 46.4453L33.3347 47.3208L32.9564 47.9547L32.1998 47.5321L32.6084 46.8981L33.2439 46.2642L32.3663 46.4453H31.6097V45.6H32.3663L33.3044 45.7811L32.6235 45.117L32.2301 44.4226L32.9715 44Z" fill="#fff"/>
<path d="M38.2764 44L38.6546 44.634L38.927 45.4792L39.2448 44.6189L39.6079 44.0151L40.3342 44.4075L39.9408 45.0566L39.2448 45.7811L40.2737 45.6H41V46.4453H40.304L39.3356 46.2642L40.0316 46.9887L40.3796 47.5774L39.6684 48L39.275 47.366L38.927 46.4453L38.6395 47.3208L38.2612 47.9547L37.5047 47.5321L37.9132 46.8981L38.5487 46.2642L37.6711 46.4453H36.9145V45.6H37.6711L38.6092 45.7811L37.9283 45.117L37.5349 44.4226L38.2764 44Z" fill="#fff"/>
<path d="M45.4518 8.00173C42.8285 1.37522 35.5991 -1.75797 29.3045 1.00363C25.0005 2.89184 22.074 7.17138 21.7387 12.0673C18.1014 12.5969 15.5605 16.1303 16.0635 19.9595C16.5187 23.4244 19.3337 26.0035 22.6562 26H45.4517C50.1728 26 54 21.9709 54 17.0009C54 12.0309 50.1729 8.00173 45.4518 8.00173Z" fill="#d8dee4"/>
<path d="M62 4C56.204 4.00716 51.5071 8.73034 51.5 14.5589V21.0567C51.5 21.5053 51.8616 21.869 52.3077 21.869H55.5385C55.9846 21.869 56.3462 21.5053 56.3462 21.0567V14.5589C56.3461 11.4188 58.8775 8.87335 62 8.87335C66 8.87335 67.6539 11 67.6539 12.5589V12.8212C67.6539 13.2697 68.0155 13.6334 68.4616 13.6334H71.6923C72.1384 13.6334 72.5 13.2697 72.5 12.8212V12.5589C72.4929 6.73034 67.796 4.00716 62 4Z" fill="#7e9bfa"/>
<path d="M52.1176 15.7705H71.8824C74.1565 15.7705 76 17.6277 76 19.9186V31.852C76 34.143 74.1565 36.0002 71.8824 36.0002H52.1176C49.8435 36.0002 48 34.143 48 31.852V19.9187C48 17.6277 49.8435 15.7705 52.1176 15.7705Z" fill="#7e9bfa"/>
<path d="M66 23.4475C66.0081 21.5515 64.4477 20.008 62.5148 20C60.5818 19.992 59.0082 21.5225 59 23.4185C58.9944 24.729 59.7499 25.9283 60.9474 26.5096L60.407 30.2172C60.3528 30.5927 60.6193 30.9401 61.002 30.9932C61.0345 30.9977 61.0672 31 61.1 31H63.9C64.2866 31.0037 64.603 30.6994 64.6068 30.3202C64.6071 30.2857 64.6048 30.2514 64.5999 30.2172L64.0595 26.5096C65.2425 25.9286 65.9925 24.7451 66 23.4475Z" fill="#fff"/>
</g>
<defs>
<clipPath id="clip0_5935_3706">
<rect width="80.005" height="80" fill="#fff"/>
</clipPath>
</defs>
</svg>
