<svg width="24" height="24" viewBox="0 0 24 24" fill="none" xmlns="http://www.w3.org/2000/svg">
<path d="M22.9977 11.9969H20.9977C20.9966 8.71935 19.2138 5.70158 16.3437 4.11889C13.4737 2.5362 9.97017 2.63885 7.19771 4.38686C6.95196 4.53646 6.78254 4.78465 6.73276 5.06802C6.68298 5.35138 6.75766 5.64246 6.93771 5.86686C7.26139 6.27537 7.84457 6.36676 8.27771 6.07686C9.38821 5.36697 10.6797 4.99202 11.9977 4.99686C15.8637 4.99686 18.9977 8.13087 18.9977 11.9969H16.9977C16.8065 11.9977 16.6325 12.1076 16.5495 12.2799C16.4665 12.4523 16.4891 12.6568 16.6077 12.8069L19.6077 16.5069C19.7026 16.6251 19.8461 16.694 19.9977 16.694C20.1494 16.694 20.2928 16.6251 20.3877 16.5069L23.3877 12.8069C23.5063 12.6568 23.5289 12.4523 23.4459 12.2799C23.3629 12.1076 23.189 11.9977 22.9977 11.9969ZM15.7177 17.9169C14.6072 18.6267 13.3157 19.0017 11.9977 18.9969C8.13171 18.9969 4.99771 15.8629 4.99771 11.9969H6.99771C7.18895 11.996 7.36295 11.8861 7.44591 11.7138C7.52888 11.5415 7.50628 11.3369 7.38771 11.1869L4.38771 7.48686C4.29281 7.36857 4.14936 7.29975 3.99771 7.29975C3.84606 7.29975 3.70261 7.36857 3.60771 7.48686L0.607708 11.1869C0.489132 11.3369 0.466537 11.5415 0.549504 11.7138C0.63247 11.8861 0.806462 11.996 0.997708 11.9969H2.99771C2.99885 15.2744 4.78162 18.2921 7.65167 19.8748C10.5217 21.4575 14.0252 21.3549 16.7977 19.6069C17.0435 19.4573 17.2129 19.2091 17.2627 18.9257C17.3124 18.6423 17.2378 18.3513 17.0577 18.1269C16.734 17.7183 16.1508 17.627 15.7177 17.9169Z" fill="currentColor"/>
</svg>
