<svg width="20" height="20" viewBox="0 0 20 20" fill="none" xmlns="http://www.w3.org/2000/svg">
<g clip-path="url(#clip0_5917_5673)">
<path fill-rule="evenodd" clip-rule="evenodd" d="M17.6089 3.51592C14.9178 3.51592 13.5477 0 9.97568 0C6.45263 0 5.08259 3.51592 2.39149 3.51592C2.19575 3.51592 2 3.71976 2 3.97445C2 11.9237 3.07651 15.8473 9.77977 19.9236C9.92654 20.0255 10.0733 20.0255 10.1713 19.9236C16.9235 15.847 18 11.9233 18 3.97445C18 3.71961 17.8046 3.51592 17.6089 3.51592Z" fill="#798da1"/>
<path fill-rule="evenodd" clip-rule="evenodd" d="M17.8489 3.90727C16.5 8 10.6499 14.1914 5.3999 16.5C6.5 18 9 19.5 9.82134 19.9256C9.97184 20.025 10.1223 20.025 10.2228 19.9256C17.1462 15.9457 18.2 12.1152 18.2 4.35492C18.2 4.10613 17.9109 3.71922 17.8489 3.90727Z" fill="#d8dee4"/>
<path fill-rule="evenodd" clip-rule="evenodd" d="M13.4527 6.1773L8.65739 11.0015L7.55685 9.87588C6.14182 8.50907 4.09811 10.5994 5.43445 12.0467L7.63554 14.2175C8.18581 14.8608 9.20767 14.8608 9.75794 14.2175L15.5749 8.34782C16.9112 6.90052 14.7891 4.73001 13.4527 6.1773Z" fill="#fff"/>
</g>
<defs>
<clipPath id="clip0_5917_5673">
<rect width="20" height="20" fill="#fff" transform="matrix(-1 0 0 1 20 0)"/>
</clipPath>
</defs>
</svg>
