<svg width="1em" height="1em" viewBox="0 0 20 20" fill="none" xmlns="http://www.w3.org/2000/svg">
<path d="M9.99995 0C4.48601 0 0 4.48591 0 9.99995C0 15.514 4.48601 20 9.99995 20C15.5139 20 19.9999 15.514 19.9999 9.99995C19.9999 4.48591 15.514 0 9.99995 0ZM15.7421 8.31087L9.45963 14.5933C9.1925 14.8605 8.83741 15.0075 8.45967 15.0075C8.08193 15.0075 7.72684 14.8605 7.45971 14.5933L4.2578 11.3914C3.99067 11.1243 3.84354 10.7692 3.84354 10.3915C3.84354 10.0136 3.99067 9.65852 4.2578 9.39139C4.52483 9.12426 4.87992 8.97713 5.25776 8.97713C5.6355 8.97713 5.9907 9.12426 6.25773 9.3915L8.45957 11.5932L13.742 6.31084C14.0091 6.04371 14.3642 5.89669 14.7419 5.89669C15.1197 5.89669 15.4748 6.04371 15.7419 6.31084C16.2935 6.86242 16.2935 7.7595 15.7421 8.31087Z" fill="currentColor"/>
</svg>
