<svg width="24" height="24" viewBox="0 0 24 24" fill="none" xmlns="http://www.w3.org/2000/svg">
<path d="M9 11C9 10.4477 9.44771 10 10 10C10.5523 10 11 10.4477 11 11V17C11 17.5523 10.5523 18 10 18C9.44771 18 9 17.5523 9 17V11Z" fill="currentColor"/>
<path d="M13 11C13 10.4477 13.4477 10 14 10C14.5523 10 15 10.4477 15 11V17C15 17.5523 14.5523 18 14 18C13.4477 18 13 17.5523 13 17V11Z" fill="currentColor"/>
<path fill-rule="evenodd" clip-rule="evenodd" d="M18 5H21C21.5523 5 22 5.44771 22 6C22 6.55228 21.5523 7 21 7H20.94L20.25 18.31C20.086 20.9497 17.8947 23.0051 15.25 23H8.76999C6.12524 23.0051 3.93397 20.9497 3.77 18.31L3.06 7H3C2.44771 7 2 6.55228 2 6C2 5.44771 2.44771 5 3 5H6V4C6 2.34314 7.34314 1 9 1H15C16.6568 1 18 2.34314 18 4V5ZM8.99999 3C8.44771 3 7.99999 3.44771 7.99999 4V5H16V4C16 3.44771 15.5523 3 15 3H8.99999ZM15.24 21C16.8254 21.0032 18.1396 19.7722 18.24 18.19L18.94 6.99999H5.06L5.76 18.19C5.8604 19.7722 7.17459 21.0032 8.75999 21H15.24Z" fill="currentColor"/>
</svg>
