<svg width="20" height="16" viewBox="0 0 20 16" fill="none" xmlns="http://www.w3.org/2000/svg">
<path fill-rule="evenodd" clip-rule="evenodd" d="M0 3.87693C0 2.03258 1.4296 0.5 3.2587 0.5H16.7413C18.5704 0.5 20 2.03258 20 3.87693V12.4282C20 14.2726 18.5704 15.8052 16.7413 15.8052H3.2587C1.4296 15.8052 0 14.2726 0 12.4282V3.87693ZM3.2587 1.72066C2.15345 1.72066 1.22066 2.65594 1.22066 3.87693V12.4282C1.22066 13.6492 2.15345 14.5845 3.2587 14.5845H16.7413C17.8465 14.5845 18.7793 13.6492 18.7793 12.4282V3.87693C18.7793 2.65594 17.8465 1.72066 16.7413 1.72066H3.2587ZM6.76538 5.07112C6.76538 4.1002 7.81222 3.48974 8.65725 3.96789L8.67397 3.97735L13.4017 7.06038C14.234 7.54948 14.234 8.75569 13.4017 9.24479L8.67397 12.3278L8.65725 12.3373C7.81222 12.8154 6.76538 12.205 6.76538 11.234V5.07112ZM7.99126 5.0476C7.98908 5.05125 7.98604 5.05749 7.98604 5.07112V11.234C7.98604 11.2477 7.98908 11.2539 7.99126 11.2576C7.99437 11.2628 8.00023 11.2693 8.00933 11.2746C8.01843 11.2799 8.02699 11.2818 8.03306 11.2819C8.03615 11.282 8.04064 11.2818 8.04742 11.2791L12.7647 8.2029L12.7814 8.19344C12.7937 8.18651 12.7975 8.18071 12.7995 8.17713C12.8025 8.17185 12.8052 8.16339 12.8052 8.15258C12.8052 8.14178 12.8025 8.13332 12.7995 8.12804C12.7975 8.12446 12.7937 8.11865 12.7814 8.11172L12.7647 8.10226L8.04742 5.02604C8.04064 5.02335 8.03615 5.02315 8.03306 5.02322C8.02699 5.02337 8.01843 5.02526 8.00933 5.03057C8.00023 5.03587 7.99437 5.04239 7.99126 5.0476Z" fill="currentColor"/>
</svg>
