<svg width="24" height="24" viewBox="0 0 24 24" fill="none" xmlns="http://www.w3.org/2000/svg">
<path d="M9.02197 11.2307V11.0707C9.02197 9.41384 10.3651 8.07069 12.022 8.07069H12.182L9.02197 11.2307Z" fill="currentColor"/>
<path fill-rule="evenodd" clip-rule="evenodd" d="M21.172 4.74069L19.342 6.58069C20.7551 7.66328 21.9097 9.0467 22.722 10.6307C22.858 10.9083 22.858 11.2331 22.722 11.5107C20.0606 16.7405 14.0074 19.2785 8.41197 17.5107L5.66197 20.2607C5.45338 20.4714 5.16202 20.5788 4.86656 20.5537C4.57109 20.5286 4.30201 20.3736 4.13197 20.1307C3.84025 19.7163 3.9047 19.1491 4.28197 18.8107L19.802 3.29069C20.0104 3.08358 20.2993 2.9786 20.5921 3.00364C20.8848 3.02868 21.1518 3.1812 21.322 3.42069C21.6137 3.83513 21.5492 4.40228 21.172 4.74069ZM10.202 15.7207C10.7815 15.9498 11.3988 16.0685 12.022 16.0707C13.6746 16.0717 15.2209 15.256 16.1533 13.8915C17.0856 12.527 17.2835 10.7899 16.682 9.25069L15.022 10.9107V11.0707C15.022 12.7275 13.6788 14.0707 12.022 14.0707H11.862L10.202 15.7207Z" fill="currentColor"/>
<path d="M7.15197 9.96066C6.92386 10.9368 7.00065 11.9595 7.37197 12.8907L4.69197 15.5707C3.28525 14.4801 2.13488 13.0942 1.32197 11.5107C1.18597 11.2331 1.18597 10.9082 1.32197 10.6307C3.98337 5.40086 10.0366 2.86283 15.632 4.63066L13.842 6.42066C12.9075 6.04853 11.8814 5.97175 10.902 6.20066C9.0347 6.63178 7.57812 8.09225 7.15197 9.96066Z" fill="currentColor"/>
</svg>
