<svg width="12" height="20" viewBox="0 0 12 20" fill="none" xmlns="http://www.w3.org/2000/svg">
<path d="M9 2.49988C9 3.87853 7.87847 5 6.49975 5C5.12128 5 3.99975 3.87853 4 2.49988C4 1.12147 5.12128 0 6.49975 0C7.87847 0 9 1.12147 9 2.49988Z" fill="currentColor"/>
<path d="M9.99998 8.99998L11.2979 10.6312C11.5294 10.8864 11.5254 11.2978 11.2892 11.5487L11.0683 11.7832C10.9492 11.9096 10.789 11.9793 10.6175 11.9793C10.4479 11.9793 10.289 11.9109 10.1703 11.7868L8.97638 10.5404V11.5743C8.98026 11.5819 8.9845 11.5893 8.98874 11.5967C8.99525 11.608 9.00175 11.6193 9.00692 11.6314L9.66943 13.1571C9.86356 13.6046 10.4376 14.5163 10.5 15L10.6252 18.6534C10.6988 19.2251 10.3029 19.8009 9.74247 19.9365L9.60172 19.9707C9.5212 19.9902 9.43941 20 9.35889 20C8.86725 20 8.47193 19.6371 8.41875 19.1371L8.2 16C8.08405 14.9037 7.08755 13.8813 6.50001 13L5.04452 18.8503C4.89972 19.3035 4.46296 19.6198 3.98221 19.6198C3.88696 19.6198 3.79213 19.6072 3.70072 19.5824L3.56104 19.5446C3.28468 19.4701 3.0583 19.2924 2.9231 19.0442C2.78791 18.7961 2.76143 18.5092 2.84835 18.2367L3.93773 11.6933C3.94027 11.6854 3.94363 11.678 3.94699 11.6706C3.94983 11.6643 3.95268 11.658 3.95503 11.6514L3.99998 10.5C3.99998 10.5 2.27289 12.4895 2.06442 12.708L2.05977 12.7128C1.85391 12.9286 1.7172 13.0719 1.4677 13.0719C1.37608 13.0719 1.28766 13.0533 1.20479 13.0168L0.815876 12.8453C0.658901 12.7761 0.5393 12.6497 0.4795 12.4895C0.4197 12.3291 0.426961 12.1555 0.500003 12L3.69782 6.00916C3.83216 5.72361 4.18434 5.5 4.5 5.5C4.5 5.5 5.69491 6 6.5 6C7.5 6 8.23971 5.5 8.23971 5.5C8.59295 5.5 8.88042 5.78747 8.88042 6.14072V6.20714L9.04985 7.49998C9.05562 7.68579 9.87526 8.86244 9.99998 8.99998Z" fill="currentColor"/>
</svg>
