<svg width="20" height="20" viewBox="0 0 20 20" fill="none" xmlns="http://www.w3.org/2000/svg">
<path fill-rule="evenodd" clip-rule="evenodd" d="M12.5933 1.65825L19.6002 15.0423C20.7447 17.226 19.2955 20 16.986 20H2.9929C0.683363 20 -0.741059 17.2533 0.403419 15.0423L7.41438 1.65825C8.55474 -0.55275 11.4489 -0.55275 12.5933 1.65825ZM10.1018 12.7128C9.67187 12.7158 9.37194 12.3713 9.24806 11.9621C9.13291 11.5812 8.87217 10.6727 8.6399 9.62477C8.40901 8.58303 8.20001 7.37659 8.20001 6.4097C8.20001 5.71938 8.41753 5.16479 8.77826 4.7792C9.13717 4.39555 9.61866 4.20088 10.1012 4.19995C10.5838 4.19902 11.0659 4.39194 11.4254 4.77572C11.7866 5.16133 12.0038 5.7171 12.0038 6.40986C12.0034 7.38356 11.7829 8.61227 11.5452 9.66229C11.3059 10.7193 11.0424 11.6244 10.9441 11.9591C10.8253 12.364 10.5295 12.7098 10.1018 12.7128ZM10.0952 17.2C9.12749 17.2 8.47994 16.4393 8.47994 15.5219C8.47994 14.5749 9.15673 13.8439 10.0952 13.8439C10.5681 13.8439 10.9806 14.0173 11.2731 14.331C11.563 14.6419 11.7105 15.0638 11.7105 15.5219C11.7105 15.9719 11.5619 16.3922 11.2745 16.7037C10.9842 17.0185 10.5723 17.2 10.0952 17.2Z" fill="currentColor"/>
</svg>
