<svg width="24" height="24" viewBox="0 0 24 24" fill="none" xmlns="http://www.w3.org/2000/svg">
<path d="M23.184 20.5069L12.904 2.50695C12.7264 2.19364 12.3941 2 12.034 2C11.6739 2 11.3415 2.19364 11.164 2.50695L0.883979 20.5069C0.704987 20.817 0.705365 21.199 0.884969 21.5087C1.06457 21.8183 1.396 22.0084 1.75398 22.007H22.314C22.672 22.0084 23.0034 21.8183 23.183 21.5087C23.3626 21.199 23.363 20.817 23.184 20.5069ZM12.034 19.5069C11.3712 19.5069 10.834 18.9697 10.834 18.3069C10.834 17.6442 11.3712 17.1069 12.034 17.1069C12.6967 17.1069 13.234 17.6442 13.234 18.3069C13.234 18.9697 12.6967 19.5069 12.034 19.5069ZM12.834 15.7069H11.234C11.234 15.7069 10.884 11.2069 10.834 9.70695C10.834 9.04421 11.3712 8.50695 12.034 8.50695C12.6967 8.50695 13.234 9.04421 13.234 9.70695C13.184 11.2069 12.834 15.7069 12.834 15.7069Z" fill="currentColor"/>
</svg>
