<svg width="47" height="63" viewBox="0 0 47 63" fill="none" xmlns="http://www.w3.org/2000/svg">
<path fill-rule="evenodd" clip-rule="evenodd" d="M0.234985 23.0373C0.234985 10.335 10.5655 0 23.265 0C35.9645 0 46.295 10.335 46.295 23.0373C46.295 33.0735 39.979 40.1059 33.9744 46.7916C29.8107 51.4276 25.7967 55.8968 24.1422 61.0854C24.0033 61.5208 23.5798 62.5299 23.265 62.5299C23.03 62.5299 22.56 61.5896 22.3879 61.0854C20.8058 55.9666 16.8002 51.5078 12.623 46.858C6.60691 40.1611 0.234985 33.0682 0.234985 23.0373ZM23.03 37.6119C31.0768 37.6119 37.6 31.0867 37.6 23.0373C37.6 14.988 31.0768 8.46269 23.03 8.46269C14.9832 8.46269 8.45999 14.988 8.45999 23.0373C8.45999 31.0867 14.9832 37.6119 23.03 37.6119Z" fill="#4e56ea"/>
<ellipse cx="23.3813" cy="23.5173" rx="16.3129" ry="16.3181" fill="white"/>
<defs>
<clipPath id="clip0">
<rect width="21.62" height="21.6269" fill="white" transform="translate(12.22 11.2836)"/>
</clipPath>
</defs>
</svg>
