<svg width="47" height="64" viewBox="0 0 47 64" fill="none" xmlns="http://www.w3.org/2000/svg">
<path fill-rule="evenodd" clip-rule="evenodd" d="M0.234985 23.403C0.234985 10.499 10.5655 0 23.265 0C35.9645 0 46.295 10.499 46.295 23.403C46.295 33.5985 39.979 40.7425 33.9744 47.5343C29.8107 52.2439 25.7967 56.7841 24.1422 62.055C24.0033 62.4973 23.5798 63.5224 23.265 63.5224C23.03 63.5224 22.56 62.5672 22.3879 62.055C20.8058 56.855 16.8002 52.3253 12.623 47.6018C6.60691 40.7986 0.234985 33.5931 0.234985 23.403ZM23.03 38.209C31.0768 38.209 37.6 31.5801 37.6 23.403C37.6 15.2259 31.0768 8.59702 23.03 8.59702C14.9832 8.59702 8.45999 15.2259 8.45999 23.403C8.45999 31.5801 14.9832 38.209 23.03 38.209Z" fill="#4e56ea"/>
<ellipse cx="23.3813" cy="23.8905" rx="16.3129" ry="16.5771" fill="#7e9bfa"/>
<g clip-path="url(#clip0)">
<path d="M23.5012 12.4179C20.2783 12.4179 17.6438 15.0951 17.6438 18.3702C17.6438 21.6453 20.2783 24.3225 23.5012 24.3225C26.7241 24.3225 29.3586 21.6453 29.3586 18.3702C29.3586 15.0951 26.7241 12.4179 23.5012 12.4179Z" fill="white"/>
<path d="M33.554 29.0791C33.4005 28.6892 33.1959 28.3253 32.9657 27.9874C31.7891 26.2199 29.9731 25.0503 27.9268 24.7643C27.671 24.7384 27.3897 24.7903 27.185 24.9463C26.1107 25.752 24.8319 26.1679 23.5018 26.1679C22.1717 26.1679 20.8928 25.752 19.8185 24.9463C19.6138 24.7903 19.3325 24.7123 19.0767 24.7643C17.0304 25.0503 15.1888 26.2199 14.0378 27.9874C13.8076 28.3253 13.603 28.7152 13.4495 29.0791C13.3728 29.2351 13.3984 29.417 13.4751 29.573C13.6797 29.9369 13.9355 30.3008 14.1657 30.6127C14.5238 31.1066 14.9075 31.5484 15.3423 31.9643C15.7004 32.3282 16.1096 32.6661 16.5189 33.004C18.5396 34.5376 20.9695 35.3433 23.4762 35.3433C25.9829 35.3433 28.4128 34.5375 30.4335 33.004C30.8427 32.6921 31.252 32.3282 31.6101 31.9643C32.0193 31.5484 32.4286 31.1065 32.7867 30.6127C33.0425 30.2748 33.2727 29.9369 33.4773 29.573C33.6051 29.417 33.6307 29.235 33.554 29.0791Z" fill="white"/>
</g>
<defs>
<clipPath id="clip0">
<rect width="22.56" height="22.9254" fill="white" transform="translate(12.22 12.4179)"/>
</clipPath>
</defs>
</svg>
