<svg width="1em" height="1em" viewBox="0 0 140 140" fill="none" xmlns="http://www.w3.org/2000/svg">
<g >
<path d="M119.024 61.4515L69.9983 44.21L20.9727 61.4515L69.9983 78.9543L119.024 61.4515Z" fill="var(--info-graphic-accent-color-med)"/>
<path d="M119.022 61.4515L69.9961 44.21V78.9543L119.022 61.4515Z" fill="var(--info-graphic-accent-color-light)"/>
<path d="M88.5528 8.83691H50.3176C46.6078 8.83691 43.5898 11.9163 43.5898 15.7005V97.8934C43.5898 101.678 46.6078 104.757 50.3176 104.757H88.5528C92.2626 104.757 95.2814 101.678 95.2814 97.8934V15.7005C95.2814 11.9163 92.2626 8.83691 88.5528 8.83691V8.83691Z" fill="var(--info-graphic-accent-color-darkest)"/>
<path d="M88.529 12.8105H82.8467C82.3106 12.8105 81.8764 13.2534 81.8764 13.7994C81.8764 15.1111 80.8249 16.1837 79.5399 16.1837H59.2847C57.9988 16.1837 56.9473 15.1111 56.9473 13.7994C56.9473 13.2534 56.5132 12.8105 55.977 12.8105H50.2947C48.7295 12.8105 47.4609 14.1046 47.4609 15.7003V80.5489H91.3628V15.7003C91.3628 14.1046 90.0942 12.8105 88.529 12.8105Z" fill="var(--info-graphic-accent-color-white)"/>
<path d="M50.8828 45.4146L69.4588 27.1992L88.0348 45.4146V70.5692H50.8828V45.4146Z" fill="var(--info-graphic-accent-color-darkest)"/>
<path d="M50.8828 45.4146L69.4588 27.1992L88.0348 45.4146V59.7267L50.8828 45.4146Z" fill="var(--info-graphic-accent-color-lightest)"/>
<path d="M88.036 70.5692H77.1623L61.7578 34.7519L69.46 27.1992L88.036 45.4146V70.5692Z" fill="var(--info-graphic-accent-color-light)"/>
<path d="M88.036 45.4146V59.7267L69.46 52.6606L61.7578 34.7519L69.46 27.1992L88.036 45.4146Z" fill="#32BCFA"/>
<path d="M69.9983 79.0023L20.9727 61.4512V124.568L69.9983 140.345V79.0023Z" fill="var(--info-graphic-accent-color-dark)"/>
<path d="M119.022 124.568V61.4512L69.9961 79.0023V140.345L119.022 124.568Z" fill="var(--info-graphic-accent-color-darkest)"/>
<path d="M20.9715 61.4521L4 81.8288L53.9483 100.246L69.9972 78.955L20.9715 61.4521Z" fill="var(--info-graphic-accent-color-lightest)"/>
<path d="M119.022 61.4512L135.999 81.8278L86.0506 100.245L69.9961 78.954L119.022 61.4512Z" fill="var(--info-graphic-accent-color-med)"/>
<rect width="12.6821" height="12.724" rx="3" transform="matrix(0.38391 -0.923371 0.9164 0.400264 81 49.0547)" fill="#FFE5C7"/>
<rect width="25.2093" height="25.3778" rx="5" transform="matrix(0.89921 -0.437516 0.449099 0.893482 20.2227 18.0295)" fill="var(--info-graphic-accent-color-bright)"/>
<rect width="9.83494" height="9.95171" rx="2" transform="matrix(0.950509 0.310698 -0.30262 0.953111 100.012 11.8572)" fill="#FFE5C7"/>
</g>
<defs>
<clipPath id="clip0">
<rect width="1em" height="1em" fill="var(--info-graphic-accent-color-white)"/>
</clipPath>
</defs>
</svg>
