<svg width="360" height="900" viewBox="0 0 360 900" fill="none" xmlns="http://www.w3.org/2000/svg">
<path d="M0 0H338L79 900H0V0Z" fill="#7BC9EB"/>
<path d="M0 682V437.5L236.5 900H0V682Z" fill="#0061A8"/>
<path d="M0 0H338L296.5 147.5L0 51.5V0Z" fill="#262F69"/>
<path d="M140.584 432.55C140.584 406.155 119.187 384.758 92.792 384.758C66.397 384.758 45 406.155 45 432.55C45 451.236 55.7299 467.406 71.359 475.264V497.256C71.359 509.093 80.9548 518.689 92.792 518.689C104.629 518.689 114.225 509.093 114.225 497.256V475.264C129.854 467.406 140.584 451.236 140.584 432.55Z" fill="#262F69"/>
<path fill-rule="evenodd" clip-rule="evenodd" d="M240.155 353.593C287.013 353.593 325 391.58 325 438.438C325 485.297 287.013 523.283 240.155 523.283C203.632 523.283 172.498 500.205 160.541 467.837H134.527C133.094 467.837 131.791 467.254 130.847 466.319C129.94 465.403 129.363 464.147 129.331 462.763C129.261 459.843 127.044 457.441 124.123 457.441H108.435C107.003 457.441 105.699 458.024 104.755 458.959C103.821 459.903 103.237 461.207 103.237 462.639C103.237 465.512 100.904 467.837 98.0395 467.837H90.5173V409.032H160.544C172.503 376.667 203.635 353.593 240.155 353.593ZM272.382 414.381C259.089 414.381 248.325 425.154 248.325 438.438C248.325 451.722 259.089 462.495 272.382 462.495C285.667 462.495 296.43 451.722 296.43 438.438C296.43 425.154 285.667 414.381 272.382 414.381Z" fill="#FFB71B"/>
<path d="M169 691.343L191.514 643L218 749L169 691.343Z" fill="#0061A8"/>
<path d="M236.948 826.948L284.817 774.52L186.817 750.127L236.948 826.948Z" fill="#23A4DE"/>
<path d="M246 575H217L226.762 609L246 575Z" fill="#262F69"/>
</svg>
