<svg width="360" height="900" viewBox="0 0 360 900" fill="none" xmlns="http://www.w3.org/2000/svg">
<path d="M0 0H338L79 900H0V0Z" fill="#7BC9EB"/>
<path d="M0 682V437.5L236.5 900H0V682Z" fill="#0061A8"/>
<path d="M0 0H338L296.5 147.5L0 51.5V0Z" fill="#262F69"/>
<path d="M140.584 432.55C140.584 406.155 119.187 384.758 92.792 384.758C66.397 384.758 45 406.155 45 432.55C45 451.236 55.7299 467.406 71.359 475.264V497.256C71.359 509.093 80.9548 518.689 92.792 518.689C104.629 518.689 114.225 509.093 114.225 497.256V475.264C129.854 467.406 140.584 451.236 140.584 432.55Z" fill="#262F69"/>
<path fill-rule="evenodd" clip-rule="evenodd" d="M268.637 353.593C315.495 353.593 353.483 391.58 353.483 438.438C353.483 485.297 315.495 523.283 268.637 523.283C232.115 523.283 200.981 500.205 189.024 467.837H163.009C161.577 467.837 160.273 467.254 159.33 466.319C158.422 465.403 157.846 464.147 157.813 462.763C157.744 459.843 155.527 457.441 152.605 457.441H136.918C135.485 457.441 134.182 458.024 133.238 458.959C132.303 459.903 131.72 461.207 131.72 462.639C131.72 465.512 129.387 467.837 126.522 467.837H91V409.032H189.026C200.986 376.667 232.117 353.593 268.637 353.593ZM300.865 414.381C287.571 414.381 276.808 425.154 276.808 438.438C276.808 451.722 287.571 462.495 300.865 462.495C314.149 462.495 324.913 451.722 324.913 438.438C324.913 425.154 314.149 414.381 300.865 414.381Z" fill="#FFB71B"/>
<path d="M169 691.343L191.514 643L218 749L169 691.343Z" fill="#0061A8"/>
<path d="M236.948 826.948L284.817 774.52L186.817 750.127L236.948 826.948Z" fill="#23A4DE"/>
<path d="M246 575H217L226.762 609L246 575Z" fill="#262F69"/>
</svg>
