<svg width="16" height="16" viewBox="0 0 16 16" fill="none" xmlns="http://www.w3.org/2000/svg">
<path fill-rule="evenodd" clip-rule="evenodd" d="M0 7.99996C0 3.58872 3.58881 0 7.99996 0C12.4112 0 15.9999 3.58872 15.9999 7.99996C15.9999 12.4112 12.4111 16 7.99996 16C3.58881 16 0 12.4112 0 7.99996ZM11.6374 11.6611C11.1884 12.113 10.4605 12.113 10.0116 11.6611L7.99254 9.62892L5.95504 11.6423C5.50196 12.09 4.77408 12.0832 4.32927 11.6272C3.88446 11.1712 3.89116 10.4386 4.34424 9.99085L6.36664 7.99243L4.36261 5.97534C3.91365 5.52345 3.91365 4.7908 4.36261 4.33891C4.81157 3.88703 5.53948 3.88703 5.98844 4.33891L8.00744 6.37107L10.045 4.3577C10.498 3.90999 11.2259 3.91674 11.6707 4.37277C12.1155 4.8288 12.1088 5.56142 11.6558 6.00912L9.63335 8.00756L11.6374 10.0247C12.0863 10.4765 12.0863 11.2092 11.6374 11.6611Z" fill="#0061A8"/>
</svg>
