<svg width="16" height="16" viewBox="0 0 16 16" fill="none" xmlns="http://www.w3.org/2000/svg">
<path d="M7.99996 0C3.58881 0 0 3.58872 0 7.99996C0 12.4112 3.58881 16 7.99996 16C12.4111 16 15.9999 12.4112 15.9999 7.99996C15.9999 3.58872 12.4112 0 7.99996 0ZM12.5937 6.6487L7.56771 11.6747C7.354 11.8884 7.06993 12.006 6.76774 12.006C6.46555 12.006 6.18147 11.8884 5.96777 11.6747L3.40624 9.11314C3.19254 8.89944 3.07483 8.61536 3.07483 8.31317C3.07483 8.01089 3.19254 7.72682 3.40624 7.51311C3.61986 7.29941 3.90394 7.18171 4.20621 7.18171C4.5084 7.18171 4.79256 7.29941 5.00618 7.5132L6.76765 9.27459L10.9936 5.04867C11.2073 4.83497 11.4913 4.71735 11.7935 4.71735C12.0957 4.71735 12.3798 4.83497 12.5935 5.04867C13.0348 5.48994 13.0348 6.2076 12.5937 6.6487Z" fill="#0061A8"/>
</svg>
