<svg width="40" height="40" viewBox="0 0 40 40" fill="none" xmlns="http://www.w3.org/2000/svg">
<path d="M9.26637 23.0654C9.14916 22.9482 9.08331 22.7892 9.08331 22.6234C9.08331 22.4577 9.14916 22.2987 9.26637 22.1815C9.38358 22.0643 9.54255 21.9984 9.70831 21.9984C12.7369 21.9984 17.5052 20.0785 21.8558 17.1073C25.8333 14.3911 28.7465 11.3283 29.9282 8.67723L27.8445 9.45848C27.6893 9.51669 27.5173 9.51086 27.3664 9.44227C27.2155 9.37368 27.098 9.24796 27.0398 9.09275C26.9816 8.93754 26.9874 8.76557 27.056 8.61466C27.0899 8.53994 27.1383 8.47264 27.1983 8.4166C27.2582 8.36056 27.3286 8.31689 27.4055 8.28806L30.7388 7.03806C30.8226 7.00754 30.912 6.99514 31.0009 7.00171C31.0899 7.00828 31.1764 7.03365 31.2548 7.07615C31.3333 7.11865 31.4018 7.17731 31.4558 7.24826C31.5099 7.3192 31.5482 7.40082 31.5684 7.4877L32.4017 11.2377C32.5606 12.0436 31.3834 12.3119 31.1815 11.5088L30.794 9.7639C30.2223 10.8692 29.4009 12.0179 28.3369 13.1982C26.8067 14.8951 24.8095 16.6038 22.5608 18.1396C17.9464 21.2908 13.0216 23.2484 9.70831 23.2484C9.54255 23.2484 9.38358 23.1826 9.26637 23.0654Z" fill="var(--nav-menu-icon-primary-accent)"/>
<path d="M28.0164 15.5148C28.1336 15.3976 28.2926 15.3318 28.4583 15.3318H30.9583C31.1241 15.3318 31.283 15.3976 31.4003 15.5148C31.5175 15.6321 31.5833 15.791 31.5833 15.9568V31.3735H27.8333V15.9568C27.8333 15.791 27.8992 15.6321 28.0164 15.5148Z" fill="var(--nav-menu-icon-primary-accent)"/>
<path d="M22.2083 20.3318C22.0426 20.3318 21.8836 20.3976 21.7664 20.5148C21.6492 20.6321 21.5833 20.791 21.5833 20.9568V31.3735H25.3333V20.9568C25.3333 20.791 25.2675 20.6321 25.1503 20.5148C25.033 20.3976 24.8741 20.3318 24.7083 20.3318H22.2083Z" fill="var(--nav-menu-icon-primary-accent)"/>
<path d="M15.5164 23.8483C15.6336 23.7311 15.7926 23.6653 15.9583 23.6653H18.4583C18.6241 23.6653 18.783 23.7311 18.9003 23.8483C19.0175 23.9656 19.0833 24.1245 19.0833 24.2903V31.3736H15.3333V24.2903C15.3333 24.1245 15.3992 23.9656 15.5164 23.8483Z" fill="var(--nav-menu-icon-primary-accent)"/>
<path d="M9.26637 25.5148C9.38358 25.3976 9.54255 25.3318 9.70831 25.3318H12.2083C12.3741 25.3318 12.533 25.3976 12.6503 25.5148C12.7675 25.6321 12.8333 25.791 12.8333 25.9568V31.3735H9.08331V25.9568C9.08331 25.791 9.14916 25.6321 9.26637 25.5148Z" fill="var(--nav-menu-icon-primary-accent)"/>
<path d="M32.625 31.9985H7.625C7.45924 31.9985 7.30027 32.0644 7.18306 32.1816C7.06585 32.2988 7 32.4578 7 32.6235C7 32.7893 7.06585 32.9483 7.18306 33.0655C7.30027 33.1827 7.45924 33.2485 7.625 33.2485H32.625C32.7908 33.2485 32.9497 33.1827 33.0669 33.0655C33.1842 32.9483 33.25 32.7893 33.25 32.6235C33.25 32.4578 33.1842 32.2988 33.0669 32.1816C32.9497 32.0644 32.7908 31.9985 32.625 31.9985Z" fill="var(--nav-menu-icon-primary-accent)"/>
<path d="M7.73593 14.515L8.58161 14.6192L8.8639 15.2977L8.34078 15.9656C8.29363 16.0258 8.27019 16.1012 8.2749 16.1775C8.2796 16.2538 8.31212 16.3258 8.3663 16.3797L9.86796 17.8748C9.92182 17.9285 9.99339 17.9607 10.0693 17.9653C10.1451 17.97 10.2201 17.9469 10.2802 17.9003L10.9523 17.3784L11.6359 17.6601L11.7404 18.5009C11.7498 18.5765 11.7865 18.6461 11.8436 18.6965C11.9007 18.747 11.9743 18.7748 12.0505 18.7748H14.1741C14.2503 18.7748 14.3239 18.747 14.381 18.6966C14.4381 18.6461 14.4748 18.5766 14.4842 18.5009L14.5885 17.6601L15.2721 17.3782L15.9443 17.9001C16.0043 17.9467 16.0793 17.9698 16.1551 17.9652C16.231 17.9605 16.3025 17.9283 16.3564 17.8747L17.8581 16.3796C17.9123 16.3256 17.9448 16.2537 17.9495 16.1774C17.9542 16.1011 17.9308 16.0257 17.8836 15.9655L17.3605 15.2976L17.6428 14.619L18.4885 14.5148C18.5642 14.5055 18.6339 14.4689 18.6844 14.4117C18.7349 14.3546 18.7628 14.281 18.7628 14.2047V12.0901C18.7628 12.0138 18.7349 11.9402 18.6844 11.8831C18.6339 11.8259 18.5642 11.7893 18.4885 11.78L17.6428 11.6758L17.3605 10.9973L17.8839 10.3297C17.931 10.2695 17.9544 10.1941 17.9497 10.1178C17.945 10.0415 17.9125 9.96953 17.8583 9.91558L16.3566 8.42052C16.3027 8.3669 16.2312 8.33475 16.1553 8.33008C16.0795 8.32541 16.0045 8.34855 15.9445 8.39516L15.2723 8.91703L14.5885 8.63506L14.4844 7.79422C14.475 7.7186 14.4383 7.64902 14.3812 7.59857C14.324 7.54811 14.2505 7.52027 14.1743 7.52026H12.0505C11.9743 7.52027 11.9007 7.54811 11.8436 7.59857C11.7865 7.64902 11.7498 7.7186 11.7404 7.79422L11.6359 8.63506L10.9523 8.91698L10.2802 8.39511C10.2201 8.34848 10.1451 8.32533 10.0693 8.33C9.9934 8.33467 9.92183 8.36684 9.86796 8.42047L8.3663 9.91558C8.3121 9.96953 8.27958 10.0415 8.27487 10.1178C8.27017 10.1941 8.29362 10.2695 8.34078 10.3297L8.8639 10.9976L8.58161 11.6761L7.73593 11.7803C7.66024 11.7896 7.59056 11.8263 7.54003 11.8834C7.4895 11.9405 7.46161 12.0142 7.46161 12.0904V14.205C7.46165 14.2812 7.48956 14.3548 7.54008 14.4119C7.59061 14.469 7.66026 14.5057 7.73593 14.515ZM11.9718 12.0143C12.1218 11.8649 12.2997 11.7466 12.4954 11.666C12.6911 11.5855 12.9008 11.5442 13.1124 11.5447C13.955 11.5182 14.7508 12.2853 14.7247 13.1479C14.7252 13.3587 14.6837 13.5674 14.6027 13.7621C14.5217 13.9567 14.4028 14.1332 14.253 14.2815C13.9496 14.5823 13.5397 14.751 13.1125 14.751C12.6853 14.751 12.2753 14.5823 11.972 14.2815C11.8225 14.1329 11.7038 13.9563 11.6229 13.7618C11.5419 13.5672 11.5002 13.3586 11.5002 13.1479C11.5002 12.9371 11.5419 12.7285 11.6229 12.534C11.7038 12.3394 11.8223 12.1628 11.9718 12.0143Z" fill="var(--nav-menu-icon-secondary-accent)"/>
</svg>
