<svg width="40" height="40" viewBox="0 0 40 40" fill="none" xmlns="http://www.w3.org/2000/svg">
<path d="M21.5 5H9.9C8.30115 5 7 6.30115 7 7.9V31.1C7 32.6989 8.30115 34 9.9 34H21.5C23.0989 34 24.4 32.6989 24.4 31.1V7.9C24.4 6.30115 23.0989 5 21.5 5Z" fill="white"/>
<path d="M13.0417 8.86675C13.4421 8.86675 13.7667 8.54215 13.7667 8.14175C13.7667 7.74134 13.4421 7.41675 13.0417 7.41675C12.6413 7.41675 12.3167 7.74134 12.3167 8.14175C12.3167 8.54215 12.6413 8.86675 13.0417 8.86675Z" fill="var(--nav-menu-icon-secondary-accent)"/>
<path d="M15.4583 7.41675H18.3583C18.759 7.41675 19.0833 7.74107 19.0833 8.14175C19.0833 8.54242 18.759 8.86675 18.3583 8.86675H15.4583C15.0577 8.86675 14.7333 8.54242 14.7333 8.14175C14.7333 7.74107 15.0577 7.41675 15.4583 7.41675Z" fill="var(--nav-menu-icon-secondary-accent)"/>
<path d="M17.15 30.1334C17.15 30.9342 16.5008 31.5834 15.7 31.5834C14.8992 31.5834 14.25 30.9342 14.25 30.1334C14.25 29.3325 14.8992 28.6833 15.7 28.6833C16.5008 28.6833 17.15 29.3325 17.15 30.1334Z" fill="var(--nav-menu-icon-secondary-accent)"/>
<path d="M26.6883 14.0137C28.179 14.0137 29.4178 15.1104 29.6411 16.5394C31.07 16.7627 32.2 18.0015 32.2 19.4922C32.2 21.14 30.8264 22.4805 29.1785 22.4805H18.2215C16.5737 22.4805 15.2 21.14 15.2 19.4922C15.2 18.0141 16.312 16.7831 17.7239 16.5452C17.7234 16.5316 17.7234 16.5175 17.7234 16.5039C17.7234 14.307 19.5109 12.5195 21.7078 12.5195C23.13 12.5195 24.4101 13.2632 25.1212 14.4582C25.5886 14.1688 26.1275 14.0137 26.6883 14.0137Z" fill="var(--nav-menu-icon-secondary-accent)"/>
</svg>
