<svg width="40" height="40" viewBox="0 0 40 40" fill="none" xmlns="http://www.w3.org/2000/svg">
<path d="M28.0372 11.8109L31.8709 15.6445C32.437 16.2116 32.437 17.129 31.8709 17.695C31.5875 17.9783 31.2163 18.1195 30.8451 18.1195C30.4746 18.1195 30.104 17.9785 29.8197 17.695L20.2334 8.10851C19.9228 7.79882 19.3725 7.79882 19.0603 8.10942L9.47561 17.695C8.9097 18.2619 7.9905 18.2619 7.42439 17.695C6.85854 17.1289 6.85854 16.2115 7.42439 15.6445L17.01 6.05918C18.418 4.64862 20.8717 4.64612 22.283 6.05662L25.1375 8.91118V7.38237C25.1375 6.58163 25.7864 5.9327 26.5864 5.9327C27.3883 5.9327 28.0372 6.58163 28.0372 7.38237V11.8109Z" fill="white"/>
<path d="M19.1442 10.8613C19.4219 10.583 19.8728 10.583 20.1513 10.8613L28.5818 19.2903C28.7156 19.4234 28.7904 19.6051 28.7904 19.7946V25.9425C28.7904 27.3851 27.6207 28.5547 26.1782 28.5547H22.0037V22.0899H17.2908V28.5547H13.1164C11.6738 28.5547 10.5041 27.3851 10.5041 25.9424V19.7946C10.5041 19.6051 10.5796 19.4234 10.7127 19.2903L19.1442 10.8613Z" fill="white"/>
<path d="M33.1688 31.1098L28.985 26.924L32.0373 25.1599C32.2161 25.0565 32.3202 24.8601 32.3053 24.6541C32.2904 24.4481 32.1591 24.2687 31.9673 24.1922L19.0724 19.0477C18.8722 18.9678 18.6438 19.0148 18.4913 19.1672C18.3389 19.3196 18.2919 19.5481 18.3717 19.7482L23.5138 32.6489C23.5903 32.8409 23.7696 32.9722 23.9758 32.9871C24.1819 33.0023 24.3784 32.8979 24.4817 32.719L26.2445 29.666L30.4281 33.8512C30.5292 33.9525 30.6664 34.0093 30.8094 34.0093C30.9525 34.0093 31.0898 33.9524 31.1909 33.8512L33.1688 31.8722C33.3794 31.6616 33.3794 31.3203 33.1688 31.1098Z" fill="#23A4DE"/>
</svg>
