<svg width="40" height="40" viewBox="0 0 40 40" fill="none" xmlns="http://www.w3.org/2000/svg">
<path d="M10.975 10H10.9772C13.1478 10.0052 17.0956 10.5169 19.1499 13.885C19.2335 14.0223 19.2778 14.1881 19.2778 14.3647V29.2286C16.7748 26.562 13.1465 26.1024 10.9809 26.0972C10.4672 26.0958 10.0494 25.6711 10.0494 25.1503V10.9472C10.0494 10.693 10.1466 10.4543 10.3232 10.2749C10.4979 10.0976 10.7291 10 10.975 10Z" fill="white"/>
<path d="M29.9507 10.9472V25.1503C29.9507 25.6711 29.5329 26.0958 29.0193 26.0972C26.8537 26.1024 23.2254 26.562 20.7224 29.2286V14.3648C20.7224 14.1882 20.7666 14.0224 20.8502 13.8851C22.9046 10.517 26.8524 10.0053 29.0229 10H29.0252C29.2708 10 29.5023 10.0976 29.6769 10.2749C29.8535 10.4543 29.9507 10.693 29.9507 10.9472Z" fill="white"/>
<path d="M8.60483 13.2751V25.15C8.60483 26.4798 9.66917 27.5641 10.9773 27.5673C12.8142 27.5718 15.843 27.9374 17.988 30.0041C14.2783 29.0794 10.3673 29.6804 8.13849 30.1976C7.85975 30.2623 7.57244 30.1954 7.34964 30.0145C7.12746 29.8341 7 29.5644 7 29.2747V14.2222C7 13.7 7.4174 13.2751 7.93023 13.2751H8.60483Z" fill="#23A4DE"/>
<path d="M31.3952 13.2751H32.0698C32.5827 13.2751 33.0001 13.7 33 14.2222V29.275C33 29.5646 32.8725 29.8343 32.6503 30.0148C32.4274 30.1957 32.1398 30.2624 31.8615 30.1979C29.6327 29.6808 25.7218 29.0796 22.0119 30.0044C24.157 27.9375 27.1858 27.5719 29.0227 27.5674C30.3309 27.5641 31.3952 26.4798 31.3952 25.15V13.2751Z" fill="#23A4DE"/>
</svg>
