<svg width="40" height="40" viewBox="0 0 40 40" fill="none" xmlns="http://www.w3.org/2000/svg">
<g clip-path="url(#clip0_5905_4465)">
<rect width="40" height="40" rx="4" fill="#23A4DE"/>
<path d="M11 14.5C11 13.6716 11.6716 13 12.5 13H27.5C28.3284 13 29 13.6716 29 14.5C29 15.3284 28.3284 16 27.5 16H12.5C11.6716 16 11 15.3284 11 14.5Z" fill="white"/>
<path d="M11 20.5C11 19.6716 11.6716 19 12.5 19H27.5C28.3284 19 29 19.6716 29 20.5C29 21.3284 28.3284 22 27.5 22H12.5C11.6716 22 11 21.3284 11 20.5Z" fill="white"/>
<path d="M12.5 25C11.6716 25 11 25.6716 11 26.5C11 27.3284 11.6716 28 12.5 28H27.5C28.3284 28 29 27.3284 29 26.5C29 25.6716 28.3284 25 27.5 25H12.5Z" fill="white"/>
</g>
<defs>
<clipPath id="clip0_5905_4465">
<rect width="40" height="40" fill="white"/>
</clipPath>
</defs>
</svg>
