<svg width="40" height="40" viewBox="0 0 40 40" fill="none" xmlns="http://www.w3.org/2000/svg">
<g clip-path="url(#clip0_5905_4376)">
<rect width="40" height="40" rx="4" fill="#23A4DE"/>
<path d="M14.6751 12.459C14.0631 11.847 13.0709 11.847 12.459 12.459C11.847 13.0709 11.847 14.0631 12.459 14.6751L17.7839 20L12.459 25.3249C11.847 25.9369 11.847 26.9291 12.459 27.541C13.0709 28.153 14.0631 28.153 14.6751 27.541L20 22.2161L25.3249 27.541C25.9369 28.153 26.9291 28.153 27.541 27.541C28.153 26.9291 28.153 25.9369 27.541 25.3249L22.2161 20L27.541 14.6751C28.153 14.0631 28.153 13.0709 27.541 12.459C26.9291 11.847 25.9369 11.847 25.3249 12.459L20 17.7839L14.6751 12.459Z" fill="white"/>
</g>
<defs>
<clipPath id="clip0_5905_4376">
<rect width="40" height="40" fill="white"/>
</clipPath>
</defs>
</svg>
