<svg width="40" height="40" viewBox="0 0 40 40" fill="none" xmlns="http://www.w3.org/2000/svg">
<path d="M27.434 8.48682V14.747H12.566V8.48682H9V32.557C9 34.2139 10.3431 35.557 12 35.557H28C29.6569 35.557 31 34.2139 31 32.557V8.48682H27.434ZM20 32.9021C15.9497 32.9021 12.6546 29.5712 12.6546 25.477C12.6546 21.3829 15.9498 18.052 20 18.052C24.0502 18.052 27.3454 21.3829 27.3454 25.477C27.3454 29.5712 24.0503 32.9021 20 32.9021Z" fill="white"/>
<path d="M23.4494 8.48678H25.6627V12.9565H14.3373V8.48678H16.5506C16.5506 6.56109 18.095 5 20 5C21.905 5 23.4494 6.56109 23.4494 8.48678Z" fill="#23A4DE"/>
<path fill-rule="evenodd" clip-rule="evenodd" d="M24.2133 24.0966L25.1131 24.2122C25.4721 24.2558 25.7435 24.5649 25.743 24.9312V26.0149C25.743 26.3812 25.4716 26.6903 25.1112 26.7339L24.2133 26.8495C24.1396 27.0803 24.0482 27.3029 23.941 27.5143L24.4967 28.2371C24.7216 28.5303 24.6953 28.943 24.4359 29.1975L23.682 29.9595C23.4332 30.2193 23.0244 30.2459 22.7348 30.0185L22.0193 29.4568C21.8101 29.5647 21.59 29.6571 21.3617 29.7321L21.2473 30.6417C21.2042 31.0046 20.8983 31.2789 20.536 31.2789H19.4639C19.1016 31.2789 18.7957 31.0046 18.7526 30.6393L18.6383 29.7316C18.4099 29.6571 18.1898 29.5647 17.9806 29.4563L17.2655 30.0181C16.9755 30.245 16.5672 30.2188 16.3155 29.9571L15.5616 29.1951C15.3046 28.9435 15.2783 28.5303 15.5032 28.2376L16.0589 27.5143C15.9522 27.3029 15.8608 27.0803 15.7866 26.8495L14.8868 26.7339C14.5278 26.6903 14.2564 26.3812 14.2564 26.0149V24.9312C14.2564 24.5649 14.5278 24.2558 14.8882 24.2122L15.7866 24.0966C15.8608 23.8658 15.9517 23.6433 16.0589 23.4318L15.5032 22.709C15.2783 22.4158 15.3046 22.0026 15.564 21.7481L16.3179 20.9866C16.5672 20.7268 16.976 20.7007 17.2651 20.9276L17.9801 21.4893C18.1893 21.3809 18.4095 21.289 18.6383 21.214L18.7526 20.3044C18.7957 19.9416 19.1016 19.6672 19.4639 19.6672H20.536C20.8983 19.6672 21.2042 19.9416 21.2473 20.3059L21.3617 21.214C21.5904 21.289 21.8106 21.3814 22.0198 21.4893L22.7344 20.9276C23.0244 20.7007 23.4332 20.7268 23.6844 20.989L24.4383 21.751C24.6953 22.0026 24.7216 22.4158 24.4967 22.7085L23.941 23.4318C24.0477 23.6433 24.1391 23.8658 24.2133 24.0966ZM17.6068 25.4731C17.6068 26.8069 18.6804 27.8922 20 27.8922C21.3195 27.8922 22.3931 26.8069 22.3931 25.4731C22.3931 24.1392 21.3195 23.054 20 23.054C18.6804 23.054 17.6068 24.1392 17.6068 25.4731Z" fill="#23A4DE"/>
</svg>
