<svg width="40" height="40" viewBox="0 0 40 40" fill="none" xmlns="http://www.w3.org/2000/svg">
<path d="M33.81 9.09985L24.8602 18.0496C25.4447 18.5594 25.9309 19.179 26.2864 19.8761L34 27.5896V10.3747C34 9.93138 33.9332 9.50339 33.81 9.09985Z" fill="var(--nav-menu-icon-secondary-accent)"/>
<path d="M19.9453 22.625C19.9453 22.1124 20.3624 21.6953 20.875 21.6953C21.3876 21.6953 21.8047 22.1124 21.8047 22.625C21.8047 23.1376 21.3876 23.5547 20.875 23.5547C20.3624 23.5547 19.9453 23.1376 19.9453 22.625Z" fill="var(--nav-menu-icon-secondary-accent)"/>
<path fill-rule="evenodd" clip-rule="evenodd" d="M20.875 18.1953C18.4324 18.1953 16.4453 20.1825 16.4453 22.625C16.4453 25.0675 18.4324 27.0547 20.875 27.0547C23.3176 27.0547 25.3047 25.0675 25.3047 22.625C25.3047 20.1825 23.3176 18.1953 20.875 18.1953ZM20.875 25.1953C19.4577 25.1953 18.3047 24.0423 18.3047 22.625C18.3047 21.2077 19.4577 20.0547 20.875 20.0547C22.2923 20.0547 23.4453 21.2077 23.4453 22.625C23.4453 24.0423 22.2923 25.1953 20.875 25.1953Z" fill="var(--nav-menu-icon-secondary-accent)"/>
<path d="M19.125 29.0354L14.16 34.0003H24.0899L19.125 29.0354Z" fill="var(--nav-menu-icon-secondary-accent)"/>
<path d="M10.375 6C7.96263 6 6 7.96263 6 10.375V20.59L20.5899 6H10.375Z" fill="var(--nav-menu-icon-primary-accent)"/>
<path d="M29.625 6H22.91L10.66 18.2503L14.8093 22.3995C14.9247 19.2583 17.9481 15.0718 23.3607 16.9507L23.5 17.0899L32.9981 7.59179C32.1949 6.62021 30.981 6 29.625 6Z" fill="var(--nav-menu-icon-primary-accent)"/>
<path d="M15.4636 25.374L9.5 19.4104L6 22.9104V29.6253C6 32.0377 7.96263 34.0003 10.375 34.0003H11.8399L17.9162 27.924C16.868 27.3364 16.0108 26.447 15.4636 25.374Z" fill="var(--nav-menu-icon-primary-accent)"/>
<path d="M26.9407 22.8506C26.8242 26.0186 24.2688 28.5741 21.1008 28.6906L26.4101 33.9998H29.625C31.9448 33.9998 33.8477 32.1848 33.9904 29.9003L26.9407 22.8506Z" fill="var(--nav-menu-icon-primary-accent)"/>
</svg>
