<svg width="40" height="40" viewBox="0 0 40 40" fill="none" xmlns="http://www.w3.org/2000/svg">
<path fill-rule="evenodd" clip-rule="evenodd" d="M19.3099 31.4896V11.9063L27.1224 8L35 11.9063V31.4896H30.0521V25.5651H24.1927V31.4896H19.3099ZM30.0521 16.3724H28.0989V18.3255H30.0521V16.3724ZM30.0521 20.2786H28.0989V22.2318H30.0521V20.2786ZM24.1927 22.2318H26.1458V20.2786H24.1927V22.2318ZM24.1927 18.3255H26.1458V16.3724H24.1927V18.3255Z" fill="var(--nav-menu-icon-primary-accent)"/>
<path d="M28.0989 31.4897V27.5183H26.1458V31.4897H28.0989Z" fill="var(--nav-menu-icon-primary-accent)"/>
<path d="M14.1406 31.4897V25.5652H8.28125V31.4897H5V21.3464L11.2109 17.4402L17.3568 21.3464V31.4897H14.1406Z" fill="var(--nav-menu-icon-secondary-accent)"/>
<path d="M12.1875 27.5183H10.2344V31.4897H12.1875V27.5183Z" fill="var(--nav-menu-icon-secondary-accent)"/>
</svg>
