<svg width="40" height="12" viewBox="0 0 40 12" fill="none" xmlns="http://www.w3.org/2000/svg">
<g clip-path="url(#clip0_5905_4610)">
<path d="M38.2869 7.42834V5.00641H39.4156C39.5222 5.00641 39.5755 4.95541 39.5755 4.85717V4.0845C39.5755 3.98626 39.5222 3.93714 39.4156 3.93714H38.2736L38.2051 2.66761C38.2044 2.6479 38.1997 2.62853 38.1911 2.61072C38.1826 2.59291 38.1704 2.57704 38.1554 2.5641C38.1404 2.55116 38.1229 2.54143 38.1039 2.53551C38.085 2.52959 38.065 2.52761 38.0452 2.5297H37.2077C37.1011 2.5297 37.0478 2.57882 37.0478 2.67895V7.51335C37.0399 7.8202 37.0922 8.12565 37.202 8.4126C37.29 8.63899 37.4296 8.84207 37.6099 9.00595C37.7902 9.16983 38.0063 9.29005 38.2413 9.35719C38.4937 9.43264 38.7561 9.47021 39.0197 9.46865H39.2919L39.585 9.45354C39.6078 9.45268 39.6301 9.447 39.6504 9.4369C39.6708 9.4268 39.6887 9.41251 39.7031 9.39498C39.7239 9.36155 39.7345 9.32282 39.7335 9.28351V8.47495C39.7335 8.37671 39.6764 8.32759 39.5641 8.32759C39.4518 8.32759 39.3966 8.34082 39.3186 8.3427H39.1282C39.0133 8.3501 38.8981 8.33265 38.7907 8.29155C38.6832 8.25045 38.586 8.18669 38.5058 8.10467C38.3482 7.9132 38.2699 7.66935 38.2869 7.42267V7.42834ZM35.5936 1.92705C35.5275 1.86355 35.449 1.81406 35.3629 1.78158C35.2768 1.74911 35.185 1.73432 35.0931 1.73814C34.9076 1.73281 34.7275 1.80075 34.5925 1.92705C34.5247 1.99069 34.4713 2.0679 34.4359 2.15356C34.4005 2.23921 34.3838 2.33136 34.3869 2.42391C34.3856 2.51605 34.403 2.60752 34.4379 2.6929C34.4728 2.77828 34.5247 2.85584 34.5903 2.921C34.656 2.98617 34.7341 3.03761 34.8201 3.07229C34.9062 3.10696 34.9983 3.12417 35.0912 3.1229C35.1843 3.12627 35.277 3.10999 35.3633 3.07515C35.4496 3.0403 35.5275 2.98768 35.5917 2.92076C35.719 2.78671 35.7875 2.60801 35.7821 2.42391C35.7859 2.33261 35.771 2.24149 35.7383 2.15608C35.7056 2.07067 35.6557 1.99275 35.5917 1.92705H35.5936ZM35.5499 9.34397C35.6489 9.34397 35.6983 9.29107 35.6983 9.18528V4.01082C35.7012 3.9908 35.6993 3.97041 35.6929 3.95124C35.6864 3.93206 35.6756 3.91464 35.6612 3.90035C35.6468 3.88606 35.6292 3.87529 35.6099 3.86888C35.5906 3.86248 35.57 3.86063 35.5499 3.86346H34.6229C34.5163 3.86346 34.463 3.91258 34.463 4.01082V9.18528C34.4598 9.20685 34.4618 9.22887 34.4687 9.24958C34.4756 9.27028 34.4873 9.2891 34.5028 9.30452C34.5183 9.31994 34.5373 9.33154 34.5581 9.33839C34.579 9.34524 34.6012 9.34715 34.6229 9.34397H35.5499ZM30.1995 8.31248C30.0366 8.26284 29.8821 8.18963 29.7407 8.09522V4.96296C29.8869 4.90175 30.0416 4.86289 30.1995 4.84772C30.3794 4.82551 30.5606 4.81478 30.7419 4.81561C31.0649 4.79593 31.3843 4.89177 31.6422 5.08576C31.8592 5.2646 31.9677 5.58324 31.9677 6.04168V7.22809C31.9816 7.38886 31.9608 7.55073 31.9067 7.70288C31.8525 7.85502 31.7662 7.99394 31.6536 8.11033C31.4028 8.31169 31.0848 8.41216 30.7629 8.39182C30.5695 8.39476 30.3769 8.36799 30.1918 8.31248H30.1995ZM28.4959 4.28664V11.1954C28.4927 11.2169 28.4947 11.239 28.5016 11.2597C28.5085 11.2804 28.5201 11.2992 28.5357 11.3146C28.5512 11.33 28.5702 11.3416 28.591 11.3485C28.6119 11.3553 28.6341 11.3572 28.6558 11.3541H29.5732C29.595 11.3572 29.6172 11.3553 29.638 11.3485C29.6589 11.3416 29.6778 11.33 29.6934 11.3146C29.7089 11.2992 29.7206 11.2804 29.7275 11.2597C29.7344 11.239 29.7363 11.2169 29.7331 11.1954V9.23817C29.9032 9.31052 30.0797 9.36682 30.2604 9.40631C30.4577 9.45044 30.6595 9.47199 30.8618 9.47054C31.1861 9.47495 31.5085 9.42119 31.8135 9.31185C32.0897 9.21239 32.3433 9.05957 32.5597 8.86223C32.7734 8.66365 32.9421 8.42214 33.0545 8.15379C33.1755 7.85358 33.235 7.53248 33.2296 7.2092V6.04546C33.237 5.69057 33.1722 5.33784 33.0393 5.0083C32.9253 4.73325 32.7503 4.48723 32.5273 4.28853C32.3013 4.09387 32.0358 3.94957 31.7488 3.86535C31.4325 3.7725 31.1041 3.72667 30.7743 3.72933C30.4059 3.73053 30.0384 3.76404 29.676 3.82946C29.3166 3.88996 28.9635 3.98356 28.6216 4.10905C28.5855 4.12004 28.5542 4.14282 28.5327 4.17368C28.5113 4.20454 28.501 4.24169 28.5035 4.27908L28.4959 4.28664ZM24.1638 7.17897C24.4259 7.03221 24.7261 6.96643 25.0261 6.99005C25.1898 6.99005 25.3687 6.99005 25.559 7.0165C25.7493 7.04295 25.9187 7.05428 26.0615 7.07506V8.27469C25.9037 8.31492 25.7435 8.34521 25.5819 8.36537C25.4014 8.38924 25.2195 8.40124 25.0375 8.40127C24.7575 8.41121 24.4792 8.35352 24.2266 8.23313C24.1257 8.18426 24.0416 8.10693 23.9847 8.01083C23.9278 7.91473 23.9007 7.80412 23.9069 7.69283C23.9031 7.5927 23.9247 7.49324 23.9696 7.40349C24.0144 7.31374 24.0812 7.23656 24.1638 7.17897ZM22.9913 4.47744L23.4177 5.12165C23.4255 5.1417 23.4383 5.15947 23.4548 5.17334C23.4714 5.18722 23.4911 5.19676 23.5124 5.20108C23.5336 5.2054 23.5555 5.20438 23.5762 5.19809C23.5969 5.19181 23.6157 5.18046 23.6309 5.16511C23.8211 5.05678 24.0254 4.97479 24.2381 4.9214C24.4863 4.85521 24.7424 4.8228 24.9994 4.82505C25.3972 4.82505 25.6732 4.90818 25.8293 5.07442C26.0081 5.309 26.0923 5.60139 26.0653 5.89433V6.09458C25.9016 6.0738 25.7265 6.05491 25.5419 6.03791C25.3616 6.01986 25.1806 6.01103 24.9994 6.01146C24.6837 6.00794 24.3688 6.04155 24.061 6.11158C23.7955 6.16847 23.5431 6.27419 23.3168 6.4233C23.113 6.55652 22.9461 6.7384 22.8315 6.95227C22.7117 7.18603 22.6529 7.44581 22.6602 7.70794C22.6483 7.99807 22.7139 8.28616 22.8505 8.54296C22.9779 8.76503 23.1591 8.95204 23.3777 9.08704C23.6117 9.23005 23.8696 9.33049 24.1391 9.38364C24.4332 9.44514 24.7331 9.47554 25.0337 9.47432C25.4228 9.47498 25.8112 9.44275 26.1947 9.37797C26.5267 9.32585 26.8548 9.25201 27.1769 9.15694C27.2138 9.14157 27.2449 9.11504 27.2657 9.08112C27.2866 9.0472 27.2961 9.00763 27.293 8.96802V5.88299C27.3003 5.55354 27.2461 5.22558 27.1331 4.91573C27.038 4.66068 26.8827 4.43199 26.6801 4.24885C26.4756 4.07501 26.2362 3.94623 25.9778 3.87102C25.6852 3.78368 25.381 3.741 25.0755 3.74444C24.6785 3.73982 24.2827 3.78941 23.8993 3.8918C23.5744 3.97779 23.2663 4.11698 22.9875 4.30364C22.938 4.34646 22.938 4.40943 22.9875 4.49256L22.9913 4.47744ZM20.5131 6.19282H18.3109V5.89433C18.3109 5.50705 18.4175 5.22934 18.6269 5.06309C18.8511 4.89351 19.1275 4.80608 19.4092 4.81561C19.6875 4.80946 19.9597 4.89665 20.1819 5.06309C20.3989 5.22934 20.5074 5.50642 20.5074 5.89433L20.5131 6.19282ZM21.718 5.92833C21.7295 5.58658 21.6645 5.24653 21.5276 4.93274C21.4088 4.67345 21.2325 4.44418 21.0118 4.26208C20.7946 4.08796 20.544 3.95942 20.2752 3.88424C19.9984 3.80328 19.7111 3.76255 19.4225 3.76333C19.132 3.76295 18.843 3.80366 18.5641 3.88424C18.2916 3.96016 18.0367 4.08855 17.8141 4.26208C17.5872 4.44232 17.4049 4.67173 17.2812 4.93274C17.1373 5.23707 17.0638 5.56949 17.0661 5.90566V7.40756C17.0561 7.72298 17.1213 8.03628 17.2564 8.32192C17.3807 8.57087 17.5588 8.78954 17.778 8.96235C18.0008 9.1334 18.2538 9.26155 18.5241 9.34019C18.8063 9.42407 19.0993 9.46671 19.3939 9.46677C19.805 9.476 20.2143 9.41201 20.6026 9.27785C20.9468 9.15172 21.2682 8.97117 21.5543 8.74321C21.6476 8.67331 21.659 8.59963 21.5866 8.52218L21.1584 7.93464C21.1479 7.91698 21.1336 7.90185 21.1165 7.89036C21.0994 7.87888 21.0799 7.87133 21.0595 7.86825C21.0391 7.86517 21.0182 7.86665 20.9985 7.87258C20.9787 7.87851 20.9605 7.88874 20.9452 7.90253C20.7434 8.03953 20.5278 8.15539 20.3019 8.24825C20.0296 8.35012 19.74 8.39887 19.4491 8.39182C19.1556 8.4064 18.866 8.32035 18.6288 8.14812C18.5229 8.05895 18.4397 7.94631 18.3858 7.8193C18.3319 7.6923 18.3088 7.55448 18.3185 7.41701V7.12229H21.5543C21.6609 7.12229 21.7142 7.07129 21.7142 6.97305L21.718 5.92833ZM13.326 2.95288C13.8227 2.95288 14.192 3.053 14.4299 3.25515C14.6678 3.45729 14.782 3.77845 14.782 4.20162C14.7978 4.37548 14.7739 4.55061 14.7123 4.7141C14.6507 4.87759 14.5529 5.02526 14.4261 5.14621C14.1882 5.34647 13.8189 5.44659 13.3222 5.44659H11.9898V2.95288H13.326ZM16.181 9.34397C16.2036 9.34602 16.2264 9.34223 16.2471 9.33296C16.2677 9.32369 16.2857 9.30926 16.299 9.29107C16.32 9.25518 16.3124 9.20984 16.2762 9.15316L14.329 6.44408C14.8406 6.32664 15.2993 6.04592 15.6348 5.64496C15.9536 5.22765 16.117 4.71365 16.0973 4.19029C16.0973 3.43462 15.8556 2.84267 15.3721 2.41446C14.8886 1.98625 14.2066 1.77466 13.326 1.7797H10.8516C10.7526 1.7797 10.7031 1.83259 10.7031 1.93839V9.18528C10.7031 9.29107 10.7526 9.34397 10.8516 9.34397H11.8318C11.9308 9.34397 11.9822 9.29107 11.9822 9.18528V6.58199H12.9339L14.7992 9.23817C14.8172 9.27222 14.8447 9.30034 14.8785 9.31912C14.9123 9.3379 14.9509 9.34653 14.9895 9.34397H16.181Z" fill="var(--nav-menu-icon-primary-accent)"/>
<path d="M5.46116 9.33634L3.87945 5.51831L0.0384216 3.9314V9.33634H5.46116Z" fill="var(--info-graphic-accent-color-dark)"/>
<path d="M7.72622 9.3364V7.23375V7.09773L3.87567 5.52026L5.46119 9.3364H7.72622Z" fill="var(--info-graphic-accent-color-light)"/>
<path d="M0.0384216 3.93139L3.87564 5.52019L2.29203 1.70972L0.0384216 3.93139Z" fill="var(--info-graphic-accent-color-lightest)"/>
<path d="M7.7262 3.93145L3.88707 0.124756L3.29131 0.714179L2.29013 1.71167L3.87565 5.52025L7.7262 7.09771V3.93145Z" fill="var(--nav-menu-icon-secondary-accent)"/>
</g>
<defs>
<clipPath id="clip0_5905_4610">
<rect width="40" height="12" fill="var(--nav-menu-icon-primary-accent)"/>
</clipPath>
</defs>
</svg>
