<svg width="40" height="40" viewBox="0 0 40 40" fill="none" xmlns="http://www.w3.org/2000/svg">
<path d="M25.39 9.32229C20.9602 4.89253 13.7522 4.89262 9.32239 9.32229C4.89254 13.7521 4.89254 20.96 9.32239 25.3898C13.0805 29.1479 18.6698 29.7171 23.0344 27.0988C23.0344 27.0988 23.35 26.9107 23.6038 27.1647C25.0528 28.6138 29.4004 32.9613 29.4004 32.9613C30.554 34.1151 32.1673 34.3897 33.1906 33.3666L33.3666 33.1904C34.3899 32.1673 34.1153 30.5539 32.9616 29.4003C32.9616 29.4003 28.6232 25.062 27.1772 23.6159C26.911 23.3497 27.0991 23.0343 27.0991 23.0343C29.7172 18.6697 29.1482 13.0804 25.39 9.32229ZM23.2924 23.2922C20.0192 26.5654 14.6934 26.5653 11.4202 23.2921C8.14707 20.0189 8.14698 14.6931 11.4202 11.42C14.6933 8.14679 20.0192 8.14679 23.2924 11.42C26.5654 14.6932 26.5654 20.0189 23.2924 23.2922Z" fill="white"/>
<path d="M16.6822 22.5676C16.6822 22.72 16.6523 22.8748 16.5892 23.0241C16.3369 23.6204 15.6488 23.8994 15.0524 23.6471C11.3037 22.0608 9.54456 17.7206 11.1308 13.972C11.3832 13.3757 12.0713 13.0967 12.6677 13.3491C13.2641 13.6016 13.5429 14.2894 13.2906 14.886C12.2084 17.4436 13.4087 20.4051 15.9662 21.4872C16.4135 21.6765 16.6822 22.1108 16.6822 22.5676Z" fill="#23A4DE"/>
</svg>
