<svg width="40" height="40" viewBox="0 0 40 40" fill="none" xmlns="http://www.w3.org/2000/svg">
<path d="M21.6479 5H11.2091C7.22742 5 4 8.16475 4 12.0692V27.1743C4 27.5418 4.30717 27.7857 4.62682 27.7857C4.77991 27.7857 4.93563 27.7303 5.06244 27.6056L10.1108 22.6553C10.2278 22.5406 10.3858 22.4765 10.5507 22.4765H21.648C25.6297 22.4768 28.8571 19.3117 28.8571 15.4076V12.069C28.8571 8.16487 25.6296 5 21.6479 5Z" fill="white"/>
<path d="M18.737 8.99955C18.737 7.94313 17.9277 7.07153 16.9161 7.07153C15.9045 7.07153 15.07 7.91681 15.07 8.97305C15.07 10.056 15.9046 10.9276 16.9161 10.9276C17.9025 10.9276 18.737 10.0559 18.737 8.99955Z" fill="#23A4DE"/>
<path d="M19.2681 19.4002C19.3693 19.2946 19.4704 19.1097 19.521 18.9512C19.5969 18.6607 19.3693 18.4759 19.0657 18.5817C18.963 18.6124 18.8688 18.6697 18.7731 18.728C18.704 18.7701 18.6342 18.8126 18.5599 18.8459C18.3322 18.9516 18.1046 19.0308 17.877 19.0572C17.5989 19.0835 17.3965 18.9251 17.3207 18.6345C17.27 18.4232 17.2448 18.1856 17.27 17.9742C17.3037 17.6749 17.3599 17.3756 17.4161 17.0762C17.4442 16.9266 17.4723 16.7769 17.4976 16.6273C17.6114 15.9405 17.7315 15.5194 17.8517 15.0982C17.9718 14.677 18.0919 14.2558 18.2057 13.5691C18.2816 13.1993 18.3322 12.8296 18.3322 12.4598C18.3322 12.0108 18.0792 11.7995 17.6493 11.7995H14.1592C14.0075 11.7995 13.8558 11.7995 13.7293 11.8259C13.4763 11.8786 13.3498 12.0106 13.3246 12.222C13.2994 12.4067 13.4259 12.6181 13.6534 12.6973C13.8558 12.75 14.0581 12.7765 14.2604 12.8028C14.741 12.8557 14.8927 13.0405 14.8927 13.5424C14.8927 13.582 14.8864 13.6216 14.8801 13.6612C14.8738 13.7008 14.8675 13.7404 14.8675 13.78C14.7663 14.3743 14.6651 14.7163 14.564 15.0582C14.4628 15.4002 14.3616 15.7421 14.2605 16.3363L13.957 18.3965C13.8305 19.4002 14.7664 20.351 15.4997 20.4566C15.9549 20.5358 16.385 20.5358 16.8401 20.5358C17.8012 20.5358 18.6106 20.1134 19.2681 19.4002Z" fill="#23A4DE"/>
<path d="M21.5965 33.9999H36.1066C36.1066 33.9999 36.1072 27.9906 36.107 27.9904H35.8891C35.1642 27.9904 34.4634 27.6592 33.9156 27.057C31.7529 24.6802 28.7561 24.0291 26.0933 25.3557C24.9568 25.9222 23.7593 26.2099 22.5348 26.2099H18.6949C18.0575 26.2099 17.5197 26.7596 17.3602 27.5045C17.3584 27.5136 17.3566 27.5235 17.3542 27.5326C17.3266 27.6709 17.3121 27.8151 17.3121 27.9639C17.3121 28.9309 17.9321 29.7171 18.6949 29.7171L24.6822 29.7173C24.8525 29.7173 24.9904 29.892 24.9904 30.1081C24.9904 30.324 24.8526 30.4988 24.6822 30.4988H18.6949C17.5925 30.4988 16.6955 29.3616 16.6955 27.9639C16.6955 27.8563 16.7009 27.7503 16.7112 27.6464L11.9471 24.8567C11.782 24.7597 11.6087 24.7139 11.4377 24.7139C10.9761 24.7139 10.5329 25.0474 10.327 25.613C10.0544 26.3612 10.2921 27.248 10.8677 27.6319L19.3913 33.3107C20.0686 33.7617 20.8314 33.9999 21.5965 33.9999Z" fill="#23A4DE"/>
</svg>
