<svg width="1em" height="1em" viewBox="0 0 40 40" fill="none" xmlns="http://www.w3.org/2000/svg">
<path d="M21.6479 5H11.2091C7.22742 5 4 8.16475 4 12.0692V27.1743C4 27.5418 4.30717 27.7857 4.62682 27.7857C4.77991 27.7857 4.93563 27.7303 5.06244 27.6056L10.1108 22.6553C10.2278 22.5406 10.3858 22.4765 10.5507 22.4765H21.648C25.6297 22.4768 28.8571 19.3117 28.8571 15.4076V12.069C28.8571 8.16487 25.6296 5 21.6479 5Z" fill="white"/>
<path d="M16.915 7.07227C17.9265 7.07227 18.7359 7.94386 18.7359 9.00029C18.7359 10.0567 17.9013 10.9283 16.915 10.9283C15.9035 10.9283 15.0689 10.0567 15.0689 8.97378C15.0689 7.91754 15.9033 7.07227 16.915 7.07227ZM19.5199 18.952C19.4693 19.1104 19.3682 19.2954 19.2669 19.4009C18.6094 20.1141 17.8001 20.5366 16.839 20.5366C16.3839 20.5366 15.9537 20.5366 15.4986 20.4573C14.7653 20.3518 13.8294 19.4009 13.9559 18.3972C14.057 17.7105 14.1583 17.0237 14.2593 16.3371C14.4617 15.1486 14.664 14.9693 14.8663 13.7808C14.8663 13.7016 14.8916 13.6223 14.8916 13.5431C14.8916 13.0412 14.7399 12.8565 14.2593 12.8036C14.057 12.7772 13.8546 12.7507 13.6523 12.698C13.4247 12.6188 13.2983 12.4075 13.3235 12.2227C13.3487 12.0114 13.4752 11.8793 13.7282 11.8266C13.8547 11.8002 14.0064 11.8002 14.1581 11.8002H15.8525H17.6482C18.0781 11.8002 18.3311 12.0116 18.3311 12.4605C18.3311 12.8303 18.2804 13.2001 18.2046 13.5698C17.977 14.9433 17.724 15.2546 17.4965 16.628C17.4206 17.077 17.3194 17.526 17.2689 17.975C17.2437 18.1863 17.2689 18.4239 17.3195 18.6353C17.3954 18.9258 17.5977 19.0842 17.8759 19.0579C18.1035 19.0316 18.331 18.9523 18.5588 18.8466C18.7359 18.7674 18.8876 18.6353 19.0645 18.5824C19.3681 18.4766 19.5958 18.6614 19.5199 18.952Z" fill="#23A4DE"/>
<path d="M36.1071 33.9992H21.5971C20.832 33.9992 20.0692 33.7609 19.3918 33.31L10.8683 27.6312C10.2927 27.2473 10.055 26.3605 10.3276 25.6123C10.5334 25.0466 10.9766 24.7132 11.4383 24.7132C11.6092 24.7132 11.7826 24.759 11.9476 24.856L16.7117 27.6457C16.7014 27.7496 16.6961 27.8556 16.6961 27.9632C16.6961 29.3608 17.5931 30.4981 18.6955 30.4981H24.6828C24.8532 30.4981 24.991 30.3232 24.991 30.1074C24.991 29.8913 24.853 29.7166 24.6828 29.7166L18.6955 29.7164C17.9326 29.7164 17.3126 28.9301 17.3126 27.9632C17.3126 27.8144 17.3272 27.6701 17.3547 27.5319C17.3572 27.5228 17.359 27.5128 17.3608 27.5037C17.5203 26.7588 18.058 26.2091 18.6955 26.2091H22.5353C23.7598 26.2091 24.9573 25.9214 26.0938 25.355C28.7567 24.0283 31.7535 24.6794 33.9161 27.0562C34.464 27.6585 35.1648 27.9896 35.8896 27.9896H36.1075C36.1077 27.9898 36.1077 33.999 36.1077 33.999L36.1071 33.9992Z" fill="#23A4DE"/>
</svg>
