<svg width="40" height="40" viewBox="0 0 40 40" fill="none" xmlns="http://www.w3.org/2000/svg">
<path d="M32.9713 6.86381C31.8964 5.78894 30.1807 5.70713 29.0084 6.67489L17.2756 16.361C16.1182 17.3164 15.1655 18.4955 14.4744 19.8277L12.5964 23.4476L16.3875 27.2387L20.0074 25.3607C21.3396 24.6696 22.5186 23.7168 23.4741 22.5595L33.1602 10.8266C34.1279 9.65442 34.0461 7.93868 32.9713 6.86381Z" fill="white"/>
<path d="M15.3074 12.9249C16.9968 12.9249 18.3663 11.5554 18.3663 9.86599C18.3663 8.17663 16.9968 6.80713 15.3074 6.80713C13.618 6.80713 12.2485 8.17663 12.2485 9.86599C12.2485 11.5554 13.618 12.9249 15.3074 12.9249Z" fill="white"/>
<path d="M12.2965 17.2036C12.2965 18.458 11.2796 19.4749 10.0253 19.4749C8.7709 19.4749 7.75403 18.458 7.75403 17.2036C7.75403 15.9492 8.7709 14.9324 10.0253 14.9324C11.2796 14.9324 12.2965 15.9492 12.2965 17.2036Z" fill="white"/>
<path d="M13.2191 21.0508L12.4121 22.7529C12.1949 23.2109 12.2893 23.7559 12.6476 24.1143L12.6664 24.1332C11.1099 23.7047 9.45924 24.0469 8.36222 25.1864C7.48044 26.1024 7.12034 27.354 7.26187 28.6127L7.2604 28.6015C7.25982 28.5973 7.25923 28.5932 7.2588 28.589C7.25987 28.9297 7.30383 29.1862 7.34071 29.4014C7.42339 29.8838 7.47053 30.1588 6.91956 30.7098C6.68315 30.9462 6.42336 31.1467 6.14599 31.3117C5.96339 31.4203 5.95016 31.6845 6.11717 31.8531C6.13254 31.8686 6.14802 31.8841 6.16356 31.8995C8.79946 34.5169 12.834 34.7051 15.1709 32.3688L15.4115 32.1284C16.6062 30.9338 16.8868 29.1396 16.2979 27.5077C16.5555 27.5673 16.8318 27.5416 17.0821 27.423L18.7842 26.6159C19.206 26.4159 19.3024 25.8585 18.9724 25.5285L14.3065 20.8626C13.9765 20.5326 13.4191 20.6291 13.2191 21.0508Z" fill="#23A4DE"/>
<path d="M23.634 26.2606C24.0849 24.0837 26.0104 22.4465 28.3197 22.4409C30.9716 22.4345 33.1293 24.5868 33.1293 27.2387C33.1292 29.8883 30.9812 32.0363 28.3316 32.0363C27.9044 32.0363 27.4903 31.9805 27.0962 31.8757C26.7224 31.7764 26.3223 31.8859 26.0458 32.1563C25.4869 32.7029 24.7195 33.0371 23.8737 33.0278C22.2126 33.0096 20.8535 31.6384 20.8493 29.9772C20.8458 28.6339 21.7084 27.4922 22.9099 27.0777C23.2773 26.951 23.5553 26.6411 23.634 26.2606Z" fill="#23A4DE"/>
</svg>
