<svg width="40" height="40" viewBox="0 0 40 40" fill="none" xmlns="http://www.w3.org/2000/svg">
<path d="M19.9997 13.7891C17.5766 13.7891 15.6052 11.8177 15.6052 9.39453C15.6052 6.97139 17.5766 5 19.9997 5C22.4229 5 24.3943 6.97139 24.3943 9.39453C24.3943 11.8177 22.4229 13.7891 19.9997 13.7891Z" fill="var(--nav-menu-icon-primary-accent)"/>
<path d="M5.58791 30.1075C4.37631 28.009 5.09789 25.3161 7.19643 24.1045C9.29508 22.8929 11.9879 23.6145 13.1995 25.713C14.4139 27.8164 13.6946 30.5015 11.591 31.716C9.47912 32.9353 6.79178 32.1927 5.58791 30.1075Z" fill="var(--nav-menu-icon-primary-accent)"/>
<path d="M26.8 25.713C25.5855 27.8166 26.3051 30.5017 28.4085 31.7161C30.5157 32.9326 33.2054 32.1966 34.4115 30.1075C35.6231 28.009 34.9015 25.316 32.803 24.1045C30.7046 22.8929 28.0115 23.6145 26.8 25.713Z" fill="var(--nav-menu-icon-primary-accent)"/>
<path d="M8.59148 21.1185L6.8363 21.0219C6.95103 18.9383 7.56873 16.888 8.62265 15.0926C9.6474 13.3468 11.0845 11.8368 12.7785 10.7258L13.7425 12.1957C10.7154 14.181 8.78982 17.5166 8.59148 21.1185Z" fill="var(--nav-menu-icon-secondary-accent)"/>
<path d="M31.408 21.1185C31.2097 17.5166 29.284 14.181 26.257 12.1957L27.2209 10.7258C28.915 11.8368 30.3521 13.3468 31.3768 15.0926C32.4307 16.888 33.0484 18.9383 33.1632 21.0219L31.408 21.1185Z" fill="var(--nav-menu-icon-secondary-accent)"/>
<path d="M14.0569 33.5877C15.9099 34.5249 17.9093 35.0001 19.9997 35.0001C22.0901 35.0001 24.0896 34.5249 25.9426 33.5877L25.1492 32.0191C23.5445 32.8307 21.8119 33.2423 19.9997 33.2423C18.1875 33.2423 16.455 32.8307 14.8503 32.019L14.0569 33.5877Z" fill="var(--nav-menu-icon-secondary-accent)"/>
</svg>
