<svg width="246" height="226" viewBox="0 0 246 226" fill="none" xmlns="http://www.w3.org/2000/svg">
<path d="M21.8555 171.358V43.7536C21.9008 41.5116 23.7105 39.7019 25.9525 39.6566H219.413C221.656 39.7019 223.465 41.5116 223.511 43.7536V171.372L21.8555 171.358Z" fill="#506478"/>
<path d="M223.511 171.358V187.747C223.465 189.989 221.656 191.798 219.413 191.844H25.9525C23.707 191.798 21.9008 189.989 21.8555 187.747V171.358H223.511Z" fill="#607890"/>
<path d="M165.854 220.812H79.5195V224.91H165.854V220.812Z" fill="#607890"/>
<path d="M151.36 220.83H94.0117L98.1088 191.844H147.263L151.36 220.83Z" fill="#506478"/>
<path d="M215.303 47.8506H30.0469V163.161H215.303V47.8506Z" fill="#798da1"/>
<path d="M234.627 225.185H180.856C175.127 225.171 170.483 220.526 170.469 214.798V101.388C170.483 95.6589 175.127 91.0144 180.856 91.0004H234.627C240.356 91.0144 245 95.6589 245.014 101.388V214.801C244.997 220.53 240.356 225.171 234.627 225.185Z" fill="#506478"/>
<path d="M234.631 225.185H180.86C175.131 225.171 170.487 220.527 170.473 214.798V201.641C204.724 201.641 214.539 201.641 245.018 201.641V214.801C245.001 220.53 240.36 225.171 234.631 225.185Z" fill="#607890"/>
<path d="M240.095 101.597H175.383V207.405H240.095V101.597Z" fill="#d8dee4"/>
<path d="M214.896 97.4058H201.671C201.075 97.4023 200.593 96.9211 200.59 96.3248C200.593 95.7286 201.075 95.2474 201.671 95.2439H214.921C215.517 95.2474 215.998 95.7286 216.002 96.3248C215.998 96.9246 215.514 97.4092 214.914 97.4058C214.907 97.4058 214.903 97.4058 214.896 97.4058Z" fill="#F2F2F2"/>
<path d="M207.74 221.405C204.916 221.405 202.625 219.114 202.625 216.29C202.625 213.466 204.916 211.175 207.74 211.175C210.565 211.175 212.855 213.466 212.855 216.29C212.852 219.111 210.565 221.398 207.74 221.405Z" fill="#F2F2F2"/>
<path d="M176.264 98.0145C167.848 77.7395 144.655 68.1529 124.46 76.6025C110.652 82.3799 101.264 95.4739 100.188 110.454C88.5189 112.074 80.3673 122.886 81.981 134.602C83.4414 145.203 92.4723 153.094 103.132 153.084H176.264C191.41 153.084 203.688 140.756 203.688 125.549C203.688 110.342 191.41 98.0145 176.264 98.0145Z" fill="white"/>
<path d="M152.48 141.817L180.969 114.285L209.457 141.817V179.838H152.48V141.817Z" fill="#506478"/>
<path d="M152.48 141.817L180.969 114.285L209.457 141.817V163.449L152.48 141.817Z" fill="#d8dee4"/>
<path d="M209.457 179.838H192.781L169.156 125.701L180.968 114.285L209.457 141.817V179.838Z" fill="#9faebc"/>
<path d="M209.457 141.817V163.449L180.968 152.769L169.156 125.701L180.968 114.285L209.457 141.817Z" fill="#798da1"/>
<path d="M88.1034 0.389038H14.746C6.76243 0.389038 0.265625 6.68079 0.265625 14.4144V58.8611C0.265625 66.5947 6.76243 72.8865 14.746 72.8865H88.1034C96.087 72.8865 102.584 66.5947 102.584 58.8611V14.4144C102.584 6.68079 96.087 0.389038 88.1034 0.389038Z" fill="white"/>
<path d="M88.1008 0.389038H67.3522C59.3686 0.389038 52.8718 6.68079 52.8718 14.4144L37.7422 58.8611C37.7422 66.5947 44.239 72.8865 52.2226 72.8865H88.1008C96.0844 72.8865 102.581 66.5947 102.581 58.8611V14.4144C102.581 6.68079 96.0844 0.389038 88.1008 0.389038Z" fill="white"/>
<path d="M88.1034 0.389038H14.746C6.76243 0.389038 0.265625 6.6808 0.265625 14.4144V58.8612C0.265625 66.5947 6.76243 72.8865 14.746 72.8865H88.1034C96.087 72.8865 102.584 66.5947 102.584 58.8612V14.4144C102.584 6.6808 96.087 0.389038 88.1034 0.389038ZM37.3979 22.7015L22.1641 37.4545L35.7113 50.5741C36.8823 51.7082 36.8823 53.5467 35.7113 54.6789C34.5422 55.813 32.6437 55.813 31.4727 54.6789L15.8052 39.5059C14.6341 38.3718 14.6341 36.5352 15.8052 35.4011L33.1573 18.5966C34.3284 17.4625 36.2269 17.4625 37.3979 18.5966C38.567 19.7288 38.567 21.5674 37.3979 22.7015ZM63.6006 15.8717L47.7493 59.3372C47.1977 60.8507 45.4851 61.6422 43.9243 61.1081C42.3636 60.5739 41.5442 58.9153 42.0958 57.4038L57.9471 13.9383C58.4987 12.4268 60.2093 11.6333 61.7721 12.1675C63.3328 12.7016 64.1522 14.3602 63.6006 15.8717ZM87.0442 37.8744L69.6921 54.6789C68.521 55.813 66.6225 55.813 65.4515 54.6789C64.2824 53.5467 64.2824 51.7082 65.4515 50.5741L80.6853 35.8211L67.1381 22.7015C65.9671 21.5674 65.9671 19.7288 67.1381 18.5966C68.3072 17.4625 70.2057 17.4625 71.3767 18.5966L87.0442 33.7696C88.2153 34.9037 88.2153 36.7403 87.0442 37.8744Z" fill="#9faebc"/>
<path d="M88.106 0.389038H60.1277C49.6002 28.7001 44.1189 44.6251 33.1562 72.8865H88.106C96.0896 72.8865 102.586 66.5947 102.586 58.8611V14.4144C102.586 6.68079 96.0896 0.389038 88.106 0.389038ZM64.0007 15.8717L48.1494 59.3372C47.5978 60.8507 45.8852 61.6422 44.3245 61.1081C42.7637 60.5739 41.9444 58.9153 42.4959 57.4038L58.3472 13.9383C58.8988 12.4268 60.6094 11.6333 62.1722 12.1675C63.7329 12.7016 64.5523 14.3602 64.0007 15.8717ZM87.0468 37.8744L69.6947 54.6789C68.5236 55.813 66.6251 55.813 65.4541 54.6789C64.285 53.5467 64.285 51.7082 65.4541 50.5741L80.6879 35.8211L67.1407 22.7015C65.9697 21.5674 65.9697 19.7288 67.1407 18.5966C68.3098 17.4625 70.2083 17.4625 71.3793 18.5966L87.0468 33.7696C88.2179 34.9037 88.2179 36.7403 87.0468 37.8744Z" fill="#506478"/>
</svg>
