<svg width="112" height="142" viewBox="0 0 112 142" fill="none" xmlns="http://www.w3.org/2000/svg">
<path d="M15.5117 66.1255C15.5117 65.0209 16.4071 64.1255 17.5117 64.1255H41.9906C43.0952 64.1255 43.9906 65.0209 43.9906 66.1255V135L15.5117 141.725V66.1255Z" fill="#506478"/>
<path d="M49.3974 21.3787C49.3915 20.27 50.2887 19.368 51.3974 19.368H75.8656C76.9702 19.368 77.8656 20.2635 77.8656 21.368V127L49.9951 133.5L49.3974 21.3787Z" fill="#9faebc"/>
<path d="M83.2617 50.4112C83.2617 49.3066 84.1571 48.4112 85.2617 48.4112H109.741C110.845 48.4112 111.741 49.3066 111.741 50.4112L111.741 118.613L83.2617 125.5L83.2617 50.4112Z" fill="#798da1"/>
<path d="M48.6471 13.4104C44.3336 2.88842 32.4461 -2.08663 22.0956 2.29839C15.0185 5.29661 10.2064 12.0919 9.655 19.866C3.67409 20.7068 -0.503975 26.3175 0.323145 32.3977C1.07164 37.8994 5.70037 41.9946 11.1637 41.9891H48.6469C56.4099 41.9891 62.7031 35.5915 62.7031 27.6998C62.7031 19.8081 56.4102 13.4104 48.6471 13.4104Z" fill="white"/>
</svg>
