<svg width="20" height="20" viewBox="0 0 20 20" fill="none" xmlns="http://www.w3.org/2000/svg">
<path fill-rule="evenodd" clip-rule="evenodd" d="M9.99995 0C4.48601 0 0 4.48591 0 9.99995C0 15.514 4.48601 20 9.99995 20C15.5139 20 19.9999 15.514 19.9999 9.99995C19.9999 4.48591 15.514 0 9.99995 0ZM9.97907 16.451C9.18283 16.4535 8.53944 15.8102 8.54202 15.0139L8.55365 11.4331L4.97316 11.4118C4.17697 11.4071 3.53957 10.7577 3.54949 9.96149C3.55941 9.16526 4.21288 8.52363 5.00907 8.52838L8.56301 8.54957L8.57455 4.99537C8.57713 4.19912 9.22471 3.55154 10.021 3.54896C10.8172 3.54637 11.4606 4.18976 11.458 4.98601L11.4464 8.56676L15.0269 8.5881C15.8231 8.59285 16.4605 9.24217 16.4506 10.0384C16.4406 10.8346 15.7872 11.4763 14.991 11.4715L11.437 11.4503L11.4255 15.0046C11.4229 15.8008 10.7753 16.4484 9.97907 16.451Z" fill="black"/>
</svg>
