<svg width="12" height="16" viewBox="0 0 12 16" fill="none" xmlns="http://www.w3.org/2000/svg">
<path d="M5.30008 13.3357L1.31355 9.19039C1.01304 8.87796 0.525847 8.87796 0.225342 9.19039C-0.0750732 9.50292 -0.0750732 10.0095 0.225342 10.3219L5.46055 15.7657C5.76106 16.0781 6.24825 16.0781 6.54876 15.7657L11.784 10.3219C12.0792 10.004 12.0708 9.49743 11.765 9.19039C11.4668 8.89091 10.994 8.89091 10.6958 9.19039L6.80008 13.2413L6.80008 0.75C6.80008 0.335786 6.46429 -1.81059e-08 6.05008 0C5.63587 1.81059e-08 5.30008 0.335787 5.30008 0.75L5.30008 13.3357Z" fill="black"/>
</svg>
