<svg width="20" height="20" viewBox="0 0 20 20" fill="none" xmlns="http://www.w3.org/2000/svg">
<path fill-rule="evenodd" clip-rule="evenodd" d="M9.99995 0C4.48601 0 0 4.48591 0 9.99995C0 15.514 4.48601 20 9.99995 20C15.5139 20 19.9999 15.514 19.9999 9.99995C19.9999 4.48591 15.514 0 9.99995 0ZM11.4118 15.0268C11.4071 15.823 10.7578 16.4604 9.96154 16.4505C9.1653 16.4406 8.52367 15.7871 8.52842 14.9909L8.54334 12.4887L6.35253 13.7362C5.66064 14.1302 4.78397 13.8866 4.39444 13.192C4.00491 12.4975 4.25002 11.6151 4.94192 11.2211L7.11648 9.98287L4.94064 8.7093C4.2535 8.30709 4.02616 7.42606 4.43286 6.74146C4.83957 6.05686 5.72631 5.82793 6.41345 6.23014L8.57312 7.49425L8.58815 4.9731C8.59289 4.17691 9.24222 3.53951 10.0385 3.54943C10.8347 3.55935 11.4763 4.21282 11.4716 5.00901L11.4566 7.51145L13.6475 6.26394C14.3394 5.86996 15.216 6.11359 15.6056 6.80811C15.9951 7.50262 15.75 8.38503 15.0581 8.77901L12.8835 10.0173L15.0593 11.2908C15.7464 11.693 15.9738 12.574 15.5671 13.2586C15.1604 13.9432 14.2736 14.1721 13.5865 13.7699L11.4269 12.5059L11.4118 15.0268Z" fill="currentColor"/>
</svg>
