<svg width="18" height="20" viewBox="0 0 18 20" fill="none" xmlns="http://www.w3.org/2000/svg">
<path d="M17.4192 14.0993L10.3203 10.0007L17.4182 5.90272C17.734 5.72042 17.8421 5.31666 17.6598 5.00092C17.4775 4.68519 17.0738 4.57692 16.758 4.7593L9.65963 8.85755V0.660171C9.65963 0.29558 9.36405 0 8.99946 0C8.63487 0 8.33929 0.29558 8.33929 0.660171V8.85694L1.24193 4.7593C0.926188 4.57683 0.522428 4.68519 0.340133 5.00092C0.157838 5.31666 0.266018 5.72042 0.581755 5.90272L7.67965 10.0007L0.580787 14.0993C0.265049 14.2816 0.156869 14.6854 0.339165 15.0011C0.461428 15.2129 0.683334 15.3313 0.911488 15.3313C1.02354 15.3313 1.137 15.3028 1.24096 15.2427L8.33938 11.1445V19.3398C8.33938 19.7044 8.63496 20 8.99955 20C9.36414 20 9.65972 19.7044 9.65972 19.3398V11.1439L16.7591 15.2427C16.8631 15.3028 16.9766 15.3313 17.0886 15.3313C17.3167 15.3313 17.5386 15.2128 17.6609 15.0011C17.8432 14.6853 17.735 14.2816 17.4192 14.0993Z" fill="currentColor"/>
</svg>
