<svg width="18" height="20" viewBox="0 0 18 20" fill="none" xmlns="http://www.w3.org/2000/svg">
<path d="M4.51518 9.48882C4.22826 9.77571 4.22825 10.2408 4.51519 10.5278L7.3938 13.4063C7.68054 13.6931 8.14612 13.693 8.43281 13.4063L14.0848 7.75434C14.3717 7.46745 14.3717 7.00227 14.0848 6.71532C13.7979 6.4284 13.3328 6.42838 13.0458 6.71533L7.91331 11.8479L5.55421 9.4888C5.26732 9.20189 4.80217 9.20188 4.51518 9.48882Z" fill="black"/>
<path fill-rule="evenodd" clip-rule="evenodd" d="M17.1158 2.60587C17.5275 2.74096 17.8068 3.12703 17.8066 3.56034C17.8011 12.6102 17.5879 16.9636 9.32771 19.8863C9.119 19.9601 8.88124 19.9602 8.67284 19.8854C0.478895 16.9475 0.244331 11.702 0.23761 3.55889C0.237254 3.12557 0.516469 2.74069 0.928762 2.60735C1.91357 2.28886 2.77328 2.01336 3.56755 1.75884C5.38234 1.17729 6.8555 0.705217 8.6987 0.0798556C8.89358 0.0137383 9.10461 0.00888915 9.30201 0.0670363C11.3791 0.678867 12.7484 1.14118 14.4088 1.70181C15.2069 1.97128 16.0723 2.26346 17.1158 2.60587ZM14.0261 2.83915C14.7893 3.09683 15.6181 3.37666 16.6065 3.70164C16.6021 8.22358 16.5199 11.2638 15.5564 13.556C14.6525 15.7064 12.8934 17.3389 9.00203 18.7285C5.2012 17.3501 3.42002 15.5196 2.49846 13.2266C1.5289 10.8142 1.44295 7.75951 1.43776 3.70395C2.3628 3.40501 3.17728 3.14401 3.93375 2.9016L3.93724 2.90048C5.73051 2.32583 7.19965 1.85504 9.02483 1.23638C11.0433 1.83211 12.3833 2.28447 14.0249 2.83875L14.0261 2.83915Z" fill="black"/>
</svg>
