<svg width="18" height="20" viewBox="0 0 18 20" fill="none" xmlns="http://www.w3.org/2000/svg">
<path fill-rule="evenodd" clip-rule="evenodd" d="M17.1158 2.60587C17.5275 2.74096 17.8068 3.12703 17.8066 3.56034C17.8011 12.6102 17.5879 16.9636 9.32771 19.8863C9.119 19.9601 8.88124 19.9602 8.67284 19.8854C0.478895 16.9475 0.24433 11.702 0.23761 3.55889C0.237253 3.12557 0.516468 2.74069 0.928761 2.60735C1.91357 2.28886 2.77328 2.01336 3.56755 1.75884C5.38234 1.17729 6.8555 0.705217 8.6987 0.0798556C8.89358 0.0137383 9.10461 0.00888915 9.30201 0.0670363C11.3791 0.678867 12.7484 1.14118 14.4088 1.70181C15.2069 1.97128 16.0723 2.26346 17.1158 2.60587ZM8.47374 14.0182L14.597 8.2259C15.1344 7.71754 15.1344 6.89045 14.5968 6.3819C14.3364 6.13561 13.9903 6.00006 13.6221 6.00006C13.254 6.00006 12.9079 6.13561 12.6475 6.3819L7.49902 11.2522L5.35298 9.22221C5.09273 8.97583 4.74653 8.84018 4.37837 8.84018C4.0101 8.84018 3.664 8.97583 3.40375 9.22212C3.14339 9.46841 2.99999 9.7958 2.99999 10.1442C2.99999 10.4924 3.14339 10.8198 3.40375 11.0661L6.5245 14.0182C6.78486 14.2645 7.13095 14.4001 7.49912 14.4001C7.86728 14.4001 8.21338 14.2645 8.47374 14.0182Z" fill="currentColor"/>
</svg>
