<svg width="20" height="16" viewBox="0 0 20 16" fill="none" xmlns="http://www.w3.org/2000/svg">
<path d="M2 4C3.10457 4 4 3.10457 4 2C4 0.895431 3.10457 0 2 0C0.895431 0 0 0.895431 0 2C0 3.10457 0.89543 4 2 4Z" fill="currentColor"/>
<path d="M2 10C3.10457 10 4 9.10457 4 8C4 6.89543 3.10457 6 2 6C0.89543 6 0 6.89543 0 8C0 9.10457 0.89543 10 2 10Z" fill="currentColor"/>
<path d="M4 14C4 15.1046 3.10457 16 2 16C0.895431 16 0 15.1046 0 14C0 12.8954 0.895431 12 2 12C3.10457 12 4 12.8954 4 14Z" fill="currentColor"/>
<path d="M7.5 0.5C6.67157 0.5 6 1.17157 6 2C6 2.82843 6.67157 3.5 7.5 3.5H18.5C19.3284 3.5 20 2.82843 20 2C20 1.17157 19.3284 0.5 18.5 0.5H7.5Z" fill="currentColor"/>
<path d="M6 8C6 7.17157 6.67157 6.5 7.5 6.5H18.5C19.3284 6.5 20 7.17157 20 8C20 8.82843 19.3284 9.5 18.5 9.5H7.5C6.67157 9.5 6 8.82843 6 8Z" fill="currentColor"/>
<path d="M7.5 12.5C6.67157 12.5 6 13.1716 6 14C6 14.8284 6.67157 15.5 7.5 15.5H18.5C19.3284 15.5 20 14.8284 20 14C20 13.1716 19.3284 12.5 18.5 12.5H7.5Z" fill="currentColor"/>
</svg>
