<svg width="20" height="20" viewBox="0 0 20 20" fill="none" xmlns="http://www.w3.org/2000/svg">
<path d="M4.5 1C4.5 0.447715 4.94772 0 5.5 0C6.05228 0 6.5 0.447715 6.5 1V2C6.5 2.55228 6.05228 3 5.5 3C4.94772 3 4.5 2.55228 4.5 2V1Z" fill="black"/>
<path d="M13.5 1C13.5 0.447715 13.9477 0 14.5 0C15.0523 0 15.5 0.447715 15.5 1V2C15.5 2.55228 15.0523 3 14.5 3C13.9477 3 13.5 2.55228 13.5 2V1Z" fill="black"/>
<path d="M3 1.66675V3C3 3.55228 3.44772 4 4 4H7C7.55228 4 8 3.55228 8 3V1.66675H12V3C12 3.55228 12.4477 4 13 4H16C16.5523 4 17 3.55228 17 3V1.66675H17.7083C18.9725 1.66675 20 2.69412 20 3.95831V5.70831H0V3.95831C0 2.69412 1.02753 1.66675 2.29172 1.66675H3Z" fill="black"/>
<path fill-rule="evenodd" clip-rule="evenodd" d="M0 17.7083C0 18.9724 1.02753 20 2.29172 20H17.7083C18.9725 20 20 18.9724 20 17.7083V7.95825H0V17.7083ZM6 11.5C6 12.3284 5.32843 13 4.5 13C3.67157 13 3 12.3284 3 11.5C3 10.6716 3.67157 10 4.5 10C5.32843 10 6 10.6716 6 11.5ZM11.5 11.5C11.5 12.3284 10.8284 13 10 13C9.17157 13 8.5 12.3284 8.5 11.5C8.5 10.6716 9.17157 10 10 10C10.8284 10 11.5 10.6716 11.5 11.5ZM15.5 13C16.3284 13 17 12.3284 17 11.5C17 10.6716 16.3284 10 15.5 10C14.6716 10 14 10.6716 14 11.5C14 12.3284 14.6716 13 15.5 13ZM6 16C6 16.8284 5.32843 17.5 4.5 17.5C3.67157 17.5 3 16.8284 3 16C3 15.1716 3.67157 14.5 4.5 14.5C5.32843 14.5 6 15.1716 6 16ZM10 17.5C10.8284 17.5 11.5 16.8284 11.5 16C11.5 15.1716 10.8284 14.5 10 14.5C9.17157 14.5 8.5 15.1716 8.5 16C8.5 16.8284 9.17157 17.5 10 17.5ZM17 16C17 16.8284 16.3284 17.5 15.5 17.5C14.6716 17.5 14 16.8284 14 16C14 15.1716 14.6716 14.5 15.5 14.5C16.3284 14.5 17 15.1716 17 16Z" fill="black"/>
</svg>
