<svg width="20" height="20" viewBox="0 0 20 20" fill="none" xmlns="http://www.w3.org/2000/svg">
<path d="M13.6346 5.50743C13.9149 5.22715 14.3591 5.21693 14.6272 5.48503C14.8953 5.75312 14.8854 6.19763 14.6051 6.47791L11.0267 10.0563L14.6051 13.6346C14.8854 13.9149 14.8953 14.3594 14.6272 14.6275C14.3591 14.8956 13.9149 14.8854 13.6346 14.6051L10.0563 11.0268L6.47792 14.6051C6.19764 14.8854 5.75314 14.8953 5.48505 14.6272C5.21695 14.3591 5.22716 13.9149 5.50744 13.6346L9.08578 10.0563L5.50743 6.47793C5.22715 6.19765 5.21693 5.75348 5.48503 5.48539C5.75312 5.21729 6.19763 5.22717 6.47791 5.50745L10.0563 9.0858L13.6346 5.50743Z" fill="currentColor"/>
<path fill-rule="evenodd" clip-rule="evenodd" d="M0 10C0 4.4666 4.4665 0 10 0C15.5334 0 20 4.4666 20 10C20 15.5334 15.5334 20 10 20C4.4666 20 0 15.5334 0 10ZM1.3335 10C1.3335 14.7999 5.2 18.6665 10 18.6665C14.7999 18.6665 18.6665 14.7999 18.6665 10C18.6665 5.2001 14.7999 1.3335 10 1.3335C5.2001 1.3335 1.3335 5.2001 1.3335 10Z" fill="currentColor"/>
</svg>
