<svg width="20" height="12" viewBox="0 0 20 12" fill="none" xmlns="http://www.w3.org/2000/svg">
<path fill-rule="evenodd" clip-rule="evenodd" d="M10.124 0C9.51263 0 8.96702 0.226476 8.45588 0.540573C8.04607 0.792404 7.64003 1.1129 7.23218 1.43484C7.13626 1.51056 7.0402 1.58638 6.94401 1.66138C5.9172 2.46193 4.81946 3.21326 3.31347 3.21326C2.21733 3.21326 1.38547 3.67342 0.831419 4.28183C0.283589 4.88341 0 5.63786 0 6.24993V8.57473C0 9.14104 0.472759 9.60051 1.05349 9.60051H3.02933C3.32359 10.6919 4.34332 11.5 5.55642 11.5C6.76946 11.5 7.7889 10.6918 8.08312 9.60051H12.2668C12.5611 10.6919 13.5806 11.5 14.7935 11.5C16.0068 11.5 17.0264 10.6919 17.3206 9.60051H20L20 3.85865C20 3.50196 19.7032 3.21325 19.3374 3.21325L18.0294 3.21313L16.945 1.56873C16.2966 0.586652 15.193 0 13.9941 0H10.124ZM10.1239 1.29089L13.9938 1.29085C14.7399 1.29085 15.4244 1.65472 15.8281 2.26497L17.2449 4.50411H18.6744V8.30962H17.3204C17.0262 7.21801 16.0066 6.40985 14.7933 6.40985C13.5802 6.40985 12.5608 7.21804 12.2666 8.30962H8.08291C7.78869 7.21803 6.76912 6.40985 5.5562 6.40985C4.34278 6.40985 3.3233 7.21801 3.02909 8.30962H1.31135L1.32512 6.25163V6.25C1.32512 5.99414 1.47625 5.5514 1.81524 5.17056C2.14601 4.79895 2.63994 4.50411 3.31327 4.50411C5.01507 4.50411 6.36076 3.65469 7.45854 2.84706C7.6453 2.70966 7.823 2.57496 7.99384 2.44545C8.33533 2.18657 8.64944 1.94846 8.95377 1.75112C9.4103 1.4551 9.78826 1.29089 10.1239 1.29089ZM13.5045 8.95508C13.5045 8.26414 14.0825 7.70087 14.7935 7.70087C15.494 7.70087 16.0653 8.24774 16.082 8.92488L16.0753 8.9551L16.082 8.98532C16.0653 9.66232 15.4941 10.2092 14.7935 10.2092C14.0825 10.2092 13.5045 9.64587 13.5045 8.95508ZM4.27086 8.95522L4.26743 8.93408C4.27903 8.25274 4.85257 7.70088 5.55635 7.70088C6.26736 7.70088 6.84535 8.26414 6.84535 8.95508C6.84535 9.6459 6.26734 10.2092 5.55635 10.2092C4.85256 10.2092 4.27904 9.65725 4.26743 8.97638L4.27086 8.95522Z" fill="black"/>
</svg>
