<svg width="20" height="14" viewBox="0 0 20 14" fill="none" xmlns="http://www.w3.org/2000/svg">
<path d="M19.3425 5.29505L18.491 4.44992C18.4279 4.42191 18.3745 4.3758 18.3375 4.31748L15.7331 0.759969C15.4343 0.282935 14.9093 -0.00476304 14.3464 5.96914e-05H8.82651C8.31748 -0.0014886 7.83677 0.234041 7.52607 0.637226L4.46276 4.34031C4.41661 4.40208 4.35125 4.44677 4.27692 4.46731L0.828519 5.41093C0.336043 5.54805 -0.00342524 5.99814 2.60761e-05 6.50933V9.77039C2.60761e-05 10.3982 0.490688 10.9203 1.11856 10.9203H1.71507C1.86945 9.35257 3.1917 8.12781 4.80001 8.12781C6.40833 8.12781 7.73057 9.35257 7.88495 10.9203H11.9151C12.0695 9.35257 13.3917 8.12781 15 8.12781C16.6083 8.12781 17.9306 9.35255 18.085 10.9203H18.8814C19.5093 10.9203 20 10.3982 20 9.77039V6.33084C20.0035 5.88633 19.7462 5.48102 19.3425 5.29505Z" fill="currentColor"/>
<path d="M3 11.2279C3 10.2337 3.80588 9.42786 4.8 9.42786C5.79412 9.42786 6.6 10.2337 6.6 11.2279C6.5989 12.2215 5.79364 13.0268 4.8 13.0279C3.80588 13.0279 3 12.222 3 11.2279Z" fill="currentColor"/>
<path d="M15 9.42786C14.0059 9.42786 13.2 10.2337 13.2 11.2279C13.2 12.222 14.0059 13.0279 15 13.0279C15.9936 13.0268 16.7989 12.2215 16.8 11.2279C16.8 10.2337 15.9941 9.42786 15 9.42786Z" fill="currentColor"/>
</svg>
