<svg width="20" height="13" viewBox="0 0 20 13" fill="none" xmlns="http://www.w3.org/2000/svg">
<path fill-rule="evenodd" clip-rule="evenodd" d="M14.7009 5.20087L14.3932 4.46244C13.2675 1.7609 10.1651 0.483664 7.46397 1.60946C5.61704 2.37922 4.36113 4.12388 4.21722 6.11997L4.14734 7.08922L3.18473 7.22236C1.92695 7.39632 1.04809 8.55717 1.22207 9.8154C1.37951 10.9539 2.35308 11.8011 3.50204 11.8H15.5009C17.3228 11.8 18.8 10.3228 18.8 8.50045C18.8 6.67803 17.3228 5.20087 15.5009 5.20087H14.7009ZM15.5009 4.00087C14.1202 0.687608 10.3153 -0.878983 7.00232 0.501814C4.73706 1.44592 3.19682 3.58569 3.02033 6.03367C1.10595 6.29844 -0.23136 8.06517 0.0333842 9.97977C0.272962 11.7122 1.75453 13.0017 3.50323 13H15.5009C17.9856 13 20 10.9855 20 8.50045C20 6.01544 17.9857 4.00087 15.5009 4.00087Z" fill="black"/>
</svg>
