<svg width="16" height="20" viewBox="0 0 16 20" fill="none" xmlns="http://www.w3.org/2000/svg">
<path fill-rule="evenodd" clip-rule="evenodd" d="M16 3.35973C16 3.02855 15.6752 2.7952 15.3251 2.7952H12.4817V0.564538C12.4817 0.233351 12.157 0 11.8069 0H4.19627C3.84615 0 3.5214 0.233351 3.5214 0.564538V2.7952H0.678063C0.327943 2.7952 0.00319189 3.02855 0.00319189 3.35973C0.0031872 5.38078 0.00235329 7.14794 0.00153913 8.87326C-4.14361e-05 12.2227 -0.0015476 15.4144 0.0032321 20H5.5V17C5.5 16.4477 5.94772 16 6.5 16H9.5C10.0523 16 10.5 16.4477 10.5 17V20H16V3.35973ZM4 6.5C4 6.22386 4.22386 6 4.5 6H6.5C6.77614 6 7 6.22386 7 6.5V8.5C7 8.77614 6.77614 9 6.5 9H4.5C4.22386 9 4 8.77614 4 8.5V6.5ZM9 6.5C9 6.22386 9.22386 6 9.5 6H11.5C11.7761 6 12 6.22386 12 6.5V8.5C12 8.77614 11.7761 9 11.5 9H9.5C9.22386 9 9 8.77614 9 8.5V6.5ZM4.5 11C4.22386 11 4 11.2239 4 11.5V13.5C4 13.7761 4.22386 14 4.5 14H6.5C6.77614 14 7 13.7761 7 13.5V11.5C7 11.2239 6.77614 11 6.5 11H4.5ZM9 11.5C9 11.2239 9.22386 11 9.5 11H11.5C11.7761 11 12 11.2239 12 11.5V13.5C12 13.7761 11.7761 14 11.5 14H9.5C9.22386 14 9 13.7761 9 13.5V11.5Z" fill="black"/>
</svg>
