<svg width="20" height="20" viewBox="0 0 20 20" fill="none" xmlns="http://www.w3.org/2000/svg">
<path d="M11.7999 11.6667C11.7999 11.2438 11.4228 10.8667 10.9999 10.8667H10.8665V12.4667H10.9999C11.4228 12.4667 11.7999 12.0896 11.7999 11.6667Z" fill="black"/>
<path d="M8.99989 9.13349H9.13329V7.53349H8.99989C8.57695 7.53349 8.19989 7.91055 8.19989 8.33349C8.19989 8.75644 8.57695 9.13349 8.99989 9.13349Z" fill="black"/>
<path fill-rule="evenodd" clip-rule="evenodd" d="M0 10C0 4.4666 4.4665 0 10 0C15.5334 0 20 4.4666 20 10C20 15.5334 15.5334 20 10 20C4.4666 20 0 15.5334 0 10ZM9.13329 10.8669L9.00013 10.8671C7.62286 10.8671 6.46649 9.71074 6.46649 8.33369C6.46649 6.95642 7.62285 5.80029 8.99989 5.80029H9.13329V4.66689C9.13329 4.42146 9.21596 4.20139 9.37517 4.04217C9.53438 3.88296 9.75445 3.80029 9.99989 3.80029C10.2453 3.80029 10.4654 3.88296 10.6246 4.04217C10.7838 4.20139 10.8665 4.42146 10.8665 4.66689V5.80029H12.6665C12.9119 5.80029 13.132 5.88296 13.2912 6.04217C13.4504 6.20139 13.5331 6.42146 13.5331 6.66689C13.5331 6.91233 13.4504 7.1324 13.2912 7.29161C13.132 7.45083 12.9119 7.53349 12.6665 7.53349L10.8665 7.5335V9.1335H10.9999C12.3769 9.1335 13.5333 10.2896 13.5333 11.6665C13.5333 13.0438 12.3769 14.1999 10.9999 14.1999H10.8665V15.3333C10.8665 15.5787 10.7838 15.7988 10.6246 15.958C10.4654 16.1172 10.2453 16.1999 9.99989 16.1999C9.75446 16.1999 9.53438 16.1172 9.37517 15.958C9.21596 15.7988 9.13329 15.5787 9.13329 15.3333V14.1999H7.33329C7.08785 14.1999 6.86778 14.1172 6.70857 13.958C6.54936 13.7988 6.46669 13.5787 6.46669 13.3333C6.46669 13.0879 6.54936 12.8678 6.70857 12.7086C6.86778 12.5494 7.08785 12.4667 7.33329 12.4667H9.13329V10.8669Z" fill="black"/>
</svg>
