<svg width="1em" height="1em" viewBox="0 0 20 20" fill="none" xmlns="http://www.w3.org/2000/svg">
<g >
<g clip-path="url(#clip1)">
<path d="M9.99994 13.3859C9.82911 13.3859 9.66578 13.3159 9.54744 13.1926L5.17244 8.60928C4.79328 8.21178 5.07744 7.55261 5.62494 7.55261H7.91661V6.51095C7.91661 2.95011 10.8141 0.0526123 14.3749 0.0526123C14.7199 0.0526123 14.9999 0.332612 14.9999 0.677612C14.9999 1.02261 14.7199 1.30261 14.3749 1.30261C13.1108 1.30261 12.0833 2.33011 12.0833 3.59428V7.55261H14.3749C14.9224 7.55261 15.2066 8.21178 14.8274 8.60928L10.4524 13.1926C10.3341 13.3159 10.1708 13.3859 9.99994 13.3859Z" fill="currentColor"/>
<path d="M17.5 14H2.5C1.12167 14 0 15.1217 0 16.5C0 17.8783 1.12167 19 2.5 19H17.5C18.8783 19 20 17.8783 20 16.5C20 15.1217 18.8783 14 17.5 14Z" fill="currentColor"/>
</g>
</g>
<defs>
<clipPath id="clip0">
<rect width="1em" height="1em" fill="var(--info-graphic-accent-color-white)"/>
</clipPath>
<clipPath id="clip1">
<rect width="1em" height="1em" fill="var(--info-graphic-accent-color-white)" transform="translate(0 -1)"/>
</clipPath>
</defs>
</svg>
