<svg width="20" height="19" viewBox="0 0 20 19" fill="none" xmlns="http://www.w3.org/2000/svg">
<path d="M9.54744 13.1927C9.66578 13.3161 9.82911 13.3861 9.99994 13.3861C10.1708 13.3861 10.3341 13.3161 10.4524 13.1927L15.4524 8.6094C15.8316 8.2119 15.5474 7.55273 14.9999 7.55273H12.0833V3.5944C12.0833 2.33023 13.1108 1.30273 14.3749 1.30273C14.7199 1.30273 14.9999 1.02273 14.9999 0.677734C14.9999 0.332734 14.7199 0.0527344 14.3749 0.0527344C10.8141 0.0527344 7.91661 2.95023 7.91661 6.51107V7.55273H4.9525C4.405 7.55273 4.12083 8.2119 4.5 8.6094L9.54744 13.1927Z" fill="currentColor"/>
<path d="M2.5 14.0001H17.5C18.8783 14.0001 20 15.1218 20 16.5001C20 17.8785 18.8783 19.0001 17.5 19.0001H2.5C1.12167 19.0001 0 17.8785 0 16.5001C0 15.1218 1.12167 14.0001 2.5 14.0001Z" fill="currentColor"/>
</svg>
