<svg width="20" height="15" viewBox="0 0 20 15" fill="none" xmlns="http://www.w3.org/2000/svg">
<path d="M1.70001 0.0985856C1.86127 0.0372647 2.03627 0 2.22076 0H18.1793C18.3638 0 18.5389 0.0371086 18.7 0.0985856L10.7207 6.78325C10.3756 7.07241 10.0089 7.07209 9.66466 6.78325L1.70001 0.0985856Z" fill="black"/>
<path d="M0 2.48347C0 2.41327 0.00610329 2.34239 0.0156943 2.27495L8.44508 9.56124C9.32628 10.3225 10.6577 10.3213 11.5388 9.56124L19.9843 2.27478C19.9939 2.34239 20 2.41328 20 2.48347V13.5164C20 14.3385 19.3309 15.0001 18.4999 15.0001H1.50008C0.668922 15.0001 0 14.3383 0 13.5164V2.48347Z" fill="black"/>
</svg>
