<svg width="20" height="16" viewBox="0 0 20 16" fill="none" xmlns="http://www.w3.org/2000/svg">
<path d="M18.125 0.5H1.87501C0.841067 0.5 0 1.34107 0 2.37501V13.625C0 14.659 0.841067 15.5 1.87501 15.5H18.125C19.1589 15.5 20 14.659 20 13.625V2.37501C20 1.34107 19.1589 0.5 18.125 0.5ZM18.125 1.74999C18.2099 1.74999 18.2907 1.76761 18.3645 1.79838L10 9.04798L1.63542 1.79838C1.70927 1.76765 1.79005 1.74999 1.87497 1.74999H18.125ZM18.125 14.25H1.87501C1.53017 14.25 1.24999 13.9698 1.24999 13.625V3.11901L9.59045 10.3474C9.70826 10.4493 9.85413 10.5 10 10.5C10.1459 10.5 10.2917 10.4494 10.4096 10.3474L18.75 3.11901V13.625C18.75 13.9698 18.4698 14.25 18.125 14.25Z" fill="currentColor"/>
</svg>
