<svg width="3" height="20" viewBox="0 0 3 20" fill="none" xmlns="http://www.w3.org/2000/svg">
<path d="M0.97501 14.2504C0.988942 14.6684 1.3318 15 1.75 15C2.16819 15 2.51105 14.6684 2.52498 14.2504L2.95835 1.24931C2.98112 0.566171 2.43351 0 1.75 0C1.06648 0 0.518869 0.56617 0.54164 1.24931L0.97501 14.2504Z" fill="currentColor"/>
<path d="M0.5 18.75C0.5 19.4404 1.05964 20 1.75 20C2.44036 20 3 19.4404 3 18.75V18.25C3 17.5596 2.44036 17 1.75 17C1.05964 17 0.5 17.5596 0.5 18.25V18.75Z" fill="currentColor"/>
</svg>
