<svg width="20" height="20" viewBox="0 0 20 20" fill="none" xmlns="http://www.w3.org/2000/svg">
<path fill-rule="evenodd" clip-rule="evenodd" d="M0 10C0 4.48421 4.48421 0 10 0C15.5158 0 20 4.48421 20 10C20 15.5158 15.5158 20 10 20C4.48421 20 0 15.5158 0 10ZM6.09118 7.75791C6.83734 5.76397 8.57655 4.34741 10.6316 4.34741C11.8031 4.34741 12.904 4.81241 13.8011 5.66573L13.8048 5.66922C14.1484 6.01305 14.1853 6.58196 13.8257 6.94154C13.4827 7.28434 12.9158 7.32194 12.5561 6.96526C11.9793 6.42929 11.312 6.15793 10.6105 6.15793C9.564 6.15793 8.62864 6.78976 8.04361 7.75792H11.3896C11.879 7.75792 12.2843 8.16335 12.2843 8.65266C12.2843 9.14215 11.8789 9.5474 11.3896 9.5474H7.4855C7.47268 9.68213 7.4632 9.82055 7.4632 9.95785C7.4632 10.1133 7.47316 10.2483 7.48651 10.3895H11.3896C11.879 10.3895 12.2843 10.7949 12.2843 11.2842C12.2843 11.7737 11.8789 12.1789 11.3896 12.1789H8.05659C8.62475 13.1652 9.56143 13.8001 10.6105 13.8001C11.2931 13.8001 11.9808 13.5271 12.5348 12.9929L12.5375 12.9903C12.9141 12.6405 13.4577 12.6696 13.8045 13.0165L13.8098 13.0217C14.1595 13.3983 14.1304 13.9419 13.7835 14.2888L13.7799 14.2924C12.9025 15.1257 11.7803 15.5894 10.6105 15.5894C8.55539 15.5894 6.81617 14.1729 6.07005 12.1789H5.09487C4.60538 12.1789 4.20013 11.7735 4.20013 11.2842C4.20013 10.7947 4.60557 10.3895 5.09487 10.3895H5.69574C5.68328 10.2482 5.67378 10.1034 5.67378 9.95783C5.67378 9.81445 5.68311 9.68016 5.69527 9.54738H5.09487C4.60538 9.54738 4.20013 9.14195 4.20013 8.65264C4.20013 8.16315 4.60557 7.75791 5.09487 7.75791H6.09118Z" fill="black"/>
</svg>
