<svg width="20" height="20" viewBox="0 0 20 20" fill="none" xmlns="http://www.w3.org/2000/svg">
<path d="M12.6948 6.82107C12.0842 6.25261 11.3684 5.95788 10.6105 5.95788C9.36848 5.95788 8.29483 6.77896 7.70536 7.95787H11.3896C11.7686 7.95787 12.0843 8.27374 12.0843 8.65261C12.0843 9.03162 11.7684 9.34735 11.3896 9.34735H7.30536C7.28421 9.53678 7.26321 9.74721 7.26321 9.9578C7.26321 10.1703 7.28102 10.3474 7.30019 10.5379C7.3019 10.5549 7.30363 10.5721 7.30536 10.5894H11.3896C11.7686 10.5894 12.0843 10.9053 12.0843 11.2842C12.0843 11.6632 11.7684 11.9789 11.3896 11.9789H7.72637C8.29468 13.179 9.36848 14 10.6105 14C11.3473 14 12.0842 13.7053 12.6737 13.1368C12.9684 12.8631 13.3894 12.8841 13.6631 13.1578C13.9369 13.4526 13.9159 13.8736 13.6421 14.1473C12.7999 14.9472 11.7263 15.3894 10.6105 15.3894C8.61052 15.3894 6.90526 13.9788 6.21052 11.9789H5.09488C4.71588 11.9789 4.40015 11.663 4.40015 11.2841C4.40015 10.9051 4.71601 10.5894 5.09488 10.5894H5.91594C5.89479 10.3788 5.87379 10.1684 5.87379 9.95778C5.87379 9.76612 5.89134 9.59185 5.91033 9.40315C5.91219 9.3847 5.91406 9.3661 5.91594 9.34733H5.09488C4.71588 9.34733 4.40015 9.03147 4.40015 8.65259C4.40015 8.27359 4.71601 7.95786 5.09488 7.95786H6.23165C6.92642 5.95789 8.63169 4.54736 10.6316 4.54736C11.7474 4.54736 12.8001 4.98954 13.6633 5.8106C13.9369 6.08432 13.958 6.52634 13.6843 6.80007C13.4105 7.07366 12.9685 7.0948 12.6948 6.82107Z" fill="black"/>
<path fill-rule="evenodd" clip-rule="evenodd" d="M0 10C0 4.48421 4.48421 0 10 0C15.5158 0 20 4.48421 20 10C20 15.5158 15.5158 20 10 20C4.48421 20 0 15.5158 0 10ZM1.38947 10C1.38947 14.7368 5.26316 18.6105 10 18.6105C14.7368 18.6105 18.6105 14.7368 18.6105 10C18.6105 5.26316 14.7368 1.38947 10 1.38947C5.26316 1.38947 1.38947 5.26316 1.38947 10Z" fill="black"/>
</svg>
