<svg width="20" height="20" viewBox="0 0 20 20" fill="none" xmlns="http://www.w3.org/2000/svg">
<path fill-rule="evenodd" clip-rule="evenodd" d="M14.0178 0.800049C12.6177 0.800049 11.268 1.41418 10.3398 2.52231C10.2119 2.66703 10.0989 2.82223 9.99999 2.97687C9.9011 2.82223 9.78807 2.66703 9.66021 2.52231C8.73201 1.41418 7.38228 0.800049 5.98213 0.800049C4.56137 0.800049 3.22212 1.49039 2.31114 2.51432C1.40044 3.53793 0.799988 5.02572 0.799988 6.58654C0.799988 8.14736 1.40044 9.63514 2.31114 10.6588L9.99999 19.3009L17.6888 10.6588C18.5995 9.63514 19.2 8.14736 19.2 6.58654C19.2 5.02572 18.5995 3.53793 17.6888 2.51432C16.7779 1.49039 15.4386 0.800049 14.0178 0.800049ZM10.5988 4.68224L10.5994 4.68031L10.5997 4.67928L10.6003 4.6776L10.607 4.65627C10.6135 4.63624 10.6239 4.60519 10.6381 4.56533C10.6668 4.48463 10.7106 4.36974 10.7691 4.23823C10.8897 3.96714 11.057 3.66158 11.2603 3.43311L11.2652 3.42777L11.2739 3.4173C11.9527 2.60349 12.9571 2.13671 14.0178 2.13671C15.0614 2.13671 16.0793 2.65068 16.7754 3.43312C17.4719 4.2159 17.9428 5.37751 17.9428 6.58654C17.9428 7.79557 17.4719 8.95718 16.7754 9.73996L9.99999 17.3555L3.22455 9.73996C2.52812 8.95718 2.05713 7.79557 2.05713 6.58654C2.05713 5.37751 2.52812 4.2159 3.22455 3.43312C3.92068 2.65068 4.93855 2.13671 5.98213 2.13671C7.04292 2.13671 8.0473 2.6035 8.72609 3.41731L8.73066 3.42295L8.73971 3.43312C8.94298 3.66159 9.11032 3.96714 9.23092 4.23823C9.28942 4.36974 9.33319 4.48463 9.36191 4.56533C9.37621 4.6055 9.38661 4.63673 9.39308 4.65674L9.3997 4.6776L9.40023 4.67928L9.40055 4.68031L9.40113 4.68224L9.99999 6.70161L10.5988 4.68224Z" fill="black"/>
</svg>
