<svg width="20" height="18" viewBox="0 0 20 18" fill="none" xmlns="http://www.w3.org/2000/svg">
<path d="M5.3125 0C3.875 0 2.5 0.642857 1.5625 1.60714C0.625 2.57143 0 3.98571 0 5.46429C0 6.94286 0.625 8.35714 1.5625 9.32143L9.28301 17.2625C9.67568 17.6664 10.3243 17.6664 10.717 17.2625L18.4375 9.32143C19.375 8.35714 20 6.94286 20 5.46429C20 3.98571 19.375 2.57143 18.4375 1.60714C17.5 0.642857 16.125 0 14.6875 0C13.25 0 11.875 0.578571 10.9375 1.60714C10.3125 2.25 10 3.21429 10 3.21429C10 3.21429 9.6875 2.25 9.0625 1.60714C8.125 0.578571 6.75 0 5.3125 0Z" fill="currentColor"/>
</svg>
