<svg width="20" height="18" viewBox="0 0 20 18" fill="none" xmlns="http://www.w3.org/2000/svg">
<path d="M11.547 6.2058C12.6907 6.2058 13.6784 5.56333 14.1966 4.62674H18.5086C19.3444 4.62674 20 3.93873 20 3.11755C20 2.29637 19.3444 1.60836 18.5086 1.60836H14.1966C13.6784 0.671772 12.6907 0.0292969 11.547 0.0292969C10.4034 0.0292969 9.41569 0.671772 8.8975 1.60836H1.49139C0.65557 1.60836 0 2.29637 0 3.11755C0 3.93876 0.655604 4.62674 1.49144 4.62674H8.8975C9.41569 5.56333 10.4034 6.2058 11.547 6.2058Z" fill="currentColor"/>
<path d="M5.35901 12.088C6.50262 12.088 7.49031 11.4455 8.00849 10.5089H18.5086C19.3444 10.5089 20 9.82094 20 8.99975C20 8.17858 19.3444 7.49057 18.5086 7.49057H8.00849C7.49029 6.55397 6.50256 5.9115 5.35897 5.9115C4.21537 5.9115 3.22765 6.55397 2.70944 7.49057H1.49139C0.65557 7.49057 0 8.17857 0 8.99975C0 9.82097 0.655604 10.5089 1.49144 10.5089H2.70949C3.22769 11.4455 4.21542 12.088 5.35901 12.088Z" fill="currentColor"/>
<path d="M14.6411 17.9705C15.7847 17.9705 16.7724 17.328 17.2906 16.3914H18.5086C19.3444 16.3914 20 15.7034 20 14.8822C20 14.061 19.3444 13.373 18.5086 13.373H17.2906C16.7724 12.4364 15.7847 11.794 14.641 11.794C13.4974 11.794 12.5097 12.4364 11.9915 13.373H1.49139C0.65557 13.373 0 14.061 0 14.8822C0 15.7034 0.655604 16.3914 1.49144 16.3914H11.9916C12.5097 17.328 13.4974 17.9705 14.6411 17.9705Z" fill="currentColor"/>
</svg>
