<svg width="20" height="16" viewBox="0 0 20 16" fill="none" xmlns="http://www.w3.org/2000/svg">
<path fill-rule="evenodd" clip-rule="evenodd" d="M1.57244 14.4418H12.4667C12.7662 15.3464 13.6076 16.0001 14.5969 16.0001C15.5861 16.0001 16.4275 15.3464 16.727 14.4418H18.4276C18.8226 14.4418 19.1428 14.1161 19.1428 13.7144C19.1428 13.3126 18.8226 12.9869 18.4276 12.9869H16.727C16.4275 12.0823 15.5861 11.4286 14.5968 11.4286C13.6075 11.4286 12.7661 12.0823 12.4666 12.9869H1.5724C1.17737 12.9869 0.857117 13.3126 0.857117 13.7144C0.857117 14.1161 1.17737 14.4418 1.57244 14.4418ZM14.5969 12.8835C15.0473 12.8835 15.4138 13.2562 15.4138 13.7144C15.4138 14.1725 15.0473 14.5452 14.5969 14.5452C14.1464 14.5452 13.7799 14.1725 13.7799 13.7144C13.7799 13.2562 14.1464 12.8835 14.5969 12.8835Z" fill="black"/>
<path fill-rule="evenodd" clip-rule="evenodd" d="M1.57244 8.72745H3.27299C3.5725 9.63213 4.41396 10.2857 5.40319 10.2857C6.39242 10.2857 7.23382 9.63213 7.53334 8.72745H18.4276C18.8226 8.72745 19.1428 8.40176 19.1428 8.00003C19.1428 7.5983 18.8226 7.2726 18.4276 7.2726H7.53334C7.23382 6.36793 6.39237 5.71431 5.40314 5.71431C4.41391 5.71431 3.57246 6.36793 3.27295 7.2726H1.5724C1.17737 7.2726 0.857117 7.5983 0.857117 8.00003C0.857117 8.40176 1.17737 8.72745 1.57244 8.72745ZM5.40314 7.16916C5.85362 7.16916 6.22013 7.5419 6.22013 8.00003C6.22013 8.45816 5.85362 8.83089 5.40314 8.83089C4.95266 8.83089 4.58615 8.45816 4.58615 8.00003C4.58615 7.5419 4.95266 7.16916 5.40314 7.16916Z" fill="black"/>
<path fill-rule="evenodd" clip-rule="evenodd" d="M9.40207 3.01326H1.57244C1.17737 3.01326 0.857117 2.68757 0.857117 2.28584C0.857117 1.8841 1.17737 1.55841 1.5724 1.55841H9.40207C9.70158 0.653737 10.543 0.00012207 11.5323 0.00012207C12.5215 0.00012207 13.363 0.653737 13.6625 1.55841H18.4276C18.8226 1.55841 19.1428 1.8841 19.1428 2.28584C19.1428 2.68757 18.8226 3.01326 18.4276 3.01326H13.6625C13.363 3.91794 12.5215 4.57155 11.5323 4.57155C10.543 4.57155 9.70158 3.91794 9.40207 3.01326ZM12.3493 2.28579C12.3493 1.82765 11.9827 1.45492 11.5323 1.45492C11.0818 1.45492 10.7153 1.8277 10.7153 2.28584C10.7153 2.74397 11.0818 3.11665 11.5323 3.11665C11.9827 3.11665 12.3493 2.74392 12.3493 2.28579Z" fill="black"/>
</svg>
