<svg width="20" height="20" viewBox="0 0 20 20" fill="none" xmlns="http://www.w3.org/2000/svg">
<path d="M14 10C14 12.2091 12.2091 14 10 14C7.79086 14 6 12.2091 6 10C6 7.79086 7.79086 6 10 6C12.2091 6 14 7.79086 14 10Z" fill="black"/>
<path fill-rule="evenodd" clip-rule="evenodd" d="M9 1C9 0.447715 9.44771 0 10 0C10.5523 0 11 0.447715 11 1V2.06189C14.6187 2.51314 17.4869 5.38128 17.9381 9H19C19.5523 9 20 9.44771 20 10C20 10.5523 19.5523 11 19 11H17.9381C17.4869 14.6187 14.6187 17.4869 11 17.9381V19C11 19.5523 10.5523 20 10 20C9.44772 20 9 19.5523 9 19V17.9381C5.38128 17.4869 2.51314 14.6187 2.06189 11H1C0.447715 11 0 10.5523 0 10C0 9.44772 0.447715 9 1 9H2.06189C2.51314 5.38128 5.38128 2.51314 9 2.06189V1ZM16 10C16 13.3137 13.3137 16 10 16C6.68629 16 4 13.3137 4 10C4 6.68629 6.68629 4 10 4C13.3137 4 16 6.68629 16 10Z" fill="black"/>
</svg>
