<svg width="20" height="20" viewBox="0 0 20 20" fill="none" xmlns="http://www.w3.org/2000/svg">
<path d="M10 12C11.1046 12 12 11.1046 12 10C12 8.89543 11.1046 8 10 8C8.89543 8 8 8.89543 8 10C8 11.1046 8.89543 12 10 12Z" fill="black"/>
<path fill-rule="evenodd" clip-rule="evenodd" d="M9.25 1C9.25 0.585786 9.58579 0.25 10 0.25C10.4142 0.25 10.75 0.585787 10.75 1V2.33599C14.4039 2.68918 17.3108 5.59611 17.6639 9.25H19C19.4142 9.25 19.75 9.58579 19.75 10C19.75 10.4142 19.4142 10.75 19 10.75H17.6639C17.3107 14.4038 14.4038 17.3107 10.75 17.6639V19C10.75 19.4142 10.4142 19.75 10 19.75C9.58579 19.75 9.25 19.4142 9.25 19V17.6639C5.59616 17.3107 2.68928 14.4038 2.33605 10.75H1C0.585786 10.75 0.25 10.4142 0.25 10C0.25 9.58579 0.585787 9.25 1 9.25H2.33604C2.6892 5.5961 5.59611 2.68917 9.25 2.33599V1ZM9.99999 3.69993C6.52059 3.69993 3.69999 6.52053 3.69999 9.99993C3.69999 13.4793 6.52059 16.2999 9.99999 16.2999C13.4794 16.2999 16.3 13.4793 16.3 9.99993C16.3 6.52053 13.4794 3.69993 9.99999 3.69993Z" fill="black"/>
</svg>
