<svg width="16" height="20" viewBox="0 0 16 20" fill="none" xmlns="http://www.w3.org/2000/svg">
<path d="M15.8678 8.38651C15.942 7.91691 15.9883 7.402 16 6.82462C15.9955 4.34889 14.8099 3.47285 14.5817 3.06217C14.9177 1.18633 14.5261 0.33307 14.3439 0.0409763C13.6721 -0.197379 12.0065 0.656171 11.0965 1.25703C9.61271 0.822903 6.47709 0.865275 5.3012 1.3694C3.13161 -0.183422 1.9841 0.0533454 1.9841 0.0533454C1.9841 0.0533454 1.24225 1.38302 1.78799 3.32827C1.07414 4.23752 0.542069 4.88038 0.542069 6.58556C0.542069 6.99395 0.567445 7.37985 0.610506 7.75114C1.22527 10.9821 3.78655 12.3759 6.30247 12.6163C5.92387 12.9038 5.46935 13.448 5.40647 14.0785C4.93075 14.3859 3.97384 14.4876 3.22973 14.2537C2.18711 13.9244 1.78799 11.8607 0.226638 12.1551C-0.1112 12.2183 -0.044059 12.441 0.248503 12.6309C0.724178 12.9393 1.17218 13.3227 1.5175 14.143C1.78272 14.7728 2.34054 15.8973 4.1042 15.8973C4.80433 15.8973 5.29472 15.8146 5.29472 15.8146C5.29472 15.8146 5.30806 17.4195 5.30806 18.0454C5.30806 18.7658 4.33547 18.968 4.33547 19.3136C4.33547 19.451 4.65738 19.4641 4.91608 19.4641C5.42733 19.4641 6.49106 19.0384 6.49106 18.2897C6.49106 17.6948 6.50055 15.6955 6.50055 15.3454C6.50055 14.5804 6.91071 14.3368 6.91071 14.3368C6.91071 14.3368 6.96092 18.4206 6.81201 18.9681C6.63738 19.6119 6.32103 19.5204 6.32103 19.807C6.32103 20.2346 7.59985 19.9115 8.02402 18.9755C8.35216 18.2445 8.20521 14.2397 8.20521 14.2397L8.54731 14.2323C8.54731 14.2323 8.55124 16.0664 8.53945 16.9043C8.52712 17.7722 8.43753 18.8694 8.95325 19.3872C9.29176 19.7278 10.3288 20.3254 10.3288 19.7793C10.3288 19.4628 9.60259 19.2012 9.60259 18.3438V14.3937C10.0438 14.3937 10.135 15.6921 10.135 15.6921L10.294 18.1044C10.294 18.1044 10.1884 18.9846 11.2453 19.352C11.6185 19.4826 12.4167 19.5181 12.4541 19.2988C12.4916 19.079 11.493 18.754 11.4835 18.0727C11.4783 17.6578 11.5021 17.4149 11.5021 15.61C11.5021 13.8061 11.2596 13.1388 10.4148 12.607C12.8647 12.3557 15.4094 11.2621 15.8678 8.38651Z" fill="currentColor"/>
</svg>
