<svg width="16" height="20" viewBox="0 0 16 20" fill="none" xmlns="http://www.w3.org/2000/svg">
<path fill-rule="evenodd" clip-rule="evenodd" d="M11.806 12.3663C13.756 11.8761 15.4964 10.716 15.8678 8.38651C15.942 7.91691 15.9883 7.402 16 6.82462C15.9964 4.81398 15.2137 3.85846 14.7975 3.35041C14.7012 3.23289 14.6246 3.13932 14.5817 3.06217C14.9177 1.18633 14.5261 0.33307 14.3439 0.0409763C13.6721 -0.197379 12.0065 0.656171 11.0965 1.25703C9.61271 0.822903 6.47709 0.865275 5.3012 1.3694C3.13161 -0.183422 1.9841 0.0533454 1.9841 0.0533454C1.9841 0.0533454 1.24225 1.38302 1.78799 3.32827C1.77389 3.34622 1.75987 3.36407 1.74592 3.38183C1.05334 4.26332 0.542069 4.91405 0.542069 6.58556C0.542069 6.99395 0.567445 7.37985 0.610506 7.75114C1.11766 10.4165 2.94953 11.8317 4.98782 12.3804C5.4203 12.4968 5.86208 12.5742 6.30247 12.6163C6.01926 12.8314 5.69356 13.1901 5.5211 13.6211C5.46302 13.7663 5.42231 13.9196 5.40647 14.0785C4.93075 14.3859 3.97384 14.4876 3.22973 14.2537C2.97193 14.1723 2.75348 13.9848 2.54707 13.7532C2.53769 13.7427 2.52834 13.7321 2.51902 13.7214C2.40216 13.5874 2.28871 13.4399 2.17382 13.2905C1.8604 12.8829 1.53558 12.4605 1.09727 12.2547C0.939545 12.1807 0.767128 12.1347 0.575258 12.1275C0.465793 12.1234 0.349648 12.1319 0.226638 12.1551C-0.1112 12.2183 -0.044059 12.441 0.248503 12.6309C0.274109 12.6475 0.299634 12.6643 0.325067 12.6814L0.325989 12.682C0.483438 12.7879 0.63736 12.9043 0.784977 13.0446C1.05616 13.3023 1.30608 13.6407 1.5175 14.143C1.54445 14.207 1.57443 14.2761 1.60838 14.3486C1.90855 14.9898 2.51978 15.8973 4.1042 15.8973C4.135 15.8973 4.16539 15.8971 4.19536 15.8968C4.84653 15.8902 5.29472 15.8146 5.29472 15.8146C5.29472 15.8146 5.29918 16.3509 5.30294 16.9244C5.30568 17.343 5.30806 17.7813 5.30806 18.0454C5.30806 18.1154 5.29886 18.1806 5.28227 18.2414C5.24868 18.3646 5.18475 18.4702 5.1053 18.5632C5.04837 18.6299 4.98348 18.6901 4.91608 18.7458C4.84159 18.8073 4.76403 18.8632 4.69076 18.916C4.49833 19.0548 4.33547 19.1722 4.33547 19.3136C4.33547 19.451 4.65738 19.4641 4.91608 19.4641C5.01848 19.4641 5.14304 19.447 5.27678 19.4137C5.32805 19.4009 5.38068 19.3857 5.43391 19.3682C5.69321 19.283 5.79711 19.0938 6.00115 18.9028C6.04341 18.8632 6.08268 18.8215 6.11819 18.7777C6.24248 18.6242 6.32103 18.4445 6.32103 18.2414C6.32103 17.9048 6.32407 17.1184 6.32671 16.4357C6.32873 15.9119 6.37669 15.494 6.37723 15.3394C6.37723 14.5744 6.91071 14.3368 6.91071 14.3368C6.91071 14.3368 7.06373 14.7439 7.06584 15.3325C7.069 16.2174 7.10443 17.4479 7.06584 18.2414C7.05728 18.4173 7.04702 18.57 7.03473 18.6902C7.02635 18.7722 7.01702 18.8391 7.00666 18.8879C7.00417 18.8995 7.00164 18.9102 6.99904 18.9198C6.90018 19.2843 6.56885 19.4614 6.46226 19.5566C6.38057 19.6295 6.32103 19.6827 6.32103 19.807C6.32103 19.9399 6.4446 20.0003 6.62765 19.9923C6.79263 19.9851 7.00593 19.9223 7.22063 19.807C7.28512 19.7724 7.34973 19.733 7.4132 19.689C7.51323 19.6196 7.61042 19.5386 7.69979 19.4464C7.75756 19.3868 7.81206 19.3225 7.86195 19.2536C7.86834 19.2448 7.87516 19.2352 7.8814 19.2262C7.93547 19.1483 7.98362 19.0647 8.02402 18.9755C8.15991 18.6728 8.0069 17.813 8.02402 16.9043C8.03421 16.3636 8.05741 15.8027 8.05049 15.3394C8.04095 14.7012 8.20521 14.2397 8.20521 14.2397L8.54731 14.2323C8.54731 14.2323 8.54744 14.2916 8.54758 14.3937C8.54785 14.5886 8.64764 14.8857 8.64721 15.2785C8.6466 15.8243 8.64456 16.4506 8.63893 16.8503C8.6376 16.9444 8.63535 17.0411 8.63307 17.1395C8.6243 17.5178 8.61495 17.9207 8.65439 18.2897C8.69935 18.7105 8.70827 19.1412 8.95325 19.3872C8.95649 19.3905 8.95979 19.3938 8.96315 19.3971C8.96572 19.3996 8.96832 19.4021 8.97096 19.4047C8.98548 19.4187 9.00108 19.433 9.01764 19.4477C9.08137 19.5042 9.15941 19.5648 9.24537 19.6246C9.32245 19.6781 9.40589 19.7309 9.49108 19.7793C9.72196 19.9103 9.96566 20.0084 10.1303 19.9994C10.2507 19.9929 10.3288 19.9292 10.3288 19.7793C10.3288 19.6597 10.2251 19.5479 10.096 19.4088C9.98756 19.292 9.86121 19.1558 9.76351 18.9795C9.71677 18.8952 9.67658 18.8016 9.64807 18.6966L9.64777 18.6955C9.61935 18.5905 9.60259 18.474 9.60259 18.3438V14.3937C9.61801 14.3937 9.633 14.3953 9.64757 14.3983C10.05 14.4828 10.3054 15.61 10.3054 15.61L10.4148 18.0454C10.4148 18.0454 10.4032 18.1421 10.4262 18.2848C10.4547 18.4619 10.5365 18.7097 10.7597 18.9314C10.8993 19.0701 10.9734 19.2575 11.2453 19.352C11.28 19.3641 11.3183 19.3754 11.3594 19.3858C11.3627 19.3866 11.366 19.3874 11.3693 19.3883C11.771 19.4871 12.4204 19.4961 12.4541 19.2988C12.4682 19.2159 12.335 19.1181 12.163 18.9917C12.0029 18.8742 11.8092 18.7319 11.6697 18.5542C11.634 18.5088 11.6019 18.4611 11.5748 18.4109L11.5733 18.4082C11.5508 18.3661 11.5317 18.3223 11.5171 18.2766C11.4965 18.2124 11.4845 18.1445 11.4835 18.0727C11.4815 17.9126 11.4838 17.778 11.4874 17.5694C11.4931 17.2376 11.5021 16.7182 11.5021 15.61C11.5021 14.688 11.4387 14.0629 11.264 13.6011C11.0969 13.1594 10.8278 12.867 10.4148 12.607C10.8801 12.5593 11.3488 12.4812 11.806 12.3663ZM8.38127 11.7099L6.40708 11.5213C4.21473 11.3118 2.20549 10.1551 1.69859 7.58411C1.66277 7.26353 1.64207 6.93319 1.64207 6.58556C1.64207 5.85565 1.75431 5.43043 1.89824 5.11473C2.05562 4.76949 2.27647 4.4874 2.6532 4.00754L2.99786 3.56853L2.8471 3.03113C2.63936 2.29069 2.66764 1.67654 2.74658 1.24637C3.16303 1.37264 3.80434 1.65078 4.66099 2.2639L5.16499 2.62462L5.73464 2.38041C6.1117 2.21875 7.00347 2.08025 8.10244 2.06121C9.17407 2.04264 10.2011 2.14117 10.7876 2.31277L11.277 2.45597L11.7026 2.175C12.1119 1.90476 12.6959 1.57578 13.2366 1.34803C13.3617 1.29533 13.4777 1.25092 13.5833 1.21481C13.6305 1.56864 13.6362 2.10177 13.4989 2.86822L13.4299 3.25386L13.6201 3.59634C13.6968 3.73429 13.7909 3.85443 13.8477 3.92574C13.8644 3.94666 13.9163 4.01034 13.9627 4.06725C13.998 4.11066 14.0302 4.15012 14.0411 4.16366C14.1653 4.31845 14.2941 4.49118 14.4155 4.70747C14.6493 5.12392 14.8962 5.7741 14.9 6.81474C14.8888 7.34085 14.8466 7.80149 14.7813 8.2144C14.445 10.3208 12.6042 11.2767 10.3026 11.5128L8.38127 11.7099Z" fill="black"/>
</svg>
