<svg width="20" height="14" viewBox="0 0 20 14" fill="none" xmlns="http://www.w3.org/2000/svg">
<path d="M0.71767 7.68635C0.321296 7.68635 0 7.37903 0 6.99988C0 6.62074 0.321296 6.31341 0.71767 6.31341H19.2823C19.6787 6.31341 20 6.62074 20 6.99988C20 7.37903 19.6787 7.68635 19.2823 7.68635H0.71767ZM0.71767 14C0.321296 14 0 13.6927 0 13.3135C0 12.9344 0.321296 12.6275 0.71767 12.6275H19.2823C19.6787 12.6275 20 12.9344 20 13.3135C20 13.6927 19.6787 14 19.2823 14H0.71767ZM0.71767 1.37247C0.321296 1.37247 0 1.06561 0 0.686472C0 0.307329 0.321296 0 0.71767 0H19.2823C19.6787 0 20 0.307329 20 0.686472C20 1.06561 19.6787 1.37247 19.2823 1.37247H0.71767Z" fill="currentColor"/>
</svg>
