<svg width="18" height="15" viewBox="0 0 18 15" fill="none" xmlns="http://www.w3.org/2000/svg">
<path d="M0 1.5C0 0.671573 0.671573 0 1.5 0H16.5C17.3284 0 18 0.671573 18 1.5C18 2.32843 17.3284 3 16.5 3H1.5C0.671573 3 0 2.32843 0 1.5Z" fill="black"/>
<path d="M0 7.5C0 6.67157 0.671573 6 1.5 6H16.5C17.3284 6 18 6.67157 18 7.5C18 8.32843 17.3284 9 16.5 9H1.5C0.671573 9 0 8.32843 0 7.5Z" fill="black"/>
<path d="M1.5 12C0.671573 12 0 12.6716 0 13.5C0 14.3284 0.671573 15 1.5 15H16.5C17.3284 15 18 14.3284 18 13.5C18 12.6716 17.3284 12 16.5 12H1.5Z" fill="black"/>
</svg>
