<svg width="20" height="12" viewBox="0 0 20 12" fill="none" xmlns="http://www.w3.org/2000/svg">
<path d="M9.98991 5.0351C6.94115 5.0351 5.53131 3.63638 3.43666 1.50641C2.59963 0.655274 1.36812 0.449391 0.543385 1.15193C0.00966567 1.69542 -0.349946 2.68118 0.543398 3.71693C0.951477 4.19005 1.0639 4.31808 1.48706 4.74024L0.78011 5.4631C0.526691 5.71648 0.419496 6.03709 0.453991 6.35496C0.486744 6.65676 0.641633 6.91584 0.837074 7.09793C1.03303 7.2805 1.30197 7.41595 1.60485 7.43116C1.92144 7.44706 2.23643 7.3285 2.48412 7.06939L3.24159 6.29526C3.75284 6.69216 4.27472 7.04878 4.80764 7.36107L4.2253 8.39615C4.0461 8.70648 4.02554 9.04391 4.14112 9.34202C4.25087 9.62506 4.46754 9.83523 4.70345 9.96053C4.93998 10.0862 5.23481 10.1474 5.53131 10.0837C5.84123 10.0171 6.1148 9.82106 6.28698 9.50667L6.94115 8.34462C7.6171 8.5733 8.30976 8.73024 9.01982 8.80838L9.03471 10.1471C9.03469 10.5055 9.1856 10.808 9.43475 11.0084C9.67132 11.1986 9.96404 11.2723 10.231 11.2629C10.4987 11.2534 10.7846 11.159 11.0095 10.9556C11.2446 10.743 11.3835 10.4364 11.3754 10.0781L11.3611 8.75938C11.9769 8.66053 12.6007 8.49424 13.2246 8.26683L13.9888 9.55705C14.168 9.86741 14.4499 10.0539 14.7659 10.1029C15.0659 10.1494 15.3562 10.0668 15.5827 9.92515C15.8097 9.78313 16.0102 9.55841 16.1033 9.26978C16.2006 8.96809 16.1676 8.63315 15.9814 8.32684L15.3492 7.25883C15.8525 6.96466 16.3498 6.63425 16.8365 6.27107L17.6603 7.07668C17.9136 7.3301 18.2343 7.4373 18.5521 7.4028C18.8539 7.37005 19.113 7.21516 19.2951 7.01972C19.4777 6.82376 19.6131 6.55482 19.6283 6.25194C19.6442 5.93535 19.5257 5.62036 19.2666 5.37268L18.6236 4.74359C18.9602 4.41652 19.288 4.07381 19.6051 3.71691C20.1085 3.15036 20.2618 1.53959 19.2666 1.00235C18.0555 0.34861 16.9921 1.03381 16.5432 1.50638C14.3285 3.88909 13.2933 5.0351 9.98991 5.0351Z" fill="black"/>
</svg>
