<svg width="20" height="8" viewBox="0 0 20 8" fill="none" xmlns="http://www.w3.org/2000/svg">
<path d="M1.97605 1.00131L1.97897 1.00311L1.98838 1.00887L2.02614 1.03174C2.05957 1.05187 2.10927 1.08152 2.17393 1.11934C2.30326 1.19498 2.49235 1.30326 2.73058 1.4333C3.20717 1.69344 3.8798 2.04033 4.66359 2.38713C6.23577 3.08275 8.23703 3.7697 9.9967 3.7697C11.7564 3.7697 13.7576 3.08275 15.3298 2.38713C16.1136 2.04033 16.7862 1.69345 17.2628 1.4333C17.501 1.30326 17.6901 1.19498 17.8195 1.11934C17.8841 1.08152 17.9338 1.05187 17.9672 1.03174L18.005 1.00887L18.0144 1.00311L18.0167 1.00171L18.0283 0.994537C18.4518 0.780489 18.8101 0.811614 19.0114 1.03725C19.2045 1.25362 19.1905 1.58669 19.0028 1.82666C18.9829 1.85213 18.948 1.88478 18.9108 1.91751C18.87 1.9534 18.8158 1.99853 18.7491 2.05135C18.6156 2.15709 18.4297 2.29556 18.1967 2.45521C17.9948 2.59357 17.7573 2.7481 17.4874 2.91126L18.5245 4.70755C18.7316 5.06627 18.6087 5.52496 18.25 5.73207C17.8913 5.93917 17.4326 5.81627 17.2255 5.45755L16.1695 3.6286C15.6717 3.87142 15.1187 4.11066 14.5204 4.32496L15.09 6.451C15.1972 6.8511 14.9598 7.26235 14.5597 7.36956C14.1596 7.47677 13.7483 7.23933 13.6411 6.83923L13.0841 4.76039C12.4241 4.92415 11.7262 5.04698 11 5.10769V7.25002C11 7.66423 10.6642 8.00002 10.25 8.00002C9.83578 8.00002 9.49999 7.66423 9.49999 7.25002V5.13959C8.69742 5.10611 7.9256 4.99348 7.19684 4.82887L6.60772 7.02751C6.50051 7.42761 6.08926 7.66504 5.68916 7.55784C5.28906 7.45063 5.05162 7.03938 5.15883 6.63928L5.75281 4.42251C5.01622 4.17447 4.34319 3.88552 3.75059 3.59289L2.67403 5.45755C2.46692 5.81627 2.00823 5.93917 1.64951 5.73207C1.29079 5.52496 1.16788 5.06627 1.37499 4.70755L2.43641 2.86911C2.19507 2.72149 1.98088 2.5816 1.79646 2.45521C1.56351 2.29556 1.37756 2.15711 1.24397 2.05138C1.17724 1.99857 1.12299 1.95346 1.08216 1.91759C1.04485 1.88481 1.01009 1.85234 0.990222 1.82715C0.809916 1.59851 0.797105 1.28205 0.988923 1.07195C1.18392 0.858372 1.53116 0.814518 1.9547 0.99037L1.96581 0.994983L1.97605 1.00131Z" fill="currentColor"/>
</svg>
