<svg width="18" height="20" viewBox="0 0 18 20" fill="none" xmlns="http://www.w3.org/2000/svg">
<path d="M17.4375 18.0831V9.00002C17.4375 8.91124 17.4393 8.82702 17.4411 8.74602C17.4538 8.16491 17.4629 7.74922 16.7606 7.00002L11.0439 0.901689C9.9169 -0.300563 8.08302 -0.300563 6.95599 0.901689L1.23929 7.00002C0.5625 7.80699 0.5625 8.18373 0.5625 8.60769V18.0831C0.5625 19.1401 1.3686 20 2.35938 20H6.5V14C6.5 13.4477 6.94772 13 7.5 13H10.5C11.0523 13 11.5 13.4477 11.5 14V20H15.6406C16.6314 20 17.4375 19.1401 17.4375 18.0831Z" fill="currentColor"/>
</svg>
