<svg width="18" height="20" viewBox="0 0 18 20" fill="none" xmlns="http://www.w3.org/2000/svg">
<path fill-rule="evenodd" clip-rule="evenodd" d="M17.44 8.12015C17.44 7.8661 17.3433 7.62157 17.1696 7.43623L11.0439 0.901689C9.9169 -0.300563 8.08304 -0.300563 6.95602 0.901689L0.830433 7.43617C0.656688 7.62151 0.559998 7.86603 0.559998 8.12008V9.61038L0.562503 9.6077V18.0831C0.562503 19.1401 1.3686 19.9999 2.35938 19.9999H6.49121L6.49997 20H11.5L11.5087 19.9999H15.6406C16.6314 19.9999 17.4375 19.14 17.4375 18.0831V9.60771L17.44 9.6104V8.12015ZM10.875 18.6665H7.12497V13.4162C7.12497 13.0026 7.4404 12.6662 7.8281 12.6662H10.1719C10.5595 12.6662 10.875 13.0026 10.875 13.4162V18.6665ZM12.125 18.6665V13.4162C12.125 12.2674 11.2488 11.3327 10.1719 11.3327H7.8281C6.75115 11.3327 5.87497 12.2674 5.87497 13.4162V18.6665H2.35938C2.05781 18.6665 1.8125 18.4048 1.8125 18.0831V8.27427L7.83988 1.84459C8.47956 1.16221 9.52038 1.16221 10.16 1.84459L16.1875 8.27429V18.0831C16.1875 18.4048 15.9422 18.6665 15.6406 18.6665H12.125Z" fill="black"/>
</svg>
