<svg width="6" height="21" viewBox="0 0 6 21" fill="none" xmlns="http://www.w3.org/2000/svg">
<path d="M2.90748 1.5311C2.78864 2.21115 3.24359 2.85878 3.92364 2.97762C4.60369 3.09646 5.25132 2.64152 5.37016 1.96147L5.45623 1.46893C5.57508 0.788882 5.12013 0.141251 4.44008 0.0224079C3.76003 -0.0964354 3.1124 0.358513 2.99356 1.03856L2.90748 1.5311Z" fill="currentColor"/>
<path d="M0.699271 16.7973C0.508103 17.6963 0.281507 18.7619 0.931933 19.5C1.93188 20.5 4.21102 19.9212 4.43191 19C2.93191 19 2.43191 18.5 2.93191 16C2.93191 16 3.60978 10.4805 4.22949 6.50004C4.32362 5.89541 4.17693 5.45731 3.66879 5.37229C3.05293 5.26924 2.57891 5.64281 2.30413 6.13319L0.759417 16.5096C0.740582 16.6031 0.720137 16.6992 0.699271 16.7973Z" fill="currentColor"/>
</svg>
