<svg width="20" height="20" viewBox="0 0 20 20" fill="none" xmlns="http://www.w3.org/2000/svg">
<path fill-rule="evenodd" clip-rule="evenodd" d="M9.99958 0C4.47746 0 0 4.47746 0 9.99958C0 15.5217 4.47746 20 9.99958 20C15.5217 20 20 15.5217 20 9.99958C20 4.47746 15.5217 0 9.99958 0ZM12.2754 3.72726C11.902 3.37509 11.4456 3.19995 10.9266 3.19995C10.4083 3.19995 9.95085 3.37507 9.57444 3.72611C9.20115 4.07612 9.00121 4.51304 9.00121 5.01771C9.00121 5.52281 9.19936 5.9591 9.57515 6.30728C9.95143 6.65397 10.409 6.82829 10.9266 6.82829C11.4452 6.82829 11.8999 6.65437 12.2738 6.30699C12.649 5.95831 12.8447 5.52284 12.8447 5.01771C12.8447 4.51466 12.6493 4.07814 12.2754 3.72726ZM12.4811 15.9108C12.4579 16.0052 12.3903 16.0826 12.2999 16.1183L12.2104 16.1536C11.6454 16.3772 10.936 16.6578 10.2271 16.7676C9.47481 16.8841 8.6695 16.8165 8.01649 16.242C7.53995 15.8227 7.34693 15.2837 7.31708 14.7124C7.28777 14.1513 7.41458 13.5476 7.58303 12.9654C7.68845 12.601 7.81717 12.2237 7.94005 11.8635C8.01125 11.6548 8.08049 11.4519 8.14212 11.2605C8.31686 10.7177 8.43553 10.2541 8.43553 9.88744C8.43553 9.67895 8.37666 9.57609 8.31848 9.51935C8.25428 9.45676 8.14868 9.40935 7.98808 9.39184C7.65864 9.3559 7.22788 9.46013 6.90745 9.58303C6.80332 9.62297 6.68563 9.60185 6.60189 9.52821C6.51815 9.45456 6.48217 9.34053 6.50848 9.23216L6.68867 8.48987C6.7114 8.39623 6.77773 8.3192 6.86696 8.28283C7.5462 8.00595 8.7142 7.63303 9.7316 7.65617C10.2414 7.66777 10.7539 7.77955 11.1433 8.09462C11.5453 8.41994 11.768 8.92217 11.768 9.60684C11.768 10.4115 11.573 11.166 11.3543 11.8843C11.3046 12.0474 11.2541 12.2079 11.204 12.3667C11.03 12.9188 10.8622 13.4512 10.7619 14.0026C10.652 14.6203 10.8297 14.8751 11.0213 14.974C11.2565 15.0954 11.6838 15.0853 12.2458 14.8255C12.3504 14.7772 12.4735 14.793 12.5625 14.8663C12.6514 14.9396 12.6905 15.0574 12.663 15.1694L12.4811 15.9108Z" fill="black"/>
</svg>
