<svg width="17" height="21" viewBox="0 0 17 21" fill="none" xmlns="http://www.w3.org/2000/svg">
<path fill-rule="evenodd" clip-rule="evenodd" d="M4.01315 6.0797C4.01315 3.24982 6.00943 0.949951 8.92829 0.949951C11.8464 0.949951 13.8869 3.20484 13.8869 6.0797V8.41534H14.3973L14.4462 8.4151C15.8195 8.4151 16.95 9.54115 16.95 10.9386V18.4043C16.9278 19.8223 15.8205 20.95 14.4462 20.95H3.45381C2.05917 20.9274 0.950012 19.8016 0.950012 18.4043V10.9389C0.972228 9.52101 2.07951 8.39333 3.45381 8.39333H4.01315V6.0797ZM8.92821 3.28628C6.74285 3.28628 6.32757 4.98322 6.32757 7.0797V8.39318L11.5723 8.39333V7.0797C11.5723 4.94044 11.0932 3.28628 8.92821 3.28628ZM8.99871 11.001C10.0832 10.966 10.9592 11.8349 10.9985 12.9557L11 13.0344C11 13.7802 10.6234 14.4222 10.0387 14.7893V17.9563C10.0387 18.5601 9.55582 19.0123 9 19.0123C8.40611 19.0123 7.96133 18.5214 7.96133 17.9563V14.7893C7.37657 14.4222 7 13.7802 7 13.0344C7 11.9093 7.8923 11.0017 8.99871 11.001Z" fill="currentColor"/>
</svg>
