<svg width="17" height="21" viewBox="0 0 17 21" fill="none" xmlns="http://www.w3.org/2000/svg">
<path d="M10.2145 13.3849C10.1897 12.6757 9.63539 12.1259 8.94918 12.1481C8.2491 12.1485 7.68451 12.7228 7.68451 13.4347C7.68451 13.9066 7.92278 14.3128 8.29278 14.5451V16.549C8.29278 16.9066 8.57421 17.2172 8.94999 17.2172C9.30168 17.2172 9.6072 16.931 9.6072 16.549V14.5451C9.97722 14.3128 10.2155 13.9066 10.2155 13.4347L10.2145 13.3849Z" fill="currentColor"/>
<path fill-rule="evenodd" clip-rule="evenodd" d="M4.01315 6.0797C4.01315 3.24982 6.00943 0.949951 8.92829 0.949951C11.8464 0.949951 13.8869 3.20484 13.8869 6.0797V8.41534H14.3973L14.4462 8.4151C15.8195 8.4151 16.95 9.54115 16.95 10.9386V18.4043C16.9278 19.8223 15.8205 20.95 14.4462 20.95H3.45381C2.05917 20.9274 0.950012 19.8016 0.950012 18.4043V10.9389C0.972228 9.52101 2.07951 8.39333 3.45381 8.39333H4.01315V6.0797ZM8.92821 2.28628C6.74285 2.28628 5.32757 3.98322 5.32757 6.0797V8.39318L12.5723 8.39333V6.0797C12.5723 3.94044 11.0932 2.28628 8.92821 2.28628ZM3.45385 9.75175C2.80747 9.75175 2.28627 10.2817 2.28627 10.9388V18.4042C2.28627 19.0614 2.80747 19.5913 3.45385 19.5913H14.4463C15.0926 19.5913 15.6138 19.0614 15.6138 18.4042V10.9388C15.6138 10.2817 15.0926 9.75175 14.4463 9.75175H3.45385Z" fill="currentColor"/>
</svg>
