<svg width="20" height="20" viewBox="0 0 20 20" fill="none" xmlns="http://www.w3.org/2000/svg">
<path fill-rule="evenodd" clip-rule="evenodd" d="M2.06745 0H17.9318C19.0723 0 19.9993 0.94336 19.9999 2.10301L20 12.7641C20 13.9238 19.0726 14.8673 17.9326 14.8673H16.6733V18.2009C16.6733 18.9853 15.8115 19.4643 15.1454 19.0502L8.41606 14.8673H2.06745C0.926853 14.8673 0 13.9238 0 12.7641V2.10301C0 0.94336 0.926853 0 2.06745 0ZM6.59999 7.4C6.59999 8.44934 5.74933 9.3 4.69999 9.3C3.65065 9.3 2.79999 8.44934 2.79999 7.4C2.79999 6.35066 3.65065 5.5 4.69999 5.5C5.74933 5.5 6.59999 6.35066 6.59999 7.4ZM11.8941 7.4C11.8941 8.44934 11.0434 9.3 9.99411 9.3C8.94476 9.3 8.0941 8.44934 8.0941 7.4C8.0941 6.35066 8.94476 5.5 9.99411 5.5C11.0434 5.5 11.8941 6.35066 11.8941 7.4ZM17.1882 7.4C17.1882 8.44934 16.3376 9.3 15.2882 9.3C14.2389 9.3 13.3882 8.44934 13.3882 7.4C13.3882 6.35066 14.2389 5.5 15.2882 5.5C16.3376 5.5 17.1882 6.35066 17.1882 7.4Z" fill="currentColor"/>
</svg>
