<svg width="20" height="20" viewBox="0 0 20 20" fill="none" xmlns="http://www.w3.org/2000/svg">
<path d="M6 9C6.55228 9 7 8.55229 7 8C7 7.44772 6.55228 7 6 7C5.44772 7 5 7.44772 5 8C5 8.55229 5.44772 9 6 9Z" fill="currentColor"/>
<path d="M11 8C11 8.55229 10.5523 9 10 9C9.44771 9 9 8.55229 9 8C9 7.44772 9.44771 7 10 7C10.5523 7 11 7.44772 11 8Z" fill="currentColor"/>
<path d="M14 9C14.5523 9 15 8.55229 15 8C15 7.44772 14.5523 7 14 7C13.4477 7 13 7.44772 13 8C13 8.55229 13.4477 9 14 9Z" fill="currentColor"/>
<path fill-rule="evenodd" clip-rule="evenodd" d="M2.8607 0.699951C1.49308 0.699951 0.399994 1.8274 0.399994 3.19266V12.7876C0.399994 14.1529 1.49303 15.2805 2.8607 15.2805H8.40317L14.1613 18.8598C15.2271 19.5223 16.606 18.7558 16.606 17.5009V15.2805H17.1393C18.5063 15.2805 19.6 14.153 19.6 12.7876L19.5999 3.19237C19.5992 1.82735 18.5062 0.699951 17.1386 0.699951H2.8607ZM1.59999 3.19266C1.59999 2.47055 2.17524 1.89995 2.8607 1.89995H17.1386C17.824 1.89995 18.3995 2.4706 18.3999 3.19295L18.4 12.7876C18.4 13.5097 17.8243 14.0805 17.1393 14.0805H15.406V17.5009C15.406 17.8146 15.0612 18.0062 14.7948 17.8406L8.74574 14.0805H2.8607C2.17529 14.0805 1.59999 13.5098 1.59999 12.7876V3.19266Z" fill="currentColor"/>
</svg>
