<svg width="20" height="20" viewBox="0 0 20 20" fill="none" xmlns="http://www.w3.org/2000/svg">
<path fill-rule="evenodd" clip-rule="evenodd" d="M13.488 0.0656723C12.9989 -0.0669616 12.4869 0.00281504 12.0492 0.261334L3.39676 5.37414H1.91045C0.856719 5.37414 0 6.24365 0 7.31322V18.0609C0 19.1304 0.856674 20 1.91045 20H16.9116C17.9653 20 18.822 19.1305 18.822 18.0609V15.3918C19.7044 15.3918 20 14.9998 20 14.0305V11.3436C20 10.4998 19.7044 9.98239 18.822 9.98239V7.31322C18.822 6.32223 18.0849 5.51304 17.1412 5.39698L14.6444 0.970627C14.3904 0.521252 13.9794 0.199219 13.488 0.0656723ZM12.6402 2.29063C12.9322 2.11718 13.3253 2.18821 13.543 2.44406L15.2709 5.37414H6.89655L12.6402 2.29063ZM13.5275 12.6871C13.5275 11.7808 14.2538 11.0436 15.1467 11.0436H18.2352C18.3982 11.0436 18.5308 11.1781 18.5308 11.3436V14.0305C18.5308 14.196 18.3983 14.3306 18.2352 14.3306H15.1467C14.2538 14.3306 13.5275 13.5934 13.5275 12.6871Z" fill="currentColor"/>
</svg>
