<svg width="20" height="20" viewBox="0 0 20 20" fill="none" xmlns="http://www.w3.org/2000/svg">
<path d="M2.16715 0.897024C2.12211 0.945168 2.04601 1.04573 1.99515 1.11484C1.04974 2.36853 -0.0800943 4.29584 0.00454623 6.15599C0.148202 9.27061 4.3515 13.4102 5.63663 14.6049C6.92216 15.7992 11.3576 19.6891 14.4715 19.6045C14.9906 19.5917 15.5407 19.4826 16.106 19.2799C17.411 18.8121 18.589 17.9222 19.3371 17.2672C19.3371 17.2672 19.4983 17.1301 19.5604 17.0641C19.7169 16.8952 19.8407 16.6487 19.9389 16.3105C19.989 16.1377 19.9999 15.9556 19.9999 15.8337C19.9999 15.6978 19.9863 15.4346 19.897 15.195C19.7747 14.8674 19.6345 14.6329 19.4668 14.4752C19.3426 14.3599 16.5351 12.1604 16.5172 12.148L16.4959 12.134C16.3437 12.0171 16.1849 11.9259 16.0233 11.8626C15.6001 11.6968 15.1315 11.6902 14.7033 11.8432C14.4311 11.9407 14.1861 12.1018 13.997 12.306L13.0322 13.3388C12.9417 13.4358 12.7736 13.5364 12.7142 13.5508C12.6517 13.5624 12.6082 13.5655 12.5803 13.5663L6.10487 7.54868C6.08934 7.53392 6.08158 7.51956 6.07731 7.50946C6.08041 7.50014 6.0843 7.49199 6.08624 7.48578C6.10992 7.43763 6.22174 7.28466 6.36151 7.13324L7.31624 6.0997C7.82137 5.55652 7.94677 4.71167 7.6253 4.05279C7.51076 3.8179 7.3539 3.6424 7.2813 3.5597L7.24364 3.51311C7.225 3.49176 4.86128 0.897799 4.75529 0.800346C4.49243 0.556132 4.07855 0.424124 3.49034 0.39617C3.16342 0.380639 2.75342 0.476927 2.51542 0.624853C2.36244 0.720753 2.24791 0.810054 2.16715 0.897024Z" fill="currentColor"/>
</svg>
