<svg width="14" height="20" viewBox="0 0 14 20" fill="none" xmlns="http://www.w3.org/2000/svg">
<path d="M7 0C3.14023 0 0 3.11865 0 6.9519C0 11.7699 7.00688 20 7.00688 20C7.00688 20 14 11.533 14 6.9519C14 3.11865 10.8599 0 7 0ZM9.11205 8.98743C8.52967 9.56567 7.7649 9.85486 7 9.85486C6.23522 9.85486 5.4702 9.56567 4.88808 8.98743C3.72346 7.83093 3.72346 5.9491 4.88808 4.79248C5.45201 4.23218 6.20216 3.92358 7 3.92358C7.79784 3.92358 8.54787 4.2323 9.11205 4.79248C10.2767 5.9491 10.2767 7.83093 9.11205 8.98743Z" fill="black"/>
</svg>
