<svg width="14" height="20" viewBox="0 0 14 20" fill="none" xmlns="http://www.w3.org/2000/svg">
<path d="M0.6 6.9519C0.6 3.45392 3.46769 0.6 7 0.6C10.5324 0.6 13.4 3.45391 13.4 6.9519C13.4 7.96656 13.0064 9.25974 12.3614 10.6744C11.7227 12.0752 10.8658 13.5356 10.0004 14.8668C9.13627 16.1961 8.27104 17.3855 7.62131 18.2431C7.38084 18.5605 7.17021 18.8321 7.00047 19.048C6.83184 18.839 6.62352 18.577 6.38615 18.271C5.73573 17.4325 4.86955 16.2661 4.00453 14.9527C3.13828 13.6374 2.28055 12.1857 1.6413 10.7755C0.99682 9.35383 0.6 8.02899 0.6 6.9519ZM7 9.6C8.43594 9.6 9.6 8.43594 9.6 7C9.6 5.56406 8.43594 4.4 7 4.4C5.56406 4.4 4.4 5.56406 4.4 7C4.4 8.43594 5.56406 9.6 7 9.6Z" stroke="black" stroke-width="1.2"/>
</svg>
