<svg width="20" height="20" viewBox="0 0 20 20" fill="none" xmlns="http://www.w3.org/2000/svg">
<path fill-rule="evenodd" clip-rule="evenodd" d="M0 10C0 4.48421 4.48421 0 10 0C15.5158 0 20 4.48421 20 10C20 15.5158 15.5158 20 10 20C4.48421 20 0 15.5158 0 10ZM8.62055 4.98584C9.21331 4.38454 10.051 4.03735 11.031 4.03735C12.0389 4.03735 12.6393 4.31284 12.9127 4.4819L12.9141 4.48272C13.0682 4.58141 13.1406 4.77032 13.0874 4.94575L12.7821 5.9553L12.7817 5.95646C12.7445 6.07431 12.6575 6.16721 12.5463 6.21357C12.4325 6.26099 12.3016 6.25115 12.196 6.19219C11.99 6.07839 11.6194 5.93726 11.0308 5.93726C10.4915 5.93726 10.1802 6.14152 9.99842 6.42021C9.81177 6.70629 9.75259 7.08474 9.75259 7.44334C9.75259 7.92128 9.8027 8.30085 9.86793 8.67474H11.733C11.9574 8.67474 12.1383 8.85582 12.1383 9.08004V10.0451C12.1383 10.2695 11.9572 10.4504 11.733 10.4504H10.0849C10.1089 10.9102 10.1012 11.391 9.98443 11.8563C9.87357 12.2828 9.68995 12.6781 9.4325 13.035H13.0948C13.3186 13.035 13.5031 13.218 13.4976 13.4464V14.6627C13.5 14.8 13.2874 14.968 13.09 14.968H6.73867C6.51422 14.968 6.33337 14.787 6.33337 14.5627V13.7972C6.33337 13.6456 6.41703 13.5046 6.55507 13.4355C7.50015 12.9551 8.07802 12.0668 8.07802 11.1182C8.07802 10.8887 8.07252 10.6829 8.05038 10.4527H6.83271C6.60826 10.4527 6.42742 10.2716 6.42742 10.0474V9.08235C6.42742 8.8579 6.60849 8.67706 6.83271 8.67706H7.78577C7.72973 8.27502 7.68608 7.85384 7.68608 7.42926C7.68608 6.43615 8.0279 5.58704 8.62055 4.98584Z" fill="black"/>
</svg>
