<svg width="20" height="20" viewBox="0 0 20 20" fill="none" xmlns="http://www.w3.org/2000/svg">
<path fill-rule="evenodd" clip-rule="evenodd" d="M10 0C4.4775 0 0 4.4775 0 10C0 15.5225 4.4775 20 10 20C15.5225 20 20 15.5225 20 10C20 4.4775 15.5225 0 10 0ZM8.28334 15C8.28334 15.9749 8.97153 16.7833 10 16.7833C10.507 16.7833 10.9448 16.5905 11.2533 16.256C11.5587 15.9249 11.7167 15.4782 11.7167 15C11.7167 14.5131 11.5599 14.0647 11.2518 13.7343C10.941 13.4009 10.5025 13.2167 10 13.2167C9.00261 13.2167 8.28334 13.9935 8.28334 15ZM11.9981 8.95688L11.9969 8.95779C11.2356 9.5478 10.9964 10.291 10.9964 11.3C10.9964 11.5762 10.7725 11.8 10.4964 11.8H9.05755C8.81966 11.8 8.61471 11.6324 8.5675 11.3993C8.37855 10.4662 8.4451 9.65882 8.75639 8.93176C9.06395 8.21338 9.5917 7.61757 10.2486 7.0712C10.7081 6.68903 10.8241 6.33875 10.8206 6.10175C10.817 5.85858 10.6887 5.64528 10.4872 5.51665C10.2885 5.3899 10.0215 5.34849 9.74386 5.46451C9.46503 5.58105 9.11761 5.88342 8.84415 6.55273C8.79331 6.67717 8.69451 6.77589 8.57003 6.82663C8.44556 6.87737 8.30589 6.87586 8.18255 6.82243L6.80125 6.22407C6.55178 6.11601 6.43438 5.82841 6.53695 5.57663C7.1186 4.14885 8.23695 2.80005 10.0935 2.80005C12.0351 2.80005 13.5 4.32903 13.5 6.22899C13.5 7.48105 12.8481 8.29412 11.9981 8.95688Z" fill="currentColor"/>
</svg>
