<svg width="10" height="20" viewBox="0 0 10 20" fill="none" xmlns="http://www.w3.org/2000/svg">
<path d="M8.46194 1.33264L8.46093 1.33167C7.16615 0.0676363 5.58491 -0.225736 4.12299 0.155395C2.65622 0.537793 1.3065 1.60101 0.498561 3.05545C0.305723 3.40259 0.458818 3.84189 0.831804 4.04327C1.28353 4.28716 1.88032 4.06179 2.18862 3.59232C2.74491 2.74521 3.58513 2.03961 4.49915 1.76313C5.42279 1.48373 6.41674 1.64592 7.23907 2.52727C7.78946 3.11717 8.06388 3.75654 8.05845 4.43162C8.05304 5.10353 7.77058 5.78957 7.24886 6.4767C6.85343 6.9975 6.46084 7.46068 6.09301 7.89466L5.95876 8.05315C5.55175 8.53428 5.1803 8.98191 4.86647 9.44452C4.24301 10.3635 3.8475 11.3406 3.88317 12.7347C3.88452 12.7873 3.88651 12.9147 3.88912 13.0823C3.89314 13.3403 3.89865 13.6938 3.90558 14.0154C3.91398 14.4052 4.22273 14.7 4.61891 14.7C5.08241 14.7 5.47486 14.2979 5.47467 13.8285C5.47447 13.3519 5.47981 12.8545 5.49143 12.7251C5.65352 10.92 6.96574 9.53924 8.23326 8.22758C10.196 6.19647 10.4881 3.27406 8.46194 1.33264Z" fill="black"/>
<path d="M4.75 20C4.05964 20 3.5 19.4404 3.5 18.75V18.25C3.5 17.5596 4.05964 17 4.75 17C5.44036 17 6 17.5596 6 18.25V18.75C6 19.4404 5.44036 20 4.75 20Z" fill="black"/>
</svg>
