<svg width="18" height="20" viewBox="0 0 18 20" fill="none" xmlns="http://www.w3.org/2000/svg">
<path fill-rule="evenodd" clip-rule="evenodd" d="M13.401 5.2833C13.839 5.61546 14.2291 5.98798 14.5703 6.39186L9.52299 7.37337C9.11672 7.45237 8.85142 7.84577 8.93042 8.25204C9.00943 8.65831 9.40282 8.92361 9.80909 8.8446L16.2498 7.59212C16.6561 7.51312 16.9214 7.11972 16.8424 6.71345C16.8397 6.69969 16.8367 6.68608 16.8333 6.67265C16.8317 6.66046 16.8298 6.64826 16.8276 6.63604L15.7521 0.715569C15.6782 0.308352 15.2881 0.0382012 14.8809 0.112171C14.4736 0.186141 14.2035 0.576222 14.2775 0.983439L14.9655 4.77129C14.74 4.559 14.5011 4.35663 14.2489 4.16537C10.3996 1.24592 4.89701 2.00182 1.97757 5.85109C-0.94188 9.70037 -0.185978 15.203 3.66329 18.1224C7.51256 21.0419 13.0152 20.286 15.9346 16.4367C16.525 15.6584 16.9651 14.8122 17.2597 13.9334L17.2933 13.8332L15.9365 13.4601L15.906 13.5489C15.6598 14.2652 15.298 14.9543 14.8167 15.5888C12.3716 18.8127 7.73505 19.4496 4.51118 17.0045C1.2873 14.5594 0.650374 9.92286 3.0955 6.69898C5.54062 3.4751 10.1772 2.83818 13.401 5.2833Z" fill="black"/>
</svg>
