<svg width="20" height="20" viewBox="0 0 20 20" fill="none" xmlns="http://www.w3.org/2000/svg">
<path d="M9.98629 20C15.1633 20 19.4457 16.0398 19.9503 10.9986C20.0053 10.449 19.5523 10 19 10H16.6103C16.058 10 15.6196 10.4516 15.5218 10.9951C15.0499 13.6184 12.7464 15.6164 9.98619 15.6164C6.8862 15.6164 4.36205 13.0959 4.36205 10C4.36205 6.90412 6.88605 4.38358 9.98619 4.38358C11.1658 4.38358 12.2633 4.7398 13.1961 5.39723L11.742 6.90412C11.4402 7.23283 11.5774 7.72609 12.0164 7.72609L18.738 7.78094C19.0124 7.78094 19.2593 7.53441 19.2317 7.26034L18.9025 0.575415C18.8752 0.137015 18.3812 0.0275194 18.0795 0.356213L16.2963 2.21913C14.5131 0.794422 12.3183 0 10.0137 0C4.49931 0 6.14136e-09 4.49315 6.14136e-09 9.99999C-0.000191352 15.5068 4.47154 20 9.98629 20Z" fill="black"/>
</svg>
