<svg width="20" height="20" viewBox="0 0 20 20" fill="none" xmlns="http://www.w3.org/2000/svg">
<path fill-rule="evenodd" clip-rule="evenodd" d="M19.4054 16.5363L15.2297 12.3605C15.9564 11.1392 16.3766 9.71244 16.3766 8.18842C16.3766 3.67241 12.7043 0 8.18831 0C3.67231 0 0 3.67237 0 8.18838C0 12.7044 3.67235 16.3768 8.18834 16.3768C9.71235 16.3768 11.1391 15.9565 12.3604 15.2298L16.5362 19.4056C16.9313 19.8008 17.4526 20 17.9708 20C18.489 20 19.0104 19.8008 19.4055 19.4056C20.1982 18.6129 20.1981 17.329 19.4054 16.5363ZM8.18834 12.3188C5.91165 12.3188 4.05797 10.4651 4.05797 8.18838C4.05797 5.91163 5.91165 4.05795 8.18834 4.05795C10.465 4.05795 12.3187 5.91163 12.3187 8.18838C12.3187 10.4651 10.465 12.3188 8.18834 12.3188Z" fill="black"/>
</svg>
