<svg width="20" height="20" viewBox="0 0 20 20" fill="none" xmlns="http://www.w3.org/2000/svg">
<path fill-rule="evenodd" clip-rule="evenodd" d="M5.17965 4.96778e-05C7.4519 -0.00966712 9.37444 1.40703 10.0525 3.38265C10.0504 3.37667 11.1481 3.35171 11.2938 3.35109C11.4683 3.35031 11.6092 3.48689 11.6084 3.65615C11.6058 4.2156 13.192 4.12573 13.1941 3.64935C13.196 3.21879 14.1868 3.18407 14.1847 3.6451C14.1824 4.11828 15.1451 4.03514 15.3498 3.77997C15.5285 3.55713 15.8744 3.55565 16.0511 3.77696C16.2535 4.03043 17.2153 4.10526 17.2175 3.6321C17.2204 2.9946 18.4543 3.43609 18.6933 3.64143L19.7595 4.55752C19.9081 4.68526 19.9828 4.86141 19.9841 5.03859C19.9841 5.03859 19.982 5.04306 19.9783 5.05091C19.9784 5.05096 19.9783 5.05087 19.9783 5.05091C20.0373 5.13691 19.9815 5.2838 19.7416 5.52401L18.6803 6.46267C18.4381 6.6712 18.1263 6.78711 17.8038 6.78849L9.94375 6.82219C9.17868 8.67495 7.31071 9.99064 5.13383 9.99995C2.28583 10.0121 -0.0125424 7.78317 5.15097e-05 5.02179C0.0128342 2.26055 2.33179 0.0122284 5.17965 4.96778e-05ZM4.65998 5.00205C4.65641 5.78492 3.99932 6.42255 3.19137 6.42602C2.38396 6.42948 1.73269 5.79742 1.73623 5.01459C1.7398 4.23172 2.39689 3.59409 3.2043 3.59063C4.01226 3.58716 4.66358 4.21922 4.65998 5.00205Z" fill="black"/>
<path fill-rule="evenodd" clip-rule="evenodd" d="M0 14C0 12.8954 0.895431 12 2 12H18C19.1046 12 20 12.8954 20 14V18C20 19.1046 19.1046 20 18 20H2C0.895431 20 0 19.1046 0 18V14ZM7 16C7 16.8284 6.32843 17.5 5.5 17.5C4.67157 17.5 4 16.8284 4 16C4 15.1716 4.67157 14.5 5.5 14.5C6.32843 14.5 7 15.1716 7 16ZM11.5 16C11.5 16.8284 10.8284 17.5 10 17.5C9.17157 17.5 8.5 16.8284 8.5 16C8.5 15.1716 9.17157 14.5 10 14.5C10.8284 14.5 11.5 15.1716 11.5 16ZM14.5 17.5C15.3284 17.5 16 16.8284 16 16C16 15.1716 15.3284 14.5 14.5 14.5C13.6716 14.5 13 15.1716 13 16C13 16.8284 13.6716 17.5 14.5 17.5Z" fill="black"/>
</svg>
