<svg width="20" height="20" viewBox="0 0 20 20" fill="none" xmlns="http://www.w3.org/2000/svg">
<path fill-rule="evenodd" clip-rule="evenodd" d="M9.89997 6.00005C9.43668 8.28226 7.41894 10 5 10C2.23858 10 0 7.76142 0 5C0 2.23858 2.23858 0 5 0C7.69446 0 9.89112 2.13132 9.99607 4.80005L15 4.80005V1.5C15 1.22386 15.2239 1 15.5 1C15.7761 1 16 1.22386 16 1.5V4.80005H17V3.5C17 3.22386 17.2239 3 17.5 3C17.7761 3 18 3.22386 18 3.5V4.80005H19.4C19.7314 4.80005 20 5.06868 20 5.40005C20 5.73142 19.7314 6.00005 19.4 6.00005L9.89997 6.00005ZM8.8 5C8.8 7.09868 7.09868 8.8 5 8.8C2.90132 8.8 1.2 7.09868 1.2 5C1.2 2.90132 2.90132 1.2 5 1.2C7.09868 1.2 8.8 2.90132 8.8 5Z" fill="black"/>
<path d="M5.50027 14.5C4.67167 14.5 4 15.1655 4 16C4 16.8282 4.6659 17.5 5.50027 17.5C6.32833 17.5 7 16.834 7 16C7 15.1713 6.33411 14.5 5.50027 14.5Z" fill="black"/>
<path d="M8.5 16C8.5 15.1655 9.17167 14.5 10.0003 14.5C10.8341 14.5 11.5 15.1713 11.5 16C11.5 16.834 10.8283 17.5 10.0003 17.5C9.1659 17.5 8.5 16.8282 8.5 16Z" fill="black"/>
<path d="M14.5003 14.5C13.6717 14.5 13 15.1655 13 16C13 16.8282 13.6659 17.5 14.5003 17.5C15.3283 17.5 16 16.834 16 16C16 15.1713 15.3341 14.5 14.5003 14.5Z" fill="black"/>
<path fill-rule="evenodd" clip-rule="evenodd" d="M2 12C0.895431 12 0 12.8954 0 14V18C0 19.1046 0.895431 20 2 20H18C19.1046 20 20 19.1046 20 18V14C20 12.8954 19.1046 12 18 12H2ZM18 13.2H2C1.55817 13.2 1.2 13.5582 1.2 14V18C1.2 18.4418 1.55817 18.8 2 18.8H18C18.4418 18.8 18.8 18.4418 18.8 18V14C18.8 13.5582 18.4418 13.2 18 13.2Z" fill="black"/>
</svg>
