<svg width="18" height="20" viewBox="0 0 18 20" fill="none" xmlns="http://www.w3.org/2000/svg">
<path d="M5.2513 7.13143L11.2544 3.63053C11.2515 3.57152 11.25 3.51213 11.25 3.45238C11.25 1.54803 12.7643 0 14.625 0C16.4858 0 18 1.54805 18 3.45238C18 5.35671 16.4858 6.90476 14.625 6.90476C13.9315 6.90476 13.2861 6.6897 12.7492 6.32128L6.74562 9.82236C6.74855 9.8812 6.75003 9.94042 6.75003 10C6.75003 10.0595 6.74855 10.1186 6.74563 10.1774L12.7494 13.6786C13.2862 13.3103 13.9315 13.0952 14.625 13.0952C16.4858 13.0952 18 14.6433 18 16.5476C18 18.452 16.4858 20 14.625 20C12.7643 20 11.25 18.452 11.25 16.5476C11.25 16.4878 11.2515 16.4283 11.2544 16.3693L5.25147 12.8685C4.71453 13.2371 4.06886 13.4524 3.37501 13.4524C1.51421 13.4524 0 11.9043 0 10C0 8.09567 1.51421 6.54762 3.37501 6.54762C4.06879 6.54762 4.71439 6.76281 5.2513 7.13143Z" fill="black"/>
</svg>
