<svg width="12" height="18" viewBox="0 0 12 18" fill="none" xmlns="http://www.w3.org/2000/svg">
<path d="M10.6864 11.4513L5.99528 16.1424L1.30417 11.4513C1.00597 11.1633 0.533155 11.1633 0.234905 11.4513C-0.0708309 11.7465 -0.0793092 12.2337 0.215965 12.5395L5.45118 17.7747C5.75168 18.0751 6.23887 18.0751 6.53938 17.7747L11.7746 12.5395C12.075 12.239 12.075 11.7518 11.7746 11.4513C11.4741 11.1508 10.9869 11.1508 10.6864 11.4513Z" fill="black"/>
<path d="M1.31348 6.54872L6.00458 1.85762L10.6957 6.54872C10.9939 6.83674 11.4667 6.83674 11.765 6.54872C12.0707 6.25345 12.0792 5.76626 11.7839 5.46052L6.54869 0.225311C6.24818 -0.0751038 5.76099 -0.0751037 5.46048 0.225311L0.225272 5.46052C-0.0751425 5.76102 -0.0751425 6.24817 0.225272 6.54872C0.525777 6.84918 1.01297 6.84918 1.31348 6.54872Z" fill="black"/>
</svg>
