<svg width="18" height="20" viewBox="0 0 18 20" fill="none" xmlns="http://www.w3.org/2000/svg">
<path fill-rule="evenodd" clip-rule="evenodd" d="M16.5 3.59998H12.927C12.7934 2.27407 12.019 1.1019 10.8609 0.473381C9.69808 -0.157794 8.30194 -0.157794 7.13913 0.473381C5.98102 1.1019 5.20667 2.27407 5.073 3.59998H1.5C0.671573 3.59998 0 4.27155 0 5.09998C0 5.9284 0.671573 6.59998 1.5 6.59998H16.5C17.3284 6.59998 18 5.9284 18 5.09998C18 4.27155 17.3284 3.59998 16.5 3.59998ZM7.45204 2.15821C7.02374 2.5277 6.7369 3.03791 6.64138 3.59998H11.358C11.2625 3.03791 10.9757 2.5277 10.5474 2.15821C10.1152 1.78557 9.56692 1.58014 8.99974 1.57885C8.43256 1.58012 7.88427 1.78555 7.45204 2.15821Z" fill="currentColor"/>
<path d="M2.27617 9H15.924C16.1402 8.99938 16.3463 9.08228 16.4934 9.22837C16.6402 9.37461 16.7146 9.57084 16.6976 9.76971L15.4816 19.3369C15.4676 19.5166 15.3806 19.6847 15.2381 19.8077C15.0954 19.9306 14.9078 19.9992 14.7127 20H3.48715C3.29199 19.9992 3.1044 19.9306 2.96173 19.8077C2.81923 19.6847 2.73224 19.5166 2.71828 19.3369L1.50239 9.76971C1.4854 9.57084 1.55959 9.37461 1.70647 9.22837C1.85354 9.08228 2.05998 8.99938 2.27617 9Z" fill="currentColor"/>
</svg>
