<svg width="18" height="20" viewBox="0 0 18 20" fill="none" xmlns="http://www.w3.org/2000/svg">
<path d="M9.625 16.875C9.625 17.2202 9.34516 17.5 9 17.5C8.6548 17.5 8.375 17.2202 8.375 16.875V8.75C8.375 8.40484 8.65484 8.125 9 8.125C9.34516 8.125 9.625 8.40484 9.625 8.75V16.875Z" fill="black"/>
<path d="M12.125 17.5C12.4702 17.5 12.75 17.2202 12.75 16.875V8.75C12.75 8.40484 12.4702 8.125 12.125 8.125C11.7798 8.125 11.5 8.40484 11.5 8.75V16.875C11.5 17.2202 11.7798 17.5 12.125 17.5Z" fill="black"/>
<path d="M6.5 16.875C6.5 17.2202 6.22016 17.5 5.875 17.5C5.5298 17.5 5.25 17.2202 5.25 16.875V8.75C5.25 8.40484 5.52984 8.125 5.875 8.125C6.22016 8.125 6.5 8.40484 6.5 8.75V16.875Z" fill="black"/>
<path fill-rule="evenodd" clip-rule="evenodd" d="M12.125 2.5H15.5625C16.4241 2.5 17.125 3.20094 17.125 4.0625V6.25C17.125 6.59516 16.8452 6.875 16.5 6.875H16.1584L15.6185 18.2142C15.5708 19.2156 14.7482 20 13.7456 20H4.25437C3.25187 20 2.42922 19.2156 2.38152 18.2142L1.84156 6.875H1.5C1.15484 6.875 0.875 6.59516 0.875 6.25V4.0625C0.875 3.20094 1.57594 2.5 2.4375 2.5H5.875V1.875C5.875 0.841133 6.71613 0 7.75 0H10.25C11.2839 0 12.125 0.841133 12.125 1.875V2.5ZM7.75 1.25C7.40539 1.25 7.125 1.53039 7.125 1.875V2.5H10.875V1.875C10.875 1.53039 10.5946 1.25 10.25 1.25H7.75ZM2.4375 3.75C2.2652 3.75 2.125 3.8902 2.125 4.0625V5.625H15.875V4.0625C15.875 3.8902 15.7348 3.75 15.5625 3.75H2.4375ZM13.7456 18.75C14.0798 18.75 14.354 18.4885 14.3699 18.1547L14.907 6.875H3.09297L3.63012 18.1547C3.64598 18.4885 3.9202 18.75 4.25437 18.75H13.7456Z" fill="black"/>
</svg>
