<svg width="20" height="16" viewBox="0 0 20 16" fill="none" xmlns="http://www.w3.org/2000/svg">
<path fill-rule="evenodd" clip-rule="evenodd" d="M6 7.99988C6 5.79298 7.7931 3.99988 10 3.99988C12.2069 3.99988 14 5.79298 14 7.99988C14 10.2068 12.2069 11.9999 10 11.9999C7.7931 11.9999 6 10.2068 6 7.99988ZM8.78621 7.72402C8.78621 7.22746 9.2 6.81367 9.69655 6.81367V5.48953C8.48276 5.48953 7.48966 6.48264 7.46207 7.72402H8.78621Z" fill="black"/>
<path fill-rule="evenodd" clip-rule="evenodd" d="M19.7669 7.33386C19.6911 7.23946 19.6017 7.12532 19.4993 6.99464C18.1332 5.2508 14.4604 0.5625 10 0.5625C5.53959 0.5625 1.86681 5.2508 0.500699 6.99464C0.398338 7.1253 0.308893 7.23948 0.233074 7.33386C-0.0776915 7.71122 -0.0776915 8.26616 0.233074 8.66572C0.308897 8.76011 0.39831 8.87424 0.500676 9.00491C1.86678 10.7487 5.53959 15.4371 10 15.4371C14.4604 15.4371 18.1332 10.7488 19.4993 9.00494C19.6017 8.87426 19.6911 8.76011 19.7669 8.66572C20.0777 8.28836 20.0777 7.73342 19.7669 7.33386ZM4.5 7.99988C4.5 4.96455 6.96468 2.49988 10 2.49988C13.0353 2.49988 15.5 4.96456 15.5 7.99988C15.5 11.0352 13.0353 13.4999 10 13.4999C6.96468 13.4999 4.5 11.0352 4.5 7.99988Z" fill="black"/>
</svg>
