<svg width="20" height="12" viewBox="0 0 20 12" fill="none" xmlns="http://www.w3.org/2000/svg">
<path d="M12.4627 5.99949C12.4627 7.35962 11.36 8.46223 9.99991 8.46223C8.63978 8.46223 7.53717 7.35962 7.53717 5.99949C7.53717 4.63935 8.63978 3.53674 9.99991 3.53674C11.36 3.53674 12.4627 4.63935 12.4627 5.99949Z" fill="currentColor"/>
<path fill-rule="evenodd" clip-rule="evenodd" d="M9.99875 0C15.4049 0 19.6957 5.39617 19.8761 5.62511C20.0413 5.83364 20.0413 6.16322 19.8761 6.37246C19.697 6.60141 15.4049 12 9.99875 12C4.59398 12 0.303696 6.60141 0.123085 6.37246C-0.0409877 6.16322 -0.0409877 5.83536 0.123085 5.62511C0.302982 5.39617 4.59315 0 9.99875 0ZM5.1939 5.99836C5.1939 8.51803 7.90126 10.5667 9.99994 10.5667C12.0985 10.5667 14.8078 8.5166 14.8082 5.99836C14.8082 3.47998 12.0985 1.4309 9.99994 1.4309C7.90126 1.4309 5.1939 3.48069 5.1939 5.99836ZM4.28418 5.99836C4.28418 4.26215 5.50003 2.5 6.9819 1.68668C4.13651 2.78415 1.90112 5.09486 1.10217 5.99836C1.901 6.90286 4.13591 9.21328 6.9819 10.3113C5.50003 9.5 4.28418 7.73385 4.28418 5.99836ZM15.7172 5.99836C15.7172 7.73299 14.5 9.5 13.0194 10.3096C15.8643 9.21 18.0976 6.902 18.897 5.99836C18.0977 5.09386 15.8644 2.78629 13.0186 1.68825C14.5 2.5 15.7172 4.26372 15.7172 5.99836Z" fill="currentColor"/>
</svg>
