<svg width="13" height="20" viewBox="0 0 13 20" fill="none" xmlns="http://www.w3.org/2000/svg">
<path fill-rule="evenodd" clip-rule="evenodd" d="M7.3012 0.400024C5.59134 0.400024 4.20151 1.79011 4.20145 3.49979C4.20128 4.64087 4.82021 5.63951 5.74008 6.17773L2.39622 8.99153C2.34929 9.02889 2.30708 9.07314 2.27127 9.12373C2.2486 9.15563 2.2291 9.18921 2.21281 9.22401L0.927345 11.8414C0.769093 12.1636 0.902017 12.5531 1.22424 12.7113C1.54646 12.8696 1.93596 12.7367 2.09421 12.4145L3.32451 9.90941L6.26577 7.4344L5.74061 11.1711L5.7363 11.1786L2.79031 16.0885L0.204083 18.5271C-0.0571056 18.7734 -0.0691954 19.1847 0.177079 19.4459C0.423353 19.7071 0.834733 19.7192 1.09592 19.4729L3.7358 16.9838C3.76337 16.959 3.78908 16.9316 3.81253 16.9017C3.83258 16.8763 3.85047 16.8497 3.8662 16.8221L6.40355 12.5932L9.71733 16.3213L10.6131 19.4513C10.7119 19.7964 11.0718 19.9961 11.4169 19.8973C11.762 19.7985 11.9617 19.4387 11.863 19.0936L10.9298 15.8331C10.9182 15.7891 10.9018 15.746 10.8806 15.7046C10.8527 15.6498 10.8176 15.6001 10.7768 15.5565L7.02955 11.3407L7.46049 8.27441L8.43355 10.2522C8.44893 10.4413 8.54658 10.6221 8.71563 10.7372L11.6036 12.7036C11.9003 12.9057 12.3046 12.8289 12.5067 12.5322C12.7087 12.2355 12.632 11.8311 12.3352 11.6291L9.66537 9.81112L8.0416 6.51077C9.39509 6.17817 10.4014 4.95485 10.4014 3.4999C10.4014 1.79006 9.01122 0.400024 7.3012 0.400024ZM5.40145 3.4999C5.40145 2.45282 6.25414 1.60002 7.3012 1.60002C8.34862 1.60002 9.20145 2.45293 9.20145 3.4999C9.20145 4.54716 8.34858 5.40002 7.3012 5.40002C6.25408 5.40002 5.40126 4.54709 5.40145 3.4999Z" fill="black"/>
</svg>
