<svg width="20" height="20" viewBox="0 0 20 20" fill="none" xmlns="http://www.w3.org/2000/svg">
<path d="M10.05 13C9.63179 13 9.28893 12.6684 9.275 12.2504L8.84163 5.24931C8.81886 4.56617 9.36647 4 10.05 4C10.7335 4 11.2811 4.56617 11.2583 5.24931L10.825 12.2504C10.811 12.6684 10.4682 13 10.05 13Z" fill="black"/>
<path d="M10.05 17C9.35963 17 8.79999 16.4404 8.79999 15.75V15.25C8.79999 14.5596 9.35963 14 10.05 14C10.7403 14 11.3 14.5596 11.3 15.25V15.75C11.3 16.4404 10.7403 17 10.05 17Z" fill="black"/>
<path fill-rule="evenodd" clip-rule="evenodd" d="M7.41438 1.65825L0.403419 15.0423C-0.741059 17.2533 0.683363 20 2.9929 20H16.986C19.2955 20 20.7447 17.226 19.6002 15.0423L12.5933 1.65825C11.4489 -0.55275 8.55474 -0.55275 7.41438 1.65825ZM11.5276 2.20989L18.5371 15.5988C18.9107 16.3119 18.8667 17.1338 18.5261 17.7818C18.1869 18.4273 17.6175 18.8 16.986 18.8H2.9929C2.35832 18.8 1.79816 18.4312 1.46714 17.7958C1.13448 17.1573 1.08797 16.3322 1.4679 15.5963L1.46911 15.5939L8.47739 2.21509L8.48088 2.20832C9.17348 0.865454 10.8298 0.861819 11.5276 2.20989Z" fill="black"/>
</svg>
