<svg width="68" height="67" viewBox="0 0 68 67" fill="none" xmlns="http://www.w3.org/2000/svg">
<path d="M62.0347 66.9995H35.1865C32.326 66.9925 30.007 64.6735 30 61.813V5.18649C30.007 2.326 32.326 0.00696406 35.1865 0H62.0347C64.8952 0.00696406 67.2142 2.326 67.2212 5.18649V61.8148C67.2125 64.6752 64.8952 66.9925 62.0347 66.9995Z" fill="#262F69"/>
<path d="M62.0367 66.9995H35.1884C32.328 66.9925 30.0089 64.6735 30.002 61.813V55.2439C47.1038 55.2439 52.0044 55.2439 67.2231 55.2439V61.8147C67.2144 64.6752 64.8971 66.9925 62.0367 66.9995Z" fill="#31448F"/>
<path d="M64.7646 5.29089H32.4531V58.122H64.7646V5.29089Z" fill="#23A4DE"/>
<path d="M52.1824 3.19821H45.5788C45.2811 3.19647 45.0408 2.95621 45.0391 2.65849C45.0408 2.36078 45.2811 2.12052 45.5788 2.11877H52.1946C52.4923 2.12052 52.7326 2.36078 52.7343 2.65849C52.7326 2.95795 52.4906 3.19995 52.1911 3.19821C52.1877 3.19821 52.1859 3.19821 52.1824 3.19821Z" fill="#F2F2F2"/>
<path d="M48.6088 65.1122C47.1985 65.1122 46.0547 63.9683 46.0547 62.5581C46.0547 61.1479 47.1985 60.004 48.6088 60.004C50.019 60.004 51.1628 61.1479 51.1628 62.5581C51.1611 63.9666 50.019 65.1087 48.6088 65.1122Z" fill="#F2F2F2"/>
<rect x="37" y="10" width="23" height="23" rx="3" fill="#7BC9EB"/>
<rect x="37" y="37" width="16" height="2" rx="1" fill="#7BC9EB"/>
<rect x="37" y="41" width="20" height="2" rx="1" fill="#7BC9EB"/>
<rect x="37" y="47" width="6" height="6" rx="1" fill="#7BC9EB"/>
<rect x="45" y="47" width="15" height="6" rx="1" fill="#7BC9EB"/>
<path d="M34.7769 8.61725C31.9466 1.481 24.1464 -1.89319 17.3548 1.08083C12.711 3.11429 9.55355 7.72302 9.19173 12.9956C5.26727 13.5659 2.52577 17.3711 3.0685 21.4949C3.55963 25.2263 6.59684 28.0037 10.1817 28H34.7768C39.8706 28 44 23.661 44 18.3087C44 12.9563 39.8708 8.61725 34.7769 8.61725Z" fill="white"/>
<path d="M31.5 37C37.299 37 42 32.299 42 26.5C42 20.701 37.299 16 31.5 16C25.701 16 21 20.701 21 26.5C21 32.299 25.701 37 31.5 37Z" fill="#A0C862"/>
<path d="M31.7647 28.8517C32.2284 29.3154 32.2284 30.1104 31.7647 30.5741L30.8042 31.5347C30.3404 31.9984 29.5455 31.9984 29.0818 31.5347L24.8751 27.2949C24.4114 26.8312 24.4114 26.0362 24.8751 25.5725L25.8357 24.612C26.2994 24.1482 27.0944 24.1482 27.5581 24.612L31.7647 28.8517Z" fill="white"/>
<path d="M35.4415 21.5315C35.9052 21.0678 36.7002 21.0678 37.1639 21.5315L38.1245 22.4921C38.5882 22.9558 38.5882 23.7508 38.1245 24.2145L30.8374 31.4684C30.3737 31.9321 29.5787 31.9321 29.115 31.4684L28.1544 30.5078C27.6907 30.0441 27.6907 29.2492 28.1544 28.7855L35.4415 21.5315Z" fill="white"/>
<path d="M13.9508 38.6931C12.7082 35.6347 9.2838 34.1886 6.30211 35.4632C4.26338 36.3347 2.87717 38.3099 2.71832 40.5695C0.995386 40.8139 -0.208197 42.4448 0.0300733 44.2121C0.245693 45.8113 1.5791 47.0016 3.15293 47H13.9508C16.1871 47 18 45.1404 18 42.8466C18 40.5527 16.1872 38.6931 13.9508 38.6931Z" fill="white"/>
</svg>
