<svg width="376" height="203" viewBox="0 0 376 203" fill="none" xmlns="http://www.w3.org/2000/svg" xmlns:xlink="http://www.w3.org/1999/xlink">
<g clip-path="url(#clip0)">
<rect width="376" height="203" fill="#F2F2F2"/>
<rect width="376" height="235" fill="url(#pattern0)"/>
<rect x="-3" y="-3.00049" width="355" height="209" fill="#E3E3E3"/>
<path d="M119 225.5L69 68.5L-0.5 116L8.5 233.5L119 225.5Z" fill="white"/>
<g clip-path="url(#clip1)">
<path d="M118.117 89.8076V158.128C118.117 165.228 123.963 171 131.143 171H243.926C251.111 171 256.952 165.228 256.952 158.128V89.8076H118.117Z" fill="#262F69"/>
<path d="M184.133 42.9355L161.664 46.4915L180.489 64.9644L204.825 61.2723L184.133 42.9355Z" fill="#23A4DE"/>
<path d="M155.42 47.481L131.203 51.3091L149.829 69.6099L174.202 65.9136L155.42 47.481Z" fill="#0061A8"/>
<path d="M256.903 51.253L251.793 38.3264C250.617 35.1828 245.789 33.2047 241.027 33.9295L220.852 37.1251L239.994 55.9463L254.663 53.7199C255.462 53.5997 256.147 53.2673 256.567 52.8029C256.988 52.3385 257.107 51.7816 256.903 51.253Z" fill="#7BC9EB"/>
<path d="M214.596 38.1143L190.512 41.9265L211.239 60.3032L233.703 56.8953L214.596 38.1143Z" fill="#7BC9EB"/>
<path d="M149.146 69.79L139.539 85.8041H163.095L172.703 69.79H149.146Z" fill="#0061A8"/>
<path d="M179.17 69.79L169.562 85.8041H193.118L202.726 69.79H179.17Z" fill="#23A4DE"/>
<path d="M253.99 69.79H239.213L229.605 85.808H256.992V71.7922C256.992 70.683 255.653 69.79 253.99 69.79Z" fill="#7BC9EB"/>
<path d="M209.193 69.79L199.586 85.8041H223.136L232.749 69.79H209.193Z" fill="#7BC9EB"/>
<path d="M124.962 52.3022L120.068 53.0751C117.685 53.4355 115.667 54.4005 114.388 55.7862C113.109 57.1758 112.731 58.8096 113.325 60.3913L118.892 75.0637V85.8038H133.074L142.087 70.783L143.552 70.5628L124.962 52.3022Z" fill="#262F69"/>
</g>
<ellipse cx="188.154" cy="99.8887" rx="32.1538" ry="31.8887" fill="#FFB71B"/>
<path d="M204.668 100.751L179.901 117.172L179.901 84.3308L204.668 100.751Z" fill="white"/>
<path d="M141.999 151.056L142.207 153.04H142.271L142.495 151.024L144.447 144.8H145.887L147.807 151.056L148.031 153.04H148.095L148.335 151.024L149.695 144.8H151.919L148.831 156.08H147.359L145.359 149.856L145.087 148.144H145.007L144.735 149.872L142.751 156.08H141.199L138.127 144.8H140.511L141.999 151.056ZM158.02 153.52H154.58L153.732 156H151.54L155.572 144.72H157.188L161.22 156H158.916L158.02 153.52ZM155.14 151.76H157.54L156.708 149.264L156.372 147.504H156.292L155.956 149.28L155.14 151.76ZM169.21 146.752H165.946V156H163.754V146.752H160.474V144.8H169.21V146.752ZM177.631 155.536C177.289 155.781 176.852 155.957 176.319 156.064C175.796 156.171 175.257 156.224 174.703 156.224C174.031 156.224 173.391 156.123 172.783 155.92C172.185 155.707 171.657 155.371 171.199 154.912C170.74 154.443 170.372 153.84 170.095 153.104C169.828 152.357 169.695 151.456 169.695 150.4C169.695 149.301 169.844 148.384 170.143 147.648C170.452 146.901 170.847 146.304 171.327 145.856C171.817 145.397 172.361 145.072 172.959 144.88C173.556 144.677 174.153 144.576 174.751 144.576C175.391 144.576 175.929 144.619 176.367 144.704C176.815 144.789 177.183 144.891 177.471 145.008L177.039 146.864C176.793 146.747 176.5 146.661 176.159 146.608C175.828 146.555 175.423 146.528 174.943 146.528C174.057 146.528 173.343 146.843 172.799 147.472C172.265 148.101 171.999 149.077 171.999 150.4C171.999 150.976 172.063 151.504 172.191 151.984C172.319 152.453 172.511 152.859 172.767 153.2C173.033 153.531 173.359 153.792 173.743 153.984C174.137 154.165 174.591 154.256 175.103 154.256C175.583 154.256 175.988 154.208 176.319 154.112C176.649 154.016 176.937 153.893 177.183 153.744L177.631 155.536ZM185.592 151.312H181.496V156H179.304V144.8H181.496V149.36H185.592V144.8H187.784V156H185.592V151.312ZM197.608 151.376L197.896 153.28H197.976L198.296 151.36L200.44 144.8H202.744L198.584 156.08H197.016L192.824 144.8H195.368L197.608 151.376ZM204.097 144.8H206.289V156H204.097V144.8ZM208.756 144.8C208.98 144.768 209.231 144.741 209.508 144.72C209.796 144.699 210.089 144.683 210.388 144.672C210.687 144.661 210.975 144.656 211.252 144.656C211.54 144.645 211.796 144.64 212.02 144.64C213.012 144.64 213.86 144.779 214.564 145.056C215.268 145.333 215.839 145.723 216.276 146.224C216.713 146.725 217.033 147.323 217.236 148.016C217.439 148.709 217.54 149.472 217.54 150.304C217.54 151.061 217.444 151.792 217.252 152.496C217.06 153.2 216.74 153.824 216.292 154.368C215.844 154.912 215.252 155.349 214.516 155.68C213.791 156.011 212.889 156.176 211.812 156.176C211.641 156.176 211.412 156.171 211.124 156.16C210.847 156.149 210.553 156.133 210.244 156.112C209.945 156.101 209.657 156.085 209.38 156.064C209.103 156.053 208.895 156.037 208.756 156.016V144.8ZM212.196 146.592C211.961 146.592 211.721 146.597 211.476 146.608C211.241 146.619 211.065 146.635 210.948 146.656V154.16C210.991 154.171 211.06 154.181 211.156 154.192C211.263 154.192 211.375 154.197 211.492 154.208C211.609 154.208 211.721 154.213 211.828 154.224C211.935 154.224 212.015 154.224 212.068 154.224C212.687 154.224 213.199 154.117 213.604 153.904C214.02 153.68 214.345 153.387 214.58 153.024C214.825 152.661 214.996 152.245 215.092 151.776C215.188 151.296 215.236 150.805 215.236 150.304C215.236 149.867 215.193 149.429 215.108 148.992C215.023 148.544 214.863 148.144 214.628 147.792C214.404 147.44 214.095 147.152 213.7 146.928C213.305 146.704 212.804 146.592 212.196 146.592ZM219.435 144.8H226.075V146.752H221.627V149.36H225.675V151.312H221.627V154.048H226.155V156H219.435V144.8ZM227.763 150.4C227.763 148.533 228.173 147.099 228.995 146.096C229.816 145.083 230.989 144.576 232.515 144.576C233.315 144.576 234.013 144.715 234.611 144.992C235.208 145.269 235.704 145.664 236.099 146.176C236.493 146.688 236.787 147.301 236.979 148.016C237.171 148.731 237.267 149.525 237.267 150.4C237.267 152.267 236.851 153.707 236.019 154.72C235.197 155.723 234.029 156.224 232.515 156.224C231.704 156.224 231 156.085 230.403 155.808C229.805 155.531 229.309 155.136 228.915 154.624C228.531 154.112 228.243 153.499 228.051 152.784C227.859 152.069 227.763 151.275 227.763 150.4ZM230.067 150.4C230.067 150.965 230.115 151.488 230.211 151.968C230.307 152.437 230.451 152.843 230.643 153.184C230.845 153.525 231.101 153.792 231.411 153.984C231.72 154.176 232.088 154.272 232.515 154.272C233.293 154.272 233.896 153.968 234.323 153.36C234.749 152.752 234.963 151.765 234.963 150.4C234.963 149.856 234.915 149.349 234.819 148.88C234.733 148.411 234.595 148 234.403 147.648C234.211 147.296 233.96 147.024 233.651 146.832C233.341 146.629 232.963 146.528 232.515 146.528C231.736 146.528 231.133 146.843 230.707 147.472C230.28 148.091 230.067 149.067 230.067 150.4Z" fill="white"/>
<path d="M336 45L183.5 -16.5L340.5 -28L336 45Z" fill="white"/>
<path d="M382.749 164.439L293.5 0.000488281L382.749 0.000488281V164.439Z" fill="#0061A8"/>
<path d="M257 206.694L298.746 110.984L382.747 146.621V206.694H257Z" fill="#7BC9EB"/>
<path d="M314.039 215.506L384.766 168.992V215.506H314.039Z" fill="#262F69"/>
<path d="M382.749 25.4549V0L356.785 0L382.749 25.4549Z" fill="#262F69"/>
<path d="M298.75 110.984L324.5 56.5L374.097 143.057L298.75 110.984Z" fill="#23A4DE"/>
<path d="M-106.22 111.329L152.703 -0.877441L75.6622 -75.7701L-106.22 111.329Z" fill="#262F69"/>
<path d="M-9.88283 298.497L48.4815 143.422L-86.5128 91.0582L-152.959 159.41L-9.88283 298.497Z" fill="#7BC9EB"/>
<path d="M48.4802 143.417L92.5108 25.108L-72.725 96.5709L48.4802 143.417Z" fill="#23A4DE"/>
<path d="M90.5 213L-8.5 139V217.5L90.5 213Z" fill="#0061A8"/>
</g>
<defs>
<pattern id="pattern0" patternContentUnits="objectBoundingBox" width="1" height="1">
<use xlink:href="#image0" transform="scale(0.000244141 0.000390625)"/>
</pattern>
<clipPath id="clip0">
<rect width="376" height="203" fill="white"/>
</clipPath>
<clipPath id="clip1">
<rect width="144" height="138" fill="white" transform="translate(113 33)"/>
</clipPath>
</defs>
</svg>
