<svg width="36" height="36" viewBox="0 0 36 36" fill="none" xmlns="http://www.w3.org/2000/svg">
<path d="M8.4375 22.4987C8.28832 22.4987 8.14524 22.5579 8.03975 22.6634C7.93426 22.7689 7.875 22.912 7.875 23.0612V27.9362H11.25V23.0612C11.25 22.912 11.1907 22.7689 11.0852 22.6634C10.9798 22.5579 10.8367 22.4987 10.6875 22.4987H8.4375Z" fill="white"/>
<path d="M14.0625 20.9987C13.9133 20.9987 13.7702 21.0579 13.6648 21.1634C13.5593 21.2689 13.5 21.412 13.5 21.5612V27.9362H16.875V21.5612C16.875 21.412 16.8157 21.2689 16.7102 21.1634C16.6048 21.0579 16.4617 20.9987 16.3125 20.9987H14.0625Z" fill="white"/>
<path d="M19.6875 17.9986C19.5383 17.9986 19.3952 18.0579 19.2898 18.1634C19.1843 18.2689 19.125 18.4119 19.125 18.5611V27.9361H22.5V18.5611C22.5 18.4119 22.4407 18.2689 22.3352 18.1634C22.2298 18.0579 22.0867 17.9986 21.9375 17.9986H19.6875Z" fill="white"/>
<path d="M25.3125 13.4986C25.1633 13.4986 25.0202 13.5579 24.9148 13.6634C24.8093 13.7689 24.75 13.9119 24.75 14.0611V27.9361H28.125V14.0611C28.125 13.9119 28.0657 13.7689 27.9602 13.6634C27.8548 13.5579 27.7117 13.4986 27.5625 13.4986H25.3125Z" fill="white"/>
<path d="M29.0625 28.4986H6.5625C6.41332 28.4986 6.27024 28.5579 6.16475 28.6634C6.05926 28.7689 6 28.9119 6 29.0611C6 29.2103 6.05926 29.3534 6.16475 29.4589C6.27024 29.5644 6.41332 29.6236 6.5625 29.6236H29.0625C29.2117 29.6236 29.3548 29.5644 29.4602 29.4589C29.5657 29.3534 29.625 29.2103 29.625 29.0611C29.625 28.9119 29.5657 28.7689 29.4602 28.6634C29.3548 28.5579 29.2117 28.4986 29.0625 28.4986Z" fill="white"/>
<path d="M7.875 20.0611C7.875 20.2103 7.93426 20.3533 8.03975 20.4588C8.14524 20.5643 8.28832 20.6236 8.4375 20.6236C11.4195 20.6236 15.8518 18.8617 20.0048 16.0256C22.0285 14.6435 23.8261 13.1056 25.2032 11.5784C26.1608 10.5161 26.9001 9.48224 27.4146 8.48751L27.7634 10.058C27.9451 10.7807 29.0046 10.5392 28.8616 9.81393L28.1116 6.43893C28.0934 6.36073 28.0589 6.28728 28.0102 6.22343C27.9616 6.15958 27.8999 6.10679 27.8294 6.06853C27.7588 6.03028 27.6809 6.00745 27.6008 6.00154C27.5208 5.99563 27.4404 6.00678 27.365 6.03426L24.365 7.15926C24.2958 7.1852 24.2324 7.22451 24.1785 7.27494C24.1245 7.32537 24.081 7.38595 24.0504 7.4532C23.9887 7.58901 23.9834 7.74379 24.0358 7.88348C24.0882 8.02316 24.1939 8.13632 24.3298 8.19804C24.4656 8.25977 24.6203 8.26502 24.76 8.21263L26.6354 7.50951C25.5719 9.89549 22.95 12.652 19.3702 15.0966C15.4547 17.7707 11.1632 19.4986 8.4375 19.4986C8.28832 19.4986 8.14524 19.5578 8.03975 19.6633C7.93426 19.7688 7.875 19.9119 7.875 20.0611Z" fill="white"/>
<path d="M6.66236 12.7634L7.42347 12.8572L7.67753 13.4679L7.20672 14.069C7.16429 14.1232 7.14319 14.191 7.14742 14.2597C7.15166 14.3284 7.18092 14.3931 7.22969 14.4417L8.58119 15.7873C8.62966 15.8356 8.69407 15.8645 8.76235 15.8687C8.83064 15.873 8.89812 15.8521 8.95215 15.8102L9.55712 15.3405L10.1723 15.594L10.2663 16.3507C10.2748 16.4188 10.3078 16.4814 10.3592 16.5268C10.4106 16.5722 10.4769 16.5973 10.5454 16.5973H12.4567C12.5253 16.5973 12.5915 16.5722 12.6429 16.5268C12.6943 16.4814 12.7273 16.4188 12.7358 16.3508L12.8297 15.594L13.4449 15.3403L14.0499 15.81C14.1039 15.852 14.1714 15.8728 14.2396 15.8686C14.3079 15.8644 14.3723 15.8354 14.4208 15.7872L15.7723 14.4416C15.821 14.393 15.8503 14.3283 15.8546 14.2596C15.8588 14.1909 15.8377 14.123 15.7953 14.0689L15.3245 13.4677L15.5785 12.857L16.3397 12.7633C16.4078 12.7549 16.4705 12.7219 16.516 12.6705C16.5614 12.6191 16.5865 12.5528 16.5865 12.4842V10.581C16.5865 10.5124 16.5614 10.4461 16.516 10.3947C16.4705 10.3433 16.4078 10.3103 16.3397 10.3019L15.5785 10.2081L15.3245 9.5975L15.7955 8.9967C15.8379 8.94252 15.859 8.87465 15.8548 8.80596C15.8505 8.73726 15.8212 8.67251 15.7725 8.62395L14.421 7.2784C14.3725 7.23014 14.3081 7.2012 14.2398 7.197C14.1715 7.1928 14.1041 7.21362 14.05 7.25558L13.4451 7.72526L12.8297 7.47148L12.736 6.71473C12.7275 6.64667 12.6945 6.58405 12.6431 6.53864C12.5917 6.49323 12.5254 6.46817 12.4569 6.46817H10.5454C10.4769 6.46817 10.4106 6.49323 10.3592 6.53864C10.3078 6.58405 10.2748 6.64667 10.2663 6.71473L10.1723 7.47148L9.55712 7.72522L8.95215 7.25553C8.89812 7.21356 8.83065 7.19273 8.76236 7.19693C8.69408 7.20114 8.62966 7.23008 8.58119 7.27836L7.22969 8.62395C7.18091 8.67251 7.15164 8.73727 7.1474 8.80596C7.14317 8.87466 7.16427 8.94252 7.20672 8.9967L7.67753 9.59778L7.42347 10.2084L6.66236 10.3022C6.59423 10.3106 6.53152 10.3436 6.48605 10.395C6.44057 10.4464 6.41547 10.5127 6.41547 10.5813V12.4844C6.4155 12.5531 6.44062 12.6193 6.48609 12.6707C6.53156 12.7221 6.59425 12.7551 6.66236 12.7634ZM10.4747 10.5128C10.6096 10.3784 10.7698 10.2719 10.9459 10.1994C11.122 10.1268 11.3107 10.0897 11.5012 10.0902C12.2596 10.0663 12.9757 10.7567 12.9522 11.533C12.9527 11.7227 12.9154 11.9106 12.8425 12.0858C12.7696 12.2609 12.6626 12.4198 12.5277 12.5532C12.2547 12.824 11.8857 12.9759 11.5012 12.9759C11.1167 12.9759 10.7478 12.824 10.4748 12.5532C10.3403 12.4196 10.2335 12.2606 10.1606 12.0855C10.0878 11.9104 10.0502 11.7227 10.0502 11.533C10.0502 11.3434 10.0878 11.1556 10.1606 10.9805C10.2335 10.8054 10.3401 10.6464 10.4747 10.5128Z" fill="#23A4DE"/>
</svg>
