<svg width="36" height="36" viewBox="0 0 36 36" fill="none" xmlns="http://www.w3.org/2000/svg">
<path d="M25.8311 11.1015C25.4447 7.12123 22.0801 4 18.0001 4C13.9202 4 10.5558 7.12129 10.169 11.1015C7.55672 11.4731 5.54181 13.7246 5.54181 16.4379C5.54181 19.41 7.95987 21.828 10.932 21.828H17.1797V15.8243L16.0943 16.9096C15.774 17.2299 15.2546 17.2299 14.9342 16.9096C14.6139 16.5893 14.6139 16.0699 14.9342 15.7496L17.42 13.2637C17.7404 12.9434 18.2598 12.9434 18.5801 13.2637L21.066 15.7496C21.3864 16.0699 21.3864 16.5893 21.066 16.9096C20.9058 17.0698 20.6959 17.1499 20.4859 17.1499C20.276 17.1499 20.066 17.0698 19.9059 16.9096L18.8203 15.824V21.8281H25.0681C28.0403 21.8281 30.4583 19.41 30.4583 16.4379C30.4583 13.7246 28.4434 11.4731 25.8311 11.1015Z" fill="white"/>
<path d="M20.1477 23.4686H15.8525C15.8625 24.6446 16.8219 25.5984 18.0001 25.5984C19.1785 25.5984 20.1379 24.6446 20.1477 23.4686Z" fill="#14A4E0"/>
<path d="M18.0001 27.157C15.9448 27.157 14.2676 25.5113 14.2141 23.4686H8.34265C8.37798 23.7873 8.42638 24.1043 8.49014 24.4172C8.56802 24.7993 8.90402 25.0738 9.29394 25.0738H10.7774C10.8203 25.1843 10.8658 25.2938 10.9137 25.4023L9.8645 26.4515C9.58871 26.7272 9.54518 27.159 9.76048 27.4843C10.1559 28.0818 10.6144 28.6427 11.1232 29.1515C11.6325 29.6608 12.1935 30.1193 12.7906 30.5142C13.1157 30.7295 13.5474 30.6858 13.8232 30.4101L14.8723 29.3609C14.9808 29.4089 15.0903 29.4544 15.201 29.4973V30.9807C15.201 31.3706 15.4754 31.7066 15.8575 31.7845C16.559 31.9274 17.2799 31.9999 18.0001 31.9999C18.7204 31.9999 19.4413 31.9275 20.1428 31.7845C20.525 31.7066 20.7994 31.3706 20.7994 30.9807L20.7994 29.4973C20.91 29.4544 21.0195 29.4089 21.1279 29.361L22.1769 30.4099C22.4526 30.6856 22.8842 30.7291 23.2094 30.5142C23.8063 30.1194 24.3674 29.6609 24.877 29.1513C25.3863 28.6419 25.8447 28.081 26.2397 27.484C26.4548 27.1588 26.4113 26.7271 26.1356 26.4514L25.0865 25.4024C25.1345 25.294 25.18 25.1844 25.2229 25.0738H26.7061C27.096 25.0738 27.432 24.7993 27.5099 24.4172C27.5736 24.1043 27.6221 23.7873 27.6574 23.4686H21.7863C21.7328 25.5114 20.0556 27.157 18.0001 27.157Z" fill="#23A4DE"/>
</svg>
