<svg width="36" height="36" viewBox="0 0 36 36" fill="none" xmlns="http://www.w3.org/2000/svg">
<path d="M5.21594 8.11558L8.05322 6.8996H27.9142L30.3461 8.11558V22.7073L28.3195 24.3286L7.24257 24.7339L5.21594 22.7073V8.11558Z" fill="#23A4DE"/>
<path d="M7.22994 25.3796C5.44895 25.3796 4 23.9307 4 22.1497H5.77573H29.7864H31.5621C31.5621 23.9307 30.1132 25.3796 28.3322 25.3796H18.8577V27.5329H24.4563V29.3086H11.1059V27.5329H16.7044V25.3796H7.22994Z" fill="#23A4DE"/>
<path d="M7.22994 6H28.3322C30.1132 6 31.5621 7.44895 31.5621 9.22994V22.1497H29.7864H5.77573H4V9.22994C4 7.44895 5.44895 6 7.22994 6Z" fill="white"/>
</svg>
