<svg width="36" height="36" viewBox="0 0 36 36" fill="none" xmlns="http://www.w3.org/2000/svg">
<path d="M18 19.4973C16.0195 19.4973 14.2676 20.5484 13.3383 22.2242C14.5723 23.382 16.2024 24.0676 18 24.0676C19.7976 24.0676 21.4278 23.382 22.6618 22.2242C21.7324 20.5484 19.9805 19.4973 18 19.4973Z" fill="#23A4DE"/>
<path d="M21.8086 15.6887C21.8086 13.5888 20.0999 11.8801 18 11.8801C15.9001 11.8801 14.1914 13.5888 14.1914 15.6887C14.1914 17.7886 15.9001 19.4973 18 19.4973C20.0999 19.4973 21.8086 17.7886 21.8086 15.6887Z" fill="#23A4DE"/>
<path fill-rule="evenodd" clip-rule="evenodd" d="M27.6873 11.9531C28.3584 13.025 28.8404 14.1892 29.1253 15.4254L31 15.8815V20.1185L29.1253 20.5746C28.8404 21.8108 28.3584 22.975 27.6873 24.0469L28.6537 25.6588L25.6588 28.6537L24.0469 27.6873C22.975 28.3584 21.8108 28.8404 20.5746 29.1253L20.1185 31H15.8815L15.4254 29.1253C14.1892 28.8404 13.025 28.3584 11.9531 27.6873L10.3412 28.6537L7.34625 25.6588L8.31268 24.0469C7.64162 22.975 7.15959 21.8108 6.87474 20.5746L5 20.1185V15.8815L6.87474 15.4254C7.15959 14.1892 7.64162 13.025 8.31268 11.9531L7.34625 10.3412L10.3412 7.34625L11.9531 8.31268C13.025 7.64162 14.1892 7.15959 15.4254 6.87474L15.8815 5H20.1185L20.5746 6.87474C21.8108 7.15959 22.975 7.64162 24.0469 8.31268L25.6588 7.34625L28.6537 10.3412L27.6873 11.9531ZM18 27.0606C23.0041 27.0606 27.0606 23.004 27.0606 18C27.0606 12.996 23.0041 8.93939 18 8.93939C12.996 8.93939 8.93941 12.996 8.93941 18C8.93941 23.004 12.996 27.0606 18 27.0606Z" fill="white"/>
</svg>
