<svg width="36" height="36" viewBox="0 0 36 36" fill="none" xmlns="http://www.w3.org/2000/svg">
<path d="M18.5 11.9102C16.3192 11.9102 14.5449 10.1359 14.5449 7.95508C14.5449 5.77425 16.3192 4 18.5 4C20.6808 4 22.4551 5.77425 22.4551 7.95508C22.4551 10.1359 20.6808 11.9102 18.5 11.9102Z" fill="white"/>
<path d="M5.52936 26.5967C4.43892 24.708 5.08835 22.2844 6.97703 21.1939C8.86581 20.1035 11.2894 20.753 12.3798 22.6416C13.4727 24.5346 12.8254 26.9513 10.9321 28.0443C9.03145 29.1417 6.61284 28.4733 5.52936 26.5967Z" fill="white"/>
<path d="M26.0679 28.0445C24.1748 26.9515 23.5272 24.535 24.6202 22.6417C25.7106 20.7531 28.1343 20.1036 30.023 21.1941C31.9116 22.2844 32.561 24.7081 31.4706 26.5968C30.3851 28.477 27.9643 29.1394 26.0679 28.0445Z" fill="white"/>
<path d="M8.23261 18.5067L6.65295 18.4198C6.75621 16.5445 7.31213 14.6993 8.26067 13.0834C9.18294 11.5122 10.4763 10.1532 12.001 9.15334L12.8685 10.4762C10.1442 12.263 8.41112 15.265 8.23261 18.5067Z" fill="#23A4DE"/>
<path d="M28.7674 18.5067C28.5889 15.265 26.8558 12.263 24.1315 10.4762L24.9991 9.15334C26.5237 10.1532 27.8171 11.5122 28.7393 13.0834C29.6879 14.6993 30.2438 16.5445 30.3471 18.4198L28.7674 18.5067Z" fill="#23A4DE"/>
<path d="M18.5 31.0001C16.6187 31.0001 14.8192 30.5725 13.1514 29.7289L13.8655 28.3172C15.3097 29.0477 16.869 29.4181 18.5 29.4181C20.131 29.4181 21.6903 29.0477 23.1345 28.3172L23.8486 29.729C22.1809 30.5725 20.3814 31.0001 18.5 31.0001Z" fill="#23A4DE"/>
</svg>
