<svg width="210" height="61" viewBox="0 0 210 61" fill="none" xmlns="http://www.w3.org/2000/svg">
<path d="M201.49 39.32V26.5H207.42C207.98 26.5 208.26 26.23 208.26 25.71V21.62C208.26 21.1 207.98 20.84 207.42 20.84H201.42L201.06 14.12C201.056 14.0156 201.031 13.9131 200.987 13.8189C200.942 13.7246 200.878 13.6406 200.799 13.5721C200.72 13.5036 200.628 13.4521 200.528 13.4207C200.429 13.3894 200.324 13.379 200.22 13.39H195.82C195.26 13.39 194.98 13.65 194.98 14.18V39.77C194.938 41.3942 195.213 43.0111 195.79 44.53C196.252 45.7283 196.986 46.8033 197.933 47.6708C198.88 48.5382 200.016 49.1746 201.25 49.53C202.576 49.9294 203.955 50.1282 205.34 50.12H206.77L208.31 50.04C208.429 50.0354 208.547 50.0054 208.653 49.9519C208.76 49.8985 208.855 49.8228 208.93 49.73C209.04 49.5531 209.095 49.348 209.09 49.14V44.86C209.09 44.34 208.79 44.08 208.2 44.08C207.61 44.08 207.32 44.15 206.91 44.16H205.91C205.306 44.1992 204.701 44.1068 204.137 43.8892C203.572 43.6717 203.061 43.3342 202.64 42.9C201.812 41.8865 201.401 40.5958 201.49 39.29V39.32ZM187.34 10.2C186.992 9.86385 186.58 9.60188 186.128 9.42997C185.676 9.25807 185.193 9.17983 184.71 9.20001C183.736 9.1718 182.79 9.53145 182.08 10.2C181.724 10.5369 181.444 10.9455 181.257 11.3989C181.071 11.8524 180.983 12.3401 181 12.83C180.993 13.3178 181.084 13.8019 181.268 14.2539C181.452 14.7058 181.724 15.1164 182.069 15.4613C182.414 15.8062 182.824 16.0785 183.276 16.2621C183.728 16.4456 184.212 16.5367 184.7 16.53C185.189 16.5478 185.676 16.4617 186.13 16.2772C186.583 16.0928 186.992 15.8142 187.33 15.46C187.999 14.7504 188.358 13.8045 188.33 12.83C188.35 12.3467 188.272 11.8644 188.1 11.4123C187.928 10.9602 187.666 10.5478 187.33 10.2H187.34ZM187.11 49.46C187.63 49.46 187.89 49.18 187.89 48.62V21.23C187.905 21.1241 187.895 21.0161 187.861 20.9146C187.827 20.8131 187.77 20.7209 187.695 20.6453C187.619 20.5696 187.527 20.5126 187.425 20.4787C187.324 20.4448 187.216 20.435 187.11 20.45H182.24C181.68 20.45 181.4 20.71 181.4 21.23V48.62C181.383 48.7342 181.393 48.8508 181.43 48.9604C181.466 49.07 181.527 49.1695 181.609 49.2512C181.69 49.3328 181.79 49.3942 181.9 49.4305C182.009 49.4667 182.126 49.4768 182.24 49.46H187.11ZM159 44C158.144 43.7373 157.332 43.3498 156.59 42.85V26.27C157.358 25.946 158.17 25.7403 159 25.66C159.945 25.5424 160.897 25.4856 161.85 25.49C163.547 25.3858 165.225 25.8932 166.58 26.92C167.72 27.8667 168.29 29.5533 168.29 31.98V38.26C168.363 39.111 168.254 39.9678 167.969 40.7732C167.685 41.5786 167.232 42.3139 166.64 42.93C165.322 43.9959 163.652 44.5277 161.96 44.42C160.944 44.4355 159.932 44.2939 158.96 44H159ZM150.05 22.69V59.26C150.033 59.3742 150.043 59.4908 150.08 59.6004C150.116 59.71 150.177 59.8095 150.259 59.8912C150.34 59.9728 150.44 60.0342 150.55 60.0705C150.659 60.1067 150.776 60.1168 150.89 60.1H155.71C155.824 60.1168 155.941 60.1067 156.05 60.0705C156.16 60.0342 156.26 59.9728 156.341 59.8912C156.423 59.8095 156.484 59.71 156.52 59.6004C156.557 59.4908 156.567 59.3742 156.55 59.26V48.9C157.443 49.283 158.371 49.581 159.32 49.79C160.357 50.0236 161.417 50.1377 162.48 50.13C164.184 50.1533 165.878 49.8687 167.48 49.29C168.931 48.7635 170.263 47.9546 171.4 46.91C172.523 45.8588 173.41 44.5805 174 43.16C174.636 41.5709 174.948 39.8712 174.92 38.16V32C174.958 30.1214 174.618 28.2544 173.92 26.51C173.321 25.0541 172.401 23.7518 171.23 22.7C170.042 21.6696 168.648 20.9058 167.14 20.46C165.478 19.9685 163.753 19.7259 162.02 19.74C160.085 19.7464 158.154 19.9237 156.25 20.27C154.361 20.5903 152.507 21.0857 150.71 21.75C150.52 21.8082 150.356 21.9287 150.243 22.0921C150.131 22.2555 150.077 22.4521 150.09 22.65L150.05 22.69ZM127.29 38C128.667 37.2231 130.244 36.8749 131.82 37C132.68 37 133.62 37 134.62 37.14C135.62 37.28 136.51 37.34 137.26 37.45V43.8C136.431 44.013 135.589 44.1733 134.74 44.28C133.792 44.4064 132.836 44.4698 131.88 44.47C130.409 44.5227 128.947 44.2172 127.62 43.58C127.09 43.3213 126.648 42.912 126.349 42.4033C126.05 41.8946 125.908 41.3091 125.94 40.72C125.92 40.19 126.034 39.6635 126.269 39.1885C126.505 38.7134 126.856 38.3048 127.29 38ZM121.13 23.7L123.37 27.11C123.411 27.2161 123.478 27.3102 123.565 27.3836C123.652 27.4571 123.756 27.5075 123.867 27.5304C123.979 27.5533 124.094 27.5479 124.203 27.5146C124.312 27.4813 124.41 27.4213 124.49 27.34C125.49 26.7666 126.563 26.3326 127.68 26.05C128.984 25.6997 130.33 25.5281 131.68 25.54C133.77 25.54 135.22 25.98 136.04 26.86C136.98 28.1017 137.422 29.6494 137.28 31.2V32.26C136.42 32.15 135.5 32.05 134.53 31.96C133.583 31.8645 132.632 31.8177 131.68 31.82C130.021 31.8014 128.367 31.9793 126.75 32.35C125.355 32.6511 124.029 33.2107 122.84 34C121.769 34.7052 120.892 35.668 120.29 36.8C119.661 38.0374 119.352 39.4125 119.39 40.8C119.328 42.3358 119.673 43.8607 120.39 45.22C121.059 46.3955 122.011 47.3854 123.16 48.1C124.389 48.857 125.744 49.3887 127.16 49.67C128.705 49.9955 130.281 50.1564 131.86 50.15C133.904 50.1535 135.945 49.9829 137.96 49.64C139.704 49.3641 141.428 48.9732 143.12 48.47C143.314 48.3886 143.477 48.2482 143.587 48.0687C143.696 47.8891 143.746 47.6797 143.73 47.47V31.14C143.769 29.3961 143.484 27.6601 142.89 26.02C142.39 24.6699 141.574 23.4594 140.51 22.49C139.435 21.5698 138.178 20.8881 136.82 20.49C135.283 20.0277 133.685 19.8018 132.08 19.82C129.994 19.7956 127.915 20.058 125.9 20.6C124.193 21.0552 122.574 21.792 121.11 22.78C120.85 23.0067 120.85 23.34 121.11 23.78L121.13 23.7ZM108.11 32.78H96.54V31.2C96.54 29.15 97.1 27.68 98.2 26.8C99.3779 25.9024 100.83 25.4396 102.31 25.49C103.772 25.4575 105.203 25.919 106.37 26.8C107.51 27.68 108.08 29.1467 108.08 31.2L108.11 32.78ZM114.44 31.38C114.501 29.571 114.159 27.771 113.44 26.11C112.816 24.7375 111.889 23.5239 110.73 22.56C109.589 21.6383 108.272 20.9579 106.86 20.56C105.405 20.1314 103.896 19.9159 102.38 19.92C100.854 19.918 99.3353 20.1335 97.87 20.56C96.4382 20.9619 95.0995 21.6414 93.93 22.56C92.7379 23.5141 91.7801 24.7284 91.13 26.11C90.374 27.7209 89.9879 29.4805 90 31.26V39.21C89.9473 40.8796 90.29 42.538 91 44.05C91.653 45.3677 92.5885 46.5252 93.74 47.44C94.9105 48.3454 96.24 49.0237 97.66 49.44C99.1427 49.884 100.682 50.1097 102.23 50.11C104.389 50.1589 106.54 49.8202 108.58 49.11C110.388 48.4424 112.077 47.4867 113.58 46.28C114.07 45.91 114.13 45.52 113.75 45.11L111.5 42C111.445 41.9065 111.37 41.8264 111.28 41.7656C111.19 41.7048 111.088 41.6649 110.98 41.6486C110.873 41.6323 110.764 41.6401 110.66 41.6715C110.556 41.7029 110.46 41.757 110.38 41.83C109.32 42.5552 108.187 43.1685 107 43.66C105.569 44.1992 104.048 44.4573 102.52 44.42C100.978 44.4971 99.4562 44.0417 98.21 43.13C97.6538 42.658 97.2164 42.0618 96.9333 41.3895C96.6501 40.7172 96.5291 39.9877 96.58 39.26V37.7H113.58C114.14 37.7 114.42 37.43 114.42 36.91L114.44 31.38ZM70.35 15.63C72.96 15.63 74.9 16.16 76.15 17.23C77.4 18.3 78 20 78 22.24C78.0826 23.1603 77.9574 24.0873 77.6337 24.9527C77.3101 25.8181 76.7962 26.5998 76.13 27.24C74.88 28.3 72.94 28.83 70.33 28.83H63.33V15.63H70.35ZM85.35 49.46C85.4687 49.4709 85.5883 49.4508 85.6969 49.4017C85.8056 49.3526 85.8997 49.2763 85.97 49.18C86.08 48.99 86.04 48.75 85.85 48.45L75.62 34.11C78.3078 33.4884 80.7176 32.0024 82.48 29.88C84.1551 27.6711 85.0138 24.9503 84.91 22.18C84.91 18.18 83.64 15.0467 81.1 12.78C78.56 10.5133 74.9767 9.39334 70.35 9.42H57.35C56.83 9.42 56.57 9.7 56.57 10.26V48.62C56.57 49.18 56.83 49.46 57.35 49.46H62.5C63.02 49.46 63.29 49.18 63.29 48.62V34.84H68.29L78.09 48.9C78.1845 49.0802 78.3293 49.2291 78.5069 49.3285C78.6844 49.4279 78.887 49.4736 79.09 49.46H85.35Z" fill="black"/>
<path d="M29.03 49.4201L20.72 29.2101L0.539978 20.8101V49.4201H29.03Z" fill="#262F69"/>
<path d="M40.93 49.42V38.29V37.57L20.7 29.22L29.03 49.42H40.93Z" fill="#0061A8"/>
<path d="M0.539978 20.8101L20.7 29.2201L12.38 9.05005L0.539978 20.8101Z" fill="#7BC9EB"/>
<path d="M40.93 20.81L20.76 0.660034L17.63 3.78003L12.37 9.06004L20.7 29.22L40.93 37.57V20.81Z" fill="#23A4DE"/>
</svg>
