<svg width="263" height="171" viewBox="0 0 263 171" fill="none" xmlns="http://www.w3.org/2000/svg">
<path fill-rule="evenodd" clip-rule="evenodd" d="M177.637 0.592529C224.495 0.592529 262.483 38.5799 262.483 85.4379C262.483 132.297 224.495 170.283 177.637 170.283C141.115 170.283 109.981 147.205 98.0238 114.837H72.0094C70.577 114.837 69.2733 114.254 68.3298 113.319C67.4223 112.403 66.8459 111.147 66.8134 109.763C66.7439 106.843 64.5267 104.441 61.6053 104.441H45.9177C44.4853 104.441 43.1816 105.024 42.2381 105.959C41.3032 106.903 40.7199 108.207 40.7199 109.639C40.7199 112.512 38.3869 114.837 35.5222 114.837H0V56.0317H98.0265C109.986 23.667 141.117 0.592529 177.637 0.592529ZM209.865 61.3806C196.571 61.3806 185.808 72.1535 185.808 85.4379C185.808 98.7222 196.571 109.495 209.865 109.495C223.149 109.495 233.913 98.7222 233.913 85.4379C233.913 72.1535 223.149 61.3806 209.865 61.3806Z" fill="#7e9bfa"/>
</svg>
