<svg width="49" height="52" viewBox="0 0 49 52" fill="none" xmlns="http://www.w3.org/2000/svg">
<path d="M47.6096 24.4635C46.0723 24.212 44.5811 23.8589 43.1773 23.4139C32.887 20.1522 26.958 11.8946 24.8674 1.16767C24.669 0.151447 23.1985 0.176976 23.0356 1.19964C21.0425 13.7416 13.837 22.7121 1.18405 25.2897C0.177765 25.4947 0.203436 26.9495 1.21652 27.1188C13.834 29.2256 21.4767 37.9202 23.897 50.2853C24.0494 51.0643 24.8746 51.0539 24.8272 51.0366C25.2783 51.0282 25.6586 50.6969 25.7287 50.2514C26.7391 43.8354 29.7375 35.0904 38.2855 29.8659C41.0163 28.1984 44.1649 26.9966 47.6437 26.2934C48.0839 26.2045 48.3979 25.8135 48.3895 25.3644C48.3811 24.9151 48.0529 24.536 47.6096 24.4635Z" fill="var(--info-graphic-accent-color-bright)"/>
</svg>
