<svg width="72" height="71" viewBox="0 0 72 71" fill="none" xmlns="http://www.w3.org/2000/svg">
<path d="M43.8953 59.8596L33.2758 63.7216L32.8732 65.157C32.3015 67.2 30.1294 68.871 28.0469 68.871V69.8365H50.0708L43.8953 59.8596Z" fill="#31448F"/>
<path d="M48.0857 65.1571L46.6015 59.8597L40.4802 55.9977L34.359 59.8597L33.2773 63.7217H43.8968L44.2994 65.1571C44.8711 67.2 47.0432 68.871 49.1257 68.871L51.0189 69.8365L52.9121 68.871C50.8296 68.871 48.6575 67.2 48.0857 65.1571Z" fill="#262F69"/>
<path fill-rule="evenodd" clip-rule="evenodd" d="M12.9016 61.6416C10.8191 61.6416 9.11523 59.9037 9.11523 57.7796V50.0555L68.056 34.6075V46.1938L71.8421 50.0556V57.7796C71.8421 59.9037 70.1383 61.6416 68.0558 61.6416H64.2694V61.6416H12.9016Z" fill="#31448F"/>
<path fill-rule="evenodd" clip-rule="evenodd" d="M68.056 50.0555H68.0558H9.11523V15.2975C9.11523 13.1734 10.8191 11.4355 12.9016 11.4355H64.2694H64.2697H68.0558C70.1383 11.4355 71.8421 13.1734 71.8421 15.2975V50.0555H68.056Z" fill="#23A4DE"/>
<path d="M40.4791 57.7796C41.5247 57.7796 42.3723 56.9151 42.3723 55.8486C42.3723 54.7821 41.5247 53.9176 40.4791 53.9176C39.4335 53.9176 38.5859 54.7821 38.5859 55.8486C38.5859 56.9151 39.4335 57.7796 40.4791 57.7796Z" fill="white"/>
<path d="M60.0409 70.802H20.9153C20.3926 70.802 19.9688 70.3698 19.9688 69.8365C19.9688 69.3031 20.3926 68.871 20.9153 68.871H60.0409C60.5637 68.871 60.9875 69.3031 60.9875 69.8365C60.9875 70.3698 60.5637 70.802 60.0409 70.802Z" fill="#31448F"/>
<rect x="15.3184" y="32.0573" width="12.4076" height="12.7961" rx="3" fill="#7BC9EB"/>
<rect x="34.6191" y="32.0573" width="12.4076" height="12.7961" rx="3" fill="#7BC9EB"/>
<rect x="61" y="27" width="5" height="18" rx="2.5" fill="#7BC9EB"/>
<path d="M56.8501 27.6571C57.1084 28.1093 56.9529 28.6904 56.5033 28.9531L46.9317 34.2606C46.6924 34.3933 46.3909 34.309 46.2551 34.0714L45.8151 33.3012C45.6767 33.0589 45.7634 32.7502 46.0077 32.6154L54.3074 28.0352C54.5517 27.9004 54.6384 27.5917 54.5 27.3495L52.5705 23.9721C52.3122 23.52 52.4677 22.9388 52.9173 22.6761L60.2898 18.3675C60.6734 18.1433 60.5959 17.5676 60.1668 17.4528L57.6457 16.7783C57.3789 16.7069 57.2205 16.4328 57.2919 16.166L57.5239 15.2989C57.5953 15.0321 57.8694 14.8737 58.1361 14.9451L64.0022 16.5146C64.0045 16.5152 64.0058 16.5175 64.0052 16.5198C64.0046 16.5221 64.006 16.5244 64.0083 16.525C64.4969 16.6435 64.7976 17.1385 64.6799 17.6329C64.6762 17.6466 64.6725 17.6604 64.6686 17.6751L63.0812 23.608C63.0098 23.8748 62.7357 24.0331 62.469 23.9618L61.6198 23.7346C61.353 23.6632 61.1946 23.3891 61.266 23.1223L61.9472 20.5763C62.0627 20.1448 61.5975 19.79 61.2119 20.0154L55.0964 23.5894C54.8596 23.7277 54.7785 24.031 54.9145 24.2691L56.8501 27.6571Z" fill="#7BC9EB"/>
<rect x="55" y="32" width="5" height="13" rx="2.5" fill="#7BC9EB"/>
<rect x="49" y="37" width="5" height="8" rx="2.5" fill="#7BC9EB"/>
<path d="M40.2201 11.5453C36.6913 2.76525 26.9663 -1.38616 18.4987 2.27291C12.709 4.77476 8.77234 10.4451 8.32124 16.9322C3.42833 17.6338 0.0103106 22.3156 0.686967 27.3892C1.2993 31.98 5.08601 35.3973 9.55548 35.3927H40.22C46.5708 35.3927 51.7192 30.0542 51.7192 23.469C51.7192 16.8838 46.571 11.5453 40.2201 11.5453Z" fill="white"/>
<path d="M49.6184 27.21C49.6184 27.21 48.1546 26.5941 47.707 25.4889C47.2572 24.3822 47.8578 22.8724 47.8578 22.8724C47.9878 22.5438 47.9112 22.0551 47.6872 21.7869L46.1202 20.1849C45.8589 19.9545 45.386 19.8802 45.0699 20.0172C45.0699 20.0172 43.6161 20.6524 42.5422 20.1971C41.4667 19.7435 40.8601 18.2368 40.8601 18.2368C40.7281 17.9092 40.34 17.6207 39.9978 17.5967L37.7937 17.606C37.4519 17.6353 37.0659 17.9286 36.9366 18.2576C36.9366 18.2576 36.3431 19.7683 35.273 20.2335C34.2028 20.6987 32.743 20.0788 32.743 20.0788C32.4252 19.9437 31.9534 20.0235 31.6939 20.2551L30.1441 21.8758C29.9213 22.1461 29.8488 22.6352 29.9819 22.962C29.9819 22.962 30.596 24.4642 30.1571 25.5745C29.717 26.685 28.2614 27.314 28.2614 27.314C27.9448 27.4511 27.6666 27.853 27.6427 28.207L27.652 30.485C27.6805 30.8391 27.9635 31.2377 28.2816 31.3714C28.2816 31.3714 29.7432 31.9864 30.191 33.092C30.6407 34.1974 30.0401 35.7073 30.0401 35.7073C29.9101 36.0359 29.9866 36.5238 30.2114 36.7927L31.7782 38.394C32.0391 38.6251 32.512 38.7 32.828 38.5624C32.828 38.5624 34.2829 37.9297 35.3565 38.3823C36.4301 38.8362 37.0379 40.3434 37.0379 40.3434C37.1705 40.6709 37.5585 40.9586 37.9015 40.9839L40.103 40.9732C40.4453 40.9437 40.8308 40.6512 40.9615 40.322C40.9615 40.322 41.5564 38.8123 42.6253 38.3473C43.6948 37.8823 45.1555 38.5032 45.1555 38.5032C45.4733 38.6383 45.945 38.5586 46.2045 38.3269L47.7539 36.7077C47.9767 36.4381 48.0493 35.9496 47.9167 35.6221C47.9167 35.6221 47.3033 34.1165 47.741 33.0063C48.181 31.8946 49.6385 31.2665 49.6385 31.2665C49.9547 31.1301 50.2334 30.7282 50.2573 30.3742L50.2481 28.0968C50.2194 27.7424 49.936 27.3438 49.6184 27.21ZM43.0541 31.0233C42.1264 33.3663 39.5397 34.4911 37.2736 33.5324C35.0076 32.575 33.9215 29.8978 34.846 27.5554C35.7729 25.2113 38.3619 24.0887 40.627 25.0448C42.8927 26.0043 43.9788 28.6808 43.0541 31.0233Z" fill="#FFB71B"/>
</svg>
