<svg width="66" height="66" viewBox="0 0 66 66" fill="none" xmlns="http://www.w3.org/2000/svg">
<path d="M0.0967598 59.2785V64.8622C0.0967598 65.4908 0.594353 66 1.20869 66H41.7943C42.4087 66 42.9062 65.4908 42.9062 64.8622V59.2785C42.9062 53.4203 38.2653 48.6742 32.5388 48.6728C30.5151 48.6714 28.7333 47.6061 27.7075 45.9905C26.677 44.37 26.7832 42.9608 26.7832 41.8219L26.7623 41.7693C31.7522 39.6558 35.2617 34.6253 35.2617 28.7557V28.3106C37.243 28.3106 38.7365 26.7084 38.7365 24.8204V18.9096C38.781 16.8516 38.6892 9.59388 33.566 4.54066C27.6088 -1.33462 18.1685 -0.853902 11.3301 2.28925C11.1077 2.39165 11.1146 2.71735 11.3398 2.81264L13.1231 3.56358C13.3899 3.67594 13.333 4.07843 13.0466 4.10972L12.1807 4.20501C7.5217 4.71417 3.64522 7.56008 1.71185 10.9322C1.69378 10.9649 1.69933 11.0076 1.72574 11.036C3.26577 12.6432 4.12753 14.8064 4.12753 17.0592V24.6142C4.12753 26.6523 5.74122 28.3106 7.74131 28.3106V28.7557C7.74131 34.6253 11.2509 39.6558 16.2407 41.7693L16.2198 41.8219C16.2198 42.9285 16.3346 44.3565 15.2955 45.9905C14.2698 47.6061 12.4879 48.6714 10.4642 48.6728C4.7377 48.6742 0.0967598 53.4203 0.0967598 59.2785Z" fill="#FFE5C7"/>
<path d="M1.71257 10.9321C1.69408 10.9644 1.69964 11.0076 1.7266 11.0358C3.26566 12.6435 4.12769 14.807 4.12769 17.0593V24.6142C4.12769 26.6521 5.74097 28.3106 7.74148 28.3106C7.74148 24.0068 7.73912 21.7576 7.73995 20.5487C7.74051 19.7854 8.46118 19.2369 9.17407 19.4613C11.4149 20.1667 14.0288 20.5303 16.7758 19.9194C21.6099 18.8442 22.979 16.9057 26.9222 15.9371C31.3283 14.8562 35.3243 18.3094 35.2965 22.7269C35.2881 24.179 35.2645 25.9938 35.2617 28.3106C37.2431 28.3106 38.7365 26.7085 38.7365 24.8204V18.9096C38.781 16.8516 38.6893 9.59392 33.566 4.5407C27.6094 -1.33472 18.1681 -0.853719 11.3308 2.28972C11.1084 2.39198 11.1143 2.71781 11.3398 2.81282L13.1232 3.56405C13.3898 3.6764 13.3337 4.07847 13.0471 4.1099L12.1809 4.20505C7.52145 4.71478 3.64525 7.55969 1.71257 10.9321Z" fill="var(--info-graphic-accent-color-darkest)"/>
<path d="M9.17419 19.4613C8.4613 19.2368 7.74063 19.7848 7.74007 20.548C7.7391 21.7988 7.7416 24.1619 7.7416 28.7557C7.7416 34.6253 11.2511 39.6558 16.2409 41.7693C25.2639 45.6018 35.262 38.7934 35.262 28.7557C35.262 26.16 35.2876 24.3158 35.2967 22.7269C35.3245 18.3094 31.3285 14.8562 26.9225 15.9371C22.9793 16.9056 21.6102 18.8441 16.7761 19.9194C14.0289 20.5301 11.415 20.1667 9.17419 19.4613Z" fill="#FFE5C7"/>
<path d="M0.0967598 59.2785V64.8622C0.0967598 65.4906 0.594631 66 1.20869 66H41.7943C42.4084 66 42.9062 65.4906 42.9062 64.8622V59.2785C42.9062 53.4203 38.2646 48.675 32.5395 48.6728C30.5153 48.6721 28.733 47.6056 27.7075 45.9905C24.1279 49.1197 18.8772 49.1215 15.2955 45.9905C14.2702 47.6056 12.4877 48.6721 10.4635 48.6728C4.7384 48.675 0.0967598 53.4203 0.0967598 59.2785Z" fill="var(--info-graphic-accent-color-light)"/>
<path d="M55.2495 61.9999H36.8211C36.8207 61.9999 36.8202 61.9999 36.8197 61.9999C35.4072 61.9957 34.2619 60.8503 34.2578 59.4377V20.5622C34.2619 19.1495 35.4074 18.004 36.82 18H55.2506C56.6632 18.004 57.8086 19.1494 57.8128 20.5619V59.4384C57.8079 60.8515 56.6633 61.9957 55.2509 61.9999C55.2504 61.9999 55.25 61.9999 55.2495 61.9999Z" fill="var(--info-graphic-accent-color-med)" stroke="var(--info-graphic-accent-color-darkest)" stroke-width="2"/>
<path d="M55.2519 63H36.8187C34.8548 62.9952 33.2626 61.403 33.2578 59.4391V54.929C44.9995 54.929 48.3641 54.929 58.8128 54.929V59.4403C58.8068 61.4042 57.2158 62.9952 55.2519 63Z" fill="var(--info-graphic-accent-color-dark)"/>
<rect x="37.8594" y="21.37" width="12.65" height="12.65" rx="1" fill="var(--info-graphic-accent-color-lightest)"/>
<rect x="37.8594" y="46.67" width="16.1" height="5.75001" rx="1" fill="var(--info-graphic-accent-color-lightest)"/>
<rect x="37.8594" y="36.3201" width="11.5" height="2.3" rx="1" fill="var(--info-graphic-accent-color-lightest)"/>
<rect x="37.8594" y="39.7701" width="16.1" height="2.3" rx="1" fill="var(--info-graphic-accent-color-lightest)"/>
<path d="M65.671 48.1578L61.1553 52.6735C60.7207 53.1096 60.0105 53.1123 59.5732 52.6735L56.1704 49.2699L54.3989 52.264C53.8963 53.1137 52.6115 52.9395 52.3559 51.9843L48.2229 36.5949C48.0001 35.7646 48.7615 35.0013 49.5938 35.2247L64.981 39.3577C65.9359 39.6132 66.1111 40.8968 65.2607 41.4014L62.2674 43.1715L65.671 46.5758C66.1073 47.0129 66.1073 47.7208 65.671 48.1578Z" fill="white"/>
<path d="M45.0165 35.6545C47.6477 35.0326 49.2765 32.3954 48.6546 29.7642C48.0326 27.133 45.3954 25.5042 42.7642 26.1261C40.133 26.7481 38.5042 29.3853 39.1262 32.0165C39.7481 34.6477 42.3853 36.2765 45.0165 35.6545Z" fill="var(--info-graphic-accent-color-bright)"/>
</svg>
