<svg width="24" height="24" viewBox="0 0 24 24" fill="none" xmlns="http://www.w3.org/2000/svg">
<path d="M19.0058 11.0041H7.4158L12.7158 5.71409C13.1079 5.32197 13.1079 4.68621 12.7158 4.29409C12.3237 3.90197 11.6879 3.90197 11.2958 4.29409L4.2958 11.2941C4.10649 11.4819 4 11.7375 4 12.0041C4 12.2707 4.10649 12.5263 4.2958 12.7141L11.2958 19.7141C11.4836 19.9034 11.7392 20.0099 12.0058 20.0099C12.2724 20.0099 12.528 19.9034 12.7158 19.7141C12.9051 19.5263 13.0116 19.2707 13.0116 19.0041C13.0116 18.7375 12.9051 18.4819 12.7158 18.2941L7.4158 13.0041H19.0058C19.5581 13.0041 20.0058 12.5564 20.0058 12.0041C20.0058 11.4518 19.5581 11.0041 19.0058 11.0041Z" fill="currentColor"/>
</svg>
