<svg width="24" height="24" viewBox="0 0 24 24" fill="none" xmlns="http://www.w3.org/2000/svg">
<path d="M19.7141 11.2958L12.7141 4.2958C12.5263 4.10649 12.2708 4 12.0041 4C11.7375 4 11.4819 4.10649 11.2941 4.2958L4.29411 11.2958C4.04046 11.5495 3.94139 11.9192 4.03424 12.2657C4.12708 12.6122 4.39773 12.8828 4.74424 12.9757C5.09074 13.0685 5.46046 12.9695 5.71411 12.7158L11.0041 7.4158V19.0058C11.0041 19.5581 11.4518 20.0058 12.0041 20.0058C12.5564 20.0058 13.0041 19.5581 13.0041 19.0058V7.4158L18.2941 12.7158C18.4819 12.9051 18.7375 13.0116 19.0041 13.0116C19.2708 13.0116 19.5263 12.9051 19.7141 12.7158C19.9034 12.528 20.0099 12.2724 20.0099 12.0058C20.0099 11.7392 19.9034 11.4836 19.7141 11.2958Z" fill="currentColor"/>
</svg>
