<svg width="24" height="24" viewBox="0 0 24 24" fill="none" xmlns="http://www.w3.org/2000/svg">
<path d="M19.7141 11.29C19.5263 11.1007 19.2707 10.9942 19.0041 10.9942C18.7375 10.9942 18.4819 11.1007 18.2941 11.29L13.0041 16.59V5C13.0041 4.44772 12.5564 4 12.0041 4C11.4518 4 11.0041 4.44772 11.0041 5V16.59L5.71409 11.29C5.32197 10.8979 4.68621 10.8979 4.29409 11.29C3.90197 11.6821 3.90197 12.3179 4.29409 12.71L11.2941 19.71C11.4819 19.8993 11.7375 20.0058 12.0041 20.0058C12.2707 20.0058 12.5263 19.8993 12.7141 19.71L19.7141 12.71C19.9034 12.5222 20.0099 12.2666 20.0099 12C20.0099 11.7334 19.9034 11.4778 19.7141 11.29Z" fill="currentColor"/>
</svg>
