<svg width="24" height="24" viewBox="0 0 24 24" fill="none" xmlns="http://www.w3.org/2000/svg">
<path d="M19.71 11.2941L12.71 4.29411C12.4563 4.04046 12.0866 3.94139 11.7401 4.03424C11.3936 4.12708 11.123 4.39773 11.0301 4.74424C10.9373 5.09074 11.0363 5.46046 11.29 5.71411L16.59 11.0041H5C4.44772 11.0041 4 11.4518 4 12.0041C4 12.5564 4.44772 13.0041 5 13.0041H16.59L11.29 18.2941C11.1007 18.4819 10.9942 18.7375 10.9942 19.0041C10.9942 19.2708 11.1007 19.5263 11.29 19.7141C11.4778 19.9034 11.7334 20.0099 12 20.0099C12.2666 20.0099 12.5222 19.9034 12.71 19.7141L19.71 12.7141C19.8993 12.5263 20.0058 12.2708 20.0058 12.0041C20.0058 11.7375 19.8993 11.4819 19.71 11.2941Z" fill="currentColor"/>
</svg>
