<svg width="24" height="24" viewBox="0 0 24 24" fill="none" xmlns="http://www.w3.org/2000/svg">
<path d="M9.00071 22.4237C6.16932 22.4237 3.61663 20.7183 2.53308 18.1024C1.44952 15.4866 2.04851 12.4756 4.05071 10.4736L11.1207 3.40356C13.0826 1.5087 16.2011 1.5358 18.1298 3.46447C20.0585 5.39314 20.0856 8.51167 18.1907 10.4736L11.1207 17.5436C9.93867 18.645 8.09667 18.6125 6.95422 17.47C5.81177 16.3276 5.77927 14.4856 6.88071 13.3036L13.9507 6.23356C14.1385 6.04425 14.3941 5.93776 14.6607 5.93776C14.9273 5.93776 15.1829 6.04425 15.3707 6.23356C15.7584 6.6236 15.7584 7.25352 15.3707 7.64356L8.29071 14.7236C7.90299 15.1136 7.90299 15.7435 8.29071 16.1336C8.47848 16.3229 8.73407 16.4294 9.00071 16.4294C9.26735 16.4294 9.52294 16.3229 9.71071 16.1336L16.7807 9.06356C17.8821 7.88152 17.8496 6.03952 16.7072 4.89707C15.5647 3.75462 13.7227 3.72212 12.5407 4.82356L5.47071 11.8936C3.57585 13.8555 3.60295 16.974 5.53162 18.9027C7.46029 20.8313 10.5788 20.8584 12.5407 18.9636L19.6607 11.8936C19.9051 11.6082 20.2888 11.4839 20.6541 11.5717C21.0194 11.6596 21.3046 11.9448 21.3925 12.3101C21.4804 12.6754 21.3561 13.0592 21.0707 13.3036L14.0007 20.3736C12.6756 21.6986 10.8746 22.437 9.00071 22.4237Z" fill="currentColor"/>
</svg>
