<svg width="24" height="24" viewBox="0 0 24 24" fill="none" xmlns="http://www.w3.org/2000/svg">
<path d="M14.3145 9.79642C13.5335 9.01572 13.533 7.74979 14.3134 6.96852C14.6885 6.59296 15.1976 6.38194 15.7284 6.38194C16.2592 6.38194 16.7683 6.59296 17.1434 6.96852C17.9238 7.74979 17.9234 9.01572 17.1424 9.79642C16.3614 10.5771 15.0954 10.5771 14.3145 9.79642Z" fill="currentColor"/>
<path fill-rule="evenodd" clip-rule="evenodd" d="M20.9334 2.46852C21.2803 2.56061 21.5513 2.83158 21.6434 3.17852C22.8203 7.12931 21.7422 11.4074 18.8334 14.3285C18.0315 15.1081 17.1614 15.8143 16.2334 16.4385C15.6531 18.2999 14.8077 20.0681 13.7234 21.6885C13.5516 21.9317 13.2803 22.0857 12.9834 22.1085H12.9034C12.6376 22.1101 12.3821 22.0057 12.1934 21.8185L2.2934 11.9185C2.08525 11.7107 1.97917 11.4217 2.0034 11.1285C2.02624 10.8316 2.18021 10.5604 2.4234 10.3885C4.04385 9.30419 5.812 8.45885 7.6734 7.87852C8.29762 6.95053 9.00378 6.08038 9.7834 5.27852C12.7045 2.36974 16.9826 1.29158 20.9334 2.46852ZM10.4234 17.2485C13.0091 16.2554 15.3841 14.783 17.4234 12.9085C19.7084 10.6509 20.6322 7.35487 19.8534 4.23852C16.7433 3.46731 13.4569 4.39055 11.2034 6.66852C9.32897 8.70784 7.85651 11.0828 6.8634 13.6685L10.4234 17.2485Z" fill="currentColor"/>
<path d="M7.24341 19.7285C6.22644 20.7251 4.75635 21.106 3.38341 20.7285C3.01362 19.3502 3.40612 17.8793 4.41341 16.8685L7.24341 19.7285Z" fill="currentColor"/>
</svg>
