<svg width="24" height="24" viewBox="0 0 24 24" fill="none" xmlns="http://www.w3.org/2000/svg">
<path d="M22 10H20V6C20 3.79086 18.2091 2 16 2C13.7909 2 12 3.79086 12 6C12 6.55228 12.4477 7 13 7C13.5523 7 14 6.55228 14 6C14 4.89543 14.8954 4 16 4C17.1046 4 18 4.89543 18 6V10H2C1.44772 10 1 10.4477 1 11C1 11.5523 1.44772 12 2 12V14C2.00361 16.0734 3.07745 17.998 4.84 19.09L4.11 20.55C3.86308 21.0417 4.05969 21.6404 4.55 21.89C4.68832 21.964 4.84312 22.0019 5 22.0001C5.37656 21.9989 5.72055 21.7863 5.89 21.45L6.69 19.85C7.11933 19.9509 7.55898 20.0012 8 20H16C16.441 20.0012 16.8807 19.9509 17.31 19.85L18.11 21.45C18.2795 21.7863 18.6234 21.9989 19 22.0001C19.1569 22.0019 19.3117 21.964 19.45 21.89C19.9403 21.6404 20.1369 21.0417 19.89 20.55L19.16 19.09C20.9225 17.998 21.9964 16.0734 22 14V12C22.5523 12 23 11.5523 23 11C23 10.4477 22.5523 10 22 10ZM20 14C20 16.2091 18.2091 18 16 18H8C5.79086 18 4 16.2091 4 14V12H20V14Z" fill="currentColor"/>
</svg>
