<svg width="24" height="24" viewBox="0 0 24 24" fill="none" xmlns="http://www.w3.org/2000/svg">
<path d="M23 15C22.9943 14.9736 22.9943 14.9464 23 14.92V14.78C22.9953 14.7637 22.9953 14.7463 23 14.73L21 8.84V6C21 3.79086 19.2091 2 17 2H7C4.79086 2 3 3.79086 3 6V8.84L1.05 14.68C1.05472 14.6963 1.05472 14.7137 1.05 14.73V14.87C1.04785 14.9176 1.03031 14.9632 1 15V18C1 19.1046 1.89543 20 3 20V21C3 21.5523 3.44772 22 4 22C4.55228 22 5 21.5523 5 21V20H19V21C19 21.5523 19.4477 22 20 22C20.5523 22 21 21.5523 21 21V20C22.1046 20 23 19.1046 23 18V15ZM4.72 10H19.28L20.61 14H3.39L4.72 10ZM5 6C5 4.89543 5.89543 4 7 4H17C18.1046 4 19 4.89543 19 6V8H5V6ZM3 18V16H21V18H3Z" fill="currentColor"/>
</svg>
