<svg width="24" height="24" viewBox="0 0 24 24" fill="none" xmlns="http://www.w3.org/2000/svg">
<path d="M19 4H18V3C18 2.44772 17.5523 2 17 2C16.4477 2 16 2.44772 16 3V4H8V3C8 2.44772 7.55228 2 7 2C6.44772 2 6 2.44772 6 3V4H5C3.34315 4 2 5.34315 2 7V19C2 20.6569 3.34315 22 5 22H19C20.6569 22 22 20.6569 22 19V7C22 5.34315 20.6569 4 19 4ZM20 19C20 19.5523 19.5523 20 19 20H5C4.44772 20 4 19.5523 4 19V10H20V19ZM20 8H4V7C4 6.44772 4.44772 6 5 6H19C19.5523 6 20 6.44772 20 7V8Z" fill="currentColor"/>
</svg>
