<svg width="24" height="24" viewBox="0 0 24 24" fill="none" xmlns="http://www.w3.org/2000/svg">
<path d="M6.5 15.5C7.60457 15.5 8.5 14.6046 8.5 13.5C8.5 12.3954 7.60457 11.5 6.5 11.5C5.39543 11.5 4.5 12.3954 4.5 13.5C4.5 14.6046 5.39543 15.5 6.5 15.5Z" fill="currentColor"/>
<path d="M19.5 13.5C19.5 14.6046 18.6046 15.5 17.5 15.5C16.3954 15.5 15.5 14.6046 15.5 13.5C15.5 12.3954 16.3954 11.5 17.5 11.5C18.6046 11.5 19.5 12.3954 19.5 13.5Z" fill="currentColor"/>
<path fill-rule="evenodd" clip-rule="evenodd" d="M21 8H20.72L19.63 4.73C19.0843 3.10029 17.5586 2.0013 15.84 2H8.16C6.43872 2.00274 4.9122 3.10634 4.37 4.74L3.28 8H3C1.89543 8 1 8.89543 1 10V17C1 18.1046 1.89543 19 3 19V20C3 21.1046 3.89543 22 5 22H6C7.10457 22 8 21.1046 8 20V19H16V20C16 21.1046 16.8954 22 18 22H19C20.1046 22 21 21.1046 21 20V19C22.1046 19 23 18.1046 23 17V10C23 8.89543 22.1046 8 21 8ZM6.26 5.37C6.53168 4.55142 7.29752 3.99922 8.16 4H15.84C16.7025 3.99922 17.4683 4.55142 17.74 5.37L18.61 8H5.39L6.26 5.37ZM6 20H5V19H6V20ZM19 20H18V19H19V20ZM3 17V10H21V17H3Z" fill="currentColor"/>
</svg>
