<svg width="24" height="24" viewBox="0 0 24 24" fill="none" xmlns="http://www.w3.org/2000/svg">
<path fill-rule="evenodd" clip-rule="evenodd" d="M1 12C1 5.92487 5.92487 1 12 1C14.9174 1 17.7153 2.15893 19.7782 4.22183C21.8411 6.28473 23 9.08262 23 12C23 18.0751 18.0751 23 12 23C5.92487 23 1 18.0751 1 12ZM21 12C21 7.02944 16.9706 3 12 3C7.02944 3 3 7.02944 3 12C3 16.9706 7.02944 21 12 21C16.9706 21 21 16.9706 21 12Z" fill="currentColor"/>
<path d="M8.4499 11.6502L10.5999 13.8002L15.5499 8.85019C15.7332 8.66686 15.9666 8.5752 16.2499 8.5752C16.5332 8.5752 16.7666 8.66686 16.9499 8.85019C17.1332 9.03353 17.2249 9.26686 17.2249 9.5502C17.2249 9.83353 17.1332 10.0669 16.9499 10.2502L11.2999 15.9002C11.0999 16.1002 10.8666 16.2002 10.5999 16.2002C10.3332 16.2002 10.0999 16.1002 9.8999 15.9002L7.0499 13.0502C6.86657 12.8669 6.7749 12.6335 6.7749 12.3502C6.7749 12.0669 6.86657 11.8335 7.0499 11.6502C7.23324 11.4669 7.46657 11.3752 7.7499 11.3752C8.03324 11.3752 8.26657 11.4669 8.4499 11.6502Z" fill="currentColor"/>
</svg>
