<svg width="24" height="24" viewBox="0 0 24 24" fill="none" xmlns="http://www.w3.org/2000/svg">
<path d="M18.9948 16.4959C18.7292 16.4974 18.4739 16.3932 18.2853 16.2062L11.9991 9.91315L5.71303 16.2062C5.32115 16.5979 4.68579 16.5979 4.29391 16.2062C3.90203 15.8145 3.90203 15.1795 4.29391 14.7878L11.2896 7.79547C11.4772 7.60637 11.7327 7.5 11.9991 7.5C12.2656 7.5 12.5211 7.60637 12.7087 7.79547L19.7044 14.7878C19.8936 14.9754 20 15.2307 20 15.497C20 15.7634 19.8936 16.0187 19.7044 16.2062C19.5158 16.3932 19.2605 16.4974 18.9948 16.4959Z" fill="currentColor"/>
</svg>
