<svg width="24" height="24" viewBox="0 0 24 24" fill="none" xmlns="http://www.w3.org/2000/svg">
<path d="M15.4955 20.0041C15.23 20.0057 14.9749 19.9013 14.7864 19.7141L7.79542 12.7141C7.60635 12.5263 7.5 12.2708 7.5 12.0041C7.5 11.7375 7.60635 11.4819 7.79542 11.2941L14.7864 4.29411C15.0397 4.04046 15.409 3.94139 15.755 4.03424C16.1011 4.12708 16.3714 4.39773 16.4641 4.74424C16.5569 5.09074 16.4579 5.46046 16.2046 5.71411L9.91269 12.0041L16.2046 18.2941C16.3937 18.4819 16.5 18.7375 16.5 19.0041C16.5 19.2708 16.3937 19.5263 16.2046 19.7141C16.0161 19.9013 15.761 20.0057 15.4955 20.0041Z" fill="currentColor"/>
</svg>
