<svg width="24" height="24" viewBox="0 0 24 24" fill="none" xmlns="http://www.w3.org/2000/svg">
<path d="M8.5045 20.0041C8.23904 20.0056 7.98389 19.9013 7.79542 19.7141C7.60635 19.5263 7.5 19.2707 7.5 19.0041C7.5 18.7375 7.60635 18.4819 7.79542 18.2941L14.0873 12.0041L7.79542 5.71409C7.4038 5.32197 7.4038 4.68621 7.79542 4.29409C8.18704 3.90197 8.82197 3.90197 9.21359 4.29409L16.2046 11.2941C16.3937 11.4819 16.5 11.7375 16.5 12.0041C16.5 12.2707 16.3937 12.5263 16.2046 12.7141L9.21359 19.7141C9.02511 19.9013 8.76996 20.0056 8.5045 20.0041Z" fill="currentColor"/>
</svg>
