<svg width="24" height="24" viewBox="0 0 24 24" fill="none" xmlns="http://www.w3.org/2000/svg">
<path d="M10.94 14.71L14.47 11.17C14.8621 10.7779 15.4979 10.7779 15.89 11.17C16.2821 11.5621 16.2821 12.1979 15.89 12.59L11.65 16.83C11.4622 17.0193 11.2066 17.1258 10.94 17.1258C10.6734 17.1258 10.4178 17.0193 10.23 16.83L8.11001 14.71C7.71789 14.3179 7.71789 13.6821 8.11001 13.29C8.50213 12.8979 9.13789 12.8979 9.53001 13.29L10.94 14.71Z" fill="currentColor"/>
<path fill-rule="evenodd" clip-rule="evenodd" d="M16 3H19C20.1046 3 21 3.89543 21 5V21C21 22.1046 20.1046 23 19 23H5C3.89543 23 3 22.1046 3 21V5C3 3.89543 3.89543 3 5 3H8C8 2.44772 8.44772 2 9 2H15C15.5523 2 16 2.44772 16 3ZM5 21H19V5H16C16 5.55228 15.5523 6 15 6H9C8.44772 6 8 5.55228 8 5H5V21Z" fill="currentColor"/>
</svg>
