<svg width="24" height="24" viewBox="0 0 24 24" fill="none" xmlns="http://www.w3.org/2000/svg">
<path d="M12 15C7.58 15 4 17.24 4 20H20C20 17.24 16.42 15 12 15ZM12 4.00001C11.0709 3.99736 10.1791 4.36526 9.52218 5.02221C8.86523 5.67917 8.49733 6.57096 8.49999 7.50003C8.50166 8.25439 8.56858 9.0072 8.7 9.75003C8.81468 11.5144 10.2341 12.9123 12 13C13.7659 12.9123 15.1853 11.5144 15.3 9.75003C15.4314 9.0072 15.4983 8.25439 15.5 7.50003C15.5027 6.57096 15.1348 5.67917 14.4778 5.02221C13.8209 4.36526 12.9291 3.99736 12 4.00001Z" fill="currentColor"/>
</svg>
