<svg width="24" height="24" viewBox="0 0 24 24" fill="none" xmlns="http://www.w3.org/2000/svg">
<path d="M18 14.5C19.268 14.4305 20.2805 13.418 20.35 12.15C20.4438 11.6049 20.494 11.0531 20.5 10.5C20.5 9.11929 19.3807 8 18 8C16.6193 8 15.5 9.11929 15.5 10.5C15.506 11.0531 15.5562 11.6049 15.65 12.15C15.7195 13.418 16.732 14.4305 18 14.5ZM8 15C3.58 15 0 17.24 0 20H16C16 17.24 12.42 15 8 15ZM8 13C9.76589 12.9123 11.1853 11.5143 11.3 9.75C11.4314 9.00717 11.4983 8.25436 11.5 7.5C11.5 5.567 9.933 4 8 4C6.067 4 4.5 5.567 4.5 7.5C4.50166 8.25436 4.56858 9.00717 4.7 9.75C4.81468 11.5143 6.23411 12.9123 8 13ZM18 16C17.4598 15.998 16.9206 16.0482 16.39 16.15C17.4 17.1797 17.9763 18.5578 18 20H24C24 17.79 21.31 16 18 16Z" fill="currentColor"/>
</svg>
