<svg width="24" height="24" viewBox="0 0 24 24" fill="none" xmlns="http://www.w3.org/2000/svg">
<path d="M20.3825 4.06974C20.4172 4.07952 20.452 4.0893 20.4869 4.09833L11.9997 12.5862L3.51257 4.09842C3.54779 4.08935 3.58274 4.07951 3.61767 4.06967C3.74148 4.03481 3.8651 4 3.99991 4H20C20.1349 4 20.2586 4.03485 20.3825 4.06974Z" fill="currentColor"/>
<path d="M11.9998 14.5864C12.5352 14.5864 13.0376 14.3784 13.4141 14.0005L21.9014 5.5119C21.9104 5.5468 21.9202 5.58145 21.9299 5.61608C21.965 5.74043 22 5.86464 22 6.00006V18.0001C22 19.1047 21.1046 20 20 20H3.99997C2.89538 20 2 19.1047 2 18.0001V6.00006C2 5.86486 2.03491 5.74096 2.06988 5.61685C2.07964 5.58221 2.0894 5.54756 2.09842 5.51263L10.5855 13.999C10.9627 14.3784 11.4658 14.5864 11.9998 14.5864Z" fill="currentColor"/>
</svg>
