<svg width="24" height="24" viewBox="0 0 24 24" fill="none" xmlns="http://www.w3.org/2000/svg">
<path d="M22.8061 3.2072C23.1966 3.59772 23.1966 4.23089 22.8061 4.62141L21.9353 5.49369C21.9775 5.65542 22 5.82513 22 6.00009V18.0001C22 19.1047 21.1046 20.0001 20 20.0001L7.428 19.9983L4.42132 23.0062C4.0308 23.3967 3.39763 23.3967 3.00711 23.0062C2.61658 22.6157 2.61658 21.9825 3.00711 21.592L21.3919 3.2072C21.7824 2.81668 22.4156 2.81668 22.8061 3.2072ZM17.839 3.99915L15.839 5.99915L5.41 6.00009L10.625 11.2142L9.215 12.6242L4 7.41009V17.8382L2.50777 19.3318C2.22297 19.0128 2.03888 18.602 2.00549 18.1494L2 18.0001V6.00009C2 4.89552 2.89543 4.00009 4 4.00009L17.839 3.99915ZM20 7.42731L9.428 17.9983L20 18.0001V7.42731Z" fill="currentColor"/>
</svg>
