<svg width="24" height="24" viewBox="0 0 24 24" fill="none" xmlns="http://www.w3.org/2000/svg">
<path d="M14.9223 21.2032C12.9436 21.2032 11.1807 20.6538 9.63341 19.5551C8.08612 18.4563 6.98983 17.0057 6.34453 15.2032H3.97008C3.65088 15.2032 3.3815 15.0934 3.16193 14.8738C2.94236 14.6543 2.83258 14.3849 2.83258 14.0657C2.83258 13.7465 2.94236 13.4771 3.16193 13.2575C3.3815 13.0379 3.65088 12.9282 3.97008 12.9282H5.87063C5.82461 12.572 5.80577 12.2321 5.81411 11.9083C5.82244 11.5846 5.84128 11.3057 5.87063 11.0717H3.97008C3.65088 11.0717 3.3815 10.9619 3.16193 10.7423C2.94236 10.5227 2.83258 10.2534 2.83258 9.93416C2.83258 9.61494 2.94236 9.34555 3.16193 9.12598C3.3815 8.90641 3.65088 8.79663 3.97008 8.79663H6.34453C7.00178 7.02996 8.10107 5.5883 9.64238 4.47163C11.1837 3.35496 12.9436 2.79663 14.9223 2.79663C15.9208 2.79663 16.8675 2.94428 17.7625 3.23958C18.6574 3.53486 19.4918 3.95515 20.2657 4.50045C20.523 4.68305 20.6609 4.93079 20.6796 5.24366C20.6983 5.55652 20.5936 5.81857 20.3657 6.0298C20.1378 6.2577 19.8633 6.37681 19.5421 6.38713C19.2209 6.39746 18.9257 6.31766 18.6565 6.14773C18.1105 5.80171 17.5226 5.53586 16.8929 5.35018C16.2632 5.1645 15.6063 5.07166 14.9223 5.07166C13.5813 5.07166 12.3715 5.41957 11.2927 6.11541C10.2138 6.81124 9.40306 7.70498 8.86031 8.79663H13.9701C14.2893 8.79663 14.5587 8.90641 14.7782 9.12598C14.9978 9.34555 15.1076 9.61494 15.1076 9.93416C15.1076 10.2534 14.9978 10.5227 14.7782 10.7423C14.5587 10.9619 14.2893 11.0717 13.9701 11.0717H8.16466C8.10596 11.4778 8.08295 11.8388 8.09563 12.1545C8.10831 12.4703 8.13132 12.7282 8.16466 12.9282H13.9701C14.2893 12.9282 14.5587 13.0379 14.7782 13.2575C14.9978 13.4771 15.1076 13.7465 15.1076 14.0657C15.1076 14.3849 14.9978 14.6543 14.7782 14.8738C14.5587 15.0934 14.2893 15.2032 13.9701 15.2032H8.83043C9.38911 16.3267 10.2089 17.2284 11.2897 17.9083C12.3705 18.5882 13.5813 18.9282 14.9223 18.9282C15.6063 18.9282 16.2632 18.8311 16.8929 18.6371C17.5226 18.4431 18.1105 18.1731 18.6565 17.8271C18.9257 17.6571 19.2209 17.5815 19.5421 17.6002C19.8633 17.6188 20.1378 17.7421 20.3657 17.97C20.5936 18.1812 20.6983 18.4423 20.6796 18.7532C20.6609 19.064 20.523 19.3108 20.2657 19.4934C19.4918 20.0427 18.6574 20.4649 17.7625 20.7602C16.8675 21.0555 15.9208 21.2032 14.9223 21.2032Z" fill="currentColor"/>
</svg>
