<svg width="24" height="24" viewBox="0 0 24 24" fill="none" xmlns="http://www.w3.org/2000/svg">
<path d="M5 5V19H19V12H21V19C21 20.1046 20.1046 21 19 21H5C3.89543 21 3 20.1046 3 19V5C3 3.89543 3.89543 3 5 3H12V5H5Z" fill="currentColor"/>
<path d="M15 3H20C20.5523 3 21 3.44772 21 4V9C21 9.55228 20.5523 10 20 10C19.4477 10 19 9.55228 19 9V6.41L12.71 12.71C12.5222 12.8993 12.2666 13.0058 12 13.0058C11.7334 13.0058 11.4778 12.8993 11.29 12.71C11.1007 12.5222 10.9942 12.2666 10.9942 12C10.9942 11.7334 11.1007 11.4778 11.29 11.29L17.59 5H15C14.4477 5 14 4.55228 14 4C14 3.44772 14.4477 3 15 3Z" fill="currentColor"/>
</svg>
