<svg width="24" height="24" viewBox="0 0 24 24" fill="none" xmlns="http://www.w3.org/2000/svg">
<path d="M11.9941 20.5043C11.7249 20.5043 11.4545 20.4556 11.1829 20.3584C10.9114 20.2611 10.67 20.1088 10.4587 19.9015L8.72175 18.3146C6.96307 16.7099 5.36924 15.1047 3.94025 13.4991C2.51125 11.8935 1.79675 10.1104 1.79675 8.14992C1.79675 6.52366 2.33969 5.16555 3.42558 4.0756C4.51144 2.98565 5.8676 2.44067 7.49405 2.44067C8.36942 2.44067 9.19677 2.61921 9.9761 2.97627C10.7555 3.33334 11.4281 3.8289 11.9941 4.46295C12.56 3.8289 13.2326 3.33334 14.012 2.97627C14.7913 2.61921 15.6187 2.44067 16.4941 2.44067C18.122 2.44067 19.4815 2.98565 20.5726 4.0756C21.6637 5.16555 22.2093 6.52366 22.2093 8.14992C22.2093 10.1104 21.496 11.8976 20.0693 13.5116C18.6427 15.1255 17.0334 16.7369 15.2413 18.3456L13.5354 19.9075C13.3241 20.1148 13.0817 20.2661 12.8082 20.3613C12.5346 20.4566 12.2633 20.5043 11.9941 20.5043ZM11.0022 6.77982C10.5428 6.12039 10.0351 5.61151 9.4791 5.25317C8.92312 4.89484 8.26198 4.71567 7.49568 4.71567C6.51741 4.71567 5.70219 5.04204 5.05003 5.69477C4.39786 6.34749 4.07178 7.16587 4.07178 8.14992C4.07178 9.00894 4.37711 9.92164 4.98778 10.888C5.59846 11.8544 6.32879 12.7919 7.17878 13.7004C8.02878 14.609 8.90354 15.4598 9.80305 16.2527C10.7026 17.0456 11.4329 17.6981 11.9941 18.2102C12.5567 17.6936 13.2887 17.039 14.1898 16.2464C15.091 15.4538 15.9673 14.6035 16.8189 13.6953C17.6704 12.7871 18.4026 11.8515 19.0153 10.8885C19.6279 9.92547 19.9343 9.01261 19.9343 8.14992C19.9343 7.16587 19.6069 6.34749 18.9522 5.69477C18.2974 5.04204 17.479 4.71567 16.4969 4.71567C15.7276 4.71567 15.066 4.89484 14.512 5.25317C13.958 5.61151 13.4513 6.12039 12.9919 6.77982C12.87 6.95844 12.7221 7.09241 12.5481 7.18172C12.374 7.27102 12.1893 7.31567 11.9941 7.31567C11.7988 7.31567 11.6148 7.27102 11.4423 7.18172C11.2697 7.09241 11.123 6.95844 11.0022 6.77982Z" fill="currentColor"/>
</svg>
