<svg width="24" height="24" viewBox="0 0 24 24" fill="none" xmlns="http://www.w3.org/2000/svg">
<path d="M21 16C20.4477 16 20 16.4477 20 17V19H4V17C4 16.4477 3.55228 16 3 16C2.44772 16 2 16.4477 2 17V19C2 20.1046 2.89543 21 4 21H20C21.1046 21 22 20.1046 22 19V17C22 16.4477 21.5523 16 21 16ZM11.29 14.71C11.4778 14.8993 11.7334 15.0058 12 15.0058C12.2666 15.0058 12.5222 14.8993 12.71 14.71L17.71 9.71C17.9637 9.45634 18.0627 9.08663 17.9699 8.74012C17.877 8.39362 17.6064 8.12297 17.2599 8.03012C16.9134 7.93728 16.5437 8.03634 16.29 8.29L13 11.59V4C13 3.44772 12.5523 3 12 3C11.4477 3 11 3.44772 11 4V11.59L7.71 8.29C7.31788 7.89788 6.68212 7.89788 6.29 8.29C5.89788 8.68212 5.89788 9.31788 6.29 9.71L11.29 14.71Z" fill="currentColor"/>
</svg>
