<svg width="24" height="24" viewBox="0 0 24 24" fill="none" xmlns="http://www.w3.org/2000/svg">
<path d="M12 6C12.9613 5.92948 13.914 6.22209 14.67 6.82C15.2488 7.44594 15.5263 8.29293 15.43 9.14C15.4319 9.5843 15.3291 10.0228 15.13 10.42C14.8461 10.9202 14.485 11.3725 14.06 11.76L13.42 12.38C13.0278 12.7322 12.7787 13.2162 12.72 13.74V14.23H10.72C10.6943 13.624 10.7895 13.0189 11 12.45C11.2276 11.9419 11.5699 11.4935 12 11.14C12.3814 10.8391 12.7181 10.4856 13 10.09C13.1567 9.83416 13.2398 9.54002 13.24 9.24C13.24 8.34 12.83 7.89 12 7.89C11.6421 7.87239 11.2935 8.00677 11.04 8.26C10.7915 8.53262 10.6588 8.89126 10.67 9.26H8.35C8.31417 8.35187 8.67994 7.47401 9.35 6.86C10.0955 6.25343 11.0404 5.94677 12 6Z" fill="currentColor"/>
<path d="M10.95 15.8C11.2008 15.5638 11.5357 15.4378 11.88 15.45C12.2236 15.4421 12.5569 15.5676 12.81 15.8C13.0502 16.0284 13.1813 16.3487 13.17 16.68C13.1785 17.0059 13.0518 17.3208 12.82 17.55C12.5639 17.7831 12.226 17.9054 11.88 17.89C11.5335 17.9088 11.1943 17.7861 10.94 17.55C10.7013 17.3247 10.5703 17.0081 10.58 16.68C10.5673 16.3464 10.7027 16.0243 10.95 15.8Z" fill="currentColor"/>
<path fill-rule="evenodd" clip-rule="evenodd" d="M1 12C1 5.92487 5.92487 1 12 1C14.9174 1 17.7153 2.15893 19.7782 4.22183C21.8411 6.28473 23 9.08262 23 12C23 18.0751 18.0751 23 12 23C5.92487 23 1 18.0751 1 12ZM21 12C21 7.02944 16.9706 3 12 3C7.02944 3 3 7.02944 3 12C3 16.9706 7.02944 21 12 21C16.9706 21 21 16.9706 21 12Z" fill="currentColor"/>
</svg>
