<svg width="24" height="24" viewBox="0 0 24 24" fill="none" xmlns="http://www.w3.org/2000/svg">
<path d="M10.8571 17.7143H13.1429V11.7143H10.8571V17.7143Z" fill="currentColor"/>
<path d="M10.4162 8.65603C10.6815 9.29662 11.3066 9.71429 12 9.71429C12.9468 9.71429 13.7143 8.94678 13.7143 8C13.7143 7.30664 13.2966 6.68155 12.656 6.41621C12.0154 6.15087 11.2781 6.29754 10.7878 6.78782C10.2975 7.2781 10.1509 8.01545 10.4162 8.65603Z" fill="currentColor"/>
<path fill-rule="evenodd" clip-rule="evenodd" d="M1 12C1 5.92487 5.92487 1 12 1C14.9174 1 17.7153 2.15893 19.7782 4.22183C21.8411 6.28473 23 9.08262 23 12C23 18.0751 18.0751 23 12 23C5.92487 23 1 18.0751 1 12ZM21 12C21 7.02944 16.9706 3 12 3C7.02944 3 3 7.02944 3 12C3 16.9706 7.02944 21 12 21C16.9706 21 21 16.9706 21 12Z" fill="currentColor"/>
</svg>
