<svg width="24" height="24" viewBox="0 0 24 24" fill="none" xmlns="http://www.w3.org/2000/svg">
<path d="M12 2C6.47715 2 2 6.47715 2 12C2 17.5228 6.47715 22 12 22C17.5228 22 22 17.5228 22 12C22 9.34784 20.9464 6.8043 19.0711 4.92893C17.1957 3.05357 14.6522 2 12 2ZM13.1429 17.7143H10.8571V11.7143H13.1429V17.7143ZM12 9.71429C11.3066 9.71429 10.6815 9.29661 10.4162 8.65603C10.1509 8.01544 10.2975 7.2781 10.7878 6.78782C11.2781 6.29753 12.0154 6.15087 12.656 6.41621C13.2966 6.68155 13.7143 7.30664 13.7143 8C13.7143 8.94677 12.9468 9.71429 12 9.71429Z" fill="currentColor"/>
</svg>
