<svg width="24" height="24" viewBox="0 0 24 24" fill="none" xmlns="http://www.w3.org/2000/svg">
<path d="M8.11001 14.29C8.50004 13.9023 9.12997 13.9023 9.52001 14.29L10.94 15.71L14.48 12.17C14.87 11.7823 15.5 11.7823 15.89 12.17C16.0793 12.3578 16.1858 12.6134 16.1858 12.88C16.1858 13.1466 16.0793 13.4022 15.89 13.59L11.65 17.83C11.4622 18.0193 11.2066 18.1258 10.94 18.1258C10.6734 18.1258 10.4178 18.0193 10.23 17.83L8.11001 15.71C7.92069 15.5222 7.81421 15.2666 7.81421 15C7.81421 14.7334 7.92069 14.4778 8.11001 14.29Z" fill="currentColor"/>
<path fill-rule="evenodd" clip-rule="evenodd" d="M18 4H19C20.6569 4 22 5.34315 22 7V19C22 20.6569 20.6569 22 19 22H5C3.34315 22 2 20.6569 2 19V7C2 5.34315 3.34315 4 5 4H6V3C6 2.44772 6.44772 2 7 2C7.55228 2 8 2.44772 8 3V4H16V3C16 2.44772 16.4477 2 17 2C17.5523 2 18 2.44772 18 3V4ZM19 20C19.5523 20 20 19.5523 20 19V10H4V19C4 19.5523 4.44772 20 5 20H19ZM4 8H20V7C20 6.44772 19.5523 6 19 6H5C4.44772 6 4 6.44772 4 7V8Z" fill="currentColor"/>
</svg>
