<svg width="24" height="24" viewBox="0 0 24 24" fill="none" xmlns="http://www.w3.org/2000/svg">
<path d="M8.11001 11.1979C8.50004 10.8102 9.12997 10.8102 9.52001 11.1979L10.94 12.6179L14.48 9.07792C14.87 8.69019 15.5 8.69019 15.89 9.07792C16.0793 9.26568 16.1858 9.52128 16.1858 9.78792C16.1858 10.0546 16.0793 10.3102 15.89 10.4979L11.65 14.7379C11.4622 14.9272 11.2066 15.0337 10.94 15.0337C10.6734 15.0337 10.4178 14.9272 10.23 14.7379L8.11001 12.6179C7.92069 12.4302 7.81421 12.1746 7.81421 11.9079C7.81421 11.6413 7.92069 11.3857 8.11001 11.1979Z" fill="currentColor"/>
<path fill-rule="evenodd" clip-rule="evenodd" d="M12.41 1.08791L20.41 4.64791C20.7684 4.809 20.9992 5.16501 21 5.55791V10.9079C21 16.3579 17.29 21.4679 12.27 22.8379C12.094 22.8913 11.906 22.8913 11.73 22.8379C6.71 21.4679 3 16.3579 3 10.9079V5.55791C3.00082 5.16501 3.23164 4.809 3.59 4.64791L11.59 1.08791C11.8508 0.970695 12.1492 0.970695 12.41 1.08791ZM12 20.8379C16.2001 19.3434 19.0039 15.366 19 10.9079V6.20791L12 3.09791L5 6.20791V10.9079C4.99606 15.366 7.7999 19.3434 12 20.8379Z" fill="currentColor"/>
</svg>
