<svg width="24" height="24" viewBox="0 0 24 24" fill="none" xmlns="http://www.w3.org/2000/svg">
<path d="M18.31 3.81115C16.2666 2.51278 13.5976 2.79633 11.8726 4.49502C10.1476 6.19371 9.82315 8.8581 11.09 10.9212L3 19.0012L4.71 20.7112L7.38 18.0012L10.07 20.6812L11.77 19.0012L9.08 16.3312L12.79 12.6212C15.2171 14.0552 18.3448 13.294 19.8416 10.9051C21.3384 8.51622 20.6591 5.36971 18.31 3.81115ZM17.49 10.1812C16.9634 10.7187 16.2425 11.0216 15.49 11.0216C14.7375 11.0216 14.0166 10.7187 13.49 10.1812C12.6865 9.37779 12.4481 8.1685 12.8867 7.12032C13.3253 6.07214 14.3538 5.39293 15.49 5.40115C16.2404 5.3912 16.9625 5.68727 17.49 6.22115C18.5781 7.31691 18.5781 9.08539 17.49 10.1812Z" fill="currentColor"/>
</svg>
