<svg width="24" height="24" viewBox="0 0 24 24" fill="none" xmlns="http://www.w3.org/2000/svg">
<path d="M12.1438 19.2147C11.1258 20.2326 9.89945 20.7416 8.46461 20.7417C7.02974 20.7417 5.8034 20.2328 4.78556 19.215C3.76772 18.1972 3.25873 16.9707 3.25858 15.5356C3.25842 14.1006 3.7673 12.8741 4.78523 11.8561L6.74591 9.89545C6.97162 9.66974 7.23973 9.55688 7.55025 9.55688C7.86076 9.55688 8.12888 9.66974 8.3546 9.89546C8.58031 10.1212 8.69316 10.3893 8.69316 10.6998C8.69316 11.0103 8.58031 11.2784 8.3546 11.5041L6.39391 13.4648C5.81875 14.04 5.53117 14.7302 5.53117 15.5354C5.53117 16.3406 5.81875 17.0308 6.39391 17.606C6.96907 18.1811 7.65927 18.4687 8.4645 18.4687C9.26973 18.4687 9.95992 18.1811 10.5351 17.606L12.4958 15.6453C12.7215 15.4196 12.9896 15.3067 13.3001 15.3067C13.6106 15.3067 13.8787 15.4196 14.1044 15.6453C14.3302 15.871 14.443 16.1391 14.443 16.4497C14.443 16.7602 14.3302 17.0283 14.1045 17.254L12.1438 19.2147ZM10.5562 14.9255C10.3463 15.1354 10.0993 15.2404 9.8153 15.2404C9.53128 15.2404 9.28431 15.1354 9.07438 14.9255C8.86445 14.7156 8.75949 14.4686 8.75949 14.1846C8.75949 13.9006 8.86445 13.6536 9.07438 13.4437L13.4438 9.07421C13.6538 8.86428 13.9007 8.75932 14.1848 8.75932C14.4688 8.75932 14.7158 8.86428 14.9257 9.07421C15.1356 9.28414 15.2406 9.53112 15.2406 9.81514C15.2406 10.0992 15.1356 10.3461 14.9257 10.5561L10.5562 14.9255ZM17.2542 14.1043C17.0284 14.33 16.7603 14.4429 16.4498 14.4429C16.1393 14.4429 15.8712 14.33 15.6455 14.1043C15.4198 13.8786 15.3069 13.6105 15.3069 13.2999C15.3069 12.9894 15.4198 12.7213 15.6455 12.4956L17.6062 10.5349C18.1813 9.95976 18.4689 9.26956 18.4689 8.46433C18.4689 7.6591 18.1813 6.96891 17.6062 6.39375C17.031 5.81859 16.3408 5.53101 15.5356 5.53101C14.7303 5.53101 14.0401 5.81859 13.465 6.39375L11.5043 8.35443C11.2786 8.58014 11.0105 8.69299 10.7 8.69299C10.3894 8.69299 10.1213 8.58014 9.89563 8.35443C9.66991 8.12871 9.55705 7.86059 9.55705 7.55008C9.55705 7.23957 9.6699 6.97145 9.89561 6.74575L11.8563 4.78506C12.8742 3.76713 14.1006 3.25814 15.5355 3.25808C16.9703 3.25801 18.1967 3.76689 19.2145 4.78473C20.2323 5.80257 20.7413 7.02903 20.7415 8.4641C20.7416 9.89918 20.2328 11.1257 19.2148 12.1436L17.2542 14.1043Z" fill="currentColor"/>
</svg>
