<svg width="24" height="24" viewBox="0 0 24 24" fill="none" xmlns="http://www.w3.org/2000/svg">
<path d="M9.07079 11.1614C8.13171 10.457 7.68968 9.26972 7.93954 8.12277C8.18941 6.97582 9.08526 6.07997 10.2322 5.8301C11.3792 5.58024 12.5665 6.02227 13.2708 6.96135L16.0708 4.10135C14.0852 2.07474 11.0727 1.4471 8.44301 2.51213C5.8133 3.57716 4.08655 6.1242 4.07079 8.96135C4.2057 10.8918 4.78769 12.7645 5.77079 14.4314L9.07079 11.1614ZM20.2608 4.18135C19.8708 3.79363 19.2408 3.79363 18.8508 4.18135L3.29079 19.7414C2.90307 20.1314 2.90307 20.7613 3.29079 21.1514C3.47856 21.3407 3.73416 21.4471 4.00079 21.4471C4.26743 21.4471 4.52303 21.3407 4.71079 21.1514L7.92079 17.9614C8.83079 19.2614 9.70079 20.3614 10.3008 21.0814C10.4908 21.3106 10.773 21.4433 11.0708 21.4433C11.3685 21.4433 11.6508 21.3106 11.8408 21.0814C13.6608 18.8713 18.0708 13.1314 18.0708 8.96135C18.0665 8.59967 18.0364 8.23875 17.9808 7.88135L20.2608 5.60135C20.4501 5.41358 20.5566 5.15799 20.5566 4.89135C20.5566 4.62471 20.4501 4.36912 20.2608 4.18135Z" fill="currentColor"/>
</svg>
