<svg width="24" height="24" viewBox="0 0 24 24" fill="none" xmlns="http://www.w3.org/2000/svg">
<g clip-path="url(#clip0_1_3052)">
<path d="M10.9103 23.1913V21.1913C8.81505 20.954 7.00762 20.0735 5.48805 18.55C3.96849 17.0264 3.09204 15.223 2.8587 13.1397H0.858704V10.9603H2.8587C3.09602 8.86503 3.97645 7.05761 5.5 5.53804C7.02355 4.01847 8.827 3.14202 10.9103 2.90869V0.908691H13.0897V2.90869C15.173 3.14202 16.9765 4.01847 18.5 5.53804C20.0236 7.05761 20.904 8.86503 21.1413 10.9603H23.1413V13.1397H21.1413C20.908 15.223 20.0315 17.0264 18.512 18.55C16.9924 20.0735 15.185 20.954 13.0897 21.1913V23.1913H10.9103ZM12 18.9782C13.9174 18.9782 15.5514 18.3029 16.9022 16.9522C18.2529 15.6014 18.9283 13.9674 18.9283 12.05C18.9283 10.1326 18.2529 8.49855 16.9022 7.14782C15.5514 5.7971 13.9174 5.12174 12 5.12174C10.0826 5.12174 8.44856 5.7971 7.09783 7.14782C5.74711 8.49855 5.07175 10.1326 5.07175 12.05C5.07175 13.9674 5.74711 15.6014 7.09783 16.9522C8.44856 18.3029 10.0826 18.9782 12 18.9782Z" fill="currentColor"/>
</g>
<defs>
<clipPath id="clip0_1_3052">
<rect width="24" height="24" fill="white"/>
</clipPath>
</defs>
</svg>
