<svg width="24" height="24" viewBox="0 0 24 24" fill="none" xmlns="http://www.w3.org/2000/svg">
<path d="M13.5 16C13.5 16.8284 12.8284 17.5 12 17.5C11.1716 17.5 10.5 16.8284 10.5 16C10.5 15.1716 11.1716 14.5 12 14.5C12.8284 14.5 13.5 15.1716 13.5 16Z" fill="currentColor"/>
<path fill-rule="evenodd" clip-rule="evenodd" d="M18 8V10C19.1046 10 20 10.8954 20 12V20C20 21.1046 19.1046 22 18 22H6C4.89543 22 4 21.1046 4 20V12C4 10.8954 4.89543 10 6 10V8C6 4.68629 8.68629 2 12 2C15.3137 2 18 4.68629 18 8ZM12 4C9.79086 4 8 5.79086 8 8V10H16V8C16 5.79086 14.2091 4 12 4ZM6 12V20H18V12H6Z" fill="currentColor"/>
</svg>
