<svg width="24" height="24" viewBox="0 0 24 24" fill="none" xmlns="http://www.w3.org/2000/svg">
<path d="M18.947 22.407C18.4189 22.4074 17.912 22.1989 17.537 21.827L10.687 14.977C10.4203 14.7245 10.0411 14.6297 9.687 14.727C8.70854 14.9907 7.6834 15.0317 6.687 14.847C4.55392 14.4397 2.73069 13.0654 1.75168 11.127C0.772678 9.18853 0.748783 6.9055 1.687 4.947C1.82939 4.65411 2.10549 4.4489 2.427 4.397C2.71679 4.37576 3.00148 4.48161 3.207 4.687L6.947 8.407L8.367 6.997L4.637 3.257C4.40885 3.02911 4.3046 2.70518 4.357 2.387C4.41848 2.08245 4.61803 1.82378 4.897 1.687C6.8555 0.748783 9.13853 0.772678 11.077 1.75168C13.0154 2.73069 14.3897 4.55392 14.797 6.687C14.9817 7.6834 14.9407 8.70854 14.677 9.687C14.5817 10.0411 14.6763 10.4194 14.927 10.687L21.777 17.537C22.5525 18.3171 22.5525 19.5769 21.777 20.357L20.357 21.777C19.9944 22.1731 19.4839 22.4012 18.947 22.407ZM20.367 18.997L13.517 12.147C12.7535 11.3832 12.4594 10.268 12.747 9.227C12.9384 8.51917 12.9657 7.777 12.827 7.057C12.4486 5.02508 10.8589 3.43543 8.827 3.057C8.29074 2.96712 7.74326 2.96712 7.207 3.057L9.777 5.587C10.5524 6.36708 10.5524 7.62693 9.777 8.407L8.357 9.827C7.57693 10.6024 6.31708 10.6024 5.537 9.827L2.967 7.257C2.87712 7.79326 2.87712 8.34074 2.967 8.877C3.34543 10.9089 4.93508 12.4986 6.967 12.877C7.69034 13.0159 8.43579 12.9885 9.147 12.797C9.40485 12.7294 9.67044 12.6958 9.937 12.697C10.7344 12.6924 11.5008 13.0054 12.067 13.567L18.917 20.407L20.367 18.997Z" fill="currentColor"/>
</svg>
