<svg width="24" height="24" viewBox="0 0 24 24" fill="none" xmlns="http://www.w3.org/2000/svg">
<path d="M21.1565 18.3265L14.3065 11.4865C13.7826 10.9637 13.5903 10.1944 13.8065 9.48653C14.0261 8.63709 14.0603 7.75032 13.9065 6.88653C13.446 4.44623 11.5297 2.54184 9.08653 2.09653C8.10122 1.9167 7.08643 1.98894 6.13653 2.30653C5.97374 2.36155 5.85167 2.49783 5.81483 2.66567C5.77799 2.83351 5.83175 3.00838 5.95653 3.12653L9.15653 6.32653C9.53767 6.71537 9.53767 7.33768 9.15653 7.72653L7.72653 9.15653C7.53876 9.34584 7.28316 9.45233 7.01653 9.45233C6.74989 9.45233 6.49429 9.34584 6.30653 9.15653L3.12653 5.95653C3.00838 5.83175 2.83351 5.77799 2.66567 5.81483C2.49783 5.85167 2.36155 5.97374 2.30653 6.13653C1.98894 7.08643 1.9167 8.10122 2.09653 9.08653C2.54593 11.5385 4.46459 13.4571 6.91653 13.9065C7.78032 14.0603 8.66709 14.0261 9.51653 13.8065C10.2244 13.5903 10.9937 13.7826 11.5165 14.3065L18.3665 21.1565C18.5543 21.3458 18.8099 21.4523 19.0765 21.4523C19.3432 21.4523 19.5988 21.3458 19.7865 21.1565L21.1565 19.7265C21.5377 19.3377 21.5377 18.7154 21.1565 18.3265Z" fill="currentColor"/>
</svg>
