<svg width="24" height="24" viewBox="0 0 24 24" fill="none" xmlns="http://www.w3.org/2000/svg">
<path d="M4.19937 18.8308C3.81165 19.2208 3.81165 19.8508 4.19937 20.2408C4.38714 20.4301 4.64273 20.5366 4.90937 20.5366C5.17601 20.5366 5.43161 20.4301 5.61937 20.2408L8.80937 17.0508H8.85937L10.6394 20.6008C10.8561 21.1515 11.3876 21.5135 11.9794 21.5135C12.5712 21.5135 13.1027 21.1515 13.3194 20.6008L15.0994 17.0508H15.9794C18.8147 17.031 21.3581 15.3028 22.4205 12.674C23.483 10.0452 22.8547 7.03509 20.8294 5.05079L21.1694 4.71079C21.3587 4.52303 21.4652 4.26743 21.4652 4.00079C21.4652 3.73416 21.3587 3.47856 21.1694 3.29079C20.7793 2.90307 20.1494 2.90307 19.7594 3.29079L4.19937 18.8308ZM15.9794 15.0508H13.8594L11.9794 18.8108L10.3294 15.5208L19.4194 6.44079C20.8909 7.85097 21.3593 10.0132 20.6031 11.9059C19.8469 13.7986 18.0175 15.0429 15.9794 15.0508ZM5.69937 14.5008C3.64368 13.4476 2.57691 11.1234 3.11864 8.87809C3.66038 6.63275 5.6696 5.0507 7.97937 5.05079H15.1494L17.0594 3.14079C16.702 3.08516 16.3411 3.05509 15.9794 3.05079H7.97937C4.86957 3.06021 2.13883 5.12015 1.27564 8.10777C0.412444 11.0954 1.62378 14.2943 4.24937 15.9608L5.69937 14.5008Z" fill="currentColor"/>
</svg>
