<svg width="24" height="24" viewBox="0 0 24 24" fill="none" xmlns="http://www.w3.org/2000/svg">
<path d="M16 3H8.00002C4.14996 3 1 6.15005 1 10C1 13.85 4.14996 17 8.00002 17H8.88195L10.658 20.553C10.9509 21.1385 11.4405 21.4745 11.9999 21.4745C12.5595 21.4745 13.049 21.1385 13.342 20.5525L15.1185 17H16C19.8499 17 23 13.85 23 10C23 6.15004 19.8499 3 16 3ZM7.00008 11.5C6.17162 11.5 5.50008 10.8284 5.50008 10C5.50008 9.17165 6.17162 8.50003 7.00008 8.50003C7.82845 8.50003 8.50008 9.17165 8.50008 10C8.50008 10.8284 7.82845 11.5 7.00008 11.5ZM12 11.5C11.1717 11.5 10.5 10.8284 10.5 10C10.5 9.17165 11.1717 8.50003 12 8.50003C12.8284 8.50003 13.5 9.17165 13.5 10C13.5 10.8284 12.8284 11.5 12 11.5ZM17 11.5C16.1716 11.5 15.5 10.8284 15.5 10C15.5 9.17165 16.1716 8.50003 17 8.50003C17.8284 8.50003 18.5 9.17165 18.5 10C18.5 10.8284 17.8284 11.5 17 11.5Z" fill="currentColor"/>
</svg>
