<svg width="24" height="24" viewBox="0 0 24 24" fill="none" xmlns="http://www.w3.org/2000/svg">
<path d="M16 3H8C4.13401 3 1 6.13401 1 10C1 13.866 4.13401 17 8 17H8.88L10.66 20.55C10.8767 21.1007 11.4082 21.4627 12 21.4627C12.5918 21.4627 13.1233 21.1007 13.34 20.55L15.12 17H16C19.866 17 23 13.866 23 10C23 6.13401 19.866 3 16 3ZM16 15H13.88L12 18.76L10.12 15H8C5.23858 15 3 12.7614 3 10C3 7.23858 5.23858 5 8 5H16C18.7614 5 21 7.23858 21 10C21 12.7614 18.7614 15 16 15Z" fill="currentColor"/>
</svg>
