<svg width="24" height="24" viewBox="0 0 24 24" fill="none" xmlns="http://www.w3.org/2000/svg">
<path d="M19.9 9.1C20.3971 9.1 20.8 9.50294 20.8 10C20.8 12.3918 19.851 14.6355 18.1933 16.2933C16.7452 17.7413 14.8499 18.6486 12.7995 18.8549L12.799 21.342L14.8903 21.3428C15.3874 21.3428 15.7903 21.7457 15.7903 22.2428C15.7903 22.7398 15.3874 23.1428 14.8903 23.1428H8.89034C8.39328 23.1428 7.99033 22.7398 7.99033 22.2428C7.99033 21.7457 8.39328 21.3428 8.89034 21.3428L11 21.342L11.0005 18.8549C8.95007 18.6486 7.05482 17.7413 5.60675 16.2933C3.94903 14.6355 3 12.3918 3 10C3 9.50294 3.40294 9.1 3.9 9.1C4.39706 9.1 4.8 9.50294 4.8 10C4.8 11.9095 5.55604 13.697 6.87954 15.0205C8.20304 16.344 9.99053 17.1 11.9 17.1C13.8095 17.1 15.597 16.344 16.9205 15.0205C18.244 13.697 19 11.9095 19 10C19 9.50294 19.4029 9.1 19.9 9.1ZM11.9 1C14.6614 1 16.9 3.23858 16.9 6V10C16.9 12.7614 14.6614 15 11.9 15C9.13858 15 6.9 12.7614 6.9 10V6C6.9 3.23858 9.13858 1 11.9 1Z" fill="currentColor"/>
</svg>
