<svg width="24" height="24" viewBox="0 0 24 24" fill="none" xmlns="http://www.w3.org/2000/svg">
<path d="M18.0029 15.99C18.0029 13.68 16.6629 12.29 13.7529 11.57L11.2329 10.93C9.73287 10.56 9.00287 9.78 9.00287 8.7C9.00287 7.29 10.2029 6.39 12.0029 6.39C13.3758 6.32856 14.6638 7.05408 15.3229 8.26C15.5498 8.68786 15.9987 8.95103 16.4829 8.94C16.7806 8.9547 17.0706 8.84214 17.2805 8.63037C17.4903 8.41861 17.6003 8.12762 17.5829 7.83C17.5207 6.95656 17.0921 6.15013 16.4029 5.61C15.4386 4.80947 14.2518 4.32427 13.0029 4.22V3C13.0029 2.44772 12.5552 2 12.0029 2C11.4506 2 11.0029 2.44772 11.0029 3V4.22C8.11287 4.5 6.25287 6.31 6.25287 8.9C6.25287 11.13 7.59287 12.58 10.2529 13.23L12.7929 13.89C14.5529 14.34 15.3529 15.09 15.3529 16.29C15.3529 17.75 14.1529 18.6 12.1229 18.6C10.7046 18.6561 9.35007 18.0088 8.50287 16.87C8.00287 16.24 7.61287 16 7.10287 16C6.79492 16.0047 6.5025 16.136 6.29439 16.3631C6.08628 16.5901 5.98084 16.8928 6.00287 17.2C6.08923 18.0487 6.52376 18.8236 7.20287 19.34C8.28428 20.2131 9.61472 20.7208 11.0029 20.79V22C11.0029 22.5523 11.4506 23 12.0029 23C12.5552 23 13.0029 22.5523 13.0029 22V20.79C16.0829 20.5 18.0029 18.69 18.0029 15.99Z" fill="currentColor"/>
</svg>
