<svg width="24" height="24" viewBox="0 0 24 24" fill="none" xmlns="http://www.w3.org/2000/svg">
<path d="M10.5 10C10.5 10.8284 9.82843 11.5 9 11.5C8.17157 11.5 7.5 10.8284 7.5 10C7.5 9.17157 8.17157 8.5 9 8.5C9.82843 8.5 10.5 9.17157 10.5 10Z" fill="currentColor"/>
<path d="M15 11.5C15.8284 11.5 16.5 10.8284 16.5 10C16.5 9.17157 15.8284 8.5 15 8.5C14.1716 8.5 13.5 9.17157 13.5 10C13.5 10.8284 14.1716 11.5 15 11.5Z" fill="currentColor"/>
<path d="M7.21001 15.4C8.33261 13.8819 10.112 12.9904 12 13C13.888 12.9904 15.6674 13.8819 16.79 15.4C16.9491 15.6122 17.0175 15.8789 16.98 16.1414C16.9425 16.404 16.8022 16.6409 16.59 16.8C16.4169 16.9298 16.2064 17 15.99 17C15.6753 17 15.3789 16.8518 15.19 16.6C14.4339 15.6006 13.2532 15.0133 12 15.0133C10.7468 15.0133 9.56608 15.6006 8.81001 16.6C8.65088 16.8122 8.41399 16.9524 8.15144 16.9899C7.88888 17.0274 7.62219 16.9591 7.41001 16.8C7.19784 16.6409 7.05757 16.404 7.02006 16.1414C6.98256 15.8789 7.05088 15.6122 7.21001 15.4Z" fill="currentColor"/>
<path fill-rule="evenodd" clip-rule="evenodd" d="M2 12C2 6.47715 6.47715 2 12 2C14.6522 2 17.1957 3.05357 19.0711 4.92893C20.9464 6.8043 22 9.34784 22 12C22 17.5228 17.5228 22 12 22C6.47715 22 2 17.5228 2 12ZM4 12C4 16.4183 7.58172 20 12 20C14.1217 20 16.1566 19.1571 17.6569 17.6569C19.1571 16.1566 20 14.1217 20 12C20 7.58172 16.4183 4 12 4C7.58172 4 4 7.58172 4 12Z" fill="currentColor"/>
</svg>
