<svg width="24" height="24" viewBox="0 0 24 24" fill="none" xmlns="http://www.w3.org/2000/svg">
<path d="M14 1.1001L14.0938 1.105L14.2267 1.12889L14.3608 1.1756L14.471 1.23321L14.5309 1.27329L14.5951 1.32494L20.6751 7.40498L20.7475 7.49871L20.7842 7.55843L20.8339 7.66154L20.86 7.73397L20.8807 7.81388C20.8934 7.87486 20.9 7.93714 20.9 8.0001V20.0001C20.9 21.6017 19.6016 22.9001 18 22.9001H5.99998C4.39835 22.9001 3.09998 21.6017 3.09998 20.0001V4.0001C3.09998 2.39847 4.39835 1.1001 5.99998 1.1001H14ZM13.1 2.8991L5.99998 2.9001C5.39246 2.9001 4.89998 3.39258 4.89998 4.0001V20.0001C4.89998 20.6076 5.39246 21.1001 5.99998 21.1001H18C18.6075 21.1001 19.1 20.6076 19.1 20.0001V8.9001H14C13.5029 8.9001 13.1 8.49715 13.1 8.0001V2.8991ZM16 16.1001C16.497 16.1001 16.9 16.503 16.9 17.0001C16.9 17.4972 16.497 17.9001 16 17.9001H7.99998C7.50292 17.9001 7.09998 17.4972 7.09998 17.0001C7.09998 16.503 7.50292 16.1001 7.99998 16.1001H16ZM16 12.1001C16.497 12.1001 16.9 12.503 16.9 13.0001C16.9 13.4972 16.497 13.9001 16 13.9001H7.99998C7.50292 13.9001 7.09998 13.4972 7.09998 13.0001C7.09998 12.503 7.50292 12.1001 7.99998 12.1001H16ZM9.99998 8.1001C10.497 8.1001 10.9 8.50304 10.9 9.0001C10.9 9.49715 10.497 9.9001 9.99998 9.9001H7.99998C7.50292 9.9001 7.09998 9.49715 7.09998 9.0001C7.09998 8.50304 7.50292 8.1001 7.99998 8.1001H9.99998ZM14.9 4.1721V7.1001H17.828L14.9 4.1721Z" fill="currentColor"/>
</svg>
