<svg width="24" height="24" viewBox="0 0 24 24" fill="none" xmlns="http://www.w3.org/2000/svg">
<path d="M21.7982 17.4L18.9982 13.67V9.5C18.992 6.30103 16.6591 3.58214 13.4982 3.09V2C13.4982 1.44772 13.0505 1 12.4982 1C11.9459 1 11.4982 1.44772 11.4982 2V3.09C8.3373 3.58214 6.00441 6.30103 5.9982 9.5V13.67L3.1982 17.4C2.97125 17.7045 2.93638 18.1113 3.1082 18.45C3.27765 18.7863 3.62164 18.9989 3.9982 19H8.4982C8.4982 21.2091 10.2891 23 12.4982 23C14.7073 23 16.4982 21.2091 16.4982 19H20.9982C21.3748 18.9989 21.7187 18.7863 21.8882 18.45C22.06 18.1113 22.0252 17.7045 21.7982 17.4ZM12.4982 21C11.3936 21 10.4982 20.1046 10.4982 19H14.4982C14.4982 20.1046 13.6028 21 12.4982 21ZM5.9982 17L7.7982 14.6C7.92802 14.4269 7.9982 14.2164 7.9982 14V9.5C7.9982 7.01472 10.0129 5 12.4982 5C14.9835 5 16.9982 7.01472 16.9982 9.5V14C16.9982 14.2164 17.0684 14.4269 17.1982 14.6L18.9982 17H5.9982Z" fill="currentColor"/>
</svg>
