<svg width="24" height="24" viewBox="0 0 24 24" fill="none" xmlns="http://www.w3.org/2000/svg">
<path d="M21 16.8103C20.9361 16.5283 20.8353 16.2559 20.7 16.0003L14.7 15.0003C14.2514 15.4996 13.9563 16.1176 13.85 16.7803C10.7334 15.7078 8.28191 13.2636 7.2 10.1503C7.87072 10.0443 8.49613 9.74553 9 9.29032L8 3.29032C7.7355 3.17305 7.45627 3.09231 7.17 3.05032C6.9821 3.01497 6.79118 2.99823 6.6 3.00015C4.61177 3.00015 3 4.6121 3 6.60032C3 14.5532 9.4471 21.0003 17.4 21.0003C18.3548 21.0003 19.2705 20.621 19.9456 19.9459C20.6207 19.2708 21 18.3551 21 17.4003C21.0153 17.204 21.0153 17.0067 21 16.8103Z" fill="currentColor"/>
</svg>
