<svg width="24" height="24" viewBox="0 0 24 24" fill="none" xmlns="http://www.w3.org/2000/svg">
<path d="M8.48003 12.6902C7.94524 11.9025 7.51497 11.0487 7.20003 10.1502C7.87075 10.0442 8.49616 9.74538 9.00003 9.29018L8.00003 3.29018C7.73553 3.1729 7.4563 3.09216 7.17003 3.05018C6.98213 3.01482 6.79121 2.99808 6.60003 3.00018C4.6118 3.00018 3.00001 4.61195 3.00001 6.60018C2.99564 9.72905 4.01401 12.7736 5.90003 15.2702L8.48003 12.6902ZM21.19 4.22018C20.8 3.83245 20.1701 3.83245 19.78 4.22018L4.22003 19.7802C3.8323 20.1702 3.8323 20.8001 4.22003 21.1902C4.40779 21.3795 4.66339 21.486 4.93003 21.486C5.19667 21.486 5.45226 21.3795 5.64003 21.1902L8.73003 18.1002C11.2266 19.9862 14.2712 21.0046 17.4 21.0002C18.3548 21.0002 19.2705 20.6209 19.9456 19.9458C20.6207 19.2706 21 18.355 21 17.4002C20.9987 17.2025 20.982 17.0052 20.95 16.8102C20.9021 16.5305 20.818 16.2582 20.7 16.0002L14.7 15.0002C14.2514 15.4994 13.9563 16.1175 13.85 16.7802C12.9467 16.4694 12.089 16.0389 11.3 15.5002L21.18 5.62018C21.564 5.23406 21.5684 4.61174 21.19 4.22018Z" fill="currentColor"/>
</svg>
