<svg width="24" height="24" viewBox="0 0 24 24" fill="none" xmlns="http://www.w3.org/2000/svg">
<path d="M6.98799 21.2032C6.66879 21.2032 6.39941 21.0934 6.17984 20.8738C5.96028 20.6543 5.85049 20.3849 5.85049 20.0657V19.6037C5.85049 19.3965 5.89713 19.2079 5.99042 19.038C6.08372 18.868 6.20899 18.7334 6.36624 18.6342C6.98364 18.2334 7.48935 17.7293 7.88337 17.1219C8.27738 16.5145 8.47439 15.8291 8.47439 15.0657C8.47439 14.8983 8.46388 14.7352 8.44287 14.5765C8.42185 14.4178 8.39468 14.2715 8.36134 14.1374H6.80864C6.48943 14.1374 6.22003 14.0276 6.00047 13.8081C5.78092 13.5885 5.67114 13.3191 5.67114 12.9999C5.67114 12.6807 5.78092 12.4113 6.00047 12.1918C6.22003 11.9722 6.48943 11.8624 6.80864 11.8624H7.23689C6.90683 11.3283 6.59324 10.7601 6.29614 10.1578C5.99904 9.55543 5.85049 8.81422 5.85049 7.93416C5.85049 6.36096 6.39678 5.02807 7.48934 3.93551C8.58191 2.84292 9.91479 2.29663 11.488 2.29663C12.5485 2.29663 13.5032 2.54845 14.3521 3.05208C15.201 3.5557 15.8791 4.22544 16.3864 5.06131C16.5396 5.32254 16.5499 5.58776 16.4173 5.85698C16.2847 6.12618 16.0735 6.32708 15.7836 6.45968C15.5018 6.57563 15.224 6.58279 14.9505 6.48116C14.6769 6.37952 14.4449 6.20642 14.2543 5.96186C13.9416 5.54049 13.5442 5.20345 13.0622 4.95073C12.5801 4.69801 12.0554 4.57166 11.488 4.57166C10.5572 4.57166 9.76408 4.89837 9.10864 5.55181C8.45321 6.20526 8.12549 6.99937 8.12549 7.93416C8.12549 8.72219 8.31154 9.38387 8.68364 9.9192C9.05574 10.4545 9.45411 11.1023 9.87874 11.8624H12.988C13.3072 11.8624 13.5766 11.9722 13.7961 12.1918C14.0157 12.4113 14.1255 12.6807 14.1255 12.9999C14.1255 13.3191 14.0157 13.5885 13.7961 13.8081C13.5766 14.0276 13.3072 14.1374 12.988 14.1374H10.6744C10.7037 14.2715 10.7236 14.4178 10.7339 14.5765C10.7442 14.7352 10.7494 14.8983 10.7494 15.0657C10.7494 15.8591 10.6145 16.5792 10.3448 17.226C10.075 17.8727 9.73582 18.4401 9.32712 18.9282H13.988C14.5355 18.9282 14.9846 18.7966 15.3353 18.5336C15.686 18.2706 15.9157 17.9037 16.0244 17.4331C16.095 17.1472 16.2225 16.9038 16.4067 16.7029C16.591 16.502 16.8344 16.4015 17.1369 16.4015C17.4561 16.4015 17.7213 16.5103 17.9325 16.7279C18.1438 16.9455 18.2494 17.2139 18.2494 17.5331C18.2494 18.5936 17.7823 19.4704 16.848 20.1635C15.9138 20.8566 14.9605 21.2032 13.988 21.2032H6.98799Z" fill="currentColor"/>
</svg>
