<svg width="24" height="24" viewBox="0 0 24 24" fill="none" xmlns="http://www.w3.org/2000/svg">
<path d="M22.9227 9.16484L12.4227 2.16484C12.089 1.94505 11.6565 1.94505 11.3227 2.16484L0.872748 9.16484C0.470624 9.48875 0.381235 10.0656 0.66646 10.496C0.951685 10.9264 1.51772 11.0689 1.97275 10.8248L2.87275 10.1948V21.4948C2.87275 22.0471 3.32046 22.4948 3.87275 22.4948H19.8727C20.425 22.4948 20.8727 22.0471 20.8727 21.4948V10.1948L21.8227 10.8248C21.9838 10.9376 22.1761 10.9971 22.3727 10.9948C22.8113 10.9914 23.1965 10.7027 23.3227 10.2827C23.4489 9.86268 23.2868 9.40943 22.9227 9.16484ZM18.8727 20.4948H4.87275V8.86484L11.8727 4.19484L18.8727 8.86484V20.4948Z" fill="currentColor"/>
</svg>
