<svg width="24" height="24" viewBox="0 0 24 24" fill="none" xmlns="http://www.w3.org/2000/svg">
<path d="M10.8127 16.6206C10.5461 16.6206 10.2905 16.5142 10.1027 16.3248L7.98275 14.2048C7.79344 14.0171 7.68695 13.7615 7.68695 13.4948C7.68695 13.2282 7.79344 12.9726 7.98275 12.7848C8.37279 12.3971 9.00271 12.3971 9.39275 12.7848L10.8127 14.2048L14.3527 10.6648C14.7428 10.2771 15.3727 10.2771 15.7627 10.6648C15.9521 10.8526 16.0585 11.1082 16.0585 11.3748C16.0585 11.6415 15.9521 11.8971 15.7627 12.0848L11.5227 16.3248C11.335 16.5142 11.0794 16.6206 10.8127 16.6206Z" fill="currentColor"/>
<path fill-rule="evenodd" clip-rule="evenodd" d="M12.4227 2.16484L22.9227 9.16483C23.2868 9.40943 23.4489 9.86268 23.3227 10.2827C23.1965 10.7027 22.8113 10.9914 22.3727 10.9948C22.1761 10.9971 21.9838 10.9376 21.8227 10.8248L20.8727 10.1948V21.4948C20.8727 22.0471 20.425 22.4948 19.8727 22.4948H3.87275C3.32046 22.4948 2.87275 22.0471 2.87275 21.4948V10.1948L1.97275 10.8248C1.51772 11.0689 0.951685 10.9264 0.66646 10.496C0.381235 10.0656 0.470624 9.48875 0.872748 9.16483L11.3227 2.16484C11.6565 1.94505 12.089 1.94505 12.4227 2.16484ZM4.87275 20.4948H18.8727V8.86484L11.8727 4.19484L4.87275 8.86484V20.4948Z" fill="currentColor"/>
</svg>
