<svg width="24" height="24" viewBox="0 0 24 24" fill="none" xmlns="http://www.w3.org/2000/svg">
<path d="M19.7504 13.0089C19.2767 12.9962 18.8592 13.3177 18.7504 13.7789C18.1229 16.2011 16.2502 18.1041 13.8384 18.7705C11.4266 19.4369 8.84248 18.7653 7.06039 17.0089C4.31277 14.2613 4.31277 9.80649 7.06039 7.05887C9.808 4.31126 14.2628 4.31126 17.0104 7.05887L14.9104 9.15887C14.7691 9.30303 14.7283 9.518 14.807 9.70388C14.8858 9.88975 15.0685 10.0101 15.2704 10.0089H20.5104C20.7865 10.0089 21.0104 9.78502 21.0104 9.50887V4.21887C21.0104 3.94273 20.7865 3.71887 20.5104 3.71887C20.3793 3.71466 20.2524 3.76542 20.1604 3.85887L18.3704 5.64887C16.2249 3.49481 13.1369 2.56954 10.1604 3.18887C9.0913 3.40448 8.07313 3.82193 7.16039 4.41887C3.9771 6.44946 2.39973 10.2511 3.21039 13.9389C3.43001 14.9817 3.84021 15.975 4.42039 16.8689C6.4509 20.0404 10.2413 21.6124 13.9204 20.8089C14.9923 20.5973 16.0119 20.1759 16.9204 19.5689C18.8109 18.3388 20.1706 16.4437 20.7304 14.2589C20.8093 13.9539 20.7399 13.6296 20.5431 13.3837C20.3464 13.1377 20.0452 12.9988 19.7304 13.0089H19.7504Z" fill="currentColor"/>
</svg>
