<svg width="24" height="24" viewBox="0 0 24 24" fill="none" xmlns="http://www.w3.org/2000/svg">
<path d="M20.9107 19.5997C20.5998 19.5997 20.3405 19.4958 20.1328 19.2882C19.9252 19.0805 19.8213 18.8212 19.8213 18.5103V14.55C19.8213 13.6221 19.4989 12.8383 18.854 12.1986C18.2091 11.5589 17.4279 11.239 16.5103 11.239H5.70684L8.9413 14.4735C9.13979 14.672 9.23645 14.9175 9.23128 15.2101C9.2261 15.5027 9.12027 15.7574 8.9138 15.9742C8.69697 16.191 8.43968 16.2994 8.14193 16.2994C7.84419 16.2994 7.58691 16.191 7.37008 15.9742L2.3097 10.9138C2.19729 10.8014 2.11757 10.6812 2.07054 10.5533C2.02351 10.4253 2 10.2908 2 10.1497C2 10.0086 2.02351 9.87408 2.07054 9.74614C2.11757 9.61821 2.19729 9.49803 2.3097 9.38562L7.39758 4.29774C7.59608 4.09925 7.84419 4 8.14193 4C8.43968 4 8.69697 4.10841 8.9138 4.32524C9.13063 4.54207 9.23904 4.79676 9.23904 5.08933C9.23904 5.3819 9.13063 5.63659 8.9138 5.85342L5.70684 9.06038H16.5103C18.0234 9.06038 19.3166 9.59248 20.3899 10.6567C21.4633 11.7209 22 13.0187 22 14.55V18.5103C22 18.8212 21.8962 19.0805 21.6885 19.2882C21.4809 19.4958 21.2216 19.5997 20.9107 19.5997Z" fill="currentColor"/>
</svg>
