<svg width="24" height="24" viewBox="0 0 24 24" fill="none" xmlns="http://www.w3.org/2000/svg">
<path d="M6.9364 15.8928L2.28365 11.264C2.18564 11.166 2.11386 11.0612 2.06833 10.9496C2.02279 10.838 2 10.7207 2 10.5977C2 10.4746 2.02276 10.3573 2.06828 10.2457C2.11382 10.1342 2.1856 10.0294 2.28363 9.93135L6.94992 5.26505C7.12302 5.09196 7.34513 5.00367 7.61625 5.00009C7.88737 4.99671 8.11748 5.08952 8.30656 5.2786C8.48661 5.46769 8.57663 5.69379 8.57663 5.95692C8.57663 6.22005 8.48209 6.44616 8.29301 6.63524L4.33059 10.5977L8.30658 14.5737C8.48873 14.7558 8.57927 14.9739 8.57823 15.228C8.57718 15.4821 8.48212 15.7037 8.29303 15.8928C8.10395 16.0819 7.87784 16.1764 7.61471 16.1764C7.35159 16.1764 7.12548 16.0819 6.9364 15.8928ZM21.05 18.5987C20.7789 18.5987 20.5528 18.5082 20.3717 18.3271C20.1906 18.146 20.1001 17.9199 20.1001 17.6487V14.6269C20.1001 13.7217 19.8109 12.9823 19.2325 12.4084C18.6541 11.8346 17.9169 11.5476 17.0209 11.5476H10.2482L13.2743 14.5737C13.4564 14.7558 13.543 14.9739 13.5339 15.228C13.5249 15.4821 13.4258 15.7037 13.2367 15.8928C13.0476 16.0819 12.8215 16.1764 12.5584 16.1764C12.2953 16.1764 12.0737 16.0819 11.8937 15.8928L7.26489 11.264C7.16687 11.166 7.09509 11.0612 7.04957 10.9496C7.00404 10.838 6.98127 10.7207 6.98127 10.5977C6.98127 10.4746 7.00404 10.3573 7.04957 10.2457C7.09509 10.1342 7.16687 10.0294 7.26489 9.93135L11.9176 5.26505C12.0907 5.09196 12.3128 5.00367 12.584 5.00009C12.8551 4.99671 13.0852 5.08952 13.2743 5.2786C13.4543 5.46769 13.5444 5.69379 13.5444 5.95692C13.5444 6.22005 13.4498 6.44616 13.2607 6.63524L10.2482 9.64773H17.0209C18.4341 9.64773 19.6173 10.1243 20.5704 11.0773C21.5235 12.0304 22 13.2136 22 14.6269V17.6487C22 17.9199 21.9095 18.146 21.7284 18.3271C21.5473 18.5082 21.3212 18.5987 21.05 18.5987Z" fill="currentColor"/>
</svg>
