<svg width="24" height="24" viewBox="0 0 24 24" fill="none" xmlns="http://www.w3.org/2000/svg">
<path d="M18.9171 12.8802C18.9971 12.2963 18.9971 11.7041 18.9171 11.1202L20.9771 9.27021C21.3601 8.96517 21.4659 8.42765 21.2271 8.00021L20.0471 6.00021C19.8093 5.58468 19.3103 5.39601 18.8571 5.55021L16.2071 6.45021C15.7387 6.09253 15.2282 5.79364 14.6871 5.56021L14.1371 2.80021C14.0406 2.32708 13.6198 1.99047 13.1371 2.00021H10.7971C10.3143 1.99047 9.89354 2.32708 9.79706 2.80021L9.26706 5.54021C8.72707 5.77589 8.21686 6.07463 7.74706 6.43021L5.09706 5.53021C4.63896 5.37942 4.13849 5.57708 3.90706 6.00021L2.72706 8.00021C2.48823 8.42765 2.59404 8.96517 2.97706 9.27021L5.07706 11.1202C4.99702 11.7041 4.99702 12.2963 5.07706 12.8802L2.97706 14.7302C2.59404 15.0352 2.48823 15.5728 2.72706 16.0002L3.90706 18.0002C4.14487 18.4157 4.64382 18.6044 5.09706 18.4502L7.74706 17.5502C8.21686 17.9058 8.72707 18.2045 9.26706 18.4402L9.81706 21.1802C9.91354 21.6533 10.3343 21.9899 10.8171 21.9802H13.1771C13.6598 21.9899 14.0806 21.6533 14.1771 21.1802L14.7271 18.4402C15.2682 18.2068 15.7787 17.9079 16.2471 17.5502L18.8971 18.4502C19.3383 18.5831 19.8132 18.3973 20.0471 18.0002L21.2271 16.0002C21.4659 15.5728 21.3601 15.0352 20.9771 14.7302L18.9171 12.8802ZM11.9771 15.0002C10.3202 15.0002 8.97706 13.6571 8.97706 12.0002C8.97706 10.3434 10.3202 9.00021 11.9771 9.00021C13.6339 9.00021 14.9771 10.3434 14.9771 12.0002C14.9771 12.7959 14.661 13.5589 14.0984 14.1215C13.5358 14.6841 12.7727 15.0002 11.9771 15.0002Z" fill="currentColor"/>
</svg>
