<svg width="24" height="24" viewBox="0 0 24 24" fill="none" xmlns="http://www.w3.org/2000/svg">
<path d="M17.9997 22.1853C17.1148 22.1853 16.3627 21.8757 15.7435 21.2563C15.1243 20.6369 14.8147 19.8848 14.8147 19C14.8147 18.8796 14.823 18.7548 14.8397 18.6257C14.8564 18.4966 14.8814 18.3781 14.9147 18.2701L8.15762 14.3375C7.86234 14.6035 7.53004 14.8113 7.16072 14.9609C6.79141 15.1105 6.40451 15.1853 6.00002 15.1853C5.11521 15.1853 4.36311 14.8756 3.74375 14.2562C3.12438 13.6368 2.8147 12.8846 2.8147 11.9997C2.8147 11.1148 3.12438 10.3627 3.74375 9.7435C4.36311 9.1243 5.11521 8.8147 6.00002 8.8147C6.40451 8.8147 6.79141 8.88951 7.16072 9.03915C7.53004 9.18878 7.86234 9.39657 8.15762 9.66252L14.9147 5.72992C14.8814 5.62194 14.8564 5.50342 14.8397 5.37435C14.823 5.24527 14.8147 5.12049 14.8147 5.00002C14.8147 4.11521 15.1244 3.36312 15.7438 2.74375C16.3633 2.12438 17.1155 1.8147 18.0004 1.8147C18.8853 1.8147 19.6373 2.12441 20.2565 2.74385C20.8757 3.36328 21.1853 4.11546 21.1853 5.00037C21.1853 5.88529 20.8757 6.63735 20.2563 7.25655C19.6369 7.87575 18.8848 8.18535 18 8.18535C17.5955 8.18535 17.2086 8.11252 16.8393 7.96687C16.47 7.82122 16.1377 7.61542 15.8424 7.34947L9.08535 11.2701C9.11868 11.3781 9.14368 11.4966 9.16035 11.6257C9.17701 11.7548 9.18535 11.8796 9.18535 12C9.18535 12.1205 9.17701 12.2453 9.16035 12.3743C9.14368 12.5034 9.11868 12.6219 9.08535 12.7299L15.8424 16.6506C16.1377 16.3846 16.47 16.1788 16.8393 16.0332C17.2086 15.8875 17.5955 15.8147 18 15.8147C18.8848 15.8147 19.6369 16.1244 20.2563 16.7438C20.8757 17.3633 21.1853 18.1155 21.1853 19.0004C21.1853 19.8853 20.8756 20.6373 20.2562 21.2565C19.6368 21.8757 18.8846 22.1853 17.9997 22.1853ZM18 6.00002C18.2834 6.00002 18.5209 5.90419 18.7125 5.71252C18.9042 5.52086 19 5.28336 19 5.00002C19 4.71669 18.9042 4.47919 18.7125 4.28752C18.5209 4.09586 18.2834 4.00002 18 4.00002C17.7167 4.00002 17.4792 4.09586 17.2875 4.28752C17.0959 4.47919 17 4.71669 17 5.00002C17 5.28336 17.0959 5.52086 17.2875 5.71252C17.4792 5.90419 17.7167 6.00002 18 6.00002ZM6.00002 13C6.28336 13 6.52086 12.9042 6.71252 12.7125C6.90419 12.5209 7.00002 12.2834 7.00002 12C7.00002 11.7167 6.90419 11.4792 6.71252 11.2875C6.52086 11.0959 6.28336 11 6.00002 11C5.71669 11 5.47919 11.0959 5.28752 11.2875C5.09586 11.4792 5.00002 11.7167 5.00002 12C5.00002 12.2834 5.09586 12.5209 5.28752 12.7125C5.47919 12.9042 5.71669 13 6.00002 13ZM18 20C18.2834 20 18.5209 19.9042 18.7125 19.7125C18.9042 19.5209 19 19.2834 19 19C19 18.7167 18.9042 18.4792 18.7125 18.2875C18.5209 18.0959 18.2834 18 18 18C17.7167 18 17.4792 18.0959 17.2875 18.2875C17.0959 18.4792 17 18.7167 17 19C17 19.2834 17.0959 19.5209 17.2875 19.7125C17.4792 19.9042 17.7167 20 18 20Z" fill="currentColor"/>
</svg>
