<svg width="24" height="24" viewBox="0 0 24 24" fill="none" xmlns="http://www.w3.org/2000/svg">
<path d="M16.2341 13.9495L21.8141 9.8795C22.0176 9.76139 22.1112 9.51746 22.0389 9.2936C21.9667 9.06973 21.7482 8.92648 21.5141 8.9495H14.6241L12.4941 2.4095C12.4463 2.17134 12.2371 2 11.9941 2C11.7512 2 11.542 2.17134 11.4941 2.4095L9.40414 8.9495H2.51414C2.2932 8.94327 2.09438 9.08284 2.02518 9.29275C1.95597 9.50267 2.03281 9.73312 2.21414 9.8595L7.79414 13.9495L5.66414 20.4895C5.59621 20.6958 5.66929 20.9224 5.84498 21.0502C6.02067 21.178 6.25876 21.1777 6.43414 21.0495L12.0141 16.9495L17.5941 21.0095C17.7695 21.1377 18.0076 21.138 18.1833 21.0102C18.359 20.8824 18.4321 20.6558 18.3641 20.4495L16.2341 13.9495Z" fill="currentColor"/>
</svg>
