<svg width="24" height="24" viewBox="0 0 24 24" fill="none" xmlns="http://www.w3.org/2000/svg">
<path d="M12 2C6.47715 2 2 6.47715 2 12C2 17.5228 6.47715 22 12 22C17.5228 22 22 17.5228 22 12C22 9.34784 20.9464 6.8043 19.0711 4.92893C17.1957 3.05357 14.6522 2 12 2ZM16.42 10.23L11.42 15.18C11.2329 15.3709 10.9772 15.4789 10.71 15.48C10.4462 15.4762 10.1946 15.3684 10.01 15.18L7.58 12.71C7.39069 12.5222 7.2842 12.2666 7.2842 12C7.2842 11.7334 7.39069 11.4778 7.58 11.29C7.97004 10.9023 8.59996 10.9023 8.99 11.29L10.76 13.06L15 8.82C15.3968 8.48022 15.9882 8.50307 16.3576 8.87244C16.7269 9.24181 16.7498 9.83324 16.41 10.23H16.42Z" fill="currentColor"/>
</svg>
