<svg width="24" height="24" viewBox="0 0 24 24" fill="none" xmlns="http://www.w3.org/2000/svg">
<path d="M12 2C6.47715 2 2 6.47715 2 12C2 17.5228 6.47715 22 12 22C17.5228 22 22 17.5228 22 12C22 9.34784 20.9464 6.8043 19.0711 4.92893C17.1957 3.05357 14.6522 2 12 2ZM12.93 16.78C12.6755 16.9935 12.3521 17.1072 12.02 17.1C11.6876 17.109 11.3636 16.9951 11.11 16.78C10.8732 16.5702 10.7414 16.2663 10.75 15.95C10.7341 15.6352 10.8675 15.3313 11.11 15.13C11.355 14.9126 11.6725 14.7949 12 14.8C12.3342 14.7908 12.6594 14.9087 12.91 15.13C13.1525 15.3313 13.2859 15.6352 13.27 15.95C13.2837 16.2631 13.1594 16.5665 12.93 16.78ZM15.08 10.62C14.8938 10.9711 14.6505 11.2888 14.36 11.56L13.57 12.29C13.3725 12.4717 13.2157 12.6933 13.11 12.94C13.0197 13.2178 12.9725 13.5079 12.97 13.8H11C10.9786 13.2677 11.0531 12.7359 11.22 12.23C11.376 11.8409 11.627 11.4971 11.95 11.23C12.2332 11.0047 12.4884 10.7462 12.71 10.46C12.8929 10.2447 12.9954 9.9725 13 9.69C13 9.01 12.71 8.69 12.12 8.69C11.8656 8.68355 11.6224 8.79412 11.46 8.99C11.2828 9.21823 11.1908 9.50118 11.2 9.79H8.9C8.86132 8.99423 9.17607 8.222 9.76 7.68C10.422 7.13687 11.2655 6.86525 12.12 6.92C12.9617 6.86592 13.7951 7.11416 14.47 7.62C15.0397 8.1234 15.3459 8.86112 15.3 9.62C15.3021 9.96556 15.2269 10.3072 15.08 10.62Z" fill="currentColor"/>
</svg>
