<svg width="24" height="24" viewBox="0 0 24 24" fill="none" xmlns="http://www.w3.org/2000/svg">
<path d="M12 2C6.47715 2 2 6.47715 2 12C2 17.5228 6.47715 22 12 22C17.5228 22 22 17.5228 22 12C22 9.34784 20.9464 6.8043 19.0711 4.92893C17.1957 3.05357 14.6522 2 12 2ZM15.54 14.12C15.7293 14.3078 15.8358 14.5634 15.8358 14.83C15.8358 15.0966 15.7293 15.3522 15.54 15.54C15.3513 15.7272 15.0958 15.8315 14.83 15.83C14.5642 15.8315 14.3087 15.7272 14.12 15.54L12 13.41L9.88 15.54C9.69128 15.7272 9.4358 15.8315 9.17 15.83C8.9042 15.8315 8.64872 15.7272 8.46 15.54C8.27069 15.3522 8.1642 15.0966 8.1642 14.83C8.1642 14.5634 8.27069 14.3078 8.46 14.12L10.59 12L8.46 9.88C8.06788 9.48788 8.06788 8.85212 8.46 8.46C8.85212 8.06788 9.48788 8.06788 9.88 8.46L12 10.59L14.12 8.46C14.5121 8.06788 15.1479 8.06788 15.54 8.46C15.9321 8.85212 15.9321 9.48788 15.54 9.88L13.41 12L15.54 14.12Z" fill="currentColor"/>
</svg>
