<svg width="24" height="24" viewBox="0 0 24 24" fill="none" xmlns="http://www.w3.org/2000/svg">
<path d="M17.7819 7.5C17.7819 8.32843 17.1103 9 16.2819 9C15.4535 9 14.7819 8.32843 14.7819 7.5C14.7819 6.67157 15.4535 6 16.2819 6C17.1103 6 17.7819 6.67157 17.7819 7.5Z" fill="currentColor"/>
<path fill-rule="evenodd" clip-rule="evenodd" d="M12.9915 2H20.2815C21.11 2 21.7815 2.67157 21.7815 3.5V10.79C21.7812 11.1877 21.6229 11.569 21.3415 11.85L12.1915 21C11.4115 21.7754 10.1516 21.7754 9.37154 21L2.78154 14.41C2.00609 13.6299 2.00609 12.3701 2.78154 11.59L11.9315 2.44C12.2126 2.15862 12.5938 2.00035 12.9915 2ZM10.7815 19.59L19.7815 10.59V4H13.1915L4.19154 13L10.7815 19.59Z" fill="currentColor"/>
</svg>
