<svg width="24" height="24" viewBox="0 0 24 24" fill="none" xmlns="http://www.w3.org/2000/svg">
<path fill-rule="evenodd" clip-rule="evenodd" d="M8.37998 8.88C8.37998 6.87911 9.99911 5.25551 12 5.25C14.0025 5.25549 15.6245 6.87749 15.63 8.88C15.6272 9.49712 15.5703 10.1128 15.46 10.72C15.3083 12.534 13.8195 13.9453 12 14C10.1805 13.9453 8.69171 12.534 8.54 10.72C8.43267 10.1126 8.37913 9.49685 8.37998 8.88ZM12 12C12.91 12 13.36 11.18 13.49 10.4C13.5796 9.89821 13.6265 9.38972 13.63 8.88C13.678 8.26901 13.3792 7.68276 12.8566 7.36257C12.334 7.04238 11.676 7.04238 11.1534 7.36257C10.6308 7.68276 10.332 8.26901 10.38 8.88C10.3789 9.38949 10.4224 9.8981 10.51 10.4C10.64 11.18 11.09 12 12 12Z" fill="currentColor"/>
<path fill-rule="evenodd" clip-rule="evenodd" d="M1 12C1 5.92487 5.92487 1 12 1C14.9174 1 17.7153 2.15893 19.7782 4.22183C21.8411 6.28473 23 9.08262 23 12C23 18.0751 18.0751 23 12 23C5.92487 23 1 18.0751 1 12ZM12 17C9.25 17 7.27 18.27 7 19.49H7.06C10.0671 21.5044 13.9929 21.5044 17 19.49C16.73 18.27 14.75 17 12 17ZM12 15C15.07 15 17.62 16.28 18.55 18.12H18.58C21.9161 14.545 21.7874 8.9604 18.2902 5.54284C14.793 2.12528 9.20695 2.12528 5.70975 5.54284C2.21255 8.9604 2.0839 14.545 5.42 18.12C6.38 16.28 8.93 15 12 15Z" fill="currentColor"/>
</svg>
