<svg width="24" height="24" viewBox="0 0 24 24" fill="none" xmlns="http://www.w3.org/2000/svg">
<path d="M10.3647 16.0178L15.8679 12.4787C16.0379 12.3659 16.1228 12.2061 16.1228 11.9993C16.1228 11.7924 16.0379 11.6331 15.8679 11.5211L10.3647 7.98198C10.1741 7.84936 9.97935 7.84003 9.78043 7.95398C9.58153 8.06793 9.48208 8.23886 9.48208 8.46676V15.5331C9.48208 15.761 9.58153 15.9319 9.78043 16.0458C9.97935 16.1598 10.1741 16.1504 10.3647 16.0178ZM4.07175 20.2032C3.44204 20.2032 2.90544 19.9814 2.46195 19.538C2.01849 19.0945 1.79675 18.5579 1.79675 17.9282V6.07166C1.79675 5.44194 2.0185 4.90534 2.462 4.46186C2.90547 4.01837 3.44206 3.79663 4.07178 3.79663H19.9283C20.558 3.79663 21.0946 4.01837 21.5381 4.46186C21.9816 4.90534 22.2033 5.44194 22.2033 6.07166V17.9282C22.2033 18.5579 21.9816 19.0945 21.5381 19.538C21.0946 19.9814 20.558 20.2032 19.9283 20.2032H4.07175ZM4.07175 17.9282H19.9283V6.07166H4.07175V17.9282Z" fill="currentColor"/>
</svg>
