<svg width="24" height="24" viewBox="0 0 24 24" fill="none" xmlns="http://www.w3.org/2000/svg">
<path d="M22.475 11.594C19.475 5.69404 12.275 3.29404 6.375 6.29404C4.075 7.49404 2.275 9.29404 1.075 11.594C0.975 11.894 0.975 12.194 1.075 12.494C4.075 18.394 11.275 20.794 17.175 17.794C19.475 16.594 21.275 14.794 22.475 12.494C22.575 12.194 22.575 11.794 22.475 11.594ZM11.775 16.994C8.975 16.994 6.775 14.794 6.775 11.994C6.775 9.19404 8.975 6.99404 11.775 6.99404C14.575 6.99404 16.775 9.19404 16.775 11.994C16.775 14.794 14.575 16.994 11.775 16.994ZM11.775 8.99404C13.475 8.99404 14.775 10.294 14.775 11.994C14.775 13.694 13.475 14.994 11.775 14.994C10.075 14.994 8.775 13.694 8.775 11.994C8.775 10.294 10.075 8.99404 11.775 8.99404Z" fill="currentColor"/>
</svg>
