<svg width="24" height="24" viewBox="0 0 24 24" fill="none" xmlns="http://www.w3.org/2000/svg">
<path d="M7.84505 18.0956C6.58165 18.0956 5.60266 17.6266 4.9081 16.6885C4.21353 15.7505 3.87893 14.6619 3.9043 13.4228V13.3989L3.47222 12.7478C3.22114 12.3648 2.89705 11.6584 2.49995 10.6285C2.10285 9.59859 1.9043 8.38311 1.9043 6.98202C1.9043 5.24542 2.33826 3.79831 3.2062 2.6407C4.07413 1.4831 5.16806 0.904297 6.488 0.904297C7.90068 0.904297 9.02178 1.53047 9.8513 2.78282C10.6808 4.03517 11.0956 5.4369 11.0956 6.988C11.0956 7.8909 10.9742 8.74071 10.7315 9.53745C10.4887 10.3342 10.2474 11.0344 10.0075 11.638L10.1836 11.9211C10.3528 12.2103 10.5471 12.615 10.7665 13.1353C10.9859 13.6556 11.0956 14.1827 11.0956 14.7168C11.0956 15.6748 10.7888 16.4774 10.1752 17.1247C9.56164 17.772 8.78491 18.0956 7.84505 18.0956ZM5.27985 11.4325L7.92222 10.9005C8.1349 10.3432 8.34777 9.7379 8.56082 9.08445C8.77386 8.43101 8.88037 7.72621 8.88037 6.97005C8.88037 5.99396 8.65918 5.10819 8.2168 4.31272C7.7744 3.51725 7.20211 3.11952 6.49995 3.11952C5.79778 3.11952 5.2255 3.51825 4.7831 4.3157C4.34071 5.11316 4.11952 6.01788 4.11952 7.02985C4.11952 7.96825 4.24841 8.82268 4.5062 9.59315C4.76398 10.3636 5.02186 10.9767 5.27985 11.4325ZM7.85102 15.8804C8.14777 15.8804 8.39352 15.7747 8.58827 15.5633C8.783 15.3519 8.88037 15.0617 8.88037 14.6929C8.88037 14.4295 8.8177 14.1498 8.69235 13.8537C8.56698 13.5577 8.43763 13.299 8.3043 13.0777L6.11952 13.5358C6.12749 14.1826 6.27133 14.735 6.55105 15.1931C6.83075 15.6513 7.26407 15.8804 7.85102 15.8804ZM16.1548 23.0956C15.215 23.0956 14.4383 22.772 13.8247 22.1247C13.2111 21.4774 12.9043 20.6748 12.9043 19.7168C12.9043 19.1827 13.014 18.6566 13.2334 18.1383C13.4528 17.62 13.647 17.2143 13.8162 16.9211L13.9923 16.638C13.7525 16.0383 13.5112 15.3392 13.2684 14.5404C13.0257 13.7417 12.9043 12.8909 12.9043 11.988C12.9043 10.4369 13.3191 9.03517 14.1486 7.78282C14.9781 6.53047 16.0992 5.9043 17.5119 5.9043C18.8318 5.9043 19.9258 6.4831 20.7937 7.6407C21.6616 8.79831 22.0956 10.2454 22.0956 11.982C22.0956 13.3791 21.898 14.5874 21.5029 15.607C21.1078 16.6266 20.7827 17.3338 20.5277 17.7287L20.0956 18.4048V18.4228C20.1083 19.6619 19.7705 20.7505 19.0823 21.6885C18.3941 22.6266 17.4182 23.0956 16.1548 23.0956ZM18.72 16.4027C18.97 15.9827 19.2259 15.3827 19.4877 14.6027C19.7495 13.8226 19.8804 12.955 19.8804 11.9999C19.8804 11.0079 19.6592 10.1132 19.2168 9.3157C18.7744 8.51825 18.2021 8.11952 17.4999 8.11952C16.7978 8.11952 16.2255 8.51725 15.7831 9.31272C15.3407 10.1082 15.1195 10.998 15.1195 11.982C15.1195 12.7063 15.2211 13.391 15.4241 14.0361C15.6272 14.6812 15.849 15.3146 16.0896 15.9363L18.72 16.4027ZM16.1429 20.8804C16.7298 20.8804 17.1642 20.6493 17.4459 20.1872C17.7276 19.725 17.8724 19.1706 17.8804 18.5239L15.6777 18.1075C15.5443 18.3369 15.418 18.5926 15.2986 18.8747C15.1792 19.1567 15.1195 19.4255 15.1195 19.6809C15.1195 19.9824 15.2127 20.2576 15.3991 20.5067C15.5855 20.7558 15.8335 20.8804 16.1429 20.8804Z" fill="currentColor"/>
</svg>
