<svg width="24" height="24" viewBox="0 0 24 24" fill="none" xmlns="http://www.w3.org/2000/svg">
<path fill-rule="evenodd" clip-rule="evenodd" d="M22.3219 20.007H22.314C22.3166 20.0069 22.3193 20.0069 22.3219 20.007ZM20.5952 20.007L12.034 5.01642L3.47272 20.007H20.5952ZM23.184 20.5069L12.904 2.50695C12.7264 2.19364 12.3941 2 12.034 2C11.6739 2 11.3415 2.19364 11.164 2.50695L0.883979 20.5069C0.704987 20.817 0.705365 21.199 0.884969 21.5087C1.06457 21.8183 1.396 22.0084 1.75398 22.007H22.314C22.672 22.0084 23.0034 21.8183 23.183 21.5087C23.3626 21.199 23.363 20.817 23.184 20.5069Z" fill="currentColor"/>
<path d="M10.834 17.8C10.834 18.4627 11.3712 19 12.034 19C12.6967 19 13.234 18.4627 13.234 17.8C13.234 17.1373 12.6967 16.6 12.034 16.6C11.3712 16.6 10.834 17.1373 10.834 17.8Z" fill="currentColor"/>
<path d="M11.234 15.7068H12.834C12.834 15.7068 13.184 11.2068 13.234 9.70684C13.234 9.04409 12.6967 8.50684 12.034 8.50684C11.3712 8.50684 10.834 9.04409 10.834 9.70684C10.884 11.2068 11.234 15.7068 11.234 15.7068Z" fill="currentColor"/>
</svg>
