<svg width="20" height="20" viewBox="0 0 20 20" fill="none" xmlns="http://www.w3.org/2000/svg">
<g clip-path="url(#clip0)">
<path d="M12.2029 7.79564C11.966 7.55733 11.7033 7.34608 11.4198 7.16576C10.6687 6.68479 9.79545 6.42921 8.90354 6.42921C7.6656 6.4269 6.47796 6.91877 5.60413 7.79564L1.36489 12.0382C0.49255 12.9122 0.00224692 14.0964 0.00146581 15.3313C-0.000174521 17.9082 2.08742 19.9985 4.6643 20.0001C5.90033 20.0044 7.08687 19.5149 7.96039 18.6404L11.4598 15.141C11.5233 15.0779 11.5588 14.9919 11.5583 14.9024C11.5573 14.7184 11.4072 14.57 11.2231 14.5711H11.0898C10.3587 14.5737 9.63411 14.4333 8.95689 14.1578C8.83211 14.1065 8.68869 14.1355 8.59363 14.2311L6.07741 16.7507C5.29606 17.532 4.02926 17.532 3.24791 16.7507C2.46657 15.9693 2.46657 14.7025 3.24791 13.9212L7.50383 9.66863C8.28455 8.88889 9.54928 8.88889 10.33 9.66863C10.8562 10.1638 11.6769 10.1638 12.203 9.66863C12.4294 9.44207 12.5666 9.14158 12.5896 8.8221C12.6139 8.44033 12.4731 8.06646 12.2029 7.79564Z" fill="currentColor"/>
<path d="M18.6319 1.36666C16.8097 -0.455553 13.8553 -0.455553 12.0331 1.36666L8.53703 4.85935C8.44103 4.95582 8.41334 5.10091 8.46704 5.22597C8.52012 5.35137 8.64416 5.43187 8.78031 5.42925H8.9036C9.63386 5.42792 10.3573 5.56942 11.0332 5.84585C11.158 5.89721 11.3014 5.86823 11.3965 5.77255L13.906 3.26632C14.6874 2.48497 15.9542 2.48497 16.7355 3.26632C17.5169 4.04766 17.5169 5.31447 16.7355 6.09581L13.6094 9.21857L13.5827 9.24856L12.4896 10.335C11.7089 11.1148 10.4441 11.1148 9.66343 10.335C9.13727 9.83986 8.31656 9.83986 7.79044 10.335C7.56263 10.5633 7.42528 10.8664 7.40383 11.1882C7.37946 11.57 7.52026 11.9439 7.79044 12.2147C8.1762 12.6021 8.62752 12.918 9.12353 13.1479C9.19351 13.1812 9.2635 13.2079 9.33349 13.2378C9.40348 13.2678 9.47678 13.2912 9.54677 13.3178C9.61676 13.3445 9.69006 13.3678 9.76005 13.3878L9.9567 13.4411C10.09 13.4744 10.2233 13.5011 10.3599 13.5244C10.5245 13.5489 10.6903 13.5645 10.8565 13.5711H11.0898H11.1098L11.3098 13.5478C11.3831 13.5445 11.4597 13.5278 11.5464 13.5278H11.6597L11.8897 13.4945L11.9963 13.4745L12.1896 13.4345H12.2263C13.0449 13.2289 13.7925 12.805 14.3892 12.208L18.6318 7.96547C20.4541 6.14326 20.4541 3.18887 18.6319 1.36666Z" fill="currentColor"/>
</g>
<defs>
<clipPath id="clip0">
<rect width="20" height="20" fill="white"/>
</clipPath>
</defs>
</svg>
