<svg width="36" height="36" viewBox="0 0 36 36" fill="none" xmlns="http://www.w3.org/2000/svg">
<rect x="10.2" y="4" width="15" height="27" fill="white"/>
<path d="M20.3583 5.41669H17.4583C17.0577 5.41669 16.7333 5.74101 16.7333 6.14169C16.7333 6.54236 17.0577 6.86669 17.4583 6.86669H20.3583C20.759 6.86669 21.0833 6.54236 21.0833 6.14169C21.0833 5.74101 20.759 5.41669 20.3583 5.41669Z" fill="#23A4DE"/>
<path d="M23.5 3H11.9C10.3011 3 9 4.30115 9 5.9V29.1C9 30.6989 10.3011 32 11.9 32H23.5C25.0989 32 26.4 30.6989 26.4 29.1V5.9C26.4 4.30115 25.0989 3 23.5 3ZM24.95 29.1C24.95 29.9009 24.3009 30.55 23.5 30.55H11.9C11.0991 30.55 10.45 29.9009 10.45 29.1V5.9C10.45 5.0991 11.0991 4.45 11.9 4.45H23.5C24.3009 4.45 24.95 5.0991 24.95 5.9V29.1Z" fill="white"/>
<path d="M17.7 29.5833C18.5008 29.5833 19.15 28.9341 19.15 28.1333C19.15 27.3325 18.5008 26.6833 17.7 26.6833C16.8992 26.6833 16.25 27.3325 16.25 28.1333C16.25 28.9341 16.8992 29.5833 17.7 29.5833Z" fill="#23A4DE"/>
<path d="M15.0417 6.86669C15.4421 6.86669 15.7667 6.54209 15.7667 6.14169C15.7667 5.74128 15.4421 5.41669 15.0417 5.41669C14.6413 5.41669 14.3167 5.74128 14.3167 6.14169C14.3167 6.54209 14.6413 6.86669 15.0417 6.86669Z" fill="#23A4DE"/>
<path d="M31.6411 14.5394C31.4178 13.1104 30.179 12.0137 28.6883 12.0137C28.1275 12.0137 27.5886 12.1688 27.1212 12.4582C26.4101 11.2632 25.13 10.5195 23.7078 10.5195C21.5109 10.5195 19.7234 12.307 19.7234 14.5039C19.7234 14.5175 19.7234 14.5316 19.7239 14.5452C18.312 14.7831 17.2 16.0141 17.2 17.4922C17.2 19.14 18.5737 20.4805 20.2215 20.4805H31.1785C32.8264 20.4805 34.2 19.14 34.2 17.4922C34.2 16.0015 33.07 14.7627 31.6411 14.5394Z" fill="#23A4DE"/>
</svg>
