<svg width="36" height="36" viewBox="0 0 36 36" fill="none" xmlns="http://www.w3.org/2000/svg">
<path d="M8.97724 8H8.97505C8.72914 8 8.49786 8.09759 8.32321 8.27494C8.14664 8.45426 8.04938 8.69302 8.04938 8.9472V23.1503C8.04938 23.6711 8.46722 24.0958 8.98091 24.0972C11.1465 24.1024 14.7748 24.562 17.2778 27.2286V12.3647C17.2778 12.1881 17.2335 12.0223 17.1499 11.885C15.0956 8.51691 11.1478 8.00517 8.97724 8Z" fill="white"/>
<path d="M27.9507 23.1503V8.9472C27.9507 8.69302 27.8535 8.45426 27.6769 8.27494C27.5022 8.09759 27.2708 8 27.0251 8C27.0243 8 27.0236 8 27.0229 8C24.8524 8.00526 20.9046 8.517 18.8502 11.8851C18.7666 12.0224 18.7224 12.1882 18.7224 12.3648V27.2286C21.2254 24.562 24.8536 24.1024 27.0193 24.0972C27.5329 24.0958 27.9507 23.6711 27.9507 23.1503Z" fill="white"/>
<path d="M30.0698 11.2752H29.3952V23.15C29.3952 24.4798 28.3309 25.5641 27.0227 25.5674C25.1858 25.5719 22.157 25.9376 20.012 28.0044C23.7218 27.0797 27.6327 27.6808 29.8615 28.1979C30.1398 28.2624 30.4274 28.1957 30.6504 28.0148C30.8726 27.8344 31 27.5646 31 27.275V12.2222C31.0001 11.7 30.5827 11.2752 30.0698 11.2752Z" fill="#23A4DE"/>
<path d="M6.60483 23.15V11.2752H5.93023C5.4174 11.2752 5 11.7 5 12.2222V27.2748C5 27.5644 5.12746 27.8341 5.34964 28.0146C5.57244 28.1954 5.85975 28.2623 6.13849 28.1976C8.36732 27.6804 12.2783 27.0794 15.988 28.0041C13.843 25.9374 10.8142 25.5718 8.97731 25.5673C7.66917 25.5641 6.60483 24.4798 6.60483 23.15Z" fill="#23A4DE"/>
</svg>
