<svg width="36" height="36" viewBox="0 0 36 36" fill="none" xmlns="http://www.w3.org/2000/svg">
<path d="M18.0002 5C10.8228 5 5 10.8155 5 17.9934C5 25.1782 10.8228 31.0004 18.0002 31.0004C25.1815 31.0004 30.9994 25.1781 30.9994 17.9934C30.9995 10.8155 25.1815 5 18.0002 5Z" fill="white"/>
<path d="M18.92 25.5779C18.6204 25.8588 18.2733 26 17.88 26C17.4731 26 17.1182 25.8613 16.8152 25.5835C16.5118 25.3062 16.3598 24.9179 16.3598 24.419C16.3598 23.9764 16.5069 23.6039 16.8002 23.3021C17.0934 23.0002 17.4532 22.8492 17.88 22.8492C18.3 22.8492 18.6534 23.0002 18.9404 23.3021C19.2269 23.6039 19.3706 23.9764 19.3706 24.419C19.37 24.9107 19.22 25.2971 18.92 25.5779ZM22.6552 15.7745C22.425 16.2242 22.1517 16.612 21.8346 16.939C21.5185 17.2659 20.95 17.8154 20.1294 18.588C19.9031 18.806 19.7211 18.9973 19.5847 19.162C19.4482 19.3273 19.3463 19.4782 19.2797 19.6153C19.2127 19.7524 19.1613 19.8896 19.1248 20.0267C19.0884 20.1633 19.0336 20.4043 18.9593 20.7486C18.8331 21.4792 18.4364 21.8445 17.7697 21.8445C17.423 21.8445 17.1317 21.7253 16.8943 21.4863C16.6578 21.2474 16.5398 20.8928 16.5398 20.4221C16.5398 19.8322 16.6268 19.3211 16.8001 18.8888C16.9725 18.4564 17.2031 18.0773 17.4896 17.7504C17.7765 17.4235 18.163 17.0356 18.65 16.5859C19.0768 16.1924 19.3851 15.8957 19.5749 15.6956C19.7652 15.4951 19.925 15.272 20.0546 15.0264C20.1853 14.7803 20.2494 14.5137 20.2494 14.2257C20.2494 13.6634 20.0518 13.1897 19.6546 12.8034C19.2579 12.4171 18.7461 12.2237 18.1193 12.2237C17.3857 12.2237 16.8458 12.4186 16.4991 12.8085C16.1524 13.1983 15.8597 13.7724 15.6193 14.5312C15.3921 15.3253 14.9619 15.7222 14.3293 15.7222C13.9559 15.7222 13.6408 15.5836 13.3839 15.3062C13.1276 15.0289 12.9994 14.7286 12.9994 14.4053C12.9994 13.7381 13.2028 13.0617 13.6092 12.3766C14.0161 11.6915 14.6094 11.1241 15.3897 10.6749C16.1694 10.2251 17.0798 10 18.1193 10C19.086 10 19.9391 10.1883 20.6791 10.5643C21.419 10.9399 21.9909 11.451 22.3944 12.0977C22.7974 12.7439 22.9994 13.4464 22.9994 14.2052C23.0003 14.8013 22.8853 15.3247 22.6552 15.7745Z" fill="#23A4DE"/>
</svg>
