<svg width="36" height="36" viewBox="0 0 36 36" fill="none" xmlns="http://www.w3.org/2000/svg">
<path d="M31.8424 13.4924L27.4674 7.3675C27.2924 7.14 27.0299 7 26.7499 7H9.25009C8.97009 7 8.7076 7.14 8.5326 7.3675L4.15764 13.4924C4.10514 13.6499 4.05264 13.8074 4.00014 13.9649C3.98264 15.9074 5.55763 17.4999 7.50011 17.4999C8.5501 17.4999 9.47759 17.0449 10.1251 16.3099C10.7726 17.0449 11.7001 17.4999 12.7501 17.4999C13.8 17.4999 14.7275 17.0449 15.375 16.3099C16.0225 17.0449 16.95 17.4999 18 17.4999C19.05 17.4999 19.9775 17.0449 20.625 16.3099C21.2725 17.0449 22.2 17.4999 23.2499 17.4999C24.2999 17.4999 25.2274 17.0449 25.8749 16.3099C26.5224 17.0449 27.4499 17.4999 28.4999 17.4999C30.4424 17.4999 32.0174 15.9074 31.9999 13.9649C31.9474 13.8074 31.8949 13.6499 31.8424 13.4924Z" fill="white"/>
<path d="M28.4999 19.2499C27.5706 19.2499 26.6659 19.0014 25.8749 18.5429C24.2929 19.4581 22.2069 19.4581 20.625 18.5429C19.043 19.4581 16.9553 19.4581 15.375 18.5429C13.7948 19.4581 11.7053 19.4581 10.1251 18.5429C8.81084 19.3059 7.18336 19.4039 5.75012 18.9087V27.9998C5.75012 28.9658 6.53411 29.7498 7.5001 29.7498H21.5V20.9999H26.7499V29.7498H28.4999C29.4659 29.7498 30.2499 28.9658 30.2499 27.9998V18.9297C29.6934 19.1274 29.1071 19.2499 28.4999 19.2499ZM16.25 26.2498H9.25008V20.9999H16.25V26.2498Z" fill="#23A4DE"/>
</svg>
