<svg width="36" height="36" viewBox="0 0 36 36" fill="none" xmlns="http://www.w3.org/2000/svg">
<path d="M28.3838 14.5801L24.9335 11.1298V7.14413C24.9335 6.42347 24.3495 5.83943 23.6278 5.83943C22.9077 5.83943 22.3237 6.42347 22.3237 7.14413V8.52006L19.7547 5.95096C18.4846 4.68151 16.2762 4.68376 15.009 5.95326L6.38195 14.5801C5.87268 15.0904 5.87268 15.916 6.38195 16.4255C6.89145 16.9357 7.71873 16.9357 8.22805 16.4255L16.8542 7.79848C17.1352 7.51894 17.6305 7.51894 17.9101 7.79766L26.5377 16.4255C26.7936 16.6806 27.1271 16.8075 27.4606 16.8075C27.7947 16.8075 28.1288 16.6805 28.3838 16.4255C28.8933 15.9161 28.8933 15.0904 28.3838 14.5801Z" fill="white"/>
<path d="M17.8361 10.2751C17.5855 10.0246 17.1796 10.0246 16.9297 10.2751L9.34141 17.8612C9.22161 17.981 9.15369 18.1445 9.15369 18.3151V23.8481C9.15369 25.1465 10.2064 26.1992 11.5047 26.1992H15.2617V20.3808H19.5033V26.1992H23.2603C24.5586 26.1992 25.6113 25.1465 25.6113 23.8482V18.3151C25.6113 18.1445 25.544 17.981 25.4236 17.8612L17.8361 10.2751Z" fill="white"/>
<path d="M29.6572 28.4114L25.9219 24.6744L28.647 23.0995C28.8066 23.0072 28.8996 22.8318 28.8862 22.6479C28.8729 22.4639 28.7558 22.3038 28.5845 22.2355L17.0722 17.6427C16.8934 17.5713 16.6895 17.6132 16.5534 17.7493C16.4173 17.8853 16.3754 18.0893 16.4466 18.268L21.0374 29.7855C21.1057 29.9569 21.2658 30.0741 21.4498 30.0874C21.6338 30.101 21.8092 30.0078 21.9015 29.8481L23.4753 27.1224L27.2103 30.8589C27.3006 30.9493 27.4231 31 27.5508 31C27.6785 31 27.801 30.9492 27.8913 30.8589L29.6572 29.092C29.8451 28.9041 29.8451 28.5993 29.6572 28.4114Z" fill="#23A4DE"/>
</svg>
