<svg width="80" height="80" viewBox="0 0 80 80" fill="none" xmlns="http://www.w3.org/2000/svg">
<path d="M4 26.8235V62.655L8.89495 63.0323V64.6104L36.0003 67L63.1055 64.6103V63.0323L68 62.655V26.8235C68 24.7119 66.1247 23 63.8114 23H8.18841C5.8753 23 4 24.7118 4 26.8235Z" fill="#23A4DE"/>
<path d="M68.955 66.959H3.04495C1.36322 66.959 0 64.8508 0 62.25V66.2909C0 68.8915 1.36322 71 3.04495 71H68.955C70.6368 71 72 68.8918 72 66.2909V62.25C72 64.8508 70.6366 66.959 68.955 66.959Z" fill="#262F69"/>
<path d="M0.000224099 62.3078C0.020219 64.882 1.37568 66.9591 3.04495 66.9591H68.955C70.6245 66.9591 71.9803 64.8811 71.9998 62.3062C71.9999 62.2875 72 62.2688 72 62.25V62.2417C71.9949 61.5546 71.6728 61 71.2751 61H44.5535C44.1527 61 43.8277 61.5631 43.8277 62.2576V62.4511C43.8277 63.8558 43.1705 64.9945 42.3598 64.9945H29.0104C28.1997 64.9945 27.5425 63.8558 27.5425 62.4511V62.2576C27.5425 61.5631 27.2175 61 26.8167 61H0.72494C0.327243 61 0.00506263 61.5546 0 62.2417C7.54454e-05 62.2636 0.000149703 62.2857 0.000224099 62.3078Z" fill="#31448F"/>
<path d="M40.5 33C39.6716 33 39 33.7232 39 34.6154C39 35.5075 39.6716 36.2308 40.5 36.2308H57.5C58.3284 36.2308 59 35.5075 59 34.6154C59 33.7232 58.3284 33 57.5 33H40.5Z" fill="#EAF5FC"/>
<path d="M40.5 38.3847C39.6716 38.3847 39 39.108 39 40.0001C39 40.8923 39.6716 41.6155 40.5 41.6155H57.5C58.3284 41.6155 59 40.8923 59 40.0001C59 39.108 58.3284 38.3847 57.5 38.3847H40.5Z" fill="#EAF5FC"/>
<path d="M40.5 43.7692C39.6716 43.7692 39 44.4925 39 45.3846C39 46.2768 39.6716 47 40.5 47H57.5C58.3284 47 59 46.2768 59 45.3846C59 44.4925 58.3284 43.7692 57.5 43.7692H40.5Z" fill="#EAF5FC"/>
<path d="M12.0759 51.7568C11.4817 51.7568 11 52.2046 11 52.7568C11 53.3091 11.4817 53.7568 12.0759 53.7568H57.9241C58.5183 53.7568 59 53.3091 59 52.7568C59 52.2046 58.5183 51.7568 57.9241 51.7568H12.0759Z" fill="#0061A8"/>
<path d="M11 56.5332C11 56.2571 11.2311 56.0332 11.5161 56.0332H42.4839C42.7689 56.0332 43 56.2571 43 56.5332C43 56.8093 42.7689 57.0332 42.4839 57.0332H11.5161C11.2311 57.0332 11 56.8093 11 56.5332Z" fill="#0061A8"/>
<path d="M13 30C11.8954 30 11 30.8954 11 32V46.1051C11 47.2097 11.8954 48.1051 13 48.1051H34.6577C35.7623 48.1051 36.6577 47.2097 36.6577 46.1051V32C36.6577 30.8954 35.7623 30 34.6577 30H13Z" fill="#7BC9EB"/>
<path d="M67.4518 12.0017C64.8285 5.37522 57.5991 2.24203 51.3045 5.00363C47.0005 6.89184 44.074 11.1714 43.7387 16.0673C40.1014 16.5969 37.5605 20.1303 38.0635 23.9595C38.5187 27.4244 41.3337 30.0035 44.6562 30H67.4517C72.1728 30 76 25.9709 76 21.0009C76 16.0309 72.1729 12.0017 67.4518 12.0017Z" fill="#FFB71B"/>
<path d="M57.8236 10.4067C57.3775 9.86445 56.6225 9.86445 56.1764 10.4067L50.308 17.5387C49.6314 18.361 50.1427 19.7075 51.1316 19.7075H53.9883V23.7123C53.9883 24.4235 54.494 25 55.1177 25H58.8823C59.506 25 60.0117 24.4235 60.0117 23.7123V19.7075H62.8684C63.8573 19.7075 64.3686 18.361 63.692 17.5387L57.8236 10.4067Z" fill="white"/>
</svg>
