<svg width="80" height="80" viewBox="0 0 80 80" fill="none" xmlns="http://www.w3.org/2000/svg">
<path d="M67 35.4285L40 26L13 35.4285L40 45L67 35.4285Z" fill="var(--info-graphic-accent-color-light)"/>
<path d="M67 35.4285L40 26V45L67 35.4285Z" fill="var(--info-graphic-accent-color-dark)"/>
<path d="M40.942 17.9344C41.083 17.0421 41.1709 16.0638 41.1931 14.9668C41.1846 10.2629 38.9328 8.59842 38.4996 7.81811C39.1377 4.25402 38.3939 2.63283 38.048 2.07785C36.7721 1.62498 33.6089 3.24672 31.8806 4.38836C29.0628 3.56351 23.1079 3.64402 20.8747 4.60186C16.7543 1.6515 14.5751 2.10136 14.5751 2.10136C14.5751 2.10136 13.1662 4.62774 14.2026 8.32371C12.8469 10.0513 11.8365 11.2727 11.8365 14.5126C11.8365 15.2885 11.8847 16.0217 11.9664 16.7271C13.134 22.8659 17.9982 25.5142 22.7762 25.9709C22.0572 26.5172 21.194 27.5511 21.0746 28.7491C20.1711 29.3333 18.3539 29.5264 16.9407 29.0821C14.9606 28.4564 14.2026 24.5354 11.2374 25.0947C10.5958 25.2148 10.7233 25.6379 11.2789 25.9987C12.1823 26.5847 13.0331 27.313 13.6889 28.8717C14.1926 30.0683 15.252 32.2049 18.6014 32.2049C19.9311 32.2049 20.8624 32.0477 20.8624 32.0477C20.8624 32.0477 20.8877 35.097 20.8877 36.2863C20.8877 37.6549 19.0406 38.0392 19.0406 38.6958C19.0406 38.9569 19.652 38.9817 20.1433 38.9817C21.1142 38.9817 23.1344 38.173 23.1344 36.7504C23.1344 35.6201 23.1524 31.8215 23.1524 31.1562C23.1524 29.7027 23.9313 29.2399 23.9313 29.2399C23.9313 29.2399 24.0267 36.999 23.7439 38.0393C23.4123 39.2626 22.8115 39.0888 22.8115 39.6332C22.8115 40.4457 25.2401 39.8319 26.0457 38.0535C26.6688 36.6645 26.3898 29.0555 26.3898 29.0555L27.0395 29.0413C27.0395 29.0413 27.0469 32.5262 27.0245 34.1182C27.0011 35.7672 26.831 37.8518 27.8104 38.8357C28.4533 39.4828 30.4228 40.6182 30.4228 39.5806C30.4228 38.9793 29.0436 38.4823 29.0436 36.8531V29.348C29.8815 29.348 30.0546 31.8149 30.0546 31.8149L30.3566 36.3982C30.3566 36.3982 30.1561 38.0707 32.1634 38.7687C32.872 39.0169 34.3879 39.0844 34.459 38.6678C34.5302 38.2502 32.6336 37.6326 32.6156 36.3381C32.6058 35.5497 32.6509 35.0883 32.6509 31.659C32.6509 28.2316 32.1905 26.9638 30.5861 25.9534C35.2388 25.4759 40.0714 23.398 40.942 17.9344Z" fill="var(--info-graphic-accent-color-light)"/>
<path d="M53.2003 26.95C52.549 20.2522 46.8775 15 40 15C33.1229 15 27.4517 20.2523 26.7998 26.95C22.3964 27.5753 19 31.3639 19 35.9297C19 40.931 23.076 44.9999 28.0858 44.9999C55.9679 44.9999 25.783 45 51.9142 45C56.9241 45 61 40.931 61 35.9298C61 31.3639 57.6036 27.5753 53.2003 26.95Z" fill="var(--info-graphic-accent-color-bright)"/>
<path d="M32.6945 33.7756C32.751 33.9138 32.883 34.004 33.0294 34.004H37.0016L37.0016 46.247C39.0041 46.247 40.7786 46.247 43.5266 46.247L43.5266 34.004H47.514C47.6604 34.004 47.7924 33.9138 47.8489 33.7762C47.9048 33.638 47.8743 33.479 47.7706 33.3732L40.5389 25.973C40.4707 25.9035 40.3787 25.8643 40.2822 25.8643C40.1858 25.8643 40.0937 25.9035 40.0256 25.9722L32.7728 33.3725C32.6691 33.4783 32.638 33.6373 32.6945 33.7756Z" fill="var(--info-graphic-accent-color-white)"/>
<path d="M44.5308 46.2468H38.0123C38.0274 48.0466 39.4834 49.5061 41.2715 49.5061C43.0598 49.5061 44.5158 48.0466 44.5308 46.2468Z" fill="var(--info-graphic-accent-color-white)"/>
<path d="M40 44.566L13 35V69.401L40 78V44.566Z" fill="var(--info-graphic-accent-color-dark)"/>
<path d="M67 69.401V35L40 44.566V78L67 69.401Z" fill="var(--info-graphic-accent-color-darkest)"/>
<path d="M13.2576 35L4 46.0304L31.2457 56L40 44.4747L13.2576 35Z" fill="var(--info-graphic-accent-color-lightest)"/>
<path d="M66.7401 35L76 46.0304L48.7566 56L40 44.4747L66.7401 35Z" fill="var(--info-graphic-accent-color-med)"/>
</svg>
