<svg width="80" height="80" viewBox="0 0 80 80" fill="none" xmlns="http://www.w3.org/2000/svg">
<path d="M67 35.4285L40 26L13 35.4285L40 45L67 35.4285Z" fill="var(--info-graphic-accent-color-light)"/>
<path d="M67 35.4285L40 26V45L67 35.4285Z" fill="var(--info-graphic-accent-color-dark)"/>
<path d="M52.564 12.2517C51.9575 5.9453 46.676 1 40.2717 1C33.8676 1 28.5864 5.94539 27.9794 12.2517C23.8788 12.8404 20.7161 16.4077 20.7161 20.7066C20.7161 25.4157 24.5117 29.2468 29.177 29.2468C55.1412 29.2468 27.0325 29.2469 51.3663 29.2469C56.0317 29.2469 59.8272 25.4157 59.8272 20.7067C59.8272 16.4077 56.6644 12.8404 52.564 12.2517Z" fill="var(--info-graphic-accent-color-bright)"/>
<path d="M32.6945 19.7756C32.751 19.9138 32.883 20.004 33.0294 20.004H37.0016L37.0016 29.247C39.0041 29.247 40.7786 29.247 43.5266 29.247L43.5266 20.004H47.514C47.6604 20.004 47.7924 19.9138 47.8489 19.7762C47.9048 19.638 47.8743 19.479 47.7706 19.3732L40.5389 11.973C40.4707 11.9035 40.3787 11.8643 40.2822 11.8643C40.1858 11.8643 40.0937 11.9035 40.0256 11.9722L32.7728 19.3725C32.6691 19.4783 32.638 19.6373 32.6945 19.7756Z" fill="var(--info-graphic-accent-color-white)"/>
<path d="M43.5308 29.2468H37.0123C37.0274 31.0466 38.4834 32.5061 40.2715 32.5061C42.0598 32.5061 43.5158 31.0466 43.5308 29.2468Z" fill="var(--info-graphic-accent-color-white)"/>
<path d="M40.2717 34.4135C37.497 34.4135 35.2329 32.1083 35.1607 29.2468H27.2345C27.2822 29.6934 27.3475 30.1374 27.4336 30.5757C27.5387 31.1109 27.9923 31.4954 28.5187 31.4954H30.5213C30.5792 31.6502 30.6406 31.8036 30.7053 31.9555L29.2889 33.4253C28.9166 33.8115 28.8579 34.4164 29.1485 34.872C29.6823 35.709 30.3012 36.4947 30.9881 37.2074C31.6757 37.9209 32.4329 38.5631 33.239 39.1163C33.6779 39.4178 34.2607 39.3566 34.6329 38.9704L36.0493 37.5008C36.1957 37.568 36.3436 37.6317 36.4929 37.6918V39.7697C36.4929 40.3159 36.8634 40.7866 37.3792 40.8957C38.3262 41.0959 39.2993 41.1974 40.2717 41.1974C41.244 41.1974 42.2171 41.0959 43.1642 40.8957C43.6801 40.7866 44.0506 40.3159 44.0506 39.7697L44.0505 37.6918C44.1998 37.6317 44.3477 37.568 44.4941 37.5008L45.9101 38.9702C46.2823 39.3563 46.865 39.4174 47.304 39.1162C48.1098 38.5633 48.8672 37.9209 49.5552 37.2071C50.2427 36.4936 50.8615 35.7079 51.3947 34.8716C51.6851 34.4161 51.6264 33.8114 51.2542 33.4251L49.838 31.9557C49.9028 31.8038 49.9642 31.6503 50.0221 31.4954H52.0243C52.5507 31.4954 53.0043 31.1109 53.1094 30.5756C53.1955 30.1373 53.2609 29.6934 53.3086 29.2468H45.3828C45.3107 32.1083 43.0465 34.4135 40.2717 34.4135Z" fill="var(--info-graphic-accent-color-var(--info-graphic-accent-color-white))"/>
<path d="M40 44.566L13 36V69.401L40 78V44.566Z" fill="var(--info-graphic-accent-color-dark)"/>
<path d="M67 69.401V35L40 44.566V78L67 69.401Z" fill="var(--info-graphic-accent-color-darkest)"/>
<path d="M13.2576 35L4 46.0304L31.2457 56L40 44.4747L13.2576 35Z" fill="var(--info-graphic-accent-color-lightest)"/>
<path d="M66.7401 35L76 46.0304L48.7566 56L40 44.4747L66.7401 35Z" fill="var(--info-graphic-accent-color-med)"/>
</svg>
