<svg width="40" height="40" viewBox="0 0 40 40" fill="none" xmlns="http://www.w3.org/2000/svg">
<path fill-rule="evenodd" clip-rule="evenodd" d="M19.8333 2H35.1667C37.2801 2 39 3.61522 39 5.6V34.4C39 36.3848 37.2801 38 35.1667 38H19.8333C17.7199 38 16 36.3848 16 34.4V5.6C16 3.61522 17.7199 2 19.8333 2Z" fill="#7BC9EB"/>
<path d="M27.9479 35.2708C29.0736 35.2708 29.9861 34.3753 29.9861 33.2708C29.9861 32.1662 29.0736 31.2708 27.9479 31.2708C26.8222 31.2708 25.9097 32.1662 25.9097 33.2708C25.9097 34.3753 26.8222 35.2708 27.9479 35.2708Z" fill="#23A4DE"/>
<path d="M18 14L33.5576 14C34.3545 14 35 14.63 35 15.4077L35 24.5923C35 25.37 34.3545 26 33.5575 26L18 26L18 14Z" fill="#0061A8"/>
<path d="M21 7.40272L21 32.5973C21 33.7518 19.6506 34.4106 18.7065 33.7161L1.57157 21.1195C0.809476 20.5594 0.809476 19.4413 1.57157 18.8812L18.7066 6.28393C19.6506 5.58941 21 6.24822 21 7.40272Z" fill="#0061A8"/>
<path d="M31 4H27C26.4473 4 26 4.44734 26 5C26 5.55266 26.4473 6 27 6H31C31.5527 6 32 5.55266 32 5C32 4.44734 31.5527 4 31 4Z" fill="#23A4DE"/>
<path d="M24 6C24.5523 6 25 5.55228 25 5C25 4.44772 24.5523 4 24 4C23.4477 4 23 4.44772 23 5C23 5.55228 23.4477 6 24 6Z" fill="#23A4DE"/>
</svg>
