<svg width="20" height="20" viewBox="0 0 20 20" fill="none" xmlns="http://www.w3.org/2000/svg">
<g clip-path="url(#clip0_5907_4860)">
<circle cx="10" cy="10" r="10" fill="#23A4DE"/>
<path d="M15.4305 15.6062V16.9906C15.4305 17.1465 15.3042 17.2727 15.1484 17.2727H4.8518C4.69594 17.2727 4.5697 17.1465 4.5697 16.9906V15.6062C4.5697 14.1538 5.74711 12.9771 7.19991 12.9767C7.71333 12.9764 8.16539 12.7122 8.42562 12.3117C8.68706 11.9099 8.66012 11.5605 8.66012 11.2781L8.66541 11.2651C7.39949 10.7411 6.50912 9.49386 6.50912 8.03858V7.92821C6.00646 7.92821 5.62757 7.53098 5.62757 7.06288V5.59738C5.61628 5.08714 5.63956 3.28771 6.93932 2.03484C8.45066 0.57816 10.8457 0.697346 12.5806 1.47664C12.637 1.50203 12.6352 1.58278 12.5781 1.60641L12.1257 1.79259C12.058 1.82045 12.0724 1.92024 12.1451 1.928L12.3648 1.95162C13.4166 2.06411 14.3938 2.63536 14.9996 3.58603C15.0158 3.61177 15.0112 3.65091 14.9904 3.67312C14.6166 4.06841 14.4079 4.59311 14.4079 5.13862V7.06288C14.4079 7.54068 14.0203 7.92821 13.5425 7.92821H13.491V8.03858C13.491 9.49386 12.6007 10.7411 11.3348 11.2651L11.34 11.2781C11.34 11.5524 11.3109 11.9065 11.5745 12.3117C11.8348 12.7122 12.2868 12.9764 12.8003 12.9767C14.2531 12.9771 15.4305 14.1538 15.4305 15.6062Z" fill="#EAF5FC"/>
<path d="M14.9993 3.5863C15.0156 3.61201 15.011 3.65094 14.9901 3.67308C14.6165 4.06866 14.4077 4.59318 14.4077 5.13872V7.06298C14.4077 7.49981 14.0786 7.92832 13.4909 7.92832V5.75017C13.4909 4.81537 12.7331 4.05758 11.7983 4.05758H8.20155C7.26675 4.05758 6.50897 4.81537 6.50897 5.75017V7.92832C6.00631 7.92832 5.62741 7.53109 5.62741 7.06298V5.59748C5.61613 5.08724 5.6394 3.28781 6.93917 2.03494C8.4504 0.578227 10.8457 0.697483 12.5803 1.47685C12.6367 1.5022 12.6352 1.58299 12.578 1.60654L12.1255 1.7928C12.0579 1.82066 12.0721 1.92034 12.1449 1.92813L12.3646 1.95172C13.4167 2.06411 14.3935 2.63535 14.9993 3.5863V3.5863Z" fill="#7BC9EB"/>
<path d="M4.5697 18.3986V15.6063C4.5697 14.1539 5.74728 12.9773 7.19973 12.9768C7.71329 12.9766 8.16546 12.7122 8.42562 12.3118C9.33377 13.0876 10.6659 13.0881 11.5745 12.3118C11.8347 12.7122 12.2869 12.9766 12.8004 12.9768C14.2529 12.9773 15.4305 14.1539 15.4305 15.6063V18.3984C13.8667 19.4117 12.0021 20 10 20C7.99801 20 6.13343 19.4117 4.5697 18.3986Z" fill="#7BC9EB"/>
<path d="M13.4909 8.0386C13.4909 9.9673 11.9271 11.5296 9.99999 11.5296C8.18427 11.5296 6.50903 10.118 6.50903 7.92823V5.75008C6.50903 4.81528 7.26682 4.0575 8.20162 4.0575H11.7984C12.7332 4.0575 13.4909 4.81528 13.4909 5.75008V8.0386Z" fill="white"/>
<path d="M8.6207 13.8286C8.4903 13.8697 8.35045 13.8923 8.20051 13.8936C6.74432 13.9064 5.55704 15.0578 5.55704 16.5141V16.7791C5.55704 17.0518 5.33602 17.2728 5.06337 17.2728H4.8518C4.69601 17.2728 4.5697 17.1465 4.5697 16.9907V15.6063C4.5697 14.1538 5.74728 12.9773 7.19973 12.9768C7.71329 12.9766 8.16546 12.7122 8.42562 12.3118C8.53049 12.4013 8.64277 12.4818 8.76104 12.5523C9.28126 12.8623 9.19836 13.647 8.6207 13.8286Z" fill="#7BC9EB"/>
<path d="M12.5779 1.60641C12.1633 1.77704 12.1042 1.81466 11.9606 1.79238C9.64477 1.43341 7.61296 2.39159 6.92295 4.64107C6.66483 4.93798 6.50897 5.32622 6.50897 5.75007V7.07321C6.50897 7.64404 5.62741 7.68378 5.62741 7.06288V5.59738C5.61613 5.08714 5.6394 3.28771 6.93917 2.03484C8.4505 0.57816 10.8455 0.697346 12.5804 1.47664C12.6368 1.50203 12.6351 1.58278 12.5779 1.60641Z" fill="#7BC9EB"/>
<path d="M10 16C10 15.4477 10.4477 15 11 15H13C13.5523 15 14 15.4477 14 16C14 16.5523 13.5523 17 13 17H11C10.4477 17 10 16.5523 10 16Z" fill="white"/>
</g>
<defs>
<clipPath id="clip0_5907_4860">
<rect width="20" height="20" fill="white" transform="matrix(-1 0 0 1 20 0)"/>
</clipPath>
</defs>
</svg>
