<svg width="80" height="80" viewBox="0 0 80 80" fill="none" xmlns="http://www.w3.org/2000/svg">
<path fill-rule="evenodd" clip-rule="evenodd" d="M58.9984 32.1092C59.0505 29.7845 57.8223 27.6344 55.807 26.504C49.339 22.8757 38.3668 17.0502 32.7446 14.4878C31.2688 13.8152 29.5966 13.8448 28.1293 14.5358C22.5774 17.1505 11.5559 22.9083 5.14633 26.5079C3.15191 27.628 1.94785 29.7592 2.00174 32.0605C2.37983 48.2062 5.72762 65.2986 27.6075 77.2775C29.3629 78.2385 31.493 78.2403 33.2519 77.2858C55.2859 65.3281 58.6282 48.638 58.9984 32.1092Z" fill="var(--info-graphic-accent-color-light)"/>
<circle cx="30.5" cy="45.5" r="17.5" fill="var(--info-graphic-accent-color-med)"/>
<path fill-rule="evenodd" clip-rule="evenodd" d="M41.073 43.4142L29.2896 55.0712C28.6908 55.6703 27.8948 56 27.048 56C26.2012 56 25.4052 55.6703 24.8064 55.0712L19.9286 50.3228C19.3298 49.7238 19 48.9274 19 48.0803C19 47.2329 19.3298 46.4365 19.9286 45.8374C20.5272 45.2384 21.3233 44.9084 22.1703 44.9084C23.0171 44.9084 23.8133 45.2384 24.4119 45.8377L27.0478 48.343L36.5893 38.9288C37.1882 38.3297 37.9842 38 38.831 38C39.6777 38 40.4738 38.3297 41.0726 38.9288C42.3091 40.1658 42.3091 42.1777 41.073 43.4142Z" fill="var(--info-graphic-accent-color-var(--info-graphic-accent-color-white))"/>
<path d="M58.5765 7.77069C56.2984 2.16364 50.0203 -0.48751 44.5539 1.84922C40.8162 3.44694 38.2748 7.06809 37.9836 11.2108C34.8249 11.6589 32.6183 14.6487 33.0551 17.8888C33.4504 20.8206 35.895 23.0029 38.7804 23H58.5765C62.6763 23 66 19.5908 66 15.3854C66 11.18 62.6765 7.77069 58.5765 7.77069Z" fill="var(--info-graphic-accent-color-lightest)"/>
<path d="M73.9941 76.9999H55.5609C53.597 76.9952 52.0048 75.403 52 73.439V34.5609C52.0048 32.597 53.597 31.0048 55.5609 31H73.9941C75.958 31.0048 77.5502 32.597 77.555 34.5609V73.4402C77.549 75.4042 75.958 76.9952 73.9941 76.9999Z" fill="var(--info-graphic-accent-color-lightest)"/>
<path fill-rule="evenodd" clip-rule="evenodd" d="M55.5662 74.7999H73.9887L73.9901 74.7999C74.7413 74.7974 75.3512 74.189 75.355 73.4364V34.5639C75.3519 33.8126 74.7422 33.2029 73.9908 33.2H55.5642C54.8127 33.2029 54.2029 33.8127 54.2 34.5642V73.4357C54.2029 74.1874 54.8131 74.7974 55.5649 74.7999L55.5662 74.7999ZM55.5609 76.9999C53.597 76.9952 52.0048 75.403 52 73.439V34.5609C52.0048 32.597 53.597 31.0048 55.5609 31H73.9941C75.958 31.0048 77.5502 32.597 77.555 34.5609V73.4402C77.549 75.4042 75.958 76.9952 73.9941 76.9999H55.5609Z" fill="var(--info-graphic-accent-color-lightest)"/>
<path d="M73.9941 77H55.5609C53.597 76.9952 52.0048 75.403 52 73.4391V68.929C63.7416 68.929 67.1063 68.929 77.555 68.929V73.4403C77.549 75.4042 75.958 76.9952 73.9941 77Z" fill="var(--info-graphic-accent-color-dark)"/>
<rect x="57" y="35" width="12" height="13" rx="1" fill="var(--info-graphic-accent-color-med)"/>
<path d="M57 57C57 56.4477 57.4477 56 58 56H72C72.5523 56 73 56.4477 73 57V64C73 64.5523 72.5523 65 72 65H58C57.4477 65 57 64.5523 57 64V57Z" fill="var(--info-graphic-accent-color-med)"/>
<rect x="57" y="50" width="11" height="3" rx="1" fill="var(--info-graphic-accent-color-med)"/>
<circle cx="61" cy="19.0001" r="6.42857" fill="var(--info-graphic-accent-color-white)"/>
<path fill-rule="evenodd" clip-rule="evenodd" d="M75.2941 15.5842L72.9884 15.0829C72.7879 14.4691 72.5395 13.8703 72.2463 13.2935L73.5228 11.308C73.7508 10.9532 73.7007 10.4874 73.4026 10.1894L69.8106 6.59735C69.5126 6.29935 69.0468 6.24922 68.692 6.47719L66.7065 7.75366C66.1297 7.46046 65.5309 7.21213 64.9171 7.01163L64.4158 4.70587C64.3263 4.29388 63.9615 4 63.5399 4H58.4601C58.0385 4 57.6737 4.29388 57.5842 4.70587L57.0829 7.01163C56.4691 7.21213 55.8703 7.46046 55.2935 7.75366L53.308 6.47719C52.9532 6.24922 52.4874 6.29935 52.1894 6.59735L48.5974 10.1894C48.2993 10.4874 48.2492 10.9532 48.4772 11.308L49.7537 13.2935C49.4605 13.8703 49.2121 14.4691 49.0116 15.0829L46.7059 15.5842C46.2939 15.6739 46 16.0385 46 16.4601V21.5399C46 21.9615 46.2939 22.3261 46.7059 22.4158L49.0116 22.9171C49.2121 23.5309 49.4605 24.1297 49.7537 24.7065L48.4772 26.692C48.2492 27.0468 48.2993 27.5126 48.5974 27.8106L52.1894 31.4026C52.4874 31.7007 52.9532 31.7508 53.308 31.5228L55.2935 30.2463C55.8703 30.5395 56.4691 30.7879 57.0829 30.9884L57.5842 33.2941C57.6737 33.7061 58.0385 34 58.4601 34H63.5399C63.9615 34 64.3263 33.7061 64.4158 33.2941L64.9171 30.9884C65.5309 30.7879 66.1297 30.5395 66.7065 30.2463L68.692 31.5228C69.0468 31.7508 69.5126 31.7009 69.8106 31.4026L73.4026 27.8106C73.7007 27.5126 73.7508 27.0468 73.5228 26.692L72.2463 24.7065C72.5395 24.1297 72.7879 23.5309 72.9884 22.9171L75.2941 22.4158C75.7061 22.3261 76 21.9615 76 21.5399V16.4601C76 16.0385 75.7061 15.6739 75.2941 15.5842ZM61 25C64.3137 25 67 22.3137 67 19C67 15.6863 64.3137 13 61 13C57.6863 13 55 15.6863 55 19C55 22.3137 57.6863 25 61 25Z" fill="var(--info-graphic-accent-color-bright)"/>
</svg>
