<svg width="40" height="40" viewBox="0 0 40 40" fill="none" xmlns="http://www.w3.org/2000/svg">
<path fill-rule="evenodd" clip-rule="evenodd" d="M32.0732 3.0293C35.8945 3.0293 39 6.09884 39 9.87586C39 13.6529 35.8945 16.7224 32.0732 16.7224H21V16.73H18V3.03003L32.0732 3.0293ZM26.878 11.5875C27.3283 11.5875 27.7785 11.4049 28.1018 11.0843C28.425 10.7648 28.6097 10.3312 28.6097 9.87586C28.6097 9.43083 28.425 8.98581 28.1018 8.6663C27.4553 8.02729 26.3008 8.02729 25.6543 8.6663C25.331 8.98581 25.1463 9.43083 25.1463 9.87586C25.1463 10.3209 25.331 10.7659 25.6543 11.0854C25.9775 11.4049 26.4278 11.5875 26.878 11.5875ZM32.0732 11.5875C32.5234 11.5875 32.9736 11.4049 33.2969 11.0843C33.6202 10.7648 33.8049 10.3312 33.8049 9.87586C33.8049 9.43083 33.6202 8.98581 33.2969 8.6663C32.6504 8.02729 31.4844 8.02729 30.8494 8.6663C30.5262 8.98581 30.3414 9.43083 30.3414 9.87586C30.3414 10.3209 30.5262 10.7659 30.8494 11.0854C31.1727 11.4049 31.6229 11.5875 32.0732 11.5875Z" fill="#0061A8"/>
<path fill-rule="evenodd" clip-rule="evenodd" d="M21 17.8H18V31.5L32.0732 31.5003C35.8945 31.5003 39 28.4307 39 24.6537C39 20.8767 35.8945 17.8071 32.0732 17.8071H21V17.8ZM28.1018 25.8621C27.7785 26.1828 27.3283 26.3653 26.878 26.3653C26.4278 26.3653 25.9775 26.1828 25.6543 25.8632C25.331 25.5437 25.1463 25.0987 25.1463 24.6537C25.1463 24.2087 25.331 23.7636 25.6543 23.4441C26.3008 22.8051 27.4553 22.8051 28.1018 23.4441C28.425 23.7636 28.6097 24.2087 28.6097 24.6537C28.6097 25.109 28.425 25.5426 28.1018 25.8621ZM33.2969 25.8621C32.9736 26.1828 32.5234 26.3653 32.0732 26.3653C31.6229 26.3653 31.1727 26.1828 30.8494 25.8632C30.5262 25.5437 30.3414 25.0987 30.3414 24.6537C30.3414 24.2087 30.5262 23.7636 30.8494 23.4441C31.4844 22.8051 32.6504 22.8051 33.2969 23.4441C33.6202 23.7636 33.8049 24.2087 33.8049 24.6537C33.8049 25.109 33.6202 25.5426 33.2969 25.8621Z" fill="#0061A8"/>
<path d="M1.00012 28.5765C1.00012 30.1844 2.21193 31.4999 3.69302 31.4999H20.0001C20.0001 25.1666 20.0001 27.3737 20.0001 24.1111H1.00012V28.5765Z" fill="#23A4DE"/>
<path d="M20 3H3.73018C2.22858 3 1 4.235 1 5.74444V24.1111H20C20 20.1879 20 11.9648 20 3Z" fill="#7BC9EB"/>
<path d="M26.8781 11.5875C27.3283 11.5875 27.7786 11.4049 28.1018 11.0842C28.4251 10.7647 28.6098 10.3311 28.6098 9.87583C28.6098 9.4308 28.4251 8.98578 28.1018 8.66627C27.4553 8.02726 26.3008 8.02726 25.6543 8.66627C25.3311 8.98578 25.1464 9.4308 25.1464 9.87583C25.1464 10.3209 25.3311 10.7659 25.6543 11.0854C25.9776 11.4049 26.4278 11.5875 26.8781 11.5875Z" fill="#EAF5FC"/>
<path d="M32.0732 11.5875C32.5235 11.5875 32.9737 11.4049 33.297 11.0842C33.6202 10.7647 33.8049 10.3311 33.8049 9.87583C33.8049 9.4308 33.6202 8.98578 33.297 8.66627C32.6504 8.02726 31.4844 8.02726 30.8495 8.66627C30.5262 8.98578 30.3415 9.4308 30.3415 9.87583C30.3415 10.3209 30.5262 10.7659 30.8495 11.0854C31.1727 11.4049 31.623 11.5875 32.0732 11.5875Z" fill="#EAF5FC"/>
<path d="M26.8781 26.3653C27.3283 26.3653 27.7786 26.1827 28.1018 25.8621C28.4251 25.5426 28.6098 25.109 28.6098 24.6537C28.6098 24.2086 28.4251 23.7636 28.1018 23.4441C27.4553 22.8051 26.3008 22.8051 25.6543 23.4441C25.3311 23.7636 25.1464 24.2086 25.1464 24.6537C25.1464 25.0987 25.3311 25.5437 25.6543 25.8632C25.9776 26.1827 26.4278 26.3653 26.8781 26.3653Z" fill="#7BC9EB"/>
<path d="M32.0732 26.3653C32.5235 26.3653 32.9737 26.1827 33.297 25.8621C33.6202 25.5426 33.8049 25.109 33.8049 24.6537C33.8049 24.2086 33.6202 23.7636 33.297 23.4441C32.6504 22.8051 31.4844 22.8051 30.8495 23.4441C30.5262 23.7636 30.3415 24.2086 30.3415 24.6537C30.3415 25.0987 30.5262 25.5437 30.8495 25.8632C31.1727 26.1827 31.623 26.3653 32.0732 26.3653Z" fill="#7BC9EB"/>
<path d="M17.889 31.5L17.0973 34.6667H12.0835C11.209 34.6667 10.5001 35.3755 10.5001 36.25C10.5001 37.1244 11.209 37.8333 12.0835 37.8333H19V37.84H21V37.8333H28.0279C28.9023 37.8333 29.6112 37.1244 29.6112 36.25C29.6112 35.3755 28.9023 34.6667 28.0279 34.6667H23.014L22.2223 31.5H17.889Z" fill="#0061A8"/>
</svg>
