<svg width="1em" height="1em" viewBox="0 0 20 20" fill="none" xmlns="http://www.w3.org/2000/svg">
<g >
<path d="M2.1687 13.0624V20H5.94667H14.0536H17.8315V13.0628L10.0001 5.23096L2.1687 13.0624Z" fill="#F2F2F2"/>
<path d="M2.1687 13.0624V20H5.94667V12.5228H14.0536V20H17.8315V13.0628L10.0001 5.23096L2.1687 13.0624ZM11.8891 9.92547H8.11113V8.74486H11.8891V9.92547Z" fill="#7BC9EB"/>
<path d="M10.0001 0L0.0352783 9.96478L1.81604 11.7455L10.0001 3.56152L18.1841 11.7455L19.9648 9.96478L10.0001 0Z" fill="#23A4DE"/>
<path d="M7.12732 19.1642L9.24888 16.8635L7.12732 14.5885V19.1642Z" fill="#0061A8"/>
<path d="M12.162 13.7034H7.91577L10.0511 15.993L12.162 13.7034Z" fill="#0061A8"/>
<path d="M7.96277 20H12.1736L10.056 17.7292L7.96277 20Z" fill="#0061A8"/>
<path d="M12.873 19.0185V14.6742L10.8589 16.8587L12.873 19.0185Z" fill="#0061A8"/>
</g>
<defs>
<clipPath id="clip0">
<rect width="1em" height="1em" fill="white"/>
</clipPath>
</defs>
</svg>
