<svg width="20" height="20" viewBox="0 0 20 20" fill="none" xmlns="http://www.w3.org/2000/svg">
<path d="M17.1687 3H2.83033C1.26986 3 0 4.21497 0 5.70836V14.2912C0 15.7846 1.26986 16.9996 2.83033 16.9996H17.1687C18.7292 16.9996 19.999 15.7846 19.999 14.2912V5.70836C19.999 4.21497 18.7292 3 17.1687 3Z" fill="#7BC9EB"/>
<path d="M12.3 3H17.2887C18.7835 3 20 4.21497 20 5.70836V14.2912C20 15.7846 18.7835 16.9996 17.2887 16.9996H7.09998C9.15261 11.5422 10.3288 8.46701 12.3 3Z" fill="#23A4DE"/>
<path d="M7.25789 7.30875L4.2803 10.1576L6.92822 12.6911C7.15711 12.9101 7.15711 13.2651 6.92822 13.4838C6.69972 13.7028 6.32864 13.7028 6.09975 13.4838L3.03739 10.5538C2.8085 10.3348 2.8085 9.98011 3.03739 9.76111L6.42903 6.51609C6.65792 6.29709 7.029 6.29709 7.25789 6.51609C7.4864 6.73472 7.4864 7.08975 7.25789 7.30875ZM12.3794 5.98989L9.28116 14.3833C9.17335 14.6755 8.8386 14.8284 8.53354 14.7253C8.22848 14.6221 8.06833 14.3018 8.17613 14.01L11.2744 5.61654C11.3822 5.32467 11.7166 5.17144 12.022 5.27459C12.3271 5.37773 12.4873 5.69801 12.3794 5.98989ZM16.9617 10.2387L13.5701 13.4838C13.3412 13.7028 12.9701 13.7028 12.7412 13.4838C12.5127 13.2651 12.5127 12.9101 12.7412 12.6911L15.7188 9.84221L13.0709 7.30875C12.842 7.08975 12.842 6.73472 13.0709 6.51609C13.2994 6.29709 13.6705 6.29709 13.8994 6.51609L16.9617 9.44607C17.1906 9.66507 17.1906 10.0197 16.9617 10.2387Z" fill="#EAF5FC"/>
</svg>
