<svg width="20" height="20" viewBox="0 0 20 20" fill="none" xmlns="http://www.w3.org/2000/svg">
<g clip-path="url(#clip0_5905_4628)">
<path d="M6 4.66667L10 2L14 4.66667V6H6V4.66667Z" fill="var(--info-graphic-accent-color-med)"/>
<path d="M4 6C3.44772 6 3 6.44772 3 7C3 7.55228 3.44772 8 4 8H16C16.5523 8 17 7.55228 17 7C17 6.44772 16.5523 6 16 6H4Z" fill="var(--info-graphic-accent-color-lightest)"/>
<path d="M2 10C2 9.44772 2.44772 9 3 9H17C17.5523 9 18 9.44772 18 10C18 10.5523 17.5523 11 17 11H3C2.44772 11 2 10.5523 2 10Z" fill="var(--info-graphic-accent-color-lightest)"/>
<path d="M2 13C2 12.4477 2.44772 12 3 12H6V14H3C2.44772 14 2 13.5523 2 13Z" fill="var(--info-graphic-accent-color-lightest)"/>
<path d="M6 15H3C2.44772 15 2 15.4477 2 16C2 16.5523 2.44772 17 3 17H6V15Z" fill="var(--info-graphic-accent-color-lightest)"/>
<path d="M14 17V15H17C17.5523 15 18 15.4477 18 16C18 16.5523 17.5523 17 17 17H14Z" fill="var(--info-graphic-accent-color-lightest)"/>
<path d="M6 18H3C2.44772 18 2 18.4477 2 19C2 19.5523 2.44772 20 3 20H6V18Z" fill="var(--info-graphic-accent-color-lightest)"/>
<path d="M14 20H17C17.5523 20 18 19.5523 18 19C18 18.4477 17.5523 18 17 18H14V20Z" fill="var(--info-graphic-accent-color-lightest)"/>
<path d="M14 14V12H17C17.5523 12 18 12.4477 18 13C18 13.5523 17.5523 14 17 14H14Z" fill="var(--info-graphic-accent-color-lightest)"/>
<path d="M1.22096 10L10 2.65656L18.779 10L20 8.36478L10 0L7.62939e-06 8.36478L1.22096 10Z" fill="var(--info-graphic-accent-color-med)"/>
</g>
<defs>
<clipPath id="clip0_5905_4628">
<rect width="20" height="20" fill="var(--info-graphic-accent-color-white)"/>
</clipPath>
</defs>
</svg>
