<svg width="80" height="80" viewBox="0 0 80 80" fill="none" xmlns="http://www.w3.org/2000/svg">
<path d="M0 61.0322V21.9032C0 19.7564 1.68416 18 3.74258 18H58.2574C60.3158 18 62 19.7564 62 21.9032V61.0322H0Z" fill="#798da1"/>
<path d="M0 60V64.9667C0 67.185 1.68416 69 3.74258 69L58.2574 69C60.3158 69 62 67.185 62 64.9667V60L0 60Z" fill="#607890"/>
<path d="M24.4599 69H37.5477L38.5213 72.454C39.0864 74.4614 41.2334 76.1031 43.2918 76.1031H39.5492C37.4908 76.1031 35.3438 74.4614 34.7787 72.454L34.3807 71.0437H23.884L24.4599 69Z" fill="#506478"/>
<path d="M43.2457 76.1026H50.3426C50.8593 76.1026 51.2783 76.5272 51.2783 77.0513C51.2783 77.5753 50.8593 77.9999 50.3426 77.9999H11.6693C11.1526 77.9999 10.7336 77.5753 10.7336 77.0513C10.7336 76.5272 11.1526 76.1026 11.6693 76.1026H18.7472C20.7968 76.0874 22.9263 74.4515 23.4888 72.4536L23.8867 71.0435H34.3807L34.7787 72.4538C35.3438 74.4611 37.4908 76.1029 39.5493 76.1029H43.2918C43.2765 76.1029 43.2611 76.1028 43.2457 76.1026Z" fill="#506478"/>
<path d="M26 47C26 45.8954 26.8954 45 28 45H36C37.1046 45 38 45.8954 38 47V54C38 55.1046 37.1046 56 36 56H28C26.8954 56 26 55.1046 26 54V47Z" fill="#9faebc"/>
<path d="M41 50C41 48.8954 41.8954 48 43 48H55C56.1046 48 57 48.8954 57 50V54C57 55.1046 56.1046 56 55 56H43C41.8954 56 41 55.1046 41 54V50Z" fill="#d8dee4"/>
<path d="M58.2268 22.0017C55.5345 15.3752 48.1149 12.242 41.6546 15.0036C37.2373 16.8918 34.2339 21.1714 33.8897 26.0673C30.1567 26.5969 27.5489 30.1303 28.0652 33.9595C28.5323 37.4244 31.4214 40.0035 34.8314 40H58.2267C63.072 40 67 35.9709 67 31.0009C67 26.0309 63.0722 22.0017 58.2268 22.0017Z" fill="#d8dee4"/>
<path d="M18.1849 36.3947C18.4402 36.8517 18.2865 37.4391 17.8421 37.7046L8.38115 43.0687C8.1446 43.2028 7.84654 43.1176 7.71236 42.8774L7.27746 42.0991C7.14065 41.8542 7.22633 41.5422 7.46781 41.406L15.6716 36.7769C15.9131 36.6407 15.9987 36.3287 15.8619 36.0838L13.9548 32.6705C13.6995 32.2135 13.8531 31.6261 14.2975 31.3606L21.5848 27.006C21.964 26.7794 21.8874 26.1976 21.4632 26.0815L18.9712 25.3998C18.7076 25.3277 18.551 25.0506 18.6216 24.781L18.8509 23.9046C18.9214 23.635 19.1924 23.4749 19.456 23.5471L25.2543 25.1334C25.2565 25.134 25.2579 25.1363 25.2573 25.1386C25.2567 25.1409 25.2581 25.1432 25.2603 25.1438C25.7433 25.2636 26.0406 25.7639 25.9242 26.2636C25.9205 26.2775 25.9169 26.2913 25.913 26.3062L24.3439 32.3024C24.2734 32.572 24.0025 32.7321 23.7388 32.66L22.8994 32.4303C22.6357 32.3582 22.4792 32.0812 22.5497 31.8116L23.2231 29.2384C23.3372 28.8023 22.8774 28.4437 22.4963 28.6715L16.4514 32.2836C16.2174 32.4234 16.1372 32.7299 16.2717 32.9706L18.1849 36.3947Z" fill="#fff"/>
<path d="M19.8613 39.4711C19.8613 38.1063 20.9677 37 22.3324 37C23.6972 37 24.8035 38.1063 24.8035 39.4711V53.5289C24.8035 54.8937 23.6972 56 22.3324 56C20.9677 56 19.8613 54.8937 19.8613 53.5289V39.4711Z" fill="#fff"/>
<path d="M13.9307 44.7487C13.9307 43.3839 15.037 42.2776 16.4018 42.2776C17.7665 42.2776 18.8729 43.3839 18.8729 44.7487V53.5287C18.8729 54.8935 17.7665 55.9998 16.4018 55.9998C15.037 55.9998 13.9307 54.8935 13.9307 53.5287V44.7487Z" fill="#fff"/>
<path d="M8 50.0265C8 48.6618 9.10635 47.5554 10.4711 47.5554C11.8359 47.5554 12.9422 48.6618 12.9422 50.0265V53.5288C12.9422 54.8935 11.8359 55.9999 10.4711 55.9999C9.10635 55.9999 8 54.8935 8 53.5288V50.0265Z" fill="#fff"/>
<circle cx="60" cy="20" r="8" fill="#fff"/>
<path d="M75.0959 17.1536C75.0959 17.1536 73.0246 16.3109 72.3912 14.7987C71.7547 13.2844 72.6046 11.2185 72.6046 11.2185C72.7885 10.7689 72.6801 10.1003 72.3632 9.73324L70.1459 7.54126C69.7761 7.22604 69.107 7.12435 68.6598 7.31181C68.6598 7.31181 66.6025 8.18099 65.083 7.55805C63.5612 6.93739 62.7028 4.87575 62.7028 4.87575C62.5161 4.42754 61.9669 4.03283 61.4826 4L58.3637 4.01262C57.8802 4.05282 57.334 4.4541 57.151 4.90424C57.151 4.90424 56.3111 6.97131 54.7969 7.60779C53.2826 8.24429 51.217 7.39616 51.217 7.39616C50.7672 7.21135 50.0998 7.32043 49.7325 7.63738L47.5395 9.85493C47.2242 10.2247 47.1217 10.894 47.31 11.3411C47.31 11.3411 48.179 13.3965 47.5579 14.9157C46.9351 16.4352 44.8755 17.2959 44.8755 17.2959C44.4274 17.4835 44.0339 18.0333 44 18.5177L44.0132 21.6347C44.0535 22.1191 44.4539 22.6645 44.904 22.8475C44.904 22.8475 46.9723 23.689 47.6059 25.2018C48.2422 26.7142 47.3923 28.7802 47.3923 28.7802C47.2084 29.2298 47.3166 29.8974 47.6347 30.2654L49.8518 32.4563C50.2209 32.7725 50.8902 32.8751 51.3373 32.6868C51.3373 32.6868 53.3959 31.821 54.9151 32.4404C56.4343 33.0614 57.2944 35.1237 57.2944 35.1237C57.482 35.5717 58.031 35.9654 58.5164 36L61.6315 35.9854C62.1159 35.945 62.6613 35.5447 62.8462 35.0943C62.8462 35.0943 63.6881 33.0287 65.2005 32.3925C66.7139 31.7561 68.7808 32.6058 68.7808 32.6058C69.2305 32.7906 69.898 32.6815 70.2652 32.3646L72.4576 30.149C72.7729 29.7801 72.8756 29.1117 72.688 28.6636C72.688 28.6636 71.8201 26.6035 72.4394 25.0845C73.062 23.5633 75.1244 22.704 75.1244 22.704C75.5717 22.5174 75.9661 21.9674 76 21.483L75.9869 18.3669C75.9463 17.882 75.5453 17.3367 75.0959 17.1536ZM65.8074 22.3712C64.4947 25.577 60.8344 27.116 57.6278 25.8044C54.4215 24.4944 52.8846 20.8312 54.1928 17.6261C55.5044 14.4188 59.1678 12.8828 62.373 14.191C65.579 15.5038 67.1158 19.1659 65.8074 22.3712Z" fill="#7e9bfa"/>
</svg>
