<svg width="80" height="80" viewBox="0 0 80 80" fill="none" xmlns="http://www.w3.org/2000/svg">
<path d="M37.1722 59.4651C39.5936 59.4634 41.7256 58.1728 42.9529 56.2154C44.0864 54.4106 44.0723 52.8131 44.061 51.5291C44.0599 51.4047 44.0588 51.2833 44.0588 51.165L44.0837 51.1016C38.1134 48.5411 33.9135 42.4463 33.9135 35.3351C26.0981 1.07591 71 6.2908 71 30.5673C71 32.8547 69.213 34.7956 66.8424 34.7956L66.8424 35.3351C66.8424 35.7221 66.83 36.1058 66.8055 36.4863C66.5543 40.4746 65.0068 43.9915 62.6572 46.699C61.0197 48.5967 58.9784 50.1126 56.673 51.1013L56.6979 51.165C56.6979 51.2806 56.697 51.3987 56.6961 51.5189C56.6862 52.8329 56.6742 54.4167 57.8038 56.2154C59.0311 58.1728 61.1632 59.4634 63.5845 59.4651C56.2475 64.1783 45.0428 64.1783 37.1722 59.4651Z" fill="#FFE5C7"/>
<path d="M39.0804 29.0473C38.5762 29.1194 37.9735 29.2057 38.0009 28.7866C38.1914 25.8842 46.6021 27.0092 45.5459 28.7062C45.3259 29.0596 44.7753 28.8167 44.1954 28.5608C43.7955 28.3843 43.3817 28.2018 43.0529 28.2044C41.6758 28.2154 40.2736 28.4783 39.9154 28.7123C39.696 28.8557 39.4931 28.9883 39.0927 29.0455L39.0804 29.0473Z" fill="var(--info-graphic-accent-color-darkest)"/>
<path d="M57.5558 27.2318C58.7156 27.1207 61.3903 27.4727 61.8959 28.2922C62.1491 28.7028 61.9354 28.8493 61.3108 29.0013C60.7748 29.1316 59.4192 28.9636 59.0319 28.7807C58.9166 28.7263 58.7984 28.6705 58.6719 28.6209C58.2166 28.4425 57.6835 28.3657 57.1657 28.4069C56.865 28.4306 56.6633 28.503 56.4455 28.5811C56.2777 28.6414 56.1002 28.705 55.8606 28.7525C55.506 28.8227 55.0503 28.8702 55.0288 28.6068C54.959 27.7463 56.5848 27.3249 57.5558 27.2318Z" fill="var(--info-graphic-accent-color-darkest)"/>
<path d="M59.2573 30.979C59.1734 30.9376 59.0844 30.9015 58.9904 30.8717C55.8833 29.8843 54.829 34.146 57.0969 34.8377C60.3712 35.8362 61.2021 31.9407 59.2573 30.979Z" fill="var(--info-graphic-accent-color-darkest)"/>
<path d="M42.8414 30.8717C42.9354 30.9015 43.0244 30.9376 43.1083 30.979C45.0531 31.9407 44.2222 35.8362 40.9479 34.8377C38.68 34.146 39.7343 29.8843 42.8414 30.8717Z" fill="var(--info-graphic-accent-color-darkest)"/>
<path d="M58.5551 31.3729C58.2586 31.0917 57.6945 31.3418 57.7751 31.7245C57.8161 31.9196 57.8552 32.0756 58.0354 32.2085C58.3103 32.4117 58.861 32.1738 58.8387 31.85C58.824 31.6392 58.7096 31.5195 58.5551 31.3729Z" fill="var(--info-graphic-accent-color-white)"/>
<path d="M44.5 45.5C47.9623 47.0779 51.9565 47.0128 55.484 45.3208C51.9076 49.4651 46.9231 49.1379 44.5 45.5Z" fill="var(--info-graphic-accent-color-darkest)"/>
<path d="M42.5549 31.3726C42.2585 31.0915 41.6943 31.3415 41.7749 31.7242C41.8162 31.9192 41.855 32.0753 42.0352 32.2083C42.3101 32.4115 42.8609 32.1738 42.8385 31.8497C42.8238 31.6389 42.7095 31.5192 42.5549 31.3726Z" fill="var(--info-graphic-accent-color-white)"/>
<path d="M25 70.1106L25 80C41 80 57.2484 80 75 80C75 70.2419 75 70.1106 75 70.1106C75 63.008 69.5787 57.2547 62.892 57.2521C60.5277 57.2513 58.4461 55.9582 57.2484 54C53.0675 57.7939 46.9349 57.7962 42.7516 54C41.554 55.9582 39.4722 57.2513 37.108 57.2521C30.4213 57.2547 25 63.008 25 70.1106Z" fill="var(--info-graphic-accent-color-light)"/>
<path d="M26.0134 13.129C25.9905 13.1677 25.9974 13.2197 26.0309 13.2535C27.9422 15.1843 29.0127 17.7826 29.0127 20.4875V29.5607C29.0127 32.0082 31.0162 34 33.5006 34C33.5006 28.8312 33.4977 26.1301 33.4988 24.6782C33.4994 23.7615 34.3944 23.1027 35.2798 23.3722C38.0626 24.2194 41.3088 24.656 44.7203 23.9224C50.7237 22.6311 52.4239 20.303 57.3209 19.1398C62.7927 17.8417 67.7553 21.9889 67.7208 27.2941C67.7105 29.0381 67.6811 31.2176 67.6777 34C70.1383 34 71.993 32.0759 71.993 29.8084V22.7097C72.0482 20.2381 71.9343 11.5218 65.5718 5.45309C58.1743 -1.6031 46.4493 -1.02544 37.9582 2.74973C37.682 2.87254 37.6893 3.26386 37.9694 3.37796L40.1842 4.28016C40.5153 4.4151 40.4455 4.89797 40.0896 4.93572L39.0139 5.04999C33.2274 5.66216 28.4136 9.0788 26.0134 13.129V13.129Z" fill="var(--info-graphic-accent-color-darkest)"/>
<path d="M0 60.439C0.00477872 62.403 1.59609 63.9952 3.55895 63.9999H21.9821C23.945 63.9952 25.5351 62.4042 25.541 60.4402V21.5609C25.5363 19.597 23.945 18.0048 21.9821 18H3.55895C1.59609 18.0048 0.00477872 19.597 0 21.5609V60.439Z" fill="var(--info-graphic-accent-color-med)"/>
<path d="M21.9821 64H3.55895C1.59609 63.9952 0.00477872 62.403 0 60.4391V55.929C11.7352 55.929 15.098 55.929 25.541 55.929V60.4403C25.5351 62.4042 23.945 63.9952 21.9821 64Z" fill="var(--info-graphic-accent-color-dark)"/>
<rect x="2.99841" y="22" width="13.9924" height="14" rx="1" fill="var(--info-graphic-accent-color-lightest)"/>
<path d="M2.99731 45C2.99731 44.4477 3.44479 44 3.99677 44H17.9891C18.5411 44 18.9886 44.4477 18.9886 45V52C18.9886 52.5523 18.5411 53 17.9891 53H3.99677C3.44479 53 2.99731 52.5523 2.99731 52V45Z" fill="var(--info-graphic-accent-color-white)"/>
<rect x="2.99841" y="39" width="10.994" height="3" rx="1" fill="var(--info-graphic-accent-color-lightest)"/>
<path d="M35.4121 67.5719L27.3007 75.4291C26.5202 76.1879 25.2444 76.1927 24.4589 75.4291L18.3465 69.507L15.1643 74.7166C14.2616 76.195 11.9537 75.892 11.4945 74.2299L4.07052 47.4526C3.67037 46.008 5.03803 44.6799 6.5331 45.0685L34.1727 52.2598C35.888 52.7045 36.2027 54.9379 34.6752 55.8159L29.2984 58.8958L35.4121 64.8192C36.196 65.5798 36.196 66.8115 35.4121 67.5719V67.5719Z" fill="var(--info-graphic-accent-color-bright)"/>
</svg>
