<svg width="80" height="81" viewBox="0 0 80 81" fill="none" xmlns="http://www.w3.org/2000/svg">
<g clip-path="url(#clip0_5922_6691)">
<path d="M49.2506 79.9999H17.1929C13.7773 79.9916 11.0083 77.2225 11 73.807V6.19285C11.0083 2.77733 13.7773 0.00831535 17.1929 0H49.2506C52.6661 0.00831535 55.4352 2.77733 55.4435 6.19285V73.8091C55.4331 77.2246 52.6661 79.9916 49.2506 79.9999Z" fill="#7BC9EB"/>
<path fill-rule="evenodd" clip-rule="evenodd" d="M17.2022 76.1738H49.2413L49.2436 76.1738C50.5502 76.1694 51.6108 75.1113 51.6174 73.8024V6.19811C51.612 4.89144 50.5516 3.83117 49.2448 3.82609H17.1986C15.8917 3.83117 14.8312 4.89172 14.8261 6.19863V73.8012C14.8312 75.1086 15.8924 76.1694 17.1999 76.1738L17.2022 76.1738ZM17.1929 79.9999C13.7773 79.9916 11.0083 77.2225 11 73.807V6.19285C11.0083 2.77733 13.7773 0.00831535 17.1929 0H49.2506C52.6661 0.00831535 55.4352 2.77733 55.4435 6.19285V73.8091C55.4331 77.2246 52.6661 79.9916 49.2506 79.9999H17.1929Z" fill="#7BC9EB"/>
<path d="M49.2506 80H17.1929C13.7773 79.9917 11.0083 77.2227 11 73.8071V65.9634C31.4202 65.9634 37.2718 65.9634 55.4435 65.9634V73.8092C55.4331 77.2247 52.6661 79.9917 49.2506 80Z" fill="#31448F"/>
<path fill-rule="evenodd" clip-rule="evenodd" d="M65.8614 72.9785C66.3818 72.512 66.7476 71.8942 66.9084 71.2092C67.0692 70.5242 67.0175 69.8054 66.76 69.1513L59.1222 49.9936V49.7774C58.9109 48.2535 58.1006 46.8814 56.876 45.973V41.417C56.876 40.1962 56.2337 39.0682 55.191 38.4578C54.1485 37.8474 52.864 37.8474 51.8216 38.4578C50.7789 39.0681 50.1366 40.1962 50.1366 41.417V45.973C48.9253 46.8849 48.1338 48.2592 47.9465 49.7774C47.9048 49.8469 47.8673 49.9193 47.8343 49.9936L41.2284 66.6765H41.2267L40.24 69.1513C39.9825 69.8054 39.9308 70.5242 40.0916 71.2092C40.2524 71.8942 40.6182 72.512 41.1386 72.9785L40.173 75.4502C40.0653 75.7282 40.0698 76.0382 40.1854 76.3131C40.3008 76.588 40.5183 76.8056 40.7907 76.9195C40.9216 76.9775 41.0637 77.005 41.2062 76.9993C41.4318 77.0027 41.6532 76.9372 41.8416 76.8111C42.0298 76.6852 42.1764 76.5047 42.2622 76.2931L43.2392 73.8327H43.3853C44.0549 73.8298 44.7087 73.6245 45.2629 73.2432C45.8168 72.8616 46.2461 72.3214 46.4963 71.6913L48.4375 66.788V66.7606L52.6636 56.1441C52.9408 56.2005 53.2231 56.2273 53.506 56.2239C53.7887 56.2268 54.071 56.1999 54.3485 56.1441L60.5037 71.6913C60.7539 72.3214 61.1832 72.8616 61.7371 73.2432C62.2913 73.6245 62.9451 73.8298 63.6147 73.8327H63.7608L64.7378 76.2931C64.8236 76.5047 64.9702 76.6852 65.1584 76.8111C65.3468 76.9372 65.5682 77.0027 65.7938 76.9993C65.9363 77.005 66.0784 76.9775 66.2093 76.9195C66.4817 76.8056 66.6992 76.588 66.8146 76.3131C66.9302 76.0382 66.9347 75.7282 66.827 75.4502L65.8614 72.9785Z" fill="#23A4DE"/>
<path d="M47.9999 27.9168C47.9752 20.2307 41.4633 14 33.4552 14C25.447 14 18.9753 20.2307 19.0001 27.9168C19.0176 33.358 22.2882 38.0666 27.0374 40.3548L27.058 46.7588C27.0691 50.2058 29.9895 53 33.5808 53C37.1722 53 40.0745 50.2058 40.0634 46.7588L40.0428 40.3548C44.7772 38.0666 48.0175 33.358 47.9999 27.9168Z" fill="#262F69"/>
<circle cx="53.5" cy="50.5" r="5.7" fill="#0061A8"/>
<rect width="5.1814" height="5.18266" transform="matrix(0.722379 0.691498 -0.691332 0.722537 34.9934 34.4902)" fill="#FFB71B"/>
<path d="M29.5722 19.9162L39.0992 30.2825L25.3569 33.3539L29.5722 19.9162Z" fill="#FFB71B"/>
<path d="M5.58725 36.7303C6.11384 32.5176 6.85691 30.896 7.30027 29.9648C9.46718 30.6706 11.8608 30.4487 13.863 29.2673C14.4521 30.2331 15.5925 33.044 16.1191 36.7301L16.1152 36.733C16.5059 39.3446 16.7473 42.5398 16.7977 46.3842C16.9148 60.1826 13.1809 74.0105 11.2714 73.9998L11.2473 73.9999C9.33771 73.9892 5.30453 60.1174 5.12353 46.3187C5.09121 42.503 5.26076 39.3289 5.59011 36.7321L5.58725 36.7303Z" fill="#23A4DE"/>
<path d="M4.91476 18.4036C2.02476 21.145 1.87792 25.7944 4.59609 28.8137C7.32563 31.8456 11.9096 32.0848 14.8348 29.348C17.747 26.6234 17.9062 21.9619 15.2145 18.929C15.2159 18.9306 15.2172 18.9319 15.2172 18.9319C15.2172 18.9319 15.2162 18.9309 15.2138 18.9282C14.0879 17.6776 11.8413 11.9214 14.1351 9.77525L4.91391 18.4026L4.91476 18.4036Z" fill="#0061A8"/>
<path d="M67.6767 11.694C65.1225 5.32232 58.0834 2.30965 51.9543 4.96503C47.7636 6.78062 44.9142 10.8956 44.5877 15.6032C41.0461 16.1124 38.572 19.5099 39.0618 23.1919C39.505 26.5234 42.2459 29.0033 45.481 29H67.6766C72.2735 29 76 25.1259 76 20.347C76 15.5682 72.2737 11.694 67.6767 11.694Z" fill="#FFB71B"/>
</g>
<defs>
<clipPath id="clip0_5922_6691">
<rect width="80" height="80.0016" fill="white"/>
</clipPath>
</defs>
</svg>
