<svg width="80" height="80" viewBox="0 0 80 80" fill="none" xmlns="http://www.w3.org/2000/svg">
<g clip-path="url(#clip0_5927_7369)">
<circle cx="40" cy="40" r="40" fill="var(--info-graphic-accent-color-lightest)"/>
<path d="M73.0984 62.9999C75.2502 62.9947 76.9935 61.2792 77 59.1616V17.2395C76.9948 15.1218 75.2502 13.4051 73.0984 13.3999H52.8396C50.7219 13.4051 49.0052 15.1218 49 17.2395V59.1603C49.0052 61.2779 50.7219 62.9947 52.8396 62.9999H73.0984Z" fill="var(--info-graphic-accent-color-med)"/>
<path d="M73.0984 63.0001H52.9016C50.7498 62.9949 49.0052 61.2781 49 59.1605V54.2974C61.865 54.2974 65.5516 54.2974 77 54.2974V59.1618C76.9935 61.2794 75.2502 62.9949 73.0984 63.0001Z" fill="var(--info-graphic-accent-color-dark)"/>
<rect x="53" y="18" width="9" height="9" rx="1" fill="var(--info-graphic-accent-color-lightest)"/>
<rect x="64" y="18" width="9" height="9" rx="1" fill="var(--info-graphic-accent-color-light)"/>
<rect x="53" y="29" width="9" height="9" rx="1" fill="var(--info-graphic-accent-color-lightest)"/>
<rect x="64" y="29" width="9" height="9" rx="1" fill="var(--info-graphic-accent-color-var(--info-graphic-accent-color-white))"/>
<rect x="53" y="40" width="9" height="9" rx="1" fill="var(--info-graphic-accent-color-light)"/>
<rect x="64" y="40" width="9" height="9" rx="1" fill="var(--info-graphic-accent-color-lightest)"/>
<path d="M14 70.4774C14.9969 65.7951 16.3194 62.2752 19.7375 59.1147C22.5468 56.5172 31.9625 55.9491 33.524 56.5322C35.7432 53.5997 38.5825 50.5798 38.5825 50.5798C38.5825 50.5798 43.6192 51.5169 46.7131 56.3872C46.7208 56.3755 46.7282 56.3659 46.7354 56.3582C47.4292 55.6115 53.9414 55.9477 57.699 57.5064C61.7944 59.2051 62.6445 61.8119 63.5311 64.5304C63.7633 65.2424 63.998 65.962 64.2941 66.675C65.2976 69.0911 65.7334 68.9274 66 70.4774C60 75.5 50.8073 80 40.8201 80C29.9745 80 20.5 76.5 14 70.4774Z" fill="var(--info-graphic-accent-color-var(--info-graphic-accent-color-white))"/>
<path d="M24.7203 77.1C25.5539 73.6071 26.7502 69.3774 26.7502 69.3774C26.7502 69.3774 26.2722 73.8643 26.8238 77.85C26.1095 77.6227 25.408 77.3604 24.7203 77.1Z" fill="var(--info-graphic-accent-color-lightest)"/>
<path d="M53.5 77.7C54.4584 73.2871 53.683 68.1643 53.683 68.1643C53.683 68.1643 55.6834 72.7228 56.5 76.5C55.6114 76.8146 54.4301 77.4401 53.5 77.7Z" fill="var(--info-graphic-accent-color-lightest)"/>
<path d="M40.5223 60.3611C44.0866 60.1895 46.8659 57.7652 46.7301 54.9462C46.5944 52.1272 43.5949 49.9811 40.0306 50.1527C36.4663 50.3243 33.6869 52.7486 33.8227 55.5676C33.9585 58.3866 36.958 60.5327 40.5223 60.3611Z" fill="var(--info-graphic-accent-color-lightest)"/>
<path d="M21.0479 32.8023C21.3134 33.3572 21.5782 33.8559 21.8332 34.2854C25.7307 29.0323 25.1917 25.4159 24.7269 22.2977C24.5104 20.8455 24.3101 19.5013 24.5815 18.1502C24.6319 18.5957 24.7249 19.031 24.8604 19.4456C25.4686 21.3067 26.9372 22.6393 28.6843 23.5233C27.8967 21.2379 27.2658 19.0254 27.2642 16.9211C28.0291 17.4343 28.9062 17.9314 29.8082 18.4425C31.9731 19.6694 34.2808 20.9771 35.5209 22.7839C35.4773 20.3276 35.0183 18.6074 34.3544 17.285C35.519 17.5372 36.7996 17.6303 38.1665 17.4521C39.7336 17.2477 41.1374 16.9798 42.4175 16.7354C47.5174 15.762 50.6547 15.1631 54.3332 20.4521C56.284 23.2573 56.4138 26.2498 56.5255 28.8262C56.5874 30.2518 56.6437 31.55 56.9999 32.6187C57.2528 32.0863 57.4871 31.5531 57.7028 31.0197C59.5881 31.7376 60.983 33.6176 61.0922 35.8856C61.2248 38.6391 59.4165 41.005 56.9505 41.4688C55.6135 49.0019 51.3644 57.5389 39.971 58.0875C29.7277 58.5806 25.0315 50.1472 22.9225 43.445C22.8158 43.4574 22.7081 43.4663 22.5993 43.4715C19.8068 43.606 17.4263 41.29 17.2822 38.2988C17.1565 35.6873 18.7765 33.4245 21.0479 32.8023Z" fill="#FFE5C7"/>
<path d="M29.7242 27.2447C29.697 27.724 30.2937 27.6253 30.793 27.5428L30.8051 27.5408C31.2016 27.4754 31.4024 27.3237 31.6197 27.1597C31.9743 26.8921 32.3725 26.5915 33.7359 26.5789C34.0615 26.5759 34.4712 26.7847 34.8671 26.9865C35.4412 27.2791 35.9864 27.557 36.2042 27.1528C37.25 25.212 29.9127 23.9253 29.7242 27.2447Z" fill="var(--info-graphic-accent-color-darkest)"/>
<path d="M52.3919 26.6793C51.8914 25.742 50.2332 25.3395 49.085 25.4665C48.1235 25.573 46.5139 26.0549 46.583 27.039C46.6043 27.3403 47.0555 27.286 47.4065 27.2057C47.6438 27.1514 47.8195 27.0786 47.9857 27.0097C48.2013 26.9204 48.401 26.8376 48.6988 26.8104C49.2113 26.7634 49.7392 26.8512 50.19 27.0552C50.3153 27.1119 50.4322 27.1757 50.5464 27.238C50.9298 27.4472 51.282 27.6393 51.8126 27.4903C52.431 27.3164 52.6426 27.1488 52.3919 26.6793Z" fill="var(--info-graphic-accent-color-darkest)"/>
<path d="M49.5771 32.4222C49.6387 32.4448 49.697 32.4721 49.7519 32.5034C51.0253 33.2308 50.4813 36.1771 48.3374 35.4218C46.8524 34.8987 47.5427 31.6754 49.5771 32.4222Z" fill="var(--info-graphic-accent-color-darkest)"/>
<path d="M33.6494 32.2162C33.5898 32.1823 33.5267 32.1527 33.4599 32.1282C31.2548 31.3188 30.5066 34.8125 32.1162 35.3795C34.4399 36.1982 35.0296 33.0047 33.6494 32.2162Z" fill="var(--info-graphic-accent-color-darkest)"/>
<path d="M48 46.6187C48 46.6187 44.5353 51.5807 38 49.5035C41.525 52.2282 46.674 53.2905 48 46.6187Z" fill="var(--info-graphic-accent-color-darkest)"/>
<path d="M49.5006 32.8608C49.275 32.6468 48.8458 32.8371 48.9071 33.1282C48.9383 33.2766 48.9681 33.3953 49.1052 33.4965C49.3143 33.651 49.7332 33.47 49.7163 33.2237C49.7051 33.0633 49.6181 32.9722 49.5006 32.8608Z" fill="var(--info-graphic-accent-color-white)"/>
<path d="M29.2229 3.64798C25.9392 3.86527 23.4921 6.90206 22.9916 9.75738C22.1326 9.82292 21.2946 10.1278 20.6393 10.6175C19.6348 11.3681 19.1274 12.5323 18.9493 13.7736C19.7762 12.4978 20.7713 12.233 21.9027 12.2129C15.0135 16.3598 19.0167 29.5418 21.8332 34.2855C25.7307 29.0323 25.1917 25.416 24.7269 22.2977C24.5104 20.8455 24.3101 19.5014 24.5815 18.1502C24.6319 18.5957 24.7249 19.031 24.8604 19.4456C25.4686 21.3068 26.9372 22.6393 28.6843 23.5233C27.8967 21.238 27.2658 19.0254 27.2642 16.9211C28.0291 17.4344 28.9062 17.9315 29.8082 18.4426C31.9731 19.6694 34.2808 20.9771 35.5209 22.784C35.4773 20.3276 35.0183 18.6074 34.3544 17.2851C35.519 17.5372 36.7996 17.6304 38.1665 17.4521C39.7336 17.2478 41.1374 16.9798 42.4175 16.7355C47.5174 15.762 50.6547 15.1632 54.3332 20.4521C56.284 23.2573 56.4138 26.2498 56.5255 28.8263C56.5874 30.2519 56.6437 31.5501 56.9999 32.6188C63.3332 19.2854 57.9998 5.41919 42.1666 2.45216C35.3764 1.17974 28.4772 3.10037 25.9435 7.98877C26.2113 6.03161 26.7087 4.35189 29.2229 3.64798Z" fill="var(--info-graphic-accent-color-darkest)"/>
<path d="M33.3765 32.6033C33.1321 32.3715 32.6669 32.5776 32.7333 32.8932C32.7674 33.054 32.7993 33.1827 32.948 33.2923C33.1747 33.4599 33.6288 33.2639 33.6104 32.9967C33.5982 32.8229 33.5039 32.7241 33.3765 32.6033Z" fill="var(--info-graphic-accent-color-white)"/>
<path d="M24.3773 29.637V39.6005C24.3773 39.9759 24.685 40.2829 25.0612 40.2829H37.3796C37.7557 40.2829 38.0634 39.9759 38.0634 39.6005L38.0636 35.2329H42.3042V39.6005C42.3042 39.9759 42.6119 40.2829 42.9881 40.2829H55.3065C55.6826 40.2829 55.9903 39.9759 55.9903 39.6005V29.637C55.9903 29.2616 55.6826 28.9546 55.3065 28.9546H42.9881C42.6119 28.9546 42.3042 29.2616 42.3042 29.637V33.8681H38.0293V29.637C38.0293 29.2616 37.7216 28.9546 37.3454 28.9546H25.0612C24.6851 28.9546 24.3773 29.2616 24.3773 29.637ZM44.0052 31.3196H54.2891V37.9183L44.0052 37.9181V31.3196ZM26.0785 31.3196H36.3624V37.9183L26.0785 37.9181V31.3196Z" fill="var(--info-graphic-accent-color-darkest)"/>
<path d="M31.4712 51.9995H8.52875C6.03188 51.9995 4 54.0824 4 56.6425V71.3565C4 73.9167 6.03188 75.9995 8.52875 75.9995H31.4712C33.9681 75.9995 36 73.9167 36 71.3565V56.6425C36 54.0824 33.9681 51.9995 31.4712 51.9995Z" fill="var(--info-graphic-accent-color-white)"/>
<path d="M31.4705 51.9995H24.9814C22.4845 51.9995 20.4526 54.0824 20.4526 56.6425L15.7208 71.3565C15.7208 73.9167 17.7527 75.9995 20.2496 75.9995H31.4705C33.9673 75.9995 35.9992 73.9167 35.9992 71.3565V56.6425C35.9992 54.0824 33.9673 51.9995 31.4705 51.9995Z" fill="var(--info-graphic-accent-color-white)"/>
<path d="M31.4712 51.9995H8.52875C6.03187 51.9995 4 54.0824 4 56.6425V71.3565C4 73.9167 6.03187 75.9995 8.52875 75.9995H31.4712C33.9681 75.9995 36 73.9167 36 71.3565V56.6425C36 54.0824 33.9681 51.9995 31.4712 51.9995ZM15.6131 59.386L10.8488 64.2699L15.0856 68.6131C15.4519 68.9885 15.4519 69.5972 15.0856 69.972C14.72 70.3474 14.1263 70.3474 13.76 69.972L8.86 64.949C8.49375 64.5736 8.49375 63.9656 8.86 63.5901L14.2869 58.0271C14.6531 57.6516 15.2469 57.6516 15.6131 58.0271C15.9788 58.4019 15.9788 59.0105 15.6131 59.386ZM23.808 57.125L18.8505 71.5141C18.678 72.0151 18.1424 72.2771 17.6543 72.1003C17.1661 71.9235 16.9099 71.3744 17.0824 70.874L22.0399 56.4849C22.2124 55.9846 22.7474 55.7219 23.2361 55.8987C23.7243 56.0755 23.9805 56.6246 23.808 57.125ZM31.14 64.4089L25.7131 69.972C25.3469 70.3474 24.7531 70.3474 24.3869 69.972C24.0212 69.5972 24.0212 68.9885 24.3869 68.6131L29.1513 63.7291L24.9144 59.386C24.5481 59.0105 24.5481 58.4019 24.9144 58.0271C25.28 57.6516 25.8737 57.6516 26.24 58.0271L31.14 63.05C31.5062 63.4255 31.5062 64.0335 31.14 64.4089Z" fill="var(--info-graphic-accent-color-bright)"/>
</g>
<defs>
<clipPath id="clip0_5927_7369">
<rect width="80" height="80" fill="var(--info-graphic-accent-color-white)"/>
</clipPath>
</defs>
</svg>
