<svg width="1em" height="1em" viewBox="0 0 32 32" fill="none" xmlns="http://www.w3.org/2000/svg">
<path d="M21 10C20.2044 10 19.4413 10.3161 18.8787 10.8787C18.3161 11.4413 18 12.2044 18 13V21H15V24H17C17.2652 24 17.5196 24.1054 17.7071 24.2929C17.8946 24.4804 18 24.7348 18 25C18 25.2652 17.8946 25.5196 17.7071 25.7071C17.5196 25.8946 17.2652 26 17 26H11C10.7348 26 10.4804 25.8946 10.2929 25.7071C10.1054 25.5196 10 25.2652 10 25C10 24.7348 10.1054 24.4804 10.2929 24.2929C10.4804 24.1054 10.7348 24 11 24H13V21H3C2.73478 21 2.48043 20.8946 2.29289 20.7071C2.10536 20.5196 2 20.2652 2 20V5C2 4.73478 2.10536 4.48043 2.29289 4.29289C2.48043 4.10536 2.73478 4 3 4H24C24.2652 4 24.5196 4.10536 24.7071 4.29289C24.8946 4.48043 25 4.73478 25 5V10H21Z" fill="#262F69"/>
<path d="M4 6H23C23 6 23 7.63636 23 10C20.5 10 20 10 19 11C18 12 18 12.5 18 19C13.7647 19 4 19 4 19V6Z" fill="#7BC9EB"/>
<path d="M30 13V25C30 25.2652 29.8946 25.5196 29.7071 25.7071C29.5196 25.8946 29.2652 26 29 26H21C20.7348 26 20.4804 25.8946 20.2929 25.7071C20.1054 25.5196 20 25.2652 20 25V13C20 12.7348 20.1054 12.4804 20.2929 12.2929C20.4804 12.1054 20.7348 12 21 12H29C29.2652 12 29.5196 12.1054 29.7071 12.2929C29.8946 12.4804 30 12.7348 30 13ZM26 23C26 22.8022 25.9414 22.6089 25.8315 22.4444C25.7216 22.28 25.5654 22.1518 25.3827 22.0761C25.2 22.0004 24.9989 21.9806 24.8049 22.0192C24.6109 22.0578 24.4327 22.153 24.2929 22.2929C24.153 22.4327 24.0578 22.6109 24.0192 22.8049C23.9806 22.9989 24.0004 23.2 24.0761 23.3827C24.1518 23.5654 24.28 23.7216 24.4444 23.8315C24.6089 23.9414 24.8022 24 25 24C25.2652 24 25.5196 23.8946 25.7071 23.7071C25.8946 23.5196 26 23.2652 26 23Z" fill="#0061A8"/>
</svg>
