<svg width="40" height="40" viewBox="0 0 40 40" fill="none" xmlns="http://www.w3.org/2000/svg">
<path d="M25.8996 5H8V35H25.8996C26.5073 35 27 34.486 27 33.852V6.14796C27 5.51398 26.5073 5 25.8996 5Z" fill="#7BC9EB"/>
<rect x="28" y="21" width="7" height="8" fill="#EAF5FC"/>
<path d="M37.2421 18.1034H36.3158V14.6897C36.3158 11.549 33.4863 9 30 9C26.5137 9 23.6842 11.549 23.6842 14.6897V18.1034H22.7579C22.3368 18.1034 22 18.4069 22 18.7862V30.3172C22 30.689 22.3368 31 22.7579 31H37.2421C37.6632 31 38 30.689 38 30.3172V18.7862C38 18.4069 37.6632 18.1034 37.2421 18.1034ZM27.8947 23.7931C27.8947 22.7462 28.8379 21.8966 30 21.8966C31.1621 21.8966 32.1053 22.7462 32.1053 23.7931C32.1053 24.4 31.7937 24.9538 31.2632 25.3103V26.8276C31.2632 27.4572 30.6989 27.9655 30 27.9655C29.3011 27.9655 28.7368 27.4572 28.7368 26.8276V25.3103C28.2063 24.9538 27.8947 24.4 27.8947 23.7931ZM26.2105 14.6897C26.2105 12.8083 27.9116 11.2759 30 11.2759C32.0884 11.2759 33.7895 12.8083 33.7895 14.6897V18.1034H26.2105V14.6897Z" fill="#0061A8"/>
<path d="M18.4957 0.221253C18.1791 0.000940636 17.7721 -0.0589812 17.4018 0.0601593L2.83033 4.74766C2.3345 4.90719 2 5.355 2 5.85938V34.1406C2 34.6451 2.33441 35.0928 2.83033 35.2523L17.4018 39.9398C17.7753 40.0601 18.1821 39.9969 18.4957 39.7787C18.8124 39.5586 19 39.2048 19 38.8281V1.17188C19 0.795237 18.8124 0.441487 18.4957 0.221253Z" fill="#23A4DE"/>
<circle cx="14" cy="21" r="2" fill="#0061A8"/>
</svg>
