<svg width="80" height="80" viewBox="0 0 80 80" fill="none" xmlns="http://www.w3.org/2000/svg">
<path d="M70.8672 46.6932H70.0868V25.5466C68.7848 27.2889 65.4034 27.2889 64.2143 25.5466V31.7229H55.2476V27.889C54.8283 28.0194 54.3922 28.1116 53.9319 28.1116C53.4728 28.1116 53.0372 28.0195 52.6174 27.889V31.7229H44.0797V26.3274C42.4015 28.0697 39.8855 28.0697 38.2072 26.3274V46.6933H37.3743C36.3528 46.6933 35.5253 47.5525 35.5253 48.6129C35.5253 49.6734 36.3528 50.5324 37.3743 50.5324H70.8672C73.0371 50.5323 73.0034 46.6932 70.8672 46.6932ZM64.2143 34.4527V38.8053C64.2143 39.6466 63.353 40.3385 62.5364 40.3385H55.2477V34.4526L64.2143 34.4527ZM52.6175 34.4527V40.3385L45.4786 40.3385C44.6625 40.3385 44.0797 39.6524 44.0797 38.8053V34.4527L52.6175 34.4527Z" fill="var(--info-graphic-accent-color-med)"/>
<path d="M70.8672 46.6282H70.0868C58.3416 46.6282 38.2072 46.6283 38.2072 46.6283H37.3743C36.3528 46.6283 35.5253 47.502 35.5253 48.5803C35.5253 49.6586 36.3528 50.5322 37.3743 50.5322H70.8672C73.0371 50.532 73.0034 46.6282 70.8672 46.6282Z" fill="var(--info-graphic-accent-color-darkest)"/>
<path d="M33.3856 29.3105C33.704 29.4053 34.0255 29.4504 34.3423 29.4504C35.7802 29.4504 37.1083 28.5169 37.541 27.0714L37.7166 26.4859C37.8356 27.5489 38.4586 28.4855 39.3907 29.0098C39.6915 29.1765 40.0122 29.3143 40.3682 29.3847C40.5884 29.4292 40.8078 29.4504 41.0235 29.4504C42.5847 29.4504 43.9804 28.3539 44.2958 26.7682L44.3772 26.3619C44.4607 27.4922 45.1099 28.4878 46.075 29.0258C46.4625 29.2424 46.8984 29.3854 47.3695 29.433C47.4821 29.4451 47.5942 29.4499 47.7046 29.4499C49.3996 29.4499 50.852 28.1672 51.0245 26.4484L51.0492 26.2012C51.0797 27.4148 51.7611 28.4564 52.7586 29.0134C53.2403 29.2829 53.7888 29.4498 54.3797 29.4498C54.9727 29.4498 55.5206 29.2829 56.0024 29.0134C56.9991 28.4564 57.6811 27.4148 57.7126 26.2012L57.7363 26.4484C57.909 28.1671 59.3606 29.4499 61.0562 29.4499C61.1674 29.4499 61.2787 29.4451 61.3916 29.433C61.8618 29.3854 62.2978 29.2424 62.6866 29.0258C63.6511 28.4878 64.301 27.4922 64.383 26.3619L64.4644 26.7682C64.7812 28.3546 66.176 29.4504 67.7367 29.4504C67.953 29.4504 68.1716 29.4291 68.3927 29.3847C68.747 29.3143 69.0693 29.1765 69.3686 29.0098C70.3023 28.4854 70.9253 27.5489 71.0443 26.4859L71.2199 27.0714C71.6527 28.5169 72.9808 29.4504 74.4193 29.4504C74.7355 29.4504 75.0569 29.4053 75.3753 29.3105C77.1439 28.7839 78.1489 26.9274 77.6211 25.1651L74.7646 15.6307C74.1679 13.638 72.3302 12.2727 70.2457 12.2727H38.5162C36.4307 12.2727 34.5932 13.638 33.9963 15.6307L31.1405 25.1651C30.6127 26.9275 31.6179 28.784 33.3856 29.3105Z" fill="var(--info-graphic-accent-color-dark)"/>
<path d="M52.6176 34.4521V40.338L45.4787 40.3379C44.6625 40.3379 44.0798 39.6519 44.0798 38.8048V34.4521L52.6176 34.4521Z" fill="var(--info-graphic-accent-color-light)"/>
<path d="M44.0798 27.4562V31.7225H52.6175V28.9298C51.6974 28.356 51.0783 27.3564 51.0492 26.2009L51.0246 26.4481C50.852 28.167 49.3997 29.4496 47.7047 29.4496C47.5942 29.4496 47.4822 29.4449 47.3695 29.4327C46.8985 29.3852 46.4625 29.2422 46.075 29.0255C45.11 28.4876 44.4608 27.4919 44.3772 26.3617L44.2958 26.768C44.2478 27.0094 44.1747 27.2396 44.0798 27.4562Z" fill="var(--info-graphic-accent-color-var(--info-graphic-accent-color-white))"/>
<path d="M55.2477 29.3282C55.5135 29.253 55.7659 29.1455 56.0024 29.0132C56.9991 28.4562 57.6811 27.4146 57.7127 26.2009L57.7364 26.4481C57.9091 28.1669 59.3607 29.4496 61.0562 29.4496C61.1675 29.4496 61.2788 29.4449 61.3916 29.4327C61.8619 29.3852 62.2978 29.2422 62.6866 29.0255C63.4058 28.6245 63.95 27.9689 64.2144 27.1929V31.7225H55.2477V29.3282Z" fill="var(--info-graphic-accent-color-var(--info-graphic-accent-color-white))"/>
<path d="M64.2143 38.8048V34.4522L55.2477 34.4521V40.338H62.5364C63.353 40.338 64.2143 39.6461 64.2143 38.8048Z" fill="var(--info-graphic-accent-color-lightest)"/>
<path d="M48.2506 79.9999H16.1929C12.7773 79.9916 10.0083 77.2225 10 73.807V6.19285C10.0083 2.77733 12.7773 0.00831535 16.1929 0H48.2506C51.6661 0.00831535 54.4352 2.77733 54.4435 6.19285V73.8091C54.4331 77.2246 51.6661 79.9916 48.2506 79.9999Z" fill="var(--info-graphic-accent-color-lightest)"/>
<path fill-rule="evenodd" clip-rule="evenodd" d="M16.2022 76.1738H48.2413L48.2436 76.1738C49.5502 76.1694 50.6108 75.1113 50.6174 73.8024V6.19811C50.612 4.89144 49.5516 3.83117 48.2448 3.82609H16.1986C14.8917 3.83117 13.8312 4.89172 13.8261 6.19863V73.8012C13.8312 75.1086 14.8924 76.1694 16.1999 76.1738L16.2022 76.1738ZM16.1929 79.9999C12.7773 79.9916 10.0083 77.2225 10 73.807V6.19285C10.0083 2.77733 12.7773 0.00831535 16.1929 0H48.2506C51.6661 0.00831535 54.4352 2.77733 54.4435 6.19285V73.8091C54.4331 77.2246 51.6661 79.9916 48.2506 79.9999H16.1929Z" fill="var(--info-graphic-accent-color-lightest)"/>
<path d="M48.2506 80H16.1929C12.7773 79.9917 10.0083 77.2227 10 73.8071V65.9634C30.4202 65.9634 36.2718 65.9634 54.4435 65.9634V73.8092C54.4331 77.2247 51.6661 79.9917 48.2506 80Z" fill="var(--info-graphic-accent-color-dark)"/>
<rect x="18.6957" y="6.95654" width="20.8696" height="22.6087" rx="1" fill="var(--info-graphic-accent-color-med)"/>
<path d="M18.6957 45.2174C18.6957 44.2569 19.4743 43.4783 20.4348 43.4783H44.7826C45.7431 43.4783 46.5218 44.2569 46.5218 45.2174V57.3913C46.5218 58.3518 45.7431 59.1304 44.7826 59.1304H20.4348C19.4743 59.1304 18.6957 58.3518 18.6957 57.3913V45.2174Z" fill="var(--info-graphic-accent-color-med)"/>
<rect x="18.6957" y="33.0435" width="19.1304" height="5.21739" rx="1" fill="var(--info-graphic-accent-color-var(--info-graphic-accent-color-white))"/>
<path d="M19.0586 46C10.8197 46 4 52.7025 4 60.9414C4 69.1803 10.8197 76 19.0586 76C27.2975 76 34 69.1803 34 60.9414C34 52.7025 27.2975 46 19.0586 46Z" fill="var(--info-graphic-accent-color-bright)"/>
<path d="M26.4197 52.5222L27.4609 53.5645C27.8085 53.9125 28 54.3754 28 54.8678C28 55.3602 27.8085 55.8232 27.4609 56.171L26.1855 57.4478L22.5404 53.799L23.8159 52.5222C24.511 51.8263 25.7238 51.8256 26.4197 52.5222Z" fill="var(--info-graphic-accent-color-white)"/>
<path d="M12.1448 64.2055L20.4984 55.8414L24.1435 59.4904L15.7891 67.8538C15.7421 67.9009 15.6831 67.9348 15.6183 67.951L11.457 68.9889C11.4276 68.9964 11.3974 69 11.3678 69C11.2714 69 11.1772 68.9617 11.108 68.8924C11.0166 68.8009 10.9798 68.6675 11.0108 68.5422L12.0476 64.3765C12.0637 64.3124 12.0977 64.2527 12.1448 64.2055Z" fill="var(--info-graphic-accent-color-white)"/>
</svg>
