<svg width="80" height="80" viewBox="0 0 80 80" fill="none" xmlns="http://www.w3.org/2000/svg">
<path d="M59.6654 13.8976V12.6602C59.6666 11.1404 60.2197 9.71852 61.2248 8.65806C62.2526 7.57376 63.6086 6.98643 65.0253 7.00024C67.8992 6.98518 70.4114 9.6382 70.3972 12.6627L70.3972 13.9001L59.6654 13.8976Z" fill="var(--info-graphic-accent-color-dark)"/>
<path d="M70.335 49.207L65.793 58.3753C65.6022 58.759 65.225 59.001 64.8133 58.9999C64.5162 59.001 64.2359 58.8745 64.0316 58.659C63.9534 58.5765 63.8867 58.482 63.8326 58.3742L59.2916 49.207L70.335 49.207Z" fill="var(--info-graphic-accent-color-darkest)"/>
<path d="M73.4572 33.9686L73.4572 22.7454C73.4572 22.0434 73.3254 21.754 73.202 21.6185C73.0925 21.4982 72.8136 21.308 72.059 21.2818L72.0499 47.6514C72.0496 48.5333 71.3719 49.2481 70.536 49.2482L59.5255 49.2492C58.6895 49.2492 58.0117 48.5344 58.0113 47.6524L58 14.8755C58 14.5216 58.1332 14.1827 58.3699 13.933C58.6055 13.6845 58.9266 13.544 59.2621 13.544L70.8004 13.544C71.1346 13.5427 71.4558 13.6833 71.6925 13.933L71.6937 13.9343C71.9304 14.184 72.0624 14.5241 72.0612 14.8792L72.0609 15.8251C74.4244 15.8616 75.9947 16.615 76.934 17.8877C77.8579 19.1395 77.9994 20.6753 78 21.8184L78 33.9722C78 35.2958 76.9831 36.3686 75.7286 36.3686L75.7251 36.3686C75.1039 36.3664 74.5351 36.1028 74.1216 35.6664C73.7127 35.2351 73.4556 34.6348 73.4572 33.9707L73.4572 33.9686Z" fill="var(--info-graphic-accent-color-med)"/>
<path d="M54.2506 79.9999H22.1929C18.7773 79.9916 16.0083 77.2225 16 73.807V6.19285C16.0083 2.77733 18.7773 0.00831535 22.1929 0H54.2506C57.6661 0.00831535 60.4352 2.77733 60.4435 6.19285V73.8091C60.4331 77.2246 57.6661 79.9916 54.2506 79.9999Z" fill="var(--info-graphic-accent-color-lightest)"/>
<path fill-rule="evenodd" clip-rule="evenodd" d="M22.2022 76.1738H54.2413L54.2436 76.1738C55.5502 76.1694 56.6108 75.1113 56.6174 73.8024V6.19811C56.612 4.89144 55.5516 3.83117 54.2448 3.82609H22.1986C20.8917 3.83117 19.8312 4.89172 19.8261 6.19863V73.8012C19.8312 75.1086 20.8924 76.1694 22.1999 76.1738L22.2022 76.1738ZM22.1929 79.9999C18.7773 79.9916 16.0083 77.2225 16 73.807V6.19285C16.0083 2.77733 18.7773 0.00831535 22.1929 0H54.2506C57.6661 0.00831535 60.4352 2.77733 60.4435 6.19285V73.8091C60.4331 77.2246 57.6661 79.9916 54.2506 79.9999H22.1929Z" fill="var(--info-graphic-accent-color-lightest)"/>
<path d="M54.2506 80H22.1929C18.7773 79.9917 16.0083 77.2227 16 73.8071V65.9634C36.4202 65.9634 42.2718 65.9634 60.4435 65.9634V73.8092C60.4331 77.2247 57.6661 79.9917 54.2506 80Z" fill="var(--info-graphic-accent-color-dark)"/>
<rect x="24.6957" y="6.95654" width="20.8696" height="22.6087" rx="1" fill="var(--info-graphic-accent-color-med)"/>
<path d="M24.6957 45.2174C24.6957 44.2569 25.4743 43.4783 26.4348 43.4783H50.7826C51.7431 43.4783 52.5218 44.2569 52.5218 45.2174V57.3913C52.5218 58.3518 51.7431 59.1304 50.7826 59.1304H26.4348C25.4743 59.1304 24.6957 58.3518 24.6957 57.3913V45.2174Z" fill="var(--info-graphic-accent-color-med)"/>
<rect x="24.6957" y="33.0435" width="19.1304" height="5.21739" rx="1" fill="var(--info-graphic-accent-color-white)"/>
<circle cx="18.9999" cy="60.9999" r="13.5714" fill="var(--info-graphic-accent-color-white)"/>
<path d="M19.0586 46C10.8197 46 4 52.7025 4 60.9414C4 69.1803 10.8197 76 19.0586 76C27.2975 76 34 69.1803 34 60.9414C34 52.7025 27.2975 46 19.0586 46ZM26.4543 65.851C27.1398 66.5365 27.1398 67.6516 26.4543 68.3377C25.774 69.0174 24.659 69.0285 23.9676 68.3377L19.0586 63.427L14.0318 68.3383C13.3463 69.0238 12.2312 69.0238 11.5451 68.3383C10.8596 67.6527 10.8596 66.5377 11.5451 65.8516L16.4553 60.9414L11.5451 56.0312C10.8596 55.3451 10.8596 54.2301 11.5451 53.5445C12.2312 52.859 13.3463 52.859 14.0318 53.5445L19.0586 58.4559L23.9676 53.5445C24.652 52.8602 25.767 52.8578 26.4543 53.5445C27.1398 54.2301 27.1398 55.3451 26.4543 56.0312L21.5441 60.9414L26.4543 65.851Z" fill="var(--info-graphic-accent-color-bright)"/>
</svg>
