<svg width="80" height="80" viewBox="0 0 80 80" fill="none" xmlns="http://www.w3.org/2000/svg">
<path d="M66.7394 34.0756L39.9983 24.6511L13.2572 34.0756L39.9983 43.643L66.7394 34.0756Z" fill="#0061A8"/>
<path d="M66.7398 34.0756L39.9987 24.6511V43.643L66.7398 34.0756Z" fill="#31448F"/>
<path d="M50.5785 7.46606H28.6113C26.4799 7.46606 24.746 9.23906 24.746 11.4178V58.7411C24.746 60.9199 26.4799 62.6929 28.6113 62.6929H50.5785C52.7099 62.6929 54.4443 60.9199 54.4443 58.7411V11.4178C54.4443 9.23906 52.7099 7.46606 50.5785 7.46606V7.46606Z" fill="#7BC9EB"/>
<path d="M50.5655 9.75391H47.3009C46.9928 9.75391 46.7434 10.0089 46.7434 10.3232C46.7434 11.0784 46.1393 11.696 45.401 11.696H33.7638C33.025 11.696 32.4209 11.0784 32.4209 10.3232C32.4209 10.0089 32.1715 9.75391 31.8635 9.75391H28.5988C27.6995 9.75391 26.9707 10.499 26.9707 11.4177V48.7548H52.1936V11.4177C52.1936 10.499 51.4648 9.75391 50.5655 9.75391Z" fill="#7BC9EB"/>
<path d="M28.9354 28.5258L39.6079 18.0381L50.2803 28.5258V43.0087H28.9354V28.5258Z" fill="#262F69"/>
<path d="M28.9354 28.5258L39.6079 18.0381L50.2803 28.5258V36.7661L28.9354 28.5258Z" fill="#8EDDFF"/>
<path d="M50.2804 43.0087H44.0331L35.1827 22.3866L39.6079 18.0381L50.2804 28.5258V43.0087Z" fill="#0061A8"/>
<path d="M50.2804 28.5258V36.7661L39.6079 32.6977L35.1827 22.3866L39.6079 18.0381L50.2804 28.5258Z" fill="#23A4DE"/>
<path d="M39.9983 43.6692L13.2572 34.0754V68.5762L39.9983 77.2001V43.6692Z" fill="#31448F"/>
<path d="M66.7398 68.5762V34.0754L39.9987 43.6692V77.2001L66.7398 68.5762Z" fill="#262F69"/>
<path d="M13.2572 34.0759L4 45.2142L31.2444 55.2813L39.9983 43.6433L13.2572 34.0759Z" fill="#7BC9EB"/>
<path d="M66.7398 34.0754L76 45.2137L48.7556 55.2808L39.9987 43.6428L66.7398 34.0754Z" fill="#23A4DE"/>
<path d="M41.0002 9C41.0002 5.13401 44.1343 2 48.0002 2H59.0002C62.8662 2 66.0002 5.13401 66.0002 9C66.0002 12.866 62.8662 16 59.0002 16H48.0002C44.1343 16 41.0002 12.866 41.0002 9Z" fill="#0061A8"/>
<path d="M72.0841 17.6883C71.6228 15.908 69.7875 14.8853 68.084 15.6001C67.645 13.9058 65.934 12.8306 64.1995 13.4744V9.10606C64.198 4.96787 58.2007 4.96143 58.1993 9.10606V25.2176C56.6815 23.6329 55.3237 22.2153 55.3204 22.2118C54.1513 20.9897 52.2467 20.9897 51.0778 22.212C49.9094 23.4297 49.9052 25.418 51.0779 26.6413C51.3678 26.9438 58.7187 34.6189 59.0086 34.9215C60.8973 36.8934 63.458 38 66.1288 37.9999C71.6914 37.9991 76.1994 33.2926 76.2 27.485C76.2 25.3967 76.2 25.733 76.2 20.5912C76.1991 18.3897 74.0696 16.8551 72.0841 17.6883Z" fill="#FFB71B"/>
</svg>
