<svg width="20" height="20" viewBox="0 0 20 20" fill="none" xmlns="http://www.w3.org/2000/svg">
<g clip-path="url(#clip0_5905_4631)">
<path d="M20 20H11V4H20V16.264V20Z" fill="#7BC9EB"/>
<path d="M13 2H12L12.0002 20H13V2Z" fill="#23A4DE"/>
<path d="M1.27977 0V1.78715H0V20H12V0H1.27977Z" fill="#23A4DE"/>
<path d="M5.14902 4.50488H3.61719V6.38001H5.14902V4.50488Z" fill="#EAF5FC"/>
<path d="M8.96188 4.50488H7.43005V6.38001H8.96188V4.50488Z" fill="#EAF5FC"/>
<path d="M3.61719 8.25513H5.14902V10.1303H3.61719V8.25513Z" fill="#EAF5FC"/>
<path d="M8.96188 8.25513H7.43005V10.1303H8.96188V8.25513Z" fill="#EAF5FC"/>
<path d="M3.61719 12.0056H5.14902V13.8807H3.61719V12.0056Z" fill="#EAF5FC"/>
<path d="M8.96188 12.0056H7.43005V13.8807H8.96188V12.0056Z" fill="#EAF5FC"/>
<path d="M3.61719 15.7559H5.14902V17.631H3.61719V15.7559Z" fill="#EAF5FC"/>
<path d="M8.96188 15.7559H7.43005V17.631H8.96188V15.7559Z" fill="#EAF5FC"/>
<path d="M16.281 8.25513H14.7491V10.1303H16.281V8.25513Z" fill="#23A4DE"/>
<path d="M16.281 12.0056H14.7491V13.8807H16.281V12.0056Z" fill="#23A4DE"/>
</g>
<defs>
<clipPath id="clip0_5905_4631">
<rect width="20" height="20" fill="white"/>
</clipPath>
</defs>
</svg>
