<svg width="80" height="80" viewBox="0 0 80 80" fill="none" xmlns="http://www.w3.org/2000/svg">
<g clip-path="url(#clip0_5925_6912)">
<mask id="mask0_5925_6912" style="mask-type:alpha" maskUnits="userSpaceOnUse" x="0" y="0" width="80" height="80">
<circle cx="40" cy="40" r="40" fill="#C4C4C4"/>
</mask>
<g mask="url(#mask0_5925_6912)">
<path d="M59.1959 94.5766L35.2209 35.974L-23 11.6167V94.5766H59.1959Z" fill="#262F69"/>
<path d="M93.5284 94.576V62.3026V60.2148L35.1632 36.0024L59.1959 94.576H93.5284Z" fill="#0061A8"/>
<path d="M-23 11.6159L35.1632 36.0022L11.1594 -22.4844L-23 11.6159Z" fill="#7BC9EB"/>
<path d="M93.5285 11.6163L35.3364 -46.8123L26.3061 -37.7653L11.1306 -22.4549L35.1633 36.0027L93.5285 60.215V11.6163Z" fill="#23A4DE"/>
</g>
<path d="M24.8418 39.5604V8.13479C24.8418 6.41065 26.1944 5 27.8476 5H71.63C73.2832 5 74.6358 6.41065 74.6358 8.13479V39.5604H24.8418Z" fill="#23A4DE"/>
<path d="M24.8418 38.7314V42.7203C24.8418 44.5019 26.1944 45.9596 27.8476 45.9596L71.63 45.9596C73.2832 45.9596 74.6358 44.5019 74.6358 42.7203V38.7314L24.8418 38.7314Z" fill="#31448F"/>
<path d="M44.4863 45.9595H54.9975L55.7794 48.7335C56.2333 50.3456 57.9576 51.6642 59.6108 51.6642H56.605C54.9518 51.6642 53.2275 50.3456 52.7736 48.7335L52.454 47.6008H44.0238L44.4863 45.9595Z" fill="#262F69"/>
<path d="M59.5738 51.664H65.2735C65.6885 51.664 66.025 52.005 66.025 52.4259C66.025 52.8467 65.6885 53.1878 65.2735 53.1878H34.2138C33.7988 53.1878 33.4624 52.8467 33.4624 52.4259C33.4624 52.005 33.7988 51.664 34.2138 51.664H39.8983C41.5444 51.6517 43.2547 50.338 43.7065 48.7334L44.026 47.6008H52.4541L52.7737 48.7335C53.2276 50.3456 54.9519 51.6642 56.6051 51.6642H59.6108C59.5985 51.6642 59.5862 51.6641 59.5738 51.664Z" fill="#262F69"/>
<path d="M71.4232 10.9475V13.0314H28.0542V10.9475C28.0542 9.43664 29.3443 8.21265 30.9349 8.21265H68.5433C70.1339 8.21265 71.4232 9.43664 71.4232 10.9475Z" fill="#0061A8"/>
<path d="M71.4232 13.0312V32.6084C71.4232 34.216 70.1339 35.5189 68.5433 35.5189H30.9349C29.3443 35.5189 28.0542 34.216 28.0542 32.6084V13.0312H71.4232Z" fill="#EAF5FC"/>
<path d="M77.1405 57.7139H60.8967C59.1661 57.7097 57.763 56.3067 57.7588 54.576V20.3157C57.763 18.585 59.1661 17.1819 60.8967 17.1777H77.1405C78.8712 17.1819 80.2742 18.585 80.2784 20.3157V54.5771C80.2732 56.3077 78.8712 57.7097 77.1405 57.7139Z" fill="#7BC9EB"/>
<path fill-rule="evenodd" clip-rule="evenodd" d="M60.9015 55.7753H77.1358H77.1369C77.799 55.773 78.3364 55.2369 78.3398 54.5736V20.3183C78.337 19.6562 77.7997 19.119 77.1376 19.1164H60.8997C60.2374 19.119 59.7001 19.6564 59.6975 20.3186V54.5731C59.7001 55.2355 60.2378 55.773 60.9003 55.7753H60.9015ZM60.8967 57.7139C59.1661 57.7097 57.763 56.3067 57.7588 54.576V20.3157C57.763 18.585 59.1661 17.1819 60.8967 17.1777H77.1405C78.8712 17.1819 80.2742 18.585 80.2784 20.3157V54.5771C80.2732 56.3077 78.8712 57.7097 77.1405 57.7139H60.8967Z" fill="#7BC9EB"/>
<path d="M77.1405 57.714H60.8967C59.1661 57.7097 57.763 56.3067 57.7588 54.576V50.6016C68.1058 50.6016 71.0708 50.6016 80.2784 50.6016V54.5771C80.2732 56.3077 78.8712 57.7097 77.1405 57.714Z" fill="#31448F"/>
<rect x="62.1649" y="20.7026" width="10.5747" height="11.4559" rx="1" fill="#23A4DE"/>
<path d="M62.1649 40.0897C62.1649 39.603 62.5595 39.2085 63.0461 39.2085H75.3833C75.87 39.2085 76.2645 39.603 76.2645 40.0897V46.2583C76.2645 46.745 75.87 47.1395 75.3833 47.1395H63.0461C62.5595 47.1395 62.1649 46.745 62.1649 46.2583V40.0897Z" fill="#23A4DE"/>
<rect x="62.1649" y="33.9209" width="9.69346" height="2.64367" rx="1" fill="#23A4DE"/>
<path d="M28.6767 14.574C26.1225 8.45717 19.0834 5.56501 12.9543 8.11417C8.76362 9.85714 5.91418 13.8075 5.58766 18.3268C2.04607 18.8156 -0.42796 22.0773 0.0618173 25.6119C0.505036 28.8102 3.24593 31.1909 6.48103 31.1877H28.6766C33.2735 31.1877 37 27.4686 37 22.8809C37 18.2932 33.2736 14.574 28.6767 14.574Z" fill="#7BC9EB"/>
<path d="M16.6594 67.3847L27.3143 61.1605C27.7012 60.9496 27.9825 60.4925 27.9823 60.0002C27.9823 59.5079 27.7362 59.0507 27.3494 58.8397L16.6593 52.6155C16.2725 52.4045 15.7098 52.4045 15.323 52.6155C14.9361 52.8264 14.6548 53.2836 14.6548 53.7759V66.2243C14.6548 66.7165 14.9362 67.1738 15.323 67.3847C15.534 67.5255 15.7802 67.5606 15.9912 67.5606C16.2021 67.5606 16.4484 67.5253 16.6594 67.3847Z" fill="white"/>
<path d="M20 44C11.1385 44 4 51.1385 4 60C4 68.8615 11.1385 76 20 76C28.8615 76 36 68.8615 36 60C36 51.1385 28.8615 44 20 44ZM27.3143 61.1604L16.6593 67.3847C16.4484 67.5252 16.2021 67.5606 15.9912 67.5606C15.7802 67.5606 15.5339 67.5255 15.323 67.3847C14.9361 67.1737 14.6548 66.7165 14.6548 66.2242V53.7759C14.6548 53.2836 14.9361 52.8264 15.323 52.6154C15.7098 52.4045 16.2725 52.4045 16.6593 52.6154L27.3494 58.8397C27.7362 59.0506 27.9822 59.5079 27.9822 60.0001C27.9825 60.4924 27.7011 60.9496 27.3143 61.1606V61.1604Z" fill="#FFB71B"/>
</g>
<defs>
<clipPath id="clip0_5925_6912">
<rect width="80" height="80" fill="white"/>
</clipPath>
</defs>
</svg>
