<svg width="40" height="40" viewBox="0 0 40 40" fill="none" xmlns="http://www.w3.org/2000/svg">
<ellipse cx="20" cy="21" rx="19" ry="18.5" fill="#EAF5FC"/>
<path d="M18.872 38.1512V33.2986C17.4034 33.3465 15.9491 33.4732 14.5389 33.694C15.7279 36.0356 17.23 37.6377 18.872 38.1512Z" fill="#23A4DE"/>
<path d="M13.6513 31.6417C15.3516 31.3456 17.1015 31.1744 18.8796 31.1248V22.0889H11.9086C12.0183 25.6492 12.6534 28.9475 13.6513 31.6417Z" fill="#23A4DE"/>
<path d="M28.0919 22.0889H21.1244V31.1248C22.9008 31.1761 24.6524 31.3456 26.3527 31.6417C27.3488 28.9475 27.9857 25.6492 28.0919 22.0889Z" fill="#0061A8"/>
<path d="M26.3527 10.3589C24.6524 10.6516 22.9008 10.8228 21.1244 10.8758V19.9117H28.0919C27.9857 16.3532 27.3488 13.0496 26.3527 10.3589Z" fill="#0061A8"/>
<path d="M21.1244 33.2986V38.1512C22.7698 37.6377 24.2667 36.0321 25.4539 33.694C24.042 33.4732 22.5947 33.3465 21.1244 33.2986Z" fill="#0061A8"/>
<path d="M21.1244 3.8457V8.69659C22.5947 8.65208 24.0455 8.52371 25.4539 8.30461C24.2667 5.96476 22.7681 4.36263 21.1244 3.8457Z" fill="#0061A8"/>
<path d="M14.5389 8.30461C15.9491 8.52542 17.4034 8.65208 18.872 8.69659V3.8457C17.23 4.36092 15.7261 5.96476 14.5389 8.30461Z" fill="#23A4DE"/>
<path d="M11.9086 19.9117H18.8796V10.8758C17.1015 10.8245 15.3516 10.655 13.6513 10.3589C12.6534 13.0496 12.0183 16.3532 11.9086 19.9117Z" fill="#23A4DE"/>
<path d="M30.3409 19.9112H38.9998C38.7256 15.3719 36.7634 11.2758 33.6973 8.20508C32.1067 8.89659 30.3851 9.46487 28.5769 9.89792C29.6102 12.753 30.233 16.1781 30.3409 19.9112Z" fill="#0061A8"/>
<path d="M24.0863 38.9998C26.9844 38.3871 29.6277 37.1324 31.8659 35.407C30.5602 34.8918 29.1695 34.4639 27.7169 34.1318C26.719 36.2149 25.4894 37.8924 24.0863 38.9998Z" fill="#0061A8"/>
<path d="M28.5769 32.1039C30.3834 32.5369 32.1049 33.1001 33.6973 33.795C36.7634 30.7243 38.7256 26.6282 38.9998 22.0889H30.3409C30.233 25.8203 29.6066 29.2454 28.5769 32.1039Z" fill="#0061A8"/>
<path d="M12.2785 34.1318C10.8276 34.4639 9.43874 34.8918 8.13123 35.407C10.3694 37.1324 13.0145 38.3836 15.9091 38.9998C14.5042 37.8924 13.2746 36.2149 12.2785 34.1318Z" fill="#7BC9EB"/>
<path d="M11.4194 9.89817C9.61117 9.46511 7.88964 8.89855 6.30082 8.20703C3.23639 11.2761 1.27424 15.3721 1 19.9115H9.65894C9.75979 16.1783 10.3844 12.7584 11.4194 9.89817Z" fill="#7BC9EB"/>
<path d="M15.9091 3C13.0145 3.61278 10.3694 4.86744 8.13123 6.59109C9.43697 7.10631 10.8259 7.53594 12.2785 7.86458C13.2746 5.78318 14.5042 4.10745 15.9091 3Z" fill="#7BC9EB"/>
<path d="M9.65717 22.0889H1C1.27424 26.6248 3.23639 30.7226 6.30082 33.795C7.88964 33.1001 9.61117 32.5369 11.4212 32.1039C10.3844 29.2454 9.75979 25.8203 9.65717 22.0889Z" fill="#7BC9EB"/>
<path d="M27.7169 7.86458C29.1695 7.53594 30.5584 7.10631 31.8659 6.59109C29.626 4.8623 26.9826 3.61449 24.0863 3C25.4894 4.10745 26.719 5.78318 27.7169 7.86458Z" fill="#0061A8"/>
<path d="M35.5009 4.30862C34.1203 0.740501 30.3153 -0.946597 27.0023 0.540415C24.7371 1.55715 23.1969 3.86151 23.0204 6.4978C21.106 6.78294 19.7687 8.68557 20.0334 10.7474C20.273 12.6131 21.7546 14.0019 23.5033 14H35.5009C37.9857 14 40 11.8305 40 9.15434C40 6.47817 37.9858 4.30862 35.5009 4.30862Z" fill="#7BC9EB"/>
</svg>
