<svg width="1em" height="1em"  viewBox="0 0 40 40" fill="none" xmlns="http://www.w3.org/2000/svg">
<path d="M18.0703 38.6565V33.939C16.6892 33.9856 15.3213 34.1087 13.9951 34.3234C15.1133 36.5998 16.5261 38.1573 18.0703 38.6565Z" fill="#23A4DE"/>
<path d="M13.1606 32.3285C14.7597 32.0406 16.4054 31.8742 18.0778 31.8259V23.0415H11.5215C11.6247 26.5027 12.222 29.7093 13.1606 32.3285Z" fill="#23A4DE"/>
<path d="M26.7424 23.0415H20.1895V31.8259C21.8601 31.8758 23.5075 32.0406 25.1067 32.3285C26.0435 29.7093 26.6426 26.5027 26.7424 23.0415Z" fill="#0061A8"/>
<path d="M25.1067 11.6382C23.5075 11.9227 21.8601 12.0891 20.1895 12.1407V20.9251H26.7424C26.6426 17.4656 26.0435 14.254 25.1067 11.6382Z" fill="#0061A8"/>
<path d="M20.1895 33.939V38.6565C21.737 38.1573 23.1448 36.5964 24.2613 34.3234C22.9334 34.1087 21.5723 33.9856 20.1895 33.939Z" fill="#0061A8"/>
<path d="M20.1895 5.30615V10.022C21.5723 9.97875 22.9368 9.85395 24.2613 9.64095C23.1448 7.36622 21.7353 5.80869 20.1895 5.30615Z" fill="#0061A8"/>
<path d="M13.9951 9.64095C15.3213 9.85561 16.6892 9.97875 18.0703 10.022V5.30615C16.5261 5.80703 15.1117 7.36622 13.9951 9.64095Z" fill="#23A4DE"/>
<path d="M11.5215 20.9251H18.0778V12.1407C16.4054 12.0908 14.7597 11.9261 13.1606 11.6382C12.222 14.254 11.6247 17.4656 11.5215 20.9251Z" fill="#23A4DE"/>
<path d="M28.8573 20.9243H37.001C36.7431 16.5112 34.8977 12.5292 32.0139 9.54395C30.518 10.2162 28.8989 10.7687 27.1982 11.1897C28.17 13.9653 28.7558 17.295 28.8573 20.9243Z" fill="#262F69"/>
<path d="M22.9746 39.482C25.7003 38.8863 28.1864 37.6666 30.2914 35.9892C29.0633 35.4883 27.7554 35.0723 26.3892 34.7495C25.4507 36.7746 24.2942 38.4054 22.9746 39.482Z" fill="#262F69"/>
<path d="M27.1982 32.7777C28.8972 33.1987 30.5163 33.7462 32.0139 34.4218C34.8977 31.4365 36.7431 27.4545 37.001 23.0415H28.8573C28.7558 26.6691 28.1667 29.9988 27.1982 32.7777Z" fill="#262F69"/>
<path d="M11.8692 34.7495C10.5047 35.0723 9.19847 35.4883 7.96875 35.9892C10.0737 37.6666 12.5615 38.883 15.2838 39.482C13.9626 38.4054 12.8061 36.7746 11.8692 34.7495Z" fill="#7BC9EB"/>
<path d="M11.0612 11.19C9.36056 10.769 7.74145 10.2182 6.24715 9.5459C3.36505 12.5295 1.51964 16.5115 1.26172 20.9245H9.40548C9.50033 17.2953 10.0877 13.9706 11.0612 11.19Z" fill="#7BC9EB"/>
<path d="M15.2838 4.48389C12.5615 5.07961 10.0737 6.29934 7.96875 7.97502C9.1968 8.47589 10.5031 8.89357 11.8692 9.21306C12.8061 7.1896 13.9626 5.56051 15.2838 4.48389Z" fill="#7BC9EB"/>
<path d="M9.40382 23.0415H1.26172C1.51964 27.4512 3.36505 31.4349 6.24715 34.4218C7.74145 33.7462 9.36056 33.1987 11.0629 32.7777C10.0877 29.9988 9.50033 26.6691 9.40382 23.0415Z" fill="#7BC9EB"/>
<path d="M26.3892 9.21306C27.7554 8.89357 29.0616 8.47589 30.2914 7.97502C28.1847 6.29435 25.6986 5.08127 22.9746 4.48389C24.2942 5.56051 25.4507 7.1896 26.3892 9.21306Z" fill="#262F69"/>
<path d="M34.3762 6.53966C32.6503 1.95207 27.8942 -0.217053 23.7529 1.69482C20.9214 3.00204 18.9961 5.9648 18.7754 9.35432C16.3825 9.72092 14.7108 12.1672 15.0418 14.8181C15.3412 17.2169 17.1932 19.0024 19.3791 19H34.3761C37.4821 19 40 16.2106 40 12.7699C40 9.32907 37.4822 6.53966 34.3762 6.53966Z" fill="#F2F2F2"/>
</svg>
