<svg width="80" height="80" viewBox="0 0 80 80" fill="none" xmlns="http://www.w3.org/2000/svg">
<path d="M67 34.4285L40 25L13 34.4285L40 44L67 34.4285Z" fill="#9faebc"/>
<path d="M67 34.4285L40 25V44L67 34.4285Z" fill="#607890"/>
<path d="M52.564 11.2517C51.9575 4.9453 46.676 0 40.2717 0C33.8676 0 28.5864 4.94539 27.9794 11.2517C23.8788 11.8404 20.7161 15.4077 20.7161 19.7066C20.7161 24.4157 24.5117 28.2468 29.177 28.2468C55.1412 28.2468 27.0325 28.2469 51.3663 28.2469C56.0317 28.2469 59.8272 24.4157 59.8272 19.7067C59.8272 15.4077 56.6644 11.8404 52.564 11.2517Z" fill="#7e9bfa"/>
<path fill-rule="evenodd" clip-rule="evenodd" d="M42.8438 11.1715C42.9236 10.9029 42.9664 10.6183 42.9664 10.3234C42.9664 8.68293 41.6404 7.35693 39.9999 7.35693C38.3594 7.35693 37.0334 8.68293 37.0334 10.3234C37.0334 10.6167 37.0758 10.8998 37.1548 11.1672L30.3086 15.1199C30.1166 14.9171 29.8925 14.738 29.6385 14.5904C28.219 13.7744 26.4 14.2589 25.584 15.6784C24.768 17.0979 25.2525 18.9169 26.672 19.7329C26.9254 19.8786 27.1915 19.9828 27.4624 20.0477V27.9541C27.1946 28.0191 26.9315 28.1227 26.6805 28.267C25.261 29.0915 24.7765 30.902 25.5925 32.3215C26.4085 33.741 28.219 34.2255 29.647 33.4095C29.8984 33.2635 30.1204 33.0866 30.3111 32.8864L37.1535 36.837C37.0754 37.1031 37.0334 37.3848 37.0334 37.6765C37.0334 39.317 38.3594 40.643 39.9999 40.643C41.6404 40.643 42.9664 39.3085 42.9664 37.6765C42.9664 37.3496 42.9138 37.0353 42.8166 36.7414L49.6192 32.8138C49.8248 33.0448 50.0704 33.247 50.353 33.4095C51.7725 34.2255 53.5915 33.741 54.4075 32.3215C55.232 30.902 54.7475 29.0915 53.3195 28.267C53.0687 28.1228 52.8055 28.0192 52.5375 27.9542V20.0477C52.8084 19.9829 53.0746 19.8786 53.328 19.7329C54.7475 18.9084 55.232 17.0979 54.416 15.6784C53.5915 14.2589 51.781 13.7744 50.3615 14.5904C50.1061 14.7388 49.881 14.9191 49.6882 15.1233L42.8438 11.1715ZM39.1737 13.1737C39.4359 13.2494 39.7131 13.2899 39.9999 13.2899C40.2877 13.2899 40.5659 13.2491 40.8288 13.173L49.7872 28.6888C49.5867 28.88 49.41 29.1027 49.265 29.355C49.1208 29.6057 49.0173 29.869 48.9523 30.137H31.0479C30.9829 29.8691 30.8793 29.6059 30.735 29.355C30.5894 29.1043 30.4131 28.8828 30.2136 28.6925L39.1737 13.1737ZM37.866 12.3858C37.8937 12.4144 37.9219 12.4425 37.9507 12.47L28.9904 27.9893C28.9516 27.978 28.9126 27.9675 28.8734 27.9578V20.0407C29.6285 19.853 30.3088 19.3715 30.7265 18.6449C31.1435 17.9194 31.2209 17.0918 31.0073 16.3458L37.866 12.3858ZM42.0511 12.4681C42.0781 12.4423 42.1047 12.4159 42.1307 12.3891L48.9915 16.3502C48.7795 17.095 48.8573 17.9209 49.2735 18.6449C49.6912 19.3714 50.3715 19.853 51.1265 20.0407V27.9571C51.088 27.9666 51.0497 27.9768 51.0116 27.9877L42.0511 12.4681ZM49.0099 31.7425L42.1937 35.6779C41.6515 35.0829 40.87 34.71 39.9999 34.71C39.1598 34.71 38.4022 35.0577 37.8629 35.6173L31.0134 31.6626C31.0244 31.6246 31.0346 31.5864 31.0441 31.548H48.9552C48.9712 31.6134 48.9895 31.6783 49.0099 31.7425Z" fill="#fff"/>
<path d="M40 43.566L13 35V68.401L40 77V43.566Z" fill="#607890"/>
<path d="M67 68.401V34L40 43.566V77L67 68.401Z" fill="#506478"/>
<path d="M13.2576 34L4 45.0304L31.2457 55L40 43.4747L13.2576 34Z" fill="#d8dee4"/>
<path d="M66.7401 34L76 45.0304L48.7566 55L40 43.4747L66.7401 34Z" fill="#798da1"/>
</svg>
