<svg width="40" height="40" viewBox="0 0 40 40" fill="none" xmlns="http://www.w3.org/2000/svg">
<path d="M38 11.4706V5.17646C38 3.42496 36.5806 2 34.8359 2H5.16406C3.4194 2 2 3.42496 2 5.17646V11.4706H38Z" fill="#23A4DE"/>
<path d="M2 11.3999V34.6351C2 36.3866 3.4194 37.8116 5.16406 37.8116H34.8359C36.5806 37.8116 38 36.3866 38 34.6351V11.3999H2Z" fill="#7BC9EB"/>
<path d="M28.6181 15.2573H11.399C9.52499 15.2573 8 16.74 8 18.5624V29.0362C8 30.8586 9.52499 32.3413 11.399 32.3413H28.6181C30.4921 32.3413 32.0171 30.8586 32.0171 29.0362V18.5624C32.0171 16.74 30.4921 15.2573 28.6181 15.2573Z" fill="#EAF5FC"/>
<path d="M28.6179 15.2578H23.7476C21.8736 15.2578 20.3486 16.7405 20.3486 18.5629L16.7972 29.0367C16.7972 30.8591 18.3222 32.3418 20.1962 32.3418H28.6179C30.4919 32.3418 32.0169 30.8591 32.0169 29.0367V18.5629C32.0169 16.7405 30.4919 15.2578 28.6179 15.2578Z" fill="#EAF5FC"/>
<path d="M28.6181 15.2573H11.399C9.52499 15.2573 8 16.74 8 18.5624V29.0362C8 30.8586 9.52499 32.3413 11.399 32.3413H28.6181C30.4921 32.3413 32.0171 30.8586 32.0171 29.0362V18.5624C32.0171 16.74 30.4921 15.2573 28.6181 15.2573ZM16.716 20.5152L13.1402 23.9918L16.3201 27.0834C16.595 27.3506 16.595 27.7839 16.3201 28.0507C16.0457 28.3179 15.6001 28.3179 15.3252 28.0507L11.6476 24.4752C11.3727 24.2079 11.3727 23.7751 11.6476 23.5079L15.7206 19.5479C15.9955 19.2807 16.4412 19.2807 16.716 19.5479C16.9905 19.8147 16.9905 20.248 16.716 20.5152ZM22.8666 18.9058L19.1458 29.1484C19.0163 29.5051 18.6143 29.6916 18.248 29.5657C17.8816 29.4398 17.6893 29.049 17.8188 28.6928L21.5395 18.4502C21.669 18.094 22.0705 17.907 22.4374 18.0329C22.8037 18.1588 22.996 18.5496 22.8666 18.9058ZM28.3695 24.0907L24.2964 28.0507C24.0215 28.3179 23.5759 28.3179 23.301 28.0507C23.0266 27.7839 23.0266 27.3506 23.301 27.0834L26.8769 23.6068L23.6969 20.5152C23.4221 20.248 23.4221 19.8147 23.6969 19.5479C23.9714 19.2807 24.417 19.2807 24.6919 19.5479L28.3695 23.1234C28.6444 23.3907 28.6444 23.8235 28.3695 24.0907Z" fill="#0061A8"/>
<path d="M28.6193 15.2578H22.0519C19.5808 21.9293 18.2942 25.682 15.7209 32.3418H28.6193C30.4933 32.3418 32.0182 30.8591 32.0182 29.0367V18.5629C32.0182 16.7405 30.4933 15.2578 28.6193 15.2578ZM22.9611 18.9063L19.2403 29.1489C19.1108 29.5055 18.7088 29.6921 18.3425 29.5662C17.9761 29.4403 17.7838 29.0495 17.9132 28.6933L21.634 18.4507C21.7635 18.0945 22.165 17.9075 22.5318 18.0334C22.8982 18.1593 23.0905 18.5501 22.9611 18.9063ZM28.3707 24.0912L24.2976 28.0512C24.0227 28.3184 23.5771 28.3184 23.3022 28.0512C23.0278 27.7844 23.0278 27.3511 23.3022 27.0839L26.878 23.6073L23.6981 20.5157C23.4232 20.2485 23.4232 19.8152 23.6981 19.5484C23.9725 19.2812 24.4181 19.2812 24.693 19.5484L28.3707 23.1239C28.6455 23.3912 28.6455 23.824 28.3707 24.0912Z" fill="#0061A8"/>
</svg>
