<svg width="80" height="80" viewBox="0 0 80 80" fill="none" xmlns="http://www.w3.org/2000/svg">
<mask id="mask0_5933_8583" style="mask-type:alpha" maskUnits="userSpaceOnUse" x="0" y="0" width="81" height="80">
<circle r="40" transform="matrix(1 0 1.79901e-05 1 40.0007 40)" fill="#F2F2F2"/>
</mask>
<g mask="url(#mask0_5933_8583)">
<rect width="80" height="80" fill="#7BC9EB"/>
<path d="M18 72.7975C20.1086 68.2085 22.8731 63.8569 26.2465 60.6009C28.9927 57.9502 34.78 56.6505 35.9968 57.1275C38.1867 54.1076 40.9857 51 40.9857 51C40.9857 51 45.9574 51.9655 49.0115 56.9841C49.0191 56.9721 49.0264 56.9621 49.0335 56.9542C49.7183 56.1848 51.3715 56.6584 55.0807 58.2645C59.2003 60.0483 60.7974 63.3864 62.2191 66.3579C62.5579 67.0659 62.8867 67.7532 63.2373 68.3936C63.8357 69.4866 64.4339 70.5123 65 71.4433C59.2264 77.558 51.3207 81.5127 42.457 81.9582C33.0928 82.4289 24.4323 78.8937 18 72.7975Z" fill="#23A4DE"/>
<path d="M28.95 80C28.2903 79.7367 27.64 79.4511 27 79.144C28.3387 75.6061 30.1313 71.5999 30.1313 71.5999C30.1313 71.5999 29.0547 75.791 28.95 80Z" fill="#0061A8"/>
<path d="M57 77.3181C56.4418 77.6715 55.8731 78.0077 55.2945 78.326C54.7585 74.3142 53.4316 70.5749 53.4316 70.5749C53.4316 70.5749 55.3819 74.043 57 77.3181Z" fill="#0061A8"/>
<path d="M42.384 61.7965C45.8302 61.6152 48.5175 59.0536 48.3862 56.075C48.2549 53.0965 45.3548 50.8288 41.9086 51.0102C38.4624 51.1915 35.7751 53.7531 35.9064 56.7317C36.0377 59.7102 38.9378 61.9779 42.384 61.7965Z" fill="#0061A8"/>
</g>
<path d="M8.93147 34.5912C10.2845 34.5903 11.4758 33.8812 12.1616 32.8057C12.795 31.8141 12.7871 30.9364 12.7808 30.2309C12.7802 30.1626 12.7796 30.0959 12.7796 30.0309L12.7935 29.996C9.45737 28.5892 7.11055 25.2405 7.11055 21.3334C2.74343 2.51027 27.8338 5.3755 27.8338 18.7138C27.8338 19.9706 26.8353 21.037 25.5106 21.037V21.3334C25.5106 21.546 25.5037 21.7568 25.49 21.9659C25.3496 24.1572 24.4849 26.0895 23.172 27.5771C22.257 28.6198 21.1164 29.4526 19.8281 29.9959L19.8421 30.0309C19.8421 30.0944 19.8416 30.1593 19.8411 30.2253C19.8355 30.9473 19.8288 31.8175 20.46 32.8057C21.1458 33.8812 22.3372 34.5903 23.6902 34.5912C21.5 37.5 12 37.5 8.93147 34.5912Z" fill="#FFE5C7"/>
<path d="M3.19994 9.36809C3.18744 9.38985 3.1912 9.41899 3.20943 9.43797C4.25003 10.5216 4.83286 11.9797 4.83286 13.4978V18.5897C4.83286 19.9633 5.92364 21.0811 7.27624 21.0811C7.27624 18.1803 7.27464 16.6644 7.2752 15.8496C7.27558 15.3352 7.76284 14.9654 8.24484 15.1167C9.75992 15.5922 11.5272 15.8372 13.3846 15.4255C16.653 14.7008 17.5787 13.3942 20.2448 12.7414C23.2238 12.0129 25.9256 14.3404 25.9068 17.3177C25.9012 18.2964 25.8852 19.5196 25.8833 21.0811C27.223 21.0811 28.2327 20.0013 28.2327 18.7287V14.7449C28.2628 13.3578 28.2008 8.46616 24.7368 5.06032C20.7094 1.10032 14.3259 1.42452 9.70307 3.54317C9.55271 3.6121 9.55665 3.83171 9.70918 3.89574L10.915 4.40206C11.0952 4.47779 11.0573 4.74878 10.8635 4.76997L10.2778 4.8341C7.12747 5.17765 4.50668 7.0951 3.19994 9.36809Z" fill="#262F69"/>
<path d="M1.99994 41.518V45.3451C7.5 51 25 51 30.6216 45.3451V41.518C30.6216 37.5028 27.5183 34.2503 23.6906 34.2489C22.3372 34.2484 21.1456 33.5174 20.46 32.4104C18.0667 34.5552 14.5562 34.5564 12.1616 32.4104C11.476 33.5174 10.2843 34.2484 8.93093 34.2489C5.10325 34.2503 1.99994 37.5028 1.99994 41.518Z" fill="#0061A8"/>
<path d="M56.9315 34.5912C58.2845 34.5903 59.4758 33.8812 60.1616 32.8057C60.795 31.8141 60.7871 30.9364 60.7808 30.2309C60.7802 30.1626 60.7796 30.0959 60.7796 30.0309L60.7935 29.996C57.4574 28.5892 55.1106 25.2405 55.1106 21.3334C50.7434 2.51027 75.8338 5.3755 75.8338 18.7138C75.8338 19.9706 74.8353 21.037 73.5106 21.037V21.3334C73.5106 21.546 73.5037 21.7568 73.49 21.9659C73.3496 24.1572 72.4849 26.0895 71.172 27.5771C70.257 28.6198 69.1164 29.4526 67.8281 29.9959L67.8421 30.0309C67.8421 30.0944 67.8416 30.1593 67.8411 30.2253C67.8355 30.9473 67.8288 31.8175 68.46 32.8057C69.1458 33.8812 70.3372 34.5903 71.6902 34.5912C69.5 37.5 60 37.5 56.9315 34.5912Z" fill="#FFE5C7"/>
<path d="M51.1999 9.36809C51.1874 9.38985 51.1912 9.41899 51.2094 9.43797C52.25 10.5216 52.8329 11.9797 52.8329 13.4978V18.5897C52.8329 19.9633 53.9236 21.0811 55.2762 21.0811C55.2762 18.1803 55.2746 16.6644 55.2752 15.8496C55.2756 15.3352 55.7628 14.9654 56.2448 15.1167C57.7599 15.5922 59.5272 15.8372 61.3846 15.4255C64.653 14.7008 65.5787 13.3942 68.2448 12.7414C71.2238 12.0129 73.9256 14.3404 73.9068 17.3177C73.9012 18.2964 73.8852 19.5196 73.8833 21.0811C75.223 21.0811 76.2327 20.0013 76.2327 18.7287V14.7449C76.2628 13.3578 76.2008 8.46616 72.7368 5.06032C68.7094 1.10032 62.3259 1.42452 57.7031 3.54317C57.5527 3.6121 57.5567 3.83171 57.7092 3.89574L58.915 4.40206C59.0952 4.47779 59.0573 4.74878 58.8635 4.76997L58.2778 4.8341C55.1275 5.17765 52.5067 7.0951 51.1999 9.36809Z" fill="#262F69"/>
<path d="M49.9999 41.518V45.3451C55.5 51 73 51 78.6216 45.3451V41.518C78.6216 37.5028 75.5183 34.2503 71.6906 34.2489C70.3372 34.2484 69.1456 33.5174 68.46 32.4104C66.0667 34.5552 62.5562 34.5564 60.1616 32.4104C59.476 33.5174 58.2843 34.2484 56.9309 34.2489C53.1033 34.2503 49.9999 37.5028 49.9999 41.518Z" fill="#0061A8"/>
<path d="M24.2037 37.8933C23.3803 38.7754 22.8963 40.0143 22.9613 41.363C23.0834 43.9 25.1025 45.8644 27.4711 45.7503C27.5633 45.7459 27.6547 45.7384 27.7452 45.7279C29.5339 51.4125 33.5171 58.5655 42.2053 58.1472C51.869 57.6819 55.473 50.4409 56.607 44.0515C58.6986 43.6581 60.2324 41.6514 60.1199 39.3159C60.0683 38.2447 59.6785 37.2755 59.0671 36.5218C58.5 37.8564 56.9843 37.3178 56.4389 36.0325C55.9781 34.9465 55.9051 33.8094 55.8319 32.6688C55.7358 31.1712 55.6393 29.6676 54.6642 28.2655C51.7544 24.0817 49.3906 24.6633 45.6313 25.5883C44.348 25.904 42.9019 26.2598 41.216 26.4797C36.0317 27.1558 30.8475 24.4651 30.8475 24.4651C30.8475 24.4651 27.1326 29.8502 27.6952 38.3C27.8254 40.2587 25.36 40.3247 24.2037 37.8933Z" fill="#FFE5C7"/>
<path d="M34.1381 33.0882C33.7147 33.1582 33.2085 33.2419 33.2316 32.8354C33.3915 30.02 39.6148 31.1112 38.7278 32.7574C38.5431 33.1002 38.0807 32.8645 37.5937 32.6163C37.2579 32.4452 36.9104 32.2681 36.6343 32.2706C35.4779 32.2813 35.1401 32.5363 34.8394 32.7633C34.6551 32.9024 34.4847 33.031 34.1484 33.0865L34.1381 33.0882Z" fill="#262F69"/>
<path d="M49.6531 31.3272C50.627 31.2194 52.0334 31.5608 52.458 32.3558C52.6706 32.7541 52.4911 32.8962 51.9667 33.0436C51.5165 33.17 51.2179 33.0071 50.8926 32.8297C50.7958 32.7769 50.6966 32.7227 50.5904 32.6746C50.208 32.5016 49.7603 32.4271 49.3255 32.467C49.073 32.4901 48.9036 32.5603 48.7207 32.6361C48.5797 32.6945 48.4308 32.7562 48.2295 32.8023C47.9318 32.8704 47.549 32.9165 47.531 32.6609C47.4723 31.8262 48.8376 31.4175 49.6531 31.3272Z" fill="#262F69"/>
<path d="M51.082 34.9621C51.0115 34.9219 50.9368 34.8869 50.8578 34.858C48.2486 33.9002 47.3632 38.0342 49.2677 38.7052C52.0174 39.6738 52.7151 35.895 51.082 34.9621Z" fill="#262F69"/>
<path d="M36.4567 34.858C36.5357 34.8869 36.6104 34.9219 36.6809 34.9621C38.314 35.895 37.6163 39.6738 34.8666 38.7052C32.9621 38.0342 33.8475 33.9002 36.4567 34.858Z" fill="#262F69"/>
<path d="M50.7594 35.4204C50.4701 35.146 49.9197 35.39 49.9983 35.7634C50.0383 35.9537 50.0764 36.106 50.2524 36.2357C50.5206 36.4339 51.0578 36.2018 51.0361 35.8859C51.0217 35.6802 50.9102 35.5633 50.7594 35.4204Z" fill="white"/>
<path d="M36.0652 48.0769C36.0652 48.0769 42.489 51.9089 47.3856 49.0862C44.7296 52.9178 37.5574 52.3308 36.0652 48.0769Z" fill="#262F69"/>
<path d="M28.1353 17.6055C31.732 12.4011 39.3182 11.1875 46.1793 12.4732C50.063 13.201 62.8172 17.6044 59.1701 25.0766C59.3827 27.3149 59.5026 29.5725 59.5047 31.8209C59.5059 33.2503 59.5328 34.7868 59.1795 36.1837C58.7367 37.9343 57.026 37.4158 56.439 36.0326C55.3733 33.5207 56.3821 30.7357 54.6643 28.2656C50.7611 22.6535 47.8405 25.6159 41.2161 26.4798C36.0319 27.1559 30.8476 24.4652 30.8476 24.4652C30.8476 24.4652 27.1328 29.8503 27.6953 38.3001C27.8725 40.9658 23.2421 40.1259 23.6471 34.2558C24.0518 28.3857 22.6496 18.1318 28.1353 17.6055Z" fill="#262F69"/>
<path d="M36.3579 35.4201C36.0686 35.1457 35.5182 35.3897 35.5968 35.7631C35.6371 35.9533 35.6749 36.1057 35.8508 36.2354C36.119 36.4337 36.6564 36.2018 36.6345 35.8856C36.6202 35.6799 36.5086 35.5631 36.3579 35.4201Z" fill="white"/>
<path d="M33.5074 59.1997C32.5456 59.0407 31.6127 58.8173 30.7344 58.5359C24.2964 56.4732 20.5863 51.2534 19.2772 44.4733C19.1529 43.831 18.233 43.847 18.1312 44.4933C16.8857 52.4201 12.379 58.089 4.46358 59.7168C3.83407 59.8462 3.8503 60.7657 4.48411 60.8728C12.3779 62.2058 17.1601 67.702 18.6756 75.5175C18.771 76.0099 19.2873 76.0034 19.2577 75.9924C19.5399 75.9872 19.7778 75.7778 19.8216 75.4962C20.4529 71.4412 22.3278 65.9144 27.6748 62.6133C29.383 61.5596 31.3526 60.8004 33.5289 60.3564C33.8043 60.3002 34.0007 60.0531 33.9953 59.7692C33.99 59.4853 33.7847 59.2456 33.5074 59.1997Z" fill="#FFB71B"/>
</svg>
