<svg width="20" height="20" viewBox="0 0 20 20" fill="none" xmlns="http://www.w3.org/2000/svg">
<g clip-path="url(#clip0_5917_5683)">
<path d="M15.6688 0H4.33126C3.60123 0 3 0.577918 3 1.27964V14.5098C3 15.2116 3.60123 15.7895 4.33126 15.7895H5.12571C5.25453 13.3127 7.40177 11.3312 10 11.3312C12.6197 11.3312 14.7669 13.3128 14.8743 15.7895H15.6687C16.3988 15.7895 17 15.2116 17 14.5098V1.27964C17 0.577918 16.3988 0 15.6688 0Z" fill="var(--info-graphic-accent-color-lightest)"/>
<path d="M10 10C7.2413 10 5 12.2414 5 15C5 17.7586 7.24136 20 10 20C12.7586 20 15 17.7586 15 15C15 12.2414 12.7586 10 10 10ZM12.27 14.5113L9.85627 16.9251C9.71255 17.0688 9.51151 17.155 9.31025 17.155C9.10899 17.155 8.90796 17.0688 8.76423 16.9251L7.55734 15.7182C7.24124 15.4021 7.24124 14.9136 7.55734 14.6262C7.87344 14.3101 8.36193 14.3101 8.64934 14.6262L9.3102 15.287L11.1779 13.4194C11.494 13.1033 11.9825 13.1033 12.2699 13.4194C12.586 13.7068 12.5861 14.1953 12.27 14.5113Z" fill="var(--info-graphic-accent-color-med)"/>
<path d="M12.27 14.5114L9.85632 16.9252C9.7126 17.0689 9.51155 17.1551 9.31029 17.1551C9.10903 17.1551 8.90801 17.0689 8.76427 16.9252L7.55739 15.7183C7.24129 15.4022 7.24129 14.9137 7.55739 14.6263C7.87349 14.3102 8.36198 14.3102 8.64938 14.6263L9.31024 15.2871L11.1779 13.4194C11.494 13.1033 11.9825 13.1033 12.2699 13.4194C12.586 13.7069 12.5861 14.1954 12.27 14.5114Z" fill="var(--info-graphic-accent-color-white)"/>
<path d="M6.76931 3.15796C6.17454 3.15796 5.69238 3.62924 5.69238 4.21059C5.69238 4.79194 6.17454 5.26322 6.76931 5.26322H13.2308C13.8256 5.26322 14.3078 4.79194 14.3078 4.21059C14.3078 3.62924 13.8256 3.15796 13.2308 3.15796H6.76931Z" fill="var(--info-graphic-accent-color-white)"/>
<path d="M6.76931 6.31585C6.17454 6.31585 5.69238 6.78713 5.69238 7.36849C5.69238 7.94984 6.17454 8.42112 6.76931 8.42112H13.2308C13.8256 8.42112 14.3078 7.94984 14.3078 7.36849C14.3078 6.78713 13.8256 6.31585 13.2308 6.31585H6.76931Z" fill="var(--info-graphic-accent-color-white)"/>
</g>
<defs>
<clipPath id="clip0_5917_5683">
<rect width="20" height="20" fill="var(--info-graphic-accent-color-white)" transform="matrix(-1 0 0 1 20 0)"/>
</clipPath>
</defs>
</svg>
