<svg width="1em" height="1em" viewBox="0 0 14 20" fill="none" xmlns="http://www.w3.org/2000/svg">
<path d="M12.2804 0.339844H1.72043C1.04047 0.339844 0.480469 0.899844 0.480469 1.57981V14.3998C0.480469 15.0798 1.04047 15.6398 1.72043 15.6398H2.4604C2.58038 13.2398 4.58036 11.3198 7.0004 11.3198C9.4404 11.3198 11.4404 13.2398 11.5404 15.6398H12.2804C12.9603 15.6398 13.5203 15.0798 13.5203 14.3998V1.57981C13.5203 0.899844 12.9604 0.339844 12.2804 0.339844ZM10.6204 9.33984H3.38043C3.08049 9.33984 2.8404 9.09989 2.8404 8.79981C2.8404 8.49987 3.08035 8.25977 3.38043 8.25977H10.6404C10.9404 8.25977 11.1805 8.49973 11.1805 8.79981C11.1604 9.09989 10.9205 9.33984 10.6204 9.33984ZM10.6204 6.63977H3.38043C3.08049 6.63977 2.8404 6.39982 2.8404 6.09974C2.8404 5.79979 3.08035 5.5597 3.38043 5.5597H10.6404C10.9404 5.5597 11.1805 5.79966 11.1805 6.09974C11.1604 6.41977 10.9205 6.63977 10.6204 6.63977ZM10.6204 3.95981H3.38043C3.08049 3.95981 2.8404 3.71985 2.8404 3.41977C2.8404 3.11983 3.08035 2.87974 3.38043 2.87974H10.6404C10.9404 2.87974 11.1805 3.11969 11.1805 3.41977C11.1604 3.71985 10.9205 3.95981 10.6204 3.95981Z" fill="#7BC9EB"/>
<path d="M0.5 6.88301L0.480469 14.3995C0.480469 15.0795 1.04047 15.6395 1.72043 15.6395H2.4604C2.58038 13.2395 4.58036 11.3195 7.0004 11.3195C9.4404 11.3195 11.4404 13.2396 11.5404 15.6395H12.2804C12.9603 15.6395 13.5203 15.0795 13.5203 14.3995V6.88423C9.5 6.88313 7 6.88246 0.5 6.88301ZM10.6204 9.26213H3.38043C3.08049 9.26213 2.8404 9.02217 2.8404 8.72209C2.8404 8.42215 3.08035 8.18206 3.38043 8.18206H10.6404C10.9404 8.18206 11.1805 8.42201 11.1805 8.72209C11.1604 9.02217 10.9205 9.26213 10.6204 9.26213Z" fill="#23A4DE"/>
<path d="M6.99957 12.3789C5.0795 12.3789 3.51953 13.9389 3.51953 15.8589C3.51953 17.779 5.07953 19.339 6.99957 19.339C8.9196 19.339 10.4796 17.779 10.4796 15.8589C10.4796 13.9389 8.9196 12.3789 6.99957 12.3789ZM8.5795 15.5188L6.89953 17.1988C6.7995 17.2988 6.65957 17.3588 6.5195 17.3588C6.37942 17.3588 6.2395 17.2988 6.13946 17.1988L5.29946 16.3588C5.07945 16.1388 5.07945 15.7988 5.29946 15.5988C5.51947 15.3788 5.85946 15.3788 6.0595 15.5988L6.51946 16.0587L7.81939 14.7588C8.03939 14.5388 8.37939 14.5388 8.57942 14.7588C8.79943 14.9589 8.79943 15.2988 8.57942 15.5188H8.5795Z" fill="#0061A8"/>
</svg>
