<svg width="40" height="40" viewBox="0 0 40 40" fill="none" xmlns="http://www.w3.org/2000/svg">
<rect x="12" y="21" width="11" height="13" fill="#d8dee4"/>
<path d="M29.7211 16.8103H28.1579V11.069C28.1579 5.7869 23.3832 1.5 17.5 1.5C11.6168 1.5 6.84211 5.7869 6.84211 11.069V16.8103H5.27895C4.56842 16.8103 4 17.3207 4 17.9586V37.3517C4 37.9769 4.56842 38.5 5.27895 38.5H29.7211C30.4316 38.5 31 37.9769 31 37.3517V17.9586C31 17.3207 30.4316 16.8103 29.7211 16.8103ZM13.9474 26.3793C13.9474 24.6186 15.5389 23.1897 17.5 23.1897C19.4611 23.1897 21.0526 24.6186 21.0526 26.3793C21.0526 27.4 20.5268 28.3314 19.6316 28.931V31.4828C19.6316 32.5417 18.6795 33.3966 17.5 33.3966C16.3205 33.3966 15.3684 32.5417 15.3684 31.4828V28.931C14.4732 28.3314 13.9474 27.4 13.9474 26.3793ZM11.1053 11.069C11.1053 7.90483 13.9758 5.32759 17.5 5.32759C21.0242 5.32759 23.8947 7.90483 23.8947 11.069V16.8103H11.1053V11.069Z" fill="#9faebc"/>
<circle cx="23.5" cy="11" r="2.5" fill="#fff"/>
<path d="M30.841 31.0405L29.9366 33.6436L35.191 35.5L37 30.2939L31.4011 18.8173C32.9171 16.5765 33.21 13.6112 31.918 10.9628C30.023 7.0784 25.2939 5.4076 21.409 7.24991C17.5241 9.09221 15.8961 13.7777 17.7911 17.6621C19.0832 20.3105 21.6156 21.9359 24.3376 22.167L24.7683 23.0498L27.3955 23.978L26.4911 26.581L29.1183 27.5093L28.2138 30.1123L30.841 31.0405ZM21.3659 11.6186C20.9352 10.7358 21.3875 9.43424 22.2704 9.01554C23.1533 8.59683 24.467 9.06094 24.8977 9.94376C25.4145 11.0031 24.8761 12.1281 23.9932 12.5468C22.9336 13.0492 21.8828 12.678 21.3659 11.6186Z" fill="#798da1"/>
</svg>
