<svg width="40" height="40" viewBox="0 0 40 40" fill="none" xmlns="http://www.w3.org/2000/svg">
<path d="M1 16.7L16.5 2L32 16.7V37H1V16.7Z" fill="#d8dee4"/>
<path d="M1 16.56L16.5 2L32 16.56V28L1 16.56Z" fill="#798da1"/>
<path d="M32 37H22.8966L10 8.09512L16.4483 2L32 16.7V37Z" fill="#9faebc"/>
<path d="M32 16.56V28L15.5 21.9L10 8.03707L16.4483 2L32 16.56Z" fill="#798da1"/>
<path d="M30.8261 6.92414C29.2383 2.84629 24.8626 0.918175 21.0527 2.61762C18.4477 3.7796 16.6764 6.41315 16.4734 9.42606C14.2719 9.75193 12.734 11.9264 13.0384 14.2828C13.3139 16.415 15.0177 18.0021 17.0287 18H30.826C33.6835 18 36 15.5206 36 12.4621C36 9.40362 33.6836 6.92414 30.8261 6.92414Z" fill="#d8dee4"/>
<circle cx="30.5" cy="17.5" r="4.5" fill="#fff"/>
<path d="M37.5762 16.1657C37.5762 16.1657 36.6053 15.7707 36.3084 15.0619C36.01 14.352 36.4084 13.3837 36.4084 13.3837C36.4946 13.1729 36.4438 12.8595 36.2953 12.6875L35.2559 11.66C35.0826 11.5122 34.7689 11.4645 34.5593 11.5524C34.5593 11.5524 33.5949 11.9598 32.8827 11.6678C32.1693 11.3769 31.7669 10.4105 31.7669 10.4105C31.6794 10.2004 31.422 10.0154 31.195 10L29.733 10.0059C29.5063 10.0248 29.2503 10.2129 29.1645 10.4239C29.1645 10.4239 28.7708 11.3928 28.0611 11.6912C27.3512 11.9895 26.383 11.592 26.383 11.592C26.1721 11.5053 25.8593 11.5565 25.6871 11.705L24.6591 12.7445C24.5114 12.9178 24.4633 13.2316 24.5516 13.4411C24.5516 13.4411 24.9589 14.4046 24.6678 15.1168C24.3758 15.829 23.4104 16.2324 23.4104 16.2324C23.2004 16.3204 23.0159 16.5781 23 16.8052L23.0062 18.2663C23.0251 18.4933 23.2127 18.749 23.4238 18.8348C23.4238 18.8348 24.3932 19.2292 24.6903 19.9383C24.9885 20.6473 24.5902 21.6157 24.5902 21.6157C24.5039 21.8265 24.5547 22.1394 24.7038 22.3119L25.743 23.3389C25.916 23.4871 26.2298 23.5352 26.4394 23.4469C26.4394 23.4469 27.4043 23.0411 28.1164 23.3314C28.8286 23.6225 29.2317 24.5892 29.2317 24.5892C29.3197 24.7993 29.577 24.9838 29.8046 25L31.2648 24.9931C31.4918 24.9742 31.7475 24.7866 31.8342 24.5755C31.8342 24.5755 32.2288 23.6072 32.9378 23.309C33.6471 23.0107 34.616 23.409 34.616 23.409C34.8268 23.4956 35.1397 23.4445 35.3118 23.2959L36.3395 22.2574C36.4873 22.0844 36.5354 21.7711 36.4475 21.5611C36.4475 21.5611 36.0407 20.5954 36.331 19.8834C36.6228 19.1703 37.5895 18.7675 37.5895 18.7675C37.7992 18.68 37.9841 18.4222 38 18.1952L37.9939 16.7345C37.9748 16.5072 37.7869 16.2516 37.5762 16.1657ZM33.2222 18.6115C32.6069 20.1142 30.8911 20.8356 29.388 20.2208C27.8851 19.6067 27.1646 17.8896 27.7779 16.3873C28.3927 14.8838 30.1099 14.1638 31.6123 14.777C33.1152 15.3924 33.8355 17.109 33.2222 18.6115Z" fill="#9faebc"/>
</svg>
