<svg width="1em" height="1em"  viewBox="0 0 40 40" fill="none" xmlns="http://www.w3.org/2000/svg">
<g>
<g>
<path d="M1.1875 15.7L16.5 1L31.8125 15.7V36H1.1875V15.7Z" fill="#262F69"/>
<path d="M1.1875 15.7L16.5 1L31.8125 15.7V27.25L1.1875 15.7Z" fill="#7BC9EB"/>
<path d="M31.812 36H22.8486L10.1504 7.09512L16.4995 1L31.812 15.7V36Z" fill="#0061A8"/>
<path d="M31.812 15.7V27.25L16.4995 21.5476L10.1504 7.09512L16.4995 1L31.812 15.7Z" fill="#23A4DE"/>
</g>
<path d="M31.7556 22.916L31.716 25.361L36.6061 25.4403L36.6854 20.5501L28.8677 12.4749C29.5166 10.162 28.947 7.58482 27.1429 5.72131C24.4969 2.98817 20.0958 2.91684 17.3627 5.56282C14.6295 8.2088 14.5582 12.6099 17.2042 15.343C19.0083 17.2066 21.5657 17.8594 23.8984 17.2858L24.4997 17.907L26.9448 17.9466L26.9052 20.3917L29.3502 20.4313L29.3106 22.8763L31.7556 22.916ZM18.5258 9.25022C17.9244 8.62905 17.9442 7.40652 18.5654 6.80516C19.1866 6.2038 20.4091 6.22361 21.0104 6.84478C21.7321 7.59019 21.592 8.68848 20.9708 9.28984C20.2254 10.0115 19.2474 9.99562 18.5258 9.25022Z" fill="#E3E3E3"/>
</g>
<defs>
<rect width="40" height="39.9995" fill="white"/>
<rect width="35" height="35" fill="white" transform="translate(-1 1)"/>
</defs>
</svg>
