<svg width="20" height="20" viewBox="0 0 20 20" fill="none" xmlns="http://www.w3.org/2000/svg">
<path d="M9.46553 11.7915C9.61416 11.9262 9.80347 12 9.9992 12C10.1947 12 10.3841 11.9262 10.5329 11.7915L20 4C20 3.5 19.3644 3.00019 19.0313 3H0.968716C0.635539 3 0 3.5 0 4L9.46553 11.7915Z" fill="#23A4DE"/>
<path d="M11.3941 10.7922C11.0068 11.1482 10.5126 11.3442 10.0013 11.3442C9.48995 11.3442 8.99566 11.1482 8.6084 10.7922L1 3C0.5 3 0 3.5 0 4V14.8715C0 15.4776 0.225763 16.0587 0.627551 16.4873C1.0295 16.9158 1.57445 17.1565 2.14286 17.1565H17.8571C18.4256 17.1565 18.9705 16.9158 19.3724 16.4873C19.7742 16.0587 20 15.4776 20 14.8715V4C20 3.5 19.5 3 19 3L11.3941 10.7922Z" fill="#7BC9EB"/>
</svg>
