<svg width="20" height="20" viewBox="0 0 20 20" fill="none" xmlns="http://www.w3.org/2000/svg">
<g clip-path="url(#clip0_5905_4859)">
<path d="M2 20H18V7.88218L10 2L2 7.88218V20Z" fill="#7BC9EB"/>
<path d="M5 9H9V13H5V9Z" fill="white"/>
<path d="M11 9H15V13H11V9Z" fill="white"/>
<path d="M5 14H9V18H5V14Z" fill="#23A4DE"/>
<path d="M11 14H15V18H11V14Z" fill="#EAF5FC"/>
<path d="M11 4H15V7H11V4Z" fill="#EAF5FC"/>
<path d="M5 4H9V7H5V4Z" fill="#EAF5FC"/>
<path d="M1.22096 10L10 2.65656L18.779 10L20 8.36478L10 0L7.6199e-06 8.36478L1.22096 10Z" fill="#23A4DE"/>
</g>
<defs>
<clipPath id="clip0_5905_4859">
<rect width="20" height="20" fill="white"/>
</clipPath>
</defs>
</svg>
