<svg width="80" height="80" viewBox="0 0 80 80" fill="none" xmlns="http://www.w3.org/2000/svg">
<path d="M40 74C56.5685 74 70 60.5685 70 44C70 27.4315 56.5685 14 40 14C23.4315 14 10 27.4315 10 44C10 60.5685 23.4315 74 40 74Z" fill="var(--info-graphic-accent-color-darkest)"/>
<path d="M67.952 54.9174L11.8463 33.6157C16.0712 22.1649 27.0823 14 40.0004 14C56.569 14 70.0004 27.4315 70.0004 44C70.0004 47.8518 69.2745 51.5341 67.952 54.9174Z" fill="var(--info-graphic-accent-color-lightest)"/>
<path d="M27.9762 16.5066C31.6572 14.8945 35.7241 14 39.9999 14C56.5684 14 69.9999 27.4315 69.9999 44C69.9999 56.3097 62.586 66.8878 51.9798 71.5125L27.9762 16.5066Z" fill="var(--info-graphic-accent-color-light)"/>
<path d="M27.9762 16.5066C31.6572 14.8945 35.7241 14 39.9999 14C56.5684 14 69.9999 27.4315 69.9999 44C69.9999 47.8582 69.2716 51.5463 67.9449 54.9343L40.2075 44.5355L27.9762 16.5066Z" fill="var(--info-graphic-accent-color-med)"/>
<circle cx="40" cy="15" r="14" fill="var(--info-graphic-accent-color-white)"/>
<path d="M40.0011 6C37.1283 6 34.78 8.29822 34.78 11.1097C34.78 12.6988 35.5302 14.1239 36.7014 15.0627C36.5206 14.9369 36.2781 14.8754 36.0571 14.9186C34.2332 15.1641 32.5916 16.1682 31.5657 17.6855C31.3605 17.9755 31.1781 18.3102 31.0413 18.6226C30.9729 18.7565 30.9957 18.9127 31.0641 19.0466C31.2465 19.3589 31.4745 19.6713 31.6797 19.9391C31.9988 20.363 32.3408 20.7423 32.7284 21.0993C33.0476 21.4117 33.4124 21.7018 33.7772 21.9919C35.5783 23.3083 37.7443 24 39.9786 24C42.213 24 44.3789 23.3083 46.18 21.9919C46.5448 21.7241 46.9096 21.4117 47.2288 21.0993C47.5936 20.7423 47.9584 20.363 48.2776 19.9391C48.5056 19.649 48.7108 19.3589 48.8932 19.0466C49.0071 18.9127 49.0299 18.7564 48.9615 18.6226C48.8247 18.2879 48.6424 17.9755 48.4372 17.6855C47.3884 16.1682 45.7697 15.1641 43.9457 14.9186C43.7222 14.8968 43.4768 14.9392 43.2953 15.0671C44.4696 14.1283 45.2221 12.7012 45.2221 11.1097C45.2221 8.29822 42.8738 6 40.0011 6Z" fill="var(--info-graphic-accent-color-bright)"/>
<circle cx="14" cy="58" r="14" fill="var(--info-graphic-accent-color-white)"/>
<path d="M14.0011 49C11.1283 49 8.78 51.2982 8.78 54.1097C8.78 55.6988 9.53025 57.1239 10.7014 58.0627C10.5206 57.9369 10.2781 57.8754 10.0571 57.9186C8.23316 58.1641 6.59163 59.1682 5.56567 60.6855C5.36047 60.9755 5.17806 61.3102 5.04129 61.6226C4.97291 61.7565 4.99569 61.9127 5.06407 62.0466C5.24649 62.3589 5.47446 62.6713 5.67965 62.9391C5.99883 63.363 6.34083 63.7423 6.72844 64.0993C7.04761 64.4117 7.41239 64.7018 7.77722 64.9919C9.57835 66.3083 11.7443 67 13.9786 67C16.213 67 18.3789 66.3083 20.18 64.9919C20.5448 64.7241 20.9096 64.4117 21.2288 64.0993C21.5936 63.7423 21.9584 63.363 22.2776 62.9391C22.5056 62.649 22.7108 62.3589 22.8932 62.0466C23.0071 61.9127 23.0299 61.7564 22.9615 61.6226C22.8247 61.2879 22.6424 60.9755 22.4372 60.6855C21.3884 59.1682 19.7697 58.1641 17.9457 57.9186C17.7222 57.8968 17.4768 57.9392 17.2953 58.0671C18.4696 57.1283 19.2221 55.7012 19.2221 54.1097C19.2221 51.2982 16.8738 49 14.0011 49Z" fill="var(--info-graphic-accent-color-bright)"/>
<circle cx="66" cy="58" r="14" fill="var(--info-graphic-accent-color-white)"/>
<path d="M66.0011 49C63.1283 49 60.78 51.2982 60.78 54.1097C60.78 55.6988 61.5302 57.1239 62.7014 58.0627C62.5206 57.9369 62.2781 57.8754 62.0571 57.9186C60.2332 58.1641 58.5916 59.1682 57.5657 60.6855C57.3605 60.9755 57.1781 61.3102 57.0413 61.6226C56.9729 61.7565 56.9957 61.9127 57.0641 62.0466C57.2465 62.3589 57.4745 62.6713 57.6797 62.9391C57.9988 63.363 58.3408 63.7423 58.7284 64.0993C59.0476 64.4117 59.4124 64.7018 59.7772 64.9919C61.5783 66.3083 63.7443 67 65.9786 67C68.213 67 70.3789 66.3083 72.18 64.9919C72.5448 64.7241 72.9096 64.4117 73.2288 64.0993C73.5936 63.7423 73.9584 63.363 74.2776 62.9391C74.5056 62.649 74.7108 62.3589 74.8932 62.0466C75.0071 61.9127 75.0299 61.7564 74.9615 61.6226C74.8247 61.2879 74.6424 60.9755 74.4372 60.6855C73.3884 59.1682 71.7697 58.1641 69.9457 57.9186C69.7222 57.8968 69.4768 57.9392 69.2953 58.0671C70.4696 57.1283 71.2221 55.7012 71.2221 54.1097C71.2221 51.2982 68.8738 49 66.0011 49Z" fill="var(--info-graphic-accent-color-bright)"/>
<path d="M39.4628 48.3218L39.4577 48.3197C38.9214 48.5409 36.9854 48.5368 35.5797 48.5339C35.0027 48.5326 34.515 48.5316 34.2501 48.5464C31.7513 48.5719 29.6859 46.5494 29.6604 44.0519C29.6604 41.5542 31.705 39.4897 34.2039 39.4642L38.0178 39.4253C38.0435 39.425 38.0541 39.4583 38.0327 39.4726C37.2665 39.9855 36.4928 40.8685 36.0781 41.6838C36.0405 41.7578 35.9654 41.805 35.8824 41.8062L34.0507 41.8318C32.8537 41.844 31.8844 42.8328 31.8966 44.0291C31.9089 45.2254 32.8982 46.1942 34.0951 46.1819C34.3882 46.1788 34.8736 46.174 35.3814 46.1689C36.0298 46.1624 36.7148 46.1556 37.0825 46.1515C37.1767 46.1501 37.2728 46.149 37.37 46.1484C38.1648 46.1431 39.0348 46.1373 39.5692 45.7263C40.0435 45.4003 40.3017 44.914 40.382 44.6018C40.511 44.1753 40.4975 43.7438 40.3942 43.3548C40.3667 43.251 40.4237 43.1442 40.5253 43.1093C41.1721 42.8869 41.8343 42.8678 42.4284 42.9307C42.5229 42.9407 42.6164 43.0254 42.6347 43.1186C42.8479 44.2019 42.6183 45.3859 42.0802 46.2716L42.0807 46.2729L42.0824 46.2729C41.4662 47.2551 40.569 47.9979 39.4628 48.3218Z" fill="var(--info-graphic-accent-color-white)"/>
<path d="M36.6581 44.9719C36.12 42.308 38.2158 39.6033 41.0609 39.5549C41.064 39.5549 41.067 39.5547 41.0701 39.5546C41.0723 39.5545 41.0746 39.5544 41.0768 39.5544L45.0442 39.5139C47.5686 39.4881 49.634 41.5314 49.634 44.0545C49.634 46.5269 47.6101 48.5704 45.1365 48.5956L41.2644 48.6351C41.2385 48.6354 41.2281 48.6016 41.2499 48.5876C42.0293 48.0863 42.8259 47.1881 43.2198 46.3801C43.2568 46.3041 43.3329 46.2552 43.4174 46.254L45.2436 46.2285C46.4406 46.2163 47.4099 45.2275 47.3977 44.0312C47.3977 42.8348 46.4183 41.8659 45.2213 41.8781L42.2177 41.9088L42.2193 41.9121C42.0851 41.9154 41.9467 41.9161 41.8064 41.9169C41.0967 41.921 40.3402 41.9253 39.8528 42.2458C39.388 42.5368 39.0782 42.9584 38.9157 43.4485C38.7903 43.8473 38.7853 44.3383 38.8972 44.7148C38.9266 44.8136 38.8698 44.9179 38.7695 44.9418C38.1138 45.0978 37.5094 45.1317 36.8427 45.1239C36.753 45.1229 36.6759 45.0597 36.6581 44.9719Z" fill="var(--info-graphic-accent-color-white)"/>
</svg>
