<svg width="80" height="80" viewBox="0 0 80 80" fill="none" xmlns="http://www.w3.org/2000/svg">
<path d="M69.8672 71.6932H69.0868V50.5466C67.7848 52.2889 64.4034 52.2889 63.2143 50.5466V56.7229H54.2476V52.889C53.8283 53.0194 53.3922 53.1116 52.9319 53.1116C52.4728 53.1116 52.0372 53.0195 51.6174 52.889V56.7229H43.0797V51.3274C41.4015 53.0697 38.8855 53.0697 37.2072 51.3274V71.6933H36.3743C35.3528 71.6933 34.5253 72.5525 34.5253 73.6129C34.5253 74.6734 35.3528 75.5324 36.3743 75.5324H69.8672C72.0371 75.5323 72.0034 71.6932 69.8672 71.6932ZM63.2143 59.4527V63.8053C63.2143 64.6466 62.353 65.3385 61.5364 65.3385H54.2477V59.4526L63.2143 59.4527ZM51.6175 59.4527V65.3385L44.4786 65.3385C43.6625 65.3385 43.0797 64.6524 43.0797 63.8053V59.4527L51.6175 59.4527Z" fill="var(--info-graphic-accent-color-med)"/>
<path d="M69.8672 71.6284H69.0868C57.3416 71.6284 37.2072 71.6285 37.2072 71.6285H36.3743C35.3528 71.6285 34.5253 72.5022 34.5253 73.5806C34.5253 74.6589 35.3528 75.5324 36.3743 75.5324H69.8672C72.0371 75.5323 72.0034 71.6284 69.8672 71.6284Z" fill="var(--info-graphic-accent-color-darkest)"/>
<path d="M32.3856 54.3105C32.704 54.4053 33.0255 54.4504 33.3423 54.4504C34.7802 54.4504 36.1083 53.5169 36.541 52.0714L36.7166 51.4859C36.8356 52.5489 37.4586 53.4855 38.3907 54.0098C38.6915 54.1765 39.0122 54.3143 39.3682 54.3847C39.5884 54.4292 39.8078 54.4504 40.0235 54.4504C41.5847 54.4504 42.9804 53.3539 43.2958 51.7682L43.3772 51.3619C43.4607 52.4922 44.1099 53.4878 45.075 54.0258C45.4625 54.2424 45.8984 54.3854 46.3695 54.433C46.4821 54.4451 46.5942 54.4499 46.7046 54.4499C48.3996 54.4499 49.852 53.1672 50.0245 51.4484L50.0492 51.2012C50.0797 52.4148 50.7611 53.4564 51.7586 54.0134C52.2403 54.2829 52.7888 54.4498 53.3797 54.4498C53.9727 54.4498 54.5206 54.2829 55.0024 54.0134C55.9991 53.4564 56.6811 52.4148 56.7126 51.2012L56.7363 51.4484C56.909 53.1671 58.3606 54.4499 60.0562 54.4499C60.1674 54.4499 60.2787 54.4451 60.3916 54.433C60.8618 54.3854 61.2978 54.2424 61.6866 54.0258C62.6511 53.4878 63.301 52.4922 63.383 51.3619L63.4644 51.7682C63.7812 53.3546 65.176 54.4504 66.7367 54.4504C66.953 54.4504 67.1716 54.4291 67.3927 54.3847C67.747 54.3143 68.0693 54.1765 68.3686 54.0098C69.3023 53.4854 69.9253 52.5489 70.0443 51.4859L70.2199 52.0714C70.6527 53.5169 71.9808 54.4504 73.4193 54.4504C73.7355 54.4504 74.0569 54.4053 74.3753 54.3105C76.1439 53.7839 77.1489 51.9274 76.6211 50.1651L73.7646 40.6307C73.1679 38.638 71.3302 37.2727 69.2457 37.2727H37.5162C35.4307 37.2727 33.5932 38.638 32.9963 40.6307L30.1405 50.1651C29.6127 51.9275 30.6179 53.784 32.3856 54.3105Z" fill="var(--info-graphic-accent-color-dark)"/>
<path d="M51.6176 59.4521V65.338L44.4787 65.3379C43.6625 65.3379 43.0798 64.6519 43.0798 63.8048V59.4521L51.6176 59.4521Z" fill="var(--info-graphic-accent-color-light)"/>
<path d="M43.0798 52.4562V56.7225H51.6175V53.9298C50.6974 53.356 50.0783 52.3564 50.0492 51.2009L50.0246 51.4481C49.852 53.167 48.3997 54.4496 46.7047 54.4496C46.5942 54.4496 46.4822 54.4449 46.3695 54.4327C45.8985 54.3852 45.4625 54.2422 45.075 54.0255C44.11 53.4876 43.4608 52.4919 43.3772 51.3617L43.2958 51.768C43.2478 52.0094 43.1747 52.2396 43.0798 52.4562Z" fill="var(--info-graphic-accent-color-white)"/>
<path d="M54.2477 54.3282C54.5135 54.253 54.7659 54.1455 55.0024 54.0132C55.9991 53.4562 56.6811 52.4146 56.7127 51.2009L56.7364 51.4481C56.9091 53.1669 58.3607 54.4496 60.0562 54.4496C60.1675 54.4496 60.2788 54.4449 60.3916 54.4327C60.8619 54.3852 61.2978 54.2422 61.6866 54.0255C62.4058 53.6245 62.95 52.9689 63.2144 52.1929V56.7225H54.2477V54.3282Z" fill="var(--info-graphic-accent-color-white)"/>
<path d="M63.2143 63.8048V59.4522L54.2477 59.4521V65.338H61.5364C62.353 65.338 63.2143 64.6461 63.2143 63.8048Z" fill="var(--info-graphic-accent-color-lightest)"/>
<path d="M42.2506 79.9999H10.1929C6.77733 79.9916 4.00832 77.2225 4 73.807V6.19285C4.00832 2.77733 6.77733 0.00831535 10.1929 0H42.2506C45.6661 0.00831535 48.4352 2.77733 48.4435 6.19285V73.8091C48.4331 77.2246 45.6661 79.9916 42.2506 79.9999Z" fill="var(--info-graphic-accent-color-lightest)"/>
<path fill-rule="evenodd" clip-rule="evenodd" d="M10.2022 76.1738H42.2413L42.2436 76.1738C43.5502 76.1694 44.6108 75.1113 44.6174 73.8024V6.19811C44.612 4.89144 43.5516 3.83117 42.2448 3.82609H10.1986C8.89172 3.83117 7.83117 4.89172 7.82609 6.19863V73.8012C7.83118 75.1086 8.8924 76.1694 10.1999 76.1738L10.2022 76.1738ZM10.1929 79.9999C6.77733 79.9916 4.00832 77.2225 4 73.807V6.19285C4.00832 2.77733 6.77733 0.00831535 10.1929 0H42.2506C45.6661 0.00831535 48.4352 2.77733 48.4435 6.19285V73.8091C48.4331 77.2246 45.6661 79.9916 42.2506 79.9999H10.1929Z" fill="var(--info-graphic-accent-color-lightest)"/>
<path d="M42.2506 80H10.1929C6.77733 79.9917 4.00832 77.2227 4 73.8071V65.9634C24.4202 65.9634 30.2718 65.9634 48.4435 65.9634V73.8092C48.4331 77.2247 45.6661 79.9917 42.2506 80Z" fill="var(--info-graphic-accent-color-dark)"/>
<rect x="12.6957" y="6.95654" width="20.8696" height="22.6087" rx="1" fill="var(--info-graphic-accent-color-med)"/>
<path d="M12.6957 45.2174C12.6957 44.2569 13.4743 43.4783 14.4348 43.4783H38.7826C39.7431 43.4783 40.5218 44.2569 40.5218 45.2174V57.3913C40.5218 58.3518 39.7431 59.1304 38.7826 59.1304H14.4348C13.4743 59.1304 12.6957 58.3518 12.6957 57.3913V45.2174Z" fill="var(--info-graphic-accent-color-med)"/>
<rect x="12.6957" y="33.0435" width="19.1304" height="5.21739" rx="1" fill="var(--info-graphic-accent-color-med)"/>
<path d="M50.6883 12.925C47.3487 5.53389 38.1451 2.03919 30.1314 5.11943C24.6521 7.22552 20.9265 11.9988 20.4995 17.4597C15.8689 18.0504 12.6342 21.9915 13.2746 26.2626C13.8541 30.1272 17.4378 33.0039 21.6676 33H50.6882C56.6985 33 61.5709 28.506 61.5709 22.9626C61.5709 17.4191 56.6987 12.925 50.6883 12.925Z" fill="var(--info-graphic-accent-color-white)"/>
<circle cx="61" cy="19" r="15" fill="var(--info-graphic-accent-color-bright)"/>
<path fill-rule="evenodd" clip-rule="evenodd" d="M70.0626 17.2123L59.9625 27.204C59.4492 27.7175 58.7669 28.0001 58.0411 28.0001C57.3153 28.0001 56.633 27.7175 56.1197 27.204L51.9388 23.134C51.4255 22.6205 51.1428 21.9379 51.1428 21.2118C51.1428 20.4854 51.4255 19.8028 51.9388 19.2893C52.4519 18.7758 53.1342 18.493 53.8602 18.493C54.586 18.493 55.2685 18.7758 55.7816 19.2895L58.0409 21.4369L66.2194 13.3677C66.7327 12.8542 67.415 12.5715 68.1408 12.5715C68.8666 12.5715 69.5489 12.8542 70.0622 13.3677C71.122 14.428 71.122 16.1524 70.0626 17.2123Z" fill="var(--info-graphic-accent-color-white)"/>
</svg>
