<svg width="80" height="80" viewBox="0 0 80 80" fill="none" xmlns="http://www.w3.org/2000/svg">
<path d="M21.8393 8C20.7347 8 19.8393 8.89543 19.8393 10V13.3614C19.8393 14.466 18.9439 15.3614 17.8393 15.3614H17C15.8954 15.3614 15 16.2569 15 17.3614V76C15 77.1046 15.8954 78 17 78H49C50.1046 78 51 77.1046 51 76V10C51 8.89543 50.1046 8 49 8H21.8393Z" fill="#23A4DE"/>
<path d="M30.4472 21.5146H25.8517V27.14H30.4472V21.5146Z" fill="#EAF5FC"/>
<path d="M41.8858 21.5146H37.2903V27.14H41.8858V21.5146Z" fill="#EAF5FC"/>
<path d="M25.8517 32.7654H30.4472V38.3908H25.8517V32.7654Z" fill="#EAF5FC"/>
<path d="M41.8858 32.7654H37.2903V38.3908H41.8858V32.7654Z" fill="#EAF5FC"/>
<path d="M25.8517 44.0168H30.4472V49.6422H25.8517V44.0168Z" fill="#EAF5FC"/>
<path d="M41.8858 44.0168H37.2903V49.6422H41.8858V44.0168Z" fill="#EAF5FC"/>
<path d="M25.8517 55.2676H30.4472V60.893H25.8517V55.2676Z" fill="#EAF5FC"/>
<path d="M41.8858 55.2676H37.2903V60.893H41.8858V55.2676Z" fill="#EAF5FC"/>
<path d="M6 76C6 77.1046 6.89543 78 8 78H32C33.1046 78 34 77.1046 34 76V56.4572L20 46L6 56.4572V76Z" fill="#7BC9EB"/>
<path d="M35.9924 60C37.7974 60 38.6785 57.7096 37.3714 56.4152L21.375 40.5736C20.6027 39.8088 19.3892 39.8088 18.617 40.5736L2.62055 56.4152C1.31346 57.7096 2.19453 60 3.99955 60H35.9924Z" fill="#0061A8"/>
<path d="M15 64H25C26.1046 64 27 64.8954 27 66V78H13V66C13 64.8954 13.8954 64 15 64Z" fill="#EAF5FC"/>
<path d="M17 67H23C23.5523 67 24 67.4477 24 68V78H16V68C16 67.4477 16.4477 67 17 67Z" fill="#0061A8"/>
<path d="M67.9941 71.9999H49.5609C47.597 71.9952 46.0048 70.403 46 68.439V29.5609C46.0048 27.597 47.597 26.0048 49.5609 26H67.9941C69.958 26.0048 71.5502 27.597 71.555 29.5609V68.4402C71.549 70.4042 69.958 71.9952 67.9941 71.9999Z" fill="#7BC9EB"/>
<path fill-rule="evenodd" clip-rule="evenodd" d="M49.5662 69.7999H67.9887L67.9901 69.7999C68.7413 69.7974 69.3512 69.189 69.355 68.4364V29.5639C69.3519 28.8126 68.7422 28.2029 67.9908 28.2H49.5642C48.8127 28.2029 48.2029 28.8127 48.2 29.5642V68.4357C48.2029 69.1874 48.8131 69.7974 49.5649 69.7999L49.5662 69.7999ZM49.5609 71.9999C47.597 71.9952 46.0048 70.403 46 68.439V29.5609C46.0048 27.597 47.597 26.0048 49.5609 26H67.9941C69.958 26.0048 71.5502 27.597 71.555 29.5609V68.4402C71.549 70.4042 69.958 71.9952 67.9941 71.9999H49.5609Z" fill="#7BC9EB"/>
<path d="M67.9941 72H49.5609C47.597 71.9952 46.0048 70.403 46 68.4391V63.929C57.7416 63.929 61.1063 63.929 71.555 63.929V68.4403C71.549 70.4042 69.958 71.9952 67.9941 72Z" fill="#31448F"/>
<rect x="51" y="30" width="12" height="13" rx="1" fill="#23A4DE"/>
<path d="M51 52C51 51.4477 51.4477 51 52 51H66C66.5523 51 67 51.4477 67 52V59C67 59.5523 66.5523 60 66 60H52C51.4477 60 51 59.5523 51 59V52Z" fill="#23A4DE"/>
<rect x="51" y="45" width="11" height="3" rx="1" fill="#23A4DE"/>
<path d="M55.5892 14.6199L59.6496 13.0256L67.7935 12.3928L71.7164 21.7468L62.5631 25.3102L59.0762 26.6464L55.5892 14.6199Z" fill="white"/>
<path fill-rule="evenodd" clip-rule="evenodd" d="M75.6827 26.9543C75.4011 27.1462 75.0251 27.2422 74.6491 27.0503L74.6493 27.0506C72.2057 25.8019 67.6003 24.073 63.277 24.9375L59.3296 13.0282C63.3712 11.2034 65.9086 6.9775 67.1304 4.4802C67.2243 4.1919 67.6003 4 67.9763 4C68.3523 4.09594 68.7283 4.2883 68.8222 4.67254L71.0893 11.4401C73.031 11.5761 74.7762 12.7854 75.436 14.808C76.0997 16.6729 75.5188 18.8367 74.0164 20.1776L75.9648 25.9939C76.0587 26.2822 75.9649 26.666 75.6827 26.9543ZM51.0512 29.3116C49.8293 29.3116 48.6074 28.5431 48.1375 27.1984L46.1641 21.2444C45.882 20.4763 45.9759 19.6119 46.3519 18.8434C46.7278 18.0749 47.3855 17.4987 48.1375 17.2104L55.9384 14.5211L59.8857 26.4304L58.051 27.0629L56.7544 34.3504C56.5846 35.3048 55.7547 36 54.7853 36H54.1022C52.9976 36 52.1022 35.1046 52.1022 34V29.1137L52.0849 29.1197C52.0203 29.1362 51.9584 29.1527 51.8984 29.1687L51.8983 29.1687C51.6092 29.2458 51.3626 29.3116 51.0512 29.3116Z" fill="#FFB71B"/>
</svg>
