<svg width="80" height="80" viewBox="0 0 80 80" fill="none" xmlns="http://www.w3.org/2000/svg">
<path d="M66.7398 35.0756L39.9987 25.6511V44.643L66.7398 35.0756Z" fill="var(--info-graphic-accent-color-dark)"/>
<path d="M66.7394 35.0756L39.9983 25.6511L13.2572 35.0756L39.9983 44.643L66.7394 35.0756Z" fill="var(--info-graphic-accent-color-light)"/>
<path d="M50.5785 7.46606H28.6113C26.4799 7.46606 24.746 9.23906 24.746 11.4178V58.7411C24.746 60.9199 26.4799 62.6929 28.6113 62.6929H50.5785C52.7099 62.6929 54.4443 60.9199 54.4443 58.7411V11.4178C54.4443 9.23906 52.7099 7.46606 50.5785 7.46606V7.46606Z" fill="var(--info-graphic-accent-color-lightest)"/>
<path d="M50.5655 9.75391H47.3009C46.9928 9.75391 46.7434 10.0089 46.7434 10.3232C46.7434 11.0784 46.1393 11.696 45.401 11.696H33.7638C33.025 11.696 32.4209 11.0784 32.4209 10.3232C32.4209 10.0089 32.1715 9.75391 31.8635 9.75391H28.5988C27.6995 9.75391 26.9707 10.499 26.9707 11.4177V48.7548H52.1936V11.4177C52.1936 10.499 51.4648 9.75391 50.5655 9.75391Z" fill="var(--info-graphic-accent-color-lightest)"/>
<path d="M28.9354 28.5258L39.6079 18.0381L50.2803 28.5258V43.0087H28.9354V28.5258Z" fill="var(--info-graphic-accent-color-darkest)"/>
<path d="M28.9354 28.5258L39.6079 18.0381L50.2803 28.5258V36.7661L28.9354 28.5258Z" fill="#8EDDFF"/>
<path d="M50.2804 43.0087H44.0331L35.1827 22.3866L39.6079 18.0381L50.2804 28.5258V43.0087Z" fill="var(--info-graphic-accent-color-light)"/>
<path d="M50.2804 28.5258V36.7661L39.6079 32.6977L35.1827 22.3866L39.6079 18.0381L50.2804 28.5258Z" fill="var(--info-graphic-accent-color-med)"/>
<path d="M66.7398 69.5762V35.0754L39.9987 44.6692V78.2001L66.7398 69.5762Z" fill="var(--info-graphic-accent-color-darkest)"/>
<path d="M39.9983 44.6692L13.2572 35.0754V69.5762L39.9983 78.2001V44.6692Z" fill="var(--info-graphic-accent-color-dark)"/>
<path d="M13.2572 35.0759L4 46.2142L31.2444 56.2813L39.9983 44.6433L13.2572 35.0759Z" fill="var(--info-graphic-accent-color-lightest)"/>
<path d="M66.7398 35.0757L76 46.2139L48.7556 56.281L39.9987 44.643L66.7398 35.0757Z" fill="var(--info-graphic-accent-color-bright)"/>
<path d="M66.7398 35.0754L76 46.2137L48.7556 56.2808L39.9987 44.6428L66.7398 35.0754Z" fill="var(--info-graphic-accent-color-med)"/>
<path d="M53.8586 6.92781C55.6198 4.03763 59.4074 3.13396 62.3185 4.90941L72.0277 10.8309C74.9388 12.6063 75.871 16.3886 74.1098 19.2787L68.1419 29.0722C66.3807 31.9624 62.5931 32.866 59.6819 31.0906L49.9728 25.1691C47.0617 23.3937 46.1295 19.6114 47.8907 16.7213L53.8586 6.92781Z" fill="var(--info-graphic-accent-color-bright)"/>
<path d="M28.9408 26.0991C27.3912 27.406 27.1757 29.7349 28.4594 31.3009L31.7768 35.3479C33.0605 36.9139 35.3573 37.124 36.9069 35.8171L40.876 32.4696C42.4256 31.1627 42.6412 28.8337 41.3575 27.2677L38.0401 23.2207C36.7564 21.6547 34.4596 21.4447 32.91 22.7516L28.9408 26.0991Z" fill="var(--info-graphic-accent-color-var(--info-graphic-accent-color-white))"/>
<path d="M15.1628 13.0131C13.8754 12.5938 12.5 13.2947 12.0908 14.5785L10.6645 19.0532C10.2553 20.337 10.9673 21.7176 12.2548 22.1368L16.6193 23.558C17.9067 23.9772 19.2822 23.2763 19.6914 21.9925L21.1176 17.5178C21.5268 16.234 20.8148 14.8534 19.5273 14.4342L15.1628 13.0131Z" fill="var(--info-graphic-accent-color-lightest)"/>
</svg>
