<svg width="80" height="80" viewBox="0 0 80 80" fill="none" xmlns="http://www.w3.org/2000/svg">
<g clip-path="url(#clip0_5925_6913)">
<mask id="mask0_5925_6913" style="mask-type:alpha" maskUnits="userSpaceOnUse" x="0" y="0" width="80" height="80">
<circle cx="40" cy="40" r="40" fill="#C4C4C4"/>
</mask>
<g mask="url(#mask0_5925_6913)">
<path d="M59.1959 98.3888L35.2209 39.7863L-23 15.429V98.3888H59.1959Z" fill="var(--info-graphic-accent-color-darkest)"/>
<path d="M93.5284 98.3883V66.1148V64.027L35.1632 39.8147L59.1959 98.3883H93.5284Z" fill="var(--info-graphic-accent-color-light)"/>
<path d="M-23 15.4281L35.1632 39.8145L11.1594 -18.6721L-23 15.4281Z" fill="var(--info-graphic-accent-color-lightest)"/>
<path d="M93.5285 15.4286L35.3364 -43L26.3061 -33.953L11.1306 -18.6427L35.1633 39.8149L93.5285 64.0273V15.4286Z" fill="var(--info-graphic-accent-color-med)"/>
</g>
<path d="M37.5486 23.7391L21.7001 40.2223C19.8206 42.1772 21.4335 45.4861 24.1174 45.0988C24.575 45.0327 25.0816 44.8818 25.6422 44.623C25.6422 44.623 26.1362 48.7427 30.4722 48.4179C30.4722 48.4179 31.0623 52.5854 35.8626 51.5657C35.8626 51.5657 38.1921 55.8726 44.7759 49.7979C48.0244 46.8006 58.7701 38.1022 58.7701 38.1022L37.5486 23.7391Z" fill="#F5B555"/>
<path d="M74.8691 16.6457L59.2504 21.4867C58.3093 21.7755 57.2894 21.6421 56.4544 21.1212L47.3109 15.4186C46.0763 14.6486 44.5596 14.479 43.1856 14.9572L32.9681 18.5134L38.3437 22.8258L22.4953 39.3091C20.6157 41.2638 22.2286 44.5729 24.9127 44.1856C25.3701 44.1194 25.8769 43.9685 26.4375 43.7098C26.4375 43.7098 26.9315 47.8294 31.2673 47.5047C31.2673 47.5047 31.8575 51.672 36.6579 50.6524C36.6579 50.6524 38.9874 54.9593 45.5712 48.8846C48.8196 45.8874 59.5654 37.1889 59.5654 37.1889L79.023 31.0169L74.8691 16.6457Z" fill="#FFE5C7"/>
<path d="M50.6078 28.9241C52.7834 27.9103 52.4134 26.0361 51.5313 25.3502L44.889 20.0616C44.1762 19.4941 43.3415 19.0994 42.4506 18.9085L35.8206 17.4879L33.1321 18.4235L38.5078 22.7359L34.1476 27.2709C34.7907 27.2361 38.0035 27.0051 40.6514 25.7694C40.6514 25.7694 45.931 31.1034 50.6078 28.9241Z" fill="#F5B555"/>
<path d="M52.669 24.2838L46.0267 18.9952C45.3139 18.4276 44.4794 18.0329 43.5885 17.842L34.7253 15.9428C33.6527 15.7129 32.5331 15.9546 31.6507 16.6063L23.6378 22.5247C23.0495 22.9593 22.283 23.0717 21.5947 22.8242L9.53737 18.489L8.35449 33.329L22.5781 39.1938L35.1681 26.21C35.1681 26.21 38.8321 26.0829 41.7891 24.7029C41.7891 24.7029 47.0687 30.0369 51.7457 27.8577C53.9213 26.8439 53.5512 24.9696 52.669 24.2838Z" fill="#FFEFDD"/>
<path d="M50.3782 27.6561C46.629 27.6937 42.1774 23.1989 42.0692 23.1727C42.0692 23.1727 38.8322 26.2292 32.953 24.8234C32.953 24.8234 31.9978 28.2892 26.5308 34.528C25.5069 35.6966 23.8567 36.0924 22.411 35.5233C21.8677 35.3095 21.2586 35.0885 20.6072 34.8603C19.051 34.3152 18.0291 32.8216 18.0867 31.1737L18.4187 21.6822C16.3676 20.9695 13.971 23.065 12.075 25.1604C10.0979 27.3456 8.66531 29.5307 8.7369 28.5314L8.35461 33.329L22.223 39.0475L22.2191 39.0513L22.5647 39.1938L22.5685 39.1899L22.5781 39.1938L24.8723 36.8142L35.1547 26.2101C35.1547 26.2101 38.8187 26.0829 41.7757 24.7029C41.7656 24.7001 42.6661 25.6193 44.0625 26.5385C46.0235 27.8291 48.9626 29.1198 51.7323 27.8577C52.5596 27.4808 53.0182 26.9744 53.2212 26.4541C52.9309 27.0075 51.9356 27.6405 50.3782 27.6561Z" fill="#F5B555"/>
<path d="M40.9351 50.6524C36.9374 46.7621 37.8091 44.3248 37.8091 44.3248L58.979 34.3011L59.0081 34.2946C60.6777 33.925 61.8349 32.402 61.744 30.6945L61.2213 20.8819L79.2052 30.2169L79.3433 30.6945L59.5655 37.1889C59.5655 37.1889 48.8196 45.8874 45.5712 48.8846C38.9874 54.9593 36.658 50.6524 36.658 50.6524C36.658 50.6524 38.4926 52.6197 40.9351 50.6524Z" fill="#F5B555"/>
<path d="M26.2861 44.5423C29.636 41.4061 32.986 38.2699 36.3359 35.1336C36.6259 34.8622 36.1901 34.4281 35.9011 34.6988C32.5511 37.8351 29.2012 40.9713 25.8512 44.1075C25.5611 44.3791 25.9969 44.813 26.2861 44.5423Z" fill="#F5B555"/>
<path d="M31.1158 48.3371C34.3384 45.2177 37.561 42.0985 40.7836 38.9791C41.0689 38.7028 40.6336 38.2685 40.3486 38.5443C37.1261 41.6636 33.9035 44.7829 30.6809 47.9022C30.3955 48.1785 30.8308 48.6129 31.1158 48.3371Z" fill="#F5B555"/>
<path d="M36.5063 51.485C39.3578 48.7299 42.2093 45.9748 45.0608 43.2198C45.3464 42.9438 44.9111 42.5095 44.6259 42.7848C41.7744 45.5399 38.923 48.295 36.0715 51.05C35.7859 51.326 36.2212 51.7605 36.5063 51.485Z" fill="#F5B555"/>
<path d="M38.581 42.6785L38.6223 42.636C39.7535 41.4741 41.6717 41.5392 42.907 42.7815L42.6788 42.552C41.5697 41.4364 41.56 39.6184 42.6571 38.4918L43.1536 37.9816C43.8103 37.3072 44.7141 37.0364 45.5723 37.1641C45.4847 36.2358 45.7873 35.2764 46.4829 34.5619L46.5285 34.5152C47.773 33.2369 49.8016 33.2265 51.0597 34.4922L51.6581 35.0942C51.5449 34.2419 51.8051 33.3481 52.4461 32.6896C53.5431 31.5628 55.3314 31.5537 56.4405 32.6695L59.0343 35.2787C60.1432 36.3943 60.153 38.2122 59.0559 39.3391C58.3518 40.0625 57.363 40.3225 56.4515 40.1226C57.0927 41.3484 56.9103 42.9037 55.8995 43.9421L55.854 43.9888C55.1584 44.7033 54.2178 45.0209 53.3036 44.9416C53.4383 45.8124 53.1814 46.7339 52.5248 47.4083L52.0282 47.9185C50.9312 49.0453 49.1428 49.0544 48.0337 47.9388L45.3563 45.2454L47.8053 47.7091C49.0406 48.9516 49.1247 50.9008 47.9934 52.0629L47.9519 52.1054C46.8207 53.2675 44.9023 53.2022 43.667 51.9597L38.769 47.0325C37.5338 45.7899 37.4495 43.8406 38.581 42.6785Z" fill="#F5B555"/>
<path d="M73.0685 35.199L73.0677 35.1918L73.3489 35.1193L73.3494 35.1265L73.0685 35.199Z" fill="var(--info-graphic-accent-color-light)"/>
<path d="M72.2118 35.4199V35.4127L73.0676 35.1919L73.0684 35.199L72.2118 35.4199Z" fill="var(--info-graphic-accent-color-lightest)"/>
<path d="M65.4492 37.1641L65.449 37.1568L72.2118 35.4126V35.4198L65.4492 37.1641Z" fill="var(--info-graphic-accent-color-lightest)"/>
<path d="M0.5 30.4998L12.0786 36.8164L20.9746 21.1328L8.5224 14.3054L0.5 30.4998Z" fill="var(--info-graphic-accent-color-white)"/>
<path d="M12.0645 36.8086L3.82403 32.1344L6.10486 29.8033L2.38281 23.1368L2.43056 23.0526L17.3998 19.126L12.0645 36.8086Z" fill="var(--info-graphic-accent-color-var(--info-graphic-accent-color-white))"/>
<path d="M2.98744 13.1061C3.49152 11.2379 5.60623 10.3286 7.30897 11.2478L18.4227 17.2473L7.14142 37.5882L0.00012207 33.7896L0.000122086 24.1776L2.98744 13.1061Z" fill="var(--info-graphic-accent-color-light)"/>
<path d="M76.7099 31.2995L66.4464 35.9249L59.1697 19.4275L75.4522 12.1472L76.7099 31.2995Z" fill="var(--info-graphic-accent-color-white)"/>
<path d="M66.4729 35.9131L62.9362 17.7661L73.5285 22.7542L78.2828 29.7406L78.2861 29.7911L73.9374 32.6206L66.4729 35.9131Z" fill="var(--info-graphic-accent-color-var(--info-graphic-accent-color-white))"/>
<path d="M74.5749 10.4991C76.3646 9.73609 78.3959 10.8522 78.7116 12.772L80 20.6066V33.4779C79.9379 33.5095 79.8744 33.5391 79.8095 33.5667L71.2815 37.1883L62.0992 15.8177L74.5749 10.4991Z" fill="var(--info-graphic-accent-color-lightest)"/>
<path d="M38.7322 46.3387C40.2205 47.7833 41.7087 49.228 43.197 50.6726C44.2369 51.6818 46.0895 51.7852 47.1109 50.6726C48.1126 49.5813 48.2207 47.836 47.1109 46.7587C45.6226 45.3141 44.1343 43.8695 42.646 42.425C41.6062 41.4157 39.7535 41.3123 38.7322 42.425C37.7305 43.5161 37.6223 45.2615 38.7322 46.3387Z" fill="#FFE5C7"/>
<path d="M42.5834 41.7355C44.1208 43.1279 45.658 44.5201 47.1954 45.9126C48.2325 46.8518 49.9683 47.0132 50.9787 45.9126C51.9192 44.8881 52.0865 43.1324 50.9787 42.1291C49.4414 40.7369 47.9041 39.3446 46.3668 37.9522C45.3296 37.0129 43.5939 36.8515 42.5834 37.9522C41.643 38.9767 41.4757 40.7322 42.5834 41.7355Z" fill="#FFE5C7"/>
<path d="M46.9947 37.8923C48.532 39.2846 50.0693 40.6768 51.6066 42.0693C52.6795 43.0409 54.4752 43.2078 55.5204 42.0693C56.4933 41.0094 56.6664 39.1933 55.5204 38.1555C53.9832 36.7631 52.4458 35.3708 50.9086 33.9784C49.8356 33.0067 48.04 32.8398 46.9947 33.9784C46.0219 35.0382 45.8487 36.8544 46.9947 37.8923Z" fill="#FFE5C7"/>
<path d="M52.9894 35.009C54.12 36.0262 55.2508 37.0434 56.3814 38.0606C57.1704 38.7706 58.4833 38.8974 59.2514 38.0606C59.9629 37.2857 60.0944 35.9488 59.2514 35.1905C58.1208 34.1733 56.9902 33.156 55.8596 32.1388C55.0705 31.4289 53.7576 31.3021 52.9894 32.1388C52.278 32.9137 52.1465 34.2506 52.9894 35.009Z" fill="#FFE5C7"/>
<path d="M8.35376 78.0002C8.35376 79.1048 9.24919 80.0002 10.3538 80.0002H29.8068C30.9113 80.0002 31.8068 79.1048 31.8068 78.0002V61.9558L20.0803 53.1968L8.35376 61.9558V78.0002Z" fill="var(--info-graphic-accent-color-lightest)"/>
<path d="M33.4756 64.923C34.9875 64.923 35.7255 63.0046 34.6307 61.9204L21.232 48.6513C20.5852 48.0108 19.5687 48.0108 18.9219 48.6513L5.52315 61.9204C4.42833 63.0046 5.16631 64.923 6.67821 64.923H33.4756Z" fill="var(--info-graphic-accent-color-light)"/>
<path d="M15.8923 68.2734H24.2683C25.1935 68.2734 25.9435 69.0235 25.9435 69.9487V79.9999H14.217V69.9487C14.217 69.0235 14.9671 68.2734 15.8923 68.2734Z" fill="var(--info-graphic-accent-color-var(--info-graphic-accent-color-white))"/>
<path d="M17.5675 70.7861H22.5931C23.0557 70.7861 23.4307 71.1611 23.4307 71.6237V79.9998H16.7299V71.6237C16.7299 71.1611 17.1049 70.7861 17.5675 70.7861Z" fill="var(--info-graphic-accent-color-light)"/>
<path d="M65.7071 9.02614C65.13 8.93167 64.5701 8.79903 64.0431 8.63192C60.1797 7.40701 57.9533 4.30734 57.1677 0.281085C57.0931 -0.100342 56.5411 -0.0908585 56.48 0.292964C55.7326 5.00015 53.0282 8.36655 48.2782 9.33316C47.9004 9.41001 47.9102 9.95605 48.2905 10.0196C53.0275 10.8112 55.8973 14.0751 56.8067 18.7162C56.864 19.0086 57.1738 19.0047 57.156 18.9982C57.3253 18.9951 57.4681 18.8708 57.4944 18.7036C57.8733 16.2956 58.9983 13.0135 62.207 11.0532C63.2321 10.4275 64.4141 9.97667 65.72 9.71298C65.8853 9.67963 66.0031 9.53291 65.9999 9.36433C65.9968 9.19569 65.8735 9.05339 65.7071 9.02614Z" fill="var(--info-graphic-accent-color-bright)"/>
</g>
<defs>
<clipPath id="clip0_5925_6913">
<rect width="80" height="80.0001" fill="var(--info-graphic-accent-color-white)"/>
</clipPath>
</defs>
</svg>
