<svg width="1em" height="1em" viewBox="0 0 20 20" fill="none" xmlns="http://www.w3.org/2000/svg">
<path d="M15.7495 19.1463C16.1629 18.6821 16.6246 18.2614 17.0619 17.8184C17.7088 17.1628 17.7139 16.3674 17.0707 15.7164C16.3036 14.9402 15.5335 14.1669 14.76 13.3972C14.1271 12.7673 13.3356 12.7689 12.7056 13.396C12.2244 13.875 11.742 14.3532 11.2711 14.8421C11.2385 14.8757 11.2073 14.9028 11.1759 14.9227L10.8463 15.2537C10.7544 15.3125 10.6633 15.3117 10.5437 15.2465C10.2328 15.0771 9.90259 14.9402 9.60395 14.7519C8.20995 13.8729 7.04084 12.7401 6.00715 11.4637C5.49284 10.8289 5.03575 10.1535 4.71989 9.39085C4.6673 9.26377 4.66576 9.17254 4.73628 9.07598L5.06582 8.74499C5.08153 8.72356 5.09929 8.70195 5.12234 8.67982C5.2668 8.53988 5.40988 8.39874 5.55246 8.25691C5.88559 7.92558 6.21477 7.59046 6.54554 7.25658C7.20392 6.59201 7.20257 5.81084 6.54178 5.14114C6.16699 4.76162 5.78929 4.38469 5.4128 4.00668C5.02486 3.61721 4.63998 3.22468 4.24863 2.83877C3.61464 2.2135 2.82307 2.21227 2.19043 2.83705C1.70755 3.31433 1.24023 3.80771 0.749656 4.27677C0.292914 4.71375 0.0601944 5.24317 0.0135543 5.86567C-0.0615771 6.87457 0.184645 7.82828 0.529044 8.75934C1.24106 10.6849 2.3241 12.3897 3.63444 13.9562C5.40646 16.0747 7.52512 17.7512 10.0032 18.9607C11.118 19.5049 12.2755 19.9233 13.5303 19.9922C14.3931 20.0408 15.1478 19.8218 15.7495 19.1463Z" fill="#23A4DE"/>
<path d="M10.0252 3.77355C9.84606 3.77115 9.65073 3.80648 9.48936 3.88177C9.07222 4.07607 8.87622 4.56793 8.98803 5.05842C9.08638 5.49059 9.46628 5.78918 9.94422 5.79498C11.0609 5.8087 12.0487 6.16353 12.8697 6.93185C13.7724 7.77611 14.194 8.83497 14.2375 10.0668C14.2454 10.2858 14.3273 10.535 14.4556 10.7104C14.7233 11.0767 15.199 11.1687 15.6356 11.0015C16.0217 10.8536 16.2491 10.5064 16.2457 10.046C16.2332 8.32968 15.6112 6.86393 14.4098 5.60084C13.2043 4.43468 11.7406 3.79792 10.0252 3.77355Z" fill="#0061A8"/>
<path d="M16.8548 2.71899C18.9265 4.87025 19.917 7.17561 19.9978 9.86907C20.0164 10.4883 19.6421 10.8976 19.0489 10.9292C18.423 10.9627 17.9981 10.5749 17.9826 9.94279C17.9498 8.6166 17.6505 7.3561 16.9953 6.20311C15.5028 3.57612 13.2264 2.20704 10.2301 2.0352C9.89762 2.01634 9.58602 1.98152 9.35225 1.71433C9.05293 1.37236 9.02664 0.97895 9.18782 0.578509C9.35038 0.174805 9.67993 -0.00716049 10.108 0.000215251C12.0586 0.0334856 13.8583 0.578684 15.4823 1.66252C16.0431 2.0369 16.5545 2.48596 16.8548 2.71899Z" fill="#0061A8"/>
</svg>
