<svg width="20" height="20" viewBox="0 0 20 20" fill="none" xmlns="http://www.w3.org/2000/svg">
<g clip-path="url(#clip0_5917_5668)">
<path d="M15.7495 19.1468C16.1629 18.6826 16.6246 18.2619 17.0619 17.8189C17.7088 17.1632 17.7139 16.3678 17.0707 15.7168C16.3036 14.9406 15.5335 14.1674 14.76 13.3977C14.1271 12.7678 13.3356 12.7694 12.7056 13.3965C12.2244 13.8755 11.742 14.3536 11.2711 14.8426C11.2385 14.8762 11.2073 14.9033 11.1759 14.9232L10.8463 15.2542C10.7545 15.313 10.6633 15.3121 10.5437 15.247C10.2328 15.0775 9.90259 14.9407 9.60395 14.7524C8.20995 13.8734 7.04084 12.7405 6.00715 11.4642C5.49284 10.8293 5.03575 10.154 4.71989 9.39134C4.6673 9.26426 4.66576 9.17302 4.73628 9.07647L5.06582 8.74548C5.08153 8.72404 5.09929 8.70243 5.12234 8.68031C5.2668 8.54037 5.40988 8.39923 5.55246 8.2574C5.88559 7.92607 6.21477 7.59095 6.54554 7.25706C7.20392 6.5925 7.20257 5.81133 6.54178 5.14163C6.16699 4.76211 5.78929 4.38518 5.4128 4.00717C5.02486 3.6177 4.63998 3.22517 4.24863 2.83926C3.61464 2.21399 2.82307 2.21276 2.19043 2.83754C1.70755 3.31481 1.24023 3.8082 0.749656 4.27726C0.292914 4.71423 0.0601944 5.24366 0.0135543 5.86616C-0.0615771 6.87506 0.184645 7.82877 0.529044 8.75983C1.24106 10.6854 2.3241 12.3902 3.63444 13.9567C5.40646 16.0752 7.52512 17.7517 10.0032 18.9612C11.118 19.5054 12.2755 19.9238 13.5303 19.9927C14.3931 20.0413 15.1478 19.8223 15.7495 19.1468Z" fill="#23A4DE"/>
<path d="M10.0252 3.77404C9.84606 3.77164 9.65073 3.80697 9.48936 3.88225C9.07222 4.07656 8.87622 4.56842 8.98803 5.0589C9.08638 5.49108 9.46628 5.78967 9.94422 5.79547C11.0609 5.80919 12.0487 6.16401 12.8697 6.93234C13.7724 7.7766 14.194 8.83546 14.2375 10.0673C14.2454 10.2863 14.3273 10.5355 14.4556 10.7109C14.7233 11.0772 15.199 11.1692 15.6356 11.0019C16.0217 10.8541 16.2491 10.5069 16.2457 10.0465C16.2332 8.33017 15.6112 6.86442 14.4098 5.60132C13.2043 4.43517 11.7406 3.79841 10.0252 3.77404Z" fill="#7BC9EB"/>
<path d="M16.8548 2.71948C18.9265 4.87074 19.917 7.1761 19.9978 9.86956C20.0164 10.4888 19.6421 10.898 19.0489 10.9297C18.423 10.9632 17.9981 10.5754 17.9826 9.94328C17.9498 8.61709 17.6505 7.35658 16.9953 6.2036C15.5028 3.5766 13.2264 2.20753 10.2301 2.03569C9.89762 2.01682 9.58602 1.98201 9.35225 1.71482C9.05293 1.37285 9.02664 0.979439 9.18782 0.578997C9.35038 0.175294 9.67993 -0.00667221 10.108 0.000703532C12.0586 0.0339738 13.8583 0.579172 15.4823 1.66301C16.0431 2.03739 16.5545 2.48644 16.8548 2.71948Z" fill="#7BC9EB"/>
</g>
<defs>
<clipPath id="clip0_5917_5668">
<rect width="20" height="20" fill="white" transform="matrix(-1 0 0 1 20 0)"/>
</clipPath>
</defs>
</svg>
