<svg width="80" height="79" viewBox="0 0 80 79" fill="none" xmlns="http://www.w3.org/2000/svg">
<path d="M9 62.0322V22.9032C9 20.7564 10.6842 19 12.7426 19H67.2574C69.3158 19 71 20.7564 71 22.9032V62.0322H9Z" fill="#23A4DE"/>
<path d="M9 61V65.9667C9 68.185 10.6842 70 12.7426 70L67.2574 70C69.3158 70 71 68.185 71 65.9667V61L9 61Z" fill="#31448F"/>
<path d="M33.4599 70H46.5477L47.5213 73.454C48.0864 75.4614 50.2334 77.1031 52.2918 77.1031H48.5492C46.4908 77.1031 44.3438 75.4614 43.7787 73.454L43.3807 72.0437H32.884L33.4599 70Z" fill="#262F69"/>
<path d="M52.2457 77.1026H59.3426C59.8593 77.1026 60.2783 77.5272 60.2783 78.0513C60.2783 78.5753 59.8593 78.9999 59.3426 78.9999H20.6693C20.1526 78.9999 19.7336 78.5753 19.7336 78.0513C19.7336 77.5272 20.1526 77.1026 20.6693 77.1026H27.7472C29.7968 77.0874 31.9263 75.4515 32.4888 73.4536L32.8867 72.0435H43.3807L43.7787 73.4538C44.3438 75.4611 46.4908 77.1029 48.5493 77.1029H52.2918C52.2765 77.1029 52.2611 77.1028 52.2457 77.1026Z" fill="#262F69"/>
<path d="M37 37C37 35.8954 37.8954 35 39 35H47C48.1046 35 49 35.8954 49 37V55C49 56.1046 48.1046 57 47 57H39C37.8954 57 37 56.1046 37 55V37Z" fill="#0061A8"/>
<path d="M52 46C52 44.8954 52.8954 44 54 44H62C63.1046 44 64 44.8954 64 46V55C64 56.1046 63.1046 57 62 57H54C52.8954 57 52 56.1046 52 55V46Z" fill="#0061A8"/>
<path d="M47.0019 8.00173C44.2405 1.37522 36.6307 -1.75797 30.0047 1.00363C25.4742 2.89184 22.3937 7.17138 22.0407 12.0673C18.212 12.5969 15.5373 16.1303 16.0668 19.9595C16.546 23.4244 19.5091 26.0035 23.0065 26H47.0018C51.9713 26 56 21.9709 56 17.0009C56 12.0309 51.9715 8.00173 47.0019 8.00173Z" fill="#7BC9EB"/>
<circle cx="60" cy="20" r="8" fill="white"/>
<path d="M75.0959 17.1536C75.0959 17.1536 73.0246 16.3109 72.3912 14.7987C71.7547 13.2844 72.6046 11.2185 72.6046 11.2185C72.7885 10.7689 72.6801 10.1003 72.3632 9.73324L70.1459 7.54126C69.7761 7.22604 69.107 7.12435 68.6598 7.31181C68.6598 7.31181 66.6025 8.18099 65.083 7.55805C63.5612 6.93739 62.7028 4.87575 62.7028 4.87575C62.5161 4.42754 61.9669 4.03283 61.4826 4L58.3637 4.01262C57.8802 4.05282 57.334 4.4541 57.151 4.90424C57.151 4.90424 56.3111 6.97131 54.7969 7.60779C53.2826 8.24429 51.217 7.39616 51.217 7.39616C50.7672 7.21135 50.0998 7.32043 49.7325 7.63738L47.5395 9.85493C47.2242 10.2247 47.1217 10.894 47.31 11.3411C47.31 11.3411 48.179 13.3965 47.5579 14.9157C46.9351 16.4352 44.8755 17.2959 44.8755 17.2959C44.4274 17.4835 44.0339 18.0333 44 18.5177L44.0132 21.6347C44.0535 22.1191 44.4539 22.6645 44.904 22.8475C44.904 22.8475 46.9723 23.689 47.6059 25.2018C48.2422 26.7142 47.3923 28.7802 47.3923 28.7802C47.2084 29.2298 47.3166 29.8974 47.6347 30.2654L49.8518 32.4563C50.2209 32.7725 50.8902 32.8751 51.3373 32.6868C51.3373 32.6868 53.3959 31.821 54.9151 32.4404C56.4343 33.0614 57.2944 35.1237 57.2944 35.1237C57.482 35.5717 58.031 35.9654 58.5164 36L61.6315 35.9854C62.1159 35.945 62.6613 35.5447 62.8462 35.0943C62.8462 35.0943 63.6881 33.0287 65.2005 32.3925C66.7139 31.7561 68.7808 32.6058 68.7808 32.6058C69.2305 32.7906 69.898 32.6815 70.2652 32.3646L72.4576 30.149C72.7729 29.7801 72.8756 29.1117 72.688 28.6636C72.688 28.6636 71.8201 26.6035 72.4394 25.0845C73.062 23.5633 75.1244 22.704 75.1244 22.704C75.5717 22.5174 75.9661 21.9674 76 21.483L75.9869 18.3669C75.9463 17.882 75.5453 17.3367 75.0959 17.1536ZM65.8074 22.3712C64.4947 25.577 60.8344 27.116 57.6278 25.8044C54.4215 24.4944 52.8846 20.8312 54.1928 17.6261C55.5044 14.4188 59.1678 12.8828 62.373 14.191C65.579 15.5038 67.1158 19.1659 65.8074 22.3712Z" fill="#FFB71B"/>
<path d="M3 71.439C3.00478 73.403 4.59609 74.9952 6.55895 74.9999H24.9821C26.945 74.9952 28.5351 73.4042 28.541 71.4402V32.5609C28.5363 30.597 26.945 29.0048 24.9821 29H6.55895C4.59609 29.0048 3.00478 30.597 3 32.5609V71.439Z" fill="#7BC9EB"/>
<path d="M24.9821 74.9998H6.55895C4.59609 74.995 3.00478 73.4028 3 71.4389V66.9287C14.7352 66.9287 18.098 66.9287 28.541 66.9287V71.4401C28.5351 73.404 26.945 74.995 24.9821 74.9998Z" fill="#31448F"/>
<rect x="5.99841" y="33" width="13.9924" height="14" rx="1" fill="#EAF5FC"/>
<path d="M5.99731 56C5.99731 55.4477 6.44479 55 6.99677 55H20.9891C21.5411 55 21.9886 55.4477 21.9886 56V63C21.9886 63.5523 21.5411 64 20.9891 64H6.99677C6.44479 64 5.99731 63.5523 5.99731 63V56Z" fill="#23A4DE"/>
<rect x="5.99841" y="50" width="10.994" height="3" rx="1" fill="#23A4DE"/>
</svg>
