<svg width="80" height="80" viewBox="0 0 80 80" fill="none" xmlns="http://www.w3.org/2000/svg">
<ellipse rx="35.6376" ry="35.6309" transform="matrix(1 0 1.79901e-05 1 39.651 41.6966)" fill="var(--info-graphic-accent-color-lightest)"/>
<path d="M63.4615 66H50.4615V27H61.4615C62.5661 27 63.4615 27.8954 63.4615 29V56.8934V66Z" fill="var(--info-graphic-accent-color-darkest)"/>
<path d="M31.4482 21C30.3437 21 29.4482 21.9093 29.4482 23.0139C29.4482 24.1148 28.5558 25.0211 27.4549 25.0211C26.354 25.0211 25.4615 25.9135 25.4615 27.0144V66H53.4615V23C53.4615 21.8954 52.5661 21 51.4615 21H31.4482Z" fill="var(--info-graphic-accent-color-dark)"/>
<path d="M36.9008 29H33.4615V33.1428H36.9008V29Z" fill="var(--info-graphic-accent-color-white)"/>
<path d="M45.4615 29H42.0223V33.1428H45.4615V29Z" fill="var(--info-graphic-accent-color-white)"/>
<path d="M33.4615 37.2856H36.9008V41.4283H33.4615V37.2856Z" fill="var(--info-graphic-accent-color-white)"/>
<path d="M45.4615 37.2856H42.0223V41.4283H45.4615V37.2856Z" fill="var(--info-graphic-accent-color-white)"/>
<path d="M33.4615 45.5716H36.9008V49.7144H33.4615V45.5716Z" fill="var(--info-graphic-accent-color-white)"/>
<path d="M45.4615 45.5716H42.0223V49.7144H45.4615V45.5716Z" fill="var(--info-graphic-accent-color-white)"/>
<path d="M33.4615 53.8572H36.9008V58H33.4615V53.8572Z" fill="var(--info-graphic-accent-color-white)"/>
<path d="M45.4615 53.8572H42.0223V58H45.4615V53.8572Z" fill="var(--info-graphic-accent-color-white)"/>
<path d="M72.4867 55.5694C67.076 68.3559 54.4118 77.3275 39.6517 77.3275C27.8553 77.3275 17.3974 71.5971 10.911 62.7686C17.1649 64.5193 28.1811 61.5104 39.3554 58.4582C52.9005 54.7585 66.6779 50.9953 72.4867 55.5694Z" fill="var(--info-graphic-accent-color-light)"/>
<circle cx="61" cy="19.0001" r="6.42857" fill="var(--info-graphic-accent-color-white)"/>
<path fill-rule="evenodd" clip-rule="evenodd" d="M75.2941 15.5842L72.9884 15.0829C72.7879 14.4691 72.5395 13.8703 72.2463 13.2935L73.5228 11.308C73.7508 10.9532 73.7007 10.4874 73.4026 10.1894L69.8106 6.59735C69.5126 6.29935 69.0468 6.24922 68.692 6.47719L66.7065 7.75366C66.1297 7.46046 65.5309 7.21213 64.9171 7.01163L64.4158 4.70587C64.3263 4.29388 63.9615 4 63.5399 4H58.4601C58.0385 4 57.6737 4.29388 57.5842 4.70587L57.0829 7.01163C56.4691 7.21213 55.8703 7.46046 55.2935 7.75366L53.308 6.47719C52.9532 6.24922 52.4874 6.29935 52.1894 6.59735L48.5974 10.1894C48.2993 10.4874 48.2492 10.9532 48.4772 11.308L49.7537 13.2935C49.4605 13.8703 49.2121 14.4691 49.0116 15.0829L46.7059 15.5842C46.2939 15.6739 46 16.0385 46 16.4601V21.5399C46 21.9615 46.2939 22.3261 46.7059 22.4158L49.0116 22.9171C49.2121 23.5309 49.4605 24.1297 49.7537 24.7065L48.4772 26.692C48.2492 27.0468 48.2993 27.5126 48.5974 27.8106L52.1894 31.4026C52.4874 31.7007 52.9532 31.7508 53.308 31.5228L55.2935 30.2463C55.8703 30.5395 56.4691 30.7879 57.0829 30.9884L57.5842 33.2941C57.6737 33.7061 58.0385 34 58.4601 34H63.5399C63.9615 34 64.3263 33.7061 64.4158 33.2941L64.9171 30.9884C65.5309 30.7879 66.1297 30.5395 66.7065 30.2463L68.692 31.5228C69.0468 31.7508 69.5126 31.7009 69.8106 31.4026L73.4026 27.8106C73.7007 27.5126 73.7508 27.0468 73.5228 26.692L72.2463 24.7065C72.5395 24.1297 72.7879 23.5309 72.9884 22.9171L75.2941 22.4158C75.7061 22.3261 76 21.9615 76 21.5399V16.4601C76 16.0385 75.7061 15.6739 75.2941 15.5842ZM61 25C64.3137 25 67 22.3137 67 19C67 15.6863 64.3137 13 61 13C57.6863 13 55 15.6863 55 19C55 22.3137 57.6863 25 61 25Z" fill="var(--info-graphic-accent-color-bright)"/>
<path d="M43.4615 75C43.4615 76.1046 44.357 77 45.4615 77H69.4615C70.5661 77 71.4615 76.1046 71.4615 75V55.4572L57.4615 45L43.4615 55.4572V75Z" fill="var(--info-graphic-accent-color-lightest)"/>
<path d="M73.4539 59C75.259 59 76.14 56.7096 74.8329 55.4152L58.8365 39.5736C58.0643 38.8088 56.8508 38.8088 56.0785 39.5736L40.0821 55.4152C38.775 56.7096 39.6561 59 41.4611 59H73.4539Z" fill="var(--info-graphic-accent-color-light)"/>
<path d="M52.4615 63H62.4615C63.5661 63 64.4615 63.8954 64.4615 65V77H50.4615V65C50.4615 63.8954 51.357 63 52.4615 63Z" fill="var(--info-graphic-accent-color-white)"/>
<path d="M54.4615 66H60.4615C61.0138 66 61.4615 66.4477 61.4615 67V77H53.4615V67C53.4615 66.4477 53.9093 66 54.4615 66Z" fill="var(--info-graphic-accent-color-light)"/>
<path d="M20.9243 18.367V17.2248C20.9232 15.8219 20.4126 14.5094 19.4848 13.5305C18.5361 12.5296 17.2844 11.9875 15.9766 12.0002C13.3238 11.9863 11.0048 14.4353 11.018 17.2271L11.018 18.3693L20.9243 18.367Z" fill="var(--info-graphic-accent-color-dark)"/>
<path d="M11.0756 50.9604L15.2682 59.4235C15.4442 59.7777 15.7925 60.001 16.1725 60C16.4467 60.001 16.7055 59.8843 16.894 59.6854C16.9662 59.6092 17.0278 59.5219 17.0778 59.4225L21.2695 50.9604L11.0756 50.9604Z" fill="var(--info-graphic-accent-color-darkest)"/>
<path d="M8.19338 36.8938L8.19338 26.5339C8.19338 25.886 8.31499 25.6188 8.42896 25.4937C8.53002 25.3827 8.78749 25.2072 9.48398 25.183L9.4924 49.5242C9.49269 50.3383 10.1182 50.998 10.8898 50.9981L21.0534 50.999C21.8251 50.9991 22.4508 50.3393 22.4511 49.5251L22.4616 19.2694C22.4616 18.9427 22.3386 18.6299 22.1201 18.3994C21.9027 18.17 21.6062 18.0403 21.2966 18.0403L10.6458 18.0403C10.3373 18.0391 10.0408 18.1689 9.82232 18.3994L9.82122 18.4006C9.60272 18.6311 9.48084 18.945 9.48194 19.2729L9.48224 20.146C7.30052 20.1797 5.85105 20.8751 4.98396 22.0499C4.13119 23.2054 4.00058 24.6231 4 25.6783L4 36.8972C4 38.1189 4.93869 39.1093 6.09669 39.1093L6.09987 39.1093C6.67333 39.1072 7.19835 38.8639 7.58011 38.4611C7.95748 38.063 8.19486 37.5088 8.19338 36.8958L8.19338 36.8938Z" fill="var(--info-graphic-accent-color-light)"/>
</svg>
