<svg width="80" height="80" viewBox="0 0 80 80" fill="none" xmlns="http://www.w3.org/2000/svg">
<mask id="mask0_5925_7250" style="mask-type:alpha" maskUnits="userSpaceOnUse" x="4" y="8" width="72" height="72">
<ellipse rx="35.6366" ry="35.63" transform="matrix(1 0 1.78378e-05 1 39.6373 43.6959)" fill="#C4C4C4"/>
</mask>
<g mask="url(#mask0_5925_7250)">
<rect width="84.8648" height="77.7189" transform="matrix(1 0 1.78303e-05 1 0.0797119 4.60986)" fill="#7BC9EB"/>
<rect x="-3.55103" y="69" width="82" height="17" fill="#0061A8"/>
</g>
<path fill-rule="evenodd" clip-rule="evenodd" d="M54.449 0.499512V28.4995H61.449V66.4995H39.449V28.4995V0.499512H54.449Z" fill="#7BC9EB"/>
<rect x="33.949" y="59.9995" width="15" height="45.5" transform="rotate(-180 33.949 59.9995)" fill="white"/>
<path fill-rule="evenodd" clip-rule="evenodd" d="M36.449 69.0619H65.2545C65.6185 69.0619 65.9093 68.771 65.9093 68.407V66.1512C65.9093 65.7867 65.6183 65.4963 65.2543 65.4963H63.3623V29.3277C63.3623 28.1632 62.4161 27.29 61.3246 27.29H56.5214V2.03743C56.5214 0.872926 55.5752 -0.000244141 54.4837 -0.000244141H39.7834C38.6189 -0.000244141 37.7457 0.945973 37.7457 2.03743V65.4235H36.449V69.0619ZM56.303 31.5838C55.939 31.5838 55.6481 31.8746 55.6481 32.2386V34.2763C55.6481 34.6403 55.939 34.9311 56.303 34.9311H58.3406C58.7046 34.9311 58.9955 34.6403 58.9955 34.2763V32.2386C58.9955 31.8746 58.7046 31.5838 58.3406 31.5838H56.303ZM56.303 38.4246C55.939 38.4246 55.6481 38.7155 55.6481 39.0795V41.1172C55.6481 41.4811 55.939 41.772 56.303 41.772H58.3406C58.7046 41.772 58.9955 41.4811 58.9955 41.1172V39.0795C58.9955 38.7155 58.7046 38.4246 58.3406 38.4246H56.303ZM56.303 45.2655C55.939 45.2655 55.6481 45.5564 55.6481 45.9204V47.958C55.6481 48.322 55.939 48.6129 56.303 48.6129H58.3406C58.7046 48.6129 58.9955 48.322 58.9955 47.958V45.9204C58.9955 45.5564 58.7046 45.2655 58.3406 45.2655H56.303ZM56.303 52.1064C55.939 52.1064 55.6481 52.3973 55.6481 52.7612V54.7989C55.6481 55.1629 55.939 55.4538 56.303 55.4538H58.3406C58.7046 55.4538 58.9955 55.1629 58.9955 54.7989V52.7612C58.9955 52.3973 58.7046 52.1064 58.3406 52.1064H56.303ZM55.6481 59.529C55.6481 59.165 55.3573 58.8741 54.9933 58.8741L54.9933 58.8015L51.2089 58.801V65.4235H55.6481V59.529ZM49.5347 4.2938C49.1708 4.2938 48.8799 4.58467 48.8799 4.94864L48.8804 6.98631C48.8804 7.35029 49.1713 7.64116 49.5352 7.64116H51.5729C51.9369 7.64116 52.2278 7.35029 52.2278 6.98631V4.94864C52.2278 4.58467 51.9369 4.2938 51.5729 4.2938H49.5347ZM49.5347 11.1347C49.1708 11.1347 48.8799 11.4255 48.8799 11.7895L48.8804 13.8272C48.8804 14.1912 49.1713 14.482 49.5352 14.482H51.5729C51.9369 14.482 52.2278 14.1912 52.2278 13.8272V11.7895C52.2278 11.4255 51.9369 11.1347 51.5729 11.1347H49.5347ZM49.5347 17.9756C49.1708 17.9756 48.8799 18.2664 48.8799 18.6304L48.8804 20.6681C48.8804 21.032 49.1713 21.3229 49.5352 21.3229H51.5729C51.9369 21.3229 52.2278 21.032 52.2278 20.6681V18.6304C52.2278 18.2664 51.9369 17.9756 51.5729 17.9756H49.5347ZM49.5347 24.8164C49.1708 24.8164 48.8799 25.1073 48.8799 25.4713L48.8804 27.509C48.8804 27.8729 49.1713 28.1638 49.5352 28.1638H51.5729C51.9369 28.1638 52.2278 27.8729 52.2278 27.509V25.4713C52.2278 25.1073 51.9369 24.8164 51.5729 24.8164H49.5347ZM49.5347 31.5842C49.1708 31.5842 48.8799 31.875 48.8799 32.239L48.8804 34.2767C48.8804 34.6406 49.1713 34.9315 49.5352 34.9315H51.5729C51.9369 34.9315 52.2278 34.6406 52.2278 34.2767V32.239C52.2278 31.875 51.9369 31.5842 51.5729 31.5842H49.5347ZM49.5347 38.425C49.1708 38.425 48.8799 38.7159 48.8799 39.0799L48.8804 41.1175C48.8804 41.4815 49.1713 41.7724 49.5352 41.7724H51.5729C51.9369 41.7724 52.2278 41.4815 52.2278 41.1175V39.0799C52.2278 38.7159 51.9369 38.425 51.5729 38.425H49.5347ZM49.5347 45.2659C49.1708 45.2659 48.8799 45.5568 48.8799 45.9208L48.8804 47.9584C48.8804 48.3224 49.1713 48.6133 49.5352 48.6133H51.5729C51.9369 48.6133 52.2278 48.3224 52.2278 47.9584V45.9208C52.2278 45.5568 51.9369 45.2659 51.5729 45.2659H49.5347ZM49.5347 52.1068C49.1708 52.1068 48.8799 52.3977 48.8799 52.7616L48.8804 54.7993C48.8804 55.1633 49.1713 55.4542 49.5352 55.4542H51.5729C51.9369 55.4542 52.2278 55.1633 52.2278 54.7993V52.7616C52.2278 52.3977 51.9369 52.1068 51.5729 52.1068H49.5347ZM42.6938 4.29431C42.3299 4.29431 42.039 4.58519 42.039 4.94916V6.98683C42.039 7.35081 42.3299 7.64168 42.6938 7.64168H44.7315C45.0955 7.64168 45.3864 7.35081 45.3864 6.98683V4.94916C45.3864 4.58519 45.0955 4.29431 44.7315 4.29431H42.6938ZM42.6938 11.1352C42.3299 11.1352 42.039 11.4261 42.039 11.79V13.8277C42.039 14.1917 42.3299 14.4826 42.6938 14.4826H44.7315C45.0955 14.4826 45.3864 14.1917 45.3864 13.8277V11.79C45.3864 11.4261 45.0955 11.1352 44.7315 11.1352H42.6938ZM42.6938 17.9761C42.3299 17.9761 42.039 18.2669 42.039 18.6309V20.6686C42.039 21.0326 42.3299 21.3234 42.6938 21.3234H44.7315C45.0955 21.3234 45.3864 21.0326 45.3864 20.6686V18.6309C45.3864 18.2669 45.0955 17.9761 44.7315 17.9761H42.6938ZM42.6938 24.817C42.3299 24.817 42.039 25.1078 42.039 25.4718V27.5095C42.039 27.8734 42.3299 28.1643 42.6938 28.1643H44.7315C45.0955 28.1643 45.3864 27.8734 45.3864 27.5095V25.4718C45.3864 25.1078 45.0955 24.817 44.7315 24.817H42.6938ZM42.6938 31.5847C42.3299 31.5847 42.039 31.8755 42.039 32.2395V34.2772C42.039 34.6412 42.3299 34.932 42.6938 34.932H44.7315C45.0955 34.932 45.3864 34.6412 45.3864 34.2772V32.2395C45.3864 31.8755 45.0955 31.5847 44.7315 31.5847H42.6938ZM42.6938 38.4256C42.3299 38.4256 42.039 38.7164 42.039 39.0804L42.0395 41.1181C42.0395 41.482 42.3304 41.7729 42.6944 41.7729H44.732C45.096 41.7729 45.3869 41.482 45.3869 41.1181L45.3864 39.0804C45.3864 38.7164 45.0955 38.4256 44.7315 38.4256H42.6938ZM42.6938 45.2664C42.3299 45.2664 42.039 45.5573 42.039 45.9213V47.959C42.039 48.3229 42.3299 48.6138 42.6938 48.6138H44.7315C45.0955 48.6138 45.3864 48.3229 45.3864 47.959V45.9213C45.3864 45.5573 45.0955 45.2664 44.7315 45.2664H42.6938ZM42.6938 52.1073C42.3299 52.1073 42.039 52.3982 42.039 52.7622V54.7998C42.039 55.1638 42.3299 55.4547 42.6938 55.4547H44.7315C45.0955 55.4547 45.3864 55.1638 45.3864 54.7998V52.7622C45.3864 52.3982 45.0955 52.1073 44.7315 52.1073H42.6938ZM46.1142 58.9482C45.7502 58.9482 45.4594 59.2391 45.4594 59.603L45.4594 65.5707H49.8986V58.9482H46.1142Z" fill="#31448F"/>
<path fill-rule="evenodd" clip-rule="evenodd" d="M55.0057 69.0618H65.2545C65.6185 69.0618 65.9094 68.7709 65.9094 68.4069V66.1511C65.9094 65.7866 65.6183 65.4962 65.2543 65.4962H63.3624V29.3276C63.3624 28.1631 62.4161 27.2899 61.3247 27.2899H56.5215C58.3407 27.2899 47.949 27.2899 56.5215 27.2899L56.3024 65.4234H55.0057V69.0618ZM56.303 31.5837C55.9391 31.5837 55.6482 31.8745 55.6482 32.2385V34.2762C55.6482 34.6402 55.9391 34.931 56.303 34.931H58.3407C58.7047 34.931 58.9956 34.6402 58.9956 34.2762V32.2385C58.9956 31.8745 58.7047 31.5837 58.3407 31.5837H56.303ZM56.303 38.4245C55.9391 38.4245 55.6482 38.7154 55.6482 39.0794V41.1171C55.6482 41.481 55.9391 41.7719 56.303 41.7719H58.3407C58.7047 41.7719 58.9956 41.481 58.9956 41.1171V39.0794C58.9956 38.7154 58.7047 38.4245 58.3407 38.4245H56.303ZM56.303 45.2654C55.9391 45.2654 55.6482 45.5563 55.6482 45.9203V47.9579C55.6482 48.3219 55.9391 48.6128 56.303 48.6128H58.3407C58.7047 48.6128 58.9956 48.3219 58.9956 47.9579V45.9203C58.9956 45.5563 58.7047 45.2654 58.3407 45.2654H56.303ZM56.303 52.1063C55.9391 52.1063 55.6482 52.3972 55.6482 52.7612V54.7988C55.6482 55.1628 55.9391 55.4537 56.303 55.4537H58.3407C58.7047 55.4537 58.9956 55.1628 58.9956 54.7988V52.7612C58.9956 52.3972 58.7047 52.1063 58.3407 52.1063H56.303ZM55.6482 59.5289C55.6482 59.1649 55.3573 58.874 54.9933 58.874L54.9934 58.8014L51.209 58.8009V65.4234H55.6482V59.5289ZM49.5348 4.2937C49.1708 4.2937 48.8799 4.58458 48.8799 4.94855L48.8805 6.98622C48.8805 7.35019 49.1713 7.64107 49.5353 7.64107H51.573C51.937 7.64107 52.2278 7.35019 52.2278 6.98622V4.94855C52.2278 4.58458 51.937 4.2937 51.573 4.2937H49.5348ZM49.5348 11.1346C49.1708 11.1346 48.8799 11.4255 48.8799 11.7894L48.8805 13.8271C48.8805 14.1911 49.1713 14.4819 49.5353 14.4819H51.573C51.937 14.4819 52.2278 14.1911 52.2278 13.8271V11.7894C52.2278 11.4255 51.937 11.1346 51.573 11.1346H49.5348ZM49.5348 17.9755C49.1708 17.9755 48.8799 18.2663 48.8799 18.6303L48.8805 20.668C48.8805 21.032 49.1713 21.3228 49.5353 21.3228H51.573C51.937 21.3228 52.2278 21.032 52.2278 20.668V18.6303C52.2278 18.2663 51.937 17.9755 51.573 17.9755H49.5348ZM49.5348 24.8163C49.1708 24.8163 48.8799 25.1072 48.8799 25.4712L48.8805 27.5089C48.8805 27.8728 49.1713 28.1637 49.5353 28.1637H51.573C51.937 28.1637 52.2278 27.8728 52.2278 27.5089V25.4712C52.2278 25.1072 51.937 24.8163 51.573 24.8163H49.5348ZM49.5348 31.5841C49.1708 31.5841 48.8799 31.8749 48.8799 32.2389L48.8805 34.2766C48.8805 34.6405 49.1713 34.9314 49.5353 34.9314H51.573C51.937 34.9314 52.2278 34.6405 52.2278 34.2766V32.2389C52.2278 31.8749 51.937 31.5841 51.573 31.5841H49.5348ZM49.5348 38.4249C49.1708 38.4249 48.8799 38.7158 48.8799 39.0798L48.8805 41.1175C48.8805 41.4814 49.1713 41.7723 49.5353 41.7723H51.573C51.937 41.7723 52.2278 41.4814 52.2278 41.1175V39.0798C52.2278 38.7158 51.937 38.4249 51.573 38.4249H49.5348ZM49.5348 45.2658C49.1708 45.2658 48.8799 45.5567 48.8799 45.9207L48.8805 47.9583C48.8805 48.3223 49.1713 48.6132 49.5353 48.6132H51.573C51.937 48.6132 52.2278 48.3223 52.2278 47.9583V45.9207C52.2278 45.5567 51.937 45.2658 51.573 45.2658H49.5348ZM49.5348 52.1067C49.1708 52.1067 48.8799 52.3976 48.8799 52.7615L48.8805 54.7992C48.8805 55.1632 49.1713 55.4541 49.5353 55.4541H51.573C51.937 55.4541 52.2278 55.1632 52.2278 54.7992V52.7615C52.2278 52.3976 51.937 52.1067 51.573 52.1067H49.5348ZM42.6939 4.29422C42.3299 4.29422 42.0391 4.5851 42.0391 4.94907V6.98674C42.0391 7.35071 42.3299 7.64159 42.6939 7.64159H44.7316C45.0956 7.64159 45.3864 7.35071 45.3864 6.98674V4.94907C45.3864 4.5851 45.0956 4.29422 44.7316 4.29422H42.6939ZM42.6939 11.1351C42.3299 11.1351 42.0391 11.426 42.0391 11.7899V13.8276C42.0391 14.1916 42.3299 14.4825 42.6939 14.4825H44.7316C45.0956 14.4825 45.3864 14.1916 45.3864 13.8276V11.7899C45.3864 11.426 45.0956 11.1351 44.7316 11.1351H42.6939ZM42.6939 17.976C42.3299 17.976 42.0391 18.2669 42.0391 18.6308V20.6685C42.0391 21.0325 42.3299 21.3233 42.6939 21.3233H44.7316C45.0956 21.3233 45.3864 21.0325 45.3864 20.6685V18.6308C45.3864 18.2669 45.0956 17.976 44.7316 17.976H42.6939ZM42.6939 24.8169C42.3299 24.8169 42.0391 25.1077 42.0391 25.4717V27.5094C42.0391 27.8734 42.3299 28.1642 42.6939 28.1642H44.7316C45.0956 28.1642 45.3864 27.8734 45.3864 27.5094V25.4717C45.3864 25.1077 45.0956 24.8169 44.7316 24.8169H42.6939ZM42.6939 31.5846C42.3299 31.5846 42.0391 31.8755 42.0391 32.2394V34.2771C42.0391 34.6411 42.3299 34.9319 42.6939 34.9319H44.7316C45.0956 34.9319 45.3864 34.6411 45.3864 34.2771V32.2394C45.3864 31.8755 45.0956 31.5846 44.7316 31.5846H42.6939ZM42.6939 38.4255C42.3299 38.4255 42.0391 38.7163 42.0391 39.0803L42.0396 41.118C42.0396 41.4819 42.3304 41.7728 42.6944 41.7728H44.7321C45.0961 41.7728 45.3869 41.4819 45.3869 41.118L45.3864 39.0803C45.3864 38.7163 45.0956 38.4255 44.7316 38.4255H42.6939ZM42.6939 45.2663C42.3299 45.2663 42.0391 45.5572 42.0391 45.9212V47.9589C42.0391 48.3228 42.3299 48.6137 42.6939 48.6137H44.7316C45.0956 48.6137 45.3864 48.3228 45.3864 47.9589V45.9212C45.3864 45.5572 45.0956 45.2663 44.7316 45.2663H42.6939ZM42.6939 52.1072C42.3299 52.1072 42.0391 52.3981 42.0391 52.7621V54.7997C42.0391 55.1637 42.3299 55.4546 42.6939 55.4546H44.7316C45.0956 55.4546 45.3864 55.1637 45.3864 54.7997V52.7621C45.3864 52.3981 45.0956 52.1072 44.7316 52.1072H42.6939ZM46.1143 58.9481C45.7503 58.9481 45.4594 59.239 45.4594 59.6029L45.4594 65.5707H49.8987V58.9481H46.1143Z" fill="#262F69"/>
<path fill-rule="evenodd" clip-rule="evenodd" d="M56.303 31.5837C55.9391 31.5837 55.6482 31.8746 55.6482 32.2386V34.2763C55.6482 34.6402 55.9391 34.9311 56.303 34.9311H58.3407C58.7047 34.9311 58.9956 34.6402 58.9956 34.2763V32.2386C58.9956 31.8746 58.7047 31.5837 58.3407 31.5837H56.303ZM56.303 38.4246C55.9391 38.4246 55.6482 38.7155 55.6482 39.0795V41.1171C55.6482 41.4811 55.9391 41.772 56.303 41.772H58.3407C58.7047 41.772 58.9956 41.4811 58.9956 41.1171V39.0795C58.9956 38.7155 58.7047 38.4246 58.3407 38.4246H56.303ZM56.303 45.2655C55.9391 45.2655 55.6482 45.5564 55.6482 45.9203V47.958C55.6482 48.322 55.9391 48.6129 56.303 48.6129H58.3407C58.7047 48.6129 58.9956 48.322 58.9956 47.958V45.9203C58.9956 45.5564 58.7047 45.2655 58.3407 45.2655H56.303ZM56.303 52.1064C55.9391 52.1064 55.6482 52.3973 55.6482 52.7612V54.7989C55.6482 55.1629 55.9391 55.4537 56.303 55.4537H58.3407C58.7047 55.4537 58.9956 55.1629 58.9956 54.7989V52.7612C58.9956 52.3973 58.7047 52.1064 58.3407 52.1064H56.303ZM55.6482 59.529C55.6482 59.165 55.3573 58.8741 54.9933 58.8741L54.9934 58.8015L51.209 58.801V65.4235H55.6482V59.529ZM49.5348 31.5841C49.1708 31.5841 48.8799 31.875 48.8799 32.239L48.8805 34.2766C48.8805 34.6406 49.1713 34.9315 49.5353 34.9315H51.573C51.937 34.9315 52.2278 34.6406 52.2278 34.2766V32.239C52.2278 31.875 51.937 31.5841 51.573 31.5841H49.5348ZM49.5348 38.425C49.1708 38.425 48.8799 38.7159 48.8799 39.0799L48.8805 41.1175C48.8805 41.4815 49.1713 41.7724 49.5353 41.7724H51.573C51.937 41.7724 52.2278 41.4815 52.2278 41.1175V39.0799C52.2278 38.7159 51.937 38.425 51.573 38.425H49.5348ZM49.5348 45.2659C49.1708 45.2659 48.8799 45.5568 48.8799 45.9207L48.8805 47.9584C48.8805 48.3224 49.1713 48.6133 49.5353 48.6133H51.573C51.937 48.6133 52.2278 48.3224 52.2278 47.9584V45.9207C52.2278 45.5568 51.937 45.2659 51.573 45.2659H49.5348ZM49.5348 52.1068C49.1708 52.1068 48.8799 52.3976 48.8799 52.7616L48.8805 54.7993C48.8805 55.1633 49.1713 55.4541 49.5353 55.4541H51.573C51.937 55.4541 52.2278 55.1633 52.2278 54.7993V52.7616C52.2278 52.3976 51.937 52.1068 51.573 52.1068H49.5348ZM42.6939 31.5847C42.3299 31.5847 42.0391 31.8755 42.0391 32.2395V34.2772C42.0391 34.6411 42.3299 34.932 42.6939 34.932H44.7316C45.0956 34.932 45.3864 34.6411 45.3864 34.2772V32.2395C45.3864 31.8755 45.0956 31.5847 44.7316 31.5847H42.6939ZM42.6939 38.4255C42.3299 38.4255 42.0391 38.7164 42.0391 39.0804L42.0396 41.118C42.0396 41.482 42.3304 41.7729 42.6944 41.7729H44.7321C45.0961 41.7729 45.3869 41.482 45.3869 41.118L45.3864 39.0804C45.3864 38.7164 45.0956 38.4255 44.7316 38.4255H42.6939ZM42.6939 45.2664C42.3299 45.2664 42.0391 45.5573 42.0391 45.9213V47.9589C42.0391 48.3229 42.3299 48.6138 42.6939 48.6138H44.7316C45.0956 48.6138 45.3864 48.3229 45.3864 47.9589V45.9213C45.3864 45.5573 45.0956 45.2664 44.7316 45.2664H42.6939ZM42.6939 52.1073C42.3299 52.1073 42.0391 52.3982 42.0391 52.7621V54.7998C42.0391 55.1638 42.3299 55.4547 42.6939 55.4547H44.7316C45.0956 55.4547 45.3864 55.1638 45.3864 54.7998V52.7621C45.3864 52.3982 45.0956 52.1073 44.7316 52.1073H42.6939ZM46.1143 58.9482C45.7503 58.9482 45.4594 59.239 45.4594 59.603L45.4594 65.5707H49.8987V58.9482H46.1143Z" fill="#EAF5FC"/>
<path fill-rule="evenodd" clip-rule="evenodd" d="M36.449 65.4235H35.2716V9.6059C35.2716 8.4414 34.1802 7.64088 33.0882 7.93223L17.7329 12.3714C17.005 12.5897 16.4958 13.2446 16.4958 14.0451V65.4963H14.6038C14.2399 65.4963 13.949 65.7872 13.949 66.1511V68.407C13.949 68.771 14.2399 69.0618 14.6038 69.0618H36.449V65.4235ZM21.1534 17.0287C20.9351 17.0287 20.7894 17.1744 20.7894 17.3927H20.7168V19.2847C20.7168 19.503 20.8625 19.6487 21.0807 19.6487H30.6866C30.9049 19.6487 31.0506 19.503 31.0506 19.2847V17.3927C31.0506 17.1744 30.9049 17.0287 30.6866 17.0287H21.1534ZM21.1534 22.9965C20.9351 22.9965 20.7894 23.1422 20.7894 23.3604H20.7168V25.2524C20.7168 25.4707 20.8625 25.6164 21.0807 25.6164H30.6866C30.9049 25.6164 31.0506 25.4707 31.0506 25.2524V23.3604C31.0506 23.1422 30.9049 22.9965 30.6866 22.9965H21.1534ZM21.1534 28.9637C20.9351 28.9637 20.7894 29.1094 20.7894 29.3276H20.7168V31.2196C20.7168 31.4379 20.8625 31.5836 21.0807 31.5836H30.6866C30.9049 31.5836 31.0506 31.4379 31.0506 31.2196V29.3276C31.0506 29.1094 30.9049 28.9637 30.6866 28.9637H21.1534ZM21.1534 34.9314C20.9351 34.9314 20.7894 35.0771 20.7894 35.2954H20.7168V37.1874C20.7168 37.4056 20.8625 37.5513 21.0807 37.5513H30.6866C30.9049 37.5513 31.0506 37.4056 31.0506 37.1874V35.2954C31.0506 35.0771 30.9049 34.9314 30.6866 34.9314H21.1534ZM21.1534 40.8986C20.9351 40.8986 20.7894 41.0443 20.7894 41.2626H20.7168V43.1546C20.7168 43.3728 20.8625 43.5185 21.0807 43.5185H30.6866C30.9049 43.5185 31.0506 43.3728 31.0506 43.1546V41.2626C31.0506 41.0443 30.9049 40.8986 30.6866 40.8986H21.1534ZM21.1534 46.9388C20.9351 46.9388 20.7894 47.0845 20.7894 47.3028H20.7168V49.1222C20.7168 49.3404 20.8625 49.4861 21.0807 49.4861H30.6866C30.9049 49.4861 31.0506 49.3404 31.0506 49.1222V47.3028C31.0506 47.0845 30.9049 46.9388 30.6866 46.9388H21.1534ZM21.1534 52.9066C20.9351 52.9066 20.7894 53.0522 20.7894 53.2705H20.7168V55.1625C20.7168 55.3808 20.8625 55.5265 21.0807 55.5265H30.6866C30.9049 55.5265 31.0506 55.3808 31.0506 55.1625V53.2705C31.0506 53.0522 30.9049 52.9066 30.6866 52.9066H21.1534ZM21.1534 58.8738C20.9351 58.8738 20.7894 59.0194 20.7894 59.2377H20.7168V61.1297C20.7168 61.348 20.8625 61.4937 21.0807 61.4937H30.6866C30.9049 61.4937 31.0506 61.348 31.0506 61.1297V59.2377C31.0506 59.0194 30.9049 58.8738 30.6866 58.8738H21.1534Z" fill="#23A4DE"/>
<path d="M44.004 77C44.004 78.1046 44.8995 79 46.004 79H70.004C71.1086 79 72.004 78.1046 72.004 77V57.4572L58.004 47L44.004 57.4572V77Z" fill="#7BC9EB"/>
<path d="M73.9964 61C75.8014 61 76.6825 58.7096 75.3754 57.4152L59.379 41.5736C58.6068 40.8088 57.3932 40.8088 56.621 41.5736L40.6246 57.4152C39.3175 58.7096 40.1986 61 42.0036 61H73.9964Z" fill="#0061A8"/>
<path d="M53.004 65H63.004C64.1086 65 65.004 65.8954 65.004 67V79H51.004V67C51.004 65.8954 51.8995 65 53.004 65Z" fill="#EAF5FC"/>
<path d="M55.004 68H61.004C61.5563 68 62.004 68.4477 62.004 69V79H54.004V69C54.004 68.4477 54.4517 68 55.004 68Z" fill="#0061A8"/>
<path d="M71.4712 4H48.5287C46.0319 4 44 6.08286 44 8.64303V23.357C44 25.9171 46.0319 28 48.5287 28H71.4712C73.9681 28 76 25.9171 76 23.357V8.64303C76 6.08286 73.9681 4 71.4712 4Z" fill="white"/>
<path d="M71.4705 4H64.9814C62.4845 4 60.4526 6.08286 60.4526 8.64303L55.7208 23.357C55.7208 25.9171 57.7527 28 60.2496 28H71.4705C73.9673 28 75.9992 25.9171 75.9992 23.357V8.64303C75.9992 6.08286 73.9673 4 71.4705 4Z" fill="white"/>
<path d="M71.4712 4H48.5287C46.0319 4 44 6.08286 44 8.64303V23.357C44 25.9171 46.0319 28 48.5287 28H71.4712C73.9681 28 76 25.9171 76 23.357V8.64303C76 6.08286 73.9681 4 71.4712 4ZM55.6131 11.3864L50.8488 16.2704L55.0856 20.6136C55.4519 20.989 55.4519 21.5977 55.0856 21.9725C54.72 22.3479 54.1263 22.3479 53.76 21.9725L48.86 16.9495C48.4938 16.5741 48.4938 15.966 48.86 15.5906L54.2869 10.0275C54.6531 9.65211 55.2469 9.65211 55.6131 10.0275C55.9788 10.4023 55.9788 11.011 55.6131 11.3864ZM63.808 9.12547L58.8505 23.5146C58.678 24.0156 58.1424 24.2776 57.6543 24.1008C57.1661 23.924 56.9099 23.3749 57.0824 22.8745L62.0399 8.48542C62.2124 7.98505 62.7474 7.72237 63.2361 7.8992C63.7243 8.07603 63.9805 8.62509 63.808 9.12547ZM71.14 16.4094L65.7131 21.9725C65.3469 22.3479 64.7531 22.3479 64.3869 21.9725C64.0212 21.5977 64.0212 20.989 64.3869 20.6136L69.1513 15.7296L64.9144 11.3864C64.5481 11.011 64.5481 10.4023 64.9144 10.0275C65.28 9.65211 65.8737 9.65211 66.24 10.0275L71.14 15.0505C71.5062 15.4259 71.5062 16.034 71.14 16.4094Z" fill="#FFB71B"/>
</svg>
