<svg width="64" height="64" viewBox="0 0 64 64" fill="none" xmlns="http://www.w3.org/2000/svg">
<rect width="64" height="64" fill="white"/>
<mask id="mask0_7989_92547" style="mask-type:alpha" maskUnits="userSpaceOnUse" x="3" y="6" width="58" height="58">
<ellipse rx="28.5101" ry="28.5047" transform="matrix(0.998843 -0.0480906 0.0481086 0.998842 32.1511 34.9571)" fill="#C4C4C4"/>
</mask>
<g mask="url(#mask0_7989_92547)">
<rect width="67.8919" height="62.1751" transform="matrix(0.998843 -0.0480906 0.0481086 0.998842 -0.962891 5.24609)" fill="#F2F2F2"/>
<rect x="-1.59961" y="49.5996" width="66" height="16" fill="#0061A8"/>
</g>
<path fill-rule="evenodd" clip-rule="evenodd" d="M44 0.399902V22.7999H49.6V53.1999H32V22.7999V0.399902H44Z" fill="#7BC9EB"/>
<rect x="27.5996" y="47.9995" width="12" height="36.4" transform="rotate(-180 27.5996 47.9995)" fill="#F2F2F2"/>
<path d="M52.6458 52.3967H51.1322V23.4618C51.1322 22.5302 50.3753 21.8317 49.5021 21.8317H45.6595V1.62965C45.6595 0.698048 44.9026 -0.000488281 44.0294 -0.000488281H32.2691C31.3375 -0.000488281 30.639 0.756486 30.639 1.62965V52.3385H28.6596V7.68444C28.6596 6.75284 27.7865 6.11242 26.913 6.3455L14.6287 9.89687C14.0464 10.0715 13.639 10.5954 13.639 11.2358V52.3967H12.1254C11.8343 52.3967 11.6016 52.6295 11.6016 52.9206V54.7253C11.6016 55.0165 11.8343 55.2492 12.1254 55.2492H52.646C52.9372 55.2492 53.1699 55.0165 53.1699 54.7253V52.9206C53.1699 52.629 52.9368 52.3963 52.6456 52.3963L52.6458 52.3967ZM17.0739 13.9139C17.0739 13.7393 17.1905 13.6227 17.3651 13.6227H24.9917C25.1663 13.6227 25.2829 13.7393 25.2829 13.9139V15.4275C25.2829 15.6021 25.1663 15.7187 24.9917 15.7187H17.307C17.1324 15.7187 17.0158 15.6021 17.0158 15.4275V13.9139H17.0739ZM17.0739 18.6881C17.0739 18.5134 17.1905 18.3969 17.3651 18.3969H24.9917C25.1663 18.3969 25.2829 18.5134 25.2829 18.6881V20.2017C25.2829 20.3763 25.1663 20.4928 24.9917 20.4928H17.307C17.1324 20.4928 17.0158 20.3763 17.0158 20.2017V18.6881H17.0739ZM17.0739 23.4618C17.0739 23.2872 17.1905 23.1707 17.3651 23.1707H24.9917C25.1663 23.1707 25.2829 23.2872 25.2829 23.4618V24.9754C25.2829 25.15 25.1663 25.2666 24.9917 25.2666H17.307C17.1324 25.2666 17.0158 25.15 17.0158 24.9754V23.4618H17.0739ZM17.0739 28.236C17.0739 28.0614 17.1905 27.9448 17.3651 27.9448H24.9917C25.1663 27.9448 25.2829 28.0614 25.2829 28.236V29.7496C25.2829 29.9242 25.1663 30.0408 24.9917 30.0408H17.307C17.1324 30.0408 17.0158 29.9242 17.0158 29.7496V28.236H17.0739ZM17.0739 33.0098C17.0739 32.8351 17.1905 32.7186 17.3651 32.7186H24.9917C25.1663 32.7186 25.2829 32.8351 25.2829 33.0098V34.5234C25.2829 34.698 25.1663 34.8145 24.9917 34.8145H17.307C17.1324 34.8145 17.0158 34.698 17.0158 34.5234V33.0098H17.0739ZM17.0739 37.842C17.0739 37.6673 17.1905 37.5508 17.3651 37.5508H24.9917C25.1663 37.5508 25.2829 37.6673 25.2829 37.842V39.2974C25.2829 39.4721 25.1663 39.5886 24.9917 39.5886H17.307C17.1324 39.5886 17.0158 39.4721 17.0158 39.2974V37.842H17.0739ZM17.0739 42.6161C17.0739 42.4415 17.1905 42.325 17.3651 42.325H24.9917C25.1663 42.325 25.2829 42.4415 25.2829 42.6161V44.1297C25.2829 44.3044 25.1663 44.4209 24.9917 44.4209H17.307C17.1324 44.4209 17.0158 44.3044 17.0158 44.1297V42.6161H17.0739ZM17.0739 47.3899C17.0739 47.2153 17.1905 47.0987 17.3651 47.0987H24.9917C25.1663 47.0987 25.2829 47.2153 25.2829 47.3899V48.9035C25.2829 49.0781 25.1663 49.1947 24.9917 49.1947H17.307C17.1324 49.1947 17.0158 49.0781 17.0158 48.9035V47.3899H17.0739ZM44.9609 25.7906C44.9609 25.4994 45.1936 25.2667 45.4848 25.2667H47.1149C47.4061 25.2667 47.6388 25.4994 47.6388 25.7906V27.4207C47.6388 27.7119 47.4061 27.9446 47.1149 27.9446H45.4848C45.1936 27.9446 44.9609 27.7119 44.9609 27.4207V25.7906ZM44.9609 31.2633C44.9609 30.9721 45.1936 30.7394 45.4848 30.7394H47.1149C47.4061 30.7394 47.6388 30.9721 47.6388 31.2633V32.8934C47.6388 33.1846 47.4061 33.4173 47.1149 33.4173H45.4848C45.1936 33.4173 44.9609 33.1846 44.9609 32.8934V31.2633ZM44.9609 36.736C44.9609 36.4448 45.1936 36.2121 45.4848 36.2121H47.1149C47.4061 36.2121 47.6388 36.4448 47.6388 36.736V38.3661C47.6388 38.6573 47.4061 38.89 47.1149 38.89H45.4848C45.1936 38.89 44.9609 38.6573 44.9609 38.3661V36.736ZM44.9609 42.2087C44.9609 41.9175 45.1936 41.6848 45.4848 41.6848H47.1149C47.4061 41.6848 47.6388 41.9175 47.6388 42.2087V43.8388C47.6388 44.13 47.4061 44.3627 47.1149 44.3627H45.4848C45.1936 44.3627 44.9609 44.13 44.9609 43.8388V42.2087ZM44.437 47.099C44.7282 47.099 44.9609 47.3317 44.9609 47.6229V52.3385H41.4095V47.0405L44.437 47.0409L44.437 47.099ZM39.5463 3.95862C39.5463 3.66744 39.779 3.43474 40.0702 3.43474H41.7007C41.9919 3.43474 42.2246 3.66744 42.2246 3.95862V5.58876C42.2246 5.87994 41.9919 6.11264 41.7007 6.11264H40.0706C39.7794 6.11264 39.5467 5.87994 39.5467 5.58876L39.5463 3.95862ZM39.5463 9.43133C39.5463 9.14015 39.779 8.90745 40.0702 8.90745H41.7007C41.9919 8.90745 42.2246 9.14015 42.2246 9.43133V11.0615C42.2246 11.3526 41.9919 11.5853 41.7007 11.5853H40.0706C39.7794 11.5853 39.5467 11.3526 39.5467 11.0615L39.5463 9.43133ZM39.5463 14.904C39.5463 14.6129 39.779 14.3802 40.0702 14.3802H41.7007C41.9919 14.3802 42.2246 14.6129 42.2246 14.904V16.5342C42.2246 16.8253 41.9919 17.058 41.7007 17.058H40.0706C39.7794 17.058 39.5467 16.8253 39.5467 16.5342L39.5463 14.904ZM39.5463 20.3767C39.5463 20.0856 39.779 19.8529 40.0702 19.8529H41.7007C41.9919 19.8529 42.2246 20.0856 42.2246 20.3767V22.0069C42.2246 22.298 41.9919 22.5308 41.7007 22.5308H40.0706C39.7794 22.5308 39.5467 22.298 39.5467 22.0069L39.5463 20.3767ZM39.5463 25.7909C39.5463 25.4997 39.779 25.267 40.0702 25.267H41.7007C41.9919 25.267 42.2246 25.4997 42.2246 25.7909V27.421C42.2246 27.7122 41.9919 27.9449 41.7007 27.9449H40.0706C39.7794 27.9449 39.5467 27.7122 39.5467 27.421L39.5463 25.7909ZM39.5463 31.2636C39.5463 30.9724 39.779 30.7397 40.0702 30.7397H41.7007C41.9919 30.7397 42.2246 30.9724 42.2246 31.2636V32.8937C42.2246 33.1849 41.9919 33.4176 41.7007 33.4176H40.0706C39.7794 33.4176 39.5467 33.1849 39.5467 32.8937L39.5463 31.2636ZM39.5463 36.7363C39.5463 36.4451 39.779 36.2124 40.0702 36.2124H41.7007C41.9919 36.2124 42.2246 36.4451 42.2246 36.7363V38.3665C42.2246 38.6576 41.9919 38.8903 41.7007 38.8903H40.0706C39.7794 38.8903 39.5467 38.6576 39.5467 38.3665L39.5463 36.7363ZM39.5463 42.209C39.5463 41.9178 39.779 41.6851 40.0702 41.6851H41.7007C41.9919 41.6851 42.2246 41.9178 42.2246 42.209V43.8392C42.2246 44.1303 41.9919 44.363 41.7007 44.363H40.0706C39.7794 44.363 39.5467 44.1303 39.5467 43.8392L39.5463 42.209ZM34.0736 3.95904C34.0736 3.66786 34.3063 3.43516 34.5975 3.43516H36.2276C36.5188 3.43516 36.7515 3.66786 36.7515 3.95904V5.58917C36.7515 5.88035 36.5188 6.11305 36.2276 6.11305H34.5975C34.3063 6.11305 34.0736 5.88035 34.0736 5.58917V3.95904ZM34.0736 9.43174C34.0736 9.14056 34.3063 8.90786 34.5975 8.90786H36.2276C36.5188 8.90786 36.7515 9.14056 36.7515 9.43174V11.0619C36.7515 11.3531 36.5188 11.5858 36.2276 11.5858H34.5975C34.3063 11.5858 34.0736 11.3531 34.0736 11.0619V9.43174ZM34.0736 14.9044C34.0736 14.6133 34.3063 14.3806 34.5975 14.3806H36.2276C36.5188 14.3806 36.7515 14.6133 36.7515 14.9044V16.5346C36.7515 16.8258 36.5188 17.0585 36.2276 17.0585H34.5975C34.3063 17.0585 34.0736 16.8258 34.0736 16.5346V14.9044ZM34.0736 20.3771C34.0736 20.086 34.3063 19.8533 34.5975 19.8533H36.2276C36.5188 19.8533 36.7515 20.086 36.7515 20.3771V22.0073C36.7515 22.2985 36.5188 22.5312 36.2276 22.5312H34.5975C34.3063 22.5312 34.0736 22.2985 34.0736 22.0073V20.3771ZM34.0736 25.7913C34.0736 25.5001 34.3063 25.2674 34.5975 25.2674H36.2276C36.5188 25.2674 36.7515 25.5001 36.7515 25.7913V27.4215C36.7515 27.7126 36.5188 27.9453 36.2276 27.9453H34.5975C34.3063 27.9453 34.0736 27.7126 34.0736 27.4215V25.7913ZM34.0736 31.264C34.0736 30.9728 34.3063 30.7401 34.5975 30.7401H36.2276C36.5188 30.7401 36.7515 30.9728 36.7515 31.264L36.7519 32.8942C36.7519 33.1853 36.5192 33.418 36.228 33.418H34.5979C34.3067 33.418 34.074 33.1853 34.074 32.8942L34.0736 31.264ZM34.0736 36.7367C34.0736 36.4456 34.3063 36.2129 34.5975 36.2129H36.2276C36.5188 36.2129 36.7515 36.4456 36.7515 36.7367V38.3669C36.7515 38.658 36.5188 38.8907 36.2276 38.8907H34.5975C34.3063 38.8907 34.0736 38.658 34.0736 38.3669V36.7367ZM34.0736 42.2094C34.0736 41.9183 34.3063 41.6856 34.5975 41.6856H36.2276C36.5188 41.6856 36.7515 41.9183 36.7515 42.2094V43.8396C36.7515 44.1308 36.5188 44.3634 36.2276 44.3634H34.5975C34.3063 44.3634 34.0736 44.1308 34.0736 43.8396V42.2094ZM36.8099 47.6821C36.8099 47.391 37.0426 47.1583 37.3338 47.1583H40.3613V52.4563H36.8099L36.8099 47.6821Z" fill="#0061A8"/>
<path fill-rule="evenodd" clip-rule="evenodd" d="M29.6016 52.3385H28.6596V7.68443C28.6596 6.75283 27.7865 6.11241 26.913 6.34549L14.6287 9.89686C14.0464 10.0715 13.639 10.5954 13.639 11.2358V52.3967H12.1254C11.8343 52.3967 11.6016 52.6294 11.6016 52.9206V54.7253C11.6016 55.0165 11.8343 55.2492 12.1254 55.2492H29.6016V52.3385ZM17.3651 13.6227C17.1905 13.6227 17.0739 13.7393 17.0739 13.9139H17.0158V15.4275C17.0158 15.6021 17.1324 15.7187 17.307 15.7187H24.9917C25.1663 15.7187 25.2829 15.6021 25.2829 15.4275V13.9139C25.2829 13.7393 25.1663 13.6227 24.9917 13.6227H17.3651ZM17.3651 18.3969C17.1905 18.3969 17.0739 18.5134 17.0739 18.6881H17.0158V20.2017C17.0158 20.3763 17.1324 20.4928 17.307 20.4928H24.9917C25.1663 20.4928 25.2829 20.3763 25.2829 20.2017V18.6881C25.2829 18.5134 25.1663 18.3969 24.9917 18.3969H17.3651ZM17.3651 23.1706C17.1905 23.1706 17.0739 23.2872 17.0739 23.4618H17.0158V24.9754C17.0158 25.15 17.1324 25.2666 17.307 25.2666H24.9917C25.1663 25.2666 25.2829 25.15 25.2829 24.9754V23.4618C25.2829 23.2872 25.1663 23.1706 24.9917 23.1706H17.3651ZM17.3651 27.9448C17.1905 27.9448 17.0739 28.0614 17.0739 28.236H17.0158V29.7496C17.0158 29.9242 17.1324 30.0408 17.307 30.0408H24.9917C25.1663 30.0408 25.2829 29.9242 25.2829 29.7496V28.236C25.2829 28.0614 25.1663 27.9448 24.9917 27.9448H17.3651ZM17.3651 32.7186C17.1905 32.7186 17.0739 32.8351 17.0739 33.0098H17.0158V34.5234C17.0158 34.698 17.1324 34.8145 17.307 34.8145H24.9917C25.1663 34.8145 25.2829 34.698 25.2829 34.5234V33.0098C25.2829 32.8351 25.1663 32.7186 24.9917 32.7186H17.3651ZM17.3651 37.5508C17.1905 37.5508 17.0739 37.6673 17.0739 37.842H17.0158V39.2974C17.0158 39.4721 17.1324 39.5886 17.307 39.5886H24.9917C25.1663 39.5886 25.2829 39.4721 25.2829 39.2974V37.842C25.2829 37.6673 25.1663 37.5508 24.9917 37.5508H17.3651ZM17.3651 42.325C17.1905 42.325 17.0739 42.4415 17.0739 42.6161H17.0158V44.1297C17.0158 44.3043 17.1324 44.4209 17.307 44.4209H24.9917C25.1663 44.4209 25.2829 44.3043 25.2829 44.1297V42.6161C25.2829 42.4415 25.1663 42.325 24.9917 42.325H17.3651ZM17.3651 47.0987C17.1905 47.0987 17.0739 47.2153 17.0739 47.3899H17.0158V48.9035C17.0158 49.0781 17.1324 49.1947 17.307 49.1947H24.9917C25.1663 49.1947 25.2829 49.0781 25.2829 48.9035V47.3899C25.2829 47.2153 25.1663 47.0987 24.9917 47.0987H17.3651Z" fill="#23A4DE"/>
<path d="M33.2419 35.1592H11.1597C8.75646 35.1592 6.80078 37.0531 6.80078 39.3811V52.7606C6.80078 55.0885 8.75646 56.9825 11.1597 56.9825H33.2419C35.6451 56.9825 37.6008 55.0885 37.6008 52.7606V39.3811C37.6008 37.0531 35.6451 35.1592 33.2419 35.1592Z" fill="white"/>
<path d="M33.2411 35.1592H26.9953C24.5921 35.1592 22.6364 37.0531 22.6364 39.3811L18.082 52.7606C18.082 55.0885 20.0377 56.9825 22.441 56.9825H33.2411C35.6443 56.9825 37.6 55.0885 37.6 52.7606V39.3811C37.6 37.0531 35.6443 35.1592 33.2411 35.1592Z" fill="white"/>
<path d="M33.2419 35.1592H11.1597C8.75646 35.1592 6.80078 37.0531 6.80078 39.3811V52.7606C6.80078 55.0885 8.75646 56.9825 11.1597 56.9825H33.2419C35.6451 56.9825 37.6008 55.0885 37.6008 52.7606V39.3811C37.6008 37.0531 35.6451 35.1592 33.2419 35.1592ZM17.9784 41.8757L13.3927 46.3167L17.4707 50.266C17.8232 50.6074 17.8232 51.1608 17.4707 51.5016C17.1188 51.843 16.5473 51.843 16.1948 51.5016L11.4785 46.9342C11.126 46.5928 11.126 46.04 11.4785 45.6986L16.7019 40.6401C17.0544 40.2987 17.6259 40.2987 17.9784 40.6401C18.3303 40.9809 18.3303 41.5343 17.9784 41.8757ZM25.866 39.8198L21.0944 52.9039C20.9284 53.3595 20.4128 53.5977 19.943 53.4369C19.4732 53.2761 19.2265 52.7769 19.3926 52.3219L24.1642 39.2378C24.3302 38.7828 24.8451 38.5439 25.3156 38.7047C25.7854 38.8655 26.032 39.3648 25.866 39.8198ZM32.923 46.4431L27.6997 51.5016C27.3472 51.843 26.7757 51.843 26.4232 51.5016C26.0712 51.1608 26.0712 50.6074 26.4232 50.266L31.0089 45.825L26.9309 41.8757C26.5784 41.5343 26.5784 40.9809 26.9309 40.6401C27.2828 40.2987 27.8543 40.2987 28.2068 40.6401L32.923 45.2075C33.2756 45.5489 33.2756 46.1017 32.923 46.4431Z" fill="#FFB71B"/>
<g clip-path="url(#clip0_7989_92547)">
<path d="M34.7598 56.7995H56.8398V40.0769L45.7998 31.9595L34.7598 40.0769V56.7995Z" fill="#7BC9EB"/>
<path d="M33.6845 42.9997L45.7996 32.8658L57.9147 42.9997L59.5996 40.7431L45.7996 29.1997L31.9996 40.7431L33.6845 42.9997Z" fill="#23A4DE"/>
<path d="M40.2803 45.7598H51.3203V56.7998H40.2803V45.7598Z" fill="#F2F2F2"/>
<path d="M43.0405 48.5195H48.5605V56.7995H43.0405V48.5195Z" fill="#0061A8"/>
</g>
<defs>
<clipPath id="clip0_7989_92547">
<rect width="27.6" height="27.6" fill="white" transform="translate(32 29.1997)"/>
</clipPath>
</defs>
</svg>
