<svg width="80" height="80" viewBox="0 0 80 80" fill="none" xmlns="http://www.w3.org/2000/svg">
<path d="M46.4518 8.00173C43.8285 1.37522 36.5991 -1.75797 30.3045 1.00363C26.0005 2.89184 23.074 7.17138 22.7387 12.0673C19.1014 12.5969 16.5605 16.1303 17.0635 19.9595C17.5187 23.4244 20.3337 26.0035 23.6562 26H46.4517C51.1728 26 55 21.9709 55 17.0009C55 12.0309 51.1729 8.00173 46.4518 8.00173Z" fill="var(--info-graphic-accent-color-lightest)"/>
<path d="M2 63.0322V23.9032C2 21.7564 3.68416 20 5.74258 20H60.2574C62.3158 20 64 21.7564 64 23.9032V63.0322H2Z" fill="var(--info-graphic-accent-color-med)"/>
<path d="M2 62V66.9667C2 69.185 3.68416 71 5.74258 71L60.2574 71C62.3158 71 64 69.185 64 66.9667V62L2 62Z" fill="var(--info-graphic-accent-color-dark)"/>
<path d="M26.4599 71H39.5477L40.5213 74.454C41.0864 76.4614 43.2334 78.1031 45.2918 78.1031H41.5492C39.4908 78.1031 37.3438 76.4614 36.7787 74.454L36.3807 73.0437H25.884L26.4599 71Z" fill="var(--info-graphic-accent-color-darkest)"/>
<path d="M45.2457 78.1026H52.3426C52.8593 78.1026 53.2783 78.5272 53.2783 79.0513C53.2783 79.5753 52.8593 79.9999 52.3426 79.9999H13.6693C13.1526 79.9999 12.7336 79.5753 12.7336 79.0513C12.7336 78.5272 13.1526 78.1026 13.6693 78.1026H20.7472C22.7968 78.0874 24.9263 76.4515 25.4888 74.4536L25.8867 73.0435H36.3807L36.7787 74.4538C37.3438 76.4611 39.4908 78.1029 41.5493 78.1029H45.2918C45.2765 78.1029 45.2611 78.1028 45.2457 78.1026Z" fill="var(--info-graphic-accent-color-darkest)"/>
<path d="M60 27.4053V30H6V27.4053C6 25.524 7.60631 24 9.58684 24H56.4142C58.3947 24 60 25.524 60 27.4053Z" fill="var(--info-graphic-accent-color-light)"/>
<path d="M60 30V54.376C60 56.3778 58.3947 58 56.4142 58H9.58684C7.60631 58 6 56.3778 6 54.376V30H60Z" fill="var(--info-graphic-accent-color-white)"/>
<path d="M13 46C13 43.7909 14.7909 42 17 42H49C51.2091 42 53 43.7909 53 46C53 48.2091 51.2091 50 49 50H17C14.7909 50 13 48.2091 13 46Z" fill="var(--info-graphic-accent-color-light)"/>
<path d="M24.3618 44L24.7401 44.634L25.0125 45.4792L25.3302 44.6189L25.6934 44.0151L26.4197 44.4075L26.0263 45.0566L25.3302 45.7811L26.3592 45.6H27.0855V46.4453H26.3894L25.421 46.2642L26.1171 46.9887L26.4651 47.5774L25.7539 48L25.3605 47.366L25.0125 46.4453L24.725 47.3208L24.3467 47.9547L23.5901 47.5321L23.9987 46.8981L24.6342 46.2642L23.7566 46.4453H23V45.6H23.7566L24.6947 45.7811L24.0138 45.117L23.6204 44.4226L24.3618 44Z" fill="var(--info-graphic-accent-color-white)"/>
<path d="M29.6667 44L30.045 44.634L30.3173 45.4792L30.6351 44.6189L30.9982 44.0151L31.7245 44.4075L31.3311 45.0566L30.6351 45.7811L31.664 45.6H32.3903V46.4453H31.6943L30.7259 46.2642L31.4219 46.9887L31.7699 47.5774L31.0588 48L30.6653 47.366L30.3173 46.4453L30.0298 47.3208L29.6515 47.9547L28.895 47.5321L29.3035 46.8981L29.939 46.2642L29.0614 46.4453H28.3048V45.6H29.0614L29.9996 45.7811L29.3186 45.117L28.9252 44.4226L29.6667 44Z" fill="var(--info-graphic-accent-color-white)"/>
<path d="M34.9715 44L35.3498 44.634L35.6222 45.4792L35.9399 44.6189L36.3031 44.0151L37.0294 44.4075L36.636 45.0566L35.9399 45.7811L36.9689 45.6H37.6952V46.4453H36.9991L36.0307 46.2642L36.7267 46.9887L37.0748 47.5774L36.3636 48L35.9702 47.366L35.6222 46.4453L35.3347 47.3208L34.9564 47.9547L34.1998 47.5321L34.6084 46.8981L35.2439 46.2642L34.3663 46.4453H33.6097V45.6H34.3663L35.3044 45.7811L34.6235 45.117L34.2301 44.4226L34.9715 44Z" fill="var(--info-graphic-accent-color-white)"/>
<path d="M40.2764 44L40.6546 44.634L40.927 45.4792L41.2448 44.6189L41.6079 44.0151L42.3342 44.4075L41.9408 45.0566L41.2448 45.7811L42.2737 45.6H43V46.4453H42.304L41.3356 46.2642L42.0316 46.9887L42.3796 47.5774L41.6684 48L41.275 47.366L40.927 46.4453L40.6395 47.3208L40.2612 47.9547L39.5047 47.5321L39.9132 46.8981L40.5487 46.2642L39.6711 46.4453H38.9145V45.6H39.6711L40.6092 45.7811L39.9283 45.117L39.5349 44.4226L40.2764 44Z" fill="var(--info-graphic-accent-color-white)"/>
<path d="M62 4C56.204 4.00716 51.5071 8.73034 51.5 14.5589V21.0567C51.5 21.5053 51.8616 21.869 52.3077 21.869H55.5385C55.9846 21.869 56.3462 21.5053 56.3462 21.0567V14.5589C56.3461 11.4188 58.8775 8.87335 62 8.87335C66 8.87335 67.6539 11 67.6539 12.5589V12.8212C67.6539 13.2697 68.0155 13.6334 68.4616 13.6334H71.6923C72.1384 13.6334 72.5 13.2697 72.5 12.8212V12.5589C72.4929 6.73034 67.796 4.00716 62 4Z" fill="var(--info-graphic-accent-color-bright)"/>
<path d="M52.1176 15.7703H71.8824C74.1565 15.7703 76 17.6274 76 19.9184V31.8517C76 34.1427 74.1565 35.9999 71.8824 35.9999H52.1176C49.8435 35.9999 48 34.1427 48 31.8518V19.9185C48 17.6274 49.8435 15.7703 52.1176 15.7703Z" fill="var(--info-graphic-accent-color-bright)"/>
<path d="M66 23.4475C66.0081 21.5515 64.4477 20.008 62.5148 20C60.5818 19.992 59.0082 21.5225 59 23.4185C58.9944 24.729 59.7499 25.9283 60.9474 26.5096L60.407 30.2172C60.3528 30.5927 60.6193 30.9401 61.002 30.9932C61.0345 30.9977 61.0672 31 61.1 31H63.9C64.2866 31.0037 64.603 30.6994 64.6068 30.3202C64.6071 30.2857 64.6048 30.2514 64.5999 30.2172L64.0595 26.5096C65.2425 25.9286 65.9925 24.7451 66 23.4475Z" fill="var(--info-graphic-accent-color-white)"/>
</svg>
