<svg width="80" height="80" viewBox="0 0 80 80" fill="none" xmlns="http://www.w3.org/2000/svg">
<g clip-path="url(#clip0_5933_8584)">
<mask id="mask0_5933_8584" style="mask-type:alpha" maskUnits="userSpaceOnUse" x="0" y="0" width="81" height="80">
<circle r="40" transform="matrix(1 0 0.000546136 1 40.0218 40)" fill="#C4C4C4"/>
</mask>
<g mask="url(#mask0_5933_8584)">
<rect width="80" height="80" fill="var(--info-graphic-accent-color-lightest)"/>
<path d="M74.1725 85.5814C74.1725 85.5814 64.6872 85.5814 57.6736 80.2629C46.9249 76.6032 51.8026 54.5787 52.6413 53.7654C53.4799 52.9517 56.7624 54.4071 59.2723 58.3301C62.7584 63.7789 61.6608 67.4284 64.679 70.4442C68.3998 74.1621 74.1675 76.5809 74.1675 76.5809C75.7715 76.5809 72.8871 81.6034 74.1725 85.5814Z" fill="var(--info-graphic-accent-color-light)"/>
<path d="M58.3327 78.2925C47.5839 74.6327 51.9977 54.6559 52.8365 53.8426C53.6751 53.029 56.3218 54.8372 57.6546 56.2687C54.7697 58.361 59.3274 70.3639 58.3327 78.2925Z" fill="var(--info-graphic-accent-color-dark)"/>
<path d="M34.2351 57.8552C33.7716 60.2336 25.4276 69.5457 24.2884 82.6363C33.9091 92.2898 48.8492 93.9213 60.3118 87.531C59.3676 76.6423 55.5447 59.7935 53.324 54.8238C50.2373 47.9165 43.5836 46.3567 43.5836 46.3567C43.5836 46.3567 34.8424 54.739 34.2351 57.8552Z" fill="var(--info-graphic-accent-color-light)"/>
<path d="M52.6579 52.9259C52.6597 56.1492 49.3314 58.7622 45.2239 58.7622C41.1164 58.7622 37.7852 56.1492 37.7834 52.9259C37.7817 49.7026 41.11 47.0896 45.2175 47.0896C49.325 47.0896 52.6562 49.7026 52.6579 52.9259Z" fill="var(--info-graphic-accent-color-dark)"/>
<path d="M21.8041 97.0763C21.8041 97.0763 21.5845 81.4124 29.5737 75.5031C37.5631 69.5942 38.2556 53.9281 37.6623 53.0203C37.0692 52.1121 29.4895 53.1801 25.9059 56.1651C19.2309 61.725 14.2793 70.5864 11.484 78.6663C7.92928 76.5082 23.0833 93.3607 21.8041 97.0763Z" fill="var(--info-graphic-accent-color-light)"/>
<path d="M30.7572 83.127C31.9924 79.4449 36.5243 71.2627 36.5243 71.2627C36.5243 71.2627 33.2305 81.0814 35.2954 86.3999C33.6456 85.9907 31.9951 84.3543 30.7572 83.127Z" fill="var(--info-graphic-accent-color-dark)"/>
</g>
<path d="M23.3399 33.041C22.6856 34.0154 22.3254 35.2244 22.3881 36.5172C22.5362 39.5669 24.9824 41.9283 27.8521 41.7912C27.9638 41.7858 28.0746 41.7768 28.1842 41.7641C30.3514 48.5976 35.1773 57.1961 45.7034 56.6932C57.4114 56.1339 61.7779 47.4298 63.1519 39.7491C65.6859 39.2762 67.5442 36.864 67.4079 34.0565C67.3454 32.7688 66.8732 31.6038 66.1324 30.6977C65.4452 32.3019 63.609 31.6544 62.9483 30.1094C62.39 28.8039 62.3016 27.437 62.2129 26.0659C62.0964 24.2657 61.9795 22.4582 60.7981 20.7727C59.8687 19.4469 58.762 19.0032 57.4932 18.4944C57.0688 18.3243 56.6264 18.1469 56.1663 17.9268C56.135 17.9118 56.018 17.8707 55.8677 17.8179C55.5265 17.6981 55.0134 17.5179 54.9406 17.4458C55.078 17.6557 56.8049 20.3692 54.61 20.8587C52.3257 21.3684 43.9797 18.7674 43.9797 18.7674C43.9797 18.7674 45.325 20.8116 42.2296 21.9825C39.1345 23.1533 30.8383 18.5573 30.8383 18.5573C30.8383 18.5573 27.4421 22.6777 28.1236 32.8351C28.2795 35.1618 24.9744 35.6495 23.3399 33.041Z" fill="#FFE5C7"/>
<path d="M36.1065 27.8402C35.5361 27.9758 34.8543 28.1378 34.8689 27.4712C34.9701 22.854 43.4399 24.3325 42.3065 27.0714C42.0705 27.6418 41.4348 27.2789 40.7654 26.8966C40.3037 26.633 39.8261 26.3603 39.4523 26.3781C37.8872 26.4529 37.4404 26.887 37.0425 27.2736C36.7987 27.5104 36.5733 27.7294 36.1204 27.8369L36.1065 27.8402Z" fill="var(--info-graphic-accent-color-darkest)"/>
<path d="M54.686 24.241C55.8614 24.0401 57.5771 24.4778 58.1204 25.6232C58.3924 26.197 58.1803 26.4131 57.5506 26.6523C57.0102 26.8573 56.6425 26.6319 56.2421 26.3865C56.1229 26.3134 56.0008 26.2386 55.8704 26.1728C55.401 25.9364 54.8561 25.8471 54.3311 25.9248C54.0261 25.9697 53.8235 26.08 53.6048 26.1991C53.4362 26.2909 53.2581 26.3879 53.016 26.4643C52.658 26.5773 52.1962 26.6617 52.165 26.2882C52.0634 25.0684 53.7018 24.4093 54.686 24.241Z" fill="var(--info-graphic-accent-color-darkest)"/>
<path d="M41.2745 30.2613C41.214 30.1821 41.1476 30.108 41.075 30.0403C38.6778 27.8009 36.5434 32.8812 38.3015 34.479C40.8398 36.7856 42.6762 32.0997 41.2745 30.2613Z" fill="var(--info-graphic-accent-color-darkest)"/>
<path d="M56.1717 30.269C56.2443 30.3368 56.3107 30.4108 56.3712 30.4901C57.7729 32.3285 55.9365 37.0144 53.3982 34.7077C51.6401 33.11 53.7745 28.0297 56.1717 30.269Z" fill="var(--info-graphic-accent-color-darkest)"/>
<path d="M39.9231 30.9011C39.9529 30.3824 40.5909 30.2706 40.8069 30.7392C40.9194 30.9834 40.9995 31.1785 40.9533 31.4533C40.882 31.8757 40.2611 31.9766 40.0442 31.6157C39.9019 31.3794 39.9082 31.1655 39.9231 30.9011Z" fill="var(--info-graphic-accent-color-white)"/>
<path d="M55.0194 31.1301C55.0493 30.6114 55.6873 30.4996 55.9033 30.9682C56.0158 31.2124 56.0958 31.4075 56.0496 31.6823C55.9784 32.1043 55.3575 32.2056 55.1406 31.8447C54.9982 31.6084 55.0042 31.3946 55.0194 31.1301Z" fill="var(--info-graphic-accent-color-white)"/>
<path d="M38.6631 42.1096C38.6631 42.1096 47.6488 44.581 54.2409 42.4504C54.5948 46.6636 51.5792 51.5584 45.9812 51.1784C41.2028 50.8546 38.6177 47.7956 38.6631 42.1096Z" fill="var(--info-graphic-accent-color-darkest)"/>
<path d="M41.4302 49.565C42.5992 50.5115 44.1237 51.0524 45.9812 51.1785C47.908 51.3094 49.5288 50.8148 50.8114 49.9387C49.4771 48.509 49.0462 48.0142 46.3539 48.093C42.806 48.1963 42.3428 49.0558 41.4302 49.565Z" fill="var(--info-graphic-accent-color-bright)"/>
<path d="M38.6634 42.1096C38.6601 42.5212 38.6721 42.9174 38.6964 43.3017C40.2819 44.2506 47.1319 47.8626 54.1986 44.1931C54.2729 43.6096 54.2893 43.0235 54.2412 42.4504C47.4024 44.5177 38.6634 42.1096 38.6634 42.1096Z" fill="var(--info-graphic-accent-color-white)"/>
<path d="M28.6568 7.9585C33.0145 1.70236 42.2055 0.243517 50.5182 1.78907C55.2235 2.66392 78.8198 10.519 66.2573 16.9395C66.5148 19.6301 66.6602 22.344 66.6627 25.0468C66.6641 26.765 66.6967 28.612 66.2686 30.2912C65.7322 32.3955 63.6595 31.7723 62.9484 30.1095C61.6572 27.09 62.8794 23.7421 60.7983 20.7729C59.5581 19.0036 58.0021 18.8052 56.1665 17.9269C56.0593 17.8757 54.9501 17.5191 54.9323 17.4331C54.9323 17.4331 56.8937 20.3496 54.6101 20.8589C52.3258 21.3686 43.9799 18.7675 43.9799 18.7675C43.9799 18.7675 45.3252 20.8117 42.2298 21.9826C39.1347 23.1535 30.8385 18.5575 30.8385 18.5575C30.8385 18.5575 27.4422 22.6779 28.1238 32.8352C28.3385 36.0397 21.9883 35.7558 22.479 28.6995C22.9693 21.6431 22.0106 8.59115 28.6568 7.9585Z" fill="var(--info-graphic-accent-color-darkest)"/>
<path d="M16.866 63.3855L31.3272 75.5356L35.4846 75.0069L35.3132 70.5682L34.7092 70.2286L33.8286 68.126L31.1688 67.2626L29.9238 64.9024L27.4467 64.5609L26.652 62.1634L24.3864 61.7L20.7033 58.2963L16.866 63.3855Z" fill="var(--info-graphic-accent-color-bright)"/>
<path opacity="0.5" d="M17.6929 62.2408L16.8311 63.3839L31.2923 75.5341L33.7008 75.2382C28.065 71.2974 22.7375 66.9173 17.6929 62.2408Z" fill="var(--info-graphic-accent-color-bright)"/>
<path d="M24.3514 61.6986L20.6685 58.2948L19.2122 60.2262C24.2803 64.9865 29.6596 69.4211 35.3712 73.3865L35.2566 70.6053L34.6524 70.2657L33.7828 68.1438L31.1284 67.2704L29.8864 64.9054L27.4106 64.5616L26.6167 62.1626L24.3514 61.6986Z" fill="var(--info-graphic-accent-color-bright)"/>
<path opacity="0.5" d="M22.8783 58.9687L17.8943 65.5233L16.3092 64.3202L21.2931 57.7656L22.8783 58.9687Z" fill="var(--info-graphic-accent-color-bright)"/>
<ellipse cx="9.28165" cy="53.243" rx="2.46476" ry="2.49152" fill="var(--info-graphic-accent-color-lightest)"/>
<path d="M11.0431 54.4339C10.4509 55.4194 9.17122 55.7391 8.1847 55.1476C7.19778 54.556 6.87821 53.2776 7.47023 52.292C8.06226 51.3062 9.34191 50.9868 10.3286 51.5782C11.3154 52.1697 11.6349 53.4481 11.0431 54.4339ZM5.49949 52.1188C3.04955 56.198 4.37327 61.4889 8.45627 63.9366C12.5397 66.3844 17.8354 65.0618 20.2855 60.9827C22.7357 56.9035 21.412 51.6124 17.3288 49.1647C13.2456 46.7171 7.94963 48.0397 5.49949 52.1188Z" fill="var(--info-graphic-accent-color-bright)"/>
<path d="M22.8783 58.9687L17.8943 65.5233L16.3092 64.3202L21.2931 57.7656L22.8783 58.9687Z" fill="var(--info-graphic-accent-color-bright)"/>
</g>
<defs>
<clipPath id="clip0_5933_8584">
<rect width="80" height="80" fill="var(--info-graphic-accent-color-white)"/>
</clipPath>
</defs>
</svg>
