<svg width="40" height="40" viewBox="0 0 40 40" fill="none" xmlns="http://www.w3.org/2000/svg">
<path d="M38 11.4706V5.17646C38 3.42496 36.5806 2 34.8359 2H5.16406C3.4194 2 2 3.42496 2 5.17646V11.4706H38Z" fill="#23A4DE"/>
<path d="M2 11.3999V34.6351C2 36.3866 3.4194 37.8116 5.16406 37.8116H34.8359C36.5806 37.8116 38 36.3866 38 34.6351V11.3999H2Z" fill="#7BC9EB"/>
<path d="M24.051 22.6164C22.5323 18.7934 18.3469 16.9858 14.7026 18.579C12.2108 19.6684 10.5165 22.1373 10.3224 24.9619C8.21658 25.2674 6.74554 27.306 7.03676 29.5151C7.30029 31.5141 8.93001 33.002 10.8536 33H24.051C26.7842 33 29 30.6755 29 27.8082C29 24.9409 26.7843 22.6164 24.051 22.6164Z" fill="#EAF5FC"/>
<path d="M24.4883 31C28.8888 31 32.5288 27.6338 32.9577 23.3488C33.0045 22.8817 32.6194 22.5 32.15 22.5H30.1188C29.6493 22.5 29.2767 22.8838 29.1936 23.3459C28.7924 25.5756 26.8344 27.274 24.4883 27.274C21.8533 27.274 19.7077 25.1315 19.7077 22.5C19.7077 19.8685 21.8531 17.726 24.4883 17.726C25.4909 17.726 26.4238 18.0288 27.2167 18.5876L25.9807 19.8685C25.7242 20.1479 25.8408 20.5672 26.214 20.5672L31.9273 20.6138C32.1605 20.6138 32.3704 20.4042 32.3469 20.1713L32.0672 14.4891C32.0439 14.1165 31.6241 14.0234 31.3675 14.3028L29.8518 15.8863C28.3362 14.6753 26.4705 14 24.5117 14C19.8244 14 16 17.8192 16 22.5C15.9998 27.1808 19.8008 31 24.4883 31Z" fill="#0061A8"/>
</svg>
