<svg width="40" height="40" viewBox="0 0 40 40" fill="none" xmlns="http://www.w3.org/2000/svg">
<rect x="8" y="11" width="24" height="28" fill="#0061A8"/>
<path d="M20 18V10.5L28 11.5L28.5 21L20 18Z" fill="#EAF5FC"/>
<path d="M33.3333 3.33325H26.6667V6.66659C26.6667 7.10861 26.4911 7.53254 26.1785 7.8451C25.866 8.15766 25.442 8.33325 25 8.33325H15C14.558 8.33325 14.1341 8.15766 13.8215 7.8451C13.5089 7.53254 13.3333 7.10861 13.3333 6.66659V3.33325H6.66667C6.22464 3.33325 5.80072 3.50885 5.48816 3.82141C5.17559 4.13397 5 4.55789 5 4.99992V38.3333C5 38.7753 5.17559 39.1992 5.48816 39.5118C5.80072 39.8243 6.22464 39.9999 6.66667 39.9999H33.3333C33.7754 39.9999 34.1993 39.8243 34.5119 39.5118C34.8244 39.1992 35 38.7753 35 38.3333V4.99992C35 4.55789 34.8244 4.13397 34.5119 3.82141C34.1993 3.50885 33.7754 3.33325 33.3333 3.33325ZM30 36.6666H10V34.9999H13.3333V31.6666H16.6667V34.9999H18.3333V29.9999H21.6667V34.9999H23.3333V28.3333H26.6667V34.9999H30V36.6666Z" fill="#7BC9EB"/>
<circle cx="20.005" cy="18.3349" r="6.665" fill="#0061A8"/>
<path d="M20.958 10.7283C20.6733 10.6925 20.387 10.7807 20.1718 10.9706C19.9566 11.1604 19.8334 11.4335 19.8334 11.7205V17.0118C19.8334 17.8727 20.3842 18.6369 21.2009 18.9092L26.2221 20.5829C26.4944 20.6736 26.7925 20.6431 27.0407 20.4989C27.2888 20.3548 27.4631 20.111 27.5191 19.8295C27.7247 18.7971 27.7154 17.7335 27.4919 16.7048C27.2683 15.6762 26.8352 14.7047 26.2196 13.8508C25.6041 12.9969 24.8192 12.2789 23.9139 11.7417C23.0087 11.2045 22.0025 10.8595 20.958 10.7283Z" fill="#EAF5FC"/>
<path d="M14.6667 0H25.3333C25.7754 0 26.1993 0.175595 26.5118 0.488156C26.8244 0.800716 27 1.22464 27 1.66667V8.66667H13V1.66667C13 1.22464 13.1756 0.800716 13.4882 0.488156C13.8007 0.175595 14.2246 0 14.6667 0Z" fill="#23A4DE"/>
</svg>
