<svg width="80" height="80" viewBox="0 0 80 80" fill="none" xmlns="http://www.w3.org/2000/svg">
<ellipse rx="35.6376" ry="35.6309" transform="matrix(1 0 1.79901e-05 1 41.1895 43.6966)" fill="#7BC9EB"/>
<path d="M51 67H39V34H49C50.1046 34 51 34.8954 51 36V59.2944V67Z" fill="#262F69"/>
<path d="M22.3467 27C21.3597 27 20.5595 27.8038 20.5595 28.7908C20.5595 29.7738 19.7627 30.5743 18.7798 30.5743C17.7968 30.5743 17 31.3711 17 32.3541V67H42V29C42 27.8954 41.1046 27 40 27H22.3467Z" fill="#31448F"/>
<path d="M27.2982 34.0098H24.2345V37.76H27.2982V34.0098Z" fill="#EAF5FC"/>
<path d="M34.9239 34.0098H31.8602V37.76H34.9239V34.0098Z" fill="#EAF5FC"/>
<path d="M24.2345 41.5103H27.2982V45.2605H24.2345V41.5103Z" fill="#EAF5FC"/>
<path d="M34.9239 41.5103H31.8602V45.2605H34.9239V41.5103Z" fill="#EAF5FC"/>
<path d="M24.2345 49.0112H27.2982V52.7615H24.2345V49.0112Z" fill="#EAF5FC"/>
<path d="M34.9239 49.0112H31.8602V52.7615H34.9239V49.0112Z" fill="#EAF5FC"/>
<path d="M24.2345 56.5117H27.2982V60.262H24.2345V56.5117Z" fill="#EAF5FC"/>
<path d="M34.9239 56.5117H31.8602V60.262H34.9239V56.5117Z" fill="#EAF5FC"/>
<path d="M9.61187 38.7247C12.7094 37.7412 14.4197 34.4263 13.449 31.2882C13.2169 30.5377 12.85 29.8302 12.3697 29.2332L17.0742 21.9706C18.1396 22.3065 19.322 22.3057 20.5343 21.9208C21.6788 21.5574 22.6507 20.8741 23.4035 19.961L31.3577 23.2042C31.2996 23.972 31.397 24.7652 31.6291 25.5156C32.5999 28.6539 35.8717 30.3867 38.9691 29.4032C42.0665 28.4197 43.777 25.1048 42.8063 21.9667C42.5741 21.2163 42.2072 20.5087 41.727 19.9117L46.431 12.6493C47.4964 12.9852 48.6788 12.9844 49.891 12.5995C52.9886 11.616 54.6989 8.3011 53.7282 5.16298C52.7574 2.02473 49.4855 0.291919 46.3881 1.2754C43.2906 2.25893 41.5803 5.57381 42.551 8.71194C42.7831 9.46235 43.15 10.1699 43.6303 10.7669L38.9258 18.0294C37.8604 17.6936 36.678 17.6944 35.4658 18.0793C34.3212 18.4427 33.3493 19.126 32.5965 20.0391L24.6423 16.7959C24.7004 16.0281 24.603 15.2349 24.3709 14.4845C23.4001 11.3462 20.1283 9.6134 17.0309 10.5969C13.9335 11.5804 12.223 14.8953 13.1937 18.0334C13.4259 18.7838 13.7928 19.4914 14.273 20.0884L9.56899 27.3508C8.50365 27.0149 7.32118 27.0157 6.10896 27.4006C3.01143 28.3841 1.30111 31.699 2.27183 34.8371C3.24244 37.9749 6.51494 39.708 9.61187 38.7247Z" fill="#23A4DE"/>
<path d="M70.4794 64.0001C64.044 73.2631 53.3254 79.3276 41.1901 79.3276C29.0548 79.3276 18.336 73.2631 11.9003 64.0001C23.5622 68.1356 61.5 47 76 51.5C74.5 57.5 71.6884 62.2599 70.4794 64.0001Z" fill="#0061A8"/>
<path d="M45 77C45 78.1046 45.8954 79 47 79H71C72.1046 79 73 78.1046 73 77V57.4572L59 47L45 57.4572V77Z" fill="#7BC9EB"/>
<path d="M74.9924 61C76.7974 61 77.6785 58.7096 76.3714 57.4152L60.375 41.5736C59.6027 40.8088 58.3892 40.8088 57.617 41.5736L41.6205 57.4152C40.3135 58.7096 41.1945 61 42.9995 61H74.9924Z" fill="#0061A8"/>
<path d="M54 65H64C65.1046 65 66 65.8954 66 67V79H52V67C52 65.8954 52.8954 65 54 65Z" fill="#EAF5FC"/>
<path d="M56 68H62C62.5523 68 63 68.4477 63 69V79H55V69C55 68.4477 55.4477 68 56 68Z" fill="#0061A8"/>
<rect x="46" y="4" width="30" height="30" rx="4" fill="#FFB71B"/>
<path d="M69.3493 7.95349C70.0097 8.06841 70.3975 8.80969 70.1514 9.48668L68.1423 15.0133C67.8145 15.9153 66.6685 16.0168 66.232 15.1825L65.3718 13.5384C65.3412 13.5599 65.3097 13.5805 65.2775 13.6001L52.3696 21.4891C51.5156 22.0111 50.4412 21.6932 49.9701 20.779C49.4989 19.8649 49.8093 18.7007 50.6633 18.1787L63.5712 10.2897C63.5969 10.274 63.6227 10.2591 63.6488 10.2449L62.8498 8.71779C62.4134 7.88351 63.0782 6.86226 63.9581 7.01537L69.3493 7.95349Z" fill="white"/>
<path d="M66.3908 17.0576C65.9132 17.0576 65.5261 17.4322 65.5261 17.8942V27.9335C65.5261 28.3956 65.139 28.7702 64.6615 28.7702C64.184 28.7702 63.7969 28.3956 63.7969 27.9335V21.2407C63.7969 20.7786 63.4098 20.4041 62.9322 20.4041H59.4737C58.9962 20.4041 58.6091 20.7786 58.6091 21.2407V27.9335C58.6091 28.3956 58.222 28.7702 57.7445 28.7702C57.2669 28.7702 56.8798 28.3956 56.8798 27.9335V24.5871C56.8798 24.1251 56.4927 23.7505 56.0152 23.7505H52.5567C52.0792 23.7505 51.6921 24.1251 51.6921 24.5871V30.1087C51.6921 30.2935 51.8469 30.4434 52.0379 30.4434H70.3681C70.5591 30.4434 70.7139 30.2935 70.7139 30.1087V17.8942C70.7139 17.4322 70.3268 17.0576 69.8493 17.0576H66.3908Z" fill="white"/>
</svg>
