<svg width="40" height="40" viewBox="0 0 40 40" fill="none" xmlns="http://www.w3.org/2000/svg">
<path d="M7.83333 2H23.1667C25.2801 2 27 3.61522 27 5.6V34.4C27 36.3848 25.2801 38 23.1667 38H7.83333C5.71991 38 4 36.3848 4 34.4V5.6C4 3.61522 5.71991 2 7.83333 2Z" fill="var(--info-graphic-accent-color-lightest)"/>
<path d="M15.9479 35.2708C17.0736 35.2708 17.9861 34.3753 17.9861 33.2708C17.9861 32.1662 17.0736 31.2708 15.9479 31.2708C14.8222 31.2708 13.9097 32.1662 13.9097 33.2708C13.9097 34.3753 14.8222 35.2708 15.9479 35.2708Z" fill="var(--info-graphic-accent-color-med)"/>
<path d="M19 4H15C14.4473 4 14 4.44734 14 5C14 5.55266 14.4473 6 15 6H19C19.5527 6 20 5.55266 20 5C20 4.44734 19.5527 4 19 4Z" fill="var(--info-graphic-accent-color-med)"/>
<path d="M12 6C12.5523 6 13 5.55228 13 5C13 4.44772 12.5523 4 12 4C11.4477 4 11 4.44772 11 5C11 5.55228 11.4477 6 12 6Z" fill="var(--info-graphic-accent-color-med)"/>
<path d="M16 13C16 10.2386 18.2386 8 21 8H34C36.7614 8 39 10.2386 39 13C39 15.7614 36.7614 18 34 18H21C18.2386 18 16 15.7614 16 13Z" fill="var(--info-graphic-accent-color-light)"/>
<path d="M34.1506 19.0357C33.8312 17.8118 32.5606 17.1086 31.3813 17.6001C31.0774 16.4352 29.8928 15.6961 28.692 16.1387V13.1354C28.691 10.2904 24.539 10.286 24.538 13.1354V24.2121C23.4872 23.1227 22.5472 22.148 22.5449 22.1457C21.7356 21.3054 20.417 21.3054 19.6077 22.1458C18.7989 22.983 18.796 24.3499 19.6078 25.1909C19.8085 25.3989 24.8976 30.6755 25.0983 30.8836C26.4058 32.2393 28.1787 33.0001 30.0277 33C33.8787 32.9995 36.9996 29.7637 37 25.771C37 24.3353 37 24.5665 37 21.0315C36.9994 19.518 35.5251 18.4629 34.1506 19.0357Z" fill="var(--info-graphic-accent-color-med)"/>
<path d="M6 21L6 12.7637C6 12.3417 6.36747 12 6.82117 12L12.1788 12C12.6325 12 13 12.3417 13 12.7637L13 21L6 21Z" fill="var(--info-graphic-accent-color-light)"/>
<path d="M1.80156 20L16.1984 20C16.8582 20 17.2346 20.6747 16.8378 21.1467L9.63971 29.7142C9.31965 30.0953 8.68074 30.0953 8.36069 29.7142L1.16225 21.1467C0.765377 20.6747 1.14184 20 1.80156 20V20Z" fill="var(--info-graphic-accent-color-light)"/>
</svg>
