<svg width="280" height="293" viewBox="0 0 280 293" fill="none" xmlns="http://www.w3.org/2000/svg">
<path d="M104.875 205.918C104.875 180.558 84.3081 160 58.9375 160C33.5669 160 13 180.558 13 205.918C13 231.278 33.5669 251.836 58.9375 251.836C84.3081 251.836 104.875 231.278 104.875 205.918Z" fill="var(--info-graphic-accent-color-light)"/>
<path d="M32.3978 209.1H29.3407L28.5871 211.303H26.6392L30.2223 201.283H31.6584L35.2415 211.303H33.194L32.3978 209.1ZM29.8384 207.537H31.9712L31.2318 205.319L30.9332 203.756H30.8621L30.5635 205.334L29.8384 207.537ZM36.0586 204.197H37.4093L37.6225 205.049H37.6794C37.9261 204.689 38.2154 204.424 38.5468 204.253C38.888 204.083 39.3004 203.998 39.7838 203.998C40.6752 203.998 41.3435 204.282 41.7886 204.85C42.2343 205.409 42.4569 206.314 42.4569 207.565C42.4569 208.171 42.3858 208.721 42.2436 209.214C42.1014 209.697 41.8882 210.109 41.6038 210.45C41.3293 210.791 40.988 211.052 40.58 211.232C40.1819 211.412 39.7225 211.502 39.2008 211.502C38.9072 211.502 38.6654 211.478 38.4757 211.431C38.2864 211.393 38.0967 211.326 37.9069 211.232V214.146H36.0586V204.197ZM39.2293 205.561C38.8694 205.561 38.585 205.651 38.3761 205.831C38.1771 206.011 38.0207 206.281 37.9069 206.641V209.597C38.0398 209.701 38.182 209.787 38.3335 209.853C38.4948 209.91 38.7032 209.939 38.9591 209.939C39.4901 209.939 39.8882 209.754 40.1535 209.384C40.4193 209.005 40.5516 208.384 40.5516 207.522C40.5516 206.897 40.4477 206.414 40.2388 206.073C40.0304 205.732 39.6941 205.561 39.2293 205.561ZM43.7372 204.197H45.0879L45.3012 205.049H45.3581C45.6047 204.689 45.894 204.424 46.2254 204.253C46.5667 204.083 46.979 203.998 47.4625 203.998C48.3539 203.998 49.0222 204.282 49.4673 204.85C49.913 205.409 50.1356 206.314 50.1356 207.565C50.1356 208.171 50.0645 208.721 49.9223 209.214C49.7801 209.697 49.5668 210.109 49.2825 210.45C49.0079 210.791 48.6667 211.052 48.2587 211.232C47.8606 211.412 47.4012 211.502 46.8795 211.502C46.5858 211.502 46.3441 211.478 46.1543 211.431C45.9651 211.393 45.7754 211.326 45.5856 211.232V214.146H43.7372V204.197ZM46.9079 205.561C46.5481 205.561 46.2637 205.651 46.0548 205.831C45.8557 206.011 45.6993 206.281 45.5856 206.641V209.597C45.7185 209.701 45.8607 209.787 46.0122 209.853C46.1735 209.91 46.3818 209.939 46.6378 209.939C47.1688 209.939 47.5669 209.754 47.8322 209.384C48.0979 209.005 48.2303 208.384 48.2303 207.522C48.2303 206.897 48.1264 206.414 47.9175 206.073C47.7091 205.732 47.3728 205.561 46.9079 205.561ZM53.3211 208.915C53.3211 209.247 53.3638 209.488 53.4491 209.64C53.5344 209.792 53.6722 209.867 53.8614 209.867C53.9752 209.867 54.0846 209.858 54.1885 209.839C54.3022 209.82 54.44 209.777 54.6008 209.711L54.7999 211.161C54.6484 211.236 54.416 211.312 54.1032 211.388C53.7904 211.464 53.4682 211.502 53.1363 211.502C52.596 211.502 52.1836 211.378 51.8993 211.132C51.6149 210.877 51.4727 210.46 51.4727 209.882V201.354H53.3211V208.915ZM55.7662 204.197H57.6146V211.303H55.7662V204.197ZM55.4961 202.193C55.4961 201.918 55.5956 201.685 55.7947 201.496C56.003 201.297 56.2874 201.198 56.6478 201.198C57.0082 201.198 57.2969 201.297 57.5151 201.496C57.7426 201.685 57.8564 201.918 57.8564 202.193C57.8564 202.467 57.7426 202.699 57.5151 202.889C57.2969 203.069 57.0082 203.159 56.6478 203.159C56.2874 203.159 56.003 203.069 55.7947 202.889C55.5956 202.699 55.4961 202.467 55.4961 202.193ZM64.4473 210.862C64.1629 211.071 63.8173 211.227 63.4093 211.331C63.0112 211.445 62.5989 211.502 62.1723 211.502C61.6036 211.502 61.1201 211.412 60.722 211.232C60.3337 211.052 60.016 210.801 59.7693 210.479C59.5232 210.147 59.3428 209.749 59.229 209.285C59.1251 208.82 59.0726 208.308 59.0726 207.75C59.0726 206.546 59.3428 205.622 59.8831 204.978C60.4234 204.325 61.2104 203.998 62.2434 203.998C62.7651 203.998 63.1818 204.04 63.4946 204.126C63.8173 204.211 64.1061 204.32 64.362 204.452L63.9212 205.959C63.7036 205.855 63.4854 205.774 63.2672 205.717C63.0588 205.661 62.8171 205.632 62.542 205.632C62.0301 205.632 61.6418 205.803 61.3761 206.144C61.1108 206.475 60.9779 207.011 60.9779 207.75C60.9779 208.053 61.0113 208.333 61.0775 208.588C61.1442 208.844 61.2437 209.067 61.3761 209.256C61.5089 209.445 61.6796 209.597 61.8879 209.711C62.1061 209.815 62.3571 209.867 62.6415 209.867C62.9543 209.867 63.2201 209.829 63.4378 209.754C63.656 209.669 63.8501 209.569 64.0207 209.455L64.4473 210.862ZM65.5225 204.609C65.902 204.438 66.3521 204.305 66.8732 204.211C67.395 204.106 67.9397 204.055 68.5084 204.055C69.0017 204.055 69.414 204.116 69.7454 204.239C70.0774 204.353 70.3382 204.519 70.5275 204.737C70.7265 204.954 70.8643 205.215 70.9398 205.518C71.0251 205.821 71.0678 206.162 71.0678 206.542C71.0678 206.958 71.0536 207.38 71.0251 207.807C70.9967 208.223 70.9781 208.635 70.9682 209.043C70.9682 209.45 70.9825 209.848 71.0109 210.237C71.0393 210.616 71.1104 210.976 71.2242 211.317H69.717L69.4184 210.337H69.3473C69.1581 210.63 68.8923 210.886 68.5511 211.104C68.2196 211.312 67.7882 211.417 67.2572 211.417C66.9257 211.417 66.6271 211.369 66.3614 211.275C66.0961 211.17 65.8686 211.028 65.6789 210.848C65.4896 210.658 65.3425 210.44 65.2381 210.194C65.1342 209.939 65.0817 209.654 65.0817 209.342C65.0817 208.905 65.1768 208.541 65.3661 208.247C65.5651 207.944 65.8451 207.702 66.205 207.522C66.5747 207.333 67.0111 207.205 67.5131 207.139C68.025 207.063 68.5937 207.039 69.2193 207.068C69.2861 206.537 69.2478 206.158 69.1056 205.931C68.9634 205.693 68.6462 205.575 68.1529 205.575C67.7832 205.575 67.39 205.613 66.9728 205.689C66.5654 205.764 66.229 205.864 65.9632 205.987L65.5225 204.609ZM67.8686 209.896C68.2382 209.896 68.5325 209.815 68.7501 209.654C68.9683 209.484 69.1296 209.303 69.2336 209.114V208.19C68.9399 208.162 68.6555 208.157 68.3804 208.176C68.1152 208.195 67.8784 208.237 67.6695 208.304C67.4611 208.37 67.2954 208.465 67.1718 208.588C67.0488 208.711 66.987 208.868 66.987 209.057C66.987 209.322 67.063 209.531 67.2145 209.683C67.3758 209.825 67.594 209.896 67.8686 209.896ZM76.9702 211.303V207.267C76.9702 206.688 76.8849 206.272 76.7143 206.016C76.5529 205.76 76.2735 205.632 75.8754 205.632C75.5248 205.632 75.2262 205.736 74.9796 205.945C74.7428 206.144 74.5721 206.395 74.4677 206.698V211.303H72.6193V204.197H74.0838L74.2971 205.135H74.3539C74.5722 204.831 74.8609 204.566 75.2213 204.339C75.5817 204.111 76.046 203.998 76.6147 203.998C76.9653 203.998 77.2781 204.045 77.5532 204.14C77.8282 204.234 78.0601 204.391 78.2499 204.609C78.4396 204.826 78.5818 205.125 78.6764 205.504C78.7711 205.874 78.8186 206.333 78.8186 206.883V211.303H76.9702ZM79.628 204.197H80.6091V202.861L82.4575 202.335V204.197H84.1922V205.76H82.4575V208.489C82.4575 208.981 82.5046 209.337 82.5997 209.555C82.7036 209.763 82.8934 209.867 83.1685 209.867C83.3577 209.867 83.519 209.848 83.6519 209.811C83.7941 209.772 83.9505 209.716 84.1211 209.64L84.4482 211.061C84.1922 211.184 83.8936 211.289 83.5524 211.374C83.2111 211.459 82.865 211.502 82.5144 211.502C81.8604 211.502 81.3769 211.336 81.0641 211.005C80.7606 210.663 80.6091 210.109 80.6091 209.342V205.76H79.628V204.197ZM88.2675 209.342C88.2675 209.152 88.1872 209.001 88.0258 208.887C87.865 208.773 87.666 208.669 87.4286 208.574C87.1918 208.479 86.931 208.384 86.6466 208.29C86.3622 208.185 86.1019 208.048 85.8646 207.878C85.6278 207.697 85.4287 207.475 85.2674 207.21C85.1066 206.935 85.0257 206.584 85.0257 206.158C85.0257 205.457 85.2346 204.921 85.6513 204.552C86.0686 204.182 86.6707 203.998 87.4571 203.998C87.9974 203.998 88.4857 204.055 88.9216 204.168C89.358 204.282 89.6993 204.41 89.9454 204.552L89.533 205.888C89.3154 205.803 89.0403 205.712 88.7083 205.618C88.3769 205.523 88.04 205.476 87.6988 205.476C87.1492 205.476 86.8741 205.689 86.8741 206.115C86.8741 206.286 86.955 206.423 87.1158 206.528C87.2772 206.631 87.4762 206.731 87.713 206.826C87.9504 206.911 88.2107 207.006 88.495 207.11C88.7794 207.214 89.0403 207.352 89.2771 207.522C89.5144 207.683 89.7135 207.896 89.8743 208.162C90.0356 208.427 90.116 208.768 90.116 209.185C90.116 209.905 89.8841 210.474 89.4193 210.891C88.9643 211.298 88.2774 211.502 87.3575 211.502C86.8555 211.502 86.3814 211.435 85.9357 211.303C85.4998 211.179 85.1443 211.033 84.8693 210.862L85.3811 209.484C85.5993 209.607 85.8886 209.73 86.2485 209.853C86.6089 209.967 86.9786 210.024 87.3575 210.024C87.6326 210.024 87.8508 209.971 88.0116 209.867C88.1822 209.763 88.2675 209.588 88.2675 209.342Z" fill="var(--info-graphic-accent-color-white)"/>
<path d="M135.078 67.5103C135.078 30.2254 104.84 0 67.5391 0C30.2383 0 0 30.2254 0 67.5103C0 104.795 30.2383 135.021 67.5391 135.021C104.84 135.021 135.078 104.795 135.078 67.5103Z" fill="var(--info-graphic-accent-color-med)"/>
<path d="M28.6904 60.8551C29.2111 60.7556 29.7813 60.6812 30.4011 60.632C31.0332 60.5697 31.6593 60.5391 32.279 60.5391C32.9236 60.5391 33.5682 60.5949 34.2128 60.7064C34.8698 60.8053 35.4586 61.0158 35.9792 61.3383C36.4998 61.6477 36.9213 62.0877 37.2436 62.6579C37.5782 63.2155 37.7456 63.9463 37.7456 64.851C37.7456 65.6688 37.6031 66.3625 37.3179 66.9326C37.0328 67.4902 36.6548 67.9483 36.1837 68.308C35.7127 68.6671 35.1735 68.9273 34.5661 69.0886C33.9711 69.2493 33.3513 69.3302 32.7067 69.3302C32.6447 69.3302 32.5456 69.3302 32.4092 69.3302C32.2728 69.3302 32.1303 69.3302 31.9815 69.3302C31.8328 69.3176 31.684 69.305 31.5353 69.293C31.3989 69.2804 31.2998 69.2679 31.2378 69.2558V73.735H28.6904V60.8551ZM32.4836 62.7322C32.2357 62.7322 32.0001 62.7442 31.777 62.7694C31.5539 62.7814 31.3742 62.8 31.2378 62.8252V67.0441C31.2874 67.0562 31.3618 67.0687 31.4609 67.0813C31.5601 67.0933 31.6654 67.1059 31.777 67.1185C31.8886 67.1185 31.9939 67.1185 32.0931 67.1185C32.2046 67.1185 32.2853 67.1185 32.3348 67.1185C32.6695 67.1185 32.998 67.0873 33.3203 67.0255C33.655 66.9632 33.9525 66.8517 34.2128 66.691C34.4731 66.5172 34.6776 66.2821 34.8264 65.9847C34.9875 65.6874 35.0681 65.2971 35.0681 64.8138C35.0681 64.4049 34.9937 64.0704 34.845 63.8102C34.6962 63.5374 34.4979 63.3204 34.25 63.1597C34.0145 62.9984 33.7418 62.8869 33.4318 62.8252C33.122 62.7628 32.8059 62.7322 32.4836 62.7322ZM43.8624 66.7096C43.4781 66.5729 43.131 66.5051 42.8211 66.5051C42.3872 66.5051 42.0216 66.6227 41.7241 66.8583C41.439 67.0813 41.2468 67.3721 41.1477 67.7318V73.735H38.7305V64.4421H40.6085L40.8874 65.6688H40.9618C41.1725 65.2101 41.4576 64.857 41.8171 64.6094C42.1765 64.3612 42.598 64.2377 43.0814 64.2377C43.4037 64.2377 43.7694 64.3055 44.1785 64.4421L43.8624 66.7096ZM44.803 69.0886C44.803 67.5148 45.1872 66.3067 45.9558 65.4643C46.7243 64.6094 47.8027 64.1819 49.1911 64.1819C49.9348 64.1819 50.5794 64.2994 51.1248 64.535C51.6702 64.7701 52.1227 65.1046 52.4822 65.5387C52.8416 65.9596 53.1082 66.474 53.2817 67.0813C53.4676 67.6881 53.5606 68.3572 53.5606 69.0886C53.5606 70.6618 53.1763 71.8764 52.4078 72.7314C51.6516 73.5738 50.5794 73.9952 49.1911 73.9952C48.4473 73.9952 47.8027 73.8772 47.2573 73.6421C46.7119 73.4065 46.2533 73.078 45.8814 72.6571C45.5219 72.223 45.2492 71.7026 45.0633 71.0958C44.8897 70.4885 44.803 69.8194 44.803 69.0886ZM47.2945 69.0886C47.2945 69.4975 47.3317 69.8752 47.4061 70.2223C47.4805 70.5689 47.592 70.8728 47.7408 71.133C47.8895 71.3932 48.0816 71.5977 48.3172 71.7463C48.5651 71.8825 48.8564 71.9508 49.1911 71.9508C49.8233 71.9508 50.2943 71.7212 50.6042 71.2631C50.9141 70.8045 51.069 70.0796 51.069 69.0886C51.069 68.2336 50.9265 67.546 50.6414 67.0255C50.3563 66.4926 49.8729 66.2264 49.1911 66.2264C48.5961 66.2264 48.1312 66.4494 47.7965 66.8954C47.4619 67.3415 47.2945 68.0724 47.2945 69.0886ZM55.2361 64.4421H57.0027L57.2817 65.5573H57.356C57.6781 65.0861 58.056 64.7395 58.4903 64.5165C58.9365 64.2934 59.4757 64.1819 60.1079 64.1819C61.2728 64.1819 62.1467 64.5536 62.7296 65.2971C63.312 66.0279 63.6035 67.2114 63.6035 68.847C63.6035 69.6396 63.5106 70.3584 63.3246 71.0029C63.1387 71.6348 62.8598 72.1738 62.4879 72.6199C62.1281 73.0659 61.6818 73.4065 61.1492 73.6421C60.6285 73.8772 60.027 73.9952 59.3456 73.9952C58.9611 73.9952 58.645 73.9641 58.3973 73.9023C58.149 73.8526 57.9013 73.7656 57.6535 73.6421V77.4522H55.2361V64.4421ZM59.3828 66.2264C58.9113 66.2264 58.5395 66.3439 58.2671 66.5795C58.0068 66.8145 57.8023 67.1677 57.6535 67.6389V71.5047C57.8269 71.6408 58.0128 71.7524 58.2113 71.8393C58.4219 71.9136 58.6948 71.9508 59.0295 71.9508C59.7235 71.9508 60.2441 71.7092 60.5913 71.2259C60.9381 70.7301 61.112 69.9184 61.112 68.7912C61.112 67.9734 60.9752 67.3415 60.7029 66.8954C60.43 66.4494 59.9898 66.2264 59.3828 66.2264ZM72.715 72.9358C72.3431 73.2332 71.8346 73.4869 71.1903 73.6979C70.5581 73.8957 69.8822 73.9952 69.1636 73.9952C67.6635 73.9952 66.5665 73.5612 65.8725 72.6942C65.178 71.8141 64.8313 70.6126 64.8313 69.0886C64.8313 67.453 65.2217 66.2264 66.0027 65.4086C66.7836 64.5908 67.8806 64.1819 69.2938 64.1819C69.7646 64.1819 70.2235 64.2437 70.6697 64.3678C71.116 64.4913 71.5124 64.6958 71.8597 64.9811C72.2064 65.2659 72.4853 65.6502 72.6964 66.1334C72.907 66.6167 73.0125 67.2174 73.0125 67.9363C73.0125 68.1965 72.9939 68.4752 72.9567 68.7726C72.9316 69.07 72.8884 69.3794 72.8266 69.7019H67.2485C67.2856 70.4825 67.4836 71.0707 67.8435 71.4676C68.2153 71.8639 68.8103 72.0623 69.6284 72.0623C70.1365 72.0623 70.5888 71.988 70.9858 71.8393C71.3949 71.678 71.7044 71.5168 71.9155 71.356L72.715 72.9358ZM69.2566 66.1148C68.6244 66.1148 68.153 66.3067 67.8435 66.691C67.546 67.0627 67.366 67.5645 67.3042 68.1965H70.7627C70.8119 67.5274 70.7069 67.013 70.4466 66.6538C70.1983 66.2941 69.8018 66.1148 69.2566 66.1148ZM79.8512 66.7096C79.4673 66.5729 79.12 66.5051 78.8099 66.5051C78.3763 66.5051 78.0104 66.6227 77.7129 66.8583C77.428 67.0813 77.236 67.3721 77.1365 67.7318V73.735H74.7193V64.4421H76.5973L76.8762 65.6688H76.9506C77.1617 65.2101 77.4466 64.857 77.8059 64.6094C78.1657 64.3612 78.5868 64.2377 79.0703 64.2377C79.3929 64.2377 79.7582 64.3055 80.1673 64.4421L79.8512 66.7096ZM80.8345 64.4421H82.1174V62.6951L84.5346 62.0074V64.4421H86.8031V66.4866H84.5346V70.055C84.5346 70.699 84.5964 71.1636 84.7206 71.449C84.8567 71.7212 85.1045 71.8579 85.4643 71.8579C85.7121 71.8579 85.9226 71.8327 86.0965 71.7835C86.2824 71.7338 86.487 71.6594 86.7101 71.5605L87.1378 73.4191C86.8031 73.5798 86.4126 73.7164 85.9663 73.828C85.5201 73.9395 85.0673 73.9952 84.609 73.9952C83.7537 73.9952 83.1215 73.7782 82.7124 73.3447C82.3154 72.8987 82.1174 72.1738 82.1174 71.1702V66.4866H80.8345V64.4421ZM88.5066 64.4421H90.9238V73.735H88.5066V64.4421ZM88.1533 61.8215C88.1533 61.4618 88.2835 61.1584 88.5438 60.9108C88.8167 60.6506 89.1885 60.5205 89.6594 60.5205C90.1308 60.5205 90.5087 60.6506 90.7936 60.9108C91.0911 61.1584 91.2399 61.4618 91.2399 61.8215C91.2399 62.1807 91.0911 62.484 90.7936 62.7322C90.5087 62.9673 90.1308 63.0854 89.6594 63.0854C89.1885 63.0854 88.8167 62.9673 88.5438 62.7322C88.2835 62.484 88.1533 62.1807 88.1533 61.8215ZM100.714 72.9358C100.343 73.2332 99.8345 73.4869 99.1898 73.6979C98.5576 73.8957 97.8822 73.9952 97.1631 73.9952C95.663 73.9952 94.566 73.5612 93.872 72.6942C93.178 71.8141 92.8307 70.6126 92.8307 69.0886C92.8307 67.453 93.2212 66.2264 94.0021 65.4086C94.7831 64.5908 95.8801 64.1819 97.2932 64.1819C97.7641 64.1819 98.2229 64.2437 98.6692 64.3678C99.1154 64.4913 99.5119 64.6958 99.8592 64.9811C100.206 65.2659 100.485 65.6502 100.696 66.1334C100.906 66.6167 101.012 67.2174 101.012 67.9363C101.012 68.1965 100.993 68.4752 100.956 68.7726C100.932 69.07 100.888 69.3794 100.826 69.7019H95.2479C95.2851 70.4825 95.4836 71.0707 95.8429 71.4676C96.2148 71.8639 96.8098 72.0623 97.6279 72.0623C98.136 72.0623 98.5888 71.988 98.9853 71.8393C99.3943 71.678 99.7044 71.5168 99.9149 71.356L100.714 72.9358ZM97.256 66.1148C96.6238 66.1148 96.153 66.3067 95.8429 66.691C95.5454 67.0627 95.3655 67.5645 95.3037 68.1965H98.7621C98.8119 67.5274 98.7063 67.013 98.446 66.6538C98.1983 66.2941 97.8013 66.1148 97.256 66.1148ZM106.568 71.1702C106.568 70.922 106.463 70.7241 106.252 70.5754C106.041 70.4268 105.781 70.2901 105.471 70.1665C105.161 70.0425 104.82 69.9184 104.449 69.7948C104.077 69.6582 103.735 69.4789 103.426 69.2558C103.116 69.0202 102.855 68.7289 102.645 68.3823C102.434 68.0226 102.329 67.5645 102.329 67.007C102.329 66.0897 102.601 65.39 103.147 64.9068C103.692 64.4235 104.479 64.1819 105.508 64.1819C106.215 64.1819 106.853 64.2563 107.424 64.4049C107.993 64.5536 108.44 64.7209 108.762 64.9068L108.223 66.6538C107.938 66.5423 107.578 66.4242 107.145 66.3007C106.71 66.1766 106.271 66.1148 105.824 66.1148C105.105 66.1148 104.746 66.3936 104.746 66.9512C104.746 67.1742 104.851 67.3535 105.062 67.4902C105.273 67.6263 105.533 67.7564 105.843 67.8805C106.153 67.992 106.494 68.1155 106.866 68.2522C107.238 68.3883 107.578 68.5682 107.888 68.7912C108.198 69.0017 108.458 69.2804 108.669 69.6276C108.88 69.9741 108.985 70.4202 108.985 70.9657C108.985 71.9071 108.681 72.6505 108.074 73.196C107.479 73.7285 106.58 73.9952 105.378 73.9952C104.721 73.9952 104.101 73.9083 103.519 73.735C102.948 73.5738 102.484 73.3819 102.124 73.1589L102.794 71.356C103.079 71.5168 103.457 71.678 103.928 71.8393C104.399 71.988 104.882 72.0623 105.378 72.0623C105.738 72.0623 106.022 71.994 106.234 71.8579C106.457 71.7212 106.568 71.4922 106.568 71.1702Z" fill="var(--info-graphic-accent-color-white)"/>
<path d="M280 238.062C280 207.721 255.393 183.125 225.039 183.125C194.685 183.125 170.078 207.721 170.078 238.062C170.078 268.404 194.685 293 225.039 293C255.393 293 280 268.404 280 238.062Z" fill="#A0C862"/>
<path d="M199.578 235.856H196.231V245.335H193.984V235.856H190.62V233.856H199.578V235.856ZM205.163 244.63C204.835 244.892 204.387 245.117 203.818 245.302C203.26 245.477 202.664 245.565 202.03 245.565C200.706 245.565 199.738 245.182 199.126 244.417C198.513 243.641 198.207 242.58 198.207 241.235C198.207 239.792 198.552 238.71 199.241 237.988C199.93 237.267 200.898 236.906 202.145 236.906C202.56 236.906 202.965 236.961 203.359 237.07C203.752 237.179 204.102 237.36 204.409 237.611C204.715 237.863 204.961 238.201 205.147 238.628C205.333 239.054 205.426 239.584 205.426 240.219C205.426 240.448 205.41 240.694 205.377 240.957C205.355 241.219 205.317 241.492 205.262 241.777H200.34C200.373 242.465 200.548 242.985 200.865 243.334C201.193 243.684 201.718 243.859 202.44 243.859C202.888 243.859 203.288 243.794 203.638 243.662C203.999 243.52 204.272 243.378 204.458 243.236L205.163 244.63ZM202.112 238.611C201.554 238.611 201.138 238.781 200.865 239.12C200.602 239.448 200.444 239.891 200.389 240.448H203.441C203.485 239.858 203.392 239.404 203.162 239.087C202.943 238.77 202.593 238.611 202.112 238.611ZM211.952 245.335V240.678C211.952 240.011 211.854 239.53 211.657 239.235C211.471 238.939 211.148 238.792 210.689 238.792C210.284 238.792 209.94 238.912 209.655 239.153C209.382 239.382 209.185 239.672 209.065 240.022V245.335H206.932V237.136H208.622L208.868 238.218H208.934C209.185 237.868 209.519 237.562 209.934 237.3C210.35 237.037 210.886 236.906 211.542 236.906C211.947 236.906 212.308 236.961 212.625 237.07C212.942 237.179 213.21 237.36 213.429 237.611C213.648 237.863 213.812 238.207 213.921 238.644C214.03 239.071 214.085 239.601 214.085 240.235V245.335H211.952ZM215.823 237.611C216.261 237.414 216.78 237.261 217.382 237.152C217.983 237.032 218.612 236.972 219.268 236.972C219.837 236.972 220.313 237.043 220.696 237.185C221.079 237.316 221.379 237.507 221.598 237.759C221.828 238.01 221.986 238.311 222.074 238.661C222.172 239.011 222.222 239.404 222.222 239.841C222.222 240.322 222.205 240.809 222.172 241.301C222.14 241.782 222.118 242.258 222.107 242.728C222.107 243.198 222.123 243.657 222.156 244.105C222.189 244.543 222.271 244.958 222.402 245.352H220.663L220.318 244.22H220.236C220.018 244.559 219.711 244.854 219.318 245.106C218.935 245.346 218.437 245.466 217.825 245.466C217.442 245.466 217.097 245.412 216.791 245.302C216.485 245.182 216.222 245.018 216.004 244.81C215.785 244.592 215.615 244.34 215.495 244.056C215.375 243.761 215.314 243.433 215.314 243.072C215.314 242.569 215.424 242.148 215.643 241.809C215.872 241.459 216.195 241.181 216.611 240.973C217.037 240.754 217.54 240.607 218.12 240.53C218.711 240.443 219.367 240.415 220.089 240.448C220.165 239.836 220.122 239.399 219.957 239.136C219.793 238.863 219.427 238.726 218.858 238.726C218.432 238.726 217.978 238.77 217.497 238.857C217.026 238.945 216.638 239.06 216.332 239.202L215.823 237.611ZM218.53 243.712C218.957 243.712 219.296 243.619 219.547 243.433C219.799 243.236 219.985 243.028 220.105 242.81V241.744C219.766 241.711 219.438 241.705 219.121 241.727C218.815 241.749 218.541 241.798 218.3 241.875C218.06 241.951 217.868 242.061 217.726 242.203C217.584 242.345 217.513 242.525 217.513 242.744C217.513 243.05 217.6 243.291 217.775 243.466C217.961 243.63 218.213 243.712 218.53 243.712ZM229.032 245.335V240.678C229.032 240.011 228.933 239.53 228.736 239.235C228.551 238.939 228.228 238.792 227.768 238.792C227.364 238.792 227.019 238.912 226.735 239.153C226.461 239.382 226.265 239.672 226.144 240.022V245.335H224.011V237.136H225.701L225.947 238.218H226.013C226.265 237.868 226.598 237.562 227.014 237.3C227.429 237.037 227.965 236.906 228.622 236.906C229.026 236.906 229.387 236.961 229.704 237.07C230.022 237.179 230.29 237.36 230.508 237.611C230.727 237.863 230.891 238.207 231.001 238.644C231.11 239.071 231.165 239.601 231.165 240.235V245.335H229.032ZM238.759 244.827C238.431 245.067 238.032 245.248 237.561 245.368C237.102 245.499 236.626 245.565 236.134 245.565C235.478 245.565 234.92 245.461 234.461 245.253C234.012 245.045 233.646 244.756 233.361 244.384C233.077 244.001 232.869 243.542 232.738 243.006C232.618 242.471 232.557 241.88 232.557 241.235C232.557 239.847 232.869 238.781 233.493 238.038C234.116 237.283 235.024 236.906 236.216 236.906C236.818 236.906 237.299 236.955 237.66 237.054C238.032 237.152 238.365 237.278 238.661 237.431L238.152 239.169C237.9 239.049 237.649 238.956 237.397 238.89C237.157 238.825 236.878 238.792 236.561 238.792C235.97 238.792 235.522 238.989 235.215 239.382C234.909 239.765 234.756 240.383 234.756 241.235C234.756 241.585 234.794 241.908 234.871 242.203C234.947 242.498 235.062 242.755 235.215 242.974C235.368 243.192 235.565 243.367 235.806 243.498C236.057 243.619 236.347 243.679 236.675 243.679C237.036 243.679 237.343 243.635 237.594 243.548C237.846 243.449 238.07 243.334 238.267 243.203L238.759 244.827ZM240.246 237.136H242.379V245.335H240.246V237.136ZM239.934 234.823C239.934 234.506 240.049 234.238 240.279 234.02C240.519 233.79 240.848 233.675 241.263 233.675C241.679 233.675 242.012 233.79 242.264 234.02C242.526 234.238 242.658 234.506 242.658 234.823C242.658 235.14 242.526 235.408 242.264 235.627C242.012 235.835 241.679 235.938 241.263 235.938C240.848 235.938 240.519 235.835 240.279 235.627C240.049 235.408 239.934 235.14 239.934 234.823ZM251.018 244.63C250.69 244.892 250.241 245.117 249.672 245.302C249.115 245.477 248.519 245.565 247.884 245.565C246.561 245.565 245.593 245.182 244.98 244.417C244.368 243.641 244.062 242.58 244.062 241.235C244.062 239.792 244.406 238.71 245.095 237.988C245.784 237.267 246.752 236.906 247.999 236.906C248.415 236.906 248.819 236.961 249.213 237.07C249.607 237.179 249.957 237.36 250.263 237.611C250.569 237.863 250.815 238.201 251.001 238.628C251.187 239.054 251.28 239.584 251.28 240.219C251.28 240.448 251.264 240.694 251.231 240.957C251.209 241.219 251.171 241.492 251.116 241.777H246.194C246.227 242.465 246.402 242.985 246.719 243.334C247.047 243.684 247.572 243.859 248.294 243.859C248.743 243.859 249.142 243.794 249.492 243.662C249.853 243.52 250.126 243.378 250.312 243.236L251.018 244.63ZM247.966 238.611C247.408 238.611 246.993 238.781 246.719 239.12C246.457 239.448 246.298 239.891 246.244 240.448H249.295C249.339 239.858 249.246 239.404 249.016 239.087C248.797 238.77 248.447 238.611 247.966 238.611ZM256.182 243.072C256.182 242.853 256.089 242.678 255.904 242.547C255.718 242.416 255.488 242.296 255.215 242.187C254.941 242.077 254.64 241.968 254.312 241.859C253.984 241.738 253.683 241.58 253.41 241.383C253.136 241.175 252.907 240.918 252.721 240.612C252.535 240.295 252.442 239.891 252.442 239.399C252.442 238.59 252.682 237.972 253.164 237.546C253.645 237.119 254.34 236.906 255.247 236.906C255.871 236.906 256.434 236.972 256.937 237.103C257.44 237.234 257.834 237.382 258.118 237.546L257.643 239.087C257.391 238.989 257.074 238.885 256.691 238.775C256.308 238.666 255.92 238.611 255.526 238.611C254.892 238.611 254.575 238.857 254.575 239.349C254.575 239.546 254.668 239.705 254.854 239.825C255.04 239.945 255.269 240.06 255.543 240.169C255.816 240.268 256.117 240.377 256.445 240.497C256.773 240.618 257.074 240.776 257.347 240.973C257.621 241.159 257.85 241.405 258.036 241.711C258.222 242.017 258.315 242.411 258.315 242.892C258.315 243.723 258.047 244.379 257.511 244.86C256.986 245.33 256.193 245.565 255.132 245.565C254.553 245.565 254.006 245.488 253.492 245.335C252.989 245.193 252.579 245.024 252.261 244.827L252.852 243.236C253.104 243.378 253.437 243.52 253.853 243.662C254.268 243.794 254.695 243.859 255.132 243.859C255.45 243.859 255.701 243.799 255.887 243.679C256.084 243.559 256.182 243.356 256.182 243.072Z" fill="var(--info-graphic-accent-color-white)"/>
<path d="M269.609 48.3778C269.609 29.207 254.062 13.666 234.883 13.666C215.704 13.666 200.156 29.207 200.156 48.3778C200.156 67.5485 215.704 83.0895 234.883 83.0895C254.062 83.0895 269.609 67.5485 269.609 48.3778Z" fill="#006580"/>
<path d="M274 106C274 98.8203 268.18 93 261 93C253.82 93 248 98.8203 248 106C248 113.18 253.82 119 261 119C268.18 119 274 113.18 274 106Z" fill="var(--info-graphic-accent-color-lightest)"/>
<path d="M53 125.5C53 114.73 44.2696 106 33.5 106C22.7304 106 14 114.73 14 125.5C14 136.27 22.7304 145 33.5 145C44.2696 145 53 136.27 53 125.5Z" fill="#E3EED1"/>
<path d="M148 260C148 252.268 141.732 246 134 246C126.268 246 120 252.268 120 260C120 267.732 126.268 274 134 274C141.732 274 148 267.732 148 260Z" fill="var(--info-graphic-accent-color-white)"/>
<path d="M221.023 52.7073C220.79 52.8749 220.491 52.9952 220.127 53.068C219.769 53.1409 219.401 53.1774 219.022 53.1774C218.562 53.1774 218.125 53.1081 217.709 52.9696C217.301 52.8239 216.94 52.5943 216.627 52.2809C216.313 51.9602 216.061 51.5484 215.872 51.0455C215.689 50.5353 215.598 49.9194 215.598 49.1978C215.598 48.4471 215.7 47.8203 215.905 47.3174C216.116 46.8072 216.386 46.399 216.714 46.0929C217.049 45.7795 217.421 45.5572 217.83 45.426C218.238 45.2875 218.646 45.2183 219.055 45.2183C219.492 45.2183 219.86 45.2474 220.159 45.3057C220.466 45.364 220.717 45.4333 220.914 45.5134L220.619 46.7817C220.451 46.7015 220.25 46.6432 220.017 46.6067C219.791 46.5703 219.514 46.5521 219.186 46.5521C218.58 46.5521 218.092 46.7671 217.72 47.1971C217.356 47.6271 217.173 48.2941 217.173 49.1978C217.173 49.5914 217.217 49.9522 217.305 50.2802C217.392 50.6009 217.523 50.8778 217.698 51.1111C217.88 51.337 218.103 51.5156 218.366 51.6468C218.635 51.7707 218.945 51.8326 219.295 51.8326C219.623 51.8326 219.9 51.7998 220.127 51.7342C220.352 51.6686 220.549 51.5848 220.717 51.4828L221.023 52.7073ZM221.258 50.2911C221.258 49.3655 221.484 48.6548 221.936 48.1592C222.388 47.6563 223.022 47.4048 223.839 47.4048C224.277 47.4048 224.656 47.4741 224.977 47.6126C225.297 47.751 225.564 47.9478 225.775 48.2029C225.986 48.4507 226.143 48.7532 226.245 49.1104C226.355 49.4675 226.41 49.8611 226.41 50.2911C226.41 51.2167 226.183 51.931 225.731 52.4339C225.286 52.9296 224.656 53.1774 223.839 53.1774C223.402 53.1774 223.022 53.1081 222.702 52.9696C222.381 52.8312 222.111 52.638 221.892 52.3902C221.681 52.1351 221.52 51.829 221.411 51.4718C221.309 51.1147 221.258 50.7211 221.258 50.2911ZM222.724 50.2911C222.724 50.5316 222.745 50.7539 222.789 50.958C222.833 51.1621 222.899 51.3406 222.986 51.4937C223.074 51.6468 223.186 51.767 223.325 51.8545C223.471 51.9347 223.642 51.9748 223.839 51.9748C224.211 51.9748 224.488 51.8399 224.67 51.5702C224.853 51.3006 224.944 50.8742 224.944 50.2911C224.944 49.7882 224.86 49.3837 224.692 49.0776C224.524 48.7642 224.24 48.6074 223.839 48.6074C223.489 48.6074 223.216 48.7386 223.019 49.001C222.822 49.2634 222.724 49.6935 222.724 50.2911ZM230.742 53.0243V49.9194C230.742 49.4748 230.676 49.1541 230.545 48.9573C230.421 48.7605 230.206 48.6621 229.9 48.6621C229.63 48.6621 229.4 48.7423 229.211 48.9026C229.029 49.0557 228.897 49.2488 228.817 49.4821V53.0243H227.395V47.5579H228.522L228.686 48.2795H228.729C228.897 48.0462 229.119 47.8421 229.397 47.6672C229.674 47.4923 230.031 47.4048 230.468 47.4048C230.738 47.4048 230.979 47.4413 231.19 47.5142C231.402 47.587 231.58 47.7073 231.726 47.8749C231.872 48.0426 231.982 48.2722 232.054 48.5637C232.127 48.848 232.164 49.2015 232.164 49.6242V53.0243H230.742ZM232.786 47.5579H233.541V46.5302L234.963 46.1257V47.5579H236.297V48.7605H234.963V50.8596C234.963 51.2386 234.999 51.5119 235.072 51.6796C235.152 51.8399 235.298 51.9201 235.51 51.9201C235.656 51.9201 235.78 51.9055 235.881 51.8764C235.991 51.8472 236.111 51.8035 236.242 51.7452L236.494 52.8385C236.297 52.9332 236.067 53.0134 235.805 53.079C235.542 53.1446 235.277 53.1774 235.006 53.1774C234.503 53.1774 234.131 53.0498 233.891 52.7947C233.658 52.5323 233.541 52.1059 233.541 51.5156V48.7605H232.786V47.5579ZM237.135 47.8749C237.427 47.7437 237.774 47.6417 238.174 47.5688C238.575 47.4886 238.995 47.4486 239.432 47.4486C239.811 47.4486 240.128 47.496 240.384 47.5907C240.639 47.6781 240.839 47.8057 240.985 47.9733C241.139 48.141 241.244 48.3414 241.303 48.5746C241.368 48.8079 241.401 49.0703 241.401 49.3618C241.401 49.6825 241.39 50.0068 241.368 50.3348C241.346 50.6555 241.332 50.9726 241.324 51.286C241.324 51.5994 241.335 51.9055 241.357 52.2043C241.379 52.4959 241.434 52.7729 241.521 53.0352H240.362L240.132 52.2809H240.078C239.932 52.5068 239.728 52.7036 239.465 52.8712C239.21 53.0316 238.878 53.1118 238.47 53.1118C238.214 53.1118 237.985 53.0753 237.781 53.0024C237.577 52.9223 237.402 52.8129 237.256 52.6745C237.11 52.5287 236.997 52.3611 236.917 52.1715C236.836 51.9748 236.796 51.7561 236.796 51.5156C236.796 51.1803 236.869 50.8997 237.015 50.6737C237.168 50.4405 237.383 50.2546 237.66 50.1162C237.945 49.9704 238.28 49.872 238.667 49.821C239.06 49.7627 239.498 49.7445 239.979 49.7663C240.03 49.3581 240.001 49.0666 239.892 48.8917C239.782 48.7095 239.538 48.6184 239.159 48.6184C238.874 48.6184 238.572 48.6475 238.251 48.7058C237.938 48.7642 237.678 48.8407 237.474 48.9354L237.135 47.8749ZM238.94 51.942C239.224 51.942 239.45 51.88 239.618 51.7561C239.786 51.6249 239.91 51.4864 239.99 51.3407V50.63C239.764 50.6082 239.546 50.6045 239.334 50.6191C239.13 50.6337 238.947 50.6665 238.787 50.7175C238.627 50.7685 238.499 50.8414 238.404 50.9361C238.31 51.0309 238.262 51.1511 238.262 51.2969C238.262 51.501 238.32 51.6614 238.437 51.778C238.561 51.8873 238.728 51.942 238.94 51.942ZM246.466 52.6854C246.247 52.8457 245.981 52.966 245.668 53.0462C245.362 53.1336 245.044 53.1774 244.716 53.1774C244.279 53.1774 243.907 53.1081 243.601 52.9696C243.301 52.8312 243.058 52.638 242.868 52.3902C242.678 52.1351 242.54 51.829 242.452 51.4718C242.372 51.1147 242.332 50.7211 242.332 50.2911C242.332 49.3655 242.54 48.6548 242.955 48.1592C243.371 47.6563 243.976 47.4048 244.771 47.4048C245.172 47.4048 245.493 47.4376 245.733 47.5032C245.981 47.5688 246.204 47.6526 246.401 47.7547L246.062 48.9136C245.894 48.8334 245.726 48.7714 245.558 48.7277C245.398 48.684 245.212 48.6621 245.001 48.6621C244.607 48.6621 244.308 48.7933 244.104 49.0557C243.9 49.3108 243.797 49.7226 243.797 50.2911C243.797 50.5244 243.823 50.7393 243.874 50.9361C243.925 51.1329 244.001 51.3042 244.104 51.45C244.206 51.5958 244.337 51.7124 244.497 51.7998C244.665 51.88 244.858 51.9201 245.077 51.9201C245.318 51.9201 245.522 51.891 245.69 51.8326C245.858 51.767 246.007 51.6905 246.138 51.603L246.466 52.6854ZM246.757 47.5579H247.512V46.5302L248.934 46.1257V47.5579H250.268V48.7605H248.934V50.8596C248.934 51.2386 248.97 51.5119 249.043 51.6796C249.123 51.8399 249.269 51.9201 249.481 51.9201C249.627 51.9201 249.751 51.9055 249.852 51.8764C249.962 51.8472 250.082 51.8035 250.213 51.7452L250.465 52.8385C250.268 52.9332 250.038 53.0134 249.776 53.079C249.513 53.1446 249.248 53.1774 248.977 53.1774C248.474 53.1774 248.102 53.0498 247.862 52.7947C247.629 52.5323 247.512 52.1059 247.512 51.5156V48.7605H246.757V47.5579ZM253.403 51.5156C253.403 51.3698 253.342 51.2532 253.217 51.1657C253.093 51.0783 252.94 50.9981 252.758 50.9252C252.576 50.8523 252.375 50.7794 252.156 50.7065C251.938 50.6264 251.737 50.5207 251.555 50.3895C251.373 50.251 251.22 50.0797 251.096 49.8756C250.971 49.6643 250.91 49.3946 250.91 49.0666C250.91 48.5273 251.07 48.1155 251.391 47.8312C251.712 47.547 252.174 47.4048 252.78 47.4048C253.196 47.4048 253.571 47.4486 253.906 47.536C254.242 47.6235 254.504 47.7219 254.694 47.8312L254.377 48.8589C254.209 48.7933 253.998 48.724 253.742 48.6512C253.487 48.5783 253.228 48.5418 252.966 48.5418C252.543 48.5418 252.331 48.7058 252.331 49.0338C252.331 49.165 252.393 49.2707 252.517 49.3509C252.642 49.4311 252.795 49.5076 252.977 49.5805C253.159 49.6461 253.36 49.7189 253.578 49.7991C253.797 49.8793 253.998 49.985 254.18 50.1162C254.362 50.2401 254.515 50.4041 254.639 50.6082C254.763 50.8122 254.825 51.0746 254.825 51.3953C254.825 51.9492 254.646 52.3865 254.289 52.7073C253.939 53.0206 253.41 53.1774 252.703 53.1774C252.317 53.1774 251.952 53.1264 251.61 53.0243C251.274 52.9296 251.001 52.8166 250.789 52.6854L251.183 51.6249C251.351 51.7196 251.573 51.8144 251.85 51.9092C252.127 51.9966 252.412 52.0404 252.703 52.0404C252.915 52.0404 253.082 52.0003 253.206 51.9201C253.338 51.8399 253.403 51.7051 253.403 51.5156Z" fill="var(--info-graphic-accent-color-white)"/>
<path d="M186.811 36H110.44C103.03 36 97.0022 42.1639 97.0022 49.7386V214.261C97.0022 221.836 103.03 228 110.44 228H186.811C194.221 228 200.251 221.836 200.251 214.261V49.7386C200.251 42.1639 194.221 36 186.811 36V36Z" fill="var(--info-graphic-accent-color-darkest)"/>
<path d="M122.878 46.1879C122.151 45.0826 121.726 43.753 121.726 42.3211C121.726 39.5101 123.363 37.0947 125.712 36H110.44C103.018 36 97 42.1516 97 49.7386V214.261C97 221.848 103.018 227.998 110.44 227.998H126.676V58.2279C126.676 53.9074 125.237 49.7739 122.878 46.1879V46.1879Z" fill="var(--info-graphic-accent-color-darkest)"/>
<path d="M104.78 122.775V214.261C104.78 217.457 107.314 220.047 110.438 220.047H186.809C189.934 220.047 192.467 217.457 192.467 214.261C192.467 211.122 192.467 165.292 192.467 122.775H104.78Z" fill="var(--info-graphic-accent-color-darkest)"/>
<path d="M186.765 43.9536H175.415C174.345 43.9536 173.477 44.84 173.477 45.9329C173.477 48.5585 171.377 50.7055 168.81 50.7055H128.353C125.784 50.7055 123.684 48.5585 123.684 45.9329C123.684 44.84 122.817 43.9536 121.746 43.9536H110.396C107.27 43.9536 104.736 46.5438 104.736 49.7379V206.171C104.736 213.903 111.004 220.171 118.736 220.171H178.425C186.157 220.171 192.425 213.903 192.425 206.171V49.7379C192.425 46.5438 189.892 43.9536 186.765 43.9536Z" fill="var(--info-graphic-accent-color-white)"/>
<path d="M111.567 153.491L148.67 117.03L185.774 153.491V203.843H111.567V153.491Z" fill="var(--info-graphic-accent-color-darkest)"/>
<path d="M111.567 153.491L148.67 117.03L185.774 153.491V182.139L111.567 153.491Z" fill="var(--info-graphic-accent-color-lightest)"/>
<path d="M185.774 203.843H164.054L133.286 132.148L148.67 117.03L185.774 153.491V203.843Z" fill="var(--info-graphic-accent-color-light)"/>
<path d="M185.774 153.491V182.139L148.67 167.995L133.286 132.148L148.67 117.03L185.774 153.491Z" fill="#32BCFA"/>
<rect x="113.13" y="78.2456" width="38.4051" height="38.4051" rx="19.2026" fill="#FFEFDD"/>
<rect x="148.463" y="69.0283" width="66.825" height="66.825" rx="33.4125" fill="#E3EED1"/>
<g clip-path="url(#clip0_560_302)">
<path d="M225.559 124.682C224.31 120.009 219.34 117.324 214.727 119.201C213.538 114.753 208.904 111.931 204.207 113.621V102.154C204.203 91.2911 187.962 91.2742 187.958 102.154V144.447C183.848 140.287 180.171 136.566 180.162 136.557C176.996 133.348 171.838 133.348 168.673 136.557C165.509 139.753 165.498 144.973 168.673 148.184C169.458 148.978 189.365 169.125 190.15 169.919C195.265 175.096 202.199 178 209.432 178V178C224.496 177.999 236.704 165.644 236.705 150.399C236.705 144.917 236.705 145.8 236.705 132.302C236.703 126.523 230.936 122.495 225.559 124.682Z" fill="var(--info-graphic-accent-color-bright)"/>
</g>
<rect x="143.086" y="59.811" width="16.1302" height="16.1302" rx="8.06508" fill="#FBEAEF"/>
<defs>
<clipPath id="clip0_560_302">
<rect width="83" height="84" fill="var(--info-graphic-accent-color-white)" transform="translate(160 94)"/>
</clipPath>
</defs>
</svg>
