<svg width="80" height="80" viewBox="0 0 80 80" fill="none" xmlns="http://www.w3.org/2000/svg">
<g clip-path="url(#clip0_5918_5770)">
<mask id="mask0_5918_5770" style="mask-type:alpha" maskUnits="userSpaceOnUse" x="0" y="0" width="80" height="80">
<ellipse rx="39.9782" ry="40" transform="matrix(1 0 0.000546136 1 40 40)" fill="#C4C4C4"/>
</mask>
<g mask="url(#mask0_5918_5770)">
<rect width="79.9563" height="80" fill="var(--info-graphic-accent-color-lightest)"/>
<path d="M19.9891 75.5C19.9891 67.0769 26.5845 62.1011 30.4581 58.53C33.6116 55.6229 40.2573 54.1973 41.6545 54.7205C44.1692 51.4083 47.3832 48 47.3832 48C47.3832 48 53.0924 49.059 56.5994 54.5632C56.6081 54.55 56.6165 54.5391 56.6246 54.5304C57.411 53.6866 59.3094 54.206 63.5687 55.9675C68.2993 57.924 70.1333 61.5851 71.7658 64.8441C72.1548 65.6207 72.5324 66.3745 72.935 67.0769C73.6221 68.2756 74.309 69.4005 74.9591 70.4217C68.3292 77.1281 59.251 81.4656 49.0727 81.9542C38.3198 82.4704 27.3754 82.1861 19.9891 75.5Z" fill="var(--info-graphic-accent-color-med)"/>
<path d="M32.4523 80C31.6171 79.7185 30.7939 79.8282 29.9836 79.5C31.4828 74.5 35.4806 69 35.4806 69C35.4806 69 32.5849 75.5007 32.4523 80Z" fill="var(--info-graphic-accent-color-light)"/>
<path d="M67.9629 74.1332C67.2562 74.5109 66.5363 74.8703 65.8038 75.2106C65.1252 70.9221 63.4454 66.9249 63.4454 66.9249C63.4454 66.9249 65.9144 70.6322 67.9629 74.1332Z" fill="var(--info-graphic-accent-color-light)"/>
<path d="M50.4589 60.5411C54.8217 60.3473 58.2237 57.609 58.0575 54.425C57.8913 51.241 54.2198 48.817 49.857 49.0109C45.4942 49.2047 41.8109 51.816 41.9771 55C42.1433 58.184 46.0961 60.735 50.4589 60.5411Z" fill="var(--info-graphic-accent-color-light)"/>
</g>
<path d="M29.0134 32.2481C28.0431 33.288 27.4728 34.7488 27.5493 36.3388C27.6933 39.33 30.0725 41.646 32.8635 41.5115C32.9722 41.5063 33.0799 41.4974 33.1865 41.485C35.2943 48.1873 39.9879 56.6206 50.2256 56.1274C61.6129 55.5789 65.8597 47.0417 67.1959 39.5086C69.6606 39.0448 71.4679 36.6789 71.3354 33.9254C71.2746 32.6624 70.8153 31.5198 70.0948 30.6311C69.4266 32.2046 67.6405 31.5696 66.9979 30.0542C66.4549 28.7738 66.3689 27.4332 66.2826 26.0884C66.1694 24.3228 66.0557 22.55 64.9067 20.8969C61.4779 15.9643 58.6925 16.65 54.2627 17.7405C52.7505 18.1128 51.0465 18.5323 49.0599 18.7915C42.951 19.5886 36.8421 16.4163 36.8421 16.4163C36.8421 16.4163 32.4647 22.7653 33.1276 32.7276C33.281 35.0369 30.3759 35.1148 29.0134 32.2481Z" fill="#FFE5C7"/>
<path d="M40.7195 26.5824C40.2205 26.6649 39.6241 26.7635 39.6513 26.2843C39.8397 22.9649 47.173 24.2515 46.1278 26.1923C45.9101 26.5965 45.3652 26.3187 44.7914 26.026C44.3957 25.8242 43.9863 25.6154 43.6609 25.6184C42.2982 25.631 41.9002 25.9316 41.5458 26.1993C41.3287 26.3633 41.1279 26.5149 40.7316 26.5804L40.7195 26.5824Z" fill="var(--info-graphic-accent-color-darkest)"/>
<path d="M59.0016 24.5061C60.1492 24.379 61.8065 24.7816 62.3068 25.7188C62.5573 26.1884 62.3458 26.356 61.7278 26.5298C61.1975 26.6788 60.8455 26.4867 60.4623 26.2776C60.3482 26.2153 60.2313 26.1515 60.1061 26.0947C59.6556 25.8907 59.1279 25.8029 58.6156 25.85C58.318 25.8771 58.1185 25.9599 57.9029 26.0493C57.7369 26.1182 57.5613 26.1909 57.3241 26.2453C56.9733 26.3256 56.5223 26.3799 56.5011 26.0786C56.4319 25.0945 58.0407 24.6125 59.0016 24.5061Z" fill="var(--info-graphic-accent-color-darkest)"/>
<path d="M60.6853 28.7917C60.6023 28.7443 60.5143 28.703 60.4212 28.6689C57.3466 27.5397 56.3033 32.4137 58.5476 33.2047C61.7876 34.3468 62.6098 29.8916 60.6853 28.7917Z" fill="var(--info-graphic-accent-color-darkest)"/>
<path d="M43.4516 28.6689C43.5447 28.703 43.6327 28.7443 43.7157 28.7917C45.6402 29.8916 44.818 34.3468 41.578 33.2047C39.3337 32.4137 40.377 27.5397 43.4516 28.6689Z" fill="var(--info-graphic-accent-color-darkest)"/>
<path d="M60.3057 29.3319C59.9647 29.0084 59.3158 29.2962 59.4084 29.7364C59.4555 29.9609 59.5004 30.1404 59.7078 30.2933C60.024 30.5271 60.6574 30.2532 60.6318 29.8807C60.6149 29.6382 60.4834 29.5005 60.3057 29.3319Z" fill="var(--info-graphic-accent-color-white)"/>
<path d="M42.9904 44.2544C42.9904 44.2544 50.5599 48.7723 56.3298 45.4444C53.2001 49.9618 44.7488 49.2698 42.9904 44.2544Z" fill="var(--info-graphic-accent-color-darkest)"/>
<path d="M43.3358 29.3316C42.9948 29.0082 42.3458 29.2959 42.4384 29.7362C42.486 29.9605 42.5305 30.1401 42.7378 30.293C43.054 30.5268 43.6875 30.2533 43.6618 29.8804C43.6449 29.6379 43.5134 29.5002 43.3358 29.3316Z" fill="var(--info-graphic-accent-color-white)"/>
<path d="M33.6459 8.32858C37.8842 2.19261 46.8233 0.76179 54.9082 2.27765C59.4846 3.1357 74.5136 8.32725 70.216 17.137C70.4665 19.776 70.6078 22.4377 70.6103 25.0886C70.6116 26.7738 70.6434 28.5854 70.227 30.2323C69.7053 32.2962 67.6894 31.685 66.9978 30.0541C65.742 27.0926 66.9307 23.8091 64.9066 20.8968C60.3072 14.2802 56.8657 17.7729 49.0598 18.7914C42.9509 19.5885 36.842 16.4162 36.842 16.4162C36.842 16.4162 32.4646 22.7652 33.1275 32.7275C33.3363 35.8704 27.88 34.8801 28.3572 27.9593C28.8341 21.0385 27.1819 8.94907 33.6459 8.32858Z" fill="var(--info-graphic-accent-color-darkest)"/>
<path d="M0 74.439C0.00477872 76.403 1.59609 77.9952 3.55895 77.9999H21.9821C23.945 77.9952 25.5351 76.4042 25.541 74.4402V35.5609C25.5363 33.597 23.945 32.0048 21.9821 32H3.55895C1.59609 32.0048 0.00477872 33.597 0 35.5609V74.439Z" fill="var(--info-graphic-accent-color-med)"/>
<path d="M21.9821 78H3.55895C1.59609 77.9952 0.00477872 76.403 0 74.4391V69.929C11.7352 69.929 15.098 69.929 25.541 69.929V74.4403C25.5351 76.4042 23.945 77.9952 21.9821 78Z" fill="var(--info-graphic-accent-color-dark)"/>
<rect x="2.99841" y="36" width="13.9924" height="14" rx="1" fill="var(--info-graphic-accent-color-var(--info-graphic-accent-color-white))"/>
<path d="M2.99731 59C2.99731 58.4477 3.44479 58 3.99677 58H17.9891C18.5411 58 18.9886 58.4477 18.9886 59V66C18.9886 66.5523 18.5411 67 17.9891 67H3.99677C3.44479 67 2.99731 66.5523 2.99731 66V59Z" fill="var(--info-graphic-accent-color-lightest)"/>
<rect x="2.99841" y="53" width="10.994" height="3" rx="1" fill="var(--info-graphic-accent-color-lightest)"/>
<path d="M35.3928 67.5719L27.2857 75.4291C26.5057 76.1879 25.2306 76.1927 24.4455 75.4291L18.3365 69.507L15.156 74.7166C14.2538 76.195 11.9472 75.892 11.4882 74.2299L4.06829 47.4526C3.66835 46.008 5.03526 44.6799 6.52952 45.0685L34.1541 52.2598C35.8684 52.7045 36.1829 54.9379 34.6563 55.8159L29.2823 58.8958L35.3928 64.8192C36.1762 65.5798 36.1762 66.8115 35.3928 67.5719V67.5719Z" fill="var(--info-graphic-accent-color-bright)"/>
</g>
<defs>
<clipPath id="clip0_5918_5770">
<rect width="80" height="80" fill="var(--info-graphic-accent-color-white)"/>
</clipPath>
</defs>
</svg>
