<svg width="40" height="40" viewBox="0 0 40 40" fill="none" xmlns="http://www.w3.org/2000/svg">
<path d="M8.12632 11.982C7.72355 11.8554 7.31639 12.1646 7.31607 12.5953C7.31552 13.3012 7.31693 14.6346 7.31693 17.227C7.31693 20.5392 9.29976 23.3779 12.1189 24.5705C17.2167 26.7332 22.8654 22.8912 22.8654 17.227C22.8654 15.7622 22.8799 14.7215 22.8851 13.8248C22.9008 11.332 20.6431 9.38339 18.1538 9.99335C15.9259 10.5399 15.1524 11.6338 12.4212 12.2406C10.8691 12.5852 9.39234 12.3801 8.12632 11.982V11.982Z" fill="#FFE5C7"/>
<path d="M8.85733 28.4662C10.0007 28.4654 11.0074 27.8643 11.587 26.9525C12.1222 26.1119 12.1155 25.3679 12.1102 24.7698C12.1097 24.7119 12.1092 24.6553 12.1092 24.6002L12.1209 24.5705C9.3018 23.3779 7.31897 20.5392 7.31897 17.2269V16.9757C6.18896 16.9757 5.27725 16.0399 5.27725 14.8898V10.6266C5.27725 9.35529 4.79038 8.13457 3.92029 7.22766C3.90537 7.21161 3.90223 7.18754 3.91244 7.16908C5.00476 5.26617 7.1949 3.66022 9.82715 3.3729L10.3164 3.31913C10.4781 3.30147 10.5103 3.07434 10.3596 3.01094L9.35206 2.58718C9.22484 2.53341 9.22091 2.34962 9.34656 2.29183C13.2101 0.518141 18.5437 0.246871 21.9094 3.56231C24.804 6.41385 24.8558 10.5094 24.8307 11.6707V15.0062C24.8307 16.0716 23.9869 16.9757 22.8675 16.9757V17.2269C22.8675 20.5392 20.8846 23.3779 18.0655 24.5705L18.0773 24.6002C18.0773 24.6541 18.0769 24.709 18.0764 24.765C18.0717 25.377 18.0661 26.1147 18.5995 26.9525C18.6292 26.9992 18.66 27.0451 18.6919 27.0902C18.1677 28.4812 17.8809 29.9886 17.8809 31.563C12.1092 34 6.20117 33 8.85733 28.4662Z" fill="var(--info-graphic-accent-color-white)"/>
<path d="M3.91418 7.16895C3.90374 7.18717 3.90688 7.21157 3.92211 7.22746C4.79165 8.13469 5.27868 9.35556 5.27868 10.6265V14.8898C5.27868 16.0398 6.19015 16.9757 7.3204 16.9757C7.3204 14.547 7.31907 13.2778 7.31954 12.5956C7.31985 12.1649 7.72702 11.8553 8.12978 11.982C9.39581 12.3801 10.8726 12.5852 12.4246 12.2405C15.1558 11.6338 15.9293 10.5398 18.1571 9.99329C20.6465 9.38333 22.9041 11.332 22.8884 13.8248C22.8837 14.6442 22.8704 15.6683 22.8688 16.9757C23.9882 16.9757 24.832 16.0716 24.832 15.0062V11.6707C24.8571 10.5093 24.8053 6.41381 21.9108 3.56226C18.5454 0.246744 13.2112 0.518175 9.3483 2.29203C9.22266 2.34973 9.22595 2.5336 9.3534 2.58721L10.361 3.01113C10.5116 3.07454 10.4799 3.30142 10.318 3.31916L9.82858 3.37285C7.19609 3.6605 5.00611 5.26589 3.91418 7.16895V7.16895Z" fill="var(--info-graphic-accent-color-darkest)"/>
<path d="M2.99805 32.2001V34.4049C2.99805 36.7479 7.5 40.0126 15.2677 40.0126C24 40.0126 27.1846 36.7607 27.1846 34.4049V32.2001C27.1846 29.8869 24.5622 28.0131 21.3276 28.0123C20.1839 28.012 19.177 27.5909 18.5976 26.9531C16.5752 28.1887 13.6086 28.1895 11.5851 26.9531C11.0058 27.5909 9.99872 28.012 8.85504 28.0123C5.62048 28.0131 2.99805 29.8869 2.99805 32.2001Z" fill="var(--info-graphic-accent-color-med)"/>
<path d="M20.1074 37.0001C20.1074 37.5523 20.5551 38.0001 21.1074 38.0001H33.8443C34.3965 38.0001 34.8443 37.5523 34.8443 37.0001V26.6618L27.4758 21.158L20.1074 26.6618V37.0001Z" fill="var(--info-graphic-accent-color-lightest)"/>
<path d="M35.8929 28.5263C36.8429 28.5263 37.3066 27.3208 36.6186 26.6396L28.1995 18.3019C27.793 17.8994 27.1543 17.8994 26.7479 18.3019L18.3287 26.6396C17.6408 27.3208 18.1045 28.5263 19.0545 28.5263H35.8929Z" fill="var(--info-graphic-accent-color-light)"/>
<path d="M24.8443 30.6316H30.1074C30.6888 30.6316 31.16 31.1029 31.16 31.6842V38H23.7916V31.6842C23.7916 31.1029 24.2629 30.6316 24.8443 30.6316Z" fill="var(--info-graphic-accent-color-white)"/>
<path d="M25.8968 32.2104H29.0547C29.3454 32.2104 29.581 32.4461 29.581 32.7368V37.9999H25.3705V32.7368C25.3705 32.4461 25.6061 32.2104 25.8968 32.2104Z" fill="var(--info-graphic-accent-color-light)"/>
</svg>
