<svg width="80" height="80" viewBox="0 0 80 80" fill="none" xmlns="http://www.w3.org/2000/svg">
<ellipse rx="35.6376" ry="35.6309" transform="matrix(1 0 1.79901e-05 1 42.1895 41.6966)" fill="#7BC9EB"/>
<path d="M74.2092 57.3462C69.4183 67.5572 59.8685 75.3332 47.905 77.3682C35.9415 79.4032 24.3576 75.2221 16.4596 67.1694C33.9981 71.2868 43.5 55.0001 74.2092 57.3462Z" fill="#0061A8"/>
<path d="M6.46741 67.8888C6.46741 68.9933 7.36284 69.8888 8.46741 69.8888H42.7013C43.8059 69.8888 44.7013 68.9933 44.7013 67.8888V40.4721L25.5844 26.1929L6.46741 40.4721V67.8888Z" fill="#23A4DE"/>
<path d="M47.422 45.3099C49.8868 45.3099 51.0899 42.1824 49.305 40.4148L27.462 18.7832C26.4075 17.7389 24.7504 17.7389 23.6959 18.7832L1.85285 40.4148C0.0680384 42.1824 1.27113 45.3099 3.73588 45.3099H47.422Z" fill="#0061A8"/>
<path fill-rule="evenodd" clip-rule="evenodd" d="M32.2387 47.3311H35.0151C35.1327 47.3311 35.2278 47.4281 35.2278 47.5474C35.2278 47.5776 35.2217 47.6065 35.2109 47.6325L34.3494 50.3734H36.47C36.5876 50.3734 36.6827 50.4704 36.6827 50.5897C36.6827 50.638 36.6671 50.683 36.6404 50.7189L33.0829 56.4603C33.0207 56.5611 32.8897 56.5914 32.7904 56.5278C32.7181 56.4815 32.6828 56.3983 32.6931 56.3175L33.036 52.6401H30.742C30.6244 52.6401 30.5293 52.5432 30.5293 52.4238C30.5293 52.3967 30.5343 52.3704 30.5432 52.3467L32.0356 47.4832C32.0639 47.3907 32.1479 47.3313 32.2386 47.3313V47.3311L32.2387 47.3311Z" fill="#EAF5FC"/>
<path d="M18.5779 56.5611C20.279 56.5611 21.6524 55.237 21.6524 53.6067C21.6524 52.0453 18.9011 47.6458 18.7754 47.4518C18.7754 47.3785 18.6991 47.3311 18.6004 47.3311C18.5017 47.3311 18.4254 47.3785 18.376 47.4518C18.2503 47.6459 15.499 52.0411 15.499 53.6067C15.499 55.237 16.8769 56.5611 18.578 56.5611H18.5779Z" fill="#EAF5FC"/>
<path d="M39.4302 65.0927H38.4693V59.7225H39.4302C39.5278 59.7048 39.6101 59.6524 39.6535 59.5802C39.697 59.508 39.697 59.424 39.6535 59.3518C39.6101 59.2797 39.5278 59.2273 39.4302 59.2095H38.4693V58.9463C38.4693 58.5807 38.2253 58.2428 37.8292 58.06C37.4331 57.8771 36.9452 57.8771 36.5491 58.06C36.153 58.2428 35.909 58.5807 35.909 58.9463V59.2094L35.2706 59.2095V58.9463C35.2706 58.5807 35.0266 58.2428 34.6305 58.06C34.2345 57.8771 33.7464 57.8771 33.3504 58.06C32.9544 58.2428 32.7103 58.5807 32.7103 58.9463V59.2094L32.072 59.2095V58.9463C32.072 58.5807 31.8279 58.2428 31.4318 58.06C31.0358 57.8771 30.5478 57.8771 30.1517 58.06C29.7556 58.2428 29.5117 58.5807 29.5117 58.9463V59.2094L28.5508 59.2095C28.4531 59.2273 28.3709 59.2797 28.3274 59.3518C28.2839 59.424 28.2839 59.508 28.3274 59.5802C28.3709 59.6524 28.4531 59.7048 28.5508 59.7225H29.5117V65.0927H28.5508C28.4332 65.0927 28.3246 65.1428 28.2657 65.2242C28.207 65.3056 28.207 65.4059 28.2657 65.4874C28.3246 65.5688 28.4332 65.619 28.5508 65.619H29.5117V66.1294V66.1294C29.5117 66.4951 29.7556 66.8329 30.1517 67.0158C30.5478 67.1986 31.0358 67.1986 31.4318 67.0158C31.8279 66.8329 32.072 66.4951 32.072 66.1294V65.6058H32.7104V66.1163L32.7103 66.1162C32.7103 66.4819 32.9544 66.8198 33.3504 67.0027C33.7464 67.1855 34.2345 67.1855 34.6305 67.0027C35.0266 66.8198 35.2706 66.4819 35.2706 66.1162V65.6058H35.9091V66.1163L35.909 66.1162C35.909 66.4819 36.153 66.8198 36.5491 67.0027C36.9452 67.1855 37.4331 67.1855 37.8292 67.0027C38.2253 66.8198 38.4693 66.4819 38.4693 66.1162V65.6058H39.4302C39.5478 65.6058 39.6563 65.5557 39.7152 65.4742C39.7739 65.3928 39.7739 65.2925 39.7152 65.2111C39.6564 65.1297 39.5478 65.0796 39.4302 65.0796L39.4302 65.0927ZM32.7105 65.0927H32.0721V59.7225H32.7105L32.7105 65.0927ZM35.9091 65.0927H35.2707V59.7225H35.9092L35.9091 65.0927Z" fill="#EAF5FC"/>
<path fill-rule="evenodd" clip-rule="evenodd" d="M15.1474 58.6924H22.0039H22.0041C22.3188 58.6924 22.6206 58.8174 22.8432 59.04C23.0658 59.2624 23.1908 59.5643 23.1908 59.8791V60.632C23.1908 60.9467 23.0658 61.2486 22.8432 61.4711C22.6206 61.6937 22.3188 61.8187 22.0041 61.8187H21.1245C20.9026 61.8188 20.688 61.7388 20.5202 61.5935C20.3524 61.4482 20.2425 61.2472 20.2108 61.0276H16.9354C16.9036 61.2472 16.7938 61.4482 16.626 61.5935C16.4582 61.7388 16.2436 61.8188 16.0216 61.8187H15.1474C14.8326 61.8187 14.5309 61.6937 14.3083 61.4711C14.0857 61.2486 13.9607 60.9467 13.9607 60.632V59.8791C13.9607 59.5643 14.0857 59.2625 14.3083 59.04C14.5309 58.8174 14.8326 58.6924 15.1474 58.6924ZM20.3177 62.6382L22.4893 63.6206L22.4892 63.6206C22.6979 63.714 22.8752 63.8658 22.9996 64.0576C23.1241 64.2494 23.1904 64.4731 23.1907 64.7017V65.8673C23.1907 66.1821 23.0657 66.484 22.8432 66.7064C22.6206 66.929 22.3188 67.054 22.0041 67.054H15.1475C14.8328 67.054 14.531 66.929 14.3084 66.7064C14.0859 66.484 13.9609 66.1821 13.9609 65.8673V64.7017C13.9612 64.4731 14.0275 64.2494 14.152 64.0576C14.2764 63.8658 14.4537 63.714 14.6624 63.6206L16.8406 62.6382C16.9298 62.5975 17.0009 62.5251 17.0398 62.4351L17.0397 62.4352L17.1056 62.2835C17.1981 62.0719 17.3502 61.8917 17.5433 61.7652C17.7366 61.6388 17.9625 61.5714 18.1935 61.5714H18.9714C19.2012 61.5727 19.4257 61.6407 19.6176 61.7671C19.8096 61.8935 19.9607 62.0729 20.0526 62.2835L20.1185 62.4365C20.1577 62.526 20.2286 62.5979 20.3177 62.6382Z" fill="#EAF5FC"/>
<path d="M75.3771 48.0572H56.6229C54.6248 48.0524 53.0049 46.4582 53 44.4918V5.56532C53.0049 3.59895 54.6248 2.00479 56.6229 2H75.3771C77.3752 2.00479 78.9952 3.59895 79 5.56532V44.493C78.9939 46.4594 77.3752 48.0524 75.3771 48.0572Z" fill="#23A4DE"/>
<path fill-rule="evenodd" clip-rule="evenodd" d="M56.5707 45.8544H75.0161L75.0174 45.8544C75.7696 45.8519 76.3802 45.2427 76.3841 44.4892V5.56835C76.381 4.81608 75.7705 4.20567 75.0181 4.20274H56.5686C55.8162 4.20567 55.2057 4.81624 55.2027 5.56865V44.4885C55.2057 45.2412 55.8166 45.8519 56.5694 45.8544L56.5707 45.8544ZM56.5653 48.0572C54.599 48.0524 53.0048 46.4582 53 44.4918V5.56532C53.0048 3.59895 54.599 2.00479 56.5653 2H75.0215C76.9878 2.00479 78.582 3.59895 78.5868 5.56532V44.493C78.5808 46.4594 76.9878 48.0524 75.0215 48.0572H56.5653Z" fill="#23A4DE"/>
<path d="M75.3771 48.0574H56.6229C54.6248 48.0526 53.0049 46.4585 53 44.4921V39.9763C64.9461 39.9763 68.3693 39.9763 79 39.9763V44.4933C78.9939 46.4597 77.3752 48.0526 75.3771 48.0574Z" fill="#31448F"/>
<circle cx="61" cy="19" r="15" fill="#FFB71B"/>
<path d="M61.0011 11C58.1283 11 55.78 13.2982 55.78 16.1097C55.78 17.6988 56.5302 19.1239 57.7014 20.0627C57.5206 19.9369 57.2781 19.8754 57.0571 19.9186C55.2332 20.1641 53.5916 21.1682 52.5657 22.6855C52.3605 22.9755 52.1781 23.3102 52.0413 23.6226C51.9729 23.7565 51.9957 23.9127 52.0641 24.0466C52.2465 24.3589 52.4745 24.6713 52.6797 24.9391C52.9988 25.363 53.3408 25.7423 53.7284 26.0993C54.0476 26.4117 54.4124 26.7018 54.7772 26.9919C56.5783 28.3083 58.7443 29 60.9786 29C63.213 29 65.3789 28.3083 67.18 26.9919C67.5448 26.7241 67.9096 26.4117 68.2288 26.0993C68.5936 25.7423 68.9584 25.363 69.2776 24.9391C69.5056 24.649 69.7108 24.3589 69.8932 24.0466C70.0071 23.9127 70.0299 23.7564 69.9615 23.6226C69.8247 23.2879 69.6424 22.9755 69.4372 22.6855C68.3884 21.1682 66.7697 20.1641 64.9457 19.9186C64.7222 19.8968 64.4768 19.9392 64.2953 20.0671C65.4696 19.1283 66.2221 17.7012 66.2221 16.1097C66.2221 13.2982 63.8738 11 61.0011 11Z" fill="white"/>
</svg>
