<svg width="20" height="20" viewBox="0 0 20 20" fill="none" xmlns="http://www.w3.org/2000/svg">
<g clip-path="url(#clip0_5907_4861)">
<path d="M2.55227 16.6724C0.965508 14.9025 -2.24164e-07 12.5641 0 10C4.82823e-07 4.47715 4.47715 -4.82823e-07 10 0C15.5229 4.82823e-07 20 4.47715 20 10C20 12.5641 19.0345 14.9025 17.4477 16.6724L2.55227 16.6724Z" fill="#23A4DE"/>
<path d="M5.893 3.89702C6.17186 2.81245 7.21511 2.69526 7.21511 2.69526C7.21511 2.69526 7.4414 0.768188 9.99999 0.768188C12.5586 0.768189 12.7849 2.69526 12.7849 2.69526C12.7849 2.69526 13.8281 2.81245 14.107 3.89702C14.3859 4.98159 13.6653 6.52475 13.6653 6.52475L9.99999 8.01803L6.33472 6.52475C6.33472 6.52475 5.61417 4.98163 5.893 3.89702Z" fill="#7BC9EB"/>
<path d="M14.107 3.89707C14.3859 4.98164 13.6653 6.52481 13.6653 6.52481L11.8966 7.24539L11.4463 6.69922L11.4463 4.30418C12.544 4.07637 12.7849 3.32031 12.7849 2.69531C12.7849 2.69531 13.8281 2.8125 14.107 3.89707Z" fill="#7BC9EB"/>
<path d="M7.30175 7.17455C7.30175 7.17455 6.95421 6.32838 6.33472 6.52482C5.71523 6.72127 6.34968 8.5549 7.55863 8.67045L7.30175 7.17455Z" fill="white"/>
<path d="M12.6982 7.17455C12.6982 7.17455 13.0457 6.32838 13.6652 6.52482C14.2847 6.72127 13.6502 8.5549 12.4413 8.67045L12.6982 7.17455Z" fill="white"/>
<path d="M2.55225 16.6724C2.93147 15.564 3.35748 14.5308 3.71092 14.2188C4.57029 13.46 8.29314 12.8469 8.29314 12.8469L10 14.1667L11.7068 12.8469C11.7068 12.8469 15.4297 13.46 16.289 14.2188C16.6425 14.5308 17.0685 15.564 17.4477 16.6724C15.6169 18.7147 12.9587 20 9.99998 20C7.04127 20 4.38311 18.7147 2.55225 16.6724Z" fill="#7BC9EB"/>
<path d="M5.91331 18.6328C9.66722 18.6328 12.9374 16.564 14.6475 13.5046C15.3553 13.7125 15.9927 13.9569 16.2891 14.2187C16.6426 14.5308 17.0686 15.564 17.4478 16.6724C15.6169 18.7147 12.9588 20 10.0001 20C8.11886 20 6.35925 19.4801 4.85632 18.5768C5.20371 18.6134 5.55624 18.6328 5.91331 18.6328Z" fill="#7BC9EB"/>
<path d="M9.4198 15.9485L9.99996 15.0675L10.5801 15.9485L11.084 19.9418C10.7279 19.9802 10.3663 20 9.99996 20C9.63363 20 9.27199 19.9802 8.91589 19.9418L9.4198 15.9485Z" fill="#23A4DE"/>
<path d="M9.38938 16.0831L10.6107 16.0831C10.6996 16.0831 10.7773 16.023 10.7997 15.9369L11.2891 14.0519L8.71094 14.0519L9.20031 15.9369C9.22266 16.023 9.30039 16.0831 9.38938 16.0831Z" fill="#23A4DE"/>
<path d="M10.0184 15.9369L10.5078 14.0519L11.289 14.0519L10.7997 15.9369C10.7773 16.023 10.6996 16.0831 10.6106 16.0831H9.82935C9.91833 16.0831 9.99606 16.023 10.0184 15.9369Z" fill="#23A4DE"/>
<path d="M11.7069 8.46924L11.7069 12.847C11.7069 13.5124 10.9427 14.0519 10.0001 14.0519C9.05739 14.0519 8.29321 13.5124 8.29321 12.847L8.29321 8.46924L11.7069 8.46924Z" fill="#EAF5FC"/>
<path d="M11.7068 12.3047L10 14.0519C10 14.0519 10.6641 15.2528 11.0937 15.2528C11.5234 15.2528 12.2659 12.9477 12.2659 12.9477L11.7068 12.3047Z" fill="white"/>
<path d="M8.29319 12.3047L10 14.0519C10 14.0519 9.33597 15.2528 8.90628 15.2528C8.47659 15.2528 7.73413 12.9477 7.73413 12.9477L8.29319 12.3047Z" fill="white"/>
<path d="M4.40715 17.0409L4.85699 18.5772C4.56984 18.4047 4.29187 18.2184 4.02441 18.0188L4.02441 17.0958C4.02441 16.87 4.34371 16.8242 4.40715 17.0409Z" fill="#23A4DE"/>
<path d="M15.9758 17.0957L15.9758 18.0187C15.7083 18.2184 15.4303 18.4046 15.1432 18.5772L15.593 17.0408C15.6565 16.8242 15.9758 16.87 15.9758 17.0957Z" fill="#23A4DE"/>
<path d="M7.21516 6.1068C7.38602 5.69012 7.39836 4.41356 7.85161 4.2318C8.30485 4.05004 8.68493 4.5443 10 4.5443C11.3152 4.5443 11.6952 4.05004 12.1485 4.2318C12.6017 4.41356 12.6141 5.69012 12.7849 6.1068C12.9441 6.49501 13.1441 6.57411 13.1707 6.58313C13.1727 6.64383 13.1739 6.70489 13.1739 6.76649C13.1739 9.1036 11.7529 11.8446 10.0001 11.8446C8.24723 11.8446 6.82629 9.1036 6.82629 6.76649C6.82629 6.70485 6.8275 6.64379 6.82946 6.58313C6.85602 6.57415 7.05598 6.49501 7.21516 6.1068Z" fill="white"/>
</g>
<defs>
<clipPath id="clip0_5907_4861">
<rect width="20" height="20" fill="white" transform="matrix(1 0 0 -1 0 20)"/>
</clipPath>
</defs>
</svg>
