<svg width="81" height="80" viewBox="0 0 81 80" fill="none" xmlns="http://www.w3.org/2000/svg">
<mask id="mask0_5925_7251" style="mask-type:alpha" maskUnits="userSpaceOnUse" x="0" y="0" width="81" height="80">
<circle r="40" transform="matrix(1 0 1.79893e-05 1 40.0007 40)" fill="#C4C4C4"/>
</mask>
<g mask="url(#mask0_5925_7251)">
<rect width="80" height="80" fill="var(--info-graphic-accent-color-lightest)"/>
<path fill-rule="evenodd" clip-rule="evenodd" d="M36.0619 53.1197C32.7395 52.9964 25.7253 53.7881 23.3334 55.9997C19.1605 59.858 18.002 65.6716 16.8581 71.4119L16.858 71.4119C16.4225 73.5975 15.9891 75.7725 15.3922 77.8249C14.035 77.0815 15.6813 79.1331 18.014 82.0401C20.896 85.6318 24.8259 90.5292 25.4342 93.0749C25.4435 93.702 25.4656 94.0612 25.4656 94.0612C25.5424 93.7956 25.5268 93.4625 25.4342 93.0749C25.4026 90.9386 25.52 85.6939 27.1685 80.9521C36.2343 89.2048 49.6802 90.0098 59.6766 83.744C59.4387 81.9714 59.1082 80.027 58.7132 78.0047C64.9254 81.3854 72.0387 81.0429 72.0387 81.0429C71.3294 79.1464 71.6777 76.9281 71.9359 75.284V75.284C72.1609 73.8513 72.3174 72.8546 71.6458 72.8869C71.6458 72.8869 71.6458 68.9998 69.5 63.8331C69.1931 63.0944 68.95 62.3487 68.7094 61.611C67.7908 58.7943 66.9099 56.0933 62.6666 54.3332C60.1382 53.2844 56.406 52.7698 53.903 52.7498C51.5734 54.2853 48.6433 55.292 44.971 55.4688C41.3526 55.643 38.4264 54.7034 36.0619 53.1197Z" fill="var(--info-graphic-accent-color-white)"/>
<path fill-rule="evenodd" clip-rule="evenodd" d="M51.3016 53.7168C51.4423 56.6376 48.5625 59.1496 44.8694 59.3274C41.1763 59.5052 38.0684 57.2815 37.9278 54.3607C37.7871 51.4398 40.6669 48.9279 44.36 48.7501C48.0531 48.5723 51.1609 50.7959 51.3016 53.7168ZM27.7351 80.2736C28.1357 76.7754 30.5998 68.6696 30.5998 68.6696C30.5998 68.6696 29.5317 77.9983 32.3434 82.3366C30.8138 82.2798 29.0546 81.1334 27.7351 80.2736ZM58.5058 67.4125C58.5058 67.4125 61.0151 75.5883 61.4288 79.1186C60.0993 79.99 58.3265 81.1519 56.7827 81.2133C59.6092 76.8265 58.5058 67.4125 58.5058 67.4125Z" fill="var(--info-graphic-accent-color-lightest)"/>
</g>
<path fill-rule="evenodd" clip-rule="evenodd" d="M26.0479 31.1837C26.3134 31.7386 26.5782 32.2373 26.8332 32.6668C30.7307 27.4136 30.1917 23.7973 29.7269 20.679V20.679C29.5104 19.2268 29.3101 17.8827 29.5815 16.5315C29.6319 16.977 29.7249 17.4123 29.8604 17.8269C30.4686 19.6881 31.9372 21.0206 33.6843 21.9046C32.8967 19.6193 32.2658 17.4067 32.2642 15.3024C33.0291 15.8157 33.9062 16.3128 34.8082 16.8239C36.9731 18.0507 39.2808 19.3584 40.5209 21.1653C40.4773 18.7089 40.0183 16.9887 39.3544 15.6664C40.519 15.9185 41.7996 16.0117 43.1665 15.8334C44.7336 15.6291 46.1374 15.3611 47.4175 15.1168C52.5174 14.1433 55.6547 13.5444 59.3332 18.8334C61.284 21.6386 61.4138 24.6311 61.5255 27.2076C61.5874 28.6332 61.6437 29.9314 61.9999 31C62.2528 30.4677 62.4871 29.9344 62.7028 29.4011C64.5881 30.119 65.983 31.999 66.0922 34.2669C66.2248 37.0205 64.4165 39.3863 61.9505 39.8502C60.6135 47.3833 56.3644 55.9203 44.971 56.4688C34.7277 56.962 30.0315 48.5286 27.9225 41.8264C27.8158 41.8388 27.7081 41.8476 27.5993 41.8529C24.8068 41.9873 22.4263 39.6713 22.2822 36.6802C22.1565 34.0687 23.7765 31.8059 26.0479 31.1837Z" fill="#FFE5C7"/>
<path d="M34.7242 25.626C34.697 26.1053 35.2937 26.0067 35.793 25.9242L35.8051 25.9222C36.2016 25.8567 36.4024 25.7051 36.6197 25.5411C36.9743 25.2734 37.3725 24.9728 38.7359 24.9602C39.0615 24.9572 39.4712 25.166 39.8671 25.3678C40.4412 25.6604 40.9864 25.9383 41.2042 25.5341C42.25 23.5933 34.9127 22.3067 34.7242 25.626Z" fill="var(--info-graphic-accent-color-darkest)"/>
<path d="M57.3919 25.0606C56.8914 24.1234 55.2332 23.7208 54.085 23.8479C53.1235 23.9543 51.5139 24.4362 51.583 25.4204C51.6043 25.7217 52.0555 25.6674 52.4065 25.5871C52.6438 25.5327 52.8195 25.4599 52.9857 25.3911C53.2013 25.3017 53.401 25.2189 53.6988 25.1918C54.2113 25.1447 54.7392 25.2325 55.19 25.4365C55.3153 25.4933 55.4322 25.5571 55.5464 25.6194C55.9298 25.8285 56.282 26.0206 56.8126 25.8716C57.431 25.6977 57.6426 25.5302 57.3919 25.0606Z" fill="var(--info-graphic-accent-color-darkest)"/>
<path d="M54.5771 30.8035C54.6387 30.8261 54.697 30.8534 54.7519 30.8847C56.0253 31.6121 55.4813 34.5584 53.3374 33.8032C51.8524 33.2801 52.5427 30.0568 54.5771 30.8035Z" fill="var(--info-graphic-accent-color-darkest)"/>
<path d="M38.6494 30.5976C38.5898 30.5636 38.5267 30.534 38.4599 30.5096C36.2548 29.7002 35.5066 33.1939 37.1162 33.7609C39.4399 34.5795 40.0296 31.386 38.6494 30.5976Z" fill="var(--info-graphic-accent-color-darkest)"/>
<path d="M53 45C53 45 49.5353 49.962 43 47.8849C46.525 50.6095 51.674 51.6719 53 45Z" fill="var(--info-graphic-accent-color-darkest)"/>
<path d="M54.5006 31.2421C54.275 31.0282 53.8458 31.2184 53.9071 31.5095C53.9383 31.658 53.9681 31.7767 54.1052 31.8778C54.3143 32.0324 54.7332 31.8514 54.7163 31.6051C54.7051 31.4447 54.6181 31.3536 54.5006 31.2421Z" fill="var(--info-graphic-accent-color-white)"/>
<path d="M34.2229 2.02932C30.9392 2.24662 28.4921 5.2834 27.9916 8.13873C27.1326 8.20426 26.2946 8.50916 25.6393 8.99882C24.6348 9.74946 24.1274 10.9137 23.9493 12.155C24.7762 10.8792 25.7713 10.6144 26.9027 10.5942C20.0135 14.7411 24.0167 27.9231 26.8332 32.6668C30.7307 27.4137 30.1917 23.7973 29.7269 20.6791C29.5104 19.2269 29.3101 17.8827 29.5815 16.5316C29.6319 16.9771 29.7249 17.4124 29.8604 17.827C30.4686 19.6882 31.9372 21.0207 33.6843 21.9047C32.8967 19.6193 32.2658 17.4068 32.2642 15.3025C33.0291 15.8157 33.9062 16.3128 34.8082 16.8239C36.9731 18.0508 39.2808 19.3585 40.5209 21.1653C40.4773 18.709 40.0183 16.9888 39.3544 15.6664C40.519 15.9186 41.7996 16.0117 43.1665 15.8335C44.7336 15.6291 46.1374 15.3612 47.4175 15.1168C52.5174 14.1434 55.6547 13.5445 59.3332 18.8335C61.284 21.6387 61.4138 24.6312 61.5255 27.2076C61.5874 28.6332 61.6437 29.9314 61.9999 31.0001C68.3332 17.6667 62.9998 3.80053 47.1666 0.833509C40.3764 -0.438912 33.4772 1.48172 30.9435 6.37012C31.2113 4.41296 31.7087 2.73324 34.2229 2.02932Z" fill="var(--info-graphic-accent-color-darkest)"/>
<path d="M38.3765 30.9847C38.1321 30.7528 37.6669 30.959 37.7333 31.2745C37.7674 31.4353 37.7993 31.5641 37.948 31.6737C38.1747 31.8412 38.6288 31.6453 38.6104 31.3781C38.5982 31.2042 38.5039 31.1055 38.3765 30.9847Z" fill="var(--info-graphic-accent-color-white)"/>
<path d="M29.3773 28.0183V37.9819C29.3773 38.3572 29.685 38.6643 30.0612 38.6643H42.3796C42.7557 38.6643 43.0634 38.3572 43.0634 37.9819L43.0636 33.6143H47.3042V37.9819C47.3042 38.3572 47.6119 38.6643 47.9881 38.6643H60.3065C60.6826 38.6643 60.9903 38.3572 60.9903 37.9819V28.0183C60.9903 27.643 60.6826 27.3359 60.3065 27.3359H47.9881C47.6119 27.3359 47.3042 27.643 47.3042 28.0183V32.2495H43.0293V28.0183C43.0293 27.643 42.7216 27.3359 42.3454 27.3359H30.0612C29.6851 27.3359 29.3773 27.643 29.3773 28.0183ZM49.0052 29.7009H59.2891V36.2996L49.0052 36.2994V29.7009ZM31.0785 29.7009H41.3624V36.2996L31.0785 36.2994V29.7009Z" fill="var(--info-graphic-accent-color-darkest)"/>
<path d="M31.4712 52.9995H8.52875C6.03188 52.9995 4 55.0824 4 57.6425V72.3565C4 74.9167 6.03188 76.9995 8.52875 76.9995H31.4712C33.9681 76.9995 36 74.9167 36 72.3565V57.6425C36 55.0824 33.9681 52.9995 31.4712 52.9995Z" fill="var(--info-graphic-accent-color-white)"/>
<path d="M31.4705 52.9995H24.9814C22.4845 52.9995 20.4526 55.0824 20.4526 57.6425L15.7208 72.3565C15.7208 74.9167 17.7527 76.9995 20.2496 76.9995H31.4705C33.9673 76.9995 35.9992 74.9167 35.9992 72.3565V57.6425C35.9992 55.0824 33.9673 52.9995 31.4705 52.9995Z" fill="var(--info-graphic-accent-color-white)"/>
<path d="M31.4712 52.9995H8.52875C6.03187 52.9995 4 55.0824 4 57.6425V72.3565C4 74.9167 6.03187 76.9995 8.52875 76.9995H31.4712C33.9681 76.9995 36 74.9167 36 72.3565V57.6425C36 55.0824 33.9681 52.9995 31.4712 52.9995ZM15.6131 60.386L10.8488 65.2699L15.0856 69.6131C15.4519 69.9885 15.4519 70.5972 15.0856 70.972C14.72 71.3474 14.1263 71.3474 13.76 70.972L8.86 65.949C8.49375 65.5736 8.49375 64.9656 8.86 64.5901L14.2869 59.0271C14.6531 58.6516 15.2469 58.6516 15.6131 59.0271C15.9788 59.4019 15.9788 60.0105 15.6131 60.386ZM23.808 58.125L18.8505 72.5141C18.678 73.0151 18.1424 73.2771 17.6543 73.1003C17.1661 72.9235 16.9099 72.3744 17.0824 71.874L22.0399 57.4849C22.2124 56.9846 22.7474 56.7219 23.2361 56.8987C23.7243 57.0755 23.9805 57.6246 23.808 58.125ZM31.14 65.4089L25.7131 70.972C25.3469 71.3474 24.7531 71.3474 24.3869 70.972C24.0212 70.5972 24.0212 69.9885 24.3869 69.6131L29.1513 64.7291L24.9144 60.386C24.5481 60.0105 24.5481 59.4019 24.9144 59.0271C25.28 58.6516 25.8737 58.6516 26.24 59.0271L31.14 64.05C31.5062 64.4255 31.5062 65.0335 31.14 65.4089Z" fill="var(--info-graphic-accent-color-bright)"/>
</svg>
