<svg width="80" height="80" viewBox="0 0 80 80" fill="none" xmlns="http://www.w3.org/2000/svg">
<g clip-path="url(#clip0_5926_7346)">
<mask id="mask0_5926_7346" style="mask-type:alpha" maskUnits="userSpaceOnUse" x="0" y="0" width="81" height="80">
<circle r="40" transform="matrix(1 0 1.79901e-05 1 40.0007 40)" fill="#C4C4C4"/>
</mask>
<g mask="url(#mask0_5926_7346)">
<rect width="80" height="80" fill="var(--info-graphic-accent-color-lightest)"/>
<path d="M79.4284 80.9909C79.4284 80.9909 71.5751 80.9909 65.7705 76.5529C56.8726 73.499 60.9208 55.1206 61.6156 54.4419C62.3102 53.763 68.494 54.3815 71.9995 56.0374C76.8207 58.3148 76.6564 61.7318 77.8573 65.0675C79.6002 69.9092 79.4283 73.4804 79.4283 73.4804C80.7563 73.4804 78.3659 77.6714 79.4284 80.9909Z" fill="var(--info-graphic-accent-color-var(--info-graphic-accent-color-white))"/>
<path d="M46.3743 58.1625C45.9895 60.1471 38.4489 70.0765 37.5 81C45.4612 89.0553 58.4584 88.258 67.9516 82.9256C67.1746 73.8394 64.0169 59.7799 62.1804 55.633C59.6278 49.8691 54.1195 48.5676 54.1195 48.5676C54.1195 48.5676 46.8786 55.5622 46.3743 58.1625Z" fill="var(--info-graphic-accent-color-var(--info-graphic-accent-color-white))"/>
<path d="M61.6298 54.0495C61.6298 56.7392 58.873 58.9196 55.4722 58.9196C52.0714 58.9196 49.3144 56.7392 49.3144 54.0495C49.3143 51.3598 52.0712 49.1794 55.472 49.1794C58.8728 49.1794 61.6297 51.3598 61.6298 54.0495Z" fill="var(--info-graphic-accent-color-lightest)"/>
<path d="M36.0647 90.891C36.0647 90.891 35.8897 77.8201 42.507 72.8891C49.1244 67.9585 49.7045 54.8858 49.2137 54.1283C48.7231 53.3705 38.7577 53.3378 35.7893 55.8286C30.2603 60.4681 26.3179 73.2577 24 80C21.0578 78.1992 37.1254 87.7905 36.0647 90.891Z" fill="var(--info-graphic-accent-color-var(--info-graphic-accent-color-white))"/>
<path d="M37.5 80.5C38.0227 77.3038 41.9492 66.8714 41.9492 66.8714C41.9492 66.8714 40.6087 75.8901 43 80.0002C41.2702 80.5735 38.6742 81.3482 37.5 80.5Z" fill="var(--info-graphic-accent-color-lightest)"/>
<path d="M69.8103 77.8347C69.5863 74.5731 67.6427 66.9507 67.6427 66.9507C67.6427 66.9507 68.24 75.6485 65.4491 79.5537C66.8702 79.5655 68.5502 78.5765 69.8103 77.8347Z" fill="var(--info-graphic-accent-color-lightest)"/>
</g>
<mask id="mask1_5926_7346" style="mask-type:alpha" maskUnits="userSpaceOnUse" x="0" y="4" width="54" height="36">
<path d="M41.465 14.9166C37.7717 5.87618 27.5935 1.60164 18.7313 5.36923C12.6717 7.94528 8.55158 13.7838 8.07945 20.4632C2.95851 21.1857 -0.618807 26.0063 0.0893844 31.2304C0.730255 35.9574 4.69344 39.476 9.37122 39.4712H41.4649C48.1116 39.4712 53.5 33.9745 53.5 27.194C53.5 20.4135 48.1119 14.9166 41.465 14.9166Z" fill="var(--info-graphic-accent-color-lightest)"/>
</mask>
<g mask="url(#mask1_5926_7346)">
<rect x="-7.62207" y="-1.71655" width="63.9068" height="49.3959" fill="var(--info-graphic-accent-color-light)"/>
<path d="M41.0459 58.9215L29.0736 29.6574L0 17.4941V58.9215H41.0459Z" fill="var(--info-graphic-accent-color-darkest)"/>
<path d="M58.1904 58.9211V42.8048V41.7622L29.0448 29.6714L41.0459 58.9211H58.1904Z" fill="var(--info-graphic-accent-color-light)"/>
<path d="M0 17.4936L29.0448 29.6713L17.058 0.465088L0 17.4936Z" fill="var(--info-graphic-accent-color-lightest)"/>
<path d="M58.1904 17.4937L29.1313 -11.6836L24.6218 -7.16582L17.0437 0.479639L29.0448 29.6714L58.1904 41.7622V17.4937Z" fill="var(--info-graphic-accent-color-med)"/>
</g>
<path d="M45.7627 36.9841C45.8952 39.7353 43.9206 42.066 41.3523 42.1897C38.7838 42.3133 36.5942 40.1831 36.4617 37.4319C36.3292 34.6803 38.3039 32.3496 40.8724 32.2259C43.4407 32.1023 45.6302 34.2325 45.7627 36.9841Z" fill="#FFE5C7"/>
<path d="M76.7577 35.212C76.8903 37.9636 74.9156 40.2943 72.3473 40.4179C69.7788 40.5416 67.5892 38.4114 67.4567 35.6598C67.3242 32.9086 69.2989 30.5775 71.8674 30.4539C74.4357 30.3302 76.6252 32.4607 76.7577 35.212Z" fill="#FFE5C7"/>
<path d="M40.1356 34.8538C40.1356 34.8538 41.8127 56.3798 57.3306 55.6327C72.8485 54.8855 73.9576 38.027 73.2971 31.9127C73.2971 23.5 69.4416 16.4453 69.4416 16.4453L56.3236 15.7324L44.9332 18.5858L39.7043 22.1026L39.5283 26.048L40.1356 34.8538Z" fill="#FFE5C7"/>
<path d="M47.9056 27.2641C47.8804 27.7085 48.4384 27.6127 48.8998 27.5364C49.8596 27.378 49.5732 26.6703 51.5955 26.6516C52.3293 26.6448 53.5274 27.8077 53.8659 27.1795C54.8278 25.3944 48.079 24.211 47.9056 27.2641Z" fill="var(--info-graphic-accent-color-darkest)"/>
<path d="M68.7552 26.7442C68.2948 25.8821 66.7697 25.5119 65.7135 25.6287C64.8292 25.7267 63.3487 26.1699 63.4123 27.0751C63.4318 27.3522 63.8469 27.3023 64.1697 27.2284C64.6712 27.1136 64.8734 26.9091 65.3583 26.8648C65.8298 26.8216 66.3153 26.9023 66.7299 27.0899C67.232 27.3174 67.589 27.668 68.2224 27.4901C68.7912 27.3302 68.9858 27.1761 68.7552 26.7442Z" fill="var(--info-graphic-accent-color-darkest)"/>
<path d="M66.3269 32.1013C66.2763 32.0724 66.2228 32.0473 66.1661 32.0266C64.2949 31.3397 63.66 34.3044 65.0258 34.7856C66.9977 35.4803 67.4981 32.7703 66.3269 32.1013Z" fill="var(--info-graphic-accent-color-darkest)"/>
<path d="M66.0956 32.4297C65.8881 32.233 65.4934 32.4079 65.5498 32.6757C65.5785 32.8122 65.6058 32.9214 65.732 33.0144C65.9243 33.1566 66.3096 32.9901 66.294 32.7635C66.2837 32.616 66.2037 32.5322 66.0956 32.4297Z" fill="var(--info-graphic-accent-color-white)"/>
<path d="M39.5496 11.9705C41.1776 10.754 44.0316 10.7773 45.1828 13.0303C42.2227 14.3186 39.7138 12.2217 37.9951 14.8735C38.159 13.7318 38.6256 12.6609 39.5496 11.9705Z" fill="var(--info-graphic-accent-color-darkest)"/>
<path d="M42.7937 14.9415C45.541 11.6098 42.8817 6.83772 47.4446 5.56017C42.7384 5.8716 39.9004 12.4798 42.7937 14.9415Z" fill="var(--info-graphic-accent-color-darkest)"/>
<path d="M43.5605 12.4311C44.327 5.83928 51.9098 3.06533 59.3502 4.4596C73.9134 7.18864 78.8191 19.9426 72.9937 32.2065C72.6661 31.2236 72.6143 30.0295 72.5574 28.7182C72.4546 26.3484 72.3353 23.596 70.5409 21.0158C67.1575 16.151 64.272 16.7018 59.5812 17.5972C58.4037 17.822 57.1124 18.0684 55.671 18.2564C54.4135 18.4204 53.2354 18.3346 52.164 18.1026C52.7749 19.319 53.1972 20.9014 53.2373 23.1611C52.0967 21.4992 49.9741 20.2964 47.9828 19.1679C47.1533 18.6978 46.3465 18.2407 45.643 17.7686C45.6444 19.7041 46.2248 21.7391 46.9492 23.8411C45.3422 23.028 43.9914 21.8024 43.432 20.0905C43.3074 19.7092 43.2219 19.3089 43.1755 18.8993C42.9261 20.1418 43.1103 21.3779 43.3094 22.7134C43.7369 25.5815 44.2327 28.9078 40.6478 33.7395C37.7351 28.834 33.4428 14.1174 43.5605 12.4311Z" fill="var(--info-graphic-accent-color-darkest)"/>
<path d="M51.5162 31.8371C51.4614 31.8059 51.4033 31.7787 51.3419 31.7562C49.3137 31.0117 48.6255 34.2252 50.1059 34.7467C52.2433 35.4996 52.7857 32.5623 51.5162 31.8371Z" fill="var(--info-graphic-accent-color-darkest)"/>
<path d="M51.2651 32.193C51.0403 31.9797 50.6124 32.1693 50.6735 32.4596C50.7049 32.6075 50.7342 32.7259 50.871 32.8267C51.0795 32.9808 51.4972 32.8006 51.4802 32.5548C51.469 32.3949 51.3823 32.3041 51.2651 32.193Z" fill="var(--info-graphic-accent-color-white)"/>
<path d="M42.9878 29.4646V38.6289C42.9878 38.9742 43.2708 39.2566 43.6168 39.2566H54.9471C55.2931 39.2566 55.5761 38.9742 55.5761 38.6289L55.5763 34.6117H59.4768V38.6289C59.4768 38.9742 59.7598 39.2566 60.1058 39.2566H71.4361C71.7821 39.2566 72.0651 38.9742 72.0651 38.6289V29.4646C72.0651 29.1193 71.7821 28.8369 71.4361 28.8369H60.1058C59.7598 28.8369 59.4768 29.1193 59.4768 29.4646V33.3563H55.5447V29.4646C55.5447 29.1193 55.2617 28.8369 54.9157 28.8369H43.6168C43.2708 28.8369 42.9878 29.1193 42.9878 29.4646ZM61.0413 31.0122H70.5003V37.0816L61.0413 37.0814V31.0122ZM44.5525 31.0122H54.0115V37.0816L44.5525 37.0814V31.0122Z" fill="var(--info-graphic-accent-color-darkest)"/>
<path d="M65 45C65 45 61.5353 49.962 55 47.8849C58.525 50.6095 63.674 51.6719 65 45Z" fill="var(--info-graphic-accent-color-darkest)"/>
<path d="M31.4712 51.9995H8.52875C6.03188 51.9995 4 54.0824 4 56.6425V71.3565C4 73.9167 6.03188 75.9995 8.52875 75.9995H31.4712C33.9681 75.9995 36 73.9167 36 71.3565V56.6425C36 54.0824 33.9681 51.9995 31.4712 51.9995Z" fill="var(--info-graphic-accent-color-white)"/>
<path d="M31.4705 51.9995H24.9814C22.4845 51.9995 20.4526 54.0824 20.4526 56.6425L15.7208 71.3565C15.7208 73.9167 17.7527 75.9995 20.2496 75.9995H31.4705C33.9673 75.9995 35.9992 73.9167 35.9992 71.3565V56.6425C35.9992 54.0824 33.9673 51.9995 31.4705 51.9995Z" fill="var(--info-graphic-accent-color-white)"/>
<path d="M31.4712 51.9995H8.52875C6.03187 51.9995 4 54.0824 4 56.6425V71.3565C4 73.9167 6.03187 75.9995 8.52875 75.9995H31.4712C33.9681 75.9995 36 73.9167 36 71.3565V56.6425C36 54.0824 33.9681 51.9995 31.4712 51.9995ZM15.6131 59.386L10.8488 64.2699L15.0856 68.6131C15.4519 68.9885 15.4519 69.5972 15.0856 69.972C14.72 70.3474 14.1263 70.3474 13.76 69.972L8.86 64.949C8.49375 64.5736 8.49375 63.9656 8.86 63.5901L14.2869 58.0271C14.6531 57.6516 15.2469 57.6516 15.6131 58.0271C15.9788 58.4019 15.9788 59.0105 15.6131 59.386ZM23.808 57.125L18.8505 71.5141C18.678 72.0151 18.1424 72.2771 17.6543 72.1003C17.1661 71.9235 16.9099 71.3744 17.0824 70.874L22.0399 56.4849C22.2124 55.9846 22.7474 55.7219 23.2361 55.8987C23.7243 56.0755 23.9805 56.6246 23.808 57.125ZM31.14 64.4089L25.7131 69.972C25.3469 70.3474 24.7531 70.3474 24.3869 69.972C24.0212 69.5972 24.0212 68.9885 24.3869 68.6131L29.1513 63.7291L24.9144 59.386C24.5481 59.0105 24.5481 58.4019 24.9144 58.0271C25.28 57.6516 25.8737 57.6516 26.24 58.0271L31.14 63.05C31.5062 63.4255 31.5062 64.0335 31.14 64.4089Z" fill="var(--info-graphic-accent-color-bright)"/>
</g>
<defs>
<clipPath id="clip0_5926_7346">
<rect width="80.0014" height="80" fill="var(--info-graphic-accent-color-white)"/>
</clipPath>
</defs>
</svg>
