<svg width="80" height="80" viewBox="0 0 80 80" fill="none" xmlns="http://www.w3.org/2000/svg">
<path d="M67.7279 31.115L39.7133 21.2627L11.6986 31.115L39.7133 41.1166L67.7279 31.115Z" fill="#0061A8"/>
<path d="M67.7267 31.115L39.712 21.2627V41.1166L67.7267 31.115Z" fill="#31448F"/>
<path d="M50.2925 5.46606H28.3253C26.1939 5.46606 24.46 7.23906 24.46 9.41784V56.7411C24.46 58.9199 26.1939 60.6929 28.3253 60.6929H50.2925C52.4239 60.6929 54.1583 58.9199 54.1583 56.7411V9.41784C54.1583 7.23906 52.4239 5.46606 50.2925 5.46606V5.46606Z" fill="#7BC9EB"/>
<path d="M50.2795 7.75391H47.0149C46.7068 7.75391 46.4574 8.00886 46.4574 8.32323C46.4574 9.07844 45.8533 9.69602 45.115 9.69602H33.4778C32.739 9.69602 32.1349 9.07844 32.1349 8.32323C32.1349 8.00886 31.8855 7.75391 31.5774 7.75391H28.3128C27.4135 7.75391 26.6847 8.49896 26.6847 9.4177V46.7548H51.9076V9.4177C51.9076 8.49896 51.1788 7.75391 50.2795 7.75391Z" fill="#7BC9EB"/>
<path d="M28.6494 26.5258L39.3219 16.0381L49.9943 26.5258V41.0087H28.6494V26.5258Z" fill="#262F69"/>
<path d="M28.6494 26.5258L39.3219 16.0381L49.9943 26.5258V34.7661L28.6494 26.5258Z" fill="#7BC9EB"/>
<path d="M49.9944 41.0087H43.7471L34.8967 20.3866L39.3219 16.0381L49.9944 26.5258V41.0087Z" fill="#0061A8"/>
<path d="M49.9944 26.5258V34.7661L39.3219 30.6977L34.8967 20.3866L39.3219 16.0381L49.9944 26.5258Z" fill="#23A4DE"/>
<path d="M52.3681 3.98673C53.5632 2.02554 56.1334 1.41233 58.1088 2.6171L64.6971 6.63524C66.6725 7.84 67.3051 10.4065 66.11 12.3677L62.0604 19.0133C60.8653 20.9745 58.2951 21.5877 56.3197 20.3829L49.7313 16.3648C47.7559 15.16 47.1234 12.5935 48.3185 10.6323L52.3681 3.98673Z" fill="#0061A8"/>
<path d="M29.1493 23.2171C27.6803 24.426 27.476 26.5803 28.6929 28.0289L31.8377 31.7725C33.0546 33.221 35.232 33.4153 36.7009 32.2064L40.4636 29.1099C41.9326 27.901 42.1369 25.7467 40.92 24.2981L37.7752 20.5546C36.5583 19.106 34.381 18.9117 32.912 20.1206L29.1493 23.2171Z" fill="#EAF5FC"/>
<path d="M16.0881 11.1124C14.8676 10.7246 13.5637 11.3729 13.1758 12.5604L11.8238 16.6996C11.4359 17.8872 12.1108 19.1642 13.3313 19.552L17.4688 20.8666C18.6893 21.2544 19.9931 20.6061 20.381 19.4185L21.7331 15.2793C22.121 14.0918 21.4461 12.8147 20.2256 12.4269L16.0881 11.1124Z" fill="#7BC9EB"/>
<path d="M39.7133 41.1442L11.6986 31.115V67.1817L39.7133 76.197V41.1442Z" fill="#31448F"/>
<path d="M67.7267 67.1817V31.115L39.712 41.1442V76.197L67.7267 67.1817Z" fill="#262F69"/>
<path d="M11.698 31.1155L2 42.7593L30.5419 53.2833L39.7127 41.1171L11.698 31.1155Z" fill="#7BC9EB"/>
<path d="M67.7267 31.115L77.4279 42.7588L48.886 53.2828L39.712 41.1166L67.7267 31.115Z" fill="#23A4DE"/>
<path d="M24.5991 65.5873L24.594 65.5834C23.9148 65.6435 21.7263 64.9897 20.1372 64.5151C19.4849 64.3202 18.9336 64.1556 18.6291 64.0828C15.7942 63.2724 14.1204 60.3857 14.9096 57.6679C15.7278 54.9583 18.7169 53.4045 21.5519 54.2149L25.8788 55.4517C25.908 55.46 25.909 55.4997 25.8802 55.5081C24.8454 55.8074 23.681 56.5059 22.9449 57.2512C22.8781 57.3189 22.7777 57.3449 22.6834 57.3184L20.603 56.7318C19.2451 56.3437 17.8247 57.0912 17.4467 58.3931C17.0686 59.6949 17.8704 61.0777 19.2283 61.4658C19.5608 61.5607 20.1114 61.7182 20.6875 61.883C21.4231 62.0935 22.2002 62.3158 22.6175 62.4346C22.7245 62.4648 22.8335 62.4958 22.9437 62.5277C23.8445 62.7885 24.8306 63.074 25.5696 62.8074C26.2129 62.6128 26.6643 62.1718 26.8574 61.8601C27.143 61.4406 27.2691 60.968 27.2797 60.5114C27.2825 60.3896 27.382 60.2928 27.5083 60.289C28.3129 60.2647 29.0682 60.4661 29.7197 60.7336C29.8233 60.7761 29.9012 60.8994 29.8914 61.0066C29.7777 62.2533 29.1302 63.4607 28.2314 64.241L28.2315 64.2426L28.2335 64.2432C27.2146 65.1021 25.9565 65.607 24.5991 65.5873Z" fill="#FFB71B"/>
<path d="M22.5242 61.0129C22.7881 57.9425 26.0448 55.7114 29.2789 56.613L29.2971 56.6178L33.7981 57.9044C36.662 58.7231 38.3289 61.6323 37.5024 64.3694C36.6926 67.0514 33.7339 68.5895 30.9276 67.7873L26.5346 66.5316C26.5052 66.5232 26.5045 66.483 26.5338 66.4751C27.5796 66.1928 28.775 65.4856 29.4852 64.7411C29.5519 64.6711 29.654 64.6435 29.75 64.6705L31.8241 65.2554C33.1821 65.6435 34.6024 64.896 34.9805 63.5941C35.3724 62.2963 34.5819 60.9167 33.2239 60.5286L29.8163 59.5545L29.817 59.5587C29.6642 59.5172 29.5074 59.4716 29.3484 59.4254C28.5443 59.1918 27.6871 58.9428 27.0308 59.1269C26.4098 59.2867 25.9212 59.6402 25.5768 60.1174C25.3044 60.508 25.1378 61.039 25.1412 61.4849C25.142 61.6019 25.0436 61.696 24.9223 61.6883C24.1295 61.6376 23.4347 61.4717 22.6831 61.2397C22.5821 61.2085 22.5155 61.114 22.5242 61.0129Z" fill="#FFB71B"/>
</svg>
