<svg width="76" height="79" viewBox="0 0 76 79" fill="none" xmlns="http://www.w3.org/2000/svg">
<path d="M67 34.4285L40 25L13 34.4285L40 44L67 34.4285Z" fill="var(--info-graphic-accent-color-light)"/>
<path d="M67 34.4285L40 25V44L67 34.4285Z" fill="var(--info-graphic-accent-color-dark)"/>
<path d="M52.564 11.2517C51.9575 4.9453 46.676 0 40.2717 0C33.8676 0 28.5864 4.94539 27.9794 11.2517C23.8788 11.8404 20.7161 15.4077 20.7161 19.7066C20.7161 24.4157 24.5117 28.2468 29.177 28.2468C55.1412 28.2468 27.0325 28.2469 51.3663 28.2469C56.0317 28.2469 59.8272 24.4157 59.8272 19.7067C59.8272 15.4077 56.6644 11.8404 52.564 11.2517Z" fill="var(--info-graphic-accent-color-bright)"/>
<path d="M47.8486 23.4714C47.7921 23.3332 47.6601 23.2429 47.5137 23.2429H43.5415L43.5415 14C41.5391 14 39.7646 14 37.0166 14L37.0166 23.243H33.0291C32.8827 23.243 32.7507 23.3332 32.6942 23.4707C32.6383 23.609 32.6688 23.768 32.7725 23.8737L40.0042 31.274C40.0724 31.3435 40.1645 31.3827 40.2609 31.3827C40.3573 31.3827 40.4494 31.3435 40.5175 31.2747L47.7703 23.8745C47.874 23.7687 47.9052 23.6097 47.8486 23.4714Z" fill="var(--info-graphic-accent-color-white)"/>
<path d="M40.2717 33.4135C37.497 33.4135 35.2329 31.1083 35.1607 28.2468H27.2345C27.2822 28.6934 27.3475 29.1374 27.4336 29.5757C27.5387 30.1109 27.9923 30.4954 28.5187 30.4954H30.5213C30.5792 30.6502 30.6406 30.8036 30.7053 30.9555L29.2889 32.4253C28.9166 32.8115 28.8579 33.4164 29.1485 33.872C29.6823 34.709 30.3012 35.4947 30.9881 36.2074C31.6757 36.9209 32.4329 37.5631 33.239 38.1163C33.6779 38.4178 34.2607 38.3566 34.6329 37.9704L36.0493 36.5008C36.1957 36.568 36.3436 36.6317 36.4929 36.6918V38.7697C36.4929 39.3159 36.8634 39.7866 37.3792 39.8957C38.3262 40.0959 39.2993 40.1974 40.2717 40.1974C41.244 40.1974 42.2171 40.0959 43.1642 39.8957C43.6801 39.7866 44.0506 39.3159 44.0506 38.7697L44.0505 36.6918C44.1998 36.6317 44.3477 36.568 44.4941 36.5008L45.9101 37.9702C46.2823 38.3563 46.865 38.4174 47.304 38.1162C48.1098 37.5633 48.8672 36.9209 49.5552 36.2071C50.2427 35.4936 50.8615 34.7079 51.3947 33.8716C51.6851 33.4161 51.6264 32.8114 51.2542 32.4251L49.838 30.9557C49.9028 30.8038 49.9642 30.6503 50.0221 30.4954H52.0243C52.5507 30.4954 53.0043 30.1109 53.1094 29.5756C53.1955 29.1373 53.2609 28.6934 53.3086 28.2468H45.3828C45.3107 31.1083 43.0465 33.4135 40.2717 33.4135Z" fill="var(--info-graphic-accent-color-white)"/>
<path d="M40 43.5661L13 34.5V68.401L40 77V43.5661Z" fill="var(--info-graphic-accent-color-dark)"/>
<path d="M67 68.401V34L40 43.566V77L67 68.401Z" fill="var(--info-graphic-accent-color-darkest)"/>
<path d="M13.2576 34L4 45.0304L31.2457 55L40 43.4747L13.2576 34Z" fill="var(--info-graphic-accent-color-lightest)"/>
<path d="M66.7401 34L76 45.0304L48.7566 55L40 43.4747L66.7401 34Z" fill="var(--info-graphic-accent-color-med)"/>
</svg>
