<svg width="20" height="20" viewBox="0 0 20 20" fill="none" xmlns="http://www.w3.org/2000/svg">
<g clip-path="url(#clip0_5916_5639)">
<path d="M10.8086 7.53516V18.8348L13.975 15.9278L16.2731 20.0007L17.9431 19.2055L15.7304 15.2877H20.0018L10.8086 7.53516Z" fill="#798da1"/>
<path d="M7.34127 16.1272C6.88044 14.7639 6.56748 13.362 6.40733 11.942C7.20191 11.9869 8.02106 12.0139 8.85231 12.0139H8.88659V10.6009H8.85231C7.93051 10.6009 7.06495 10.5718 6.2557 10.5223C6.19942 9.77873 6.16275 8.99023 6.16275 8.1365C6.16275 7.28277 6.19447 6.49427 6.24837 5.74857C7.06019 5.6992 7.92553 5.66991 8.84733 5.66991C9.76913 5.66991 10.6321 5.69905 11.4414 5.74857C11.4414 6.00541 12.8014 6.83373 13.0357 7.03115C13.0234 6.64034 12.999 6.26066 12.972 5.88097C14.5309 6.0278 16.0697 6.3169 17.5664 6.74377C17.6548 7.20212 17.7006 7.66657 17.7032 8.13195C17.7027 8.59656 17.6585 9.06041 17.5712 9.51813C17.5039 9.87077 17.107 10.4638 16.9266 10.6709C15.7723 10.1093 14.8608 9.54042 14.0408 8.986C12.782 8.13484 11.6676 7.2265 10.3709 6.3949C10.1891 7.86275 10.1822 8.04791 9.8671 10.3916C9.69534 11.6693 9.42368 15.689 9.42368 16.2871C8.84733 16.2871 8.19368 16.1272 7.34127 16.1272ZM5.59829 0.583848C5.24184 1.85389 4.99181 3.14712 4.85008 4.45231C3.43043 4.58174 2.02378 4.81068 0.642323 5.13739C1.08849 4.11037 1.75684 3.17725 2.60704 2.39452C3.45723 1.6118 4.47146 0.99583 5.58838 0.583848H5.59829ZM5.59829 15.6912C4.47744 15.2811 3.45911 14.6658 2.60533 13.8826C1.75173 13.0992 1.08045 12.1647 0.632412 11.1353C2.01387 11.463 3.42069 11.6927 4.84035 11.8228C4.98139 13.1272 5.23073 14.4196 5.58598 15.689L5.59829 15.6912ZM4.71076 10.3916C3.15929 10.2429 1.62778 9.95313 0.138656 9.52675C-0.0462188 8.60819 -0.0462188 7.66641 0.138656 6.74785C1.62787 6.32147 3.15942 6.03172 4.71076 5.88301C4.66181 6.61307 4.63248 7.36571 4.63248 8.12946C4.63248 8.89321 4.66181 9.6637 4.71076 10.3916ZM8.85251 4.25879C8.01392 4.25879 7.19477 4.28355 6.40753 4.32837C6.56921 2.90304 6.88457 1.49588 7.34881 0.127515C8.34771 -0.042505 9.37202 -0.042505 10.3709 0.127515C10.8301 1.49708 11.1404 2.90484 11.2975 4.33077C10.5103 4.28361 9.69109 4.25879 8.85251 4.25879ZM12.8599 4.44981C12.7188 3.14466 12.4695 1.85155 12.1141 0.581349C13.2336 0.992208 14.2505 1.60789 15.1029 2.39106C15.9553 3.17423 16.6254 4.10847 17.0726 5.13706C15.6894 4.8094 14.281 4.57958 12.8599 4.44981Z" fill="#d8dee4"/>
<path d="M7.34258 16.1272C6.88175 14.7639 6.56879 13.3621 6.40864 11.942C7.20322 11.987 8.02237 12.0139 8.85362 12.0139H8.8879V10.6009H8.85362C7.93182 10.6009 7.06625 10.5718 6.25701 10.5223C6.20073 9.77875 6.16406 8.99025 6.16406 8.13652C6.16406 7.28279 6.19578 6.49428 6.24968 5.74858C7.06149 5.69922 7.92684 5.66992 8.84864 5.66992C9.77044 5.66992 10.6334 5.69907 11.4427 5.74858C11.4427 6.00543 12.8027 6.83374 13.037 7.03117C13.0247 6.64036 13.0003 6.26068 12.9734 5.88099C14.5322 6.02782 16.071 6.31692 17.5677 6.74378C17.6561 7.20214 17.7019 7.66659 17.7045 8.13197C17.704 8.59658 17.6598 9.06043 17.5725 9.51814C17.5052 9.87079 17.1083 10.4638 16.9279 10.6709C15.7736 10.1093 14.8621 9.54044 14.0421 8.98602C12.7833 8.13485 11.6689 7.22651 10.3722 6.39492C10.1904 7.86277 10.1835 8.04793 9.86841 10.3916C9.69665 11.6693 9.42499 15.689 9.42499 16.2871C8.84864 16.2871 8.19499 16.1272 7.34258 16.1272Z" fill="#798da1"/>
</g>
<defs>
<clipPath id="clip0_5916_5639">
<rect width="20" height="20" fill="#fff" transform="matrix(-1 0 0 1 20 0)"/>
</clipPath>
</defs>
</svg>
