<svg width="80" height="80" viewBox="0 0 80 80" fill="none" xmlns="http://www.w3.org/2000/svg">
<path d="M49.4095 10.8394H12.6859V68.5893H49.4095C50.6563 68.5893 51.6671 67.5999 51.6671 66.3795V13.0492C51.6671 11.8288 50.6563 10.8394 49.4095 10.8394Z" fill="#798da1"/>
<path d="M60.7241 70.333C60.7241 70.333 61.2416 72.971 62.3867 73.3579C63.532 73.7449 70.1868 71.3834 69.7122 70.3552C69.2376 69.3271 65.3699 68.7479 63.8759 68.8721C62.3819 68.9962 60.7241 70.333 60.7241 70.333Z" fill="#506478"/>
<path d="M33.778 55.1387C33.778 55.1387 31.8997 53.177 30.7227 53.4498C29.5455 53.7223 25.2255 59.2078 26.1877 59.8293C27.15 60.4508 30.7275 58.9143 31.9193 58.0266C33.111 57.1388 33.778 55.1387 33.778 55.1387Z" fill="#506478"/>
<path d="M42.6965 51.4454C42.6965 51.4454 42.7171 55.7238 39.5568 57.0848C36.3965 58.4458 34.475 54.8252 33.9132 54.7856C33.3516 54.7459 31.6766 57.771 31.455 58.6266C31.2333 59.4821 35.8935 64.4298 40.8713 63.5932C45.8493 62.7563 47.3676 57.24 47.8657 57.0376C48.3637 56.8352 51.1019 57.257 52.0213 57.5685C53.2026 57.9687 55.1766 58.8943 57.3041 62.6936C59.4316 66.4929 59.5894 70.3002 60.4609 70.52C61.3325 70.74 63.7319 69.4196 64.659 68.8514C65.586 68.2833 64.218 56.1326 56.9563 52.7687C49.6945 49.4048 42.6965 51.4454 42.6965 51.4454Z" fill="#506478"/>
<path d="M44.7295 37.452C43.6062 42.1184 42.3277 48.1145 42.2844 51.3849C42.2665 52.7473 57.1122 55.0539 58.5966 52.8509C59.2692 51.8526 59.2329 48.3921 58.8758 44.595C58.8758 43.2144 58.5 42.2144 58.5385 41.5978C58.0672 37.9738 57.3991 34.5441 56.8632 33.1115C55.6137 29.7715 52.4762 28.8157 52.4762 28.8157C52.4762 28.8157 47.7056 29.4458 46.5902 30.655C46.5831 30.6544 46.5759 30.6539 46.5687 30.6534C46.5687 30.6534 37.2186 34.909 36.4702 39.4994C35.7215 44.0897 38.3517 46.8659 38.8624 46.9775C39.3731 47.0893 41.9257 45.2697 42.0198 45.0107C42.0411 44.9519 42.0066 44.6668 41.9559 44.2483C41.7833 42.8221 41.4229 39.8461 42.4448 38.9887C43.0568 38.4752 43.9484 37.9105 44.7295 37.452Z" fill="#9faebc"/>
<path d="M44.7887 19.0189C43.571 19.1823 42.5887 20.2186 42.4956 21.5383C42.3896 23.0406 43.4761 24.3413 44.9226 24.4434C44.979 24.4474 45.035 24.4495 45.0907 24.4498C45.7732 27.9241 47.684 32.4195 52.9896 32.794C58.8911 33.2106 61.5941 29.2055 62.7368 25.525C64.0349 25.4429 65.1089 24.3711 65.2065 22.9882C65.2947 21.7382 64.5574 20.6277 63.4741 20.2311C63.3555 16.8864 62.339 12.3182 62.339 12.3182L55.0398 11.0669L48.4742 11.8654L45.3157 13.4301L44.9587 15.5604L44.7887 19.0189Z" fill="#FFE5C7"/>
<path d="M39.1854 46.626C39.1854 46.626 39.2497 49.6799 39.8715 50.1424C40.2376 50.4147 40.5778 50.4221 40.9387 50.4301C41.1908 50.4356 41.4529 50.4413 41.741 50.5376C42.113 50.6618 42.5081 50.5281 42.8902 50.3988C43.2278 50.2845 43.5552 50.1736 43.8475 50.2473C44.4705 50.4046 45.2519 50.0286 45.3333 49.2658C45.4147 48.503 44.5621 47.3517 44.5621 47.3517C44.5621 47.3517 45.8116 46.9028 45.5808 46.2142C45.4765 45.9032 44.9306 45.9217 44.2845 45.9436C43.4999 45.9703 42.5677 46.0019 42.0998 45.4543C41.2467 44.4559 39.1854 46.626 39.1854 46.626Z" fill="#FFE5C7"/>
<path d="M58.9239 45.3681C58.2941 45.8094 57.8262 47.7779 59.0283 48.9226C60.0341 49.8805 61.6929 50.3243 62.8948 50.1433C64.0968 49.9626 64.9119 47.8988 64.7644 46.8118C64.6171 45.7247 63.1636 45.666 63.1636 45.666C62.7013 44.7998 61.4305 45.199 61.4305 45.199C61.002 44.7434 60.1718 45.0415 60.1718 45.0415C60.1718 45.0415 59.554 44.9266 58.9239 45.3681Z" fill="#FFE5C7"/>
<path d="M61.6746 27.3693L69.497 29.3218C70.5752 29.5909 71.2189 30.6799 70.9317 31.749L66.7641 47.2616C66.4768 48.3307 65.3657 48.9817 64.2875 48.7126L56.4651 46.7601C55.3869 46.491 54.7432 45.402 55.0304 44.3329L59.1981 28.8203C59.4853 27.7512 60.5965 27.1002 61.6746 27.3693Z" fill="#798da1"/>
<path d="M62.957 30.2524C62.8634 30.5971 62.5056 30.8058 62.1578 30.7185C61.81 30.6313 61.6039 30.2811 61.6975 29.9364C61.791 29.5917 62.1488 29.383 62.4966 29.4703C62.8444 29.5575 63.0505 29.9077 62.957 30.2524Z" fill="#fff"/>
<path d="M64.6124 30.0136L67.1428 30.6517C67.4924 30.7399 67.6995 31.0924 67.6058 31.4397C67.512 31.787 67.1531 31.9967 66.8035 31.9086L64.2731 31.2704C63.9235 31.1823 63.7164 30.8298 63.8102 30.4825C63.9039 30.1352 64.2628 29.9254 64.6124 30.0136Z" fill="#fff"/>
<path d="M58.924 45.3681C58.2941 45.8095 57.8263 47.778 59.0283 48.9227C60.0341 49.8806 61.693 50.3244 62.8949 50.1434C64.0969 49.9627 64.9119 47.8989 64.7644 46.8119C64.6171 45.7248 63.1637 45.6661 63.1637 45.6661C62.7013 44.7998 61.4305 45.199 61.4305 45.199C61.002 44.7435 60.1718 45.0416 60.1718 45.0416C60.1718 45.0416 59.5541 44.9267 58.924 45.3681Z" fill="#FFE5C7"/>
<path d="M47.3254 7.92226C49.8794 5.11538 54.5725 4.94295 58.6478 6.19008C60.9546 6.89602 72.3176 12.1345 65.6414 14.538C65.6114 15.8709 65.5239 17.2085 65.3654 18.5323C65.2646 19.3739 65.1718 20.2804 64.858 21.0775C64.4647 22.0764 63.4627 21.649 63.2045 20.7927C62.7358 19.2378 63.5462 17.6703 62.6786 16.0934C62.1615 15.1538 61.3933 14.9649 60.5251 14.4265C60.4745 14.3951 59.9395 14.155 59.9357 14.1119C59.9357 14.1119 60.7465 15.6558 59.5718 15.7706C58.3967 15.8855 54.3671 14.1195 54.3671 14.1195C54.3671 14.1195 54.9206 15.2 53.2999 15.5908C51.6793 15.9817 47.7926 13.2416 47.7926 13.2416C47.7926 13.2416 45.8467 15.0593 45.588 20.0739C45.5063 21.6559 42.3401 21.1424 43.0031 17.7156C43.6659 14.2887 43.9568 7.84015 47.3254 7.92226Z" fill="#506478"/>
<path d="M29.7239 2.41722C29.1918 2.00177 28.5078 1.88878 27.8853 2.11344L3.39551 10.9527C2.56218 11.2536 2 12.098 2 13.0491V66.3794C2 67.3307 2.56204 68.175 3.39551 68.4758L27.8853 77.3151C28.5131 77.5418 29.1969 77.4228 29.7239 77.0113C30.2561 76.5962 30.5714 75.9291 30.5714 75.2187V4.20983C30.5714 3.49959 30.2561 2.83252 29.7239 2.41722ZM20.3673 41.9241C19.2403 41.9241 18.3265 40.9347 18.3265 39.7143C18.3265 38.4939 19.2403 37.5045 20.3673 37.5045C21.4944 37.5045 22.4082 38.4939 22.4082 39.7143C22.4082 40.9347 21.4944 41.9241 20.3673 41.9241Z" fill="#506478"/>
<path d="M58.03 39.7774C57.8965 39.2598 58.2213 38.732 58.7554 38.5986L62.1732 37.7452C62.7074 37.6118 63.2487 37.9233 63.3822 38.4409L64.2105 41.6513C64.344 42.1689 64.0192 42.6967 63.485 42.8301L60.0673 43.6835C59.5331 43.8169 58.9918 43.5054 58.8582 42.9878L58.03 39.7774Z" fill="#7e9bfa"/>
<path d="M71.896 42.0562C71.4803 41.7055 70.8422 41.7409 70.4707 42.1353L69.4898 43.1767C69.1183 43.5712 69.1541 44.1753 69.5698 44.526L70.6738 45.4576C71.0895 45.8083 71.7277 45.7729 72.0992 45.3785L73.08 44.3371C73.4515 43.9426 73.4157 43.3385 73 42.9878L71.896 42.0562Z" fill="#7e9bfa"/>
<path d="M61.3015 31.6609C60.5338 29.9468 61.2827 27.9443 62.9741 27.1883L70.0979 24.0037C71.7893 23.2476 73.7828 24.0243 74.5504 25.7384L77.6985 32.7678C78.4662 34.4819 77.7173 36.4844 76.0259 37.2405L68.9021 40.425C67.2107 41.1811 65.2172 40.4045 64.4496 38.6904L61.3015 31.6609Z" fill="#7e9bfa"/>
</svg>
