<svg width="32" height="32" viewBox="0 0 32 32" fill="none" xmlns="http://www.w3.org/2000/svg">
<rect width="32" height="32" rx="4" fill="#4e56ea"/>
<path d="M9.78053 18.4278C8.8631 18.4278 8.11938 19.1715 8.11938 20.0889C8.11938 21.0064 8.8631 21.7501 9.78053 21.7501C10.6975 21.7491 11.4407 21.0059 11.4417 20.0889C11.4417 19.1715 10.698 18.4278 9.78053 18.4278Z" fill="white"/>
<path d="M25.3425 16.295L23.491 15.4499C23.4279 15.4219 23.3745 15.3758 23.3375 15.3175L21.7331 12.76C21.4343 12.2829 20.9093 11.9952 20.3464 12.0001H13.8265C13.3175 11.9985 12.8368 12.234 12.5261 12.6372L10.4628 15.3403C10.4166 15.4021 10.3513 15.4468 10.2769 15.4673L6.82852 16.4109C6.33604 16.5481 5.99657 16.9981 6.00003 17.5093V18.7704C6.00003 19.3982 6.49069 19.9203 7.11856 19.9203H7.41896C7.5075 18.7537 8.43466 17.8265 9.6013 17.738C10.9055 17.639 12.0431 18.616 12.1421 19.9203H19.6091C19.6977 18.7537 20.6248 17.8265 21.7915 17.738C23.0957 17.639 24.2333 18.616 24.3323 19.9203H24.8814C25.5093 19.9203 26 19.3982 26 18.7704V17.3308C26.0035 16.8863 25.7462 16.481 25.3425 16.295Z" fill="white"/>
<path d="M21.9707 18.4278C21.0533 18.4278 20.3096 19.1715 20.3096 20.0889C20.3096 21.0064 21.0533 21.7501 21.9707 21.7501C22.8877 21.7491 23.6308 21.0059 23.6319 20.0889C23.6319 19.1715 22.8881 18.4278 21.9707 18.4278Z" fill="white"/>
</svg>
