<svg width="10" height="14" viewBox="0 0 10 14" fill="none" xmlns="http://www.w3.org/2000/svg">
<path d="M5.00001 0C2.29817 0 0.100006 2.18306 0.100006 4.86633C0.100006 8.23893 5.00482 14 5.00482 14C5.00482 14 9.90001 8.07307 9.90001 4.86633C9.90001 2.18306 7.70193 0 5.00001 0ZM6.47844 6.2912C6.07078 6.69597 5.53544 6.8984 5.00001 6.8984C4.46466 6.8984 3.92915 6.69597 3.52166 6.2912C2.70643 5.48165 2.70643 4.16437 3.52166 3.35474C3.91641 2.96252 4.44152 2.74651 5.00001 2.74651C5.55849 2.74651 6.08351 2.96261 6.47844 3.35474C7.29367 4.16437 7.29367 5.48165 6.47844 6.2912Z" fill="#4e56ea"/>
</svg>
