<svg width="32" height="32" viewBox="0 0 32 32" fill="none" xmlns="http://www.w3.org/2000/svg">
<rect width="32" height="32" rx="4" fill="#7e9bfa"/>
<g clip-path="url(#clip0)">
<path d="M20.2979 16.6313L18.295 14.4219C18.1703 14.2843 18.0556 14.0009 18.0498 13.8151L17.9762 11.5226V11.4562C17.9762 11.103 17.6887 10.8155 17.3354 10.8155H15.3749H14.5957C14.2801 10.8155 13.9279 11.0391 13.7936 11.3246L11.1542 16.9309C11.0812 17.0864 11.0739 17.26 11.1337 17.4204C11.1935 17.5806 11.3131 17.707 11.4701 17.7762L11.859 17.9477C11.9419 17.9843 12.0303 18.0028 12.1219 18.0028C12.3733 18.0028 12.6074 17.86 12.7187 17.6389L13.955 15.1792V17.6515C13.9499 17.6658 13.9424 17.6788 13.9377 17.6934L11.8483 24.2368C11.7614 24.5093 11.7879 24.7961 11.9231 25.0443C12.0583 25.2925 12.2847 25.4702 12.561 25.5447L12.7007 25.5825C12.7921 25.6073 12.887 25.6199 12.9822 25.6199C13.463 25.6199 13.8997 25.3036 14.0445 24.8504L15.9968 18.7362L16.6892 20.4322C16.8581 20.8459 17.0405 21.5703 17.0875 22.0146L17.4187 25.1372C17.4719 25.6372 17.8672 26.0001 18.3589 26.0001C18.4394 26.0001 18.5212 25.9902 18.6017 25.9708L18.7425 25.9366C19.3029 25.801 19.6988 25.2252 19.6252 24.6535L19.1346 20.8459C19.0722 20.3622 18.8636 19.6046 18.6694 19.1572L18.0069 17.6314C17.9984 17.6116 17.9862 17.5936 17.9764 17.5744V16.5405L19.1702 17.7869C19.289 17.911 19.4479 17.9793 19.6175 17.9793C19.789 17.9793 19.9491 17.9097 20.0683 17.7833L20.2892 17.5488C20.5254 17.2978 20.5294 16.8865 20.2979 16.6313Z" fill="white"/>
<path d="M16.1437 10.2725C17.3218 10.2725 18.2801 9.31421 18.2801 8.13615C18.2801 6.9583 17.3218 6 16.1437 6C14.9658 6 14.0078 6.9583 14.0078 8.13615C14.0075 9.31421 14.9658 10.2725 16.1437 10.2725Z" fill="white"/>
</g>
<defs>
<clipPath id="clip0">
<rect width="20" height="20" fill="white" transform="translate(6 6)"/>
</clipPath>
</defs>
</svg>
