<svg width="60" height="60" viewBox="0 0 60 60" fill="none" xmlns="http://www.w3.org/2000/svg">
  <rect width="60" height="60" fill="white"/>
  <path fill-rule="evenodd" clip-rule="evenodd" d="M29.3709 20.7815C29.3709 20.7815 33.503 20.8812 35.5541 17.6575C37.6053 14.4339 37.1297 11.5898 37.1297 11.5898C37.1297 11.5898 33.9373 11.5898 31.3089 14.531C28.6805 17.4722 29.3709 20.7815 29.3709 20.7815ZM44.5979 24.0174C44.5979 24.0174 43.0565 21.8483 40.4966 20.847C38.685 20.1384 36.0818 20.3492 34.3997 20.847C33.6963 21.0552 33.1778 21.2641 32.7257 21.4463C32.0673 21.7117 31.5497 21.9202 30.8072 21.9867C29.9335 22.065 29.1908 21.7823 28.1679 21.3928C27.7245 21.224 27.2285 21.0352 26.6463 20.847C23.2939 19.7634 20.7525 20.847 20.7525 20.847C20.7525 20.847 18.0109 21.6075 16.0781 24.694C14.1491 27.7745 14.2146 30.7458 14.2339 31.6218L14.2341 31.6269C14.2866 34.012 14.8135 37.9335 17.6156 42.6733C19.1067 45.1957 20.9387 47.2943 22.9746 48.074C24.7644 48.7594 26.5713 47.9439 27.4786 47.4712C28.3235 47.0311 29.8949 46.5857 31.0364 46.644C32.1698 46.702 32.5889 46.8734 33.2221 47.1322C33.3811 47.1973 33.5537 47.2679 33.7545 47.3435C34.0497 47.4548 34.336 47.5775 34.6169 47.6979C35.403 48.0349 36.1471 48.3538 36.9279 48.3538C38.5622 48.3538 40.8174 46.5487 41.8719 45.2227C43.8124 42.7826 45.7657 38.5982 45.7657 38.5982C45.7657 38.5982 40.67 36.4018 40.4966 31.2478C40.3232 26.0937 44.5979 24.0174 44.5979 24.0174Z" fill="#F3F5F6"/>
  <path d="M7.25 25.84L30 4L52.75 25.84V56H7.25V25.84Z" fill="#262F69"/>
  <path d="M7.25 25.84L30 4L52.75 25.84V43L7.25 25.84Z" fill="#7BC9EB"/>
  <path d="M52.7493 56H39.4323L20.5664 13.0556L29.9993 4L52.7493 25.84V56Z" fill="#0061A8"/>
  <path d="M52.7493 25.84V43L29.9993 34.5278L20.5664 13.0556L29.9993 4L52.7493 25.84Z" fill="#23A4DE"/>
</svg>
