<svg width="69" height="69" viewBox="0 0 69 69" fill="none" xmlns="http://www.w3.org/2000/svg">
<rect width="69" height="69" rx="4" fill="#E3E3E3"/>
<g clip-path="url(#clip0)">
<path d="M54.213 48.1069L54.0546 48.297C48.8399 54.5538 41.8939 58.0011 34.5001 58.0011C27.1051 58.0011 20.1602 54.5548 14.9444 48.297L14.7871 48.1069L14.8242 47.8633C15.8314 41.2942 19.2634 36.0172 24.4879 33.0013L24.8593 32.7873L25.1553 33.0975C27.6229 35.6863 30.9413 37.1106 34.499 37.1106C38.0566 37.1106 41.3751 35.6852 43.8426 33.0975L44.1386 32.7873L44.51 33.0013C49.7345 36.0172 53.1666 41.2942 54.1748 47.8633L54.213 48.1069ZM34.5001 34.4727C40.9709 34.4727 46.2359 29.2077 46.2359 22.7369C46.2359 16.266 40.9709 11 34.5001 11C28.0292 11 22.7643 16.266 22.7643 22.7358C22.7643 29.2056 28.0292 34.4727 34.5001 34.4727Z" fill="white"/>
</g>
<defs>
<clipPath id="clip0">
<rect width="47" height="47" fill="white" transform="translate(11 11)"/>
</clipPath>
</defs>
</svg>
