<svg width="117" height="117" viewBox="0 0 117 117" fill="none" xmlns="http://www.w3.org/2000/svg">
<path d="M103.289 15.1963V117H13.7109V15.1963H33.818V18.624H81.3539V15.1963H103.289Z" fill="#F2F2F2"/>
<path d="M103.289 15.1963V117H22.5L79.5 18.624H81.3539V15.1963H103.289Z" fill="#E3E3E3"/>
<path d="M84.0295 72.0966C84.0295 86.2531 72.59 97.7383 58.4518 97.8114C58.4061 97.8137 58.3581 97.8137 58.3124 97.8137C44.1101 97.8137 32.5952 86.2988 32.5952 72.0966C32.5952 57.8921 44.1101 46.3794 58.3124 46.3794C58.3581 46.3794 58.4061 46.3794 58.4518 46.3817C72.59 46.4548 84.0295 57.9378 84.0295 72.0966Z" fill="#0061A8"/>
<path d="M73.8058 67.06L58.4518 81.1183L54.7224 84.5323L42.7253 72.6677L47.5447 67.7935L54.9052 75.0694L58.4518 71.8222L69.176 62.0029L73.8058 67.06Z" fill="white"/>
<path d="M86.8542 9.63193V27.8972H30.1458V9.63193H45.2026C46.119 6.83719 47.8923 4.42863 50.2117 2.71934C52.5197 1.01918 55.367 0.0114258 58.452 0H58.5C64.7042 0 69.9646 4.04016 71.7973 9.63193H86.8542Z" fill="#23A4DE"/>
<path d="M86.8542 9.63193V27.8972H41L58.452 0H58.5C64.7042 0 69.9646 4.04016 71.7973 9.63193H86.8542Z" fill="#0061A8"/>
</svg>
