<svg width="2880" height="764" viewBox="0 0 2880 764" fill="none" xmlns="http://www.w3.org/2000/svg">
<rect width="2880" height="764" fill="#F8F8F8"/>
<path d="M2251.82 688.714L2220.84 764H1986.04L2200.59 621.653L2200.75 621.605L2200.7 621.586L2200.77 621.537L2135.5 400.5L2309.04 549.703L2309.2 550.22L2201.63 621.372L2252.27 687.959L2309.22 550.262L2376 764H2309.04L2251.82 688.714Z" fill="#EDEDED"/>
<path d="M2020.36 549.803L2200.7 621.586L2200.59 621.653L1998.46 686.528L2020.36 549.803Z" fill="#EDEDED"/>
<path d="M1891.82 498.637L2135.5 400.5L2020.36 549.803L1891.82 498.637Z" fill="#EDEDED"/>
<path d="M1857.04 518.435L1834.69 475.896L1891.82 498.637L1857.04 518.435Z" fill="#EDEDED"/>
<path d="M1953.01 701.114L1998.46 686.528L1986.04 764H1757.07L1913.74 713.716L1733.81 588.574L1857.04 518.435L1953.01 701.114Z" fill="#EDEDED"/>
<path d="M1532.61 677.974L1493.78 605.211L1733.81 588.574L1757.07 764H1578.51L1478.35 702.082L1532.61 677.974Z" fill="#EDEDED"/>
<path d="M1371.18 635.831L1339 764L1478.35 702.082L1371.18 635.831Z" fill="#EDEDED"/>
<path d="M1376.83 613.317L1339 615.94L1371.18 635.831L1376.83 613.317Z" fill="#EDEDED"/>
<path fill-rule="evenodd" clip-rule="evenodd" d="M1402.56 510.841L1376.83 613.317L1493.78 605.211L1449.27 521.804L1733.81 588.574L1415.63 458.76L1339 495.926L1402.56 510.841ZM1402.56 510.841L1415.63 458.76L1449.27 521.804L1402.56 510.841Z" fill="#EDEDED"/>
<path d="M837.619 696.736L700.58 646.417L815.365 588.431L837.619 696.736Z" fill="#EDEDED"/>
<path fill-rule="evenodd" clip-rule="evenodd" d="M1267.73 500.514C1267.73 496.808 1270.22 493.801 1273.3 493.801C1276.38 493.801 1278.87 496.808 1278.87 500.514C1278.87 500.969 1278.83 501.413 1278.76 501.842L1325.95 528.728C1326.82 528.065 1327.84 527.681 1328.94 527.681C1332.02 527.681 1334.51 530.688 1334.51 534.395C1334.51 538.103 1332.02 541.108 1328.94 541.108C1325.86 541.108 1323.37 538.103 1323.37 534.395C1323.37 533.866 1323.42 533.351 1323.52 532.858L1283.03 544.019L1302.06 633.065L1324.93 634.927C1325.94 633.661 1327.37 632.874 1328.94 632.874C1332.02 632.874 1334.51 635.879 1334.51 639.586C1334.51 643.294 1332.02 646.299 1328.94 646.299C1326.03 646.299 1323.64 643.607 1323.39 640.174L1306.24 652.628L1330.04 764L1226.97 710.197L1152.88 764H1020.81H851.44H677.77L656.975 704.646L612.527 764H738.5L620 626.021L654.518 697.924L691.977 640.063L620 626.021L700.58 541.108L800 513.653L890.057 550.7L957.837 516.46C958.062 513.001 960.463 510.276 963.393 510.276C966.469 510.276 968.963 513.283 968.963 516.989C968.963 520.697 966.469 523.703 963.393 523.703C961.961 523.703 960.655 523.052 959.668 521.983L938.005 570.424L1036.19 610.817C1037.19 609.696 1038.53 609.01 1040 609.01C1040.78 609.01 1041.53 609.205 1042.2 609.556L1267.78 501.436C1267.75 501.135 1267.73 500.827 1267.73 500.514ZM837.619 696.736L851.44 764L700.58 646.417L800 513.653L815.365 588.431L890.057 550.7L938.005 570.424L875.328 710.582L837.619 696.736ZM1020.81 764L1036.91 621.313C1035.41 620.109 1034.43 618.054 1034.43 615.721C1034.43 615.272 1034.46 614.833 1034.53 614.409L903.956 721.093L1020.81 764ZM1215.55 626.021L1186.84 689.248L1226.97 710.197L1306.24 652.628L1302.06 633.065L1215.55 626.021ZM1248.47 553.545L1043.12 610.158C1043.75 610.672 1044.28 611.336 1044.69 612.109L1215.55 626.021L1248.47 553.545ZM1248.47 553.545L1270.08 505.989C1270.99 506.769 1272.1 507.228 1273.3 507.228C1273.93 507.228 1274.53 507.103 1275.09 506.874L1283.03 544.019L1248.47 553.545Z" fill="#EDEDED"/>
</svg>
