<svg width="114" height="114" viewBox="0 0 114 114" fill="none" xmlns="http://www.w3.org/2000/svg">
<g clip-path="url(#clip0)">
<path d="M114 50.0752V113.775H0.0249523L40.6759 81.6755L0 50.0752L57 0.225403L114 50.0752Z" fill="#FFB71B"/>
<path d="M10.994 12.0006H102.382V87.6007H10.994V12.0006Z" fill="#EEEFEE"/>
<path d="M73.3243 81.6753L113.975 113.775H114V50.0751L73.3243 81.6753Z" fill="#FFD178"/>
<path d="M40.6759 81.6753L0.0249523 113.775H0V50.0751L40.6759 81.6753Z" fill="#FFD178"/>
<path d="M113.975 113.775H0.0249023L40.6744 81.6754H73.3255L113.975 113.775Z" fill="#FFB71B"/>
<path d="M65.7585 64.6896C62.4713 66.3752 58.8097 67.1974 55.1177 67.0794C45.3124 67.0794 37.0028 59.9072 37.0028 48.4294C37.0028 36.1146 45.5527 25.475 58.8298 25.475C69.2288 25.475 76.2232 32.7683 76.2232 42.7517C76.2232 51.7173 71.203 56.9766 65.5824 56.9766C63.1925 56.9766 60.9808 55.3625 61.1574 51.7173H60.9183C58.8329 55.2443 56.0775 56.9766 52.4907 56.9766C49.0221 56.9766 46.0343 54.1684 46.0343 49.4471C46.006 41.6509 52.3029 35.3076 60.0992 35.2791C60.1321 35.2788 60.1651 35.2788 60.198 35.2791C62.3936 35.2459 64.5719 35.6722 66.5931 36.5303L64.5606 47.3506C63.6625 51.8939 64.3798 53.9848 66.3513 54.0461C69.4001 54.1045 72.8077 50.0409 72.8077 43.1063C72.8077 34.4367 67.6067 28.221 58.3421 28.221C48.5979 28.221 40.4079 35.9312 40.4079 48.0682C40.4079 58.0515 46.9253 64.2089 55.7715 64.2089C58.9085 64.2821 62.0135 63.5626 64.7985 62.1166L65.7585 64.6896ZM62.4706 38.8659C61.5002 38.581 60.4931 38.4405 59.4817 38.4487C54.2197 38.4487 49.9751 43.4106 49.9751 49.2078C49.9751 51.8382 51.2918 53.751 53.9207 53.751C57.3893 53.751 60.5578 49.326 61.214 45.6221L62.4706 38.8659Z" fill="#575B6D"/>
</g>
<defs>
<clipPath id="clip0">
<rect width="114" height="114" fill="white"/>
</clipPath>
</defs>
</svg>
