<svg width="125" height="119" viewBox="0 0 125 119" fill="none" xmlns="http://www.w3.org/2000/svg">
<mask id="mask0" mask-type="alpha" maskUnits="userSpaceOnUse" x="16" y="11" width="106" height="106">
<circle cx="69.3599" cy="63.6751" r="52.4747" transform="rotate(-2.75697 69.3599 63.6751)" fill="#C4C4C4"/>
</mask>
<g mask="url(#mask0)">
<rect x="5.26562" y="5.47009" width="130.094" height="119.161" transform="rotate(-2.75697 5.26562 5.47009)" fill="#F2F2F2"/>
<path d="M112.576 120.149C112.576 120.149 100.019 120.754 90.3953 114.103C75.9324 109.904 80.9906 80.2 82.0493 79.0611C83.1078 77.9218 87.546 79.6548 91.1181 84.7304C96.0796 91.7799 94.8584 96.7205 99.0458 100.553C104.208 105.278 111.998 108.138 111.998 108.138C114.121 108.036 110.622 114.922 112.576 120.149Z" fill="#0061A8"/>
<path d="M91.1426 111.431C76.6797 107.232 81.2538 80.2904 82.3125 79.1515C83.371 78.0121 86.99 80.2566 88.8455 82.0821C85.159 85.0583 91.9557 100.787 91.1426 111.431Z" fill="#004E96"/>
<path d="M57.9654 86.1854C57.5029 89.3891 47.0481 102.349 46.3717 119.892C59.7219 132.162 79.6049 133.387 94.3741 124.128C92.4322 109.656 86.3005 87.4136 83.0447 80.9228C78.5193 71.9012 69.6114 70.2437 69.6114 70.2437C69.6114 70.2437 58.5715 81.9878 57.9654 86.1854Z" fill="#0061A8"/>
<ellipse cx="72.1959" cy="78.9066" rx="9.85761" ry="7.79781" transform="rotate(-2.75697 72.1959 78.9066)" fill="#004E96"/>
<path d="M44.0004 139.322C44.0004 139.322 42.7143 118.431 52.9158 110.035C63.1175 101.64 63.0387 80.6884 62.1956 79.5147C61.3527 78.3405 51.3858 80.2491 46.8311 84.4612C38.3474 92.3069 32.355 104.449 29.1678 115.41C24.3245 112.757 45.4578 134.282 44.0004 139.322Z" fill="#0061A8"/>
<path d="M46.3562 120.055C47.7575 115.062 53.2375 103.853 53.2375 103.853C53.2375 103.853 49.5006 117.167 52.5723 124.133C50.3621 123.693 48.073 121.614 46.3562 120.055Z" fill="#004E96"/>
</g>
<path d="M54.2028 52.6252C54.4149 57.0304 51.2537 60.7622 47.1423 60.9602C43.0304 61.1582 39.5253 57.7474 39.3132 53.3422C39.101 48.9365 42.2622 45.2047 46.3741 45.0066C50.4855 44.8087 53.9906 48.2195 54.2028 52.6252Z" fill="#FFE5C7"/>
<path d="M103.82 49.7881C104.032 54.1938 100.871 57.9257 96.7595 58.1237C92.6476 58.3217 89.1425 54.9108 88.9303 50.5051C88.7182 46.0999 91.8794 42.3676 95.9913 42.1696C100.103 41.9716 103.608 45.3829 103.82 49.7881Z" fill="#FFE5C7"/>
<path d="M45.1929 49.2151C45.1929 49.2151 47.8776 83.6817 72.7196 82.4854C97.5617 81.2891 99.3372 54.2959 98.2798 44.5059C97.223 34.716 92.1077 19.7402 92.1077 19.7402L71.1077 18.5987L52.8731 23.1673L44.5024 28.7983L44.2207 35.1156L45.1929 49.2151Z" fill="#FFE5C7"/>
<path d="M57.1959 40.2758C57.1749 41.2466 58.1679 41.0009 58.9892 40.8042C60.6976 40.3953 60.1468 38.8711 63.7635 38.697C65.0756 38.6338 67.2817 41.0906 67.8532 39.6983C69.4773 35.7422 57.341 33.6066 57.1959 40.2758Z" fill="#262F69"/>
<path d="M90.5125 37.6063C89.7341 35.9519 87.2757 35.3196 85.5914 35.6098C84.1812 35.853 81.8335 36.805 81.9791 38.5669C82.0238 39.1063 82.6855 38.9845 83.1986 38.8213C83.9955 38.5678 84.3091 38.1569 85.0828 38.0419C85.8352 37.9298 86.616 38.0587 87.2885 38.4002C88.103 38.8143 88.6911 39.4771 89.6961 39.0928C90.5984 38.7473 90.9024 38.4352 90.5125 37.6063Z" fill="#262F69"/>
<path d="M66.3743 44.3059C66.2876 44.1915 66.1925 44.0845 66.0885 43.9867C62.6536 40.752 59.5952 48.0903 62.1144 50.3981C65.7515 53.7299 68.3828 46.9614 66.3743 44.3059Z" fill="#262F69"/>
<path d="M65.7039 44.9963C65.3944 44.3195 64.4803 44.481 64.4375 45.2302C64.4162 45.6122 64.4071 45.9211 64.611 46.2624C64.9218 46.7837 65.8116 46.638 65.9136 46.0279C65.9798 45.6309 65.8652 45.349 65.7039 44.9963Z" fill="white"/>
<path d="M88.0071 44.6366C87.9204 44.5222 87.8253 44.4152 87.7213 44.3174C84.2864 41.0827 81.228 48.4209 83.7472 50.7287C87.3843 54.0606 90.0156 47.2921 88.0071 44.6366Z" fill="#262F69"/>
<path d="M87.337 45.3272C87.0275 44.6504 86.1134 44.8118 86.0706 45.5611C86.0487 45.9431 86.0402 46.2519 86.2441 46.5932C86.5549 47.1146 87.4446 46.9683 87.5467 46.3587C87.6129 45.9618 87.4982 45.6799 87.337 45.3272Z" fill="white"/>
<path d="M62.6325 61.4203C62.6325 61.4203 75.5081 64.9901 84.9538 61.9125C85.4608 67.9982 81.1399 75.0686 73.1186 74.5196C66.2717 74.0519 62.5676 69.6334 62.6325 61.4203Z" fill="#262F69"/>
<path d="M66.5973 72.1889C68.2724 73.5562 70.4568 74.3374 73.1184 74.5196C75.8794 74.7086 78.2018 73.9943 80.0395 72.7287C78.1277 70.6636 77.5102 69.9489 73.6525 70.0627C68.5687 70.2119 67.905 71.4534 66.5973 72.1889Z" fill="#D3033D"/>
<path d="M62.6338 61.4203C62.6291 62.0149 62.6462 62.5871 62.6811 63.1422C64.953 64.5128 74.7681 69.7301 84.894 64.4298C85.0005 63.5869 85.0239 62.7403 84.955 61.9125C75.1557 64.8987 62.6338 61.4203 62.6338 61.4203Z" fill="white"/>
<path d="M48.294 12.0907C54.538 3.05404 67.7077 0.946825 79.6188 3.17928C86.361 4.44296 120.172 15.7891 102.171 25.0632C102.54 28.9496 102.748 32.8696 102.752 36.7737C102.754 39.2555 102.801 41.9235 102.187 44.3489C101.419 47.3885 98.4489 46.4883 97.43 44.0865C95.5798 39.7249 97.3311 34.8892 94.349 30.6003C92.572 28.0447 90.3424 27.758 87.7122 26.4895C87.5587 26.4155 85.9692 25.9004 85.9437 25.7762C85.9437 25.7762 88.7542 29.9888 85.4821 30.7245C82.209 31.4607 70.2502 27.7037 70.2502 27.7037C70.2502 27.7037 72.1779 30.6564 67.7425 32.3477C63.3076 34.0389 51.42 27.4003 51.42 27.4003C51.42 27.4003 46.5536 33.352 47.5302 48.0237C47.8378 52.6524 38.7387 52.2423 39.4418 42.0498C40.1444 31.8573 38.7707 13.0045 48.294 12.0907Z" fill="#262F69"/>
<path d="M27.2994 81.1051L57.5275 106.527L66.2176 105.42L65.8594 96.1333L64.5968 95.4229L62.7562 91.0235L57.1964 89.2172L54.594 84.2788L49.4162 83.5644L47.755 78.5479L43.0193 77.5784L35.3206 70.4569L27.2994 81.1051Z" fill="#FFB71B"/>
<path opacity="0.5" d="M29.0286 78.7107L27.2271 81.1023L57.4551 106.524L62.4895 105.905C50.7092 97.6599 39.5731 88.4954 29.0286 78.7107Z" fill="#FFB71B"/>
<path opacity="0.5" d="M42.9478 77.5761L35.2495 70.4542L32.2054 74.4953C42.7992 84.4554 54.0434 93.7338 65.9824 102.031L65.7428 96.2116L64.4798 95.5011L62.6622 91.0613L57.1136 89.234L54.5176 84.2857L49.3424 83.5662L47.683 78.5469L42.9478 77.5761Z" fill="#E19A00"/>
<path opacity="0.5" d="M39.8671 71.8641L29.4492 85.5783L26.1357 83.061L36.5537 69.3468L39.8671 71.8641Z" fill="#FFB71B"/>
<path d="M15.1289 62.3757C13.8909 64.4378 11.2161 65.1066 9.15398 63.8691C7.09103 62.6312 6.42302 59.9564 7.66053 57.8943C8.89805 55.8317 11.5729 55.1633 13.6354 56.4008C15.6979 57.6383 16.366 60.3131 15.1289 62.3757ZM3.54111 57.5318C-1.57998 66.0669 1.187 77.1369 9.72163 82.2584C18.2571 87.3799 29.3267 84.6125 34.4482 76.0779C39.5697 67.5428 36.8027 56.4724 28.2677 51.3509C19.7326 46.2298 8.66261 48.9972 3.54111 57.5318Z" fill="#FFB71B"/>
<path d="M39.8671 71.8641L29.4492 85.5783L26.1357 83.061L36.5537 69.3468L39.8671 71.8641Z" fill="#FFB71B"/>
</svg>
