<svg width="401" height="114" viewBox="0 0 401 114" fill="none" xmlns="http://www.w3.org/2000/svg">
<path d="M97.8335 36.0875L89.7221 23.5028L68.4051 11.8852L47.8718 11.2188C47.8718 11.2188 22.3489 25.9074 25.2225 44.9216C28.0961 63.9358 75.3932 89.2489 82.6033 81.4602C89.9833 73.4886 97.8988 55.2977 98.0556 54.971L97.8335 36.0875ZM62.5664 60.3813C50.7454 60.3813 41.158 50.7892 41.158 38.9625C41.158 27.1358 50.7454 17.5437 62.5664 17.5437C74.3874 17.5437 83.9748 27.1358 83.9748 38.9625C83.9618 50.8023 74.3874 60.3813 62.5664 60.3813Z" fill="#0061A8"/>
<path d="M247.183 54.5659C247.183 46.9472 247.196 39.3284 247.17 31.7097C247.17 30.7295 247.301 30.233 248.463 30.1545C254.994 29.7102 261.538 29.0437 268.043 30.246C277.852 32.0625 283.796 38.6097 285.01 48.6199C285.742 54.6574 285.559 60.6165 283.273 66.3011C280.203 73.9068 274.26 78.0364 266.306 79.3562C260.336 80.3494 254.354 79.4739 248.372 79.2648C247.301 79.2256 247.157 78.6898 247.17 77.7619C247.196 70.0256 247.183 62.3023 247.183 54.5659ZM256.718 54.4875C256.718 59.5841 256.744 64.6807 256.692 69.7642C256.679 70.7312 256.888 71.2148 257.946 71.2017C259.683 71.1756 261.42 71.3585 263.145 71.2409C267.938 70.9142 271.557 68.6665 273.516 64.2102C275.776 59.0614 275.802 53.6511 274.678 48.2409C273.398 42.0858 269.61 38.7926 263.393 38.1392C261.603 37.9562 259.814 38.1915 258.024 38.2307C256.953 38.2568 256.653 38.6358 256.666 39.7074C256.757 44.6472 256.718 49.5739 256.718 54.4875Z" fill="#040404"/>
<path d="M154.3 64.6023C154.3 67.791 154.274 70.9927 154.313 74.1813C154.326 75.0569 154.065 75.6057 153.333 76.1285C146.711 80.8592 132.565 82.1137 124.885 75.1745C121.11 71.7768 119.072 67.4251 118.184 62.5245C116.969 55.7683 116.891 49.0251 119.595 42.5563C123.239 33.866 130.135 29.854 139.279 29.3575C143.38 29.1353 147.416 29.7495 151.374 30.9126C152.223 31.1609 152.55 31.4353 152.262 32.3893C151.714 34.258 151.27 36.166 150.891 38.087C150.682 39.1717 150.238 39.1847 149.297 38.8842C145.718 37.7734 142.022 37.5512 138.338 38.0609C133.427 38.7404 130.175 41.6415 128.699 46.2808C126.818 52.2006 126.805 58.212 129.077 64.0404C131.559 70.4307 138.769 73.2796 145.065 70.6268C146.149 70.1694 146.776 69.6205 146.698 68.2745C146.567 66.0398 146.633 63.7921 146.685 61.5575C146.698 60.7864 146.476 60.4859 145.679 60.4205C142.897 60.1592 140.115 59.7932 137.333 59.558C136.405 59.4796 136.053 59.1921 136.118 58.2512C136.196 57.1404 136.183 56.0035 136.118 54.8927C136.066 53.991 136.288 53.612 137.293 53.612C142.557 53.6512 147.821 53.6512 153.085 53.612C154.039 53.5989 154.326 53.8864 154.313 54.8404C154.261 58.1075 154.3 61.3484 154.3 64.6023Z" fill="#040404"/>
<path d="M192.388 61.8056C192.454 59.1527 192.584 56.7351 193.29 54.422C195.079 48.5152 198.867 44.6209 205.058 43.6147C212.53 42.3993 219.152 44.1504 222.457 50.3317C226.297 57.5323 226.336 65.1249 222.783 72.4431C219.962 78.2584 213.523 80.9243 206.352 79.9181C198.149 78.7811 193.29 73.5539 192.571 65.0857C192.48 63.9095 192.441 62.7334 192.388 61.8056ZM215.808 61.6226C215.887 59.401 215.612 57.0879 214.711 54.8664C213.627 52.2266 211.746 50.9067 208.899 50.9067C206.13 50.9198 203.883 52.0698 202.916 54.6965C201.166 59.4794 201.101 64.3408 203.308 69.0323C204.497 71.5544 206.652 72.4953 209.369 72.3255C211.968 72.1686 213.771 70.9141 214.777 68.5095C215.678 66.3533 215.848 64.0794 215.808 61.6226Z" fill="#030303"/>
<path d="M400.347 44.229C398.283 50.3449 396.298 56.2648 394.286 62.1586C391.857 69.2807 389.623 76.4813 386.893 83.4989C385.979 85.8512 384.882 88.0989 383.301 90.0983C380.245 93.9926 375.921 93.7443 372.016 92.4637C371.493 92.2938 371.323 91.9932 371.454 91.4574C371.911 89.5495 372.368 87.6546 372.76 85.7336C372.943 84.8711 373.452 85.0148 374.014 85.1586C376.039 85.6813 377.606 84.8188 378.677 83.2767C379.814 81.604 380.858 79.9051 379.866 77.579C375.386 67.0591 371.023 56.487 366.621 45.9279C366.412 45.4313 366.216 44.9216 365.929 44.229C369.455 44.229 372.799 44.2421 376.13 44.2159C376.94 44.2159 376.966 44.8432 377.11 45.3398C379.448 53.0239 382.504 60.4858 384.189 68.379C384.255 68.7057 384.294 69.0585 384.777 69.2023C385.94 61.2176 388.643 53.625 390.524 45.8233C390.825 44.5688 391.321 44.1245 392.653 44.1898C395.135 44.3205 397.604 44.229 400.347 44.229Z" fill="#040404"/>
<path d="M177.968 63.9359C174.886 63.9359 171.803 63.962 168.72 63.9228C167.767 63.9097 167.506 64.1319 167.597 65.1382C168.015 69.9211 170.549 72.4302 175.33 72.7308C178.425 72.9268 181.364 72.4041 184.003 70.7313C184.917 70.1563 185.204 70.47 185.57 71.2671C186.171 72.587 186.811 73.8938 187.529 75.1484C187.987 75.9455 187.751 76.3114 187.046 76.7166C180.607 80.4018 173.867 81.1859 166.892 78.5853C163.326 77.2524 161.197 74.3382 159.943 70.8228C157.957 65.2166 157.879 59.4927 159.512 53.8211C161.327 47.5353 165.834 44.2683 172.169 43.458C175.134 43.0791 178.099 43.1967 180.972 44.1637C186.393 45.9933 189.489 51.2728 189.084 57.9768C188.979 59.5972 188.679 61.2046 188.587 62.812C188.535 63.8052 188.078 63.962 187.216 63.9489C184.133 63.9097 181.051 63.9359 177.968 63.9359ZM174.089 58.2904C175.93 58.2904 177.772 58.3035 179.614 58.2774C180.032 58.2774 180.476 58.408 180.698 57.7938C181.508 55.5592 179.444 51.5342 177.067 50.7893C172.482 49.3518 167.806 52.7887 167.754 57.5847C167.741 58.4603 168.276 58.2774 168.733 58.2774C170.523 58.3035 172.299 58.2904 174.089 58.2904Z" fill="#030303"/>
<path d="M336.213 79.0949C333.953 79.0949 331.785 79.0818 329.604 79.108C328.937 79.121 328.807 78.7421 328.65 78.1932C328.297 76.9125 327.866 75.658 327.462 74.3773C326.665 74.521 326.508 75.2137 326.129 75.6318C322.498 79.7744 315.68 80.9244 310.964 78.1409C307.529 76.1154 306.197 72.9529 306.249 69.1108C306.288 65.3864 307.973 62.5898 311.252 60.7995C315.484 58.4995 320.108 58.1858 324.771 58.2642C326.26 58.2904 326.691 57.9114 326.691 56.4477C326.704 52.475 325.424 51.0898 321.414 51.0375C318.031 50.9852 314.713 51.4688 311.539 52.6188C310.729 52.9193 310.455 52.7625 310.233 52.0176C309.737 50.358 309.214 48.7114 308.639 47.0779C308.378 46.3591 308.665 46.0847 309.279 45.8625C315.014 43.85 320.904 42.9091 326.926 43.8762C332.373 44.7517 335.103 48.1233 335.455 53.6904C335.625 56.4347 335.547 59.179 335.364 61.9102C334.972 67.6472 334.75 73.3318 336.213 79.0949ZM326.586 66.5887C326.586 65.7523 326.573 65.1381 326.586 64.5239C326.599 64.0404 326.39 63.7921 325.92 63.7659C322.825 63.5568 319.742 63.5307 317.038 65.321C314.922 66.7324 315.092 70.3784 317.339 71.5284C319.481 72.6131 321.74 72.3909 323.752 71.2148C325.515 70.1824 327.03 68.7841 326.586 66.5887Z" fill="#030303"/>
<path d="M351.247 48.9728C354.904 42.6478 359.058 43.1182 363.421 43.9285C364.309 44.0983 364.518 44.4251 364.27 45.2745C363.682 47.3654 363.107 49.4824 362.637 51.5995C362.415 52.6057 361.945 52.5927 361.109 52.3836C358.327 51.6387 355.662 51.691 353.533 54.0302C352.632 55.0103 352.161 56.1211 352.175 57.5194C352.214 64.1841 352.161 70.8489 352.227 77.5137C352.24 78.7813 351.913 79.1341 350.659 79.0688C348.543 78.9642 346.401 79.0035 344.272 79.0557C343.449 79.0688 343.11 78.925 343.123 77.9841C343.162 67.1245 343.149 56.2518 343.136 45.3921C343.136 44.5557 343.292 44.1768 344.233 44.216C345.853 44.2944 347.485 44.2944 349.105 44.216C349.967 44.1768 350.268 44.5035 350.411 45.3006C350.594 46.4376 350.908 47.5614 351.247 48.9728Z" fill="#030303"/>
<path d="M291.789 61.6227C291.789 56.3562 291.829 51.0897 291.763 45.8233C291.75 44.621 291.959 44.1244 293.291 44.2028C295.408 44.3204 297.55 44.2681 299.679 44.2159C300.502 44.2028 300.867 44.3596 300.867 45.3005C300.841 56.2255 300.841 67.1505 300.867 78.0755C300.867 78.9511 300.528 79.0687 299.783 79.0556C297.55 79.0164 295.303 78.9903 293.069 79.0687C292.024 79.1079 291.763 78.7943 291.776 77.7619C291.816 72.3778 291.789 67.0068 291.789 61.6227Z" fill="#040404"/>
<path d="M296.152 39.1325C292.077 39.1325 289.674 36.4535 290.692 33.0558C291.528 30.2722 294.82 28.8478 298.177 29.8279C301.037 30.6643 302.579 33.108 301.847 35.6433C301.22 37.8257 299.078 39.1325 296.152 39.1325Z" fill="#040404"/>
<path d="M252.956 104.434H253.479V104.186C253.479 102.382 252.486 101.768 251.154 101.768C249.613 101.768 248.515 102.657 248.515 102.657L247.915 101.69C247.915 101.69 249.142 100.631 251.245 100.631C253.492 100.631 254.746 101.886 254.746 104.225V110.223H253.531V109.204C253.531 108.733 253.57 108.42 253.57 108.42H253.531C253.531 108.42 252.747 110.445 250.409 110.445C248.842 110.445 247.222 109.531 247.222 107.675C247.222 104.499 251.337 104.434 252.956 104.434ZM250.605 109.361C252.395 109.361 253.479 107.505 253.479 105.871V105.466H252.943C251.467 105.466 248.528 105.519 248.528 107.583C248.528 108.472 249.221 109.361 250.605 109.361Z" fill="#38373A"/>
<path d="M264.986 97.1289H268.853C270.198 97.1289 270.786 97.2596 271.308 97.4818C272.536 98.0175 273.281 99.2721 273.281 100.853C273.281 102.618 272.275 103.977 270.799 104.395V104.434C270.799 104.434 270.93 104.604 271.139 104.957L273.986 110.223H272.51L269.545 104.708H266.253V110.223H264.973V97.1289H264.986ZM269.375 103.558C270.956 103.558 271.962 102.539 271.962 100.893C271.962 99.8079 271.53 99.0107 270.773 98.6056C270.381 98.3965 269.911 98.292 268.918 98.292H266.28V103.558H269.375Z" fill="#38373A"/>
<path d="M281.235 100.631C283.822 100.631 285.141 102.617 285.141 104.957C285.141 105.179 285.102 105.61 285.102 105.61H277.918C277.97 108.015 279.616 109.321 281.549 109.321C283.26 109.321 284.396 108.185 284.396 108.185L284.971 109.152C284.971 109.152 283.613 110.458 281.51 110.458C278.715 110.458 276.612 108.446 276.612 105.558C276.625 102.474 278.701 100.631 281.235 100.631ZM283.861 104.565C283.783 102.604 282.594 101.703 281.196 101.703C279.629 101.703 278.27 102.696 277.97 104.565H283.861Z" fill="#38373A"/>
<path d="M293.501 104.434H294.023V104.186C294.023 102.382 293.03 101.768 291.698 101.768C290.157 101.768 289.059 102.657 289.059 102.657L288.459 101.69C288.459 101.69 289.686 100.631 291.789 100.631C294.036 100.631 295.29 101.886 295.29 104.225V110.223H294.075V109.204C294.075 108.733 294.114 108.42 294.114 108.42H294.075C294.075 108.42 293.292 110.445 290.953 110.445C289.386 110.445 287.766 109.531 287.766 107.675C287.766 104.499 291.881 104.434 293.501 104.434ZM291.162 109.361C292.952 109.361 294.036 107.505 294.036 105.871V105.466H293.501C292.025 105.466 289.086 105.519 289.086 107.583C289.073 108.472 289.765 109.361 291.162 109.361Z" fill="#38373A"/>
<path d="M299.183 100.853H300.397V101.768C300.397 102.173 300.358 102.5 300.358 102.5H300.397C300.397 102.5 301.155 100.631 303.637 100.631C306.145 100.631 307.712 102.644 307.712 105.545C307.712 108.511 305.949 110.445 303.519 110.445C301.273 110.445 300.45 108.655 300.45 108.655H300.41C300.41 108.655 300.45 108.995 300.45 109.478V113.948H299.183V100.853ZM303.389 109.335C305.047 109.335 306.406 107.936 306.406 105.558C306.406 103.271 305.191 101.794 303.441 101.794C301.873 101.794 300.41 102.905 300.41 105.571C300.41 107.453 301.455 109.335 303.389 109.335Z" fill="#38373A"/>
<path d="M311.082 97.1289H312.401V98.7102H311.082V97.1289ZM311.121 100.853H312.388V110.223H311.121V100.853Z" fill="#38373A"/>
<path d="M316.751 102.03H315.523V100.971H316.777V98.2659H318.018V100.971H320.369V102.03H318.018V106.682C318.018 108.877 319.415 109.165 320.121 109.165C320.382 109.165 320.552 109.126 320.552 109.126V110.262C320.552 110.262 320.343 110.302 320.016 110.302C318.932 110.302 316.764 109.949 316.764 106.812V102.03H316.751Z" fill="#38373A"/>
<path d="M329.578 100.853H330.792V101.768C330.792 102.173 330.753 102.5 330.753 102.5H330.792C330.792 102.5 331.55 100.631 334.032 100.631C336.54 100.631 338.107 102.644 338.107 105.545C338.107 108.511 336.344 110.445 333.914 110.445C331.668 110.445 330.845 108.655 330.845 108.655H330.805C330.805 108.655 330.845 108.995 330.845 109.478V113.948H329.578V100.853ZM333.797 109.335C335.455 109.335 336.814 107.936 336.814 105.558C336.814 103.271 335.599 101.794 333.849 101.794C332.281 101.794 330.818 102.905 330.818 105.571C330.805 107.453 331.85 109.335 333.797 109.335Z" fill="#38373A"/>
<path d="M341.516 100.853H342.757V102.513C342.757 102.918 342.718 103.258 342.718 103.258H342.757C343.201 101.847 344.246 100.762 345.722 100.762C345.983 100.762 346.218 100.814 346.218 100.814V102.069C346.218 102.069 345.996 102.03 345.748 102.03C344.429 102.03 343.436 103.075 343.031 104.447C342.848 105.048 342.77 105.676 342.77 106.277V110.223H341.503V100.853H341.516Z" fill="#38373A"/>
<path d="M353.376 100.631C356.106 100.631 358.327 102.722 358.327 105.492C358.327 108.328 356.106 110.445 353.376 110.445C350.633 110.445 348.426 108.328 348.426 105.492C348.426 102.722 350.633 100.631 353.376 100.631ZM353.376 109.308C355.388 109.308 357.02 107.675 357.02 105.492C357.02 103.375 355.388 101.781 353.376 101.781C351.365 101.781 349.732 103.362 349.732 105.492C349.719 107.675 351.365 109.308 353.376 109.308Z" fill="#38373A"/>
<path d="M365.25 100.631C367.522 100.631 368.306 102.395 368.306 102.395H368.345C368.345 102.395 368.306 102.082 368.306 101.69V97.1289H369.573V110.223H368.345V109.23C368.345 108.825 368.384 108.564 368.384 108.564H368.345C368.345 108.564 367.588 110.445 365.119 110.445C362.611 110.445 361.044 108.433 361.044 105.532C361.044 102.565 362.794 100.631 365.25 100.631ZM365.302 109.308C366.869 109.308 368.332 108.198 368.332 105.532C368.332 103.637 367.366 101.768 365.354 101.768C363.695 101.768 362.337 103.166 362.337 105.532C362.35 107.845 363.552 109.308 365.302 109.308Z" fill="#38373A"/>
<path d="M373.466 100.853H374.733V106.473C374.733 107.949 374.955 109.243 376.757 109.243C378.899 109.243 380.219 107.361 380.219 105.336V100.853H381.486V110.223H380.258V108.825C380.258 108.42 380.297 108.08 380.297 108.08H380.258C379.879 108.995 378.651 110.445 376.587 110.445C374.393 110.445 373.466 109.256 373.466 106.812V100.853Z" fill="#38373A"/>
<path d="M389.767 100.631C392.053 100.631 393.189 101.977 393.189 101.977L392.536 102.931C392.536 102.931 391.491 101.794 389.806 101.794C387.755 101.794 386.162 103.323 386.162 105.558C386.162 107.753 387.781 109.321 389.845 109.321C391.739 109.321 392.836 108.002 392.836 108.002L393.411 108.995C393.411 108.995 392.144 110.471 389.767 110.471C386.998 110.471 384.855 108.485 384.855 105.571C384.855 102.657 387.011 100.631 389.767 100.631Z" fill="#38373A"/>
<path d="M397.055 102.03H395.827V100.971H397.081V98.2659H398.322V100.971H400.673V102.03H398.322V106.682C398.322 108.877 399.72 109.165 400.425 109.165C400.686 109.165 400.856 109.126 400.856 109.126V110.262C400.856 110.262 400.647 110.302 400.321 110.302C399.237 110.302 397.068 109.949 397.068 106.812V102.03H397.055Z" fill="#38373A"/>
<path d="M86.6656 76.2199C86.6656 76.2199 37.6312 74.521 26.1759 46.1761C24.5955 42.2687 24.922 37.7994 24.922 32.8335C24.922 32.8335 16.0791 58.5125 60.7246 102.461C61.652 103.362 63.115 103.415 64.0816 102.552C67.974 99.05 78.5802 88.7914 86.6656 76.2199Z" fill="#262F69"/>
<path d="M50.3666 14.8516C51.6727 16.2369 52.5348 17.9096 53.4361 19.5562C53.2794 20.6931 53.6973 21.2812 54.8729 21.5687C59.5099 22.6926 63.8725 27.5278 62.8145 34.2318C62.0569 39.0539 57.3285 43.0266 52.0385 43.1051C48.564 43.1443 45.0896 43.1181 41.6151 43.1181C35.8679 43.1051 30.1076 43.092 24.3603 43.0789C20.0499 43.092 15.7525 43.1443 11.4421 43.092C5.99532 43.0266 1.64571 39.1585 0.692191 33.6437C-0.130707 28.8607 3.04333 23.5289 7.91542 21.8954C9.48284 21.3727 9.8747 20.6278 10.1229 19.0073C10.9588 13.4533 14.0545 9.44142 19.3576 7.42892C24.7914 5.36414 29.768 6.33119 34.1829 10.1471C34.64 10.5391 34.9666 11.1141 35.6327 11.2318C36.2597 12.0158 36.2467 13.8585 37.8924 13.1136C42.4641 11.0227 46.5525 11.846 50.3666 14.8516Z" fill="#7BC9EB"/>
<path d="M95.0773 39.054C95.2471 39.6551 95.3908 40.2954 95.5345 40.975C95.5476 41.0534 95.5737 41.1449 95.5868 41.2233C96.3443 44.8824 96.7231 49.613 95.8088 55.1017C95.8088 55.1147 95.8088 55.1278 95.8088 55.1409C95.7696 55.3369 95.7174 55.5591 95.6782 55.7551C95.1427 58.4733 94.3198 61.1392 93.2879 63.7659C92.9874 64.5369 92.8307 65.2165 92.4127 66.1312C91.8772 67.3335 91.2763 68.5488 90.5971 69.7903C90.5971 69.7903 95.5737 62.9295 98.6694 53.0761C100.746 46.8426 101.739 40.4261 100.851 33.6437C100.472 30.7164 99.7404 27.9329 98.7608 25.3062C98.7085 25.1625 98.6563 25.0057 98.604 24.8619C98.4081 24.3784 98.2122 23.8949 98.0032 23.4244C97.9118 23.2284 97.8465 23.0324 97.755 22.8363V22.8494C89.095 3.93975 65.6228 -5.60002 45.8471 4.17498C42.0983 6.03066 38.8198 8.53975 35.6458 11.1926C36.2727 11.9767 36.2597 13.8193 37.9055 13.0744C42.4771 11.0096 46.5655 11.8199 50.3926 14.8255C51.9731 14.2113 53.6581 13.9892 55.3039 13.8585C66.2498 13.0352 76.1376 15.7273 84.6017 22.954C89.0689 26.7699 92.2821 31.2261 94.2153 36.3096C94.2283 36.3488 94.2414 36.4011 94.2675 36.4403C94.5679 37.3159 94.8292 38.1784 95.0773 39.054Z" fill="#23A4DE"/>
</svg>
