<svg width="401" height="114" viewBox="0 0 401 114" fill="none" xmlns="http://www.w3.org/2000/svg">
<path d="M97.2703 35.8021L89.1588 23.2174L67.8418 11.5998L47.3086 10.9333C47.3086 10.9333 21.7856 25.622 24.6592 44.6362C27.5329 63.6504 74.8299 88.9635 82.0401 81.1748C89.4201 73.2032 97.3356 55.0123 97.4923 54.6856L97.2703 35.8021ZM62.0032 60.0959C50.1822 60.0959 40.5947 50.5038 40.5947 38.6771C40.5947 26.8504 50.1822 17.2583 62.0032 17.2583C73.8242 17.2583 83.4116 26.8504 83.4116 38.6771C83.3985 50.5169 73.8242 60.0959 62.0032 60.0959Z" fill="#0061A8"/>
<path d="M246.619 54.2804C246.619 46.6617 246.632 39.0429 246.606 31.4242C246.606 30.4441 246.737 29.9475 247.899 29.8691C254.43 29.4248 260.974 28.7583 267.479 29.9606C277.289 31.777 283.232 38.3242 284.447 48.3344C285.178 54.3719 284.995 60.331 282.709 66.0157C279.64 73.6214 273.697 77.7509 265.742 79.0708C259.773 80.064 253.79 79.1884 247.808 78.9793C246.737 78.9401 246.593 78.4043 246.606 77.4765C246.632 69.7401 246.619 62.0168 246.619 54.2804ZM256.154 54.202C256.154 59.2986 256.181 64.3952 256.128 69.4787C256.115 70.4458 256.324 70.9293 257.382 70.9162C259.12 70.8901 260.857 71.0731 262.581 70.9554C267.375 70.6287 270.993 68.381 272.952 63.9248C275.212 58.7759 275.238 53.3657 274.115 47.9554C272.835 41.8003 269.047 38.5071 262.829 37.8537C261.04 37.6708 259.25 37.906 257.461 37.9452C256.39 37.9714 256.089 38.3503 256.102 39.4219C256.194 44.3617 256.154 49.2884 256.154 54.202Z" fill="#040404"/>
<path d="M153.736 64.3168C153.736 67.5055 153.71 70.7072 153.749 73.8958C153.762 74.7714 153.501 75.3202 152.77 75.8429C146.147 80.5736 132.001 81.8282 124.321 74.889C120.546 71.4913 118.508 67.1395 117.62 62.239C116.405 55.4827 116.327 48.7395 119.031 42.2708C122.675 33.5805 129.572 29.5685 138.715 29.0719C142.817 28.8498 146.853 29.464 150.81 30.627C151.659 30.8753 151.986 31.1498 151.699 32.1038C151.15 33.9725 150.706 35.8805 150.327 37.8015C150.118 38.8861 149.674 38.8992 148.734 38.5986C145.155 37.4878 141.458 37.2657 137.775 37.7753C132.863 38.4549 129.611 41.356 128.135 45.9952C126.254 51.9151 126.241 57.9265 128.514 63.7549C130.996 70.1452 138.206 72.9941 144.502 70.3412C145.586 69.8839 146.213 69.335 146.134 67.989C146.004 65.7543 146.069 63.5066 146.121 61.2719C146.134 60.5009 145.912 60.2003 145.115 60.135C142.333 59.8736 139.551 59.5077 136.769 59.2725C135.841 59.1941 135.489 58.9066 135.554 57.9657C135.632 56.8549 135.619 55.718 135.554 54.6072C135.502 53.7055 135.724 53.3265 136.73 53.3265C141.994 53.3657 147.258 53.3657 152.522 53.3265C153.475 53.3134 153.762 53.6009 153.749 54.5549C153.697 57.8219 153.736 61.0628 153.736 64.3168Z" fill="#040404"/>
<path d="M191.824 61.5203C191.89 58.8674 192.02 56.4498 192.725 54.1368C194.515 48.2299 198.303 44.3356 204.494 43.3294C211.966 42.114 218.588 43.8652 221.893 50.0464C225.733 57.247 225.772 64.8396 222.219 72.1578C219.398 77.9731 212.958 80.639 205.787 79.6328C197.585 78.4958 192.725 73.2686 192.007 64.8004C191.916 63.6243 191.876 62.4481 191.824 61.5203ZM215.244 61.3373C215.323 59.1157 215.048 56.8027 214.147 54.5811C213.063 51.9413 211.182 50.6214 208.334 50.6214C205.565 50.6345 203.319 51.7845 202.352 54.4112C200.602 59.1941 200.536 64.0555 202.744 68.747C203.933 71.2691 206.088 72.2101 208.805 72.0402C211.404 71.8834 213.207 70.6288 214.212 68.2243C215.114 66.068 215.283 63.7941 215.244 61.3373Z" fill="#030303"/>
<path d="M399.785 43.9435C397.722 50.0595 395.736 55.9793 393.725 61.8731C391.295 68.9952 389.062 76.1958 386.332 83.2134C385.417 85.5657 384.32 87.8134 382.74 89.8129C379.683 93.7072 375.36 93.4589 371.454 92.1782C370.932 92.0083 370.762 91.7077 370.892 91.172C371.35 89.264 371.807 87.3691 372.199 85.4481C372.381 84.5856 372.891 84.7293 373.453 84.8731C375.477 85.3958 377.045 84.5333 378.116 82.9913C379.252 81.3185 380.297 79.6197 379.304 77.2935C374.824 66.7737 370.461 56.2015 366.059 45.6424C365.85 45.1458 365.655 44.6362 365.367 43.9435C368.894 43.9435 372.238 43.9566 375.569 43.9305C376.378 43.9305 376.405 44.5577 376.548 45.0543C378.886 52.7384 381.943 60.2004 383.628 68.0935C383.693 68.4202 383.732 68.7731 384.216 68.9168C385.378 60.9322 388.082 53.3396 389.963 45.5379C390.263 44.2833 390.76 43.839 392.092 43.9043C394.574 44.035 397.042 43.9435 399.785 43.9435Z" fill="#040404"/>
<path d="M177.405 63.6504C174.323 63.6504 171.24 63.6766 168.157 63.6374C167.204 63.6243 166.943 63.8464 167.034 64.8527C167.452 69.6356 169.986 72.1447 174.767 72.4453C177.862 72.6413 180.801 72.1186 183.44 70.4459C184.354 69.8709 184.642 70.1845 185.007 70.9817C185.608 72.3016 186.248 73.6084 186.967 74.8629C187.424 75.6601 187.189 76.026 186.483 76.4311C180.044 80.1163 173.304 80.9004 166.329 78.2999C162.763 76.9669 160.634 74.0527 159.38 70.5373C157.394 64.9311 157.316 59.2072 158.949 53.5356C160.764 47.2499 165.271 43.9828 171.606 43.1726C174.571 42.7936 177.536 42.9112 180.409 43.8783C185.83 45.7078 188.926 50.9873 188.521 57.6913C188.416 59.3118 188.116 60.9192 188.025 62.5266C187.972 63.5197 187.515 63.6765 186.653 63.6635C183.57 63.6243 180.488 63.6504 177.405 63.6504ZM173.526 58.005C175.368 58.005 177.209 58.018 179.051 57.9919C179.469 57.9919 179.913 58.1226 180.135 57.5084C180.945 55.2737 178.881 51.2487 176.504 50.5038C171.919 49.0663 167.243 52.5033 167.191 57.2993C167.178 58.1749 167.713 57.9919 168.17 57.9919C169.96 58.018 171.736 58.005 173.526 58.005Z" fill="#030303"/>
<path d="M335.649 78.8095C333.389 78.8095 331.221 78.7964 329.04 78.8225C328.374 78.8356 328.243 78.4566 328.086 77.9078C327.733 76.6271 327.302 75.3725 326.898 74.0919C326.101 74.2356 325.944 74.9282 325.565 75.3464C321.934 79.489 315.116 80.639 310.4 77.8555C306.965 75.8299 305.633 72.6674 305.685 68.8254C305.724 65.101 307.409 62.3044 310.688 60.514C314.92 58.214 319.544 57.9004 324.207 57.9788C325.696 58.0049 326.127 57.6259 326.127 56.1623C326.14 52.1896 324.86 50.8044 320.85 50.7521C317.467 50.6998 314.149 51.1833 310.975 52.3333C310.165 52.6339 309.891 52.4771 309.669 51.7322C309.173 50.0725 308.65 48.426 308.075 46.7924C307.814 46.0737 308.102 45.7992 308.715 45.5771C314.45 43.5646 320.34 42.6237 326.362 43.5907C331.809 44.4663 334.539 47.8379 334.891 53.4049C335.061 56.1492 334.983 58.8936 334.8 61.6248C334.408 67.3617 334.186 73.0464 335.649 78.8095ZM326.022 66.3032C326.022 65.4669 326.009 64.8527 326.022 64.2384C326.035 63.7549 325.826 63.5066 325.356 63.4805C322.261 63.2714 319.178 63.2453 316.474 65.0356C314.358 66.447 314.528 70.093 316.775 71.243C318.917 72.3277 321.176 72.1055 323.188 70.9294C324.951 69.897 326.466 68.4987 326.022 66.3032Z" fill="#030303"/>
<path d="M350.683 48.6873C354.341 42.3623 358.494 42.8328 362.857 43.643C363.745 43.8129 363.954 44.1396 363.706 44.989C363.118 47.0799 362.544 49.197 362.073 51.314C361.851 52.3203 361.381 52.3072 360.545 52.0981C357.763 51.3532 355.098 51.4055 352.969 53.7447C352.068 54.7248 351.598 55.8356 351.611 57.2339C351.65 63.8987 351.598 70.5634 351.663 77.2282C351.676 78.4958 351.35 78.8487 350.096 78.7833C347.98 78.6788 345.837 78.718 343.708 78.7703C342.886 78.7833 342.546 78.6396 342.559 77.6987C342.598 66.839 342.585 55.9663 342.572 45.1066C342.572 44.2703 342.729 43.8913 343.669 43.9305C345.289 44.0089 346.922 44.0089 348.541 43.9305C349.403 43.8913 349.704 44.218 349.847 45.0152C350.03 46.1521 350.344 47.276 350.683 48.6873Z" fill="#030303"/>
<path d="M291.226 61.3373C291.226 56.0709 291.265 50.8044 291.2 45.5379C291.187 44.3356 291.396 43.8391 292.728 43.9175C294.844 44.0351 296.986 43.9828 299.115 43.9305C299.938 43.9175 300.304 44.0743 300.304 45.0152C300.278 55.9402 300.278 66.8652 300.304 77.7902C300.304 78.6658 299.964 78.7834 299.22 78.7703C296.986 78.7311 294.74 78.705 292.506 78.7834C291.461 78.8226 291.2 78.5089 291.213 77.4765C291.252 72.0925 291.226 66.7214 291.226 61.3373Z" fill="#040404"/>
<path d="M295.588 38.847C291.513 38.847 289.109 36.168 290.128 32.7703C290.964 29.9867 294.256 28.5623 297.613 29.5424C300.473 30.3788 302.014 32.8225 301.283 35.3578C300.656 37.5402 298.514 38.847 295.588 38.847Z" fill="#040404"/>
<path d="M252.394 104.149H252.917V103.9C252.917 102.097 251.924 101.483 250.592 101.483C249.05 101.483 247.953 102.371 247.953 102.371L247.352 101.404C247.352 101.404 248.58 100.346 250.683 100.346C252.93 100.346 254.184 101.6 254.184 103.94V109.938H252.969V108.919C252.969 108.448 253.008 108.134 253.008 108.134H252.969C252.969 108.134 252.185 110.16 249.847 110.16C248.28 110.16 246.66 109.245 246.66 107.39C246.66 104.214 250.775 104.149 252.394 104.149ZM250.043 109.075C251.833 109.075 252.917 107.22 252.917 105.586V105.181H252.381C250.905 105.181 247.966 105.233 247.966 107.298C247.966 108.187 248.659 109.075 250.043 109.075Z" fill="#38373A"/>
<path d="M264.423 96.8436H268.29C269.635 96.8436 270.223 96.9743 270.745 97.1964C271.973 97.7322 272.718 98.9868 272.718 100.568C272.718 102.332 271.712 103.691 270.236 104.109V104.149C270.236 104.149 270.366 104.319 270.575 104.671L273.423 109.938H271.947L268.982 104.423H265.69V109.938H264.41V96.8436H264.423ZM268.812 103.273C270.393 103.273 271.398 102.254 271.398 100.607C271.398 99.5226 270.967 98.7254 270.21 98.3203C269.818 98.1112 269.348 98.0066 268.355 98.0066H265.716V103.273H268.812Z" fill="#38373A"/>
<path d="M280.675 100.346C283.261 100.346 284.58 102.332 284.58 104.671C284.58 104.894 284.541 105.325 284.541 105.325H277.357C277.409 107.729 279.055 109.036 280.988 109.036C282.699 109.036 283.836 107.899 283.836 107.899L284.41 108.866C284.41 108.866 283.052 110.173 280.949 110.173C278.154 110.173 276.051 108.161 276.051 105.273C276.064 102.188 278.141 100.346 280.675 100.346ZM283.3 104.279C283.222 102.319 282.033 101.417 280.636 101.417C279.068 101.417 277.71 102.411 277.409 104.279H283.3Z" fill="#38373A"/>
<path d="M292.937 104.149H293.46V103.9C293.46 102.097 292.467 101.483 291.135 101.483C289.593 101.483 288.496 102.371 288.496 102.371L287.895 101.404C287.895 101.404 289.123 100.346 291.226 100.346C293.473 100.346 294.727 101.6 294.727 103.94V109.938H293.512V108.919C293.512 108.448 293.551 108.134 293.551 108.134H293.512C293.512 108.134 292.728 110.16 290.39 110.16C288.823 110.16 287.203 109.245 287.203 107.39C287.203 104.214 291.318 104.149 292.937 104.149ZM290.599 109.075C292.389 109.075 293.473 107.22 293.473 105.586V105.181H292.937C291.461 105.181 288.522 105.233 288.522 107.298C288.509 108.187 289.202 109.075 290.599 109.075Z" fill="#38373A"/>
<path d="M298.621 100.568H299.836V101.483C299.836 101.888 299.797 102.215 299.797 102.215H299.836C299.836 102.215 300.593 100.346 303.075 100.346C305.583 100.346 307.151 102.358 307.151 105.259C307.151 108.226 305.387 110.16 302.958 110.16C300.711 110.16 299.888 108.37 299.888 108.37H299.849C299.849 108.37 299.888 108.709 299.888 109.193V113.662H298.621V100.568ZM302.827 109.049C304.486 109.049 305.844 107.651 305.844 105.273C305.844 102.986 304.63 101.509 302.879 101.509C301.312 101.509 299.849 102.62 299.849 105.286C299.849 107.167 300.894 109.049 302.827 109.049Z" fill="#38373A"/>
<path d="M310.52 96.8436H311.839V98.4248H310.52V96.8436ZM310.559 100.568H311.826V109.938H310.559V100.568Z" fill="#38373A"/>
<path d="M316.189 101.744H314.961V100.686H316.215V97.9805H317.456V100.686H319.807V101.744H317.456V106.396C317.456 108.592 318.853 108.879 319.559 108.879C319.82 108.879 319.99 108.84 319.99 108.84V109.977C319.99 109.977 319.781 110.016 319.454 110.016C318.37 110.016 316.202 109.663 316.202 106.527V101.744H316.189Z" fill="#38373A"/>
<path d="M329.016 100.568H330.23V101.483C330.23 101.888 330.191 102.215 330.191 102.215H330.23C330.23 102.215 330.988 100.346 333.47 100.346C335.978 100.346 337.545 102.358 337.545 105.259C337.545 108.226 335.782 110.16 333.352 110.16C331.106 110.16 330.283 108.37 330.283 108.37H330.243C330.243 108.37 330.283 108.709 330.283 109.193V113.662H329.016V100.568ZM333.235 109.049C334.893 109.049 336.252 107.651 336.252 105.273C336.252 102.986 335.037 101.509 333.287 101.509C331.719 101.509 330.256 102.62 330.256 105.286C330.243 107.167 331.288 109.049 333.235 109.049Z" fill="#38373A"/>
<path d="M340.954 100.568H342.195V102.228C342.195 102.633 342.156 102.973 342.156 102.973H342.195C342.639 101.561 343.684 100.477 345.16 100.477C345.422 100.477 345.657 100.529 345.657 100.529V101.783C345.657 101.783 345.435 101.744 345.187 101.744C343.867 101.744 342.875 102.79 342.47 104.162C342.287 104.763 342.208 105.39 342.208 105.991V109.938H340.941V100.568H340.954Z" fill="#38373A"/>
<path d="M352.814 100.346C355.544 100.346 357.764 102.437 357.764 105.207C357.764 108.043 355.544 110.16 352.814 110.16C350.071 110.16 347.863 108.043 347.863 105.207C347.863 102.437 350.071 100.346 352.814 100.346ZM352.814 109.023C354.825 109.023 356.458 107.39 356.458 105.207C356.458 103.09 354.825 101.496 352.814 101.496C350.802 101.496 349.169 103.077 349.169 105.207C349.156 107.39 350.802 109.023 352.814 109.023Z" fill="#38373A"/>
<path d="M364.686 100.346C366.959 100.346 367.743 102.11 367.743 102.11H367.782C367.782 102.11 367.743 101.796 367.743 101.404V96.8436H369.01V109.938H367.782V108.945C367.782 108.54 367.821 108.278 367.821 108.278H367.782C367.782 108.278 367.024 110.16 364.556 110.16C362.048 110.16 360.48 108.148 360.48 105.246C360.48 102.28 362.231 100.346 364.686 100.346ZM364.739 109.023C366.306 109.023 367.769 107.912 367.769 105.246C367.769 103.352 366.802 101.483 364.791 101.483C363.132 101.483 361.774 102.881 361.774 105.246C361.787 107.559 362.988 109.023 364.739 109.023Z" fill="#38373A"/>
<path d="M372.902 100.568H374.169V106.187C374.169 107.664 374.391 108.958 376.194 108.958C378.336 108.958 379.655 107.076 379.655 105.05V100.568H380.922V109.938H379.694V108.54C379.694 108.134 379.734 107.795 379.734 107.795H379.694C379.316 108.709 378.088 110.16 376.024 110.16C373.83 110.16 372.902 108.971 372.902 106.527V100.568Z" fill="#38373A"/>
<path d="M389.204 100.346C391.49 100.346 392.626 101.692 392.626 101.692L391.973 102.646C391.973 102.646 390.928 101.509 389.243 101.509C387.193 101.509 385.599 103.038 385.599 105.273C385.599 107.468 387.219 109.036 389.283 109.036C391.177 109.036 392.274 107.716 392.274 107.716L392.849 108.709C392.849 108.709 391.581 110.186 389.204 110.186C386.435 110.186 384.293 108.2 384.293 105.286C384.293 102.371 386.448 100.346 389.204 100.346Z" fill="#38373A"/>
<path d="M396.493 101.744H395.266V100.686H396.52V97.9805H397.76V100.686H400.112V101.744H397.76V106.396C397.76 108.592 399.158 108.879 399.863 108.879C400.125 108.879 400.294 108.84 400.294 108.84V109.977C400.294 109.977 400.085 110.016 399.759 110.016C398.675 110.016 396.506 109.663 396.506 106.527V101.744H396.493Z" fill="#38373A"/>
<path d="M86.1039 75.9344C86.1039 75.9344 37.0696 74.2356 25.6143 45.8907C24.0338 41.9833 24.3604 37.514 24.3604 32.5481C24.3604 32.5481 15.5175 58.227 60.163 102.175C61.0904 103.077 62.5533 103.129 63.5199 102.267C67.4123 98.7645 78.0186 88.506 86.1039 75.9344Z" fill="#262F69"/>
<path d="M49.8041 14.5663C51.1102 15.9515 51.9723 17.6243 52.8736 19.2708C52.7169 20.4078 53.1348 20.9958 54.3104 21.2833C58.9474 22.4072 63.31 27.2424 62.252 33.9464C61.4944 38.7686 56.766 42.7413 51.476 42.8197C48.0015 42.8589 44.5271 42.8328 41.0526 42.8328C35.3054 42.8197 29.5451 42.8066 23.7978 42.7936C19.4874 42.8066 15.19 42.8589 10.8796 42.8066C5.43282 42.7413 1.08321 38.8731 0.129691 33.3583C-0.693207 28.5754 2.48083 23.2436 7.35292 21.6101C8.92034 21.0873 9.3122 20.3424 9.56038 18.722C10.3963 13.168 13.492 9.15608 18.7951 7.14358C24.2289 5.0788 29.2055 6.04585 33.6204 9.86176C34.0775 10.2538 34.4041 10.8288 35.0702 10.9464C35.6972 11.7305 35.6842 13.5731 37.3299 12.8282C41.9016 10.7373 45.99 11.5606 49.8041 14.5663Z" fill="#7BC9EB"/>
<path d="M94.5136 38.7686C94.6834 39.3697 94.8271 40.01 94.9708 40.6896C94.9838 40.768 95.01 40.8595 95.023 40.9379C95.7806 44.597 96.1594 49.3276 95.2451 54.8163C95.2451 54.8293 95.2451 54.8424 95.2451 54.8555C95.2059 55.0515 95.1537 55.2737 95.1145 55.4697C94.5789 58.1879 93.756 60.8538 92.7241 63.4805C92.4237 64.2515 92.267 64.9311 91.849 65.8458C91.3135 67.0481 90.7126 68.2634 90.0334 69.5049C90.0334 69.5049 95.01 62.6441 98.1056 52.7907C100.182 46.5572 101.175 40.1407 100.287 33.3583C99.9082 30.431 99.1767 27.6475 98.1971 25.0208C98.1448 24.8771 98.0926 24.7203 98.0403 24.5765C97.8444 24.093 97.6485 23.6095 97.4395 23.139C97.348 22.943 97.2827 22.747 97.1913 22.5509V22.564C88.5313 3.65435 65.0591 -5.88542 45.2834 3.88958C41.5346 5.74526 38.2561 8.25435 35.082 10.9072C35.709 11.6913 35.6959 13.5339 37.3417 12.789C41.9134 10.7242 46.0018 11.5345 49.8289 14.5401C51.4094 13.9259 53.0944 13.7038 54.7402 13.5731C65.686 12.7498 75.5739 15.4418 84.038 22.6686C88.5051 26.4845 91.7184 30.9407 93.6515 36.0242C93.6646 36.0634 93.6777 36.1157 93.7038 36.1549C94.0042 37.0305 94.2654 37.893 94.5136 38.7686Z" fill="#23A4DE"/>
</svg>
