<?xml version="1.0" encoding="utf-8"?>
<!-- Generator: Adobe Illustrator 24.3.0, SVG Export Plug-In . SVG Version: 6.00 Build 0)  -->
<svg version="1.1" id="Layer_1" xmlns="http://www.w3.org/2000/svg" xmlns:xlink="http://www.w3.org/1999/xlink" x="0px" y="0px"
	 viewBox="0 0 426 139.8" style="enable-background:new 0 0 426 139.8;" xml:space="preserve">
<style type="text/css">
	.st0{fill:#0061A8;}
	.st1{fill:#040404;}
	.st2{fill:#030303;}
	.st3{fill:#262F69;}
	.st4{fill:#7BC9EB;}
	.st5{fill:#23A4DE;}
	.st6{fill:#38373A;}
</style>
<path class="st0" d="M110.1,45.8L102,33.2L80.7,21.6l-20.5-0.7c0,0-25.5,14.7-22.6,33.7c2.9,19,50.2,44.3,57.4,36.5
	c7.4-8,15.3-26.2,15.5-26.5L110.1,45.8z M74.8,70.1c-11.8,0-21.4-9.6-21.4-21.4S63,27.2,74.8,27.2s21.4,9.6,21.4,21.4
	C96.2,60.5,86.7,70.1,74.8,70.1z"/>
<path class="st1" d="M259.5,64.2c0-7.6,0-15.2,0-22.9c0-1,0.1-1.5,1.3-1.6c6.5-0.4,13.1-1.1,19.6,0.1c9.8,1.8,15.8,8.4,17,18.4
	c0.7,6,0.5,12-1.7,17.7c-3.1,7.6-9,11.7-17,13.1c-6,1-12,0.1-17.9-0.1c-1.1,0-1.2-0.6-1.2-1.5C259.5,79.7,259.5,72,259.5,64.2z
	 M269,64.2c0,5.1,0,10.2,0,15.3c0,1,0.2,1.5,1.3,1.4c1.7,0,3.5,0.2,5.2,0c4.8-0.3,8.4-2.6,10.4-7c2.3-5.1,2.3-10.6,1.2-16
	c-1.3-6.2-5.1-9.4-11.3-10.1c-1.8-0.2-3.6,0.1-5.4,0.1c-1.1,0-1.4,0.4-1.4,1.5C269,54.3,269,59.2,269,64.2z"/>
<path class="st1" d="M166.6,74.3c0,3.2,0,6.4,0,9.6c0,0.9-0.2,1.4-1,1.9c-6.6,4.7-20.8,6-28.4-1c-3.8-3.4-5.8-7.7-6.7-12.7
	c-1.2-6.8-1.3-13.5,1.4-20c3.6-8.7,10.5-12.7,19.7-13.2c4.1-0.2,8.1,0.4,12.1,1.6c0.8,0.2,1.2,0.5,0.9,1.5c-0.5,1.9-1,3.8-1.4,5.7
	c-0.2,1.1-0.7,1.1-1.6,0.8c-3.6-1.1-7.3-1.3-11-0.8c-4.9,0.7-8.2,3.6-9.6,8.2c-1.9,5.9-1.9,11.9,0.4,17.8c2.5,6.4,9.7,9.2,16,6.6
	c1.1-0.5,1.7-1,1.6-2.4c-0.1-2.2-0.1-4.5,0-6.7c0-0.8-0.2-1.1-1-1.1c-2.8-0.3-5.6-0.6-8.3-0.9c-0.9-0.1-1.3-0.4-1.2-1.3
	c0.1-1.1,0.1-2.2,0-3.4c-0.1-0.9,0.2-1.3,1.2-1.3c5.3,0,10.5,0,15.8,0c1,0,1.2,0.3,1.2,1.2C166.5,67.8,166.6,71,166.6,74.3z"/>
<path class="st2" d="M204.7,71.5c0.1-2.7,0.2-5.1,0.9-7.4c1.8-5.9,5.6-9.8,11.8-10.8c7.5-1.2,14.1,0.5,17.4,6.7
	c3.8,7.2,3.9,14.8,0.3,22.1c-2.8,5.8-9.3,8.5-16.4,7.5c-8.2-1.1-13.1-6.4-13.8-14.8C204.8,73.6,204.7,72.4,204.7,71.5z M228.1,71.3
	c0.1-2.2-0.2-4.5-1.1-6.8c-1.1-2.6-3-4-5.8-4c-2.8,0-5,1.2-6,3.8c-1.8,4.8-1.8,9.6,0.4,14.3c1.2,2.5,3.3,3.5,6.1,3.3
	c2.6-0.2,4.4-1.4,5.4-3.8C228,76,228.1,73.8,228.1,71.3z"/>
<path class="st1" d="M412.6,53.9c-2.1,6.1-4,12-6.1,17.9c-2.4,7.1-4.7,14.3-7.4,21.3c-0.9,2.4-2,4.6-3.6,6.6
	c-3.1,3.9-7.4,3.6-11.3,2.4c-0.5-0.2-0.7-0.5-0.6-1c0.5-1.9,0.9-3.8,1.3-5.7c0.2-0.9,0.7-0.7,1.3-0.6c2,0.5,3.6-0.3,4.7-1.9
	c1.1-1.7,2.2-3.4,1.2-5.7c-4.5-10.5-8.8-21.1-13.2-31.7c-0.2-0.5-0.4-1-0.7-1.7c3.5,0,6.9,0,10.2,0c0.8,0,0.8,0.6,1,1.1
	c2.3,7.7,5.4,15.1,7.1,23c0.1,0.3,0.1,0.7,0.6,0.8c1.2-8,3.9-15.6,5.7-23.4c0.3-1.3,0.8-1.7,2.1-1.6C407.4,54,409.9,53.9,412.6,53.9
	z"/>
<path class="st2" d="M190.2,73.6c-3.1,0-6.2,0-9.2,0c-1,0-1.2,0.2-1.1,1.2c0.4,4.8,3,7.3,7.7,7.6c3.1,0.2,6-0.3,8.7-2
	c0.9-0.6,1.2-0.3,1.6,0.5c0.6,1.3,1.2,2.6,2,3.9c0.5,0.8,0.2,1.2-0.5,1.6c-6.4,3.7-13.2,4.5-20.2,1.9c-3.6-1.3-5.7-4.2-6.9-7.8
	c-2-5.6-2.1-11.3-0.4-17c1.8-6.3,6.3-9.6,12.7-10.4c3-0.4,5.9-0.3,8.8,0.7c5.4,1.8,8.5,7.1,8.1,13.8c-0.1,1.6-0.4,3.2-0.5,4.8
	c-0.1,1-0.5,1.1-1.4,1.1C196.4,73.6,193.3,73.6,190.2,73.6z M186.4,68c1.8,0,3.7,0,5.5,0c0.4,0,0.9,0.1,1.1-0.5
	c0.8-2.2-1.3-6.3-3.6-7c-4.6-1.4-9.3,2-9.3,6.8c0,0.9,0.5,0.7,1,0.7C182.8,68,184.6,68,186.4,68z"/>
<path class="st2" d="M348.5,88.8c-2.3,0-4.4,0-6.6,0c-0.7,0-0.8-0.4-1-0.9c-0.4-1.3-0.8-2.5-1.2-3.8c-0.8,0.1-1,0.8-1.3,1.3
	c-3.6,4.1-10.4,5.3-15.2,2.5c-3.4-2-4.8-5.2-4.7-9c0-3.7,1.7-6.5,5-8.3c4.2-2.3,8.9-2.6,13.5-2.5c1.5,0,1.9-0.4,1.9-1.8
	c0-4-1.3-5.4-5.3-5.4c-3.4-0.1-6.7,0.4-9.9,1.6c-0.8,0.3-1.1,0.1-1.3-0.6c-0.5-1.7-1-3.3-1.6-4.9c-0.3-0.7,0-1,0.6-1.2
	c5.7-2,11.6-3,17.6-2c5.4,0.9,8.2,4.2,8.5,9.8c0.2,2.7,0.1,5.5-0.1,8.2C347.3,77.3,347,83,348.5,88.8z M338.9,76.3
	c0-0.8,0-1.5,0-2.1c0-0.5-0.2-0.7-0.7-0.8c-3.1-0.2-6.2-0.2-8.9,1.6c-2.1,1.4-1.9,5.1,0.3,6.2c2.1,1.1,4.4,0.9,6.4-0.3
	C337.8,79.9,339.3,78.5,338.9,76.3z"/>
<path class="st2" d="M363.5,58.6c3.7-6.3,7.8-5.9,12.2-5c0.9,0.2,1.1,0.5,0.8,1.3c-0.6,2.1-1.2,4.2-1.6,6.3c-0.2,1-0.7,1-1.5,0.8
	c-2.8-0.7-5.4-0.7-7.6,1.6c-0.9,1-1.4,2.1-1.4,3.5c0,6.7,0,13.3,0.1,20c0,1.3-0.3,1.6-1.6,1.6c-2.1-0.1-4.3-0.1-6.4,0
	c-0.8,0-1.2-0.1-1.1-1.1c0-10.9,0-21.7,0-32.6c0-0.8,0.2-1.2,1.1-1.2c1.6,0.1,3.3,0.1,4.9,0c0.9,0,1.2,0.3,1.3,1.1
	C362.9,56.1,363.2,57.2,363.5,58.6z"/>
<path class="st1" d="M304.1,71.3c0-5.3,0-10.5,0-15.8c0-1.2,0.2-1.7,1.5-1.6c2.1,0.1,4.3,0.1,6.4,0c0.8,0,1.2,0.1,1.2,1.1
	c0,10.9,0,21.8,0,32.8c0,0.9-0.3,1-1.1,1c-2.2,0-4.5-0.1-6.7,0c-1,0-1.3-0.3-1.3-1.3C304.1,82.1,304.1,76.7,304.1,71.3z"/>
<path class="st1" d="M308.4,48.8c-4.1,0-6.5-2.7-5.5-6.1c0.8-2.8,4.1-4.2,7.5-3.2c2.9,0.8,4.4,3.3,3.7,5.8
	C313.5,47.5,311.4,48.8,308.4,48.8z"/>
<path class="st3" d="M98.9,85.9c0,0-49-1.7-60.5-30c-1.6-3.9-1.3-8.4-1.3-13.3c0,0-8.8,25.7,35.8,69.6c0.9,0.9,2.4,1,3.4,0.1
	C80.3,108.7,90.9,98.5,98.9,85.9z"/>
<path class="st4" d="M62.6,24.5c1.3,1.4,2.2,3.1,3.1,4.7c-0.2,1.1,0.3,1.7,1.4,2c4.6,1.1,9,6,7.9,12.7c-0.8,4.8-5.5,8.8-10.8,8.9
	c-3.5,0-6.9,0-10.4,0c-5.7,0-11.5,0-17.3,0c-4.3,0-8.6,0.1-12.9,0c-5.4-0.1-9.8-3.9-10.7-9.4c-0.8-4.8,2.4-10.1,7.2-11.7
	c1.6-0.5,2-1.3,2.2-2.9c0.8-5.6,3.9-9.6,9.2-11.6C37.1,15,42,16,46.5,19.8c0.5,0.4,0.8,1,1.4,1.1c0.6,0.8,0.6,2.6,2.3,1.9
	C54.7,20.7,58.8,21.5,62.6,24.5z"/>
<path class="st5" d="M107.4,48.7c0.2,0.6,0.3,1.2,0.5,1.9c0,0.1,0,0.2,0.1,0.2c0.8,3.7,1.1,8.4,0.2,13.9c0,0,0,0,0,0
	c0,0.2-0.1,0.4-0.1,0.6c-0.5,2.7-1.4,5.4-2.4,8c-0.3,0.8-0.5,1.5-0.9,2.4c-0.5,1.2-1.1,2.4-1.8,3.7c0,0,5-6.9,8.1-16.7
	c2.1-6.2,3.1-12.6,2.2-19.4c-0.4-2.9-1.1-5.7-2.1-8.3c-0.1-0.1-0.1-0.3-0.2-0.4c-0.2-0.5-0.4-1-0.6-1.4c-0.1-0.2-0.2-0.4-0.2-0.6v0
	c-8.7-18.9-32.1-28.4-51.9-18.7c-3.7,1.9-7,4.4-10.2,7c0.6,0.8,0.6,2.6,2.3,1.9c4.6-2.1,8.7-1.3,12.5,1.8c1.6-0.6,3.3-0.8,4.9-1
	c10.9-0.8,20.8,1.9,29.3,9.1c4.5,3.8,7.7,8.3,9.6,13.4c0,0,0,0.1,0.1,0.1C106.8,47,107.1,47.9,107.4,48.7z"/>
<g>
	<g>
		<path class="st6" d="M309.2,115.6h0.5v-0.2c0-1.7-0.9-2.3-2.2-2.3c-1.5,0-2.5,0.9-2.5,0.9l-0.6-0.9c0,0,1.2-1,3.2-1
			c2.2,0,3.3,1.2,3.3,3.4v5.7h-1.2v-1c0-0.4,0-0.7,0-0.7h0c0,0-0.7,1.9-3,1.9c-1.5,0-3-0.9-3-2.7
			C303.7,115.6,307.6,115.6,309.2,115.6z M306.9,120.3c1.7,0,2.7-1.8,2.7-3.3v-0.4h-0.5c-1.4,0-4.2,0.1-4.2,2
			C304.9,119.4,305.6,120.3,306.9,120.3z"/>
		<path class="st6" d="M320.7,108.6h3.7c1.3,0,1.9,0.1,2.4,0.3c1.2,0.5,1.9,1.7,1.9,3.2c0,1.7-1,3-2.4,3.4v0c0,0,0.1,0.2,0.3,0.5
			l2.7,5h-1.4l-2.8-5.3h-3.2v5.3h-1.2V108.6z M324.9,114.7c1.5,0,2.5-1,2.5-2.5c0-1-0.4-1.8-1.1-2.2c-0.4-0.2-0.8-0.3-1.8-0.3h-2.5
			v5H324.9z"/>
		<path class="st6" d="M336.2,111.9c2.5,0,3.7,1.9,3.7,4.1c0,0.2,0,0.6,0,0.6H333c0.1,2.3,1.6,3.5,3.5,3.5c1.6,0,2.7-1.1,2.7-1.1
			l0.6,0.9c0,0-1.3,1.2-3.3,1.2c-2.7,0-4.7-1.9-4.7-4.7C331.8,113.7,333.8,111.9,336.2,111.9z M338.7,115.7
			c-0.1-1.9-1.2-2.7-2.5-2.7c-1.5,0-2.8,0.9-3.1,2.7H338.7z"/>
		<path class="st6" d="M347.9,115.6h0.5v-0.2c0-1.7-0.9-2.3-2.2-2.3c-1.5,0-2.5,0.9-2.5,0.9l-0.6-0.9c0,0,1.2-1,3.2-1
			c2.2,0,3.3,1.2,3.3,3.4v5.7h-1.2v-1c0-0.4,0-0.7,0-0.7h0c0,0-0.7,1.9-3,1.9c-1.5,0-3-0.9-3-2.7
			C342.5,115.6,346.4,115.6,347.9,115.6z M345.7,120.3c1.7,0,2.7-1.8,2.7-3.3v-0.4h-0.5c-1.4,0-4.2,0.1-4.2,2
			C343.7,119.4,344.4,120.3,345.7,120.3z"/>
		<path class="st6" d="M353.4,112.2h1.2v0.9c0,0.4,0,0.7,0,0.7h0c0,0,0.7-1.8,3.1-1.8c2.4,0,3.9,1.9,3.9,4.7c0,2.8-1.7,4.7-4,4.7
			c-2.2,0-2.9-1.7-2.9-1.7h0c0,0,0,0.3,0,0.8v4.3h-1.2V112.2z M357.4,120.3c1.6,0,2.9-1.3,2.9-3.6c0-2.2-1.2-3.6-2.8-3.6
			c-1.5,0-2.9,1.1-2.9,3.6C354.5,118.5,355.5,120.3,357.4,120.3z"/>
		<path class="st6" d="M364.7,108.6h1.3v1.5h-1.3V108.6z M364.8,112.2h1.2v9h-1.2V112.2z"/>
		<path class="st6" d="M370.2,113.3H369v-1h1.2v-2.6h1.2v2.6h2.2v1h-2.2v4.5c0,2.1,1.3,2.4,2,2.4c0.2,0,0.4,0,0.4,0v1.1
			c0,0-0.2,0-0.5,0c-1,0-3.1-0.3-3.1-3.3V113.3z"/>
		<path class="st6" d="M387.2,115.6h0.5v-0.2c0-1.7-0.9-2.3-2.2-2.3c-1.5,0-2.5,0.9-2.5,0.9l-0.6-0.9c0,0,1.2-1,3.2-1
			c2.2,0,3.3,1.2,3.3,3.4v5.7h-1.2v-1c0-0.4,0-0.7,0-0.7h0c0,0-0.7,1.9-3,1.9c-1.5,0-3-0.9-3-2.7
			C381.7,115.6,385.6,115.6,387.2,115.6z M385,120.3c1.7,0,2.7-1.8,2.7-3.3v-0.4h-0.5c-1.4,0-4.2,0.1-4.2,2
			C383,119.4,383.6,120.3,385,120.3z"/>
		<path class="st6" d="M392.6,112.2h1.2v0.9c0,0.4,0,0.7,0,0.7h0c0,0,0.7-1.8,3.1-1.8c2.4,0,3.9,1.9,3.9,4.7c0,2.8-1.7,4.7-4,4.7
			c-2.2,0-2.9-1.7-2.9-1.7h0c0,0,0,0.3,0,0.8v4.3h-1.2V112.2z M396.6,120.3c1.6,0,2.9-1.3,2.9-3.6c0-2.2-1.2-3.6-2.8-3.6
			c-1.5,0-2.9,1.1-2.9,3.6C393.8,118.5,394.8,120.3,396.6,120.3z"/>
		<path class="st6" d="M404,112.2h1.2v0.9c0,0.4,0,0.7,0,0.7h0c0,0,0.7-1.8,3.1-1.8c2.4,0,3.9,1.9,3.9,4.7c0,2.8-1.7,4.7-4,4.7
			c-2.2,0-2.9-1.7-2.9-1.7h0c0,0,0,0.3,0,0.8v4.3H404V112.2z M408.1,120.3c1.6,0,2.9-1.3,2.9-3.6c0-2.2-1.2-3.6-2.8-3.6
			c-1.5,0-2.9,1.1-2.9,3.6C405.2,118.5,406.2,120.3,408.1,120.3z"/>
	</g>
</g>
</svg>
