<svg width="109" height="107" viewBox="0 0 109 107" fill="none" xmlns="http://www.w3.org/2000/svg">
<g clip-path="url(#clip0)">
<path d="M95.5228 63.9902H67.0372C63.2208 71.3401 59.0337 78.3949 54.5 85.1139C49.9662 78.3949 45.7791 71.3401 41.9627 63.9902H13.4772L0 107H109L95.5228 63.9902Z" fill="#F0F0F0"/>
<path d="M98.5192 73.9744L44.2194 97.5588L23.0577 63.9902C49.097 63.9902 67.6428 63.9902 95.3978 63.9902L98.5192 73.9744Z" fill="#7BC9EB"/>
<path d="M22.0096 107L76.3153 83.9216L91.1827 107H22.0096Z" fill="#23A4DE"/>
<path fill-rule="evenodd" clip-rule="evenodd" d="M35.6032 8.05053C40.7666 2.8961 47.7695 0.000267871 55.0716 3.05176e-05C62.3737 0.000267871 69.3766 2.8961 74.54 8.05053C79.7033 13.205 82.6042 20.1958 82.6044 27.4853C82.7658 53.7086 55.0716 86.2327 55.0716 86.2327C55.0716 86.2327 27.3774 53.7086 27.5388 27.4853C27.539 20.1958 30.4399 13.205 35.6032 8.05053ZM55.0717 47.2262C65.6348 47.2262 74.1979 38.6779 74.1979 28.133C74.1979 17.5881 65.6348 9.03981 55.0717 9.03981C44.5085 9.03981 35.9454 17.5881 35.9454 28.133C35.9454 38.6779 44.5085 47.2262 55.0717 47.2262Z" fill="#262F69"/>
<path d="M67.221 30.8492L64.8312 28.9804C64.8615 28.6923 64.8875 28.3554 64.8875 27.9989C64.8875 27.6425 64.8626 27.3056 64.8312 27.0174L67.2232 25.1476C67.6674 24.7966 67.7887 24.1737 67.506 23.6548L65.0208 19.355C64.7553 18.8697 64.1736 18.6205 63.5832 18.8382L60.7633 19.9703C60.2227 19.5803 59.6561 19.251 59.07 18.9878L58.641 15.9967C58.5706 15.429 58.0766 15 57.4927 15H52.5094C51.9255 15 51.4326 15.429 51.3632 15.988L50.9331 18.9899C50.3655 19.2456 49.8076 19.5706 49.2431 19.9725L46.4156 18.8372C45.8858 18.6324 45.2521 18.8621 44.9888 19.3453L42.5005 23.6504C42.2069 24.1466 42.3282 24.7912 42.7821 25.1509L45.172 27.0196C45.134 27.3847 45.1156 27.7021 45.1156 28.0001C45.1156 28.298 45.1341 28.6154 45.172 28.9816L42.78 30.8514C42.3358 31.2034 42.2155 31.8264 42.4983 32.3442L44.9835 36.6439C45.2489 37.1282 45.8252 37.3795 46.421 37.1607L49.241 36.0286C49.7805 36.4176 50.347 36.7469 50.9331 37.0112L51.3621 40.0012C51.4325 40.571 51.9255 41 52.5105 41H57.4938C58.0777 41 58.5717 40.571 58.641 40.012L59.0711 37.0112C59.6388 36.7544 60.1956 36.4305 60.7611 36.0275L63.5886 37.1628C63.7251 37.2159 63.867 37.243 64.0133 37.243C64.4336 37.243 64.8203 37.0133 65.0153 36.6558L67.5113 32.3333C67.7887 31.8263 67.6673 31.2034 67.221 30.8492ZM55.001 32.3333C52.6112 32.3333 50.6677 30.3898 50.6677 28C50.6677 25.6102 52.6112 23.6667 55.001 23.6667C57.3908 23.6667 59.3343 25.6102 59.3343 28C59.3343 30.3898 57.3908 32.3333 55.001 32.3333Z" fill="#23A4DE"/>
</g>
<defs>
<clipPath id="clip0">
<rect width="109" height="107" fill="white"/>
</clipPath>
</defs>
</svg>
