<svg width="68" height="123" viewBox="0 0 68 123" fill="none" xmlns="http://www.w3.org/2000/svg">
<path d="M59.3912 0H8.48446C3.79862 0 0 3.79046 0 8.46622V114.294C0 118.97 3.79862 122.76 8.48446 122.76H59.3912C61.7428 122.753 63.9858 121.772 65.5849 120.051C66.1339 119.475 66.5916 118.818 66.9424 118.104C66.9504 118.026 66.9504 117.948 66.9424 117.871C67.5261 116.767 67.8456 115.542 67.8757 114.294V8.46622C67.8757 6.22084 66.9818 4.06742 65.3907 2.4797C63.7995 0.891975 61.6415 0 59.3912 0V0Z" fill="#23A4DE"/>
<path d="M67.0485 117.871C67.0564 117.948 67.0564 118.026 67.0485 118.104C66.6977 118.818 66.2399 119.474 65.691 120.051C64.0668 121.799 61.7797 122.782 59.3913 122.76H8.48446C3.79862 122.76 0 118.97 0 114.294V107.711L28.4442 79.3496L67.0485 117.871Z" fill="#F2F2F2"/>
<path d="M7.12695 72.4285C5.26835 79.2404 3.79538 86.1513 2.71503 93.1284L0 95.7318V79.5401L7.12695 72.4285Z" fill="#23A4DE"/>
<path d="M19.4294 76.3442L2.71497 93.1285C3.79921 86.187 5.27216 79.3115 7.12689 72.5344L11.3691 68.3013L13.4902 70.4178L19.4294 76.3442Z" fill="#23A4DE"/>
<path d="M9.03595 65.9942C8.33599 68.1108 7.69965 70.2273 7.12695 72.3439L0 79.5402V56.9565L7.44512 64.3857L9.03595 65.9942Z" fill="#23A4DE"/>
<path d="M11.3056 68.2587L7.06335 72.4918C7.63606 70.3753 8.27239 68.2587 8.97236 66.1422L11.3056 68.2587Z" fill="#23A4DE"/>
<path d="M20.1718 41.1671C17.0397 46.2417 14.3773 51.5905 12.2176 57.1471L0 44.9981V21.0387L20.1718 41.1671Z" fill="#7BC9EB"/>
<path d="M37.4377 58.3958L25.4534 70.3755L12.2177 57.147C14.375 51.5759 17.0374 46.2128 20.1718 41.1247L37.4377 58.3958Z" fill="#7BC9EB"/>
<path d="M67.8758 39.9819V64.8302L55.4248 52.406L67.8758 39.9819Z" fill="#0061A8"/>
<path d="M67.8757 76.7885V106.738L34.4257 73.3597L49.4432 58.3957L67.8757 76.7885Z" fill="#7BC9EB"/>
<path d="M25.0716 34.0764C23.299 36.341 21.6628 38.7086 20.1718 41.1669L0 21.0384V9.05873L25.0716 34.0764Z" fill="#F2F2F2"/>
<path d="M12.2176 57.1471C11.0298 60.0468 10.0965 62.9888 9.03596 65.952L7.44512 64.3434L0 56.9567V44.9981L12.2176 57.1471Z" fill="#F2F2F2"/>
<path d="M67.8757 39.9817L55.4248 52.4058L67.8757 64.83V76.7886L49.4432 58.3957L34.4257 73.3597L67.8757 106.738V114.294C67.8785 115.534 67.5954 116.758 67.0485 117.871L28.4442 79.3496L24.0747 83.7097L0.933291 106.78L0 107.711V95.7317L2.71503 93.1284L19.4294 76.4499L13.4267 70.3754L9.03595 65.9941C9.99046 63.031 11.0298 60.0889 12.2176 57.1893L25.4534 70.3754L37.4589 58.3957L20.193 41.1669C21.6841 38.7087 23.3202 36.341 25.0928 34.0765L43.4192 52.3635L67.8757 28.002L67.8757 39.9817Z" fill="#F2F2F2"/>
</svg>
