<svg width="117" height="119" viewBox="0 0 117 119" fill="none" xmlns="http://www.w3.org/2000/svg">
<mask id="mask0" mask-type="alpha" maskUnits="userSpaceOnUse" x="8" y="11" width="106" height="106">
<circle cx="61.3579" cy="63.6756" r="52.4747" transform="rotate(-2.75697 61.3579 63.6756)" fill="#C4C4C4"/>
</mask>
<g mask="url(#mask0)">
<rect x="-2.73633" y="5.47058" width="130.094" height="119.161" transform="rotate(-2.75697 -2.73633 5.47058)" fill="#F2F2F2"/>
<path d="M104.574 120.15C104.574 120.15 92.0162 120.755 82.3929 114.104C67.93 109.905 72.9882 80.2004 74.0469 79.0615C75.1054 77.9222 77.6606 78.6235 83.3934 81.0019C91.2779 84.273 93.1841 91.0733 96.0002 96.0019C99.9998 103.002 103.995 108.138 103.995 108.138C106.119 108.036 102.619 114.923 104.574 120.15Z" fill="#23A4DE"/>
<path d="M49.9635 86.1859C49.501 89.3895 39.0461 102.349 38.3698 119.892C51.72 132.162 71.603 133.387 86.3721 124.128C84.4302 109.656 78.2985 87.4141 75.0428 80.9233C70.5173 71.9017 61.6094 70.2442 61.6094 70.2442C61.6094 70.2442 50.5695 81.9883 49.9635 86.1859Z" fill="#23A4DE"/>
<ellipse cx="64.1939" cy="78.907" rx="9.85761" ry="7.79781" transform="rotate(-2.75697 64.1939 78.907)" fill="#0076AB"/>
<path d="M35.9984 139.322C35.9984 139.322 34.7123 118.432 44.9138 110.036C55.1156 101.641 55.0368 80.6889 54.1937 79.5152C53.3508 78.341 43.3838 80.2496 38.8292 84.4617C30.3454 92.3074 24.3531 104.449 21.1658 115.411C16.3226 112.757 37.4559 134.282 35.9984 139.322Z" fill="#23A4DE"/>
<path d="M38.3523 117.055C39.7536 112.063 45.2335 100.854 45.2335 100.854C45.2335 100.854 41.4967 114.168 44.5684 121.134C42.3582 120.693 40.0691 118.614 38.3523 117.055Z" fill="#0076AB"/>
<path d="M90.4865 114.985C88.5942 110.104 82.0009 99.3735 82.0009 99.3735C82.0009 99.3735 87.047 112.388 84.6363 119.686C86.8143 119.029 88.9127 116.718 90.4865 114.985Z" fill="#0076AB"/>
</g>
<path d="M46.2008 52.6257C46.4129 57.0309 43.2518 60.7627 39.1404 60.9607C35.0285 61.1587 31.5233 57.7479 31.3112 53.3427C31.099 48.937 34.2602 45.2051 38.3721 45.0071C42.4835 44.8091 45.9887 48.22 46.2008 52.6257Z" fill="#FFE5C7"/>
<path d="M95.818 49.7886C96.0302 54.1943 92.869 57.9262 88.7576 58.1241C84.6457 58.3222 81.1405 54.9113 80.9284 50.5056C80.7162 46.1004 83.8774 42.3681 87.9893 42.1701C92.1007 41.9721 95.6059 45.3834 95.818 49.7886Z" fill="#FFE5C7"/>
<path d="M37.191 49.2156C37.191 49.2156 39.8757 83.6822 64.7177 82.4859C89.5597 81.2896 91.3352 54.2963 90.2779 44.5064C89.221 34.7165 84.1058 19.7407 84.1058 19.7407L63.1057 18.5992L44.8712 23.1678L36.5005 28.7988L36.2188 35.1161L37.191 49.2156Z" fill="#FFE5C7"/>
<path d="M49.1397 38.5353C49.0994 39.2469 49.9927 39.0934 50.7314 38.9714C52.2679 38.7176 51.8093 37.5846 55.0469 37.5547C56.2215 37.5438 58.1395 39.4057 58.6813 38.3999C60.2212 35.5416 49.4174 33.6467 49.1397 38.5353Z" fill="#262F69"/>
<path d="M82.5178 37.703C81.7808 36.3227 79.3392 35.7298 77.6485 35.917C76.2329 36.0737 73.8627 36.7835 73.9645 38.2328C73.9958 38.6765 74.6602 38.5966 75.1771 38.4783C75.9799 38.2945 76.3035 37.967 77.0798 37.8961C77.8346 37.8269 78.6119 37.9562 79.2756 38.2566C80.0794 38.6208 80.6508 39.1822 81.6649 38.8974C82.5754 38.6413 82.8869 38.3945 82.5178 37.703Z" fill="#262F69"/>
<path d="M80.1293 42.2282C80.0069 42.1585 79.8772 42.0976 79.7401 42.0474C75.2105 40.3844 73.6734 47.5625 76.9798 48.7274C81.7532 50.4093 82.9645 43.8481 80.1293 42.2282Z" fill="#262F69"/>
<path d="M79.5675 43.0237C79.0652 42.5473 78.1095 42.971 78.246 43.6193C78.3154 43.9498 78.3816 44.2142 78.687 44.4394C79.1527 44.7836 80.0856 44.3805 80.0478 43.8319C80.0229 43.4748 79.8292 43.2719 79.5675 43.0237Z" fill="white"/>
<path d="M54.06 65C54.06 65 65.2119 71.6537 73.7124 66.7526C69.1016 73.4056 56.6506 72.3864 54.06 65Z" fill="#262F69"/>
<path d="M40.2933 12.0911C46.5373 3.0545 59.707 0.947286 71.6181 3.17974C78.3603 4.44342 100.502 12.0892 94.1705 25.0636C94.5395 28.95 94.7478 32.8701 94.7514 36.7741C94.7533 39.256 94.8001 41.924 94.1867 44.3494C93.418 47.389 90.4482 46.4888 89.4293 44.087C87.5791 39.7254 89.3304 34.8897 86.3483 30.6008C79.5723 20.8563 74.502 26 63.002 27.5C54.002 28.6739 45.002 24.002 45.002 24.002C45.002 24.002 38.5529 33.3524 39.5295 48.0241C39.8371 52.6529 31.7986 51.1944 32.5016 41.0018C33.2042 30.8094 30.77 13.0049 40.2933 12.0911Z" fill="#262F69"/>
<path d="M31.1631 64.3863C30.1877 64.2267 29.2415 64.0027 28.3508 63.7203C21.8217 61.6508 18.0598 56.4114 16.7333 49.6052C16.6074 48.9605 15.6744 48.9767 15.571 49.6255C14.3064 57.5833 9.73456 63.275 1.70635 64.9105C1.06787 65.0406 1.08416 65.9636 1.72696 66.071C9.73268 67.4078 14.5819 72.9245 16.1176 80.7701C16.2142 81.2643 16.7378 81.2577 16.7078 81.2468C16.994 81.2414 17.2353 81.0312 17.2798 80.7485C17.9209 76.6777 19.8234 71.129 25.247 67.8141C26.9796 66.7561 28.9774 65.9935 31.1847 65.5474C31.464 65.491 31.6632 65.2429 31.6579 64.9579C31.6526 64.6728 31.4443 64.4323 31.1631 64.3863Z" fill="#FFB71B"/>
<path d="M27.6471 18.9772C27.3023 18.9208 26.9678 18.8416 26.653 18.7418C24.345 18.0102 23.0152 16.1581 22.5463 13.7522C22.5017 13.5242 22.1719 13.53 22.1354 13.7593C21.6884 16.5724 20.0722 18.5844 17.2343 19.1625C17.0086 19.2085 17.0144 19.5348 17.2416 19.5727C20.0716 20.0453 21.7858 21.9954 22.3286 24.7687C22.3628 24.9435 22.5479 24.9411 22.5372 24.9373C22.6384 24.9354 22.7237 24.8611 22.7394 24.7611C22.9661 23.3221 23.6386 21.3607 25.5558 20.1889C26.1683 19.8149 26.8745 19.5453 27.6547 19.3876C27.7535 19.3677 27.8239 19.28 27.822 19.1792C27.8201 19.0785 27.7465 18.9934 27.6471 18.9772Z" fill="#FFB71B"/>
<path d="M107.8 74.0284C107.289 73.9448 106.793 73.8274 106.326 73.6794C102.905 72.5948 100.933 69.8489 100.238 66.2819C100.172 65.9439 99.6829 65.9524 99.6288 66.2925C98.966 70.463 96.57 73.446 92.3625 74.3032C92.0279 74.3713 92.0364 74.8551 92.3733 74.9114C96.569 75.6119 99.1104 78.5031 99.9152 82.6149C99.9659 82.8739 100.24 82.8705 100.225 82.8647C100.375 82.8619 100.501 82.7518 100.524 82.6036C100.86 80.4701 101.857 77.5622 104.7 75.8249C105.608 75.2704 106.655 74.8707 107.812 74.6369C107.958 74.6073 108.062 74.4773 108.06 74.328C108.057 74.1786 107.948 74.0525 107.8 74.0284Z" fill="#FFB71B"/>
<path d="M55.1273 42.2282C55.005 42.1585 54.8753 42.0976 54.7381 42.0474C50.2085 40.3844 48.6715 47.5625 51.9778 48.7274C56.7512 50.4093 57.9625 43.8481 55.1273 42.2282Z" fill="#262F69"/>
<path d="M54.5672 43.0233C54.0649 42.547 53.1092 42.9706 53.2456 43.619C53.3157 43.9493 53.3813 44.2139 53.6867 44.4391C54.1524 44.7833 55.0854 44.3807 55.0475 43.8316C55.0226 43.4745 54.8289 43.2716 54.5672 43.0233Z" fill="white"/>
</svg>
