<svg width="40" height="40" viewBox="0 0 40 40" fill="none" xmlns="http://www.w3.org/2000/svg">
<rect width="40" height="40" rx="4" fill="#F2F2F2"/>
<path d="M18.1572 21.8221C20.7829 24.4478 23.3563 25.513 24.2832 24.5861L25.556 23.3136C25.9771 22.8926 26.5481 22.656 27.1435 22.656C27.739 22.656 28.31 22.8926 28.731 23.3136L31.5885 26.1711C32.0096 26.5921 32.2461 27.1632 32.2461 27.7586C32.2461 28.354 32.0096 28.9251 31.5885 29.3461L29.3622 31.5724C27.2587 33.6759 21.0371 30.868 15.0742 24.9054C12.0942 21.924 10.1397 19.1158 8.87647 16.4751C7.61321 13.8345 7.35721 11.6686 8.40838 10.6174L10.6347 8.39107C11.0557 7.97005 11.6268 7.73352 12.2222 7.73352C12.8176 7.73352 13.3887 7.97005 13.8097 8.39107L16.6672 11.2477C17.0882 11.6687 17.3248 12.2397 17.3248 12.8352C17.3248 13.4306 17.0882 14.0016 16.6672 14.4227L15.3935 15.6985C14.4666 16.6245 15.5315 19.1976 18.1572 21.8221Z" fill="#0061A8"/>
</svg>
