<svg width="65" height="52" viewBox="0 0 65 52" fill="none" xmlns="http://www.w3.org/2000/svg">
<path d="M65 39.5C65 43.3333 63.7548 46.4167 61.2644 48.75C58.7739 50.9167 55.6194 52 51.8008 52C47.318 52 43.5824 50.5 40.5939 47.5C37.7714 44.5 36.3602 40.0833 36.3602 34.25C36.3602 28.75 37.1073 24.0833 38.6015 20.25C40.2618 16.25 42.1711 12.9167 44.3295 10.25C46.6539 7.41667 48.9783 5.16667 51.3027 3.5C53.7931 1.83333 55.9515 0.666668 57.7778 0L64.0038 8.75C60.3512 10.5833 57.3627 13.0833 55.0383 16.25C52.8799 19.25 51.8008 23.0833 51.8008 27.75C52.4649 27.5833 53.378 27.5 54.5402 27.5C57.8608 27.5 60.4342 28.6667 62.2605 31C64.0868 33.3333 65 36.1667 65 39.5ZM28.6398 39.5C28.6398 43.3333 27.3946 46.4167 24.9042 48.75C22.4138 50.9167 19.2593 52 15.4406 52C10.9579 52 7.22222 50.5 4.23372 47.5C1.41124 44.5 0 40.0833 0 34.25C0 28.75 0.747126 24.0833 2.24138 20.25C3.90166 16.25 5.81098 12.9167 7.96935 10.25C10.2937 7.41667 12.6181 5.16667 14.9425 3.5C17.4329 1.83333 19.5913 0.666668 21.4176 0L27.6437 8.75C23.9911 10.5833 21.0026 13.0833 18.6782 16.25C16.5198 19.25 15.4406 23.0833 15.4406 27.75C16.1047 27.5833 17.0179 27.5 18.1801 27.5C21.5006 27.5 24.0741 28.6667 25.9004 31C27.7267 33.3333 28.6398 36.1667 28.6398 39.5Z" fill="#FFEBD3"/>
</svg>
