<svg width="117" height="117" viewBox="0 0 117 117" fill="none" xmlns="http://www.w3.org/2000/svg">
<g clip-path="url(#clip0)">
<path d="M34.2645 23.2188L27.4328 16.373C25.848 14.785 23.7399 13.9107 21.4966 13.9107C19.2533 13.9107 17.1452 14.7852 15.5607 16.373L10.6085 21.3359C7.34875 24.602 7.34875 29.9169 10.6085 33.1833L17.4546 40.0435C18.1242 40.7144 19.0024 41.0499 19.881 41.0499C20.7569 41.0499 21.6333 40.716 22.3024 40.0485C23.6424 38.7113 32.9215 29.4018 34.2597 28.0663C35.5994 26.7293 35.6017 24.5591 34.2645 23.2188Z" fill="#23A4DE"/>
<path d="M58.5 0.685547C56.607 0.685547 55.0723 2.22026 55.0723 4.11328V15.082C55.0723 16.9751 56.607 18.5098 58.5 18.5098C60.393 18.5098 61.9277 16.9751 61.9277 15.082V4.11328C61.9277 2.22026 60.393 0.685547 58.5 0.685547Z" fill="#23A4DE"/>
<path d="M66.9551 0H50.0449C48.1519 0 46.6172 1.53471 46.6172 3.42773C46.6172 5.32076 48.1519 6.85547 50.0449 6.85547H66.9551C68.8481 6.85547 70.3828 5.32076 70.3828 3.42773C70.3828 1.53471 68.8481 0 66.9551 0Z" fill="#262F69"/>
<path d="M58.5 0H50.0449C48.1519 0 46.6172 1.53471 46.6172 3.42773C46.6172 5.32076 48.1519 6.85547 50.0449 6.85547H58.5V0Z" fill="#0061A8"/>
<path d="M95.6669 27.1054C85.7398 17.1576 72.5402 11.679 58.5 11.679C44.4598 11.679 31.2603 17.1576 21.3331 27.1054C11.4077 37.0513 5.94165 50.2748 5.94165 64.3395C5.94165 78.4042 11.4077 91.6277 21.3331 101.574C31.2603 111.521 44.4598 117 58.5 117C72.5402 117 85.7398 111.521 95.6669 101.574C105.592 91.6277 111.058 78.4042 111.058 64.3395C111.058 50.2748 105.592 37.0513 95.6669 27.1054Z" fill="#58B7E0"/>
<path d="M58.5 11.679C44.4598 11.679 31.2603 17.1576 21.3331 27.1054C11.4077 37.0513 5.94165 50.2748 5.94165 64.3395C5.94165 78.4042 11.4077 91.6277 21.3331 101.574C31.2603 111.521 44.4598 117 58.5 117V11.679Z" fill="#7BC9EB"/>
<path d="M58.5001 24.8025C36.7413 24.8025 19.0391 42.5385 19.0391 64.3392C19.0391 86.1398 36.7413 103.876 58.5001 103.876C80.2589 103.876 97.9611 86.1398 97.9611 64.3392C97.9611 42.5385 80.2589 24.8025 58.5001 24.8025Z" fill="#F2F2F2"/>
<path d="M58.5001 24.8025C36.7413 24.8025 19.0391 42.5385 19.0391 64.3392C19.0391 86.1398 36.7413 103.876 58.5001 103.876V24.8025Z" fill="white"/>
<path d="M58.5 33.3649C60.393 33.3649 61.9277 31.8302 61.9277 29.9372V24.9537C60.7977 24.8559 59.6549 24.8029 58.5 24.8029C57.3451 24.8029 56.2023 24.8559 55.0723 24.9537V29.9372C55.0723 31.8302 56.607 33.3649 58.5 33.3649Z" fill="#23A4DE"/>
<path d="M58.5 95.3142C56.607 95.3142 55.0723 96.8489 55.0723 98.7419V103.725C56.2023 103.823 57.3451 103.876 58.5 103.876C59.6549 103.876 60.7977 103.823 61.9277 103.725V98.7419C61.9277 96.8489 60.393 95.3142 58.5 95.3142Z" fill="#23A4DE"/>
<path d="M97.8112 60.9117H92.9025C91.0094 60.9117 89.4747 62.4464 89.4747 64.3394C89.4747 66.2324 91.0094 67.7671 92.9025 67.7671H97.8112C97.9086 66.6371 97.9611 65.4943 97.9611 64.3394C97.9611 63.1845 97.9086 62.0417 97.8112 60.9117Z" fill="#23A4DE"/>
<path d="M27.5254 64.3394C27.5254 62.4464 25.9907 60.9117 24.0977 60.9117H19.189C19.0916 62.0417 19.0391 63.1845 19.0391 64.3394C19.0391 65.4943 19.0916 66.6371 19.189 67.7671H24.0977C25.9907 67.7671 27.5254 66.2324 27.5254 64.3394Z" fill="#23A4DE"/>
<path d="M66.9551 62.3613H62.1193V48.498C62.1193 46.6049 60.5846 45.0702 58.6915 45.0702C56.7985 45.0702 55.2638 46.6049 55.2638 48.498V65.789C55.2638 67.6821 56.7985 69.2168 58.6915 69.2168H66.9551C68.8481 69.2168 70.3828 67.6821 70.3828 65.789C70.3828 63.896 68.8481 62.3613 66.9551 62.3613Z" fill="#23A4DE"/>
</g>
<defs>
<clipPath id="clip0">
<rect width="117" height="117" fill="white"/>
</clipPath>
</defs>
</svg>
