<svg width="103" height="103" viewBox="0 0 103 103" fill="none" xmlns="http://www.w3.org/2000/svg">
<g clip-path="url(#clip0)">
<path d="M51.5166 0H51.485C23.0953 0 0 23.0969 0 51.4983C0 62.7602 3.6349 73.2048 9.8066 81.684L3.39235 100.82L23.185 94.4925C31.3253 99.8818 41.0438 103 51.5166 103C79.9081 103 103 79.8981 103 51.5C103 23.0986 79.9081 0 51.5166 0ZM81.4796 72.723C80.242 76.2333 75.3063 79.1405 71.3724 79.9911C68.6777 80.5643 65.1674 81.0195 53.3341 76.1137C38.198 69.8473 28.4513 54.4671 27.6954 53.4653C26.9677 52.4669 21.5802 45.3217 21.5802 37.9339C21.5802 30.5461 25.333 26.9428 26.8481 25.3978C28.0891 24.1269 30.1474 23.5554 32.1144 23.5554C32.7523 23.5554 33.3238 23.5853 33.8405 23.6119C35.3539 23.675 36.1098 23.7681 37.1082 26.157C38.3492 29.1523 41.3761 36.5417 41.7399 37.2976C42.1021 38.0552 42.4676 39.0835 41.9509 40.082C41.4658 41.112 41.0438 41.5705 40.2879 42.446C39.5287 43.3215 38.8011 43.991 38.0469 44.9279C37.3508 45.7453 36.5617 46.6241 37.4422 48.1375C38.321 49.6244 41.3462 54.5568 45.7951 58.5206C51.5449 63.6374 56.2064 65.2738 57.8727 65.9698C59.112 66.4865 60.5972 66.3619 61.5059 65.395C62.6556 64.1524 64.0793 62.0957 65.5313 60.0673C66.5596 58.6103 67.862 58.4309 69.2226 58.9442C70.6165 59.4277 77.9743 63.0626 79.4878 63.8201C80.9979 64.5777 81.998 64.9398 82.3601 65.5761C82.7223 66.2157 82.7223 69.211 81.4796 72.723Z" fill="#7FD371"/>
<path d="M0 51.4983C0 62.7602 3.6349 73.2048 9.8066 81.684L3.39235 100.82L23.185 94.4925C31.3253 99.8818 41.0438 103 51.5166 103C79.9081 103 103 79.8981 103 51.5C103 23.0986 79.9081 0 51.5166 0H51.485L0 51.4983ZM81.4796 72.723C80.242 76.2333 75.3063 79.1405 71.3724 79.9911C68.6777 80.5643 65.1674 81.0195 53.3341 76.1137C38.198 69.8473 28.4513 54.4671 27.6954 53.4653C26.9677 52.4669 21.5802 45.3217 21.5802 37.9339C21.5802 30.5461 25.333 26.9428 26.8481 25.3978C28.0891 24.1269 30.1474 23.5554 32.1144 23.5554C32.7523 23.5554 33.3238 23.5853 33.8405 23.6119C35.3539 23.675 36.1098 23.7681 37.1082 26.157C38.3492 29.1523 41.3761 36.5417 41.7399 37.2976C42.1021 38.0552 42.4676 39.0835 41.9509 40.082C41.4658 41.112 41.0438 41.5705 40.2879 42.446C39.5287 43.3215 38.8011 43.991 38.0469 44.9279C37.3508 45.7453 36.5617 46.6241 37.4422 48.1375C38.321 49.6244 41.3462 54.5568 45.7951 58.5206C51.5449 63.6374 56.2064 65.2738 57.8727 65.9698C59.112 66.4865 60.5972 66.3619 61.5059 65.395C62.6556 64.1524 64.0793 62.0957 65.5313 60.0673C66.5596 58.6103 67.862 58.4309 69.2226 58.9442C70.6165 59.4277 77.9743 63.0626 79.4878 63.8201C80.9979 64.5777 81.998 64.9398 82.3601 65.5761C82.7223 66.2157 82.7223 69.211 81.4796 72.723Z" fill="#6DBC61"/>
<path d="M67.9816 2.71635C81.1125 13.9417 89.6831 31.0995 89.6831 45.6258C89.6831 53.6266 87.0765 61.1124 82.5495 67.5432C82.4897 68.8706 82.1956 70.703 81.478 72.7231C80.2403 76.2334 75.3046 79.1407 71.3707 79.9913C70.643 80.1458 69.8473 80.2886 68.8522 80.3202C60.2334 85.6945 49.5513 88.8758 37.9804 88.8758C27.5608 88.8758 17.8672 86.2892 9.74677 81.8502L3.39233 100.821L23.1849 94.4927C31.3253 99.8819 41.0438 103 51.5166 103C79.908 103 103 79.8982 103 51.5001C103 28.8601 88.3175 9.60239 67.9816 2.71635Z" fill="#549B45"/>
<path d="M69.221 58.9459C69.5665 59.0656 70.2709 59.3779 71.1614 59.7882L36.7461 25.3746C36.8657 25.6022 36.987 25.863 37.1083 26.1587C38.3492 29.154 41.3761 36.5434 41.7399 37.2993C42.1021 38.0569 42.4676 39.0852 41.9509 40.0837C41.4658 41.1137 41.0439 41.5722 40.288 42.4477C39.5288 43.3232 38.8011 43.9927 38.0469 44.9296C37.3508 45.747 36.5617 46.6258 37.4422 48.1392C38.321 49.6261 41.3462 54.5585 45.7951 58.5223C51.5449 63.6391 56.2064 65.2755 57.8727 65.9715C59.112 66.4882 60.5972 66.3636 61.506 65.3967C62.6556 64.1541 64.0793 62.0974 65.5313 60.069C66.5579 58.612 67.8621 58.4326 69.221 58.9459Z" fill="#549B45"/>
<path d="M21.5834 37.9806L21.2445 38.3211L21.615 38.6899C21.6017 38.454 21.5834 38.2181 21.5834 37.9806Z" fill="#5CAA4F"/>
</g>
<defs>
<clipPath id="clip0">
<rect width="103" height="103" fill="white"/>
</clipPath>
</defs>
</svg>
